<?xml version="1.0" encoding="UTF-8" standalone="no"?>
<!-- Generator: Adobe Illustrator 15.0.2, SVG Export Plug-In . SVG Version: 6.00 Build 0)  -->

<svg
   version="1.1"
   id="_x30_"
   x="0px"
   y="0px"
   
   
   viewBox="0 0 48.633 48.634"
   style="enable-background:new 0 0 48.633 48.634;"
   xml:space="preserve"
   sodipodi:docname="Mexico_road_sign_SP-19.svg"
   inkscape:version="1.2.2 (732a01da63, 2022-12-09)"
   xmlns:inkscape="http://www.inkscape.org/namespaces/inkscape"
   xmlns:sodipodi="http://sodipodi.sourceforge.net/DTD/sodipodi-0.dtd"
   xmlns="http://www.w3.org/2000/svg"
   xmlns:svg="http://www.w3.org/2000/svg"><defs
   id="defs17" /><sodipodi:namedview
   id="namedview15"
   pagecolor="#ffffff"
   bordercolor="#111111"
   borderopacity="1"
   inkscape:showpageshadow="0"
   inkscape:pageopacity="0"
   inkscape:pagecheckerboard="1"
   inkscape:deskcolor="#d1d1d1"
   showgrid="false"
   inkscape:zoom="13.725147"
   inkscape:cx="30.491476"
   inkscape:cy="19.526202"
   inkscape:window-width="1920"
   inkscape:window-height="1057"
   inkscape:window-x="-8"
   inkscape:window-y="-8"
   inkscape:window-maximized="1"
   inkscape:current-layer="_x30_" />
<g
   id="HATCH"
   transform="matrix(-1,0,0,1,48.63325,0)">
	<path
   style="clip-rule:evenodd;fill:#ffff00;fill-rule:evenodd"
   d="m 0.68825,22.655 21.997,-21.967 c 0.916,-0.917 2.404,-0.917 3.322,0 l 21.94,21.967 c 0.914,0.917 0.914,2.406 0,3.322 l -21.94,21.97 c -0.918,0.915 -2.406,0.915 -3.322,0 l -21.997,-21.97 c -0.917,-0.915 -0.917,-2.405 0,-3.322 z"
   id="path2" />
</g>
<g
   id="HATCH_1_">
	<path
   style="fill-rule:evenodd;clip-rule:evenodd;"
   d="M25.548,1.088h-2.463L1.089,23.084v2.464l21.996,21.996h2.463l21.997-21.996   v-2.464L25.548,1.088z M47.144,23.486v1.661L25.146,47.114h-1.661L1.49,25.147v-1.661L23.485,1.518h1.661L47.144,23.486z"
   id="path5" />
</g>
<g
   id="LWPOLYLINE_1_">
	<path
   style="fill:none;stroke:#000000;stroke-width:1.17;stroke-linecap:round;stroke-linejoin:round;stroke-miterlimit:10;"
   d="   M47.121,23.487L25.139,1.503c-0.458-0.458-1.201-0.458-1.659,0L1.496,23.487c-0.459,0.458-0.459,1.201,0,1.659L23.479,47.13   c0.458,0.457,1.201,0.457,1.659,0l21.982-21.983C47.58,24.688,47.58,23.945,47.121,23.487z"
   id="path8" />
</g>
<g
   id="HATCH_3_">
	<polygon
   style="clip-rule:evenodd;fill-rule:evenodd"
   points="18.239,9.566 24.173,9.566 24.173,22.214 28.725,17.662 26.361,17.662 26.361,14.694 33.738,14.694 33.738,22.07 30.799,22.07 30.799,19.736 24.173,26.393 24.173,39.066 18.239,39.066 "
   id="polygon11"
   transform="matrix(-1,0,0,1,48.63325,0)" />
</g>
</svg>
