<?xml version="1.0" encoding="UTF-8" standalone="no"?>
<svg
   viewBox="0 0 634.78265 634.78263"
   version="1.1"
   id="svg60"
   width="634.78265"
   height="634.78265"
   xmlns="http://www.w3.org/2000/svg"
   xmlns:svg="http://www.w3.org/2000/svg">
  <defs
     id="defs4">
    <style
       id="style2">.cls-1{fill:#fff;}.cls-1,.cls-2{stroke:#000;stroke-linecap:round;stroke-linejoin:round;}.cls-2{fill:none;}.cls-3{fill:#ffca06;}.cls-4{fill-rule:evenodd;}</style>
  </defs>
  <g
     id="sp_x5F_Fondo_del_tablero"
     transform="translate(-100.64067,-6.539917)">
    <g
       id="HATCH">
      <rect
         class="cls-3"
         x="197.31"
         y="103.21"
         width="441.45999"
         height="441.45999"
         rx="18.65"
         ry="18.65"
         transform="rotate(-45,418.02898,323.93673)"
         id="rect12" />
    </g>
  </g>
  <g
     id="sp_x5F_Pictograma_y_filete"
     transform="translate(-100.64067,-6.539917)">
    <g
       id="HATCH-2">
      <path
         class="cls-4"
         d="M 431.22,622.9 717,337.12 c 7.28,-7.28 7.28,-19.09 0,-26.38 L 431.22,24.97 c -7.28,-7.28 -19.09,-7.28 -26.38,0 L 119.07,310.75 c -7.28,7.28 -7.28,19.09 0,26.38 l 285.78,285.78 c 7.28,7.28 19.09,7.28 26.38,0 m 8.79,8.79 285.78,-285.78 c 12.14,-12.14 12.14,-31.82 0,-43.97 L 440.02,16.18 C 427.88,4.04 408.2,4.04 396.05,16.18 L 110.27,301.95 c -12.14,12.14 -12.14,31.82 0,43.97 L 396.05,631.7 c 12.14,12.14 31.82,12.14 43.97,0 z"
         id="path16" />
    </g>
    <g
       id="HATCH-3">
      <polygon
         class="cls-4"
         points="418.04,526.69 478.86,526.69 478.86,121.19 418.04,121.19 418.04,332.84 320.26,235.07 357.06,237.77 357.06,207.35 271.04,207.35 271.04,293.37 301.45,293.37 298.75,256.57 418.04,375.85 "
         id="polygon19" />
    </g>
    <g
       id="LWPOLYLINE">
      <rect
         class="cls-2"
         x="197.31"
         y="103.21"
         width="441.45999"
         height="441.45999"
         rx="18.65"
         ry="18.65"
         transform="rotate(-45,418.02898,323.93673)"
         id="rect22" />
    </g>
    <g
       id="LWPOLYLINE-2">
      <rect
         class="cls-2"
         x="184.87"
         y="90.769997"
         width="466.32999"
         height="466.32999"
         rx="31.09"
         ry="31.09"
         transform="rotate(-45,418.02898,323.93673)"
         id="rect25" />
    </g>
    <g
       id="LWPOLYLINE-3">
      <polygon
         class="cls-2"
         points="418.04,526.69 478.86,526.69 478.86,121.19 418.04,121.19 418.04,332.84 320.26,235.07 357.06,237.77 357.06,207.35 271.04,207.35 271.04,293.37 301.45,293.37 298.75,256.57 418.04,375.85 "
         id="polygon28" />
    </g>
  </g>
  <g
     id="sp_x5F_Texto"
     transform="translate(-100.64067,-6.539917)" />
</svg>
