<?xml version="1.0" encoding="UTF-8" standalone="no"?>
<svg
   viewBox="0 0 634.78265 634.78263"
   version="1.1"
   id="svg60"
   width="634.78265"
   height="634.78265"
   xmlns="http://www.w3.org/2000/svg"
   xmlns:svg="http://www.w3.org/2000/svg">
  <defs
     id="defs4">
    <style
       id="style2">.cls-1{fill:#fff;}.cls-1,.cls-2{stroke:#000;stroke-linecap:round;stroke-linejoin:round;}.cls-2{fill:none;}.cls-3{fill:#ffca06;}.cls-4{fill-rule:evenodd;}</style>
  </defs>
  <g
     id="sp_x5F_Fondo_del_tablero"
     transform="translate(-100.64067,-6.539917)">
    <g
       id="HATCH">
      <rect
         class="cls-3"
         x="197.31"
         y="103.21"
         width="441.45999"
         height="441.45999"
         rx="18.65"
         ry="18.65"
         transform="rotate(-45,418.02898,323.93673)"
         id="rect12" />
    </g>
  </g>
  <g
     id="sp_x5F_Pictograma_y_filete"
     transform="translate(-100.64067,-6.539917)">
    <g
       id="HATCH-2">
      <path
         class="cls-4"
         d="M 431.22,622.9 717,337.12 c 7.28,-7.28 7.28,-19.09 0,-26.38 L 431.22,24.97 c -7.28,-7.28 -19.09,-7.28 -26.38,0 L 119.07,310.75 c -7.28,7.28 -7.28,19.09 0,26.38 l 285.78,285.78 c 7.28,7.28 19.09,7.28 26.38,0 m 8.79,8.79 285.78,-285.78 c 12.14,-12.14 12.14,-31.82 0,-43.97 L 440.02,16.18 C 427.88,4.04 408.2,4.04 396.05,16.18 L 110.27,301.95 c -12.14,12.14 -12.14,31.82 0,43.97 L 396.05,631.7 c 12.14,12.14 31.82,12.14 43.97,0 z"
         id="path16" />
    </g>
    <g
       id="HATCH-3">
      <path
         class="cls-4"
         d="m 381.66,430.3 c 38.65,6.93 66.79,40.56 66.79,79.83 v 46.97 h -60.83 v -46.97 c 0,-9.82 -7.03,-18.22 -16.7,-19.96 -27.95,-5.01 -49.54,-27.36 -53.59,-55.46 -5.19,-36.02 19.8,-69.43 55.82,-74.62 l 40.53,-5.84 c 2.77,-0.4 4.69,-2.97 4.29,-5.74 -0.36,-2.49 -2.5,-4.35 -5.02,-4.35 -39.17,0 -70.94,-31.74 -70.96,-70.92 v -58.48 l -48.23,55.87 -43.01,-43.01 121.65,-121.65 121.65,121.65 -43.01,43.01 -48.23,-55.87 v 58.45 c 0.01,5.59 4.55,10.11 10.14,10.11 32.76,0 60.55,24.07 65.22,56.5 5.19,36.02 -19.8,69.43 -55.82,74.62 l -40.53,5.84 c -2.77,0.4 -4.69,2.97 -4.29,5.74 0.31,2.16 1.97,3.88 4.12,4.27 z"
         id="path19" />
    </g>
    <g
       id="LWPOLYLINE">
      <rect
         class="cls-2"
         x="197.31"
         y="103.21"
         width="441.45999"
         height="441.45999"
         rx="18.65"
         ry="18.65"
         transform="rotate(-45,418.02898,323.93673)"
         id="rect22" />
    </g>
    <g
       id="LWPOLYLINE-2">
      <path
         class="cls-2"
         d="m 381.66,430.3 c 38.65,6.93 66.79,40.56 66.79,79.83 v 46.97 h -60.83 v -46.97 c 0,-9.82 -7.03,-18.22 -16.7,-19.96 -27.95,-5.01 -49.54,-27.36 -53.59,-55.46 -5.19,-36.02 19.8,-69.43 55.82,-74.62 l 40.53,-5.84 c 2.77,-0.4 4.69,-2.97 4.29,-5.74 -0.36,-2.49 -2.5,-4.35 -5.02,-4.35 -39.17,0 -70.94,-31.74 -70.96,-70.92 v -58.48 l -48.23,55.87 -43.01,-43.01 121.65,-121.65 121.65,121.65 -43.01,43.01 -48.23,-55.87 v 58.45 c 0.01,5.59 4.55,10.11 10.14,10.11 32.76,0 60.55,24.07 65.22,56.5 5.19,36.02 -19.8,69.43 -55.82,74.62 l -40.53,5.84 c -2.77,0.4 -4.69,2.97 -4.29,5.74 0.31,2.16 1.97,3.88 4.12,4.27"
         id="path25" />
    </g>
    <g
       id="LWPOLYLINE-3">
      <rect
         class="cls-2"
         x="184.87"
         y="90.769997"
         width="466.32999"
         height="466.32999"
         rx="31.09"
         ry="31.09"
         transform="rotate(-45,418.02898,323.93673)"
         id="rect28" />
    </g>
  </g>
</svg>
