<?xml version="1.0" encoding="UTF-8" standalone="no"?>
<!-- Created with Inkscape (http://www.inkscape.org/) -->

<svg
   width="971.02734mm"
   height="971.02734mm"
   viewBox="0 0 971.02734 971.02734"
   version="1.1"
   id="svg37571"
   xmlns="http://www.w3.org/2000/svg"
   xmlns:svg="http://www.w3.org/2000/svg">
  <defs
     id="defs37568" />
  <g
     id="layer1"
     transform="translate(412.30454,375.52616)">
    <g
       id="g1">
      <g
         id="g11919-8-4-9-8"
         transform="rotate(180,1426.6151,1875.4976)">
        <rect
           style="fill:#000000;stroke-width:3.68415;stroke-opacity:0.578462;paint-order:fill markers stroke"
           id="rect20798-0-7-8-8-6-9"
           width="710"
           height="710"
           x="-963.80945"
           y="4185.353"
           ry="40"
           rx="40"
           transform="rotate(-45)" />
        <rect
           style="fill:#ffcc00;stroke-width:3.47659;stroke-opacity:0.578462;paint-order:fill markers stroke"
           id="rect20798-4-7-0-7-17-4-6"
           width="670"
           height="670"
           x="-943.80969"
           y="4205.3525"
           ry="20"
           rx="20"
           transform="rotate(-45)" />
      </g>
      <path
         id="path1814"
         style="stroke:#000000;stroke-width:1.02069"
         d="m 139.63971,-227.0158 c -60.402376,60.41263 -120.816749,120.81348 -181.222553,181.222437 21.347261,21.350795 42.6947884,42.7015915 64.042294,64.052391 23.952262,-27.7301333 47.904715,-55.460264 71.856984,-83.190403 -0.567085,30.603184 1.128383,61.4571109 -0.833277,91.907133 -4.709518,14.138773 -21.644368,8.811637 -32.6474,11.951249 -47.000073,7.993795 -83.189614,54.151931 -79.602891,101.710013 1.572023,46.84981 41.051056,88.23881 87.689286,92.38704 19.898936,3.4056 40.467197,4.6798 59.942857,9.48462 7.92151,6.00783 -0.32018,15.74648 -8.31327,14.65242 -54.294326,11.28887 -95.879884,63.91101 -94.164931,119.36956 0,22.81094 0,45.62189 0,68.43284 30.195425,0 60.390848,0 90.586311,0 0.60373,-25.74784 -1.21713,-51.6965 0.92779,-77.31933 3.19132,-15.25982 18.41904,-22.87151 32.65451,-24.34188 46.74207,-11.82357 79.22377,-61.70979 70.99734,-109.23974 -5.81322,-44.41519 -45.38231,-80.49633 -89.87622,-83.51733 -18.84125,-3.28563 -38.387621,-4.3548 -56.805968,-9.03056 -8.083108,-6.05605 0.669315,-16.50085 8.930842,-13.83786 50.857376,-1.19589 96.420226,-43.97504 100.523306,-94.756472 1.34635,-32.57428272 0.19866,-65.241151 0.5806,-97.850539 23.95224,27.730129 47.90469,55.4600708 71.85694,83.190202 21.3508,-21.3507969 42.7016,-42.701595 64.05241,-64.052201 -60.31774,-60.48109 -120.9138,-120.68425 -181.17302,-181.22359 z" />
    </g>
  </g>
</svg>
