<?xml version="1.0" encoding="iso-8859-1"?>
<!-- Generator: Adobe Illustrator 15.0.2, SVG Export Plug-In . SVG Version: 6.00 Build 0)  -->
<!DOCTYPE svg PUBLIC "-//W3C//DTD SVG 1.1//EN" "http://www.w3.org/Graphics/SVG/1.1/DTD/svg11.dtd">
<svg version="1.1" id="_x30_" xmlns="http://www.w3.org/2000/svg" xmlns:xlink="http://www.w3.org/1999/xlink" x="0px" y="0px"
	   viewBox="0 0 48.633 48.634" style="enable-background:new 0 0 48.633 48.634;"
	 xml:space="preserve">
<g id="HATCH">
	<path style="fill-rule:evenodd;clip-rule:evenodd;fill:#FFFF00;" d="M0.688,22.655L22.685,0.688c0.916-0.917,2.404-0.917,3.322,0
		l21.94,21.968c0.914,0.917,0.914,2.406,0,3.322l-21.94,21.97c-0.918,0.915-2.406,0.915-3.322,0L0.688,25.978
		C-0.229,25.062-0.229,23.572,0.688,22.655L0.688,22.655z"/>
</g>
<g id="HATCH_1_">
	<path style="fill-rule:evenodd;clip-rule:evenodd;" d="M1.088,23.084v2.464l21.997,21.996h2.463l21.996-21.996v-2.464L25.548,1.088
		h-2.463L1.088,23.084z M23.486,1.518h1.661l21.995,21.969v1.661L25.147,47.114h-1.661L1.489,25.147v-1.661L23.486,1.518z"/>
</g>
<g id="LWPOLYLINE_1_">
	<path style="fill:none;stroke:#000000;stroke-width:1.17;stroke-linecap:round;stroke-linejoin:round;stroke-miterlimit:10;" d="
		M1.512,23.487L23.494,1.503c0.458-0.458,1.201-0.458,1.659,0l21.983,21.984c0.459,0.458,0.459,1.201,0,1.659L25.153,47.13
		c-0.458,0.457-1.201,0.457-1.659,0L1.512,25.146C1.053,24.688,1.053,23.945,1.512,23.487z"/>
</g>
<g id="HATCH_3_">
	<path style="fill-rule:evenodd;clip-rule:evenodd;" d="M27.607,37.09h5.739v-3.454c0-0.085,0-0.251-0.056-0.336
		c-0.278-4.4-4.124-7.716-8.525-7.409c-1.449-0.195-2.619-1.562-2.508-3.038v-2.982l3.009,3.149l4.067-3.983L19.639,9.005
		L9.497,19.037l4.012,3.983l3.121-3.149l0.056,2.982c-0.111,4.763,3.512,8.552,8.08,8.666c1.337-0.14,2.618,0.808,2.842,2.117V37.09
		h5.739H27.607L27.607,37.09z"/>
</g>
</svg>
