<?xml version="1.0" encoding="iso-8859-1"?>
<!-- Generator: Adobe Illustrator 15.0.2, SVG Export Plug-In . SVG Version: 6.00 Build 0)  -->
<!DOCTYPE svg PUBLIC "-//W3C//DTD SVG 1.1//EN" "http://www.w3.org/Graphics/SVG/1.1/DTD/svg11.dtd">
<svg version="1.1" id="_x30_" xmlns="http://www.w3.org/2000/svg" xmlns:xlink="http://www.w3.org/1999/xlink" x="0px" y="0px"
	   viewBox="0 0 48.633 48.634" style="enable-background:new 0 0 48.633 48.634;"
	 xml:space="preserve">
<g id="HATCH">
	<path style="fill-rule:evenodd;clip-rule:evenodd;fill:#FFFF00;" d="M47.945,22.655L25.948,0.688c-0.916-0.917-2.404-0.917-3.322,0
		L0.686,22.655c-0.914,0.917-0.914,2.406,0,3.322l21.94,21.97c0.918,0.915,2.406,0.915,3.322,0l21.997-21.97
		C48.862,25.062,48.862,23.572,47.945,22.655L47.945,22.655z"/>
</g>
<g id="HATCH_1_">
	<path style="fill-rule:evenodd;clip-rule:evenodd;" d="M25.548,1.088h-2.463L1.089,23.084v2.464l21.996,21.996h2.463l21.997-21.996
		v-2.464L25.548,1.088z M47.144,23.486v1.661L25.146,47.114h-1.661L1.49,25.147v-1.661L23.485,1.518h1.661L47.144,23.486z"/>
</g>
<g id="LWPOLYLINE_1_">
	<path style="fill:none;stroke:#000000;stroke-width:1.17;stroke-linecap:round;stroke-linejoin:round;stroke-miterlimit:10;" d="
		M47.121,23.487L25.139,1.503c-0.458-0.458-1.201-0.458-1.659,0L1.496,23.487c-0.459,0.458-0.459,1.201,0,1.659L23.479,47.13
		c0.458,0.457,1.201,0.457,1.659,0l21.982-21.983C47.58,24.688,47.58,23.945,47.121,23.487z"/>
</g>
<g id="HATCH_2_">
	<path style="fill-rule:evenodd;clip-rule:evenodd;" d="M27.427,10.557h3.081v9.876l3.081,3.864V35.41h-3.081v-9.873l-3.081-3.867
		V10.557L27.427,10.557z M21.267,10.557h-3.141v9.876l-3.08,3.864V35.41h3.08v-9.873l3.141-3.867V10.557L21.267,10.557z"/>
</g>
</svg>
