<?xml version="1.0" encoding="UTF-8" standalone="no"?>
<svg
   viewBox="0 0 634.78265 634.78263"
   version="1.1"
   id="svg18"
   sodipodi:docname="SP-22_30x30.svg"
   width="634.78265"
   height="634.78265"
   inkscape:version="1.3.2 (091e20e, 2023-11-25, custom)"
   xmlns:inkscape="http://www.inkscape.org/namespaces/inkscape"
   xmlns:sodipodi="http://sodipodi.sourceforge.net/DTD/sodipodi-0.dtd"
   xmlns="http://www.w3.org/2000/svg"
   xmlns:svg="http://www.w3.org/2000/svg">
  <sodipodi:namedview
     id="namedview18"
     pagecolor="#ffffff"
     bordercolor="#000000"
     borderopacity="0.25"
     inkscape:showpageshadow="2"
     inkscape:pageopacity="0.0"
     inkscape:pagecheckerboard="0"
     inkscape:deskcolor="#d1d1d1"
     inkscape:zoom="0.74498301"
     inkscape:cx="316.78575"
     inkscape:cy="538.26731"
     inkscape:window-width="1350"
     inkscape:window-height="1032"
     inkscape:window-x="55"
     inkscape:window-y="38"
     inkscape:window-maximized="0"
     inkscape:current-layer="svg18" />
  <defs
     id="defs1">
    <style
       id="style1">
      .cls-1 {
        fill: #fff;
      }

      .cls-1, .cls-2 {
        stroke: #000;
        stroke-linecap: round;
        stroke-linejoin: round;
      }

      .cls-2 {
        fill: none;
      }

      .cls-3 {
        fill: #ffca06;
      }

      .cls-4 {
        fill-rule: evenodd;
      }
    </style>
  </defs>
  <g
     id="sp_Fondo_del_tablero"
     data-name="sp_Fondo del tablero"
     transform="translate(-100.64067,-6.539917)">
    <g
       id="HATCH">
      <rect
         class="cls-3"
         x="197.31"
         y="103.21"
         width="441.45999"
         height="441.45999"
         rx="18.65"
         ry="18.65"
         transform="rotate(-45,418.02898,323.93673)"
         id="rect3" />
    </g>
  </g>
  <g
     id="sp_Pictograma_y_filete"
     data-name="sp_Pictograma y filete"
     transform="translate(-100.64067,-6.539917)">
    <g
       id="HATCH-2"
       data-name="HATCH">
      <path
         class="cls-4"
         d="M 431.22,622.9 717,337.12 c 7.28,-7.28 7.28,-19.09 0,-26.38 L 431.22,24.97 c -7.28,-7.28 -19.09,-7.28 -26.38,0 L 119.07,310.75 c -7.28,7.28 -7.28,19.09 0,26.38 l 285.78,285.78 c 7.28,7.28 19.09,7.28 26.38,0 m 8.79,8.79 285.78,-285.78 c 12.14,-12.14 12.14,-31.82 0,-43.97 L 440.02,16.18 C 427.88,4.04 408.2,4.04 396.05,16.18 L 110.27,301.95 c -12.14,12.14 -12.14,31.82 0,43.97 L 396.05,631.7 c 12.14,12.14 31.82,12.14 43.97,0 z"
         id="path3" />
    </g>
    <g
       id="HATCH-3"
       data-name="HATCH">
      <path
         class="cls-4"
         d="m 397.76,313.8 c -14.19,-13.52 -36.5,-13.52 -50.69,0 -6.87,6.45 -15.92,10.07 -25.34,10.14 v 15.21 c 9.44,0.01 18.52,-3.62 25.34,-10.14 14.19,-13.52 36.5,-13.52 50.69,0 8.4,11.2 24.28,13.47 35.48,5.07 1.92,-1.44 3.63,-3.15 5.07,-5.07 14.19,-13.52 36.5,-13.52 50.69,0 6.83,6.51 15.91,10.14 25.34,10.14 V 323.94 C 504.95,323.7 495.96,320.1 489,313.8 c -14.19,-13.52 -36.5,-13.52 -50.69,0 -1.44,1.92 -3.15,3.63 -5.07,5.07 -11.2,8.4 -27.08,6.13 -35.48,-5.07 m 0,40.55 c -14.19,-13.52 -36.5,-13.52 -50.69,0 -6.87,6.45 -15.92,10.07 -25.34,10.14 v 15.21 c 9.44,0.01 18.52,-3.62 25.34,-10.14 14.19,-13.52 36.5,-13.52 50.69,0 8.4,11.2 24.28,13.47 35.48,5.07 1.92,-1.44 3.63,-3.15 5.07,-5.07 14.19,-13.52 36.5,-13.52 50.69,0 6.83,6.51 15.91,10.14 25.34,10.14 v -15.21 c -9.39,-0.24 -18.38,-3.84 -25.34,-10.14 -14.19,-13.52 -36.5,-13.52 -50.69,0 -1.44,1.92 -3.15,3.63 -5.07,5.07 -11.2,8.4 -27.08,6.13 -35.48,-5.07 m 223.03,25.34 -55.76,-111.51 h -40.55 v 111.51 h 96.31 m -405.51,0 55.76,-111.51 h 40.55 v 111.51 h -96.31 m 290.66,-188.46 -176.9,99.06 -12.38,-22.11 176.9,-99.06 z"
         id="path4" />
    </g>
    <g
       id="LWPOLYLINE">
      <rect
         class="cls-2"
         x="184.87"
         y="90.769997"
         width="466.32999"
         height="466.32999"
         rx="31.09"
         ry="31.09"
         transform="rotate(-45,418.02898,323.93673)"
         id="rect4" />
    </g>
    <g
       id="LWPOLYLINE-2"
       data-name="LWPOLYLINE">
      <rect
         class="cls-2"
         x="197.31"
         y="103.21"
         width="441.45999"
         height="441.45999"
         rx="18.65"
         ry="18.65"
         transform="rotate(-45,418.02898,323.93673)"
         id="rect5" />
    </g>
    <g
       id="LWPOLYLINE-3"
       data-name="LWPOLYLINE">
      <polygon
         class="cls-2"
         points="524.48,268.18 524.48,379.69 620.79,379.69 565.03,268.18 "
         id="polygon5" />
    </g>
    <g
       id="LWPOLYLINE-4"
       data-name="LWPOLYLINE">
      <path
         class="cls-2"
         d="m 397.76,354.35 c -14.19,-13.52 -36.5,-13.52 -50.69,0 -6.87,6.45 -15.92,10.07 -25.34,10.14 v 15.21 c 9.44,0.01 18.52,-3.62 25.34,-10.14 14.19,-13.52 36.5,-13.52 50.69,0 8.4,11.2 24.28,13.47 35.48,5.07 1.92,-1.44 3.63,-3.15 5.07,-5.07 14.19,-13.52 36.5,-13.52 50.69,0 6.83,6.51 15.91,10.14 25.34,10.14 v -15.21 c -9.39,-0.24 -18.38,-3.84 -25.34,-10.14 -14.19,-13.52 -36.5,-13.52 -50.69,0 -1.44,1.92 -3.15,3.63 -5.07,5.07 -11.2,8.4 -27.08,6.13 -35.48,-5.07 z"
         id="path5" />
    </g>
    <g
       id="LWPOLYLINE-5"
       data-name="LWPOLYLINE">
      <polygon
         class="cls-2"
         points="311.59,268.18 311.59,379.69 215.28,379.69 271.04,268.18 "
         id="polygon6" />
    </g>
    <g
       id="LWPOLYLINE-6"
       data-name="LWPOLYLINE">
      <path
         class="cls-2"
         d="m 397.76,313.8 c -14.19,-13.52 -36.5,-13.52 -50.69,0 -6.87,6.45 -15.92,10.07 -25.34,10.14 v 15.21 c 9.44,0.01 18.52,-3.62 25.34,-10.14 14.19,-13.52 36.5,-13.52 50.69,0 8.4,11.2 24.28,13.47 35.48,5.07 1.92,-1.44 3.63,-3.15 5.07,-5.07 14.19,-13.52 36.5,-13.52 50.69,0 6.83,6.51 15.91,10.14 25.34,10.14 V 323.94 C 504.95,323.7 495.96,320.1 489,313.8 c -14.19,-13.52 -36.5,-13.52 -50.69,0 -1.44,1.92 -3.15,3.63 -5.07,5.07 -11.2,8.4 -27.08,6.13 -35.48,-5.07 z"
         id="path6" />
    </g>
    <g
       id="LWPOLYLINE-7"
       data-name="LWPOLYLINE">
      <rect
         class="cls-2"
         x="309.92999"
         y="217.03"
         width="202.75"
         height="25.34"
         transform="rotate(-29.25,411.28242,229.70788)"
         id="rect6" />
    </g>
  </g>
</svg>
