<?xml version="1.0" encoding="UTF-8" standalone="no"?>
<svg
   viewBox="0 0 634.78265 634.78263"
   version="1.1"
   id="svg23"
   sodipodi:docname="SP-29B1_30x30.svg"
   width="634.78265"
   height="634.78265"
   inkscape:version="1.3.2 (091e20e, 2023-11-25, custom)"
   xmlns:inkscape="http://www.inkscape.org/namespaces/inkscape"
   xmlns:sodipodi="http://sodipodi.sourceforge.net/DTD/sodipodi-0.dtd"
   xmlns="http://www.w3.org/2000/svg"
   xmlns:svg="http://www.w3.org/2000/svg">
  <sodipodi:namedview
     id="namedview23"
     pagecolor="#ffffff"
     bordercolor="#000000"
     borderopacity="0.25"
     inkscape:showpageshadow="2"
     inkscape:pageopacity="0.0"
     inkscape:pagecheckerboard="0"
     inkscape:deskcolor="#d1d1d1"
     inkscape:zoom="0.74498301"
     inkscape:cx="316.78575"
     inkscape:cy="538.26731"
     inkscape:window-width="1350"
     inkscape:window-height="1032"
     inkscape:window-x="52"
     inkscape:window-y="34"
     inkscape:window-maximized="0"
     inkscape:current-layer="svg23" />
  <defs
     id="defs1">
    <style
       id="style1">
      .cls-1 {
        fill: #fff;
      }

      .cls-1, .cls-2 {
        stroke: #000;
        stroke-linecap: round;
        stroke-linejoin: round;
      }

      .cls-2 {
        fill: none;
      }

      .cls-3 {
        fill: #ffca06;
      }

      .cls-4 {
        fill-rule: evenodd;
      }
    </style>
  </defs>
  <g
     id="sp_Fondo_del_tablero"
     data-name="sp_Fondo del tablero"
     transform="translate(-100.64067,-6.539917)">
    <g
       id="HATCH">
      <rect
         class="cls-3"
         x="197.31"
         y="103.21"
         width="441.45999"
         height="441.45999"
         rx="18.65"
         ry="18.65"
         transform="rotate(-45,418.02898,323.93673)"
         id="rect3" />
    </g>
  </g>
  <g
     id="sp_Pictograma_y_filete"
     data-name="sp_Pictograma y filete"
     transform="translate(-100.64067,-6.539917)">
    <g
       id="HATCH-2"
       data-name="HATCH">
      <path
         class="cls-4"
         d="M 431.22,622.9 717,337.12 c 7.28,-7.28 7.28,-19.09 0,-26.38 L 431.22,24.97 c -7.28,-7.28 -19.09,-7.28 -26.38,0 L 119.07,310.75 c -7.28,7.28 -7.28,19.09 0,26.38 l 285.78,285.78 c 7.28,7.28 19.09,7.28 26.38,0 m 8.79,8.79 285.78,-285.78 c 12.14,-12.14 12.14,-31.82 0,-43.97 L 440.02,16.18 C 427.88,4.04 408.2,4.04 396.05,16.18 L 110.27,301.95 c -12.14,12.14 -12.14,31.82 0,43.97 L 396.05,631.7 c 12.14,12.14 31.82,12.14 43.97,0 z"
         id="path3" />
    </g>
    <g
       id="HATCH-3"
       data-name="HATCH">
      <path
         class="cls-4"
         d="m 340.85,348.73 -45.67,-73.07 c -1.94,-3.1 -6.03,-4.05 -9.13,-2.11 l -33.73,21.08 c -2.32,1.45 -3.51,4.19 -3,6.88 l 7.21,37.39 -30.21,26.7 c -3.05,1.91 -4.02,5.91 -2.19,9 l 14.13,22.61 c 1.94,3.1 6.03,4.05 9.13,2.11 0.19,-0.12 0.38,-0.25 0.56,-0.39 -5.49,-14.75 0.15,-31.32 13.5,-39.66 15.52,-9.7 35.97,-4.98 45.67,10.54 l 33.72,-21.08 m -62.63,-15.81 c -0.38,0.41 -0.82,0.76 -1.29,1.06 -3.1,1.94 -7.19,1 -9.13,-2.11 l -5.72,-22.24 c -0.72,-2.8 0.46,-5.74 2.91,-7.27 l 16.86,-10.54 c 3.1,-1.94 7.19,-1 9.13,2.11 l 7.03,11.24 c 1.61,2.58 1.26,5.92 -0.85,8.11 l -18.94,19.64 m 17.67,43.91 c -5.82,-9.31 -18.09,-12.14 -27.4,-6.32 -9.31,5.82 -12.14,18.09 -6.32,27.4 5.82,9.31 18.09,12.14 27.4,6.32 9.31,-5.82 12.14,-18.09 6.32,-27.4 M 467.32,113.35 281.83,229.28 c -3.1,1.94 -4.05,6.03 -2.11,9.13 l 66.75,106.8 112.42,-70.26 c -9.7,-15.52 -4.98,-35.97 10.54,-45.67 15.52,-9.7 35.97,-4.99 45.67,10.54 l 11.24,-7.02 -10.54,-16.86 11.24,-7.03 -59.72,-95.55 M 255.83,425.31 580.23,222.56 V 425.31 H 255.83 M 503.86,246.85 c -5.82,-9.31 -18.09,-12.14 -27.4,-6.32 -9.31,5.82 -12.14,18.09 -6.32,27.4 5.82,9.31 18.09,12.14 27.4,6.32 9.31,-5.82 12.14,-18.09 6.32,-27.4 z"
         id="path4" />
    </g>
    <g
       id="LWPOLYLINE">
      <rect
         class="cls-2"
         x="197.31"
         y="103.21"
         width="441.45999"
         height="441.45999"
         rx="18.65"
         ry="18.65"
         transform="rotate(-45,418.02898,323.93673)"
         id="rect4" />
    </g>
    <g
       id="LWPOLYLINE-2"
       data-name="LWPOLYLINE">
      <rect
         class="cls-2"
         x="184.87"
         y="90.769997"
         width="466.32999"
         height="466.32999"
         rx="31.09"
         ry="31.09"
         transform="rotate(-45,418.02898,323.93673)"
         id="rect5" />
    </g>
    <g
       id="LWPOLYLINE-3"
       data-name="LWPOLYLINE">
      <path
         class="cls-2"
         d="M 467.32,113.35 281.83,229.28 c -3.1,1.94 -4.05,6.03 -2.11,9.13 l 66.75,106.8 112.42,-70.26 c -9.7,-15.52 -4.98,-35.97 10.54,-45.67 15.52,-9.7 35.97,-4.99 45.67,10.54 l 11.24,-7.02 -10.54,-16.86 11.24,-7.03 -59.72,-95.55 z"
         id="path5" />
    </g>
    <g
       id="LWPOLYLINE-4"
       data-name="LWPOLYLINE">
      <circle
         class="cls-2"
         cx="279.01999"
         cy="387.37"
         r="19.889999"
         id="circle5" />
    </g>
    <g
       id="LWPOLYLINE-5"
       data-name="LWPOLYLINE">
      <polyline
         class="cls-2"
         points="255.83 425.31 580.24 222.56 580.24 425.31 255.83 425.31"
         id="polyline5" />
    </g>
    <g
       id="LWPOLYLINE-6"
       data-name="LWPOLYLINE">
      <circle
         class="cls-2"
         cx="486.98999"
         cy="257.39001"
         r="19.889999"
         id="circle6" />
    </g>
    <g
       id="LWPOLYLINE-7"
       data-name="LWPOLYLINE">
      <path
         class="cls-2"
         d="m 340.85,348.73 -45.67,-73.07 c -1.94,-3.1 -6.03,-4.05 -9.13,-2.11 l -33.73,21.08 c -2.32,1.45 -3.51,4.19 -3,6.88 l 7.21,37.39 -30.21,26.7 c -3.05,1.91 -4.02,5.91 -2.19,9 l 14.13,22.61 c 1.94,3.1 6.03,4.05 9.13,2.11 0.19,-0.12 0.38,-0.25 0.56,-0.39 -5.49,-14.75 0.15,-31.32 13.5,-39.66 15.52,-9.7 35.97,-4.98 45.67,10.54 l 33.72,-21.08"
         id="path6" />
    </g>
    <g
       id="LWPOLYLINE-8"
       data-name="LWPOLYLINE">
      <path
         class="cls-2"
         d="m 278.21,332.92 c -0.38,0.41 -0.82,0.76 -1.29,1.06 -3.1,1.94 -7.19,1 -9.13,-2.11 l -5.72,-22.24 c -0.72,-2.8 0.46,-5.74 2.91,-7.27 l 16.86,-10.54 c 3.1,-1.94 7.19,-1 9.13,2.11 l 7.03,11.24 c 1.61,2.58 1.26,5.92 -0.85,8.11 0,0 -18.94,19.64 -18.94,19.64 z"
         id="path7" />
    </g>
    <g
       id="MTEXT">
      <g
         id="g9">
        <path
           d="m 358.74,504.18 c 2.35,2.35 6.71,3.53 13.08,3.53 3.03,0 5.43,-1.16 7.19,-3.48 1.76,-2.32 2.64,-5.27 2.64,-8.86 0,-3.15 -0.79,-5.69 -2.37,-7.61 -1.58,-1.92 -4,-2.88 -7.28,-2.88 -1.73,0 -3.45,0.16 -5.15,0.46 -1.7,0.31 -3.73,1.18 -6.08,2.6 l -8.63,-4.45 4.08,-31.91 h 36.18 v 10.95 h -25.88 l -2.78,14.75 c 1.36,-0.93 2.84,-1.62 4.45,-2.09 1.61,-0.46 3.9,-0.7 6.86,-0.7 3.28,0 6.43,0.65 9.46,1.95 3.03,1.3 5.53,3.45 7.51,6.45 1.98,3 2.97,6.85 2.97,11.55 0,3.59 -0.71,7.18 -2.13,10.76 -1.42,3.59 -3.91,6.63 -7.47,9.14 -3.56,2.5 -8.33,3.76 -14.33,3.76 -8.84,0 -14.94,-1.82 -18.28,-5.47 l 5.94,-8.44 z"
           id="path8" />
        <path
           d="m 411.62,455.2 c 2.84,-3.15 7.05,-4.73 12.62,-4.73 5.57,0 9.69,1.58 12.57,4.73 2.88,3.15 4.31,7.21 4.31,12.15 0,4.94 -1.45,9 -4.36,12.15 -2.91,3.15 -7.08,4.73 -12.52,4.73 -5.44,0 -9.62,-1.58 -12.52,-4.73 -2.91,-3.15 -4.36,-7.2 -4.36,-12.15 0,-4.95 1.42,-9 4.27,-12.15 z m 7.09,17.44 c 1.21,1.36 3.05,2.04 5.52,2.04 2.47,0 4.31,-0.68 5.52,-2.04 1.21,-1.36 1.81,-3.12 1.81,-5.29 0,-2.17 -0.62,-3.93 -1.86,-5.29 -1.24,-1.36 -3.06,-2.04 -5.47,-2.04 -2.41,0 -4.24,0.68 -5.47,2.04 -1.24,1.36 -1.85,3.12 -1.85,5.29 0,2.17 0.6,3.93 1.81,5.29 z m 48.94,-22.17 -36.92,67.63 h -6.86 l 36.92,-67.63 h 6.87 z m -12.52,37.94 c 2.84,-3.15 7.05,-4.73 12.62,-4.73 5.57,0 9.69,1.58 12.57,4.73 2.88,3.15 4.31,7.21 4.31,12.15 0,4.94 -1.45,9 -4.36,12.15 -2.91,3.15 -7.08,4.73 -12.52,4.73 -5.44,0 -9.62,-1.58 -12.52,-4.73 -2.91,-3.15 -4.36,-7.2 -4.36,-12.15 0,-4.95 1.42,-9 4.27,-12.15 z m 7.09,17.44 c 1.21,1.36 3.04,2.04 5.52,2.04 2.48,0 4.31,-0.68 5.52,-2.04 1.21,-1.36 1.81,-3.12 1.81,-5.29 0,-2.17 -0.62,-3.93 -1.86,-5.29 -1.24,-1.36 -3.06,-2.04 -5.47,-2.04 -2.41,0 -4.24,0.68 -5.47,2.04 -1.24,1.36 -1.86,3.12 -1.86,5.29 0,2.17 0.6,3.93 1.81,5.29 z"
           id="path9" />
      </g>
    </g>
  </g>
</svg>
