<?xml version="1.0" encoding="UTF-8" standalone="no"?>
<svg
   viewBox="0 0 634.78265 634.78263"
   version="1.1"
   id="svg20"
   sodipodi:docname="SP-25_30x30.svg"
   width="634.78265"
   height="634.78265"
   inkscape:version="1.3.2 (091e20e, 2023-11-25, custom)"
   xmlns:inkscape="http://www.inkscape.org/namespaces/inkscape"
   xmlns:sodipodi="http://sodipodi.sourceforge.net/DTD/sodipodi-0.dtd"
   xmlns="http://www.w3.org/2000/svg"
   xmlns:svg="http://www.w3.org/2000/svg">
  <sodipodi:namedview
     id="namedview20"
     pagecolor="#ffffff"
     bordercolor="#000000"
     borderopacity="0.25"
     inkscape:showpageshadow="2"
     inkscape:pageopacity="0.0"
     inkscape:pagecheckerboard="0"
     inkscape:deskcolor="#d1d1d1"
     inkscape:zoom="0.74498301"
     inkscape:cx="316.78575"
     inkscape:cy="538.93846"
     inkscape:window-width="1920"
     inkscape:window-height="1009"
     inkscape:window-x="-8"
     inkscape:window-y="-8"
     inkscape:window-maximized="1"
     inkscape:current-layer="svg20" />
  <defs
     id="defs1">
    <style
       id="style1">
      .cls-1 {
        fill: #fff;
      }

      .cls-1, .cls-2 {
        stroke: #000;
        stroke-linecap: round;
        stroke-linejoin: round;
      }

      .cls-2 {
        fill: none;
      }

      .cls-3 {
        fill: #ffca06;
      }

      .cls-4 {
        fill-rule: evenodd;
      }
    </style>
  </defs>
  <g
     id="sp_Fondo_del_tablero"
     data-name="sp_Fondo del tablero"
     transform="translate(-100.64067,-6.539917)">
    <g
       id="HATCH">
      <rect
         class="cls-3"
         x="197.31"
         y="103.21"
         width="441.45999"
         height="441.45999"
         rx="18.65"
         ry="18.65"
         transform="rotate(-45,418.02898,323.93673)"
         id="rect3" />
    </g>
  </g>
  <g
     id="sp_Pictograma_y_filete"
     data-name="sp_Pictograma y filete"
     transform="translate(-100.64067,-6.539917)">
    <g
       id="HATCH-2"
       data-name="HATCH">
      <path
         class="cls-4"
         d="M 431.22,622.9 717,337.12 c 7.28,-7.28 7.28,-19.09 0,-26.38 L 431.22,24.97 c -7.28,-7.28 -19.09,-7.28 -26.38,0 L 119.07,310.75 c -7.28,7.28 -7.28,19.09 0,26.38 l 285.78,285.78 c 7.28,7.28 19.09,7.28 26.38,0 m 8.79,8.79 285.78,-285.78 c 12.14,-12.14 12.14,-31.82 0,-43.97 L 440.02,16.18 C 427.88,4.04 408.2,4.04 396.05,16.18 L 110.27,301.95 c -12.14,12.14 -12.14,31.82 0,43.97 L 396.05,631.7 c 12.14,12.14 31.82,12.14 43.97,0 z"
         id="path3" />
    </g>
    <g
       id="HATCH-3"
       data-name="HATCH">
      <path
         class="cls-4"
         d="m 418.04,151.6 40.55,-50.69 h -81.1 l 40.55,50.69 m 0,344.67 40.55,50.69 h -81.1 z"
         id="path4" />
    </g>
    <g
       id="LWPOLYLINE">
      <rect
         class="cls-2"
         x="197.31"
         y="103.21"
         width="441.45999"
         height="441.45999"
         rx="18.65"
         ry="18.65"
         transform="rotate(-45,418.02898,323.93673)"
         id="rect4" />
    </g>
    <g
       id="LWPOLYLINE-2"
       data-name="LWPOLYLINE">
      <rect
         class="cls-2"
         x="184.87"
         y="90.769997"
         width="466.32999"
         height="466.32999"
         rx="31.09"
         ry="31.09"
         transform="rotate(-45,418.02898,323.93673)"
         id="rect5" />
    </g>
    <g
       id="LWPOLYLINE-3"
       data-name="LWPOLYLINE">
      <polygon
         class="cls-2"
         points="377.48,100.91 418.04,151.6 458.59,100.91 "
         id="polygon5" />
    </g>
    <g
       id="LWPOLYLINE-4"
       data-name="LWPOLYLINE">
      <polygon
         class="cls-2"
         points="377.48,546.96 418.04,496.27 458.59,546.96 "
         id="polygon6" />
    </g>
    <g
       id="g8">
      <g
         id="MTEXT">
        <g
           id="g7">
          <path
             d="m 452.16,259.12 c 4.3,0 7.99,-0.79 11.07,-2.37 3.07,-1.58 4.61,-5.01 4.61,-10.27 0,-1.49 -0.4,-3.25 -1.19,-5.27 -0.79,-2.02 -2.13,-3.8 -4.02,-5.33 -1.89,-1.54 -4.37,-2.31 -7.44,-2.31 -6.59,0 -12.47,1.05 -17.65,3.16 l -7.64,-11.59 c 3.42,-2.28 7.49,-3.91 12.18,-4.87 4.7,-0.96 9.46,-1.45 14.29,-1.45 4.57,0 9.16,0.95 13.77,2.83 4.61,1.89 8.45,4.85 11.53,8.89 3.07,4.04 4.61,9.13 4.61,15.28 0,4.39 -1.1,8.1 -3.29,11.13 -2.2,3.03 -4.83,5.25 -7.9,6.65 v 0.26 c 3.07,0.88 6.19,3.01 9.35,6.39 3.16,3.38 4.74,8.5 4.74,15.35 0,5.8 -1.34,11 -4.02,15.61 -2.68,4.61 -6.43,8.19 -11.26,10.74 -4.83,2.55 -10.36,3.82 -16.6,3.82 -12.03,0 -21.82,-2.24 -29.38,-6.72 l 7.51,-12.91 c 2.63,1.32 5.99,2.46 10.08,3.42 4.08,0.97 7.71,1.45 10.87,1.45 3.95,0 7.25,-1.34 9.88,-4.02 2.63,-2.68 3.95,-6.48 3.95,-11.39 0,-4.04 -1.03,-7.03 -3.1,-8.96 -2.06,-1.93 -4.74,-3.14 -8.04,-3.62 -3.29,-0.48 -7.62,-0.72 -12.98,-0.72 v -13.17 h 6.06 z"
             id="path6" />
          <path
             d="m 507.49,230.86 c 5.53,-8.04 14.1,-12.05 25.69,-12.05 11.59,0 20.16,4.02 25.69,12.05 5.53,8.04 8.3,20.31 8.3,36.82 0,16.51 -2.7,28.65 -8.1,36.42 -5.4,7.77 -14.03,11.66 -25.88,11.66 -11.85,0 -20.38,-3.89 -25.82,-11.66 -5.45,-7.77 -8.17,-19.91 -8.17,-36.42 0,-16.51 2.77,-28.78 8.3,-36.82 z m 14.42,62.31 c 2.5,5.23 6.26,7.84 11.26,7.84 5,0 8.76,-2.61 11.26,-7.84 2.5,-5.22 3.75,-13.72 3.75,-25.49 0,-11.77 -1.19,-20.72 -3.56,-26.08 -2.37,-5.36 -6.19,-8.04 -11.46,-8.04 -5.27,0 -9.09,2.68 -11.46,8.04 -2.37,5.36 -3.56,14.05 -3.56,26.08 0,12.03 1.25,20.27 3.75,25.49 z"
             id="path7" />
        </g>
      </g>
      <g
         id="MTEXT-2"
         data-name="MTEXT">
        <path
           d="M 360.46,424.64 V 379.83 H 274.55 L 267.99,345.01 355.04,222 h 45.38 l 1.14,126.44 h 23.4 l -1.14,31.4 h -23.4 v 44.81 h -39.96 z m 1.14,-76.21 v -83.06 l -57.08,83.06 z"
           id="path8" />
      </g>
    </g>
  </g>
</svg>
