<?xml version="1.0" encoding="UTF-8" standalone="no"?>
<svg
   viewBox="0 0 634.78265 634.78263"
   version="1.1"
   id="svg19"
   sodipodi:docname="SP-24_30x30.svg"
   width="634.78265"
   height="634.78265"
   inkscape:version="1.3.2 (091e20e, 2023-11-25, custom)"
   xmlns:inkscape="http://www.inkscape.org/namespaces/inkscape"
   xmlns:sodipodi="http://sodipodi.sourceforge.net/DTD/sodipodi-0.dtd"
   xmlns="http://www.w3.org/2000/svg"
   xmlns:svg="http://www.w3.org/2000/svg">
  <sodipodi:namedview
     id="namedview19"
     pagecolor="#ffffff"
     bordercolor="#000000"
     borderopacity="0.25"
     inkscape:showpageshadow="2"
     inkscape:pageopacity="0.0"
     inkscape:pagecheckerboard="0"
     inkscape:deskcolor="#d1d1d1"
     inkscape:zoom="0.74498301"
     inkscape:cx="316.78575"
     inkscape:cy="538.93846"
     inkscape:window-width="1920"
     inkscape:window-height="1009"
     inkscape:window-x="-8"
     inkscape:window-y="-8"
     inkscape:window-maximized="1"
     inkscape:current-layer="svg19" />
  <defs
     id="defs1">
    <style
       id="style1">
      .cls-1 {
        fill: #fff;
      }

      .cls-1, .cls-2 {
        stroke: #000;
        stroke-linecap: round;
        stroke-linejoin: round;
      }

      .cls-2 {
        fill: none;
      }

      .cls-3 {
        fill: #ffca06;
      }

      .cls-4 {
        fill-rule: evenodd;
      }
    </style>
  </defs>
  <g
     id="sp_Fondo_del_tablero"
     data-name="sp_Fondo del tablero"
     transform="translate(-100.64067,-6.539917)">
    <g
       id="HATCH">
      <rect
         class="cls-3"
         x="197.31"
         y="103.21"
         width="441.45999"
         height="441.45999"
         rx="18.65"
         ry="18.65"
         transform="rotate(-45,418.02898,323.93673)"
         id="rect3" />
    </g>
  </g>
  <g
     id="sp_Pictograma_y_filete"
     data-name="sp_Pictograma y filete"
     transform="translate(-100.64067,-6.539917)">
    <g
       id="HATCH-2"
       data-name="HATCH">
      <path
         class="cls-4"
         d="M 431.22,622.9 717,337.12 c 7.28,-7.28 7.28,-19.09 0,-26.38 L 431.22,24.97 c -7.28,-7.28 -19.09,-7.28 -26.38,0 L 119.07,310.75 c -7.28,7.28 -7.28,19.09 0,26.38 l 285.78,285.78 c 7.28,7.28 19.09,7.28 26.38,0 m 8.79,8.79 285.78,-285.78 c 12.14,-12.14 12.14,-31.82 0,-43.97 L 440.02,16.18 C 427.88,4.04 408.2,4.04 396.05,16.18 L 110.27,301.95 c -12.14,12.14 -12.14,31.82 0,43.97 L 396.05,631.7 c 12.14,12.14 31.82,12.14 43.97,0 z"
         id="path3" />
    </g>
    <g
       id="HATCH-3"
       data-name="HATCH">
      <path
         class="cls-4"
         d="m 245.7,323.94 -50.69,-40.55 v 81.1 l 50.69,-40.55 m 344.67,0 50.69,-40.55 v 81.1 z"
         id="path4" />
    </g>
    <g
       id="LWPOLYLINE">
      <rect
         class="cls-2"
         x="184.87"
         y="90.769997"
         width="466.32999"
         height="466.32999"
         rx="31.09"
         ry="31.09"
         transform="rotate(-45,418.02898,323.93673)"
         id="rect4" />
    </g>
    <g
       id="LWPOLYLINE-2"
       data-name="LWPOLYLINE">
      <polygon
         class="cls-2"
         points="195.01,364.49 245.7,323.94 195.01,283.39 "
         id="polygon4" />
    </g>
    <g
       id="LWPOLYLINE-3"
       data-name="LWPOLYLINE">
      <polygon
         class="cls-2"
         points="641.06,364.49 590.37,323.94 641.06,283.39 "
         id="polygon5" />
    </g>
    <g
       id="LWPOLYLINE-4"
       data-name="LWPOLYLINE">
      <rect
         class="cls-2"
         x="197.31"
         y="103.21"
         width="441.45999"
         height="441.45999"
         rx="18.65"
         ry="18.65"
         transform="rotate(-45,418.02898,323.93673)"
         id="rect5" />
    </g>
    <g
       id="g7">
      <g
         id="MTEXT">
        <g
           id="g6">
          <path
             d="m 439.45,296.4 c 3.42,3.08 9.13,4.61 17.12,4.61 4.3,0 7.71,-1.65 10.21,-4.94 2.5,-3.29 3.75,-7.49 3.75,-12.58 0,-4.39 -1.14,-7.97 -3.42,-10.74 -2.28,-2.77 -5.66,-4.15 -10.14,-4.15 -2.37,0 -4.66,0.2 -6.85,0.59 -2.2,0.39 -4.74,1.43 -7.64,3.09 l -12.25,-6.32 6.06,-44.66 h 49.14 v 15.54 h -34.51 l -4.08,20.55 c 1.76,-1.23 3.8,-2.13 6.12,-2.7 2.33,-0.57 5.38,-0.86 9.16,-0.86 4.48,0 8.8,0.92 12.98,2.77 4.17,1.84 7.62,4.9 10.34,9.16 2.72,4.26 4.08,9.73 4.08,16.4 0,5.09 -1.01,10.19 -3.03,15.28 -2.02,5.09 -5.55,9.42 -10.6,12.98 -5.05,3.56 -11.84,5.33 -20.35,5.33 -4.92,0 -9.55,-0.59 -13.9,-1.78 -4.35,-1.19 -7.84,-3.1 -10.47,-5.73 l 8.3,-11.86 z"
             id="path5" />
          <path
             d="m 508.14,230.86 c 5.31,-8.04 13.55,-12.05 24.7,-12.05 11.15,0 19.38,4.02 24.7,12.05 5.31,8.04 7.97,20.31 7.97,36.82 0,16.51 -2.59,28.65 -7.77,36.42 -5.18,7.77 -13.48,11.66 -24.9,11.66 -11.42,0 -19.61,-3.89 -24.83,-11.66 -5.23,-7.77 -7.84,-19.91 -7.84,-36.42 0,-16.51 2.66,-28.78 7.97,-36.82 z m 14.43,62.31 c 2.28,5.23 5.75,7.84 10.41,7.84 4.66,0 7.99,-2.61 10.27,-7.84 2.28,-5.22 3.42,-13.72 3.42,-25.49 0,-11.77 -1.08,-20.72 -3.23,-26.08 -2.15,-5.36 -5.64,-8.04 -10.47,-8.04 -4.83,0 -8.45,2.68 -10.6,8.04 -2.15,5.36 -3.23,14.05 -3.23,26.08 0,12.03 1.14,20.27 3.42,25.49 z"
             id="path6" />
        </g>
      </g>
      <g
         id="MTEXT-2"
         data-name="MTEXT">
        <path
           d="m 297.03,381.65 c 7.23,7.23 20.64,10.85 40.24,10.85 9.32,0 16.7,-3.57 22.12,-10.7 5.42,-7.13 8.13,-16.22 8.13,-27.26 0,-9.7 -2.43,-17.5 -7.28,-23.4 -4.85,-5.9 -12.32,-8.85 -22.4,-8.85 -5.33,0 -10.61,0.48 -15.84,1.43 -5.24,0.95 -11.47,3.62 -18.69,7.99 l -26.54,-13.7 12.56,-98.18 h 111.31 v 33.68 h -79.63 l -8.56,45.38 c 4.18,-2.85 8.75,-5 13.7,-6.42 4.95,-1.43 11.99,-2.14 21.12,-2.14 10.08,0 19.79,2 29.11,5.99 9.32,4 17.03,10.61 23.12,19.84 6.09,9.23 9.13,21.08 9.13,35.53 0,11.04 -2.19,22.08 -6.56,33.11 -4.38,11.04 -12.04,20.41 -22.98,28.11 -10.94,7.71 -25.64,11.56 -44.1,11.56 -27.21,0 -45.95,-5.61 -56.23,-16.84 l 18.27,-25.97 z"
           id="path7" />
      </g>
    </g>
  </g>
</svg>
