<?xml version="1.0" encoding="UTF-8" standalone="no"?>
<svg
   viewBox="0 0 634.78271 634.78269"
   version="1.1"
   id="svg99"
   sodipodi:docname="SP-27_30x30.svg"
   width="634.78271"
   height="634.78271"
   inkscape:version="1.5-dev (9bf5e73, 2025-04-11, custom)"
   xmlns:inkscape="http://www.inkscape.org/namespaces/inkscape"
   xmlns:sodipodi="http://sodipodi.sourceforge.net/DTD/sodipodi-0.dtd"
   xmlns="http://www.w3.org/2000/svg"
   xmlns:svg="http://www.w3.org/2000/svg">
  <sodipodi:namedview
     id="namedview99"
     pagecolor="#ffffff"
     bordercolor="#000000"
     borderopacity="0.25"
     inkscape:showpageshadow="2"
     inkscape:pageopacity="0.0"
     inkscape:pagecheckerboard="0"
     inkscape:deskcolor="#d1d1d1"
     showgrid="false"
     inkscape:zoom="0.72665625"
     inkscape:cx="317.20638"
     inkscape:cy="538.76919"
     inkscape:window-width="1920"
     inkscape:window-height="1032"
     inkscape:window-maximized="1"
     inkscape:current-layer="svg99" />
  <defs
     id="defs1">
    <style
       id="style1">
      .cls-1 {
        stroke-width: .37px;
      }

      .cls-1, .cls-2, .cls-3 {
        stroke: #000;
        stroke-linecap: round;
        stroke-linejoin: round;
      }

      .cls-1, .cls-3 {
        fill: none;
      }

      .cls-4, .cls-2 {
        fill: #fff;
      }

      .cls-5 {
        fill: #ffca06;
      }

      .cls-6 {
        fill-rule: evenodd;
      }
    </style>
  </defs>
  <g
     id="sp_Fondo_del_tablero"
     data-name="sp_Fondo del tablero"
     transform="translate(-100.64066,-6.5399077)">
    <g
       id="HATCH">
      <rect
         class="cls-5"
         x="197.31"
         y="103.21"
         width="441.45999"
         height="441.45999"
         rx="18.65"
         ry="18.65"
         transform="rotate(-45,418.02898,323.93673)"
         id="rect3" />
    </g>
  </g>
  <g
     id="sp_Pictograma_blanco"
     data-name="sp_Pictograma blanco"
     transform="translate(-100.64066,-6.5399077)">
    <g
       id="HATCH-2"
       data-name="HATCH">
      <rect
         class="cls-4"
         x="347.07001"
         y="141.46001"
         width="141.92999"
         height="172.34"
         id="rect4" />
    </g>
  </g>
  <g
     id="sp_Pictograma_y_filete"
     data-name="sp_Pictograma y filete"
     transform="translate(-100.64066,-6.5399077)">
    <g
       id="HATCH-3"
       data-name="HATCH">
      <path
         class="cls-6"
         d="M 431.22,622.9 717,337.12 c 7.28,-7.28 7.28,-19.09 0,-26.38 L 431.22,24.97 c -7.28,-7.28 -19.09,-7.28 -26.38,0 L 119.07,310.75 c -7.28,7.28 -7.28,19.09 0,26.38 l 285.78,285.78 c 7.28,7.28 19.09,7.28 26.38,0 m 8.79,8.79 285.78,-285.78 c 12.14,-12.14 12.14,-31.82 0,-43.97 L 440.02,16.18 C 427.88,4.04 408.2,4.04 396.05,16.18 L 110.27,301.95 c -12.14,12.14 -12.14,31.82 0,43.97 L 396.05,631.7 c 12.14,12.14 31.82,12.14 43.97,0 z"
         id="path4" />
    </g>
    <g
       id="HATCH-4"
       data-name="HATCH">
      <path
         class="cls-6"
         d="m 483.93,227.63 c 0,-2.8 -2.27,-5.07 -5.07,-5.07 -2.8,0 -5.07,2.27 -5.07,5.07 0,2.8 2.27,5.07 5.07,5.07 2.8,0 5.07,-2.27 5.07,-5.07 m 0,-45.62 c 0,-2.8 -2.27,-5.07 -5.07,-5.07 -2.8,0 -5.07,2.27 -5.07,5.07 0,2.8 2.27,5.07 5.07,5.07 2.8,0 5.07,-2.27 5.07,-5.07 m 0,-15.21 c 0,-2.8 -2.27,-5.07 -5.07,-5.07 -2.8,0 -5.07,2.27 -5.07,5.07 0,2.8 2.27,5.07 5.07,5.07 2.8,0 5.07,-2.27 5.07,-5.07 m 0,76.04 c 0,-2.8 -2.27,-5.07 -5.07,-5.07 -2.8,0 -5.07,2.27 -5.07,5.07 0,2.8 2.27,5.07 5.07,5.07 2.8,0 5.07,-2.27 5.07,-5.07 m 0,-30.42 c 0,-2.8 -2.27,-5.07 -5.07,-5.07 -2.8,0 -5.07,2.27 -5.07,5.07 0,2.8 2.27,5.07 5.07,5.07 2.8,0 5.07,-2.27 5.07,-5.07 m 0,45.62 c 0,-2.8 -2.27,-5.07 -5.07,-5.07 -2.8,0 -5.07,2.27 -5.07,5.07 0,2.8 2.27,5.07 5.07,5.07 2.8,0 5.07,-2.27 5.07,-5.07 m -20.28,-60.82 c 0,-2.8 -2.27,-5.07 -5.07,-5.07 -2.8,0 -5.07,2.27 -5.07,5.07 0,2.8 2.27,5.07 5.07,5.07 2.8,0 5.07,-2.27 5.07,-5.07 m 0,-45.62 c 0,-2.8 -2.27,-5.07 -5.07,-5.07 -2.8,0 -5.07,2.27 -5.07,5.07 0,2.8 2.27,5.07 5.07,5.07 2.8,0 5.07,-2.27 5.07,-5.07 m 20.28,152.06 c 0,-2.8 -2.27,-5.07 -5.07,-5.07 -2.8,0 -5.07,2.27 -5.07,5.07 0,2.8 2.27,5.07 5.07,5.07 2.8,0 5.07,-2.27 5.07,-5.07 m 0,-106.44 c 0,-2.8 -2.27,-5.07 -5.07,-5.07 -2.8,0 -5.07,2.27 -5.07,5.07 0,2.8 2.27,5.07 5.07,5.07 2.8,0 5.07,-2.27 5.07,-5.07 m 0,76.03 c 0,-2.8 -2.27,-5.07 -5.07,-5.07 -2.8,0 -5.07,2.27 -5.07,5.07 0,2.8 2.27,5.07 5.07,5.07 2.8,0 5.07,-2.27 5.07,-5.07 M 463.65,166.8 c 0,-2.8 -2.27,-5.07 -5.07,-5.07 -2.8,0 -5.07,2.27 -5.07,5.07 0,2.8 2.27,5.07 5.07,5.07 2.8,0 5.07,-2.27 5.07,-5.07 m 20.28,121.66 c 0,-2.8 -2.27,-5.07 -5.07,-5.07 -2.8,0 -5.07,2.27 -5.07,5.07 0,2.8 2.27,5.07 5.07,5.07 2.8,0 5.07,-2.27 5.07,-5.07 m -20.28,-30.42 c 0,-2.8 -2.27,-5.07 -5.07,-5.07 -2.8,0 -5.07,2.27 -5.07,5.07 0,2.8 2.27,5.07 5.07,5.07 2.8,0 5.07,-2.27 5.07,-5.07 m 0,-45.62 c 0,-2.8 -2.27,-5.07 -5.07,-5.07 -2.8,0 -5.07,2.27 -5.07,5.07 0,2.8 2.27,5.07 5.07,5.07 2.8,0 5.07,-2.27 5.07,-5.07 m 0,76.04 c 0,-2.8 -2.27,-5.07 -5.07,-5.07 -2.8,0 -5.07,2.27 -5.07,5.07 0,2.8 2.27,5.07 5.07,5.07 2.8,0 5.07,-2.27 5.07,-5.07 m 0,-60.83 c 0,-2.8 -2.27,-5.07 -5.07,-5.07 -2.8,0 -5.07,2.27 -5.07,5.07 0,2.8 2.27,5.07 5.07,5.07 2.8,0 5.07,-2.27 5.07,-5.07 m 0,-45.62 c 0,-2.8 -2.27,-5.07 -5.07,-5.07 -2.8,0 -5.07,2.27 -5.07,5.07 0,2.8 2.27,5.07 5.07,5.07 2.8,0 5.07,-2.27 5.07,-5.07 m 0,60.83 c 0,-2.8 -2.27,-5.07 -5.07,-5.07 -2.8,0 -5.07,2.27 -5.07,5.07 0,2.8 2.27,5.07 5.07,5.07 2.8,0 5.07,-2.27 5.07,-5.07 m 0,30.41 c 0,-2.8 -2.27,-5.07 -5.07,-5.07 -2.8,0 -5.07,2.27 -5.07,5.07 0,2.8 2.27,5.07 5.07,5.07 2.8,0 5.07,-2.27 5.07,-5.07 m 0,30.41 c 0,-2.8 -2.27,-5.07 -5.07,-5.07 -2.8,0 -5.07,2.27 -5.07,5.07 0,2.8 2.27,5.07 5.07,5.07 2.8,0 5.07,-2.27 5.07,-5.07 M 443.38,151.6 c 0,-2.8 -2.27,-5.07 -5.07,-5.07 -2.8,0 -5.07,2.27 -5.07,5.07 0,2.8 2.27,5.07 5.07,5.07 2.8,0 5.07,-2.27 5.07,-5.07 m 0,15.2 c 0,-2.8 -2.27,-5.07 -5.07,-5.07 -2.8,0 -5.07,2.27 -5.07,5.07 0,2.8 2.27,5.07 5.07,5.07 2.8,0 5.07,-2.27 5.07,-5.07 m 0,15.21 c 0,-2.8 -2.27,-5.07 -5.07,-5.07 -2.8,0 -5.07,2.27 -5.07,5.07 0,2.8 2.27,5.07 5.07,5.07 2.8,0 5.07,-2.27 5.07,-5.07 m 0,15.21 c 0,-2.8 -2.27,-5.07 -5.07,-5.07 -2.8,0 -5.07,2.27 -5.07,5.07 0,2.8 2.27,5.07 5.07,5.07 2.8,0 5.07,-2.27 5.07,-5.07 m 0,15.2 c 0,-2.8 -2.27,-5.07 -5.07,-5.07 -2.8,0 -5.07,2.27 -5.07,5.07 0,2.8 2.27,5.07 5.07,5.07 2.8,0 5.07,-2.27 5.07,-5.07 m 0,15.21 c 0,-2.8 -2.27,-5.07 -5.07,-5.07 -2.8,0 -5.07,2.27 -5.07,5.07 0,2.8 2.27,5.07 5.07,5.07 2.8,0 5.07,-2.27 5.07,-5.07 m 0,15.21 c 0,-2.8 -2.27,-5.07 -5.07,-5.07 -2.8,0 -5.07,2.27 -5.07,5.07 0,2.8 2.27,5.07 5.07,5.07 2.8,0 5.07,-2.27 5.07,-5.07 m 0,15.2 c 0,-2.8 -2.27,-5.07 -5.07,-5.07 -2.8,0 -5.07,2.27 -5.07,5.07 0,2.8 2.27,5.07 5.07,5.07 2.8,0 5.07,-2.27 5.07,-5.07 m 0,15.21 c 0,-2.8 -2.27,-5.07 -5.07,-5.07 -2.8,0 -5.07,2.27 -5.07,5.07 0,2.8 2.27,5.07 5.07,5.07 2.8,0 5.07,-2.27 5.07,-5.07 m 0,15.21 c 0,-2.8 -2.27,-5.07 -5.07,-5.07 -2.8,0 -5.07,2.27 -5.07,5.07 0,2.8 2.27,5.07 5.07,5.07 2.8,0 5.07,-2.27 5.07,-5.07 m 0,15.2 c 0,-2.8 -2.27,-5.07 -5.07,-5.07 -2.8,0 -5.07,2.27 -5.07,5.07 0,2.8 2.27,5.07 5.07,5.07 2.8,0 5.07,-2.27 5.07,-5.07 M 423.1,151.6 c 0,-2.8 -2.27,-5.07 -5.07,-5.07 -2.8,0 -5.07,2.27 -5.07,5.07 0,2.8 2.27,5.07 5.07,5.07 2.8,0 5.07,-2.27 5.07,-5.07 m 0,15.2 c 0,-2.8 -2.27,-5.07 -5.07,-5.07 -2.8,0 -5.07,2.27 -5.07,5.07 0,2.8 2.27,5.07 5.07,5.07 2.8,0 5.07,-2.27 5.07,-5.07 m 0,15.21 c 0,-2.8 -2.27,-5.07 -5.07,-5.07 -2.8,0 -5.07,2.27 -5.07,5.07 0,2.8 2.27,5.07 5.07,5.07 2.8,0 5.07,-2.27 5.07,-5.07 m 0,15.21 c 0,-2.8 -2.27,-5.07 -5.07,-5.07 -2.8,0 -5.07,2.27 -5.07,5.07 0,2.8 2.27,5.07 5.07,5.07 2.8,0 5.07,-2.27 5.07,-5.07 m 0,15.2 c 0,-2.8 -2.27,-5.07 -5.07,-5.07 -2.8,0 -5.07,2.27 -5.07,5.07 0,2.8 2.27,5.07 5.07,5.07 2.8,0 5.07,-2.27 5.07,-5.07 m 0,15.21 c 0,-2.8 -2.27,-5.07 -5.07,-5.07 -2.8,0 -5.07,2.27 -5.07,5.07 0,2.8 2.27,5.07 5.07,5.07 2.8,0 5.07,-2.27 5.07,-5.07 m 0,15.21 c 0,-2.8 -2.27,-5.07 -5.07,-5.07 -2.8,0 -5.07,2.27 -5.07,5.07 0,2.8 2.27,5.07 5.07,5.07 2.8,0 5.07,-2.27 5.07,-5.07 m 0,15.2 c 0,-2.8 -2.27,-5.07 -5.07,-5.07 -2.8,0 -5.07,2.27 -5.07,5.07 0,2.8 2.27,5.07 5.07,5.07 2.8,0 5.07,-2.27 5.07,-5.07 m 0,15.21 c 0,-2.8 -2.27,-5.07 -5.07,-5.07 -2.8,0 -5.07,2.27 -5.07,5.07 0,2.8 2.27,5.07 5.07,5.07 2.8,0 5.07,-2.27 5.07,-5.07 m 0,15.21 c 0,-2.8 -2.27,-5.07 -5.07,-5.07 -2.8,0 -5.07,2.27 -5.07,5.07 0,2.8 2.27,5.07 5.07,5.07 2.8,0 5.07,-2.27 5.07,-5.07 m 0,15.2 c 0,-2.8 -2.27,-5.07 -5.07,-5.07 -2.8,0 -5.07,2.27 -5.07,5.07 0,2.8 2.27,5.07 5.07,5.07 2.8,0 5.07,-2.27 5.07,-5.07 M 402.83,151.6 c 0,-2.8 -2.27,-5.07 -5.07,-5.07 -2.8,0 -5.07,2.27 -5.07,5.07 0,2.8 2.27,5.07 5.07,5.07 2.8,0 5.07,-2.27 5.07,-5.07 m 0,15.2 c 0,-2.8 -2.27,-5.07 -5.07,-5.07 -2.8,0 -5.07,2.27 -5.07,5.07 0,2.8 2.27,5.07 5.07,5.07 2.8,0 5.07,-2.27 5.07,-5.07 m 0,15.21 c 0,-2.8 -2.27,-5.07 -5.07,-5.07 -2.8,0 -5.07,2.27 -5.07,5.07 0,2.8 2.27,5.07 5.07,5.07 2.8,0 5.07,-2.27 5.07,-5.07 m 0,15.21 c 0,-2.8 -2.27,-5.07 -5.07,-5.07 -2.8,0 -5.07,2.27 -5.07,5.07 0,2.8 2.27,5.07 5.07,5.07 2.8,0 5.07,-2.27 5.07,-5.07 m 0,15.2 c 0,-2.8 -2.27,-5.07 -5.07,-5.07 -2.8,0 -5.07,2.27 -5.07,5.07 0,2.8 2.27,5.07 5.07,5.07 2.8,0 5.07,-2.27 5.07,-5.07 m 0,15.21 c 0,-2.8 -2.27,-5.07 -5.07,-5.07 -2.8,0 -5.07,2.27 -5.07,5.07 0,2.8 2.27,5.07 5.07,5.07 2.8,0 5.07,-2.27 5.07,-5.07 m 0,15.21 c 0,-2.8 -2.27,-5.07 -5.07,-5.07 -2.8,0 -5.07,2.27 -5.07,5.07 0,2.8 2.27,5.07 5.07,5.07 2.8,0 5.07,-2.27 5.07,-5.07 m 0,15.2 c 0,-2.8 -2.27,-5.07 -5.07,-5.07 -2.8,0 -5.07,2.27 -5.07,5.07 0,2.8 2.27,5.07 5.07,5.07 2.8,0 5.07,-2.27 5.07,-5.07 m 0,15.21 c 0,-2.8 -2.27,-5.07 -5.07,-5.07 -2.8,0 -5.07,2.27 -5.07,5.07 0,2.8 2.27,5.07 5.07,5.07 2.8,0 5.07,-2.27 5.07,-5.07 m 0,15.21 c 0,-2.8 -2.27,-5.07 -5.07,-5.07 -2.8,0 -5.07,2.27 -5.07,5.07 0,2.8 2.27,5.07 5.07,5.07 2.8,0 5.07,-2.27 5.07,-5.07 m 0,15.2 c 0,-2.8 -2.27,-5.07 -5.07,-5.07 -2.8,0 -5.07,2.27 -5.07,5.07 0,2.8 2.27,5.07 5.07,5.07 2.8,0 5.07,-2.27 5.07,-5.07 M 382.55,151.6 c 0,-2.8 -2.27,-5.07 -5.07,-5.07 -2.8,0 -5.07,2.27 -5.07,5.07 0,2.8 2.27,5.07 5.07,5.07 2.8,0 5.07,-2.27 5.07,-5.07 m 0,15.2 c 0,-2.8 -2.27,-5.07 -5.07,-5.07 -2.8,0 -5.07,2.27 -5.07,5.07 0,2.8 2.27,5.07 5.07,5.07 2.8,0 5.07,-2.27 5.07,-5.07 m 0,15.21 c 0,-2.8 -2.27,-5.07 -5.07,-5.07 -2.8,0 -5.07,2.27 -5.07,5.07 0,2.8 2.27,5.07 5.07,5.07 2.8,0 5.07,-2.27 5.07,-5.07 m 0,15.21 c 0,-2.8 -2.27,-5.07 -5.07,-5.07 -2.8,0 -5.07,2.27 -5.07,5.07 0,2.8 2.27,5.07 5.07,5.07 2.8,0 5.07,-2.27 5.07,-5.07 m 0,15.2 c 0,-2.8 -2.27,-5.07 -5.07,-5.07 -2.8,0 -5.07,2.27 -5.07,5.07 0,2.8 2.27,5.07 5.07,5.07 2.8,0 5.07,-2.27 5.07,-5.07 m 0,15.21 c 0,-2.8 -2.27,-5.07 -5.07,-5.07 -2.8,0 -5.07,2.27 -5.07,5.07 0,2.8 2.27,5.07 5.07,5.07 2.8,0 5.07,-2.27 5.07,-5.07 m 0,15.21 c 0,-2.8 -2.27,-5.07 -5.07,-5.07 -2.8,0 -5.07,2.27 -5.07,5.07 0,2.8 2.27,5.07 5.07,5.07 2.8,0 5.07,-2.27 5.07,-5.07 m 0,15.2 c 0,-2.8 -2.27,-5.07 -5.07,-5.07 -2.8,0 -5.07,2.27 -5.07,5.07 0,2.8 2.27,5.07 5.07,5.07 2.8,0 5.07,-2.27 5.07,-5.07 m 0,15.21 c 0,-2.8 -2.27,-5.07 -5.07,-5.07 -2.8,0 -5.07,2.27 -5.07,5.07 0,2.8 2.27,5.07 5.07,5.07 2.8,0 5.07,-2.27 5.07,-5.07 m 0,15.21 c 0,-2.8 -2.27,-5.07 -5.07,-5.07 -2.8,0 -5.07,2.27 -5.07,5.07 0,2.8 2.27,5.07 5.07,5.07 2.8,0 5.07,-2.27 5.07,-5.07 m 0,15.2 c 0,-2.8 -2.27,-5.07 -5.07,-5.07 -2.8,0 -5.07,2.27 -5.07,5.07 0,2.8 2.27,5.07 5.07,5.07 2.8,0 5.07,-2.27 5.07,-5.07 M 362.28,151.6 c 0,-2.8 -2.27,-5.07 -5.07,-5.07 -2.8,0 -5.07,2.27 -5.07,5.07 0,2.8 2.27,5.07 5.07,5.07 2.8,0 5.07,-2.27 5.07,-5.07 m 0,15.2 c 0,-2.8 -2.27,-5.07 -5.07,-5.07 -2.8,0 -5.07,2.27 -5.07,5.07 0,2.8 2.27,5.07 5.07,5.07 2.8,0 5.07,-2.27 5.07,-5.07 m 0,15.21 c 0,-2.8 -2.27,-5.07 -5.07,-5.07 -2.8,0 -5.07,2.27 -5.07,5.07 0,2.8 2.27,5.07 5.07,5.07 2.8,0 5.07,-2.27 5.07,-5.07 m 0,15.21 c 0,-2.8 -2.27,-5.07 -5.07,-5.07 -2.8,0 -5.07,2.27 -5.07,5.07 0,2.8 2.27,5.07 5.07,5.07 2.8,0 5.07,-2.27 5.07,-5.07 m 0,15.2 c 0,-2.8 -2.27,-5.07 -5.07,-5.07 -2.8,0 -5.07,2.27 -5.07,5.07 0,2.8 2.27,5.07 5.07,5.07 2.8,0 5.07,-2.27 5.07,-5.07 m 0,15.21 c 0,-2.8 -2.27,-5.07 -5.07,-5.07 -2.8,0 -5.07,2.27 -5.07,5.07 0,2.8 2.27,5.07 5.07,5.07 2.8,0 5.07,-2.27 5.07,-5.07 m 0,15.21 c 0,-2.8 -2.27,-5.07 -5.07,-5.07 -2.8,0 -5.07,2.27 -5.07,5.07 0,2.8 2.27,5.07 5.07,5.07 2.8,0 5.07,-2.27 5.07,-5.07 m 0,15.2 c 0,-2.8 -2.27,-5.07 -5.07,-5.07 -2.8,0 -5.07,2.27 -5.07,5.07 0,2.8 2.27,5.07 5.07,5.07 2.8,0 5.07,-2.27 5.07,-5.07 m 0,15.21 c 0,-2.8 -2.27,-5.07 -5.07,-5.07 -2.8,0 -5.07,2.27 -5.07,5.07 0,2.8 2.27,5.07 5.07,5.07 2.8,0 5.07,-2.27 5.07,-5.07 m 0,15.21 c 0,-2.8 -2.27,-5.07 -5.07,-5.07 -2.8,0 -5.07,2.27 -5.07,5.07 0,2.8 2.27,5.07 5.07,5.07 2.8,0 5.07,-2.27 5.07,-5.07 m 0,15.2 c 0,-2.8 -2.27,-5.07 -5.07,-5.07 -2.8,0 -5.07,2.27 -5.07,5.07 0,2.8 2.27,5.07 5.07,5.07 2.8,0 5.07,-2.27 5.07,-5.07 M 483.93,151.6 c 0,-2.8 -2.27,-5.07 -5.07,-5.07 -2.8,0 -5.07,2.27 -5.07,5.07 0,2.8 2.27,5.07 5.07,5.07 2.8,0 5.07,-2.27 5.07,-5.07 z"
         id="path5" />
    </g>
    <g
       id="HATCH-5"
       data-name="HATCH">
      <path
         class="cls-6"
         d="M 347.07,141.46 H 489 V 313.8 H 347.07 V 141.46 M 342,318.87 H 494.06 V 511.48 H 342 V 318.87 m 0,0 H 494.06 V 136.39 H 342 v 182.48 m 70.97,177.4 h 10.14 c 0,0 0,15.21 0,15.21 H 412.97 V 496.27 M 423.1,476 H 412.96 V 339.14 h 10.14 z"
         id="path6" />
    </g>
    <g
       id="LWPOLYLINE">
      <rect
         class="cls-3"
         x="184.87"
         y="90.769997"
         width="466.32999"
         height="466.32999"
         rx="31.09"
         ry="31.09"
         transform="rotate(-45,418.02898,323.93673)"
         id="rect6" />
    </g>
    <g
       id="LWPOLYLINE-2"
       data-name="LWPOLYLINE">
      <rect
         class="cls-3"
         x="197.31"
         y="103.21"
         width="441.45999"
         height="441.45999"
         rx="18.65"
         ry="18.65"
         transform="rotate(-45,418.02898,323.93673)"
         id="rect7" />
    </g>
    <g
       id="LWPOLYLINE-3"
       data-name="LWPOLYLINE">
      <rect
         class="cls-3"
         x="347.07001"
         y="141.46001"
         width="141.92999"
         height="172.34"
         id="rect8" />
    </g>
    <g
       id="LWPOLYLINE-4"
       data-name="LWPOLYLINE">
      <rect
         class="cls-1"
         x="342"
         y="136.39"
         width="152.06"
         height="182.48"
         id="rect9" />
    </g>
    <g
       id="LWPOLYLINE-5"
       data-name="LWPOLYLINE">
      <rect
         class="cls-1"
         x="342"
         y="318.87"
         width="152.06"
         height="192.61"
         id="rect10" />
    </g>
    <g
       id="LWPOLYLINE-6"
       data-name="LWPOLYLINE">
      <rect
         class="cls-3"
         x="412.97"
         y="496.26999"
         width="10.14"
         height="15.21"
         id="rect11" />
    </g>
    <g
       id="LWPOLYLINE-7"
       data-name="LWPOLYLINE">
      <rect
         class="cls-3"
         x="412.97"
         y="339.14001"
         width="10.14"
         height="136.86"
         id="rect12" />
    </g>
    <g
       id="CIRCLE">
      <circle
         class="cls-3"
         cx="478.85999"
         cy="151.60001"
         r="5.0700002"
         id="circle12" />
    </g>
    <g
       id="CIRCLE-2"
       data-name="CIRCLE">
      <circle
         class="cls-3"
         cx="357.20999"
         cy="303.66"
         r="5.0700002"
         id="circle13" />
    </g>
    <g
       id="CIRCLE-3"
       data-name="CIRCLE">
      <circle
         class="cls-3"
         cx="357.20999"
         cy="288.45999"
         r="5.0700002"
         id="circle14" />
    </g>
    <g
       id="CIRCLE-4"
       data-name="CIRCLE">
      <circle
         class="cls-3"
         cx="357.20999"
         cy="273.25"
         r="5.0700002"
         id="circle15" />
    </g>
    <g
       id="CIRCLE-5"
       data-name="CIRCLE">
      <circle
         class="cls-3"
         cx="357.20999"
         cy="258.04001"
         r="5.0700002"
         id="circle16" />
    </g>
    <g
       id="CIRCLE-6"
       data-name="CIRCLE">
      <circle
         class="cls-3"
         cx="357.20999"
         cy="242.84"
         r="5.0700002"
         id="circle17" />
    </g>
    <g
       id="CIRCLE-7"
       data-name="CIRCLE">
      <circle
         class="cls-3"
         cx="357.20999"
         cy="227.63"
         r="5.0700002"
         id="circle18" />
    </g>
    <g
       id="CIRCLE-8"
       data-name="CIRCLE">
      <circle
         class="cls-3"
         cx="357.20999"
         cy="212.42"
         r="5.0700002"
         id="circle19" />
    </g>
    <g
       id="CIRCLE-9"
       data-name="CIRCLE">
      <circle
         class="cls-3"
         cx="357.20999"
         cy="197.22"
         r="5.0700002"
         id="circle20" />
    </g>
    <g
       id="CIRCLE-10"
       data-name="CIRCLE">
      <circle
         class="cls-3"
         cx="357.20999"
         cy="182.00999"
         r="5.0700002"
         id="circle21" />
    </g>
    <g
       id="CIRCLE-11"
       data-name="CIRCLE">
      <circle
         class="cls-3"
         cx="357.20999"
         cy="166.8"
         r="5.0700002"
         id="circle22" />
    </g>
    <g
       id="CIRCLE-12"
       data-name="CIRCLE">
      <circle
         class="cls-3"
         cx="357.20999"
         cy="151.60001"
         r="5.0700002"
         id="circle23" />
    </g>
    <g
       id="CIRCLE-13"
       data-name="CIRCLE">
      <circle
         class="cls-3"
         cx="377.48001"
         cy="303.66"
         r="5.0700002"
         id="circle24" />
    </g>
    <g
       id="CIRCLE-14"
       data-name="CIRCLE">
      <circle
         class="cls-3"
         cx="377.48001"
         cy="288.45999"
         r="5.0700002"
         id="circle25" />
    </g>
    <g
       id="CIRCLE-15"
       data-name="CIRCLE">
      <circle
         class="cls-3"
         cx="377.48001"
         cy="273.25"
         r="5.0700002"
         id="circle26" />
    </g>
    <g
       id="CIRCLE-16"
       data-name="CIRCLE">
      <circle
         class="cls-3"
         cx="377.48001"
         cy="258.04001"
         r="5.0700002"
         id="circle27" />
    </g>
    <g
       id="CIRCLE-17"
       data-name="CIRCLE">
      <circle
         class="cls-3"
         cx="377.48001"
         cy="242.84"
         r="5.0700002"
         id="circle28" />
    </g>
    <g
       id="CIRCLE-18"
       data-name="CIRCLE">
      <circle
         class="cls-3"
         cx="377.48001"
         cy="227.63"
         r="5.0700002"
         id="circle29" />
    </g>
    <g
       id="CIRCLE-19"
       data-name="CIRCLE">
      <circle
         class="cls-3"
         cx="377.48001"
         cy="212.42"
         r="5.0700002"
         id="circle30" />
    </g>
    <g
       id="CIRCLE-20"
       data-name="CIRCLE">
      <circle
         class="cls-3"
         cx="377.48001"
         cy="197.22"
         r="5.0700002"
         id="circle31" />
    </g>
    <g
       id="CIRCLE-21"
       data-name="CIRCLE">
      <circle
         class="cls-3"
         cx="377.48001"
         cy="182.00999"
         r="5.0700002"
         id="circle32" />
    </g>
    <g
       id="CIRCLE-22"
       data-name="CIRCLE">
      <circle
         class="cls-3"
         cx="377.48001"
         cy="166.8"
         r="5.0700002"
         id="circle33" />
    </g>
    <g
       id="CIRCLE-23"
       data-name="CIRCLE">
      <circle
         class="cls-3"
         cx="377.48001"
         cy="151.60001"
         r="5.0700002"
         id="circle34" />
    </g>
    <g
       id="CIRCLE-24"
       data-name="CIRCLE">
      <circle
         class="cls-3"
         cx="397.76001"
         cy="303.66"
         r="5.0700002"
         id="circle35" />
    </g>
    <g
       id="CIRCLE-25"
       data-name="CIRCLE">
      <circle
         class="cls-3"
         cx="397.76001"
         cy="288.45999"
         r="5.0700002"
         id="circle36" />
    </g>
    <g
       id="CIRCLE-26"
       data-name="CIRCLE">
      <circle
         class="cls-3"
         cx="397.76001"
         cy="273.25"
         r="5.0700002"
         id="circle37" />
    </g>
    <g
       id="CIRCLE-27"
       data-name="CIRCLE">
      <circle
         class="cls-3"
         cx="397.76001"
         cy="258.04001"
         r="5.0700002"
         id="circle38" />
    </g>
    <g
       id="CIRCLE-28"
       data-name="CIRCLE">
      <circle
         class="cls-3"
         cx="397.76001"
         cy="242.84"
         r="5.0700002"
         id="circle39" />
    </g>
    <g
       id="CIRCLE-29"
       data-name="CIRCLE">
      <circle
         class="cls-3"
         cx="397.76001"
         cy="227.63"
         r="5.0700002"
         id="circle40" />
    </g>
    <g
       id="CIRCLE-30"
       data-name="CIRCLE">
      <circle
         class="cls-3"
         cx="397.76001"
         cy="212.42"
         r="5.0700002"
         id="circle41" />
    </g>
    <g
       id="CIRCLE-31"
       data-name="CIRCLE">
      <circle
         class="cls-3"
         cx="397.76001"
         cy="197.22"
         r="5.0700002"
         id="circle42" />
    </g>
    <g
       id="CIRCLE-32"
       data-name="CIRCLE">
      <circle
         class="cls-3"
         cx="397.76001"
         cy="182.00999"
         r="5.0700002"
         id="circle43" />
    </g>
    <g
       id="CIRCLE-33"
       data-name="CIRCLE">
      <circle
         class="cls-3"
         cx="397.76001"
         cy="166.8"
         r="5.0700002"
         id="circle44" />
    </g>
    <g
       id="CIRCLE-34"
       data-name="CIRCLE">
      <circle
         class="cls-3"
         cx="397.76001"
         cy="151.60001"
         r="5.0700002"
         id="circle45" />
    </g>
    <g
       id="CIRCLE-35"
       data-name="CIRCLE">
      <circle
         class="cls-3"
         cx="418.04001"
         cy="303.66"
         r="5.0700002"
         id="circle46" />
    </g>
    <g
       id="CIRCLE-36"
       data-name="CIRCLE">
      <circle
         class="cls-3"
         cx="418.04001"
         cy="288.45999"
         r="5.0700002"
         id="circle47" />
    </g>
    <g
       id="CIRCLE-37"
       data-name="CIRCLE">
      <circle
         class="cls-3"
         cx="418.04001"
         cy="273.25"
         r="5.0700002"
         id="circle48" />
    </g>
    <g
       id="CIRCLE-38"
       data-name="CIRCLE">
      <circle
         class="cls-3"
         cx="418.04001"
         cy="258.04001"
         r="5.0700002"
         id="circle49" />
    </g>
    <g
       id="CIRCLE-39"
       data-name="CIRCLE">
      <circle
         class="cls-3"
         cx="418.04001"
         cy="242.84"
         r="5.0700002"
         id="circle50" />
    </g>
    <g
       id="CIRCLE-40"
       data-name="CIRCLE">
      <circle
         class="cls-3"
         cx="418.04001"
         cy="227.63"
         r="5.0700002"
         id="circle51" />
    </g>
    <g
       id="CIRCLE-41"
       data-name="CIRCLE">
      <circle
         class="cls-3"
         cx="418.04001"
         cy="212.42"
         r="5.0700002"
         id="circle52" />
    </g>
    <g
       id="CIRCLE-42"
       data-name="CIRCLE">
      <circle
         class="cls-3"
         cx="418.04001"
         cy="197.22"
         r="5.0700002"
         id="circle53" />
    </g>
    <g
       id="CIRCLE-43"
       data-name="CIRCLE">
      <circle
         class="cls-3"
         cx="418.04001"
         cy="182.00999"
         r="5.0700002"
         id="circle54" />
    </g>
    <g
       id="CIRCLE-44"
       data-name="CIRCLE">
      <circle
         class="cls-3"
         cx="418.04001"
         cy="166.8"
         r="5.0700002"
         id="circle55" />
    </g>
    <g
       id="CIRCLE-45"
       data-name="CIRCLE">
      <circle
         class="cls-3"
         cx="418.04001"
         cy="151.60001"
         r="5.0700002"
         id="circle56" />
    </g>
    <g
       id="CIRCLE-46"
       data-name="CIRCLE">
      <circle
         class="cls-3"
         cx="438.31"
         cy="303.66"
         r="5.0700002"
         id="circle57" />
    </g>
    <g
       id="CIRCLE-47"
       data-name="CIRCLE">
      <circle
         class="cls-3"
         cx="438.31"
         cy="288.45999"
         r="5.0700002"
         id="circle58" />
    </g>
    <g
       id="CIRCLE-48"
       data-name="CIRCLE">
      <circle
         class="cls-3"
         cx="438.31"
         cy="273.25"
         r="5.0700002"
         id="circle59" />
    </g>
    <g
       id="CIRCLE-49"
       data-name="CIRCLE">
      <circle
         class="cls-3"
         cx="438.31"
         cy="258.04001"
         r="5.0700002"
         id="circle60" />
    </g>
    <g
       id="CIRCLE-50"
       data-name="CIRCLE">
      <circle
         class="cls-3"
         cx="438.31"
         cy="242.84"
         r="5.0700002"
         id="circle61" />
    </g>
    <g
       id="CIRCLE-51"
       data-name="CIRCLE">
      <circle
         class="cls-3"
         cx="438.31"
         cy="227.63"
         r="5.0700002"
         id="circle62" />
    </g>
    <g
       id="CIRCLE-52"
       data-name="CIRCLE">
      <circle
         class="cls-3"
         cx="438.31"
         cy="212.42"
         r="5.0700002"
         id="circle63" />
    </g>
    <g
       id="CIRCLE-53"
       data-name="CIRCLE">
      <circle
         class="cls-3"
         cx="438.31"
         cy="197.22"
         r="5.0700002"
         id="circle64" />
    </g>
    <g
       id="CIRCLE-54"
       data-name="CIRCLE">
      <circle
         class="cls-3"
         cx="438.31"
         cy="182.00999"
         r="5.0700002"
         id="circle65" />
    </g>
    <g
       id="CIRCLE-55"
       data-name="CIRCLE">
      <circle
         class="cls-3"
         cx="438.31"
         cy="166.8"
         r="5.0700002"
         id="circle66" />
    </g>
    <g
       id="CIRCLE-56"
       data-name="CIRCLE">
      <circle
         class="cls-3"
         cx="438.31"
         cy="151.60001"
         r="5.0700002"
         id="circle67" />
    </g>
    <g
       id="CIRCLE-57"
       data-name="CIRCLE">
      <circle
         class="cls-3"
         cx="458.59"
         cy="303.66"
         r="5.0700002"
         id="circle68" />
    </g>
    <g
       id="CIRCLE-58"
       data-name="CIRCLE">
      <circle
         class="cls-3"
         cx="458.59"
         cy="273.25"
         r="5.0700002"
         id="circle69" />
    </g>
    <g
       id="CIRCLE-59"
       data-name="CIRCLE">
      <circle
         class="cls-3"
         cx="458.59"
         cy="242.84"
         r="5.0700002"
         id="circle70" />
    </g>
    <g
       id="CIRCLE-60"
       data-name="CIRCLE">
      <circle
         class="cls-3"
         cx="458.59"
         cy="182.00999"
         r="5.0700002"
         id="circle71" />
    </g>
    <g
       id="CIRCLE-61"
       data-name="CIRCLE">
      <circle
         class="cls-3"
         cx="458.59"
         cy="227.63"
         r="5.0700002"
         id="circle72" />
    </g>
    <g
       id="CIRCLE-62"
       data-name="CIRCLE">
      <circle
         class="cls-3"
         cx="458.59"
         cy="288.45999"
         r="5.0700002"
         id="circle73" />
    </g>
    <g
       id="CIRCLE-63"
       data-name="CIRCLE">
      <circle
         class="cls-3"
         cx="458.59"
         cy="212.42"
         r="5.0700002"
         id="circle74" />
    </g>
    <g
       id="CIRCLE-64"
       data-name="CIRCLE">
      <circle
         class="cls-3"
         cx="458.59"
         cy="258.04001"
         r="5.0700002"
         id="circle75" />
    </g>
    <g
       id="CIRCLE-65"
       data-name="CIRCLE">
      <circle
         class="cls-3"
         cx="478.85999"
         cy="288.45999"
         r="5.0700002"
         id="circle76" />
    </g>
    <g
       id="CIRCLE-66"
       data-name="CIRCLE">
      <circle
         class="cls-3"
         cx="458.59"
         cy="166.8"
         r="5.0700002"
         id="circle77" />
    </g>
    <g
       id="CIRCLE-67"
       data-name="CIRCLE">
      <circle
         class="cls-3"
         cx="478.85999"
         cy="273.25"
         r="5.0700002"
         id="circle78" />
    </g>
    <g
       id="CIRCLE-68"
       data-name="CIRCLE">
      <circle
         class="cls-3"
         cx="478.85999"
         cy="197.22"
         r="5.0700002"
         id="circle79" />
    </g>
    <g
       id="CIRCLE-69"
       data-name="CIRCLE">
      <circle
         class="cls-3"
         cx="478.85999"
         cy="303.66"
         r="5.0700002"
         id="circle80" />
    </g>
    <g
       id="CIRCLE-70"
       data-name="CIRCLE">
      <circle
         class="cls-3"
         cx="458.59"
         cy="151.60001"
         r="5.0700002"
         id="circle81" />
    </g>
    <g
       id="CIRCLE-71"
       data-name="CIRCLE">
      <circle
         class="cls-3"
         cx="458.59"
         cy="197.22"
         r="5.0700002"
         id="circle82" />
    </g>
    <g
       id="CIRCLE-72"
       data-name="CIRCLE">
      <circle
         class="cls-3"
         cx="478.85999"
         cy="258.04001"
         r="5.0700002"
         id="circle83" />
    </g>
    <g
       id="CIRCLE-73"
       data-name="CIRCLE">
      <circle
         class="cls-3"
         cx="478.85999"
         cy="212.42"
         r="5.0700002"
         id="circle84" />
    </g>
    <g
       id="CIRCLE-74"
       data-name="CIRCLE">
      <circle
         class="cls-3"
         cx="478.85999"
         cy="242.84"
         r="5.0700002"
         id="circle85" />
    </g>
    <g
       id="CIRCLE-75"
       data-name="CIRCLE">
      <circle
         class="cls-3"
         cx="478.85999"
         cy="166.8"
         r="5.0700002"
         id="circle86" />
    </g>
    <g
       id="CIRCLE-76"
       data-name="CIRCLE">
      <circle
         class="cls-3"
         cx="478.85999"
         cy="182.00999"
         r="5.0700002"
         id="circle87" />
    </g>
    <g
       id="CIRCLE-77"
       data-name="CIRCLE">
      <circle
         class="cls-3"
         cx="478.85999"
         cy="227.63"
         r="5.0700002"
         id="circle88" />
    </g>
  </g>
</svg>
