<?xml version="1.0" encoding="UTF-8" standalone="no"?>
<svg
   viewBox="0 0 634.78265 634.78263"
   version="1.1"
   id="svg17"
   sodipodi:docname="SP-23_30x30.svg"
   width="634.78265"
   height="634.78265"
   inkscape:version="1.3.2 (091e20e, 2023-11-25, custom)"
   xmlns:inkscape="http://www.inkscape.org/namespaces/inkscape"
   xmlns:sodipodi="http://sodipodi.sourceforge.net/DTD/sodipodi-0.dtd"
   xmlns="http://www.w3.org/2000/svg"
   xmlns:svg="http://www.w3.org/2000/svg">
  <sodipodi:namedview
     id="namedview17"
     pagecolor="#ffffff"
     bordercolor="#000000"
     borderopacity="0.25"
     inkscape:showpageshadow="2"
     inkscape:pageopacity="0.0"
     inkscape:pagecheckerboard="0"
     inkscape:deskcolor="#d1d1d1"
     inkscape:zoom="0.74498301"
     inkscape:cx="316.78575"
     inkscape:cy="538.93846"
     inkscape:window-width="1920"
     inkscape:window-height="1009"
     inkscape:window-x="-8"
     inkscape:window-y="-8"
     inkscape:window-maximized="1"
     inkscape:current-layer="svg17" />
  <defs
     id="defs1">
    <style
       id="style1">
      .cls-1 {
        fill: #fff;
      }

      .cls-1, .cls-2 {
        stroke: #000;
        stroke-linecap: round;
        stroke-linejoin: round;
      }

      .cls-2 {
        fill: none;
      }

      .cls-3 {
        fill: #ffca06;
      }

      .cls-4 {
        fill-rule: evenodd;
      }
    </style>
  </defs>
  <g
     id="sp_Fondo_del_tablero"
     data-name="sp_Fondo del tablero"
     transform="translate(-100.64067,-6.539917)">
    <g
       id="HATCH">
      <rect
         class="cls-3"
         x="197.31"
         y="103.21"
         width="441.45999"
         height="441.45999"
         rx="18.65"
         ry="18.65"
         transform="rotate(-45,418.02898,323.93673)"
         id="rect3" />
    </g>
  </g>
  <g
     id="sp_Pictograma_y_filete"
     data-name="sp_Pictograma y filete"
     transform="translate(-100.64067,-6.539917)">
    <g
       id="HATCH-2"
       data-name="HATCH">
      <path
         class="cls-4"
         d="M 431.22,622.9 717,337.12 c 7.28,-7.28 7.28,-19.09 0,-26.38 L 431.22,24.97 c -7.28,-7.28 -19.09,-7.28 -26.38,0 L 119.07,310.75 c -7.28,7.28 -7.28,19.09 0,26.38 l 285.78,285.78 c 7.28,7.28 19.09,7.28 26.38,0 m 8.79,8.79 285.78,-285.78 c 12.14,-12.14 12.14,-31.82 0,-43.97 L 440.02,16.18 C 427.88,4.04 408.2,4.04 396.05,16.18 L 110.27,301.95 c -12.14,12.14 -12.14,31.82 0,43.97 L 396.05,631.7 c 12.14,12.14 31.82,12.14 43.97,0 z"
         id="path3" />
    </g>
    <g
       id="HATCH-3"
       data-name="HATCH">
      <path
         class="cls-4"
         d="m 316.66,161.74 -35.84,35.84 45.98,45.98 v 160.76 l -45.98,45.98 35.84,35.84 60.83,-60.83 V 222.56 l -60.83,-60.83 m 141.93,60.83 60.83,-60.83 35.84,35.84 -45.98,45.98 v 160.76 c 0,0 45.98,45.98 45.98,45.98 L 519.42,486.13 458.59,425.3 V 222.55 Z"
         id="path4" />
    </g>
    <g
       id="LWPOLYLINE">
      <rect
         class="cls-2"
         x="184.87"
         y="90.769997"
         width="466.32999"
         height="466.32999"
         rx="31.09"
         ry="31.09"
         transform="rotate(-45,418.02898,323.93673)"
         id="rect4" />
    </g>
    <g
       id="LWPOLYLINE-2"
       data-name="LWPOLYLINE">
      <rect
         class="cls-2"
         x="197.31"
         y="103.21"
         width="441.45999"
         height="441.45999"
         rx="18.65"
         ry="18.65"
         transform="rotate(-45,418.02898,323.93673)"
         id="rect5" />
    </g>
    <g
       id="LWPOLYLINE-3"
       data-name="LWPOLYLINE">
      <polygon
         class="cls-2"
         points="555.25,197.58 509.27,243.56 509.27,404.32 555.25,450.3 519.41,486.14 458.59,425.31 458.59,222.56 519.41,161.74 "
         id="polygon5" />
    </g>
    <g
       id="LWPOLYLINE-4"
       data-name="LWPOLYLINE">
      <polygon
         class="cls-2"
         points="326.8,243.56 326.8,404.32 280.82,450.3 316.66,486.14 377.48,425.31 377.48,222.56 316.66,161.74 280.82,197.58 "
         id="polygon6" />
    </g>
  </g>
</svg>
