<?xml version="1.0" encoding="UTF-8" standalone="no"?>
<svg
   viewBox="0 0 780.89001 762.67685"
   version="1.1"
   id="svg352"
   sodipodi:docname="MX_road_sign_SP-33.svg"
   width="780.89001"
   height="762.67682"
   inkscape:version="1.2.2 (732a01da63, 2022-12-09)"
   xmlns:inkscape="http://www.inkscape.org/namespaces/inkscape"
   xmlns:sodipodi="http://sodipodi.sourceforge.net/DTD/sodipodi-0.dtd"
   xmlns="http://www.w3.org/2000/svg"
   xmlns:svg="http://www.w3.org/2000/svg">
  <sodipodi:namedview
     id="namedview354"
     pagecolor="#ffffff"
     bordercolor="#000000"
     borderopacity="0.25"
     inkscape:showpageshadow="2"
     inkscape:pageopacity="0.0"
     inkscape:pagecheckerboard="0"
     inkscape:deskcolor="#d1d1d1"
     showgrid="false"
     inkscape:zoom="0.78016472"
     inkscape:cx="391.58397"
     inkscape:cy="381.97062"
     inkscape:window-width="1920"
     inkscape:window-height="1057"
     inkscape:window-x="-8"
     inkscape:window-y="-8"
     inkscape:window-maximized="1"
     inkscape:current-layer="HATCH" />
  <defs
     id="defs280">
    <style
       id="style278">.cls-1{fill:#fff;}.cls-1,.cls-2{stroke:#000;stroke-linecap:round;stroke-linejoin:round;}.cls-2{fill:none;}.cls-3{fill:#bcd630;}.cls-3,.cls-4{fill-rule:evenodd;}</style>
  </defs>
  <g
     id="sp33_x5F_Fondo_del_tablero"
     transform="translate(-27.51,-6.4231634)">
    <g
       id="HATCH">
      <path
         class="cls-3"
         d="m 49.97,724.66 c 0,12.13 9.84,21.97 21.97,21.97 h 692.01 c 12.13,0 21.97,-9.84 21.97,-21.97 V 387.76 L 433.48,35.32 c -8.58,-8.58 -22.49,-8.58 -31.07,0 L 49.97,387.76 Z"
         id="path288"
         style="fill:#beff00;fill-opacity:1" />
    </g>
  </g>
  <g
     id="sp_x5F_Pictograma_y_filete"
     transform="translate(-27.51,-6.4231634)">
    <g
       id="HATCH-2">
      <path
         class="cls-4"
         d="m 49.97,724.66 c 0,12.13 9.84,21.97 21.97,21.97 h 692.01 c 12.13,0 21.97,-9.84 21.97,-21.97 V 387.76 L 433.48,35.32 c -8.58,-8.58 -22.49,-8.58 -31.07,0 L 49.97,387.76 v 336.9 m -21.96,0 c 0,24.27 19.67,43.94 43.94,43.94 h 692.01 c 24.27,0 43.94,-19.67 43.94,-43.94 v -346 L 449.02,19.79 C 431.86,2.63 404.04,2.63 386.88,19.79 L 28.01,378.66 Z"
         id="path292" />
    </g>
    <g
       id="HATCH-3">
      <path
         class="cls-4"
         d="m 627.32,363.41 c 4.65,-0.56 8.87,2.75 9.44,7.4 l 3.06,25.25 c 0.03,0.23 0.06,0.47 0.09,0.71 0.91,9.12 -5.75,17.26 -14.88,18.16 l -33.66,4.08 c -4.65,0.56 -8.87,-2.75 -9.44,-7.4 L 569.69,310.63 v 0 c -0.56,-4.65 2.75,-8.87 7.4,-9.44 l 33.66,-4.08 v 0 c 4.65,-0.56 8.87,2.75 9.44,7.4 l 7.14,58.91 m -247.66,209.75 11.55,-4.95 c 4.05,-1.73 6.09,-6.28 4.71,-10.45 l -28.41,-85.86 -3.05,-25.43 -15.26,-130.55 c -11.24,-14.98 -32.49,-18.02 -47.47,-6.78 -8.94,6.7 -14,17.38 -13.53,28.54 l 1.81,43.58 c 0.1,2.33 -0.77,4.6 -2.4,6.27 l -60.65,62.15 c -5.27,5.2 -5.33,13.69 -0.13,18.95 5.2,5.27 13.69,5.33 18.95,0.13 l 45.86,-48.26 c 0.08,-0.09 0.19,-0.15 0.31,-0.16 0.3,-0.05 0.58,0.16 0.63,0.46 l 4.07,25.68 -62.08,100.88 c -2.45,3.99 -1.21,9.21 2.78,11.66 0.61,0.38 1.27,0.67 1.95,0.88 l 2.25,0.69 v 101.87 c 0,9.75 7.91,17.66 17.66,17.66 9.75,0 17.66,-7.91 17.66,-17.66 v -91 l 56.22,17.3 c 3.22,0.99 6.66,1 9.88,0.03 L 356,666.9 c 2.34,9.36 11.83,15.06 21.19,12.72 9.36,-2.34 15.06,-11.83 12.72,-21.19 L 379.68,573.2 M 562.36,315.93 c -11.24,-14.98 -32.49,-18.02 -47.47,-6.78 -8.94,6.7 -14,17.38 -13.53,28.54 l 1.81,43.58 c 0.1,2.33 -0.77,4.6 -2.4,6.27 l -60.65,62.15 c -5.27,5.2 -5.33,13.69 -0.13,18.95 5.2,5.26 13.69,5.33 18.95,0.13 l 45.86,-48.26 c 0.08,-0.09 0.19,-0.15 0.31,-0.16 0.3,-0.05 0.58,0.16 0.63,0.46 l 4.07,25.68 -53.16,94.98 c -1.27,2.02 -1.94,4.36 -1.94,6.74 v 114.26 c 0,9.75 7.91,17.66 17.66,17.66 9.75,0 17.66,-7.91 17.66,-17.66 v -97.3 c 0,-2.43 0.7,-4.82 2.01,-6.86 l 38.97,-69.43 c 0.4,-1.54 1.6,-2.74 3.14,-3.14 2.34,-0.61 4.73,0.8 5.34,3.14 l 29.67,178.02 c 2.34,9.36 11.83,15.06 21.19,12.72 9.36,-2.34 15.06,-11.83 12.72,-21.19 L 577.64,446.51 562.38,315.96 m -10.19,-55.98 c 0,-18.73 -15.18,-33.91 -33.91,-33.91 -18.73,0 -33.91,15.18 -33.91,33.91 0,18.73 15.18,33.91 33.91,33.91 18.73,0 33.91,-15.18 33.91,-33.91 M 414.18,363.41 c 4.65,-0.56 8.87,2.75 9.44,7.4 l 3.06,25.25 c 0.03,0.23 0.06,0.47 0.09,0.71 0.91,9.12 -5.75,17.26 -14.88,18.16 l -33.66,4.08 c -4.65,0.56 -8.87,-2.75 -9.44,-7.4 L 356.55,310.63 v 0 c -0.56,-4.65 2.75,-8.87 7.4,-9.44 l 33.66,-4.08 v 0 c 4.65,-0.56 8.87,2.75 9.44,7.4 l 7.14,58.91 M 347.52,243.03 c -3.85,1.57 -6.91,4.63 -8.48,8.48 -1.59,9.36 1.59,18.89 8.48,25.43 7.41,5.36 16.29,8.32 25.43,8.48 -0.05,-0.02 -0.1,-0.03 -0.15,-0.05 -6.97,-2.37 -10.69,-9.94 -8.32,-16.9 1.97,-5.48 1.97,-11.47 0,-16.95 -2.47,-6.91 -9.94,-10.65 -16.95,-8.48 m -8.49,16.94 c 0,-18.73 -15.18,-33.91 -33.91,-33.91 -18.73,0 -33.91,15.18 -33.91,33.91 0,18.73 15.18,33.91 33.91,33.91 18.73,0 33.91,-15.18 33.91,-33.91 z"
         id="path295" />
    </g>
    <g
       id="LWPOLYLINE">
      <path
         class="cls-2"
         d="m 28.01,724.66 c 0,24.27 19.67,43.94 43.94,43.94 h 692.01 c 24.27,0 43.94,-19.67 43.94,-43.94 v -346 L 449.02,19.79 C 431.86,2.63 404.04,2.63 386.88,19.79 L 28.01,378.66 Z"
         id="path298" />
    </g>
    <g
       id="LWPOLYLINE-2">
      <path
         class="cls-2"
         d="m 49.97,724.66 c 0,12.13 9.84,21.97 21.97,21.97 h 692.01 c 12.13,0 21.97,-9.84 21.97,-21.97 V 387.76 L 433.48,35.32 c -8.58,-8.58 -22.49,-8.58 -31.07,0 L 49.97,387.76 Z"
         id="path301" />
    </g>
    <g
       id="LWPOLYLINE-3">
      <path
         class="cls-2"
         d="m 347.52,243.03 c -3.85,1.57 -6.91,4.63 -8.48,8.48 -1.59,9.36 1.59,18.89 8.48,25.43 7.41,5.36 16.29,8.32 25.43,8.48 -0.05,-0.02 -0.1,-0.03 -0.15,-0.05 -6.97,-2.37 -10.69,-9.94 -8.32,-16.9 1.97,-5.48 1.97,-11.47 0,-16.95 -2.47,-6.91 -9.94,-10.65 -16.95,-8.48"
         id="path304" />
    </g>
    <g
       id="LWPOLYLINE-4">
      <path
         class="cls-2"
         d="m 414.18,363.41 c 4.65,-0.56 8.87,2.75 9.44,7.4 l 3.06,25.25 c 0.03,0.23 0.06,0.47 0.09,0.71 0.91,9.12 -5.75,17.26 -14.88,18.16 l -33.66,4.08 c -4.65,0.56 -8.87,-2.75 -9.44,-7.4 L 356.55,310.63 v 0 c -0.56,-4.65 2.75,-8.87 7.4,-9.44 l 33.66,-4.08 v 0 c 4.65,-0.56 8.87,2.75 9.44,7.4 l 7.14,58.91 z"
         id="path307" />
    </g>
    <g
       id="LWPOLYLINE-5">
      <path
         class="cls-2"
         d="m 562.36,315.93 c -11.24,-14.98 -32.49,-18.02 -47.47,-6.78 -8.94,6.7 -14,17.38 -13.53,28.54 l 1.81,43.58 c 0.1,2.33 -0.77,4.6 -2.4,6.27 l -60.65,62.15 c -5.27,5.2 -5.33,13.69 -0.13,18.95 5.2,5.26 13.69,5.33 18.95,0.13 l 45.86,-48.26 c 0.08,-0.09 0.19,-0.15 0.31,-0.16 0.3,-0.05 0.58,0.16 0.63,0.46 l 4.07,25.68 -53.16,94.98 c -1.27,2.02 -1.94,4.36 -1.94,6.74 v 114.26 c 0,9.75 7.91,17.66 17.66,17.66 9.75,0 17.66,-7.91 17.66,-17.66 v -97.3 c 0,-2.43 0.7,-4.82 2.01,-6.86 l 38.97,-69.43 c 0.4,-1.54 1.6,-2.74 3.14,-3.14 2.34,-0.61 4.73,0.8 5.34,3.14 l 29.67,178.02 c 2.34,9.36 11.83,15.06 21.19,12.72 9.36,-2.34 15.06,-11.83 12.72,-21.19 L 577.64,446.51 562.38,315.96"
         id="path310" />
    </g>
    <g
       id="LWPOLYLINE-6">
      <path
         class="cls-2"
         d="m 379.67,573.17 11.55,-4.95 c 4.05,-1.73 6.09,-6.28 4.71,-10.45 l -28.41,-85.86 -3.05,-25.43 -15.26,-130.55 c -11.24,-14.98 -32.49,-18.02 -47.47,-6.78 -8.94,6.7 -14,17.38 -13.53,28.54 l 1.81,43.58 c 0.1,2.33 -0.77,4.6 -2.4,6.27 l -60.65,62.15 c -5.27,5.2 -5.33,13.69 -0.13,18.95 5.2,5.26 13.69,5.33 18.95,0.13 l 45.86,-48.26 c 0.08,-0.09 0.19,-0.15 0.31,-0.16 0.3,-0.05 0.58,0.16 0.63,0.46 l 4.07,25.68 -62.08,100.88 c -2.45,3.99 -1.21,9.21 2.78,11.66 0.61,0.38 1.27,0.67 1.95,0.88 l 2.25,0.69 v 101.87 c 0,9.75 7.91,17.66 17.66,17.66 9.75,0 17.66,-7.91 17.66,-17.66 v -91 l 56.22,17.3 c 3.22,0.99 6.66,1 9.88,0.03 L 356,666.9 c 2.34,9.36 11.83,15.06 21.19,12.72 9.36,-2.34 15.06,-11.83 12.72,-21.19 L 379.68,573.2 Z"
         id="path313" />
    </g>
    <g
       id="LWPOLYLINE-7">
      <path
         class="cls-2"
         d="m 627.32,363.41 c 4.65,-0.56 8.87,2.75 9.44,7.4 l 3.06,25.25 c 0.03,0.23 0.06,0.47 0.09,0.71 0.91,9.12 -5.75,17.26 -14.88,18.16 l -33.66,4.08 c -4.65,0.56 -8.87,-2.75 -9.44,-7.4 L 569.69,310.63 v 0 c -0.56,-4.65 2.75,-8.87 7.4,-9.44 l 33.66,-4.08 v 0 c 4.65,-0.56 8.87,2.75 9.44,7.4 l 7.14,58.91 z"
         id="path316" />
    </g>
    <g
       id="CIRCLE">
      <circle
         class="cls-2"
         cx="305.13"
         cy="259.98001"
         r="33.91"
         id="circle319" />
    </g>
    <g
       id="CIRCLE-2">
      <circle
         class="cls-2"
         cx="518.28003"
         cy="259.98001"
         r="33.91"
         id="circle322" />
    </g>
  </g>
</svg>
