<?xml version="1.0" encoding="UTF-8" standalone="no"?>
<svg
   version="1.1"
   viewBox="0 0 634.78265 634.78265"
   id="svg99"
   sodipodi:docname="SP-35C_30x30.svg"
   width="634.78265"
   height="634.78265"
   inkscape:version="1.2.2 (b0a8486541, 2022-12-01)"
   xmlns:inkscape="http://www.inkscape.org/namespaces/inkscape"
   xmlns:sodipodi="http://sodipodi.sourceforge.net/DTD/sodipodi-0.dtd"
   xmlns="http://www.w3.org/2000/svg"
   xmlns:svg="http://www.w3.org/2000/svg">
  <sodipodi:namedview
     id="namedview101"
     pagecolor="#ffffff"
     bordercolor="#000000"
     borderopacity="0.25"
     inkscape:showpageshadow="2"
     inkscape:pageopacity="0.0"
     inkscape:pagecheckerboard="0"
     inkscape:deskcolor="#d1d1d1"
     showgrid="false"
     inkscape:zoom="0.7484375"
     inkscape:cx="317.99582"
     inkscape:cy="534.44676"
     inkscape:window-width="1920"
     inkscape:window-height="1014"
     inkscape:window-x="0"
     inkscape:window-y="29"
     inkscape:window-maximized="1"
     inkscape:current-layer="svg99" />
  <defs
     id="defs4">
    <style
       id="style2">
      .cls-1 {
        fill: #fff;
      }

      .cls-1, .cls-2 {
        stroke: #000;
        stroke-linecap: round;
        stroke-linejoin: round;
      }

      .cls-2 {
        fill: none;
      }

      .cls-3 {
        fill: #ffca06;
      }

      .cls-4 {
        fill-rule: evenodd;
      }
    </style>
  </defs>
  <!-- Generator: Adobe Illustrator 28.6.0, SVG Export Plug-In . SVG Version: 1.2.0 Build 709)  -->
  <g
     id="sp_x5F_Fondo_del_tablero"
     transform="translate(-642.58046,-4.9008088)">
    <g
       id="HATCH">
      <rect
         class="cls-3"
         x="739.23999"
         y="101.57"
         width="441.45999"
         height="441.45999"
         rx="18.65"
         ry="18.65"
         transform="rotate(-45,959.96996,322.29742)"
         id="rect12" />
    </g>
  </g>
  <g
     id="sp_x5F_Pictograma_y_filete"
     transform="translate(-642.58046,-4.9008088)">
    <g
       id="HATCH-2"
       data-name="HATCH">
      <path
         class="cls-4"
         d="m 973.16,621.26 285.78,-285.78 c 7.28,-7.28 7.28,-19.09 0,-26.38 L 973.16,23.33 c -7.28,-7.28 -19.09,-7.28 -26.38,0 L 661,309.11 c -7.28,7.28 -7.28,19.09 0,26.38 l 285.78,285.78 c 7.28,7.28 19.09,7.28 26.38,0 m 8.79,8.78 285.78,-285.78 c 12.14,-12.14 12.14,-31.82 0,-43.97 L 981.95,14.53 C 969.81,2.39 950.13,2.39 937.98,14.53 L 652.2,300.31 c -12.14,12.14 -12.14,31.82 0,43.97 l 285.78,285.78 c 12.14,12.14 31.82,12.14 43.97,0 z"
         id="path16" />
    </g>
    <g
       id="HATCH-3"
       data-name="HATCH">
      <path
         class="cls-4"
         d="m 1091.76,352.71 v 50.69 h 20.28 v -50.69 h -20.28 m -35.48,0 v 50.69 h 20.28 v -50.69 h -20.28 m -35.48,0 v 50.69 h 20.28 v -50.69 h -20.28 m -35.49,0 v 50.69 h 20.28 v -50.69 h -20.28 m -35.48,0 v 50.69 h 20.28 v -50.69 h -20.28 m -35.48,0 v 50.69 h 20.28 v -50.69 h -20.28 m -35.48,0 v 50.69 h 20.28 v -50.69 h -20.28 m -35.48,0 v 50.69 h 20.28 v -50.69 h -20.28 m -35.48,0 v 50.69 h 20.28 v -50.69 h -20.28 m 319.33,0 v 50.69 h 5.07 v 5.07 h -5.07 v 5.07 h -15.21 v -5.07 h -20.28 v 5.07 h -15.21 v -5.07 h -20.28 v 5.07 h -15.21 v -5.07 h -20.28 v 5.07 h -15.21 v -5.07 h -20.28 v 5.07 h -15.21 v -5.07 h -20.28 v 5.07 h -15.21 v -5.07 H 914.3 v 5.07 h -15.21 v -5.07 h -20.28 v 5.07 H 863.6 v -5.07 h -20.28 v 5.07 h -15.21 v -5.07 h -20.28 v 5.07 h -15.21 v -5.07 h -5.07 v -5.07 h 5.07 v -50.69 h -5.07 v -5.07 h 5.07 v -5.07 h 15.21 v 5.07 h 20.28 v -5.07 h 15.21 v 5.07 h 20.28 v -5.07 h 15.21 v 5.07 h 20.28 v -5.07 h 15.21 v 5.07 h 20.28 v -5.07 h 15.21 v 5.07 h 20.28 v -5.07 h 15.21 v 5.07 h 20.28 v -5.07 h 15.21 v 5.07 h 20.28 v -5.07 h 15.21 v 5.07 h 20.28 v -5.07 h 15.21 v 5.07 h 20.28 v -5.07 h 15.21 v 5.07 h 5.07 v 5.07 h -5.07 m 5.07,-121.65 H 787.63 v 60.83 h 141.93 c 0,0 0,35.48 0,35.48 h 60.83 v -35.48 h 141.93 c 0,0 0,-60.83 0,-60.83 M 929.56,428.74 h 60.83 v 126.72 h -60.83 z"
         id="path19" />
    </g>
    <g
       id="LWPOLYLINE">
      <rect
         class="cls-2"
         x="726.81"
         y="89.129997"
         width="466.32999"
         height="466.32999"
         rx="31.09"
         ry="31.09"
         transform="rotate(-45,959.96996,322.29742)"
         id="rect22" />
    </g>
    <g
       id="LWPOLYLINE-2"
       data-name="LWPOLYLINE">
      <rect
         class="cls-2"
         x="739.23999"
         y="101.57"
         width="441.45999"
         height="441.45999"
         rx="18.65"
         ry="18.65"
         transform="rotate(-45,959.96996,322.29742)"
         id="rect25" />
    </g>
    <g
       id="LWPOLYLINE-3"
       data-name="LWPOLYLINE">
      <rect
         class="cls-2"
         x="929.56"
         y="428.73999"
         width="60.830002"
         height="126.72"
         id="rect28" />
    </g>
    <g
       id="LWPOLYLINE-4"
       data-name="LWPOLYLINE">
      <rect
         class="cls-2"
         x="843.39001"
         y="352.70999"
         width="20.280001"
         height="50.689999"
         id="rect31" />
    </g>
    <g
       id="LWPOLYLINE-5"
       data-name="LWPOLYLINE">
      <polygon
         class="cls-2"
         points="1127.24,408.46 1127.24,413.53 1112.03,413.53 1112.03,408.46 1091.76,408.46 1091.76,413.53 1076.55,413.53 1076.55,408.46 1056.28,408.46 1056.28,413.53 1041.07,413.53 1041.07,408.46 1020.8,408.46 1020.8,413.53 1005.59,413.53 1005.59,408.46 985.31,408.46 985.31,413.53 970.11,413.53 970.11,408.46 949.83,408.46 949.83,413.53 934.63,413.53 934.63,408.46 914.35,408.46 914.35,413.53 899.15,413.53 899.15,408.46 878.87,408.46 878.87,413.53 863.66,413.53 863.66,408.46 843.39,408.46 843.39,413.53 828.18,413.53 828.18,408.46 807.91,408.46 807.91,413.53 792.7,413.53 792.7,408.46 787.63,408.46 787.63,403.39 792.7,403.39 792.7,352.71 787.63,352.71 787.63,347.64 792.7,347.64 792.7,342.57 807.91,342.57 807.91,347.64 828.18,347.64 828.18,342.57 843.39,342.57 843.39,347.64 863.66,347.64 863.66,342.57 878.87,342.57 878.87,347.64 899.15,347.64 899.15,342.57 914.35,342.57 914.35,347.64 934.63,347.64 934.63,342.57 949.83,342.57 949.83,347.64 970.11,347.64 970.11,342.57 985.31,342.57 985.31,347.64 1005.59,347.64 1005.59,342.57 1020.8,342.57 1020.8,347.64 1041.07,347.64 1041.07,342.57 1056.28,342.57 1056.28,347.64 1076.55,347.64 1076.55,342.57 1091.76,342.57 1091.76,347.64 1112.03,347.64 1112.03,342.57 1127.24,342.57 1127.24,347.64 1132.31,347.64 1132.31,352.71 1127.24,352.71 1127.24,403.39 1132.31,403.39 1132.31,408.46 "
         id="polygon34" />
    </g>
    <g
       id="LWPOLYLINE-6"
       data-name="LWPOLYLINE">
      <rect
         class="cls-2"
         x="914.34998"
         y="352.70999"
         width="20.280001"
         height="50.689999"
         id="rect37" />
    </g>
    <g
       id="LWPOLYLINE-7"
       data-name="LWPOLYLINE">
      <rect
         class="cls-2"
         x="807.90997"
         y="352.70999"
         width="20.280001"
         height="50.689999"
         id="rect40" />
    </g>
    <g
       id="LWPOLYLINE-8"
       data-name="LWPOLYLINE">
      <polygon
         class="cls-2"
         points="929.56,327.36 990.38,327.36 990.38,291.88 1132.31,291.88 1132.31,231.06 787.63,231.06 787.63,291.88 929.56,291.88 "
         id="polygon43" />
    </g>
    <g
       id="LWPOLYLINE-9"
       data-name="LWPOLYLINE">
      <rect
         class="cls-2"
         x="949.83002"
         y="352.70999"
         width="20.280001"
         height="50.689999"
         id="rect46" />
    </g>
    <g
       id="LWPOLYLINE-10"
       data-name="LWPOLYLINE">
      <rect
         class="cls-2"
         x="1020.8"
         y="352.70999"
         width="20.280001"
         height="50.689999"
         id="rect49" />
    </g>
    <g
       id="LWPOLYLINE-11"
       data-name="LWPOLYLINE">
      <rect
         class="cls-2"
         x="878.87"
         y="352.70999"
         width="20.280001"
         height="50.689999"
         id="rect52" />
    </g>
    <g
       id="LWPOLYLINE-12"
       data-name="LWPOLYLINE">
      <rect
         class="cls-2"
         x="1091.76"
         y="352.70999"
         width="20.280001"
         height="50.689999"
         id="rect55" />
    </g>
    <g
       id="LWPOLYLINE-13"
       data-name="LWPOLYLINE">
      <rect
         class="cls-2"
         x="1056.28"
         y="352.70999"
         width="20.280001"
         height="50.689999"
         id="rect58" />
    </g>
    <g
       id="LWPOLYLINE-14"
       data-name="LWPOLYLINE">
      <rect
         class="cls-2"
         x="985.31"
         y="352.70999"
         width="20.280001"
         height="50.689999"
         id="rect61" />
    </g>
  </g>
</svg>
