<?xml version="1.0" encoding="UTF-8" standalone="no"?>
<svg
   version="1.1"
   viewBox="0 0 634.78265 634.78265"
   id="svg64"
   sodipodi:docname="SP-34_30x30.svg"
   width="634.78265"
   height="634.78265"
   inkscape:version="1.2.2 (b0a8486541, 2022-12-01)"
   xmlns:inkscape="http://www.inkscape.org/namespaces/inkscape"
   xmlns:sodipodi="http://sodipodi.sourceforge.net/DTD/sodipodi-0.dtd"
   xmlns="http://www.w3.org/2000/svg"
   xmlns:svg="http://www.w3.org/2000/svg">
  <sodipodi:namedview
     id="namedview66"
     pagecolor="#ffffff"
     bordercolor="#000000"
     borderopacity="0.25"
     inkscape:showpageshadow="2"
     inkscape:pageopacity="0.0"
     inkscape:pagecheckerboard="0"
     inkscape:deskcolor="#d1d1d1"
     showgrid="false"
     inkscape:zoom="0.7484375"
     inkscape:cx="317.99582"
     inkscape:cy="534.44676"
     inkscape:window-width="1920"
     inkscape:window-height="1014"
     inkscape:window-x="0"
     inkscape:window-y="29"
     inkscape:window-maximized="1"
     inkscape:current-layer="svg64" />
  <defs
     id="defs4">
    <style
       id="style2">
      .cls-1 {
        fill: #fff;
      }

      .cls-1, .cls-2 {
        stroke: #000;
        stroke-linecap: round;
        stroke-linejoin: round;
      }

      .cls-2 {
        fill: none;
      }

      .cls-3 {
        fill: #ffca06;
      }

      .cls-4 {
        fill-rule: evenodd;
      }
    </style>
  </defs>
  <!-- Generator: Adobe Illustrator 28.6.0, SVG Export Plug-In . SVG Version: 1.2.0 Build 709)  -->
  <g
     id="sp_x5F_Fondo_del_tablero"
     transform="translate(-642.58046,-4.9008088)">
    <g
       id="HATCH">
      <rect
         class="cls-3"
         x="739.23999"
         y="101.57"
         width="441.45999"
         height="441.45999"
         rx="18.65"
         ry="18.65"
         transform="rotate(-45,959.96996,322.29742)"
         id="rect12" />
    </g>
  </g>
  <g
     id="sp_x5F_Pictograma_y_filete"
     transform="translate(-642.58046,-4.9008088)">
    <g
       id="HATCH-2"
       data-name="HATCH">
      <path
         class="cls-4"
         d="m 973.16,621.26 285.78,-285.78 c 7.28,-7.28 7.28,-19.09 0,-26.38 L 973.16,23.33 c -7.28,-7.28 -19.09,-7.28 -26.38,0 L 661,309.11 c -7.28,7.28 -7.28,19.09 0,26.38 l 285.78,285.78 c 7.28,7.28 19.09,7.28 26.38,0 m 8.79,8.78 285.78,-285.78 c 12.14,-12.14 12.14,-31.82 0,-43.97 L 981.95,14.53 C 969.81,2.39 950.13,2.39 937.98,14.53 L 652.2,300.31 c -12.14,12.14 -12.14,31.82 0,43.97 l 285.78,285.78 c 12.14,12.14 31.82,12.14 43.97,0 z"
         id="path16" />
    </g>
    <g
       id="HATCH-3"
       data-name="HATCH">
      <path
         class="cls-4"
         d="m 802.84,266.54 c -1.46,-0.71 -2.85,-1.54 -4.16,-2.49 -12.16,-8.86 -14.84,-25.9 -5.98,-38.06 -1.22,9.62 5.58,18.42 15.21,19.64 9.63,1.22 18.42,-5.58 19.64,-15.21 1.22,-9.62 -5.58,-18.42 -15.21,-19.64 -1.47,-0.19 -2.96,-0.19 -4.43,0 4.45,-0.64 8.99,-0.34 13.32,0.89 17.07,4.83 27,22.59 22.17,39.66 l 15.21,-8.78 c 0.56,-0.32 1.14,-0.59 1.75,-0.8 l 42.3,-14.65 c 3.13,-1.08 6.48,-1.38 9.76,-0.87 l 93.56,14.6 c 2.7,0.42 5.44,0.48 8.16,0.17 l 85.46,-9.81 c 6.37,-0.73 12.71,1.59 17.1,6.27 l 31.78,33.88 c 2.51,2.68 3.97,6.17 4.1,9.84 v 81.4 c 0.02,3.53 -0.55,7.04 -1.67,10.39 l -3.38,10.15 -4.09,-16.35 c -0.65,-2.6 -0.98,-5.28 -0.98,-7.97 v -41.58 c 0,0 -33.06,61.35 -33.06,61.35 -1.03,1.91 -1.74,3.97 -2.12,6.1 l -10.45,59.28 h -20.28 l -5.08,-71.32 c -0.12,-1.68 -1.06,-3.19 -2.52,-4.03 l -16.03,-10.74 c -6.27,-4.2 -13.87,-5.91 -21.33,-4.82 l -63.06,9.94 c -4.15,0.65 -7.47,3.81 -8.34,7.92 l -15.42,73.06 h -20.28 v -65.89 c 0,-2.8 -2.27,-5.07 -5.07,-5.07 h -5.07 c -3.69,0 -7.08,-2 -8.87,-5.23 L 877.6,317.4 c -2.71,-4.9 -8.88,-6.67 -13.78,-3.96 -0.05,0.03 -0.11,0.06 -0.16,0.09 l -38.02,21.95 c -2.18,1.26 -4.64,1.96 -7.15,2.03 -8.4,0.25 -15.41,-6.36 -15.66,-14.76 v -56.2 z"
         id="path19" />
    </g>
    <g
       id="LWPOLYLINE">
      <rect
         class="cls-2"
         x="726.81"
         y="89.129997"
         width="466.32999"
         height="466.32999"
         rx="31.09"
         ry="31.09"
         transform="rotate(-45,959.96996,322.29742)"
         id="rect22" />
    </g>
    <g
       id="LWPOLYLINE-2"
       data-name="LWPOLYLINE">
      <rect
         class="cls-2"
         x="739.23999"
         y="101.57"
         width="441.45999"
         height="441.45999"
         rx="18.65"
         ry="18.65"
         transform="rotate(-45,959.96996,322.29742)"
         id="rect25" />
    </g>
    <g
       id="LWPOLYLINE-3"
       data-name="LWPOLYLINE">
      <path
         class="cls-2"
         d="m 802.84,266.54 c -1.46,-0.71 -2.85,-1.54 -4.16,-2.49 -12.16,-8.86 -14.84,-25.9 -5.98,-38.06 -1.22,9.62 5.58,18.42 15.21,19.64 9.63,1.22 18.42,-5.58 19.64,-15.21 1.22,-9.63 -5.58,-18.42 -15.21,-19.64 -1.47,-0.19 -2.96,-0.19 -4.43,0 4.45,-0.64 8.99,-0.34 13.32,0.89 17.07,4.83 27,22.59 22.17,39.66 l 15.21,-8.78 c 0.56,-0.32 1.14,-0.59 1.75,-0.8 l 42.3,-14.65 c 3.13,-1.08 6.48,-1.38 9.76,-0.87 l 93.56,14.6 c 2.7,0.42 5.44,0.48 8.16,0.17 l 85.46,-9.81 c 6.37,-0.73 12.71,1.59 17.1,6.27 l 31.78,33.88 c 2.51,2.68 3.97,6.17 4.1,9.84 v 81.4 c 0.02,3.53 -0.55,7.04 -1.67,10.39 l -3.38,10.15 -4.09,-16.35 c -0.65,-2.6 -0.98,-5.28 -0.98,-7.97 v -41.58 c 0,0 -33.06,61.35 -33.06,61.35 -1.03,1.91 -1.74,3.97 -2.12,6.1 l -10.45,59.28 h -20.28 l -5.08,-71.32 c -0.12,-1.68 -1.06,-3.19 -2.52,-4.03 l -16.03,-10.74 c -6.27,-4.2 -13.87,-5.91 -21.33,-4.82 l -63.06,9.94 c -4.15,0.65 -7.47,3.81 -8.34,7.92 l -15.42,73.06 h -20.28 v -65.89 c 0,-2.8 -2.27,-5.07 -5.07,-5.07 h -5.07 c -3.69,0 -7.08,-2 -8.87,-5.23 L 877.6,317.4 c -2.71,-4.9 -8.88,-6.67 -13.78,-3.96 -0.05,0.03 -0.11,0.06 -0.16,0.09 l -38.02,21.95 c -2.18,1.26 -4.64,1.96 -7.15,2.03 -8.4,0.25 -15.41,-6.36 -15.66,-14.76 v -56.2 z"
         id="path28" />
    </g>
  </g>
</svg>
