<?xml version="1.0" encoding="UTF-8" standalone="no"?>
<svg
   version="1.1"
   viewBox="0 0 634.78265 634.78265"
   id="svg80"
   sodipodi:docname="SP-31A_30x30.svg"
   width="634.78265"
   height="634.78265"
   inkscape:version="1.2.2 (b0a8486541, 2022-12-01)"
   xmlns:inkscape="http://www.inkscape.org/namespaces/inkscape"
   xmlns:sodipodi="http://sodipodi.sourceforge.net/DTD/sodipodi-0.dtd"
   xmlns="http://www.w3.org/2000/svg"
   xmlns:svg="http://www.w3.org/2000/svg">
  <sodipodi:namedview
     id="namedview82"
     pagecolor="#ffffff"
     bordercolor="#000000"
     borderopacity="0.25"
     inkscape:showpageshadow="2"
     inkscape:pageopacity="0.0"
     inkscape:pagecheckerboard="0"
     inkscape:deskcolor="#d1d1d1"
     showgrid="false"
     inkscape:zoom="0.7484375"
     inkscape:cx="317.99582"
     inkscape:cy="534.44676"
     inkscape:window-width="1920"
     inkscape:window-height="1014"
     inkscape:window-x="0"
     inkscape:window-y="29"
     inkscape:window-maximized="1"
     inkscape:current-layer="svg80" />
  <defs
     id="defs4">
    <style
       id="style2">
      .cls-1, .cls-2 {
        fill: #fff;
      }

      .cls-1, .cls-3, .cls-4 {
        fill-rule: evenodd;
      }

      .cls-2, .cls-5 {
        stroke: #000;
      }

      .cls-2, .cls-5, .cls-6 {
        stroke-linecap: round;
        stroke-linejoin: round;
      }

      .cls-3 {
        fill: #bd2025;
      }

      .cls-5, .cls-6 {
        fill: none;
      }

      .cls-6 {
        stroke: #bd2025;
      }

      .cls-7 {
        fill: #ffca06;
      }
    </style>
  </defs>
  <!-- Generator: Adobe Illustrator 28.6.0, SVG Export Plug-In . SVG Version: 1.2.0 Build 709)  -->
  <g
     id="sp_x5F_Fondo_del_tablero"
     transform="translate(-642.58046,-4.9008088)">
    <g
       id="HATCH">
      <rect
         class="cls-7"
         x="739.23999"
         y="101.57"
         width="441.45999"
         height="441.45999"
         rx="18.65"
         ry="18.65"
         transform="rotate(-45,959.96996,322.29742)"
         id="rect12" />
    </g>
  </g>
  <g
     id="sp_x5F_Pictograma_blanco"
     transform="translate(-642.58046,-4.9008088)">
    <g
       id="HATCH-2"
       data-name="HATCH">
      <polygon
         class="cls-1"
         points="959.97,525.61 1059.73,352.82 860.21,352.82 "
         id="polygon16" />
    </g>
  </g>
  <g
     id="sp_x5F_Pictograma_y_filete"
     transform="translate(-642.58046,-4.9008088)">
    <g
       id="HATCH-3"
       data-name="HATCH">
      <path
         class="cls-4"
         d="m 973.16,621.26 285.78,-285.78 c 7.28,-7.28 7.28,-19.09 0,-26.38 L 973.16,23.33 c -7.28,-7.28 -19.09,-7.28 -26.38,0 L 661,309.11 c -7.28,7.28 -7.28,19.09 0,26.38 l 285.78,285.78 c 7.28,7.28 19.09,7.28 26.38,0 m 8.79,8.78 285.78,-285.78 c 12.14,-12.14 12.14,-31.82 0,-43.97 L 981.95,14.53 C 969.81,2.39 950.13,2.39 937.98,14.53 L 652.2,300.31 c -12.14,12.14 -12.14,31.82 0,43.97 l 285.78,285.78 c 12.14,12.14 31.82,12.14 43.97,0 z"
         id="path20" />
    </g>
    <g
       id="HATCH-4"
       data-name="HATCH">
      <polygon
         class="cls-4"
         points="959.97,68.86 848.46,180.37 887.88,219.79 937.67,162.12 932.09,291.88 987.85,291.88 982.27,162.12 1032.06,219.79 1071.48,180.37 "
         id="polygon23" />
    </g>
    <g
       id="LWPOLYLINE">
      <rect
         class="cls-5"
         x="726.81"
         y="89.129997"
         width="466.32999"
         height="466.32999"
         rx="31.09"
         ry="31.09"
         transform="rotate(-45,959.96996,322.29742)"
         id="rect26" />
    </g>
    <g
       id="LWPOLYLINE-2"
       data-name="LWPOLYLINE">
      <rect
         class="cls-5"
         x="739.23999"
         y="101.57"
         width="441.45999"
         height="441.45999"
         rx="18.65"
         ry="18.65"
         transform="rotate(-45,959.96996,322.29742)"
         id="rect29" />
    </g>
    <g
       id="LWPOLYLINE-3"
       data-name="LWPOLYLINE">
      <polygon
         class="cls-5"
         points="959.97,68.86 848.46,180.37 887.88,219.79 937.67,162.12 932.09,291.88 987.85,291.88 982.27,162.12 1032.06,219.79 1071.48,180.37 "
         id="polygon32" />
    </g>
  </g>
  <g
     id="sp_x5F_Pictograma_rojo"
     transform="translate(-642.58046,-4.9008088)">
    <g
       id="HATCH-5"
       data-name="HATCH">
      <path
         class="cls-3"
         d="m 860.21,352.82 99.76,172.79 99.76,-172.79 H 860.21 m -15.55,-30.53 c -11.9,0 -21.55,9.65 -21.55,21.55 0,3.78 1,7.5 2.89,10.77 l 115.31,199.72 c 5.95,10.31 19.13,13.84 29.43,7.89 3.28,-1.89 6,-4.61 7.89,-7.89 l 115.31,-199.72 c 5.95,-10.31 2.42,-23.48 -7.89,-29.43 -3.28,-1.89 -6.99,-2.89 -10.77,-2.89 z"
         id="path68" />
    </g>
    <g
       id="LWPOLYLINE-4"
       data-name="LWPOLYLINE">
      <path
         class="cls-6"
         d="m 844.66,322.29 c -11.9,0 -21.55,9.65 -21.55,21.55 0,3.78 1,7.5 2.89,10.77 l 115.31,199.72 c 5.95,10.31 19.13,13.84 29.43,7.89 3.28,-1.89 6,-4.61 7.89,-7.89 l 115.31,-199.72 c 5.95,-10.31 2.42,-23.48 -7.89,-29.43 -3.28,-1.89 -6.99,-2.89 -10.77,-2.89 z"
         id="path71" />
    </g>
    <g
       id="LWPOLYLINE-5"
       data-name="LWPOLYLINE">
      <polygon
         class="cls-6"
         points="959.97,525.61 1059.73,352.82 860.21,352.82 "
         id="polygon74" />
    </g>
  </g>
</svg>
