<?xml version="1.0" encoding="UTF-8" standalone="no"?>
<svg
   version="1.1"
   viewBox="0 0 634.78265 634.78265"
   id="svg78"
   sodipodi:docname="SP-31_30x30.svg"
   width="634.78265"
   height="634.78265"
   inkscape:version="1.2.2 (b0a8486541, 2022-12-01)"
   xmlns:inkscape="http://www.inkscape.org/namespaces/inkscape"
   xmlns:sodipodi="http://sodipodi.sourceforge.net/DTD/sodipodi-0.dtd"
   xmlns="http://www.w3.org/2000/svg"
   xmlns:svg="http://www.w3.org/2000/svg">
  <sodipodi:namedview
     id="namedview80"
     pagecolor="#ffffff"
     bordercolor="#000000"
     borderopacity="0.25"
     inkscape:showpageshadow="2"
     inkscape:pageopacity="0.0"
     inkscape:pagecheckerboard="0"
     inkscape:deskcolor="#d1d1d1"
     showgrid="false"
     inkscape:zoom="0.7484375"
     inkscape:cx="317.99582"
     inkscape:cy="534.44676"
     inkscape:window-width="1920"
     inkscape:window-height="1014"
     inkscape:window-x="0"
     inkscape:window-y="29"
     inkscape:window-maximized="1"
     inkscape:current-layer="svg78" />
  <defs
     id="defs4">
    <style
       id="style2">
      .cls-1, .cls-2 {
        fill: #fff;
      }

      .cls-1, .cls-3, .cls-4 {
        fill-rule: evenodd;
      }

      .cls-2, .cls-5 {
        stroke: #000;
      }

      .cls-2, .cls-5, .cls-6 {
        stroke-linecap: round;
        stroke-linejoin: round;
      }

      .cls-3 {
        fill: #bd2025;
      }

      .cls-5, .cls-6 {
        fill: none;
      }

      .cls-7 {
        fill: #ffca06;
      }

      .cls-6 {
        stroke: #fff;
      }
    </style>
  </defs>
  <!-- Generator: Adobe Illustrator 28.6.0, SVG Export Plug-In . SVG Version: 1.2.0 Build 709)  -->
  <g
     id="sp_x5F_Fondo_del_tablero"
     transform="translate(-642.58046,-4.9008088)">
    <g
       id="HATCH">
      <rect
         class="cls-7"
         x="739.23999"
         y="101.57"
         width="441.45999"
         height="441.45999"
         rx="18.65"
         ry="18.65"
         transform="rotate(-45,959.96996,322.29742)"
         id="rect12" />
    </g>
  </g>
  <g
     id="sp_x5F_Pictograma_blanco"
     transform="translate(-642.58046,-4.9008088)">
    <g
       id="HATCH-2"
       data-name="HATCH">
      <path
         class="cls-1"
         d="m 920.08,525.05 h 79.78 c 0,0 56.42,-56.42 56.42,-56.42 v -79.78 l -56.42,-56.42 h -79.78 l -56.42,56.42 v 79.78 c 0,0 56.42,56.42 56.42,56.42 m -4.2,10.13 h 88.18 l 62.35,-62.35 v -88.18 c 0,0 -62.35,-62.35 -62.35,-62.35 h -88.18 l -62.35,62.35 v 88.18 z"
         id="path16" />
    </g>
    <g
       id="LWPOLYLINE">
      <polygon
         class="cls-6"
         points="1004.06,322.29 915.88,322.29 853.53,384.65 853.53,472.83 915.88,535.18 1004.06,535.18 1066.41,472.83 1066.41,384.65 "
         id="polygon19" />
    </g>
    <g
       id="LWPOLYLINE-2"
       data-name="LWPOLYLINE">
      <polygon
         class="cls-6"
         points="999.86,332.43 920.08,332.43 863.66,388.85 863.66,468.63 920.08,525.05 999.86,525.05 1056.28,468.63 1056.28,388.85 "
         id="polygon22" />
    </g>
  </g>
  <g
     id="sp_x5F_Pictograma_y_filete"
     transform="translate(-642.58046,-4.9008088)">
    <g
       id="HATCH-3"
       data-name="HATCH">
      <path
         class="cls-4"
         d="m 973.16,621.26 285.78,-285.78 c 7.28,-7.28 7.28,-19.09 0,-26.38 L 973.16,23.33 c -7.28,-7.28 -19.09,-7.28 -26.38,0 L 661,309.11 c -7.28,7.28 -7.28,19.09 0,26.38 l 285.78,285.78 c 7.28,7.28 19.09,7.28 26.38,0 m 8.79,8.78 285.78,-285.78 c 12.14,-12.14 12.14,-31.82 0,-43.97 L 981.95,14.53 C 969.81,2.39 950.13,2.39 937.98,14.53 L 652.2,300.31 c -12.14,12.14 -12.14,31.82 0,43.97 l 285.78,285.78 c 12.14,12.14 31.82,12.14 43.97,0 z"
         id="path26" />
    </g>
    <g
       id="HATCH-4"
       data-name="HATCH">
      <polygon
         class="cls-4"
         points="959.97,68.86 848.46,180.37 887.88,219.79 937.67,162.12 932.09,291.88 987.85,291.88 982.27,162.12 1032.06,219.79 1071.48,180.37 "
         id="polygon29" />
    </g>
    <g
       id="LWPOLYLINE-3"
       data-name="LWPOLYLINE">
      <rect
         class="cls-5"
         x="739.23999"
         y="101.57"
         width="441.45999"
         height="441.45999"
         rx="18.65"
         ry="18.65"
         transform="rotate(-45,959.96996,322.29742)"
         id="rect32" />
    </g>
    <g
       id="LWPOLYLINE-4"
       data-name="LWPOLYLINE">
      <rect
         class="cls-5"
         x="726.81"
         y="89.129997"
         width="466.32999"
         height="466.32999"
         rx="31.09"
         ry="31.09"
         transform="rotate(-45,959.96996,322.29742)"
         id="rect35" />
    </g>
    <g
       id="LWPOLYLINE-5"
       data-name="LWPOLYLINE">
      <polygon
         class="cls-5"
         points="959.97,68.86 848.46,180.37 887.88,219.79 937.67,162.12 932.09,291.88 987.85,291.88 982.27,162.12 1032.06,219.79 1071.48,180.37 "
         id="polygon38" />
    </g>
  </g>
  <g
     id="sp_x5F_Pictograma_rojo"
     transform="translate(-642.58046,-4.9008088)">
    <g
       id="HATCH-5"
       data-name="HATCH">
      <polygon
         class="cls-3"
         points="999.86,332.43 920.08,332.43 863.66,388.85 863.66,468.63 920.08,525.05 999.86,525.05 1056.28,468.63 1056.28,388.85 "
         id="polygon72" />
    </g>
  </g>
</svg>
