<?xml version="1.0" encoding="UTF-8" standalone="no"?>
<svg
   version="1.1"
   viewBox="0 0 634.78265 634.78265"
   id="svg79"
   sodipodi:docname="SP-36_30x30.svg"
   width="634.78265"
   height="634.78265"
   inkscape:version="1.2.2 (b0a8486541, 2022-12-01)"
   xmlns:inkscape="http://www.inkscape.org/namespaces/inkscape"
   xmlns:sodipodi="http://sodipodi.sourceforge.net/DTD/sodipodi-0.dtd"
   xmlns="http://www.w3.org/2000/svg"
   xmlns:svg="http://www.w3.org/2000/svg">
  <sodipodi:namedview
     id="namedview81"
     pagecolor="#ffffff"
     bordercolor="#000000"
     borderopacity="0.25"
     inkscape:showpageshadow="2"
     inkscape:pageopacity="0.0"
     inkscape:pagecheckerboard="0"
     inkscape:deskcolor="#d1d1d1"
     showgrid="false"
     inkscape:zoom="0.7484375"
     inkscape:cx="317.99582"
     inkscape:cy="534.44676"
     inkscape:window-width="1920"
     inkscape:window-height="1014"
     inkscape:window-x="0"
     inkscape:window-y="29"
     inkscape:window-maximized="1"
     inkscape:current-layer="svg79" />
  <defs
     id="defs4">
    <style
       id="style2">
      .cls-1 {
        fill: #fff;
      }

      .cls-1, .cls-2 {
        stroke: #000;
        stroke-linecap: round;
        stroke-linejoin: round;
      }

      .cls-2 {
        fill: none;
      }

      .cls-3 {
        fill: #ffca06;
      }

      .cls-4 {
        fill-rule: evenodd;
      }
    </style>
  </defs>
  <!-- Generator: Adobe Illustrator 28.6.0, SVG Export Plug-In . SVG Version: 1.2.0 Build 709)  -->
  <g
     id="sp_x5F_Fondo_del_tablero"
     transform="translate(-642.58046,-4.9008088)">
    <g
       id="HATCH">
      <rect
         class="cls-3"
         x="739.23999"
         y="101.57"
         width="441.45999"
         height="441.45999"
         rx="18.65"
         ry="18.65"
         transform="rotate(-45,959.96996,322.29742)"
         id="rect12" />
    </g>
  </g>
  <g
     id="sp_x5F_Pictograma_y_filete"
     transform="translate(-642.58046,-4.9008088)">
    <g
       id="HATCH-2"
       data-name="HATCH">
      <path
         class="cls-4"
         d="m 973.16,621.26 285.78,-285.78 c 7.28,-7.28 7.28,-19.09 0,-26.38 L 973.16,23.33 c -7.28,-7.28 -19.09,-7.28 -26.38,0 L 661,309.11 c -7.28,7.28 -7.28,19.09 0,26.38 l 285.78,285.78 c 7.28,7.28 19.09,7.28 26.38,0 m 8.79,8.78 285.78,-285.78 c 12.14,-12.14 12.14,-31.82 0,-43.97 L 981.95,14.53 C 969.81,2.39 950.13,2.39 937.98,14.53 L 652.2,300.31 c -12.14,12.14 -12.14,31.82 0,43.97 l 285.78,285.78 c 12.14,12.14 31.82,12.14 43.97,0 z"
         id="path16" />
    </g>
    <g
       id="HATCH-3"
       data-name="HATCH">
      <path
         class="cls-4"
         d="m 918.53,390.87 h -14.31 c -3.95,0 -7.16,-3.2 -7.16,-7.16 0,-35.57 -28.83,-64.4 -64.4,-64.4 h -21.47 l -19.4,-40.89 c -1.14,-2.39 -1.82,-4.98 -2.01,-7.62 -0.87,-11.82 8,-22.12 19.82,-22.99 l 137.55,-10.18 23.56,-23.56 -12.65,-12.65 5.06,-5.06 10.12,10.12 38.81,-27.07 c 3,-2.09 6.57,-3.22 10.23,-3.22 9.88,0 17.89,8.01 17.89,17.89 v 60.83 h 7.16 c 0,-7.9 6.41,-14.31 14.31,-14.31 h 42.94 c 7.9,0 14.31,6.41 14.31,14.31 h 21.47 v 28.62 h -12.12 c -36.4,-30.24 -89.7,-28.33 -123.84,4.43 v -25.9 h -14.31 v 32.2 c 0,5.93 -4.81,10.73 -10.73,10.73 -5.92,0 -10.73,-4.81 -10.73,-10.73 v -46.51 c 0,-3.95 3.2,-7.16 7.16,-7.16 h 28.62 v -38.4 l -20.87,14.56 9.96,9.96 -5.06,5.06 -12.65,-12.65 -28.62,28.62 v 64.4 h 39.12 c -6.9,13.26 -10.5,27.99 -10.5,42.94 h -42.94 v 21.47 c 0,7.9 -6.41,14.31 -14.31,14.31 m 136.03,-237.02 -17.97,-3.17 c -0.27,-9.88 -8.49,-17.67 -18.36,-17.4 -7.17,0.19 -13.53,4.65 -16.16,11.32 l -17.97,-3.17 -1.24,7.05 17.97,3.17 c 0.27,9.88 8.49,17.67 18.36,17.4 7.17,-0.19 13.53,-4.65 16.16,-11.32 l 17.97,3.17 1.24,-7.05 m 57.17,201.25 c 0,-23.71 -19.22,-42.94 -42.94,-42.94 -23.72,0 -42.94,19.22 -42.94,42.94 0,23.72 19.22,42.94 42.94,42.94 23.72,0 42.94,-19.22 42.94,-42.94 m 35.78,0 c 0,-43.47 -35.24,-78.72 -78.72,-78.72 -43.48,0 -78.72,35.24 -78.72,78.72 0,43.48 35.24,78.72 78.72,78.72 43.48,0 78.72,-35.24 78.72,-78.72 m -286.24,28.63 c 0,-15.81 -12.82,-28.62 -28.62,-28.62 -15.8,0 -28.62,12.82 -28.62,28.62 0,15.8 12.82,28.62 28.62,28.62 15.8,0 28.62,-12.82 28.62,-28.62 m 21.47,0 c 0,-27.66 -22.43,-50.09 -50.09,-50.09 -27.66,0 -50.09,22.43 -50.09,50.09 0,27.66 22.43,50.09 50.09,50.09 27.66,0 50.09,-22.43 50.09,-50.09 z"
         id="path19" />
    </g>
    <g
       id="LWPOLYLINE">
      <rect
         class="cls-2"
         x="726.81"
         y="89.129997"
         width="466.32999"
         height="466.32999"
         rx="31.09"
         ry="31.09"
         transform="rotate(-45,959.96996,322.29742)"
         id="rect22" />
    </g>
    <g
       id="LWPOLYLINE-2"
       data-name="LWPOLYLINE">
      <rect
         class="cls-2"
         x="739.23999"
         y="101.57"
         width="441.45999"
         height="441.45999"
         rx="18.65"
         ry="18.65"
         transform="rotate(-45,959.96996,322.29742)"
         id="rect25" />
    </g>
    <g
       id="LWPOLYLINE-3"
       data-name="LWPOLYLINE">
      <path
         class="cls-2"
         d="m 918.53,390.87 h -14.31 c -3.95,0 -7.16,-3.2 -7.16,-7.16 0,-35.57 -28.83,-64.4 -64.4,-64.4 h -21.47 l -19.4,-40.89 c -1.14,-2.39 -1.82,-4.98 -2.01,-7.62 -0.87,-11.82 8,-22.12 19.82,-22.99 l 137.55,-10.18 23.56,-23.56 -12.65,-12.65 5.06,-5.06 10.12,10.12 38.81,-27.07 c 3,-2.09 6.57,-3.22 10.23,-3.22 9.88,0 17.89,8.01 17.89,17.89 v 60.83 h 7.16 c 0,-7.9 6.41,-14.31 14.31,-14.31 h 42.94 c 7.9,0 14.31,6.41 14.31,14.31 h 21.47 v 28.62 h -12.12 c -36.4,-30.24 -89.7,-28.33 -123.84,4.43 v -25.9 h -14.31 v 32.2 c 0,5.93 -4.81,10.73 -10.73,10.73 -5.92,0 -10.73,-4.81 -10.73,-10.73 v -46.51 c 0,-3.95 3.2,-7.16 7.16,-7.16 h 28.62 v -38.4 l -20.87,14.56 9.96,9.96 -5.06,5.06 -12.65,-12.65 -28.62,28.62 v 64.4 h 39.12 c -6.9,13.26 -10.5,27.99 -10.5,42.94 h -42.94 v 21.47 c 0,7.9 -6.41,14.31 -14.31,14.31 z"
         id="path28" />
    </g>
    <g
       id="LWPOLYLINE-4"
       data-name="LWPOLYLINE">
      <path
         class="cls-2"
         d="m 1054.57,153.84 -17.97,-3.17 c -0.27,-9.88 -8.49,-17.67 -18.36,-17.4 -7.17,0.19 -13.53,4.65 -16.16,11.32 l -17.97,-3.17 -1.24,7.05 17.97,3.17 c 0.27,9.88 8.49,17.67 18.36,17.4 7.17,-0.19 13.53,-4.65 16.16,-11.32 l 17.97,3.17 z"
         id="path31" />
    </g>
    <g
       id="CIRCLE">
      <circle
         class="cls-2"
         cx="832.65002"
         cy="383.72"
         r="50.09"
         id="circle34" />
    </g>
    <g
       id="CIRCLE-2"
       data-name="CIRCLE">
      <circle
         class="cls-2"
         cx="832.65002"
         cy="383.72"
         r="28.620001"
         id="circle37" />
    </g>
    <g
       id="CIRCLE-3"
       data-name="CIRCLE">
      <circle
         class="cls-2"
         cx="1068.8"
         cy="355.09"
         r="78.720001"
         id="circle40" />
    </g>
    <g
       id="CIRCLE-4"
       data-name="CIRCLE">
      <circle
         class="cls-2"
         cx="1068.8"
         cy="355.09"
         r="42.939999"
         id="circle43" />
    </g>
  </g>
</svg>
