<?xml version="1.0" encoding="UTF-8" standalone="no"?>
<svg
   version="1.1"
   viewBox="0 0 634.78265 634.78265"
   id="svg70"
   sodipodi:docname="SP-16_30x30.svg"
   width="634.78265"
   height="634.78265"
   inkscape:version="1.2.2 (b0a8486541, 2022-12-01)"
   xmlns:inkscape="http://www.inkscape.org/namespaces/inkscape"
   xmlns:sodipodi="http://sodipodi.sourceforge.net/DTD/sodipodi-0.dtd"
   xmlns="http://www.w3.org/2000/svg"
   xmlns:svg="http://www.w3.org/2000/svg">
  <sodipodi:namedview
     id="namedview72"
     pagecolor="#ffffff"
     bordercolor="#000000"
     borderopacity="0.25"
     inkscape:showpageshadow="2"
     inkscape:pageopacity="0.0"
     inkscape:pagecheckerboard="0"
     inkscape:deskcolor="#d1d1d1"
     showgrid="false"
     inkscape:zoom="0.7484375"
     inkscape:cx="317.99582"
     inkscape:cy="534.44676"
     inkscape:window-width="1920"
     inkscape:window-height="1014"
     inkscape:window-x="0"
     inkscape:window-y="29"
     inkscape:window-maximized="1"
     inkscape:current-layer="svg70" />
  <defs
     id="defs4">
    <style
       id="style2">
      .cls-1 {
        fill: #fff;
      }

      .cls-1, .cls-2 {
        stroke: #000;
        stroke-linecap: round;
        stroke-linejoin: round;
      }

      .cls-2 {
        fill: none;
      }

      .cls-3 {
        fill: #ffca06;
      }

      .cls-4 {
        fill-rule: evenodd;
      }
    </style>
  </defs>
  <!-- Generator: Adobe Illustrator 28.6.0, SVG Export Plug-In . SVG Version: 1.2.0 Build 709)  -->
  <g
     id="sp_x5F_Fondo_del_tablero"
     transform="translate(-642.58046,-4.9008088)">
    <g
       id="HATCH">
      <rect
         class="cls-3"
         x="739.23999"
         y="101.57"
         width="441.45999"
         height="441.45999"
         rx="18.65"
         ry="18.65"
         transform="rotate(-45,959.96996,322.29742)"
         id="rect12" />
    </g>
  </g>
  <g
     id="sp_x5F_Pictograma_y_filete"
     transform="translate(-642.58046,-4.9008088)">
    <g
       id="HATCH-2"
       data-name="HATCH">
      <path
         class="cls-4"
         d="m 973.16,621.26 285.78,-285.78 c 7.28,-7.28 7.28,-19.09 0,-26.38 L 973.16,23.33 c -7.28,-7.28 -19.09,-7.28 -26.38,0 L 661,309.11 c -7.28,7.28 -7.28,19.09 0,26.38 l 285.78,285.78 c 7.28,7.28 19.09,7.28 26.38,0 m 8.79,8.78 285.78,-285.78 c 12.14,-12.14 12.14,-31.82 0,-43.97 L 981.95,14.53 C 969.81,2.39 950.13,2.39 937.98,14.53 L 652.2,300.31 c -12.14,12.14 -12.14,31.82 0,43.97 l 285.78,285.78 c 12.14,12.14 31.82,12.14 43.97,0 z"
         id="path16" />
    </g>
    <g
       id="HATCH-3"
       data-name="HATCH">
      <path
         class="cls-4"
         d="m 1026.62,232.89 18.3,-24.29 C 992.53,169.45 920.17,171.18 869.7,212.78 l 0.21,-32.83 -30.34,2.03 5.75,85.83 85.83,-5.75 -2.03,-30.34 -41.67,5.88 c 39.59,-33.9 97.38,-35.85 139.17,-4.7 m -22.54,191.81 11.88,28 c 60.1,-25.8 94.78,-89.33 83.99,-153.83 l 28.33,16.6 13.41,-27.3 -77.2,-37.93 -37.93,77.2 27.3,13.41 15.74,-39.02 c 9.56,51.24 -17.65,102.26 -65.52,122.88 M 849.22,309.28 819.03,305.57 c -7.71,64.95 29.97,126.75 91.22,149.66 l -28.54,16.23 16.93,25.26 71.45,-47.89 -47.89,-71.45 -25.26,16.93 25.92,33.14 C 873.71,410.11 843.12,361.04 849.2,309.27 Z"
         id="path19" />
    </g>
    <g
       id="LWPOLYLINE">
      <rect
         class="cls-2"
         x="726.81"
         y="89.129997"
         width="466.32999"
         height="466.32999"
         rx="31.09"
         ry="31.09"
         transform="rotate(-45,959.96996,322.29742)"
         id="rect22" />
    </g>
    <g
       id="LWPOLYLINE-2"
       data-name="LWPOLYLINE">
      <rect
         class="cls-2"
         x="739.23999"
         y="101.57"
         width="441.45999"
         height="441.45999"
         rx="18.65"
         ry="18.65"
         transform="rotate(-45,959.96996,322.29742)"
         id="rect25" />
    </g>
    <g
       id="LWPOLYLINE-3"
       data-name="LWPOLYLINE">
      <path
         class="cls-2"
         d="m 849.22,309.28 -30.19,-3.71 c -7.71,64.95 29.97,126.75 91.22,149.66 l -28.54,16.23 16.93,25.26 71.45,-47.89 -47.89,-71.45 -25.26,16.93 25.92,33.14 C 873.71,410.11 843.12,361.04 849.2,309.27 Z"
         id="path28" />
    </g>
    <g
       id="LWPOLYLINE-4"
       data-name="LWPOLYLINE">
      <path
         class="cls-2"
         d="m 1004.08,424.71 11.88,28 c 60.1,-25.8 94.78,-89.33 83.99,-153.83 l 28.33,16.6 13.41,-27.3 -77.2,-37.93 -37.93,77.2 27.3,13.41 15.74,-39.02 c 9.56,51.24 -17.65,102.26 -65.52,122.88 z"
         id="path31" />
    </g>
    <g
       id="LWPOLYLINE-5"
       data-name="LWPOLYLINE">
      <path
         class="cls-2"
         d="m 1026.62,232.89 18.3,-24.29 C 992.53,169.45 920.17,171.18 869.7,212.78 l 0.21,-32.83 -30.34,2.03 5.75,85.83 85.83,-5.75 -2.03,-30.34 -41.67,5.88 c 39.59,-33.9 97.38,-35.85 139.17,-4.7 z"
         id="path34" />
    </g>
  </g>
</svg>
