<?xml version="1.0" encoding="UTF-8" standalone="no"?>
<svg
   version="1.1"
   viewBox="0 0 634.78265 634.78265"
   id="svg67"
   sodipodi:docname="SP-32_30x30.svg"
   width="634.78265"
   height="634.78265"
   inkscape:version="1.2.2 (b0a8486541, 2022-12-01)"
   xmlns:inkscape="http://www.inkscape.org/namespaces/inkscape"
   xmlns:sodipodi="http://sodipodi.sourceforge.net/DTD/sodipodi-0.dtd"
   xmlns="http://www.w3.org/2000/svg"
   xmlns:svg="http://www.w3.org/2000/svg">
  <sodipodi:namedview
     id="namedview69"
     pagecolor="#ffffff"
     bordercolor="#000000"
     borderopacity="0.25"
     inkscape:showpageshadow="2"
     inkscape:pageopacity="0.0"
     inkscape:pagecheckerboard="true"
     inkscape:deskcolor="#d1d1d1"
     showgrid="false"
     inkscape:zoom="0.7484375"
     inkscape:cx="317.99582"
     inkscape:cy="322.00418"
     inkscape:window-width="1920"
     inkscape:window-height="1014"
     inkscape:window-x="0"
     inkscape:window-y="29"
     inkscape:window-maximized="1"
     inkscape:current-layer="svg67" />
  <defs
     id="defs4">
    <style
       id="style2">
      .cls-1 {
        fill: #fff;
      }

      .cls-1, .cls-2 {
        stroke: #000;
        stroke-linecap: round;
        stroke-linejoin: round;
      }

      .cls-2 {
        fill: none;
      }

      .cls-3 {
        fill: #ffca06;
      }

      .cls-4 {
        fill-rule: evenodd;
      }
    </style>
  </defs>
  <!-- Generator: Adobe Illustrator 28.6.0, SVG Export Plug-In . SVG Version: 1.2.0 Build 709)  -->
  <g
     id="sp_x5F_Fondo_del_tablero"
     transform="translate(-642.58046,-4.9008088)">
    <g
       id="HATCH">
      <rect
         class="cls-3"
         x="739.23999"
         y="101.57"
         width="441.45999"
         height="441.45999"
         rx="18.65"
         ry="18.65"
         transform="rotate(-45,959.96996,322.29742)"
         id="rect12" />
    </g>
  </g>
  <g
     id="sp_x5F_Pictograma_y_filete"
     transform="translate(-642.58046,-4.9008088)">
    <g
       id="HATCH-2"
       data-name="HATCH">
      <path
         class="cls-4"
         d="m 973.16,621.26 285.78,-285.78 c 7.28,-7.28 7.28,-19.09 0,-26.38 L 973.16,23.33 c -7.28,-7.28 -19.09,-7.28 -26.38,0 L 661,309.11 c -7.28,7.28 -7.28,19.09 0,26.38 l 285.78,285.78 c 7.28,7.28 19.09,7.28 26.38,0 m 8.79,8.78 285.78,-285.78 c 12.14,-12.14 12.14,-31.82 0,-43.97 L 981.95,14.53 C 969.81,2.39 950.13,2.39 937.98,14.53 L 652.2,300.31 c -12.14,12.14 -12.14,31.82 0,43.97 l 285.78,285.78 c 12.14,12.14 31.82,12.14 43.97,0 z"
         id="path16" />
    </g>
    <g
       id="HATCH-3"
       data-name="HATCH">
      <path
         class="cls-4"
         d="m 1021.97,242.19 -31.8,-42.4 c -10.03,-13.38 -29.02,-16.09 -42.4,-6.06 -7.98,5.99 -12.5,15.52 -12.09,25.49 l 1.62,38.92 c 0.09,2.08 -0.69,4.11 -2.15,5.6 l -54.17,55.51 c -4.71,4.64 -4.76,12.22 -0.11,16.93 4.64,4.71 12.22,4.76 16.93,0.11 l 40.95,-43.1 c 0.07,-0.08 0.17,-0.13 0.28,-0.15 0.27,-0.04 0.52,0.14 0.56,0.41 l 3.63,22.94 -47.48,84.83 c -1.13,1.81 -1.73,3.89 -1.73,6.02 v 102.04 c 0,8.71 7.06,15.77 15.77,15.77 8.71,0 15.77,-7.06 15.77,-15.77 v -86.9 c 0,-2.17 0.62,-4.3 1.8,-6.13 l 34.8,-62.01 c 0.36,-1.37 1.43,-2.45 2.8,-2.8 2.09,-0.54 4.22,0.71 4.77,2.8 l 26.5,158.99 c 2.09,8.36 10.56,13.45 18.93,11.36 8.36,-2.09 13.45,-10.56 11.36,-18.93 l -22.71,-189.27 -7.41,-61.11 c -0.07,-0.71 0.25,-1.4 0.83,-1.81 0.9,-0.64 2.15,-0.43 2.79,0.47 l 5.98,7.63 c 0.33,0.39 0.54,0.86 0.63,1.36 l 12.32,68.62 c 2.11,6.26 8.9,9.63 15.17,7.52 6.24,-2.1 9.61,-8.84 7.55,-15.09 l -15.65,-72.9 c -0.69,-3.21 -2.07,-6.23 -4.04,-8.86 m -40.89,-92.39 c 0,-16.72 -13.56,-30.28 -30.28,-30.28 -16.72,0 -30.28,13.56 -30.28,30.28 0,16.72 13.56,30.28 30.28,30.28 16.72,0 30.28,-13.56 30.28,-30.28 z"
         id="path19" />
    </g>
    <g
       id="LWPOLYLINE">
      <rect
         class="cls-2"
         x="726.81"
         y="89.129997"
         width="466.32999"
         height="466.32999"
         rx="31.09"
         ry="31.09"
         transform="rotate(-45,959.96996,322.29742)"
         id="rect22" />
    </g>
    <g
       id="LWPOLYLINE-2"
       data-name="LWPOLYLINE">
      <rect
         class="cls-2"
         x="739.23999"
         y="101.57"
         width="441.45999"
         height="441.45999"
         rx="18.65"
         ry="18.65"
         transform="rotate(-45,959.96996,322.29742)"
         id="rect25" />
    </g>
    <g
       id="LWPOLYLINE-3"
       data-name="LWPOLYLINE">
      <path
         class="cls-2"
         d="m 1021.97,242.19 -31.8,-42.4 c -10.03,-13.38 -29.02,-16.09 -42.4,-6.06 -7.98,5.99 -12.5,15.52 -12.09,25.49 l 1.62,38.92 c 0.09,2.08 -0.69,4.11 -2.15,5.6 l -54.17,55.51 c -4.71,4.64 -4.76,12.22 -0.11,16.93 4.65,4.71 12.22,4.76 16.93,0.11 l 40.95,-43.1 c 0.07,-0.08 0.17,-0.13 0.28,-0.15 0.27,-0.04 0.52,0.14 0.56,0.41 l 3.63,22.94 -47.48,84.83 c -1.13,1.81 -1.73,3.89 -1.73,6.02 v 102.04 c 0,8.71 7.06,15.77 15.77,15.77 8.71,0 15.77,-7.06 15.77,-15.77 v -86.9 c 0,-2.17 0.62,-4.3 1.8,-6.13 l 34.8,-62.01 c 0.36,-1.37 1.43,-2.45 2.8,-2.8 2.09,-0.54 4.22,0.71 4.77,2.8 l 26.5,158.99 c 2.09,8.36 10.56,13.45 18.93,11.36 8.37,-2.09 13.45,-10.56 11.36,-18.93 l -22.71,-189.27 -7.41,-61.11 c -0.07,-0.71 0.25,-1.4 0.83,-1.81 0.9,-0.64 2.15,-0.43 2.79,0.47 l 5.98,7.63 c 0.33,0.39 0.54,0.86 0.63,1.36 l 12.32,68.62 c 2.11,6.26 8.9,9.63 15.17,7.52 6.27,-2.11 9.61,-8.84 7.55,-15.09 l -15.65,-72.9 c -0.69,-3.21 -2.07,-6.23 -4.04,-8.86 z"
         id="path28" />
    </g>
    <g
       id="CIRCLE">
      <circle
         class="cls-2"
         cx="950.79999"
         cy="149.83"
         r="30.280001"
         id="circle31" />
    </g>
  </g>
</svg>
