<?xml version="1.0" encoding="UTF-8" standalone="no"?>
<svg
   version="1.1"
   viewBox="0 0 634.78265 634.78265"
   id="svg97"
   sodipodi:docname="SP-30_30x30.svg"
   width="634.78265"
   height="634.78265"
   inkscape:version="1.2.2 (b0a8486541, 2022-12-01)"
   xmlns:inkscape="http://www.inkscape.org/namespaces/inkscape"
   xmlns:sodipodi="http://sodipodi.sourceforge.net/DTD/sodipodi-0.dtd"
   xmlns="http://www.w3.org/2000/svg"
   xmlns:svg="http://www.w3.org/2000/svg">
  <sodipodi:namedview
     id="namedview99"
     pagecolor="#ffffff"
     bordercolor="#000000"
     borderopacity="0.25"
     inkscape:showpageshadow="2"
     inkscape:pageopacity="0.0"
     inkscape:pagecheckerboard="0"
     inkscape:deskcolor="#d1d1d1"
     showgrid="false"
     inkscape:zoom="0.7484375"
     inkscape:cx="275.90814"
     inkscape:cy="181.7119"
     inkscape:window-width="1920"
     inkscape:window-height="1014"
     inkscape:window-x="0"
     inkscape:window-y="29"
     inkscape:window-maximized="1"
     inkscape:current-layer="svg97" />
  <defs
     id="defs4">
    <style
       id="style2">
      .cls-1 {
        fill: #fff;
      }

      .cls-1, .cls-2 {
        stroke: #000;
        stroke-linecap: round;
        stroke-linejoin: round;
      }

      .cls-2 {
        fill: none;
      }

      .cls-3 {
        fill: #ffca06;
      }

      .cls-4 {
        fill-rule: evenodd;
      }
    </style>
  </defs>
  <!-- Generator: Adobe Illustrator 28.6.0, SVG Export Plug-In . SVG Version: 1.2.0 Build 709)  -->
  <g
     id="HATCH"
     transform="translate(-642.58046,-4.9008088)">
    <rect
       class="cls-3"
       x="739.23999"
       y="101.57"
       width="441.45999"
       height="441.45999"
       rx="18.65"
       ry="18.65"
       transform="rotate(-45,959.96996,322.29742)"
       id="rect12" />
  </g>
  <g
     id="HATCH-2"
     data-name="HATCH"
     transform="translate(-642.58046,-4.9008088)">
    <path
       class="cls-4"
       d="m 973.16,621.26 285.78,-285.78 c 7.28,-7.28 7.28,-19.09 0,-26.38 L 973.16,23.33 c -7.28,-7.28 -19.09,-7.28 -26.38,0 L 661,309.11 c -7.28,7.28 -7.28,19.09 0,26.38 l 285.78,285.78 c 7.28,7.28 19.09,7.28 26.38,0 m 8.79,8.78 285.78,-285.78 c 12.14,-12.14 12.14,-31.82 0,-43.97 L 981.95,14.53 C 969.81,2.39 950.13,2.39 937.98,14.53 L 652.2,300.31 c -12.14,12.14 -12.14,31.82 0,43.97 l 285.78,285.78 c 12.14,12.14 31.82,12.14 43.97,0 z"
       id="path16" />
  </g>
  <g
     id="HATCH-3"
     data-name="HATCH"
     transform="translate(-642.58046,-4.9008088)" />
  <g
     id="LWPOLYLINE"
     transform="translate(-642.58046,-4.9008088)">
    <rect
       class="cls-2"
       x="739.23999"
       y="101.57"
       width="441.45999"
       height="441.45999"
       rx="18.65"
       ry="18.65"
       transform="rotate(-45,959.96996,322.29742)"
       id="rect22" />
  </g>
  <g
     id="LWPOLYLINE-2"
     data-name="LWPOLYLINE"
     transform="translate(-642.58046,-4.9008088)">
    <rect
       class="cls-2"
       x="726.81"
       y="89.129997"
       width="466.32999"
       height="466.32999"
       rx="31.09"
       ry="31.09"
       transform="rotate(-45,959.96996,322.29742)"
       id="rect25" />
  </g>
  <g
     id="LWPOLYLINE-4"
     data-name="LWPOLYLINE"
     transform="translate(-642.58046,-4.9008088)"
     style="fill:#000000">
    <polygon
       class="cls-2"
       points="1030.93,210.78 1041.07,220.92 1041.07,231.06 1030.93,246.26 1020.8,251.33 1020.8,261.47 1030.93,271.61 1030.93,281.74 1041.07,286.81 1041.07,296.95 1046.14,302.02 1046.14,322.29 1041.07,327.36 1041.07,337.5 1030.93,347.64 1020.8,362.84 1020.8,372.98 1030.93,383.12 1030.93,413.53 797.77,413.53 797.77,423.67 1123.32,423.67 1224.69,322.29 1041.07,138.67 1030.93,180.37 1020.8,195.58 "
       id="polygon31"
       style="fill:#000000" />
  </g>
  <g
     id="LWPOLYLINE-5"
     data-name="LWPOLYLINE"
     transform="translate(-642.58046,-4.9008088)"
     style="fill:#000000">
    <path
       class="cls-2"
       d="m 1015.46,298.35 -10.14,-20.28 c -0.63,-1.25 -2.15,-1.76 -3.4,-1.13 -0.49,0.25 -0.89,0.64 -1.13,1.13 l -5.07,10.14 c -0.49,0.98 -0.3,2.15 0.47,2.93 l 5.07,5.07 c 0.19,0.19 0.42,0.35 0.66,0.47 l 10.14,5.07 c 1.25,0.63 2.77,0.12 3.4,-1.13 0.36,-0.71 0.36,-1.55 0,-2.27 z"
       id="path34"
       style="fill:#000000" />
  </g>
  <g
     id="LWPOLYLINE-6"
     data-name="LWPOLYLINE"
     transform="translate(-642.58046,-4.9008088)"
     style="fill:#000000">
    <path
       class="cls-2"
       d="m 985.31,271.61 h -17.74 c -0.39,0 -0.78,-0.09 -1.13,-0.27 l -10.14,-5.07 c -1.25,-0.63 -1.76,-2.15 -1.13,-3.4 l 5.07,-10.14 c 0.33,-0.66 0.93,-1.15 1.65,-1.33 l 20.28,-5.07 c 0.47,-0.12 0.96,-0.1 1.42,0.05 l 15.21,5.07 c 0.13,0.04 0.27,0.1 0.39,0.17 1.24,0.66 1.7,2.19 1.04,3.43 l -5.96,11.18 c -1.76,3.3 -5.2,5.37 -8.94,5.37 z"
       id="path37"
       style="fill:#000000" />
  </g>
  <g
     id="LWPOLYLINE-7"
     data-name="LWPOLYLINE"
     transform="translate(-642.58046,-4.9008088)"
     style="fill:#000000">
    <path
       class="cls-2"
       d="m 990.12,298.35 -5.07,-10.14 c -0.63,-1.25 -2.15,-1.76 -3.4,-1.13 l -10.14,5.07 c -0.24,0.12 -0.47,0.28 -0.66,0.47 l -5.07,5.07 c -0.99,0.99 -0.99,2.59 0,3.58 0.23,0.23 0.51,0.42 0.82,0.55 l 11.7,4.87 c 1.66,0.69 3.55,0.45 4.99,-0.62 l 6.08,-4.56 c 0.98,-0.73 1.29,-2.07 0.75,-3.16 z"
       id="path40"
       style="fill:#000000" />
  </g>
  <g
     id="LWPOLYLINE-8"
     data-name="LWPOLYLINE"
     transform="translate(-642.58046,-4.9008088)"
     style="fill:#000000">
    <path
       class="cls-2"
       d="m 943.16,413.53 h 7.79 c 2.87,0 5.19,-2.32 5.19,-5.19 v -15.58 h 5.19 c 2.87,0 5.19,-2.32 5.19,-5.19 v -31.15 c 0,-5.74 -4.65,-10.38 -10.38,-10.38 l -5.42,-28.4 c -1.17,-6.12 -6.52,-10.55 -12.75,-10.55 h -67.5 c -6.23,0 -11.58,4.43 -12.75,10.55 l -5.42,28.4 c -5.74,0 -10.38,4.65 -10.38,10.38 v 31.15 c 0,2.87 2.32,5.19 5.19,5.19 h 5.19 v 15.58 c 0,2.87 2.32,5.19 5.19,5.19 h 7.79 c 2.87,0 5.19,-2.32 5.19,-5.19 v -15.58 h 67.5 c 0,0 0,15.58 0,15.58 0,2.87 2.32,5.19 5.19,5.19 z"
       id="path43"
       style="fill:#000000" />
  </g>
  <g
     id="LWPOLYLINE-9"
     data-name="LWPOLYLINE"
     transform="translate(-642.58046,-4.9008088)"
     style="fill:#000000">
    <path
       class="cls-2"
       d="m 986.33,226.49 8.11,-6.08 c 0.64,-0.48 1.01,-1.23 1.01,-2.03 v -5.07 c 0,-0.39 0.09,-0.78 0.27,-1.13 0.63,-1.25 2.15,-1.76 3.4,-1.13 l 10.14,5.07 c 0.86,0.43 1.4,1.31 1.4,2.27 v 10.14 c 0,0.96 -0.54,1.84 -1.4,2.27 l -10.14,5.07 c -0.71,0.36 -1.55,0.36 -2.27,0 l -10.14,-5.07 c -0.35,-0.18 -0.66,-0.43 -0.89,-0.75 -0.84,-1.12 -0.61,-2.71 0.51,-3.55 z"
       id="path46"
       style="fill:#000000" />
  </g>
  <g
     id="LWPOLYLINE-10"
     data-name="LWPOLYLINE"
     transform="translate(-642.58046,-4.9008088)"
     style="fill:#ffca06;fill-opacity:1">
    <path
       class="cls-2"
       d="m 958.73,359.01 v 5.19 h -23.37 v -10.38 h 18.17 c 2.87,0 5.19,2.32 5.19,5.19 z"
       id="path49"
       style="fill:#ffca06;fill-opacity:1" />
  </g>
  <g
     id="LWPOLYLINE-11"
     data-name="LWPOLYLINE"
     transform="translate(-642.58046,-4.9008088)"
     style="fill:#000000">
    <path
       class="cls-2"
       d="m 1005.59,312.16 h -12.67 c -0.67,0 -1.32,0.27 -1.79,0.74 l -5.07,5.07 c -0.21,0.21 -0.38,0.46 -0.51,0.73 l -4.37,9.49 c -1.84,3.99 -0.89,8.72 2.34,11.7 l 7.69,7.08 c 0.77,0.71 1.91,0.87 2.85,0.4 l 10.14,-5.07 c 0.24,-0.12 0.47,-0.28 0.66,-0.47 L 1015,331.69 c 0.48,-0.48 0.74,-1.12 0.74,-1.79 v -7.6 c 0,-5.6 -4.54,-10.14 -10.14,-10.14 z"
       id="path52"
       style="fill:#000000" />
  </g>
  <g
     id="LWPOLYLINE-12"
     data-name="LWPOLYLINE"
     transform="translate(-642.58046,-4.9008088)"
     style="fill:#ffca06;fill-opacity:1">
    <path
       class="cls-2"
       d="m 865.3,319.56 -2.62,26.47 h 83.08 l -2.62,-26.47 c -0.26,-2.66 -2.5,-4.68 -5.17,-4.68 h -67.5 c -2.67,0 -4.9,2.02 -5.17,4.68 z"
       id="path55"
       style="fill:#ffca06;fill-opacity:1" />
  </g>
  <g
     id="LWPOLYLINE-13"
     data-name="LWPOLYLINE"
     transform="translate(-642.58046,-4.9008088)"
     style="fill:#ffca06;fill-opacity:1">
    <polyline
       class="cls-2"
       points="888.64 356.42 919.79 356.42 919.79 369.4 888.64 369.4 888.64 356.42"
       id="polyline58"
       style="fill:#ffca06;fill-opacity:1" />
  </g>
  <g
     id="LWPOLYLINE-14"
     data-name="LWPOLYLINE"
     transform="translate(-642.58046,-4.9008088)"
     style="fill:#ffca06;fill-opacity:1">
    <path
       class="cls-2"
       d="m 849.69,359.01 v 5.19 c 0,0 23.37,0 23.37,0 v -10.38 h -18.17 c -2.87,0 -5.19,2.32 -5.19,5.19 z"
       id="path61"
       style="fill:#ffca06;fill-opacity:1" />
  </g>
  <g
     id="LWPOLYLINE-3"
     data-name="LWPOLYLINE"
     transform="translate(-642.58046,-4.9008088)"
     style="fill:#ffca06;fill-opacity:1">
    <rect
       class="cls-2"
       x="847.09998"
       y="382.38"
       width="114.23"
       height="5.1900001"
       id="rect28"
       style="fill:#ffca06;fill-opacity:1" />
  </g>
</svg>
