<?xml version="1.0" encoding="UTF-8" standalone="no"?>
<svg
   version="1.1"
   viewBox="0 0 634.78265 634.78265"
   id="svg100"
   sodipodi:docname="SP-35_30x30.svg"
   width="634.78265"
   height="634.78265"
   inkscape:version="1.2.2 (b0a8486541, 2022-12-01)"
   xmlns:inkscape="http://www.inkscape.org/namespaces/inkscape"
   xmlns:sodipodi="http://sodipodi.sourceforge.net/DTD/sodipodi-0.dtd"
   xmlns="http://www.w3.org/2000/svg"
   xmlns:svg="http://www.w3.org/2000/svg">
  <sodipodi:namedview
     id="namedview102"
     pagecolor="#ffffff"
     bordercolor="#000000"
     borderopacity="0.25"
     inkscape:showpageshadow="2"
     inkscape:pageopacity="0.0"
     inkscape:pagecheckerboard="0"
     inkscape:deskcolor="#d1d1d1"
     showgrid="false"
     inkscape:zoom="0.7484375"
     inkscape:cx="317.99582"
     inkscape:cy="534.44676"
     inkscape:window-width="1920"
     inkscape:window-height="1014"
     inkscape:window-x="0"
     inkscape:window-y="29"
     inkscape:window-maximized="1"
     inkscape:current-layer="svg100" />
  <defs
     id="defs4">
    <style
       id="style2">
      .cls-1 {
        fill: #fff;
      }

      .cls-1, .cls-2 {
        stroke: #000;
        stroke-linecap: round;
        stroke-linejoin: round;
      }

      .cls-2 {
        fill: none;
      }

      .cls-3 {
        fill: #ffca06;
      }

      .cls-4 {
        fill-rule: evenodd;
      }
    </style>
  </defs>
  <!-- Generator: Adobe Illustrator 28.6.0, SVG Export Plug-In . SVG Version: 1.2.0 Build 709)  -->
  <g
     id="sp_x5F_Fondo_del_tablero"
     transform="translate(-642.58046,-4.9008088)">
    <g
       id="HATCH">
      <rect
         class="cls-3"
         x="739.23999"
         y="101.57"
         width="441.45999"
         height="441.45999"
         rx="18.65"
         ry="18.65"
         transform="rotate(-45,959.96996,322.29742)"
         id="rect12" />
    </g>
  </g>
  <g
     id="sp_x5F_Pictograma_y_filete"
     transform="translate(-642.58046,-4.9008088)">
    <g
       id="HATCH-2"
       data-name="HATCH">
      <path
         class="cls-4"
         d="m 973.16,621.26 285.78,-285.78 c 7.28,-7.28 7.28,-19.09 0,-26.38 L 973.16,23.33 c -7.28,-7.28 -19.09,-7.28 -26.38,0 L 661,309.11 c -7.28,7.28 -7.28,19.09 0,26.38 l 285.78,285.78 c 7.28,7.28 19.09,7.28 26.38,0 m 8.79,8.78 285.78,-285.78 c 12.14,-12.14 12.14,-31.82 0,-43.97 L 981.95,14.53 C 969.81,2.39 950.13,2.39 937.98,14.53 L 652.2,300.31 c -12.14,12.14 -12.14,31.82 0,43.97 l 285.78,285.78 c 12.14,12.14 31.82,12.14 43.97,0 z"
         id="path16" />
    </g>
    <g
       id="HATCH-3"
       data-name="HATCH">
      <path
         class="cls-4"
         d="m 1132.31,296.95 v 50.69 h 20.28 v -50.69 h -20.28 m -40.55,0 v 50.69 h 20.28 v -50.69 h -20.28 m -40.55,0 v 50.69 h 20.28 v -50.69 h -20.28 m -40.55,0 v 50.69 h 20.28 v -50.69 h -20.28 m -40.55,0 v 50.69 h 20.28 v -50.69 h -20.28 m -40.55,0 v 50.69 h 20.28 v -50.69 h -20.28 m -40.55,0 v 50.69 h 20.28 v -50.69 h -20.28 m -40.55,0 v 50.69 h 20.28 v -50.69 h -20.28 m -40.55,0 v 50.69 h 20.28 v -50.69 h -20.28 m -40.55,0 v 50.69 h 20.28 v -50.69 h -20.28 m 121.65,55.76 v 5.07 h -20.28 v -5.07 h -20.28 v 5.07 h -20.28 v -5.07 h -20.28 v 5.07 h -20.28 v -5.07 h -20.28 v 5.07 h -20.28 v -5.07 h -10.14 v -5.07 h 10.14 v -50.69 h -10.14 v -5.07 h 10.14 v -5.07 h 20.28 v 5.07 h 20.28 v -5.07 h 20.28 v 5.07 h 20.28 v -5.07 h 20.28 v 5.07 h 20.28 v -5.07 h 20.28 v 5.07 h 20.28 v -5.07 h 20.28 v 5.07 h 20.28 v -5.07 h 20.28 v 5.07 h 20.28 v -5.07 h 20.28 v 5.07 h 20.28 v -5.07 h 20.28 v 5.07 h 20.28 v -5.07 h 20.28 v 5.07 h 20.28 v -5.07 h 20.28 v 5.07 h 20.28 v -5.07 h 20.28 v 5.07 h 10.14 v 5.07 h -10.14 v 50.69 h 10.14 v 5.07 h -10.14 v 5.07 h -20.28 v -5.07 h -20.28 v 5.07 h -20.28 v -5.07 h -20.28 v 5.07 h -20.28 v -5.07 h -20.28 v 5.07 h -20.28 v -5.07 h -20.28 v 5.07 h -20.28 v -5.07 h -20.28 v 5.07 h -20.28 v -5.07 h -20.28 v 5.07 h -20.28 v -5.07 h -20.28 m 30.41,20.27 h 81.1 v 172.34 h -81.1 V 372.98 m 0,-273.71 h 81.1 v 172.34 h -81.1 z"
         id="path19" />
    </g>
    <g
       id="LWPOLYLINE">
      <rect
         class="cls-2"
         x="739.23999"
         y="101.57"
         width="441.45999"
         height="441.45999"
         rx="18.65"
         ry="18.65"
         transform="rotate(-45,959.96996,322.29742)"
         id="rect22" />
    </g>
    <g
       id="LWPOLYLINE-2"
       data-name="LWPOLYLINE">
      <rect
         class="cls-2"
         x="726.81"
         y="89.129997"
         width="466.32999"
         height="466.32999"
         rx="31.09"
         ry="31.09"
         transform="rotate(-45,959.96996,322.29742)"
         id="rect25" />
    </g>
    <g
       id="LWPOLYLINE-3"
       data-name="LWPOLYLINE">
      <rect
         class="cls-2"
         x="919.41998"
         y="372.98001"
         width="81.099998"
         height="172.34"
         id="rect28" />
    </g>
    <g
       id="LWPOLYLINE-4"
       data-name="LWPOLYLINE">
      <rect
         class="cls-2"
         x="1051.21"
         y="296.95001"
         width="20.280001"
         height="50.689999"
         id="rect31" />
    </g>
    <g
       id="LWPOLYLINE-5"
       data-name="LWPOLYLINE">
      <rect
         class="cls-2"
         x="767.35999"
         y="296.95001"
         width="20.280001"
         height="50.689999"
         id="rect34" />
    </g>
    <g
       id="LWPOLYLINE-6"
       data-name="LWPOLYLINE">
      <rect
         class="cls-2"
         x="1132.3101"
         y="296.95001"
         width="20.280001"
         height="50.689999"
         id="rect37" />
    </g>
    <g
       id="LWPOLYLINE-7"
       data-name="LWPOLYLINE">
      <rect
         class="cls-2"
         x="970.10999"
         y="296.95001"
         width="20.280001"
         height="50.689999"
         id="rect40" />
    </g>
    <g
       id="LWPOLYLINE-8"
       data-name="LWPOLYLINE">
      <rect
         class="cls-2"
         x="929.56"
         y="296.95001"
         width="20.280001"
         height="50.689999"
         id="rect43" />
    </g>
    <g
       id="LWPOLYLINE-9"
       data-name="LWPOLYLINE">
      <rect
         class="cls-2"
         x="848.46002"
         y="296.95001"
         width="20.280001"
         height="50.689999"
         id="rect46" />
    </g>
    <g
       id="LWPOLYLINE-10"
       data-name="LWPOLYLINE">
      <rect
         class="cls-2"
         x="807.90997"
         y="296.95001"
         width="20.280001"
         height="50.689999"
         id="rect49" />
    </g>
    <g
       id="LWPOLYLINE-11"
       data-name="LWPOLYLINE">
      <polygon
         class="cls-2"
         points="848.46,352.71 848.46,357.78 828.18,357.78 828.18,352.71 807.91,352.71 807.91,357.78 787.63,357.78 787.63,352.71 767.36,352.71 767.36,357.78 747.08,357.78 747.08,352.71 736.94,352.71 736.94,347.64 747.08,347.64 747.08,296.95 736.94,296.95 736.94,291.88 747.08,291.88 747.08,286.81 767.36,286.81 767.36,291.88 787.63,291.88 787.63,286.81 807.91,286.81 807.91,291.88 828.18,291.88 828.18,286.81 848.46,286.81 848.46,291.88 868.73,291.88 868.73,286.81 889.01,286.81 889.01,291.88 909.28,291.88 909.28,286.81 929.56,286.81 929.56,291.88 949.83,291.88 949.83,286.81 970.11,286.81 970.11,291.88 990.38,291.88 990.38,286.81 1010.66,286.81 1010.66,291.88 1030.93,291.88 1030.93,286.81 1051.21,286.81 1051.21,291.88 1071.48,291.88 1071.48,286.81 1091.76,286.81 1091.76,291.88 1112.03,291.88 1112.03,286.81 1132.31,286.81 1132.31,291.88 1152.58,291.88 1152.58,286.81 1172.86,286.81 1172.86,291.88 1183,291.88 1183,296.95 1172.86,296.95 1172.86,347.64 1183,347.64 1183,352.71 1172.86,352.71 1172.86,357.78 1152.58,357.78 1152.58,352.71 1132.31,352.71 1132.31,357.78 1112.03,357.78 1112.03,352.71 1091.76,352.71 1091.76,357.78 1071.48,357.78 1071.48,352.71 1051.21,352.71 1051.21,357.78 1030.93,357.78 1030.93,352.71 1010.66,352.71 1010.66,357.78 990.38,357.78 990.38,352.71 970.11,352.71 970.11,357.78 949.83,357.78 949.83,352.71 929.56,352.71 929.56,357.78 909.28,357.78 909.28,352.71 889.01,352.71 889.01,357.78 868.73,357.78 868.73,352.71 "
         id="polygon52" />
    </g>
    <g
       id="LWPOLYLINE-12"
       data-name="LWPOLYLINE">
      <rect
         class="cls-2"
         x="1010.66"
         y="296.95001"
         width="20.280001"
         height="50.689999"
         id="rect55" />
    </g>
    <g
       id="LWPOLYLINE-13"
       data-name="LWPOLYLINE">
      <rect
         class="cls-2"
         x="1091.76"
         y="296.95001"
         width="20.280001"
         height="50.689999"
         id="rect58" />
    </g>
    <g
       id="LWPOLYLINE-14"
       data-name="LWPOLYLINE">
      <rect
         class="cls-2"
         x="889.01001"
         y="296.95001"
         width="20.280001"
         height="50.689999"
         id="rect61" />
    </g>
    <g
       id="LWPOLYLINE-15"
       data-name="LWPOLYLINE">
      <rect
         class="cls-2"
         x="919.41998"
         y="99.269997"
         width="81.099998"
         height="172.34"
         id="rect64" />
    </g>
  </g>
</svg>
