<?xml version="1.0" encoding="UTF-8" standalone="no"?>
<!-- Created with Inkscape (http://www.inkscape.org/) -->

<svg
   width="971.02734mm"
   height="971.02734mm"
   viewBox="0 0 971.02734 971.02734"
   version="1.1"
   id="svg63596"
   inkscape:version="1.2.1 (9c6d41e410, 2022-07-14)"
   sodipodi:docname="Mexico road sign SP-39 (2023).svg"
   xmlns:inkscape="http://www.inkscape.org/namespaces/inkscape"
   xmlns:sodipodi="http://sodipodi.sourceforge.net/DTD/sodipodi-0.dtd"
   xmlns="http://www.w3.org/2000/svg"
   xmlns:svg="http://www.w3.org/2000/svg">
  <sodipodi:namedview
     id="namedview63598"
     pagecolor="#ffffff"
     bordercolor="#000000"
     borderopacity="0.25"
     inkscape:showpageshadow="2"
     inkscape:pageopacity="0.0"
     inkscape:pagecheckerboard="0"
     inkscape:deskcolor="#d1d1d1"
     inkscape:document-units="mm"
     showgrid="false"
     inkscape:zoom="0.13480463"
     inkscape:cx="1976.9351"
     inkscape:cy="1672.7912"
     inkscape:window-width="1920"
     inkscape:window-height="991"
     inkscape:window-x="-9"
     inkscape:window-y="-9"
     inkscape:window-maximized="1"
     inkscape:current-layer="layer1" />
  <defs
     id="defs63593" />
  <g
     inkscape:label="Livello 1"
     inkscape:groupmode="layer"
     id="layer1"
     transform="translate(413.69241,384.54755)">
    <g
       id="g8324"
       transform="translate(-1969.8632,-9890.8452)">
      <g
         id="g11919-9"
         transform="translate(-738.33668,6350.8036)">
        <rect
           style="fill:#000000;stroke-width:3.68415;stroke-opacity:0.578462;paint-order:fill markers stroke"
           id="rect20798-0-7-6"
           width="710"
           height="710"
           x="-963.80945"
           y="4185.353"
           ry="40"
           rx="40"
           transform="rotate(-45)" />
        <rect
           style="fill:#ffcc00;stroke-width:3.47659;stroke-opacity:0.578462;paint-order:fill markers stroke"
           id="rect20798-4-7-0-5"
           width="670"
           height="670"
           x="-943.80969"
           y="4205.3525"
           ry="20"
           rx="20"
           transform="rotate(-45)" />
      </g>
      <path
         id="path7791-1"
         style="color:#000000;fill:#000000;stroke-width:23.0824;stroke-linecap:round;stroke-linejoin:bevel;paint-order:fill markers stroke"
         d="m 2000.6654,9772.9409 -25.6468,0.011 c -12.7669,0 -23.9226,3.1323 -32.3731,9.5076 -8.4504,6.3754 -13.5332,15.059 -17.3071,23.8926 l -0.3232,0.8079 -22.1729,62.8486 c -1.0875,1.7397 -1.7736,3.7001 -2.0082,5.7383 l -13.4777,38.1829 c -8.6494,-2.0238 -17.5025,-3.0484 -26.3855,-3.0538 -64.1345,-0 -116.1285,51.9855 -116.132,116.12 -0,64.139 51.9928,116.135 116.132,116.132 64.1347,-0 116.1235,-51.997 116.1204,-116.132 -0.028,-43.7917 -24.6888,-83.8435 -63.7788,-103.584 l 7.0609,-20.0147 120.1044,125.3997 c 8.2081,9.004 12.8165,12.766 20.6622,14.947 7.848,2.193 16.7497,2.415 19.5842,2.231 h 31.1312 c 9.2998,56.015 57.7419,97.09 114.5232,97.107 64.1347,-0 116.1235,-51.997 116.1204,-116.132 -0,-64.1301 -51.9903,-116.1169 -116.1204,-116.1202 -12.3767,0.019 -24.6709,2.0159 -36.4171,5.916 l -32.8854,-53.498 v -0.2308 c -2.1928,-3.4485 -3.9425,-6.3384 -5.6437,-8.8383 l 11.6197,-30.6556 h 26.8009 c 7.617,-0.01 13.7882,-6.184 13.7894,-13.801 0.019,-7.6314 -6.1579,-13.8303 -13.7894,-13.8379 h -93.1465 c -7.6306,0.01 -13.8063,6.2074 -13.7871,13.8379 0,7.6161 6.171,13.7921 13.7871,13.801 h 36.7979 l -6.4516,17.044 h -3.0191 -181.5821 l 8.4113,-23.8441 c 2.756,-6.3661 5.4382,-10.1909 8.4204,-12.4414 3.0353,-2.2852 7.1094,-3.9725 15.7329,-3.9725 h 25.6584 c 7.6305,0.018 13.828,-6.1588 13.8356,-13.7894 -0,-7.6351 -6.2006,-13.8188 -13.8356,-13.8009 z m -67.9545,95.4363 h 183.8233 l -54.262,143.2328 c -0.4617,-0.484 -0.9233,-0.923 -1.408,-1.477 l -0.2309,-0.231 -129.9675,-135.6826 z m 206.3909,18.3459 25.753,41.8806 c -31.3708,19.5884 -51.5349,52.9483 -54.2966,89.8293 h -21.3627 z m -278.1286,51.7691 c 5.7448,0.021 11.4739,0.6004 17.1063,1.7312 l -29.1645,82.6626 c -2.5492,7.197 1.229,15.097 8.432,17.63 7.198,2.549 15.0981,-1.23 17.6303,-8.434 l 29.0445,-82.351 c 28.0476,15.6111 45.4464,45.1826 45.47,77.282 -10e-4,48.887 -39.6315,88.518 -88.5186,88.519 -48.8871,-10e-4 -88.5175,-39.632 -88.5185,-88.519 0,-48.8869 39.6316,-88.5172 88.5185,-88.5185 z m 365.4077,0.011 c 48.887,0 88.5174,39.6318 88.5185,88.5188 -0,48.887 -39.6318,88.517 -88.5185,88.518 -41.5117,-0.04 -77.4204,-28.919 -86.3604,-69.457 l 97.6915,0.231 c 3.5039,0 7.5387,1.085 13.7525,-4.376 3.1092,-2.729 5.1704,-7.814 5.2258,-11.357 0,-3.545 -0.8309,-5.713 -1.5234,-7.395 -2.8345,-6.731 -5.8999,-9.73 -9.6484,-15.911 l -40.5811,-66.0227 c 7.0129,-1.7676 14.2159,-2.6691 21.4481,-2.6844 z m -47.0557,13.6348 40.8996,66.51 -81.9216,-0.231 c 2.665,-27.276 17.8135,-51.7795 41.022,-66.3552 z"
         inkscape:transform-center-x="-476.96215"
         inkscape:transform-center-y="-1085.9045"
         sodipodi:nodetypes="ccscccccccccccccccccccccccccccccccccccscccccccccccccccccccccccccccccccccccccccccccc" />
    </g>
  </g>
</svg>
