<?xml version="1.0" encoding="UTF-8" standalone="no"?>
<svg
   version="1.1"
   viewBox="0 0 634.78271 634.78271"
   id="svg20"
   sodipodi:docname="SP-38A_30x30.svg"
   inkscape:version="1.5-dev (b025170, 2024-11-19, custom)"
   width="634.78271"
   height="634.78271"
   xmlns:inkscape="http://www.inkscape.org/namespaces/inkscape"
   xmlns:sodipodi="http://sodipodi.sourceforge.net/DTD/sodipodi-0.dtd"
   xmlns="http://www.w3.org/2000/svg"
   xmlns:svg="http://www.w3.org/2000/svg">
  <sodipodi:namedview
     id="namedview20"
     pagecolor="#50505000"
     bordercolor="#ffffffff"
     borderopacity="1"
     inkscape:showpageshadow="0"
     inkscape:pageopacity="0"
     inkscape:pagecheckerboard="1"
     inkscape:deskcolor="#505050ff"
     inkscape:zoom="0.43333333"
     inkscape:cx="318.46154"
     inkscape:cy="535.38462"
     inkscape:window-width="1366"
     inkscape:window-height="728"
     inkscape:window-maximized="1"
     inkscape:current-layer="svg20" />
  <defs
     id="defs1">
    <style
       id="style1">
      .cls-1 {
        fill: #fff;
      }

      .cls-1, .cls-2 {
        stroke: #000;
        stroke-linecap: round;
        stroke-linejoin: round;
      }

      .cls-2 {
        fill: none;
      }

      .cls-3 {
        fill: #ffca06;
      }

      .cls-4 {
        fill-rule: evenodd;
      }
    </style>
  </defs>
  <!-- Generator: Adobe Illustrator 28.6.0, SVG Export Plug-In . SVG Version: 1.2.0 Build 709)  -->
  <g
     id="sp_x5F_Fondo_del_tablero"
     transform="translate(-642.58045,-4.9007995)">
    <g
       id="HATCH">
      <rect
         class="cls-3"
         x="739.23999"
         y="101.57"
         width="441.45999"
         height="441.45999"
         rx="18.65"
         ry="18.65"
         transform="rotate(-45,959.96996,322.29742)"
         id="rect3" />
    </g>
  </g>
  <g
     id="sp_x5F_Pictograma_y_filete"
     transform="translate(-642.58045,-4.9007995)">
    <g
       id="HATCH-2"
       data-name="HATCH">
      <path
         class="cls-4"
         d="m 973.16,621.26 285.78,-285.78 c 7.28,-7.28 7.28,-19.09 0,-26.38 L 973.16,23.33 c -7.28,-7.28 -19.09,-7.28 -26.38,0 L 661,309.11 c -7.28,7.28 -7.28,19.09 0,26.38 l 285.78,285.78 c 7.28,7.28 19.09,7.28 26.38,0 m 8.79,8.78 285.78,-285.78 c 12.14,-12.14 12.14,-31.82 0,-43.97 L 981.95,14.53 C 969.81,2.39 950.13,2.39 937.98,14.53 L 652.2,300.31 c -12.14,12.14 -12.14,31.82 0,43.97 l 285.78,285.78 c 12.14,12.14 31.82,12.14 43.97,0 z"
         id="path3" />
    </g>
    <g
       id="HATCH-3"
       data-name="HATCH">
      <path
         class="cls-4"
         d="m 919.42,165.16 c 0.91,20.22 7.98,39.68 20.28,55.76 8.4,11.2 24.28,13.47 35.48,5.07 1.92,-1.44 3.63,-3.15 5.07,-5.07 12.29,-16.08 19.36,-35.54 20.28,-55.76 v -60.1 c 0,-3.2 -2.59,-5.79 -5.79,-5.79 h -69.51 c -3.2,0 -5.79,2.59 -5.79,5.79 v 60.1 m 40.53,299.52 c 0,-49.08 19.24,-96.2 53.58,-131.25 24.14,-24.63 37.65,-57.75 37.65,-92.23 v -21.63 c 0,0 -24.11,27.93 -24.11,27.93 l -21.51,-21.51 60.83,-60.83 60.83,60.83 -21.51,21.51 -24.11,-27.93 v 21.63 c 0,42.45 -16.64,83.2 -46.34,113.52 -28.67,29.26 -44.77,68.55 -44.89,109.51 v 91.24 H 929.56 V 464.23 C 929.44,423.27 913.33,383.98 884.67,354.72 854.96,324.4 838.33,283.65 838.33,241.2 v -21.63 c 0,0 -24.11,27.93 -24.11,27.93 l -21.51,-21.51 60.83,-60.83 60.83,60.83 -21.51,21.51 -24.11,-27.93 v 21.63 c 0,34.49 13.52,67.6 37.65,92.23 34.35,35.06 53.58,82.18 53.58,131.25 z"
         id="path4" />
    </g>
    <g
       id="LWPOLYLINE">
      <rect
         class="cls-2"
         x="739.23999"
         y="101.57"
         width="441.45999"
         height="441.45999"
         rx="18.65"
         ry="18.65"
         transform="rotate(-45,959.96996,322.29742)"
         id="rect4" />
    </g>
    <g
       id="LWPOLYLINE-2"
       data-name="LWPOLYLINE">
      <rect
         class="cls-2"
         x="726.81"
         y="89.129997"
         width="466.32999"
         height="466.32999"
         rx="31.09"
         ry="31.09"
         transform="rotate(-45,959.96996,322.29742)"
         id="rect5" />
    </g>
    <g
       id="LWPOLYLINE-3"
       data-name="LWPOLYLINE">
      <path
         class="cls-2"
         d="m 959.97,464.68 c 0,-49.08 19.24,-96.2 53.58,-131.25 24.14,-24.63 37.65,-57.75 37.65,-92.23 v -21.63 c 0,0 -24.11,27.93 -24.11,27.93 l -21.51,-21.51 60.83,-60.83 60.83,60.83 -21.51,21.51 -24.11,-27.93 v 21.63 c 0,42.45 -16.64,83.2 -46.34,113.52 -28.67,29.26 -44.77,68.55 -44.89,109.51 v 91.24 H 929.56 V 464.23 C 929.44,423.27 913.33,383.98 884.67,354.72 854.96,324.4 838.33,283.65 838.33,241.2 v -21.63 c 0,0 -24.11,27.93 -24.11,27.93 l -21.51,-21.51 60.83,-60.83 60.83,60.83 -21.51,21.51 -24.11,-27.93 v 21.63 c 0,34.49 13.52,67.6 37.65,92.23 34.35,35.06 53.58,82.18 53.58,131.25 z"
         id="path5" />
    </g>
    <g
       id="LWPOLYLINE-4"
       data-name="LWPOLYLINE">
      <path
         class="cls-2"
         d="m 919.42,165.16 c 0.91,20.22 7.98,39.68 20.28,55.76 8.4,11.2 24.28,13.47 35.48,5.07 1.92,-1.44 3.63,-3.15 5.07,-5.07 12.29,-16.08 19.36,-35.54 20.28,-55.76 v -60.1 c 0,-3.2 -2.59,-5.79 -5.79,-5.79 h -69.51 c -3.2,0 -5.79,2.59 -5.79,5.79 v 60.1 z"
         id="path6" />
    </g>
  </g>
</svg>
