<?xml version="1.0" encoding="UTF-8" standalone="no"?>
<svg
   version="1.1"
   viewBox="0 0 634.78265 634.78265"
   id="svg78"
   sodipodi:docname="SP-32A_30x30.svg"
   width="634.78265"
   height="634.78265"
   inkscape:version="1.2.2 (b0a8486541, 2022-12-01)"
   xmlns:inkscape="http://www.inkscape.org/namespaces/inkscape"
   xmlns:sodipodi="http://sodipodi.sourceforge.net/DTD/sodipodi-0.dtd"
   xmlns="http://www.w3.org/2000/svg"
   xmlns:svg="http://www.w3.org/2000/svg">
  <sodipodi:namedview
     id="namedview80"
     pagecolor="#ffffff"
     bordercolor="#000000"
     borderopacity="0.25"
     inkscape:showpageshadow="2"
     inkscape:pageopacity="0.0"
     inkscape:pagecheckerboard="0"
     inkscape:deskcolor="#d1d1d1"
     showgrid="false"
     inkscape:zoom="0.7484375"
     inkscape:cx="317.99582"
     inkscape:cy="534.44676"
     inkscape:window-width="1920"
     inkscape:window-height="1014"
     inkscape:window-x="0"
     inkscape:window-y="29"
     inkscape:window-maximized="1"
     inkscape:current-layer="svg78" />
  <defs
     id="defs4">
    <style
       id="style2">
      .cls-1 {
        fill: #fff;
      }

      .cls-1, .cls-2 {
        stroke: #000;
        stroke-linecap: round;
        stroke-linejoin: round;
      }

      .cls-2 {
        fill: none;
      }

      .cls-3 {
        fill: #ffca06;
      }

      .cls-4 {
        fill-rule: evenodd;
      }
    </style>
  </defs>
  <!-- Generator: Adobe Illustrator 28.6.0, SVG Export Plug-In . SVG Version: 1.2.0 Build 709)  -->
  <g
     id="sp_x5F_Fondo_del_tablero"
     transform="translate(-642.58046,-4.9008088)">
    <g
       id="HATCH">
      <rect
         class="cls-3"
         x="739.23999"
         y="101.57"
         width="441.45999"
         height="441.45999"
         rx="18.65"
         ry="18.65"
         transform="rotate(-45,959.96996,322.29742)"
         id="rect12" />
    </g>
  </g>
  <g
     id="sp_x5F_Pictograma_y_filete"
     transform="translate(-642.58046,-4.9008088)">
    <g
       id="HATCH-2"
       data-name="HATCH">
      <path
         class="cls-4"
         d="m 973.16,621.26 285.78,-285.78 c 7.28,-7.28 7.28,-19.09 0,-26.38 L 973.16,23.33 c -7.28,-7.28 -19.09,-7.28 -26.38,0 L 661,309.11 c -7.28,7.28 -7.28,19.09 0,26.38 l 285.78,285.78 c 7.28,7.28 19.09,7.28 26.38,0 m 8.79,8.78 285.78,-285.78 c 12.14,-12.14 12.14,-31.82 0,-43.97 L 981.95,14.53 C 969.81,2.39 950.13,2.39 937.98,14.53 L 652.2,300.31 c -12.14,12.14 -12.14,31.82 0,43.97 l 285.78,285.78 c 12.14,12.14 31.82,12.14 43.97,0 z"
         id="path16" />
    </g>
    <g
       id="HATCH-3"
       data-name="HATCH">
      <path
         class="cls-4"
         d="m 791.82,325.29 c 0,-9.59 -7.77,-17.37 -17.37,-17.37 -9.6,0 -17.37,7.77 -17.37,17.37 0,9.6 7.77,17.37 17.37,17.37 9.6,0 17.37,-7.77 17.37,-17.37 m 82.55,-12.72 c -1.65,0.46 -2.88,1.83 -3.18,3.52 l -1.55,8.78 -39.53,-6.97 c -2.43,-0.43 -4.74,1.19 -5.17,3.62 -0.1,0.54 -0.09,1.09 0.02,1.63 l 4.93,25.14 c 0.71,3.62 3.57,6.43 7.2,7.07 l 35.13,6.2 c 4.85,0.86 9.48,-2.38 10.33,-7.23 l 6.97,-39.53 c 0.43,-2.43 -1.19,-4.74 -3.62,-5.17 -0.68,-0.12 -1.38,-0.08 -2.05,0.12 l -9.5,2.83 M 1020,142.83 c 0,-14.32 -11.61,-25.92 -25.92,-25.92 -14.31,0 -25.92,11.61 -25.92,25.92 0,14.31 11.61,25.92 25.92,25.92 14.31,0 25.92,-11.61 25.92,-25.92 m -28.31,307.54 c -0.51,7.14 4.86,13.34 12,13.85 7.12,0.51 13.31,-4.83 13.85,-11.94 l 6.3,-82.44 c 0.14,-1.84 0.68,-3.64 1.57,-5.26 l 31.58,-57.42 c 0.28,-0.5 0.68,-0.92 1.17,-1.21 1.53,-0.92 3.52,-0.43 4.45,1.1 l 10.26,17.03 c 3.1,5.14 9.32,7.49 15.04,5.66 l 86.08,-27.47 c 6.82,-2.18 10.58,-9.47 8.41,-16.29 -2.18,-6.82 -9.47,-10.58 -16.29,-8.41 l -71.33,22.76 c -3.3,1.05 -6.85,-0.68 -8.05,-3.94 l -27.36,-74.34 c -0.37,-1.01 -0.21,-2.15 0.43,-3.02 1.06,-1.44 3.08,-1.76 4.53,-0.7 l 58.45,42.78 c 4.33,3.17 10.42,2.23 13.59,-2.1 3.17,-4.33 2.23,-10.42 -2.1,-13.59 l -96.75,-70.81 c -11.55,-8.46 -27.77,-5.95 -36.23,5.61 -5.11,6.98 -6.4,16.05 -3.44,24.18 l 4.06,11.16 -63.75,12.2 c -5.27,1.01 -8.73,6.1 -7.72,11.38 1.01,5.27 6.1,8.73 11.38,7.72 l 66.84,-12.79 21.91,61.67 -29.67,59.65 c -1.8,3.28 -2.88,6.91 -3.14,10.64 l -6.04,84.32 m -40.44,-74.86 -7.74,43.92 20.46,29.22 c 2.83,4.04 1.84,9.6 -2.19,12.42 -4.04,2.83 -9.6,1.84 -12.42,-2.19 l -30.69,-43.84 -77.46,-13.66 -49.6,8.75 c -4.85,0.86 -9.48,-2.38 -10.33,-7.23 -0.86,-4.85 2.38,-9.48 7.23,-10.33 l 52.7,-9.29 c 1.71,-9.7 10.96,-16.18 20.66,-14.47 l 70.27,12.39 1.55,-8.78 c 0.86,-4.85 5.48,-8.09 10.33,-7.23 4.85,0.86 8.09,5.48 7.23,10.33 z"
         id="path19" />
    </g>
    <g
       id="LWPOLYLINE">
      <rect
         class="cls-2"
         x="726.81"
         y="89.129997"
         width="466.32999"
         height="466.32999"
         rx="31.09"
         ry="31.09"
         transform="rotate(-45,959.96996,322.29742)"
         id="rect22" />
    </g>
    <g
       id="LWPOLYLINE-2"
       data-name="LWPOLYLINE">
      <rect
         class="cls-2"
         x="739.23999"
         y="101.57"
         width="441.45999"
         height="441.45999"
         rx="18.65"
         ry="18.65"
         transform="rotate(-45,959.96996,322.29742)"
         id="rect25" />
    </g>
    <g
       id="LWPOLYLINE-3"
       data-name="LWPOLYLINE">
      <path
         class="cls-2"
         d="m 991.69,450.37 c -0.51,7.14 4.86,13.34 12,13.85 7.14,0.51 13.31,-4.83 13.85,-11.94 l 6.3,-82.44 c 0.14,-1.84 0.68,-3.64 1.57,-5.26 l 31.58,-57.42 c 0.28,-0.5 0.68,-0.92 1.17,-1.21 1.53,-0.92 3.52,-0.43 4.45,1.1 l 10.26,17.03 c 3.1,5.14 9.32,7.49 15.04,5.66 l 86.08,-27.47 c 6.82,-2.18 10.58,-9.47 8.41,-16.29 -2.18,-6.82 -9.47,-10.58 -16.29,-8.41 l -71.33,22.76 c -3.3,1.05 -6.85,-0.68 -8.05,-3.94 l -27.36,-74.34 c -0.37,-1.01 -0.21,-2.15 0.43,-3.02 1.06,-1.44 3.08,-1.76 4.53,-0.7 l 58.45,42.78 c 4.33,3.17 10.42,2.23 13.59,-2.1 3.17,-4.33 2.23,-10.42 -2.1,-13.59 l -96.75,-70.81 c -11.55,-8.46 -27.77,-5.95 -36.23,5.61 -5.11,6.98 -6.4,16.05 -3.44,24.18 l 4.06,11.16 -63.75,12.2 c -5.27,1.01 -8.73,6.1 -7.72,11.38 1.01,5.28 6.1,8.73 11.38,7.72 l 66.84,-12.79 21.91,61.67 -29.67,59.65 c -1.8,3.28 -2.88,6.91 -3.14,10.64 l -6.04,84.32 z"
         id="path28" />
    </g>
    <g
       id="LWPOLYLINE-4"
       data-name="LWPOLYLINE">
      <path
         class="cls-2"
         d="m 874.37,312.57 c -1.65,0.46 -2.88,1.83 -3.18,3.52 l -1.55,8.78 -39.53,-6.97 c -2.43,-0.43 -4.74,1.19 -5.17,3.62 -0.1,0.54 -0.09,1.09 0.02,1.63 l 4.93,25.14 c 0.71,3.62 3.57,6.43 7.2,7.07 l 35.13,6.2 c 4.85,0.86 9.48,-2.38 10.33,-7.23 l 6.97,-39.53 c 0.43,-2.43 -1.19,-4.74 -3.62,-5.17 -0.68,-0.12 -1.38,-0.08 -2.05,0.12 l -9.5,2.83"
         id="path31" />
    </g>
    <g
       id="LWPOLYLINE-5"
       data-name="LWPOLYLINE">
      <path
         class="cls-2"
         d="m 951.28,375.49 -7.74,43.92 20.46,29.22 c 2.83,4.04 1.84,9.6 -2.19,12.42 -4.03,2.82 -9.6,1.84 -12.42,-2.19 l -30.69,-43.84 -77.46,-13.66 -49.6,8.75 c -4.85,0.86 -9.48,-2.38 -10.33,-7.23 -0.85,-4.85 2.38,-9.48 7.23,-10.33 l 52.7,-9.29 c 1.71,-9.7 10.96,-16.18 20.66,-14.47 l 70.27,12.39 1.55,-8.78 c 0.86,-4.85 5.48,-8.09 10.33,-7.23 4.85,0.86 8.09,5.48 7.23,10.33 z"
         id="path34" />
    </g>
    <g
       id="CIRCLE">
      <circle
         class="cls-2"
         cx="994.07001"
         cy="142.83"
         r="25.92"
         id="circle37" />
    </g>
    <g
       id="CIRCLE-2"
       data-name="CIRCLE">
      <circle
         class="cls-2"
         cx="774.45001"
         cy="325.29001"
         r="17.370001"
         id="circle40" />
    </g>
  </g>
</svg>
