<?xml version="1.0" encoding="UTF-8" standalone="no"?>
<svg
   version="1.1"
   viewBox="0 0 634.78265 634.78265"
   id="svg79"
   sodipodi:docname="SP-43_30x30.svg"
   width="634.78265"
   height="634.78265"
   inkscape:version="1.2.2 (b0a8486541, 2022-12-01)"
   xmlns:inkscape="http://www.inkscape.org/namespaces/inkscape"
   xmlns:sodipodi="http://sodipodi.sourceforge.net/DTD/sodipodi-0.dtd"
   xmlns="http://www.w3.org/2000/svg"
   xmlns:svg="http://www.w3.org/2000/svg">
  <sodipodi:namedview
     id="namedview81"
     pagecolor="#ffffff"
     bordercolor="#000000"
     borderopacity="0.25"
     inkscape:showpageshadow="2"
     inkscape:pageopacity="0.0"
     inkscape:pagecheckerboard="0"
     inkscape:deskcolor="#d1d1d1"
     showgrid="false"
     inkscape:zoom="0.7484375"
     inkscape:cx="317.99582"
     inkscape:cy="534.44676"
     inkscape:window-width="1920"
     inkscape:window-height="1014"
     inkscape:window-x="0"
     inkscape:window-y="29"
     inkscape:window-maximized="1"
     inkscape:current-layer="svg79" />
  <defs
     id="defs4">
    <style
       id="style2">
      .cls-1 {
        fill: #fff;
      }

      .cls-1, .cls-2 {
        stroke: #000;
        stroke-linecap: round;
        stroke-linejoin: round;
      }

      .cls-2 {
        fill: none;
      }

      .cls-3 {
        fill: #ffca06;
      }

      .cls-4 {
        fill-rule: evenodd;
      }
    </style>
  </defs>
  <!-- Generator: Adobe Illustrator 28.6.0, SVG Export Plug-In . SVG Version: 1.2.0 Build 709)  -->
  <g
     id="sp_x5F_Fondo_del_tablero"
     transform="translate(-642.58046,-4.9008088)">
    <g
       id="HATCH">
      <rect
         class="cls-3"
         x="739.23999"
         y="101.57"
         width="441.45999"
         height="441.45999"
         rx="18.65"
         ry="18.65"
         transform="rotate(-45,959.96996,322.29742)"
         id="rect12" />
    </g>
  </g>
  <g
     id="sp_x5F_Pictograma_y_filete"
     transform="translate(-642.58046,-4.9008088)">
    <g
       id="HATCH-2"
       data-name="HATCH">
      <path
         class="cls-4"
         d="m 973.16,621.26 285.78,-285.78 c 7.28,-7.28 7.28,-19.09 0,-26.38 L 973.16,23.33 c -7.28,-7.28 -19.09,-7.28 -26.38,0 L 661,309.11 c -7.28,7.28 -7.28,19.09 0,26.38 l 285.78,285.78 c 7.28,7.28 19.09,7.28 26.38,0 m 8.79,8.78 285.78,-285.78 c 12.14,-12.14 12.14,-31.82 0,-43.97 L 981.95,14.53 C 969.81,2.39 950.13,2.39 937.98,14.53 L 652.2,300.31 c -12.14,12.14 -12.14,31.82 0,43.97 l 285.78,285.78 c 12.14,12.14 31.82,12.14 43.97,0 z"
         id="path16" />
    </g>
    <g
       id="HATCH-3"
       data-name="HATCH">
      <path
         class="cls-4"
         d="m 956.03,400.95 3.39,19.25 24.07,-4.24 -7.64,-43.32 -24.07,4.24 2.55,14.44 -27.48,4.85 c -3.73,-5.62 -11.32,-7.15 -16.94,-3.42 -2.57,1.7 -4.4,4.32 -5.12,7.31 l -27.48,4.85 -2.55,-14.44 -24.07,4.24 7.64,43.32 24.07,-4.24 -3.39,-19.25 27.48,-4.85 c 3.73,5.62 11.32,7.15 16.94,3.42 2.57,-1.7 4.4,-4.32 5.12,-7.31 l 27.48,-4.85 m -8.47,-216.89 31.4,178.1 -134.78,23.76 -31.4,-178.1 134.78,-23.76 m 218.84,161.46 c -14.53,9.58 -33.37,9.58 -47.9,0 -16.22,-10.7 -37.26,-10.7 -53.48,0 -13.51,8.91 -30.84,9.58 -45,1.75 l 4.98,0.37 v -5.07 h -14.34 v 14.34 h 5.07 l -0.48,-6.56 c 16.12,10.12 36.67,9.89 52.56,-0.59 14.53,-9.58 33.37,-9.58 47.9,0 16.22,10.7 37.26,10.7 53.48,0 l -2.79,-4.23 m -20.28,-60.83 c -14.53,9.58 -33.37,9.58 -47.9,0 -16.22,-10.7 -37.26,-10.7 -53.48,0 -13.51,8.91 -30.84,9.58 -45,1.75 l 4.98,0.37 v -5.07 h -14.34 v 14.34 h 5.07 l -0.48,-6.56 c 16.12,10.12 36.67,9.89 52.56,-0.59 14.53,-9.58 33.37,-9.58 47.9,0 16.22,10.7 37.26,10.7 53.48,0 l -2.79,-4.23 m -20.28,-60.84 c -14.53,9.58 -33.37,9.58 -47.9,0 -16.22,-10.7 -37.26,-10.7 -53.48,0 -13.51,8.91 -30.84,9.58 -45,1.75 l 4.98,0.37 v -5.07 H 970.1 v 14.34 h 5.07 l -0.48,-6.56 c 16.12,10.12 36.67,9.89 52.56,-0.59 14.53,-9.58 33.37,-9.58 47.9,0 16.22,10.7 37.26,10.7 53.48,0 l -2.79,-4.23 M 843.39,449.01 h 233.16 V 438.87 H 843.39 Z"
         id="path19" />
    </g>
    <g
       id="LWPOLYLINE">
      <rect
         class="cls-2"
         x="739.23999"
         y="101.57"
         width="441.45999"
         height="441.45999"
         rx="18.65"
         ry="18.65"
         transform="rotate(-45,959.96996,322.29742)"
         id="rect22" />
    </g>
    <g
       id="LWPOLYLINE-2"
       data-name="LWPOLYLINE">
      <rect
         class="cls-2"
         x="726.81"
         y="89.129997"
         width="466.32999"
         height="466.32999"
         rx="31.09"
         ry="31.09"
         transform="rotate(-45,959.96996,322.29742)"
         id="rect25" />
    </g>
    <g
       id="LWPOLYLINE-3"
       data-name="LWPOLYLINE">
      <rect
         class="cls-2"
         x="843.39001"
         y="438.88"
         width="233.16"
         height="10.14"
         id="rect28" />
    </g>
    <g
       id="LWPOLYLINE-4"
       data-name="LWPOLYLINE">
      <path
         class="cls-2"
         d="m 1125.84,223.87 c -14.53,9.58 -33.37,9.58 -47.9,0 -16.22,-10.7 -37.26,-10.7 -53.48,0 -13.51,8.91 -30.84,9.58 -45,1.75 l 4.98,0.37 v -5.07 H 970.1 v 14.34 h 5.07 l -0.48,-6.56 c 16.12,10.12 36.67,9.89 52.56,-0.59 14.53,-9.58 33.37,-9.58 47.9,0 16.22,10.7 37.26,10.7 53.48,0 l -2.79,-4.23 z"
         id="path31" />
    </g>
    <g
       id="LWPOLYLINE-5"
       data-name="LWPOLYLINE">
      <path
         class="cls-2"
         d="m 956.03,400.95 3.39,19.25 24.07,-4.24 -7.64,-43.32 -24.07,4.24 2.55,14.44 -27.48,4.85 c -3.73,-5.62 -11.32,-7.15 -16.94,-3.42 -2.57,1.7 -4.4,4.32 -5.12,7.31 l -27.48,4.85 -2.55,-14.44 -24.07,4.24 7.64,43.32 24.07,-4.24 -3.39,-19.25 27.48,-4.85 c 3.73,5.62 11.32,7.15 16.94,3.42 2.57,-1.7 4.4,-4.32 5.12,-7.31 z"
         id="path34" />
    </g>
    <g
       id="LWPOLYLINE-6"
       data-name="LWPOLYLINE">
      <path
         class="cls-2"
         d="m 1166.4,345.52 c -14.53,9.58 -33.37,9.58 -47.9,0 -16.22,-10.7 -37.26,-10.7 -53.48,0 -13.51,8.91 -30.84,9.58 -45,1.75 l 4.98,0.37 v -5.07 h -14.34 v 14.34 h 5.07 l -0.48,-6.56 c 16.12,10.12 36.67,9.89 52.56,-0.59 14.53,-9.58 33.37,-9.58 47.9,0 16.22,10.7 37.26,10.7 53.48,0 l -2.79,-4.23 z"
         id="path37" />
    </g>
    <g
       id="LWPOLYLINE-7"
       data-name="LWPOLYLINE">
      <path
         class="cls-2"
         d="m 1146.12,284.7 c -14.53,9.58 -33.37,9.58 -47.9,0 -16.22,-10.7 -37.26,-10.7 -53.48,0 -13.51,8.91 -30.84,9.58 -45,1.75 l 4.98,0.37 v -5.07 h -14.34 v 14.34 h 5.07 l -0.48,-6.56 c 16.12,10.12 36.67,9.89 52.56,-0.59 14.53,-9.58 33.37,-9.58 47.9,0 16.22,10.7 37.26,10.7 53.48,0 l -2.79,-4.23 z"
         id="path40" />
    </g>
    <g
       id="LWPOLYLINE-8"
       data-name="LWPOLYLINE">
      <polyline
         class="cls-2"
         points="947.56 184.06 978.97 362.16 844.19 385.93 812.79 207.83 947.56 184.06"
         id="polyline43" />
    </g>
  </g>
</svg>
