<?xml version="1.0" encoding="UTF-8" standalone="no"?>
<svg
   version="1.1"
   viewBox="0 0 634.78265 634.78265"
   id="svg109"
   sodipodi:docname="SP-40_30x30.svg"
   width="634.78265"
   height="634.78265"
   inkscape:version="1.2.2 (b0a8486541, 2022-12-01)"
   xmlns:inkscape="http://www.inkscape.org/namespaces/inkscape"
   xmlns:sodipodi="http://sodipodi.sourceforge.net/DTD/sodipodi-0.dtd"
   xmlns="http://www.w3.org/2000/svg"
   xmlns:svg="http://www.w3.org/2000/svg">
  <sodipodi:namedview
     id="namedview111"
     pagecolor="#ffffff"
     bordercolor="#000000"
     borderopacity="0.25"
     inkscape:showpageshadow="2"
     inkscape:pageopacity="0.0"
     inkscape:pagecheckerboard="0"
     inkscape:deskcolor="#d1d1d1"
     showgrid="false"
     inkscape:zoom="0.7484375"
     inkscape:cx="317.99582"
     inkscape:cy="534.44676"
     inkscape:window-width="1920"
     inkscape:window-height="1014"
     inkscape:window-x="0"
     inkscape:window-y="29"
     inkscape:window-maximized="1"
     inkscape:current-layer="svg109" />
  <defs
     id="defs4">
    <style
       id="style2">
      .cls-1 {
        fill: #fff;
      }

      .cls-1, .cls-2 {
        stroke: #000;
        stroke-linecap: round;
        stroke-linejoin: round;
      }

      .cls-2 {
        fill: none;
      }

      .cls-3 {
        fill: #ffca06;
      }

      .cls-4 {
        fill-rule: evenodd;
      }
    </style>
  </defs>
  <!-- Generator: Adobe Illustrator 28.6.0, SVG Export Plug-In . SVG Version: 1.2.0 Build 709)  -->
  <g
     id="sp_x5F_Fondo_del_tablero"
     transform="translate(-642.58046,-4.9008088)">
    <g
       id="HATCH">
      <rect
         class="cls-3"
         x="739.23999"
         y="101.57"
         width="441.45999"
         height="441.45999"
         rx="18.65"
         ry="18.65"
         transform="rotate(-45,959.96996,322.29742)"
         id="rect12" />
    </g>
  </g>
  <g
     id="sp_x5F_Pictograma_y_filete"
     transform="translate(-642.58046,-4.9008088)">
    <g
       id="HATCH-2"
       data-name="HATCH">
      <path
         class="cls-4"
         d="m 973.16,621.26 285.78,-285.78 c 7.28,-7.28 7.28,-19.09 0,-26.38 L 973.16,23.33 c -7.28,-7.28 -19.09,-7.28 -26.38,0 L 661,309.11 c -7.28,7.28 -7.28,19.09 0,26.38 l 285.78,285.78 c 7.28,7.28 19.09,7.28 26.38,0 m 8.79,8.78 285.78,-285.78 c 12.14,-12.14 12.14,-31.82 0,-43.97 L 981.95,14.53 C 969.81,2.39 950.13,2.39 937.98,14.53 L 652.2,300.31 c -12.14,12.14 -12.14,31.82 0,43.97 l 285.78,285.78 c 12.14,12.14 31.82,12.14 43.97,0 z"
         id="path16" />
    </g>
    <g
       id="HATCH-3"
       data-name="HATCH">
      <path
         class="cls-4"
         d="m 1160.45,302.55 -20.28,10.14 c -2.5,1.25 -3.52,4.3 -2.27,6.8 0.14,0.27 0.3,0.53 0.48,0.77 l 4.56,6.08 c 0.48,0.64 1.23,1.01 2.03,1.01 h 15.21 c 1.4,0 2.53,-1.13 2.53,-2.53 v -5.07 c 0,-1.4 1.13,-2.53 2.53,-2.53 h 5.07 c 1.4,0 2.53,-1.13 2.53,-2.53 0,-0.47 -0.13,-0.92 -0.37,-1.32 l -5.44,-8.92 c -1.37,-2.25 -4.24,-3.07 -6.59,-1.9 m 15.45,-20.76 -25.34,-5.07 c -1.37,-0.27 -2.71,0.62 -2.98,1.99 -0.14,0.71 0.03,1.44 0.46,2.02 l 10.64,14.19 c 1.68,2.24 4.86,2.69 7.1,1.01 0.09,-0.07 0.18,-0.14 0.27,-0.22 l 11.01,-9.52 c 1.06,-0.92 1.18,-2.52 0.26,-3.57 -0.37,-0.43 -0.87,-0.72 -1.42,-0.83 m -47.43,19.86 -8.92,-5.44 c -0.14,-0.08 -0.27,-0.18 -0.4,-0.27 -2.24,-1.68 -2.69,-4.86 -1.01,-7.1 l 4.56,-6.08 c 0.78,-1.04 2.23,-1.32 3.35,-0.64 l 8.92,5.44 c 0.14,0.08 0.27,0.18 0.4,0.27 2.24,1.68 2.69,4.86 1.01,7.1 l -4.56,6.08 c -0.78,1.04 -2.23,1.32 -3.35,0.64 m 3.11,-32.47 5.44,-8.92 c 0.24,-0.4 0.37,-0.85 0.37,-1.32 v -15.21 c 0,-1.4 -1.13,-2.53 -2.53,-2.53 -0.96,0 -1.84,0.54 -2.27,1.4 l -5.07,10.14 c -0.18,0.35 -0.27,0.74 -0.27,1.13 v 5.07 c 0,1.4 -1.13,2.53 -2.53,2.53 h -5.07 c -1.4,0 -2.53,1.13 -2.53,2.53 0,0.8 0.38,1.55 1.01,2.03 l 6.08,4.56 c 2.24,1.68 5.42,1.23 7.1,-1.01 0.1,-0.13 0.19,-0.26 0.27,-0.4 M 845,285.95 h 47.47 v 19.78 H 845 v -19.78 m 106.81,3.95 v 7.91 H 916.2 v -15.82 h 27.69 c 4.37,0 7.91,3.54 7.91,7.91 m -166.15,0 v 7.91 c 0,0 35.61,0 35.61,0 v -15.82 h -27.69 c -4.37,0 -7.91,3.54 -7.91,7.91 m 170.11,43.52 v -7.91 H 781.7 c 0,0 0,7.91 0,7.91 h 174.07 m -146.34,-103.64 -3.99,40.34 h 126.6 l -3.99,-40.34 c -0.4,-4.05 -3.81,-7.13 -7.87,-7.13 H 817.32 c -4.07,0 -7.47,3.08 -7.87,7.13 m 118.62,143.2 h 11.87 c 4.37,0 7.91,-3.54 7.91,-7.91 v -23.74 h 7.91 c 4.37,0 7.91,-3.54 7.91,-7.91 v -47.47 c 0,-8.74 -7.08,-15.82 -15.82,-15.82 l -8.26,-43.27 c -1.78,-9.33 -9.94,-16.07 -19.43,-16.07 H 817.3 c -9.49,0 -17.65,6.74 -19.43,16.07 l -8.26,43.27 c -8.74,0 -15.82,7.08 -15.82,15.82 v 47.47 c 0,4.37 3.54,7.91 7.91,7.91 h 7.91 v 23.74 c 0,4.37 3.54,7.91 7.91,7.91 h 11.87 c 4.37,0 7.91,-3.54 7.91,-7.91 v -23.74 h 102.86 v 23.74 c 0,4.37 3.54,7.91 7.91,7.91 m 72.45,-35.48 v -5.07 l 91.24,-106.44 25.34,10.14 -116.58,101.38 m 0,25.33 111.51,-55.76 -15.21,-20.28 -96.31,76.03 m 20.29,0.01 126.72,-15.21 -15.21,-20.28 -111.51,35.48 M 894.08,372.98 H 757.22 v 10.14 H 1020.8 V 372.98 H 894.08 m 176.77,-149.61 10.45,-18.96 c 0.21,-0.37 0.31,-0.8 0.31,-1.22 v -15.21 c 0,-1.4 -1.13,-2.53 -2.53,-2.53 h -20.28 c -0.5,0 -0.99,0.15 -1.41,0.43 l -15.21,10.14 c -1.16,0.78 -1.48,2.35 -0.7,3.51 0.47,0.71 1.26,1.13 2.11,1.13 h 15.21 c 0.8,0 1.55,0.38 2.03,1.01 0.84,1.12 0.61,2.71 -0.51,3.55 l -8.11,6.08 c -1.12,0.84 -1.35,2.43 -0.51,3.55 0.11,0.15 0.23,0.28 0.37,0.4 l 11.01,9.52 c 2.12,1.83 5.32,1.6 7.15,-0.52 0.23,-0.27 0.43,-0.56 0.6,-0.87 m 69.35,89.31 20.28,-10.14 z"
         id="path19" />
    </g>
    <g
       id="LWPOLYLINE">
      <rect
         class="cls-2"
         x="739.23999"
         y="101.57"
         width="441.45999"
         height="441.45999"
         rx="18.65"
         ry="18.65"
         transform="rotate(-45,959.96996,322.29742)"
         id="rect22" />
    </g>
    <g
       id="LWPOLYLINE-2"
       data-name="LWPOLYLINE">
      <rect
         class="cls-2"
         x="726.81"
         y="89.129997"
         width="466.32999"
         height="466.32999"
         rx="31.09"
         ry="31.09"
         transform="rotate(-45,959.96996,322.29742)"
         id="rect25" />
    </g>
    <g
       id="LWPOLYLINE-3"
       data-name="LWPOLYLINE">
      <rect
         class="cls-2"
         x="781.70001"
         y="325.51001"
         width="174.07001"
         height="7.9099998"
         id="rect28" />
    </g>
    <g
       id="LWPOLYLINE-4"
       data-name="LWPOLYLINE">
      <path
         class="cls-2"
         d="m 809.43,229.78 -3.99,40.34 h 126.6 l -3.99,-40.34 c -0.4,-4.05 -3.81,-7.13 -7.87,-7.13 H 817.32 c -4.07,0 -7.47,3.08 -7.87,7.13 z"
         id="path31" />
    </g>
    <g
       id="LWPOLYLINE-5"
       data-name="LWPOLYLINE">
      <polyline
         class="cls-2"
         points="894.08 372.98 757.22 372.98 757.22 383.12 1020.8 383.12 1020.8 372.98 894.08 372.98"
         id="polyline34" />
    </g>
    <g
       id="LWPOLYLINE-6"
       data-name="LWPOLYLINE">
      <polygon
         class="cls-2"
         points="1112.03,307.09 1096.83,286.81 1000.52,362.84 "
         id="polygon37" />
    </g>
    <g
       id="LWPOLYLINE-7"
       data-name="LWPOLYLINE">
      <polygon
         class="cls-2"
         points="1000.52,337.5 1000.52,332.43 1091.76,225.99 1117.1,236.13 "
         id="polygon40" />
    </g>
    <g
       id="LWPOLYLINE-8"
       data-name="LWPOLYLINE">
      <polygon
         class="cls-2"
         points="1147.52,347.64 1132.31,327.36 1020.8,362.84 "
         id="polygon43" />
    </g>
    <g
       id="LWPOLYLINE-9"
       data-name="LWPOLYLINE">
      <path
         class="cls-2"
         d="m 928.07,372.98 h 11.87 c 4.37,0 7.91,-3.54 7.91,-7.91 v -23.74 h 7.91 c 4.37,0 7.91,-3.54 7.91,-7.91 v -47.47 c 0,-8.74 -7.08,-15.82 -15.82,-15.82 l -8.26,-43.27 c -1.78,-9.33 -9.94,-16.07 -19.43,-16.07 H 817.3 c -9.49,0 -17.65,6.74 -19.43,16.07 l -8.26,43.27 c -8.74,0 -15.82,7.08 -15.82,15.82 v 47.47 c 0,4.37 3.54,7.91 7.91,7.91 h 7.91 c 0,0 0,23.74 0,23.74 0,4.37 3.54,7.91 7.91,7.91 h 11.87 c 4.37,0 7.91,-3.54 7.91,-7.91 v -23.74 h 102.86 c 0,0 0,23.74 0,23.74 0,4.37 3.54,7.91 7.91,7.91 z"
         id="path46" />
    </g>
    <g
       id="LWPOLYLINE-10"
       data-name="LWPOLYLINE">
      <path
         class="cls-2"
         d="m 951.81,289.9 v 7.91 H 916.2 v -15.82 h 27.69 c 4.37,0 7.91,3.54 7.91,7.91 z"
         id="path49" />
    </g>
    <g
       id="LWPOLYLINE-11"
       data-name="LWPOLYLINE">
      <path
         class="cls-2"
         d="m 1131.57,269.18 5.44,-8.92 c 0.24,-0.4 0.37,-0.85 0.37,-1.32 v -15.21 c 0,-1.4 -1.13,-2.53 -2.53,-2.53 -0.96,0 -1.84,0.54 -2.27,1.4 l -5.07,10.14 c -0.18,0.35 -0.27,0.74 -0.27,1.13 v 5.07 c 0,1.4 -1.13,2.53 -2.53,2.53 h -5.07 c -1.4,0 -2.53,1.13 -2.53,2.53 0,0.8 0.38,1.55 1.01,2.03 l 6.08,4.56 c 2.24,1.68 5.42,1.23 7.1,-1.01 0.1,-0.13 0.19,-0.26 0.27,-0.4 z"
         id="path52" />
    </g>
    <g
       id="LWPOLYLINE-12"
       data-name="LWPOLYLINE">
      <path
         class="cls-2"
         d="m 1070.85,223.37 10.45,-18.96 c 0.21,-0.37 0.31,-0.8 0.31,-1.22 v -15.21 c 0,-1.4 -1.13,-2.53 -2.53,-2.53 h -20.28 c -0.5,0 -0.99,0.15 -1.41,0.43 l -15.21,10.14 c -1.16,0.78 -1.48,2.35 -0.7,3.51 0.47,0.71 1.26,1.13 2.11,1.13 h 15.21 c 0.8,0 1.55,0.38 2.03,1.01 0.84,1.12 0.61,2.71 -0.51,3.55 l -8.11,6.08 c -1.12,0.84 -1.35,2.43 -0.51,3.55 0.11,0.15 0.23,0.28 0.37,0.4 l 11.01,9.52 c 2.12,1.83 5.32,1.6 7.15,-0.52 0.23,-0.27 0.43,-0.56 0.6,-0.87 z"
         id="path55" />
    </g>
    <g
       id="LWPOLYLINE-13"
       data-name="LWPOLYLINE">
      <path
         class="cls-2"
         d="m 785.65,289.9 v 7.91 c 0,0 35.61,0 35.61,0 v -15.82 h -27.69 c -4.37,0 -7.91,3.54 -7.91,7.91 z"
         id="path58" />
    </g>
    <g
       id="LWPOLYLINE-14"
       data-name="LWPOLYLINE">
      <polyline
         class="cls-2"
         points="845 285.95 892.47 285.95 892.47 305.73 845 305.73 845 285.95"
         id="polyline61" />
    </g>
    <g
       id="LWPOLYLINE-15"
       data-name="LWPOLYLINE">
      <path
         class="cls-2"
         d="m 1128.46,301.65 -8.92,-5.44 c -0.14,-0.08 -0.27,-0.18 -0.4,-0.27 -2.24,-1.68 -2.69,-4.86 -1.01,-7.1 l 4.56,-6.08 c 0.78,-1.04 2.23,-1.32 3.35,-0.64 l 8.92,5.44 c 0.14,0.08 0.27,0.18 0.4,0.27 2.24,1.68 2.69,4.86 1.01,7.1 l -4.56,6.08 c -0.78,1.04 -2.23,1.32 -3.35,0.64 z"
         id="path64" />
    </g>
    <g
       id="LWPOLYLINE-16"
       data-name="LWPOLYLINE">
      <path
         class="cls-2"
         d="m 1175.89,281.79 -25.34,-5.07 c -1.37,-0.27 -2.71,0.62 -2.98,1.99 -0.14,0.71 0.03,1.44 0.46,2.02 l 10.64,14.19 c 1.68,2.24 4.86,2.69 7.1,1.01 0.09,-0.07 0.18,-0.14 0.27,-0.22 l 11.01,-9.52 c 1.06,-0.92 1.18,-2.52 0.26,-3.57 -0.37,-0.43 -0.87,-0.72 -1.42,-0.83 z"
         id="path67" />
    </g>
    <g
       id="LWPOLYLINE-17"
       data-name="LWPOLYLINE">
      <path
         class="cls-2"
         d="m 1160.45,302.55 -20.28,10.14 c -2.5,1.25 -3.52,4.3 -2.27,6.8 0.14,0.27 0.3,0.53 0.48,0.77 l 4.56,6.08 c 0.48,0.64 1.23,1.01 2.03,1.01 h 15.21 c 1.4,0 2.53,-1.13 2.53,-2.53 v -5.07 c 0,-1.4 1.13,-2.53 2.53,-2.53 h 5.07 c 1.4,0 2.53,-1.13 2.53,-2.53 0,-0.47 -0.13,-0.92 -0.37,-1.32 l -5.44,-8.92 c -1.37,-2.25 -4.24,-3.07 -6.59,-1.9 z"
         id="path70" />
    </g>
    <g
       id="LINE">
      <line
         class="cls-2"
         x1="1140.1801"
         y1="312.69"
         x2="1160.45"
         y2="302.54999"
         id="line73" />
    </g>
  </g>
</svg>
