<?xml version="1.0" encoding="UTF-8" standalone="no"?>
<svg
   version="1.1"
   viewBox="0 0 634.78271 634.78271"
   id="svg6"
   sodipodi:docname="SP-41_30x30.svg"
   width="634.78271"
   height="634.78271"
   inkscape:version="1.5-dev (b025170, 2024-11-19, custom)"
   xmlns:inkscape="http://www.inkscape.org/namespaces/inkscape"
   xmlns:sodipodi="http://sodipodi.sourceforge.net/DTD/sodipodi-0.dtd"
   xmlns="http://www.w3.org/2000/svg"
   xmlns:svg="http://www.w3.org/2000/svg">
  <sodipodi:namedview
     id="namedview6"
     pagecolor="#50505000"
     bordercolor="#ffffffff"
     borderopacity="1"
     inkscape:showpageshadow="0"
     inkscape:pageopacity="0"
     inkscape:pagecheckerboard="1"
     inkscape:deskcolor="#505050ff"
     inkscape:zoom="0.43333333"
     inkscape:cx="316.15385"
     inkscape:cy="534.23077"
     inkscape:window-width="1366"
     inkscape:window-height="768"
     inkscape:window-maximized="1"
     inkscape:current-layer="svg6" />
  <!-- Generator: Adobe Illustrator 29.0.1, SVG Export Plug-In . SVG Version: 2.1.0 Build 192)  -->
  <defs
     id="defs1">
    <style
       id="style1">
      .st0 {
        fill: #fff;
      }

      .st0, .st1 {
        stroke: #000;
        stroke-linecap: round;
        stroke-linejoin: round;
      }

      .st1 {
        fill: none;
      }

      .st2 {
        fill: #ffca06;
      }

      .st3 {
        fill-rule: evenodd;
      }

      .st4 {
        font-family: ArialMT, Arial;
        font-size: 131.73px;
      }
    </style>
  </defs>
  <g
     id="sp_x5F_Fondo_del_tablero"
     transform="translate(-642.58045,-4.9007995)">
    <g
       id="HATCH">
      <rect
         class="st2"
         x="739.23999"
         y="101.57"
         width="441.45999"
         height="441.45999"
         rx="18.65"
         ry="18.65"
         transform="rotate(-45,959.96996,322.29742)"
         id="rect3" />
    </g>
  </g>
  <g
     id="sp_x5F_Pictograma_y_filete"
     transform="translate(-642.58045,-4.9007995)">
    <g
       id="HATCH1"
       data-name="HATCH">
      <path
         class="st3"
         d="m 973.16,621.26 285.78,-285.78 c 7.28,-7.28 7.28,-19.09 0,-26.38 L 973.16,23.33 c -7.28,-7.28 -19.09,-7.28 -26.38,0 L 661,309.11 c -7.28,7.28 -7.28,19.09 0,26.38 l 285.78,285.78 c 7.28,7.28 19.09,7.28 26.38,0 m 8.79,8.78 285.78,-285.78 c 12.14,-12.14 12.14,-31.82 0,-43.97 L 981.95,14.53 C 969.81,2.39 950.13,2.39 937.98,14.53 L 652.2,300.31 c -12.14,12.14 -12.14,31.82 0,43.97 l 285.78,285.78 c 12.14,12.14 31.82,12.14 43.97,0 z"
         id="path3" />
    </g>
    <g
       id="HATCH2"
       data-name="HATCH">
      <polygon
         class="st3"
         points="716.67,302.02 716.67,342.57 1203.27,342.57 1203.27,302.02 1091.76,302.02 1030.93,261.47 889.01,261.47 828.18,302.02 "
         id="polygon3" />
    </g>
    <g
       id="LWPOLYLINE">
      <rect
         class="st1"
         x="726.81"
         y="89.129997"
         width="466.32999"
         height="466.32999"
         rx="31.09"
         ry="31.09"
         transform="rotate(-45,959.96996,322.29742)"
         id="rect4" />
    </g>
    <g
       id="LWPOLYLINE1"
       data-name="LWPOLYLINE">
      <rect
         class="st1"
         x="739.23999"
         y="101.57"
         width="441.45999"
         height="441.45999"
         rx="18.65"
         ry="18.65"
         transform="rotate(-45,959.96996,322.29742)"
         id="rect5" />
    </g>
    <g
       id="LWPOLYLINE2"
       data-name="LWPOLYLINE">
      <polygon
         class="st1"
         points="716.67,302.02 716.67,342.57 1203.27,342.57 1203.27,302.02 1091.76,302.02 1030.93,261.47 889.01,261.47 828.18,302.02 "
         id="polygon5" />
    </g>
  </g>
</svg>
