<?xml version="1.0" encoding="UTF-8" standalone="no"?>
<svg
   version="1.1"
   viewBox="0 0 634.78265 634.78265"
   id="svg18"
   sodipodi:docname="SP-48_30x30.svg"
   width="634.78265"
   height="634.78265"
   inkscape:version="1.3.2 (091e20e, 2023-11-25, custom)"
   xmlns:inkscape="http://www.inkscape.org/namespaces/inkscape"
   xmlns:sodipodi="http://sodipodi.sourceforge.net/DTD/sodipodi-0.dtd"
   xmlns="http://www.w3.org/2000/svg"
   xmlns:svg="http://www.w3.org/2000/svg">
  <sodipodi:namedview
     id="namedview18"
     pagecolor="#ffffff"
     bordercolor="#000000"
     borderopacity="0.25"
     inkscape:showpageshadow="2"
     inkscape:pageopacity="0.0"
     inkscape:pagecheckerboard="0"
     inkscape:deskcolor="#d1d1d1"
     inkscape:zoom="0.4421875"
     inkscape:cx="317.73852"
     inkscape:cy="534.84099"
     inkscape:window-width="1366"
     inkscape:window-height="715"
     inkscape:window-x="-8"
     inkscape:window-y="-8"
     inkscape:window-maximized="1"
     inkscape:current-layer="svg18" />
  <defs
     id="defs1">
    <style
       id="style1">
      .cls-1 {
        fill: #fff;
      }

      .cls-1, .cls-2 {
        stroke: #000;
        stroke-linecap: round;
        stroke-linejoin: round;
      }

      .cls-2 {
        fill: none;
      }

      .cls-3 {
        fill: #ffca06;
      }

      .cls-4 {
        fill-rule: evenodd;
      }
    </style>
  </defs>
  <!-- Generator: Adobe Illustrator 28.6.0, SVG Export Plug-In . SVG Version: 1.2.0 Build 709)  -->
  <g
     id="sp_x5F_Fondo_del_tablero"
     transform="translate(-642.58046,-4.9008088)">
    <g
       id="HATCH">
      <rect
         class="cls-3"
         x="739.23999"
         y="101.57"
         width="441.45999"
         height="441.45999"
         rx="18.65"
         ry="18.65"
         transform="rotate(-45,959.96996,322.29742)"
         id="rect3" />
    </g>
  </g>
  <g
     id="sp_x5F_Pictograma_y_filete"
     transform="translate(-642.58046,-4.9008088)">
    <g
       id="HATCH-2"
       data-name="HATCH">
      <path
         class="cls-4"
         d="m 981.95,630.05 285.78,-285.78 c 12.14,-12.14 12.14,-31.82 0,-43.97 L 981.95,14.53 C 969.81,2.39 950.13,2.39 937.98,14.53 L 652.2,300.31 c -12.14,12.14 -12.14,31.82 0,43.97 l 285.78,285.78 c 12.14,12.14 31.82,12.14 43.97,0 m -8.79,-8.8 285.78,-285.78 c 7.28,-7.28 7.28,-19.09 0,-26.38 L 973.16,23.33 c -7.28,-7.28 -19.09,-7.28 -26.38,0 L 661,309.11 c -7.28,7.28 -7.28,19.09 0,26.38 l 285.78,285.78 c 7.28,7.28 19.09,7.28 26.38,0 z"
         id="path3" />
    </g>
    <g
       id="HATCH-3"
       data-name="HATCH">
      <path
         class="cls-4"
         d="m 904.35,122.83 c 4.29,4.87 5.73,11.62 3.8,17.82 -0.18,0.34 -0.04,0.76 0.3,0.94 0.08,0.04 0.17,0.07 0.26,0.07 l 2.87,0.04 c 1.36,0.14 2.62,-0.74 2.96,-2.07 3.9,-7.7 5.46,-16.38 4.48,-24.96 0.02,-0.27 0.15,-0.52 0.37,-0.68 0.41,-0.3 0.99,-0.22 1.29,0.19 4.08,6.04 4.75,13.76 1.76,20.41 -0.63,0.86 -0.45,2.07 0.41,2.7 0.65,0.48 1.54,0.5 2.22,0.05 3.86,-2.16 6.71,-5.75 7.93,-10 0.53,-1.83 1.34,-3.57 2.41,-5.15 0.09,-0.14 0.23,-0.25 0.4,-0.31 0.41,-0.15 0.87,0.07 1.01,0.48 1.39,4.98 0.59,10.32 -2.21,14.67 -2.96,3.49 -6.85,6.06 -11.22,7.41 -8.98,3.43 -16.53,9.8 -21.43,18.07 -2.82,4.99 -1.07,11.32 3.92,14.14 0.91,0.51 1.89,0.89 2.91,1.11 2.69,0.36 5.32,1.05 7.83,2.06 4.15,-2.9 8.88,-4.86 13.86,-5.74 0.83,-0.27 1.73,-0.15 2.45,0.33 1.29,0.87 1.63,2.61 0.76,3.9 -1.46,1.68 -2.6,3.61 -3.37,5.7 -2.5,4.74 -7.34,7.78 -12.7,7.99 -0.79,0.81 -1.16,1.93 -1.01,3.05 1.03,16.52 2.3,33.02 3.81,49.51 6.86,8.85 14.91,16.71 23.92,23.36 21.01,13.93 43.55,25.4 67.18,34.19 6.28,1.79 11.76,5.67 15.53,11 3.7,-4.76 6.56,-10.11 8.45,-15.84 0.14,-0.56 0.53,-1.03 1.06,-1.26 0.94,-0.41 2.03,0.01 2.45,0.95 4.77,9.15 3.01,20.33 -4.34,27.57 2.53,8.7 2.53,17.95 0,26.66 l -3.81,19.04 c -2.1,11.44 1.67,23.17 10.04,31.26 4.26,3.6 8.22,7.54 11.86,11.77 2.17,2.07 3.11,5.12 2.47,8.05 -2.2,4.91 -3.17,10.28 -2.83,15.64 v 15.98 c 1.27,7.09 5.76,13.19 12.15,16.51 l -3.22,15.04 -7.03,-9.92 -10.36,-8.21 c -0.56,-0.48 -0.92,-1.14 -1.04,-1.86 -0.72,-3.31 -0.87,-6.71 -0.43,-10.07 1.06,-6.14 1.22,-12.4 0.47,-18.58 -1.16,-12.04 -8.66,-22.54 -19.68,-27.53 L 997.93,395.2 c -12.97,-7.8 -23.36,-19.26 -29.86,-32.93 -0.42,-1.05 -1.19,-1.92 -2.17,-2.49 -6.8,-3.61 -14.28,-5.75 -21.96,-6.26 -15.69,-0.8 -31.04,-4.85 -45.09,-11.89 -6.96,-4.98 -15.15,-7.97 -23.69,-8.63 -7.16,-0.92 -13.91,-3.86 -19.47,-8.48 l -22.85,-22.85 c -2.24,-1.4 -5.19,-0.71 -6.58,1.53 -0.48,0.76 -0.73,1.65 -0.72,2.55 -0.65,8.09 -0.68,16.21 -0.08,24.3 2.68,3.11 5.76,5.85 9.14,8.17 0.64,0.33 0.96,1.06 0.78,1.76 l -0.49,1.61 c -0.17,0.76 0.3,1.51 1.06,1.68 0.16,0.04 0.32,0.04 0.49,0.02 l 6.78,0.8 -1.07,17.81 c -4.39,-6.75 -9.86,-12.74 -16.19,-17.71 -3.19,-1.51 -5.76,-4.07 -7.28,-7.26 -2.18,-9.13 -3.4,-18.46 -3.62,-27.85 -0.3,-4.11 -0.99,-8.19 -2.05,-12.18 -0.44,-2.13 -0.54,-4.31 -0.3,-6.47 0,-0.02 0,-0.04 0,-0.06 0.27,-2.44 2.46,-4.21 4.9,-3.94 l 38.08,7.62 c 5.55,-12.5 10.63,-25.2 15.23,-38.08 1.41,-3.14 2.25,-6.52 2.48,-9.95 l 5.13,-35.74 c -4.42,0.69 -8.95,-0.16 -12.83,-2.4 -2.63,-0.86 -5.43,-1.02 -8.14,-0.47 -4.32,0.44 -8.36,-2.23 -9.65,-6.38 -1.5,-4.82 1.19,-9.95 6.01,-11.45 13.1,-3.95 26.4,-7.2 39.84,-9.76 1.46,-3.43 1.19,-7.36 -0.73,-10.56 l -5.78,-8.9 c -5.68,-6.85 -7.14,-16.28 -3.79,-24.53 0.05,-0.13 0.16,-0.24 0.3,-0.28 0.25,-0.08 0.52,0.05 0.61,0.3 0.42,1.19 0.61,2.44 0.57,3.7 0.48,5.81 2.63,11.36 6.19,15.98 0.18,0.46 0.7,0.7 1.16,0.52 0.33,-0.12 0.56,-0.43 0.58,-0.78 1.94,-4.27 4.87,-8.01 8.55,-10.92 2.38,-6.5 2.77,-13.56 1.12,-20.29 -0.24,-0.45 -0.15,-1.01 0.24,-1.35 0.46,-0.4 1.15,-0.36 1.56,0.09 z"
         id="path4" />
    </g>
    <g
       id="LWPOLYLINE">
      <rect
         class="cls-2"
         x="739.23999"
         y="101.57"
         width="441.45999"
         height="441.45999"
         rx="18.65"
         ry="18.65"
         transform="rotate(-45,959.96996,322.29742)"
         id="rect4" />
    </g>
    <g
       id="LWPOLYLINE-2"
       data-name="LWPOLYLINE">
      <rect
         class="cls-2"
         x="726.81"
         y="89.129997"
         width="466.32999"
         height="466.32999"
         rx="31.09"
         ry="31.09"
         transform="rotate(-45,959.96996,322.29742)"
         id="rect5" />
    </g>
    <g
       id="LWPOLYLINE-3"
       data-name="LWPOLYLINE">
      <path
         class="cls-2"
         d="m 904.35,122.83 c 4.29,4.87 5.73,11.62 3.8,17.82 -0.18,0.34 -0.04,0.76 0.3,0.94 0.08,0.04 0.17,0.07 0.26,0.07 l 2.87,0.04 c 1.36,0.14 2.62,-0.74 2.96,-2.07 3.9,-7.7 5.46,-16.38 4.48,-24.96 0.02,-0.27 0.15,-0.52 0.37,-0.68 0.41,-0.3 0.99,-0.22 1.29,0.19 4.08,6.04 4.75,13.76 1.76,20.41 -0.63,0.86 -0.45,2.07 0.41,2.7 0.65,0.48 1.54,0.5 2.22,0.05 3.86,-2.16 6.71,-5.75 7.93,-10 0.53,-1.83 1.34,-3.57 2.41,-5.15 0.09,-0.14 0.23,-0.25 0.4,-0.31 0.41,-0.15 0.87,0.07 1.01,0.48 1.39,4.98 0.59,10.32 -2.21,14.67 -2.96,3.49 -6.85,6.06 -11.22,7.41 -8.98,3.43 -16.53,9.8 -21.43,18.07 -2.82,4.99 -1.07,11.32 3.92,14.14 0.91,0.51 1.89,0.89 2.91,1.11 2.69,0.36 5.32,1.05 7.83,2.06 4.15,-2.9 8.88,-4.86 13.86,-5.74 0.83,-0.27 1.73,-0.15 2.45,0.33 1.29,0.87 1.63,2.61 0.76,3.9 -1.46,1.68 -2.6,3.61 -3.37,5.7 -2.5,4.74 -7.34,7.78 -12.7,7.99 -0.79,0.81 -1.16,1.93 -1.01,3.05 1.03,16.52 2.3,33.02 3.81,49.51 6.86,8.85 14.91,16.71 23.92,23.36 21.01,13.93 43.55,25.4 67.18,34.19 6.28,1.79 11.76,5.67 15.53,11 3.7,-4.76 6.56,-10.11 8.45,-15.84 0.14,-0.56 0.53,-1.03 1.06,-1.26 0.94,-0.41 2.03,0.01 2.45,0.95 4.77,9.15 3.01,20.33 -4.34,27.57 2.53,8.7 2.53,17.95 0,26.66 l -3.81,19.04 c -2.1,11.44 1.67,23.17 10.04,31.26 4.26,3.6 8.22,7.54 11.86,11.77 2.17,2.07 3.11,5.12 2.47,8.05 -2.2,4.91 -3.17,10.28 -2.83,15.64 v 15.98 c 1.27,7.09 5.76,13.19 12.15,16.51 l -3.22,15.04 -7.03,-9.92 -10.36,-8.21 c -0.56,-0.48 -0.92,-1.14 -1.04,-1.86 -0.72,-3.31 -0.87,-6.71 -0.43,-10.07 1.06,-6.14 1.22,-12.4 0.47,-18.58 -1.16,-12.04 -8.66,-22.54 -19.68,-27.53 L 997.93,395.2 c -12.97,-7.8 -23.36,-19.26 -29.86,-32.93 -0.42,-1.05 -1.19,-1.92 -2.17,-2.49 -6.8,-3.61 -14.28,-5.75 -21.96,-6.26 -15.69,-0.8 -31.04,-4.85 -45.09,-11.89 -6.96,-4.98 -15.15,-7.97 -23.69,-8.63 -7.16,-0.92 -13.91,-3.86 -19.47,-8.48 l -22.85,-22.85 c -2.24,-1.4 -5.19,-0.71 -6.58,1.53 -0.48,0.76 -0.73,1.65 -0.72,2.55 -0.65,8.09 -0.68,16.21 -0.08,24.3 2.68,3.11 5.76,5.85 9.14,8.17 0.64,0.33 0.96,1.06 0.78,1.76 l -0.49,1.61 c -0.17,0.76 0.3,1.51 1.06,1.68 0.16,0.04 0.32,0.04 0.49,0.02 l 6.78,0.8 -1.07,17.81 c -4.39,-6.75 -9.86,-12.74 -16.19,-17.71 -3.19,-1.51 -5.76,-4.07 -7.28,-7.26 -2.18,-9.13 -3.4,-18.46 -3.62,-27.85 -0.3,-4.11 -0.99,-8.19 -2.05,-12.18 -0.44,-2.13 -0.54,-4.31 -0.3,-6.47 0,-0.02 0,-0.04 0,-0.06 0.27,-2.44 2.46,-4.21 4.9,-3.94 l 38.08,7.62 c 5.55,-12.5 10.63,-25.2 15.23,-38.08 1.41,-3.14 2.25,-6.52 2.48,-9.95 l 5.13,-35.74 c -4.42,0.69 -8.95,-0.16 -12.83,-2.4 -2.63,-0.86 -5.43,-1.02 -8.14,-0.47 -4.32,0.44 -8.36,-2.23 -9.65,-6.38 -1.5,-4.82 1.19,-9.95 6.01,-11.45 13.1,-3.95 26.4,-7.2 39.84,-9.76 1.46,-3.43 1.19,-7.36 -0.73,-10.56 l -5.78,-8.9 c -5.68,-6.85 -7.14,-16.28 -3.79,-24.53 0.05,-0.13 0.16,-0.24 0.3,-0.28 0.25,-0.08 0.52,0.05 0.61,0.3 0.42,1.19 0.61,2.44 0.57,3.7 0.48,5.81 2.63,11.36 6.19,15.98 0.18,0.46 0.7,0.7 1.16,0.52 0.33,-0.12 0.56,-0.43 0.58,-0.78 1.94,-4.27 4.87,-8.01 8.55,-10.92 2.38,-6.5 2.77,-13.56 1.12,-20.29 -0.24,-0.45 -0.15,-1.01 0.24,-1.35 0.46,-0.4 1.15,-0.36 1.56,0.09 z"
         id="path5" />
    </g>
  </g>
</svg>
