<?xml version="1.0" encoding="UTF-8" standalone="no"?>
<svg
   viewBox="0 0 634.78271 634.78269"
   version="1.1"
   id="svg7"
   sodipodi:docname="SP-46_30x30.svg"
   width="634.78271"
   height="634.78271"
   inkscape:version="1.5-dev (9bf5e73, 2025-04-11, custom)"
   xmlns:inkscape="http://www.inkscape.org/namespaces/inkscape"
   xmlns:sodipodi="http://sodipodi.sourceforge.net/DTD/sodipodi-0.dtd"
   xmlns="http://www.w3.org/2000/svg"
   xmlns:svg="http://www.w3.org/2000/svg">
  <sodipodi:namedview
     id="namedview7"
     pagecolor="#ffffff00"
     bordercolor="#111111ff"
     borderopacity="1"
     inkscape:showpageshadow="0"
     inkscape:pageopacity="0"
     inkscape:pagecheckerboard="1"
     inkscape:deskcolor="#d1d1d1ff"
     showgrid="false"
     inkscape:zoom="0.72665625"
     inkscape:cx="317.20638"
     inkscape:cy="538.76919"
     inkscape:window-width="1920"
     inkscape:window-height="1032"
     inkscape:window-maximized="1"
     inkscape:current-layer="svg7" />
  <defs
     id="defs1">
    <style
       id="style1">
      .cls-1 {
        fill: #fff;
      }

      .cls-1, .cls-2 {
        stroke: #000;
      }

      .cls-1, .cls-2, .cls-3 {
        stroke-linecap: round;
        stroke-linejoin: round;
      }

      .cls-2, .cls-3 {
        fill: none;
      }

      .cls-3 {
        stroke: #bd2025;
      }

      .cls-4 {
        fill: #ffca06;
      }

      .cls-5 {
        fill-rule: evenodd;
      }

      .cls-6 {
        fill: #bd2025;
      }

      .cls-7 {
        font-family: ArialMT, Arial;
        font-size: 131.73px;
      }
    </style>
  </defs>
  <g
     id="sp_Fondo_del_tablero"
     data-name="sp_Fondo del tablero"
     transform="translate(-100.64066,-6.5399077)">
    <g
       id="HATCH">
      <rect
         class="cls-4"
         x="197.31"
         y="103.21"
         width="441.45999"
         height="441.45999"
         rx="18.65"
         ry="18.65"
         transform="rotate(-45,418.02898,323.93673)"
         id="rect3" />
    </g>
  </g>
  <g
     id="sp_Pictograma_y_filete"
     data-name="sp_Pictograma y filete"
     transform="translate(-100.64066,-6.5399077)">
    <g
       id="HATCH-2"
       data-name="HATCH">
      <path
         class="cls-5"
         d="M 431.22,622.9 717,337.12 c 7.28,-7.28 7.28,-19.09 0,-26.38 L 431.22,24.97 c -7.28,-7.28 -19.09,-7.28 -26.38,0 L 119.07,310.75 c -7.28,7.28 -7.28,19.09 0,26.38 l 285.78,285.78 c 7.28,7.28 19.09,7.28 26.38,0 m 8.79,8.79 285.78,-285.78 c 12.14,-12.14 12.14,-31.82 0,-43.97 L 440.02,16.18 C 427.88,4.04 408.2,4.04 396.05,16.18 L 110.27,301.95 c -12.14,12.14 -12.14,31.82 0,43.97 L 396.05,631.7 c 12.14,12.14 31.82,12.14 43.97,0 z"
         id="path3" />
    </g>
    <g
       id="HATCH-3"
       data-name="HATCH">
      <polygon
         class="cls-5"
         points="438.31,344.21 438.31,536.82 367.35,536.82 367.35,111.05 438.31,111.05 438.31,303.66 529.55,303.66 529.55,344.21 "
         id="polygon3" />
    </g>
    <g
       id="LWPOLYLINE">
      <rect
         class="cls-2"
         x="184.87"
         y="90.769997"
         width="466.32999"
         height="466.32999"
         rx="31.09"
         ry="31.09"
         transform="rotate(-45,418.02898,323.93673)"
         id="rect4" />
    </g>
    <g
       id="LWPOLYLINE-2"
       data-name="LWPOLYLINE">
      <rect
         class="cls-2"
         x="197.31"
         y="103.21"
         width="441.45999"
         height="441.45999"
         rx="18.65"
         ry="18.65"
         transform="rotate(-45,418.02898,323.93673)"
         id="rect5" />
    </g>
    <g
       id="LWPOLYLINE-3"
       data-name="LWPOLYLINE">
      <polygon
         class="cls-2"
         points="438.31,344.21 438.31,536.82 367.35,536.82 367.35,111.05 438.31,111.05 438.31,303.66 529.55,303.66 529.55,344.21 "
         id="polygon5" />
    </g>
  </g>
  <g
     id="sp_Pictograma_rojo"
     data-name="sp_Pictograma rojo"
     transform="translate(-100.64066,-6.5399077)">
    <g
       id="HATCH-4"
       data-name="HATCH">
      <rect
         class="cls-6"
         x="529.54999"
         y="263.10999"
         width="60.830002"
         height="121.65"
         id="rect6" />
    </g>
    <g
       id="LWPOLYLINE-4"
       data-name="LWPOLYLINE">
      <rect
         class="cls-3"
         x="529.54999"
         y="263.10999"
         width="60.830002"
         height="121.65"
         id="rect7" />
    </g>
  </g>
</svg>
