<?xml version="1.0" encoding="UTF-8" standalone="no"?>
<svg
   viewBox="0 0 634.78265 634.78263"
   version="1.1"
   id="svg163"
   width="634.78265"
   height="634.78265"
   xmlns="http://www.w3.org/2000/svg"
   xmlns:svg="http://www.w3.org/2000/svg">
  <defs
     id="defs4">
    <style
       id="style2">.cls-1{fill:#fff;}.cls-1,.cls-2{stroke:#000;stroke-linecap:round;stroke-linejoin:round;}.cls-2{fill:none;}.cls-3{fill:#ffca06;}.cls-4{fill-rule:evenodd;}</style>
  </defs>
  <g
     id="sp_x5F_Fondo_del_tablero"
     transform="translate(-100.64067,-6.539917)">
    <g
       id="HATCH">
      <rect
         class="cls-3"
         x="197.31"
         y="103.21"
         width="441.45999"
         height="441.45999"
         rx="18.65"
         ry="18.65"
         transform="rotate(-45,418.02898,323.93673)"
         id="rect12" />
    </g>
  </g>
  <g
     id="sp_x5F_Pictograma_y_filete"
     transform="translate(-100.64067,-6.539917)">
    <g
       id="HATCH-2">
      <path
         class="cls-4"
         d="M 431.22,622.9 717,337.12 c 7.28,-7.28 7.28,-19.09 0,-26.38 L 431.22,24.97 c -7.28,-7.28 -19.09,-7.28 -26.38,0 L 119.07,310.75 c -7.28,7.28 -7.28,19.09 0,26.38 l 285.78,285.78 c 7.28,7.28 19.09,7.28 26.38,0 m 8.79,8.79 285.78,-285.78 c 12.14,-12.14 12.14,-31.82 0,-43.97 L 440.02,16.18 C 427.88,4.04 408.2,4.04 396.05,16.18 L 110.27,301.95 c -12.14,12.14 -12.14,31.82 0,43.97 L 396.05,631.7 c 12.14,12.14 31.82,12.14 43.97,0 z"
         id="path16" />
    </g>
    <g
       id="HATCH-3">
      <path
         class="cls-4"
         d="M 565.03,430.42 H 271.04 v 10.14 h 293.99 v -10.14 m 60.82,-76.03 c 0,-2.8 -2.27,-5.07 -5.07,-5.07 -2.8,0 -5.07,2.27 -5.07,5.07 0,2.8 2.27,5.07 5.07,5.07 2.8,0 5.07,-2.27 5.07,-5.07 m 0,40.55 c 0,-2.8 -2.27,-5.07 -5.07,-5.07 -2.8,0 -5.07,2.27 -5.07,5.07 0,2.8 2.27,5.07 5.07,5.07 2.8,0 5.07,-2.27 5.07,-5.07 M 382.55,273.29 c 0,-2.8 -2.27,-5.07 -5.07,-5.07 -2.8,0 -5.07,2.27 -5.07,5.07 0,2.8 2.27,5.07 5.07,5.07 2.8,0 5.07,-2.27 5.07,-5.07 m 0,-162.2 c 0,-2.8 -2.27,-5.07 -5.07,-5.07 -2.8,0 -5.07,2.27 -5.07,5.07 0,2.8 2.27,5.07 5.07,5.07 2.8,0 5.07,-2.27 5.07,-5.07 M 342,151.64 c 0,-2.8 -2.27,-5.07 -5.07,-5.07 -2.8,0 -5.07,2.27 -5.07,5.07 0,2.8 2.27,5.07 5.07,5.07 2.8,0 5.07,-2.27 5.07,-5.07 m 243.3,243.3 c 0,-2.8 -2.27,-5.07 -5.07,-5.07 -2.8,0 -5.07,2.27 -5.07,5.07 0,2.8 2.27,5.07 5.07,5.07 2.8,0 5.07,-2.27 5.07,-5.07 M 382.55,151.64 c 0,-2.8 -2.27,-5.07 -5.07,-5.07 -2.8,0 -5.07,2.27 -5.07,5.07 0,2.8 2.27,5.07 5.07,5.07 2.8,0 5.07,-2.27 5.07,-5.07 m 81.1,0 c 0,-2.8 -2.27,-5.07 -5.07,-5.07 -2.8,0 -5.07,2.27 -5.07,5.07 0,2.8 2.27,5.07 5.07,5.07 2.8,0 5.07,-2.27 5.07,-5.07 M 423.1,111.09 c 0,-2.8 -2.27,-5.07 -5.07,-5.07 -2.8,0 -5.07,2.27 -5.07,5.07 0,2.8 2.27,5.07 5.07,5.07 2.8,0 5.07,-2.27 5.07,-5.07 m 0,40.55 c 0,-2.8 -2.27,-5.07 -5.07,-5.07 -2.8,0 -5.07,2.27 -5.07,5.07 0,2.8 2.27,5.07 5.07,5.07 2.8,0 5.07,-2.27 5.07,-5.07 m 65.03,208.69 v 6.68 h -30.04 v -13.35 h 23.37 c 3.69,0 6.68,2.99 6.68,6.68 m -140.2,-0.01 v 6.68 c 0,0 30.04,0 30.04,0 v -13.35 h -23.37 c -3.69,0 -6.68,2.99 -6.68,6.68 m 50.08,-3.35 h 40.06 v 16.69 h -40.06 v -16.69 m 70.09,73.43 h 10.01 c 3.69,0 6.68,-2.99 6.68,-6.68 v -20.03 h 6.68 c 3.69,0 6.68,-2.99 6.68,-6.68 v -40.06 c 0,-7.37 -5.98,-13.35 -13.35,-13.35 l -6.97,-36.51 c -1.5,-7.87 -8.38,-13.56 -16.39,-13.56 h -86.79 c -8.01,0 -14.89,5.69 -16.39,13.56 l -6.97,36.51 c -7.37,0 -13.35,5.98 -13.35,13.35 v 40.06 c 0,3.69 2.99,6.68 6.68,6.68 h 6.68 v 20.03 c 0,3.69 2.99,6.68 6.68,6.68 h 10.01 c 3.69,0 6.68,-2.99 6.68,-6.68 v -20.03 h 86.79 v 20.03 c 0,3.69 2.99,6.68 6.68,6.68 M 368,309.6 l -3.37,34.04 h 106.82 l -3.37,-34.04 c -0.34,-3.42 -3.21,-6.02 -6.64,-6.02 h -86.79 c -3.43,0 -6.31,2.6 -6.64,6.02 m 123.46,87.44 v -6.68 H 344.6 v 6.68 H 491.47 M 342,192.19 c 0,-2.8 -2.27,-5.07 -5.07,-5.07 -2.8,0 -5.07,2.27 -5.07,5.07 0,2.8 2.27,5.07 5.07,5.07 2.8,0 5.07,-2.27 5.07,-5.07 m 243.3,121.65 c 0,-2.8 -2.27,-5.07 -5.07,-5.07 -2.8,0 -5.07,2.27 -5.07,5.07 0,2.8 2.27,5.07 5.07,5.07 2.8,0 5.07,-2.27 5.07,-5.07 m 0,40.55 c 0,-2.8 -2.27,-5.07 -5.07,-5.07 -2.8,0 -5.07,2.27 -5.07,5.07 0,2.8 2.27,5.07 5.07,5.07 2.8,0 5.07,-2.27 5.07,-5.07 m -40.55,0 c 0,-2.8 -2.27,-5.07 -5.07,-5.07 -2.8,0 -5.07,2.27 -5.07,5.07 0,2.8 2.27,5.07 5.07,5.07 2.8,0 5.07,-2.27 5.07,-5.07 m 0,-81.1 c 0,-2.8 -2.27,-5.07 -5.07,-5.07 -2.8,0 -5.07,2.27 -5.07,5.07 0,2.8 2.27,5.07 5.07,5.07 2.8,0 5.07,-2.27 5.07,-5.07 m 0,40.55 c 0,-2.8 -2.27,-5.07 -5.07,-5.07 -2.8,0 -5.07,2.27 -5.07,5.07 0,2.8 2.27,5.07 5.07,5.07 2.8,0 5.07,-2.27 5.07,-5.07 m -40.55,0 c 0,-2.8 -2.27,-5.07 -5.07,-5.07 -2.8,0 -5.07,2.27 -5.07,5.07 0,2.8 2.27,5.07 5.07,5.07 2.8,0 5.07,-2.27 5.07,-5.07 m 0,-121.65 c 0,-2.8 -2.27,-5.07 -5.07,-5.07 -2.8,0 -5.07,2.27 -5.07,5.07 0,2.8 2.27,5.07 5.07,5.07 2.8,0 5.07,-2.27 5.07,-5.07 m 0,40.55 c 0,-2.8 -2.27,-5.07 -5.07,-5.07 -2.8,0 -5.07,2.27 -5.07,5.07 0,2.8 2.27,5.07 5.07,5.07 2.8,0 5.07,-2.27 5.07,-5.07 m 0,40.55 c 0,-2.8 -2.27,-5.07 -5.07,-5.07 -2.8,0 -5.07,2.27 -5.07,5.07 0,2.8 2.27,5.07 5.07,5.07 2.8,0 5.07,-2.27 5.07,-5.07 m -40.55,-81.1 c 0,-2.8 -2.27,-5.07 -5.07,-5.07 -2.8,0 -5.07,2.27 -5.07,5.07 0,2.8 2.27,5.07 5.07,5.07 2.8,0 5.07,-2.27 5.07,-5.07 m 0,40.55 c 0,-2.8 -2.27,-5.07 -5.07,-5.07 -2.8,0 -5.07,2.27 -5.07,5.07 0,2.8 2.27,5.07 5.07,5.07 2.8,0 5.07,-2.27 5.07,-5.07 m 0,40.55 c 0,-2.8 -2.27,-5.07 -5.07,-5.07 -2.8,0 -5.07,2.27 -5.07,5.07 0,2.8 2.27,5.07 5.07,5.07 2.8,0 5.07,-2.27 5.07,-5.07 m -40.55,-81.1 c 0,-2.8 -2.27,-5.07 -5.07,-5.07 -2.8,0 -5.07,2.27 -5.07,5.07 0,2.8 2.27,5.07 5.07,5.07 2.8,0 5.07,-2.27 5.07,-5.07 m 0,40.55 c 0,-2.8 -2.27,-5.07 -5.07,-5.07 -2.8,0 -5.07,2.27 -5.07,5.07 0,2.8 2.27,5.07 5.07,5.07 2.8,0 5.07,-2.27 5.07,-5.07 m 0,40.55 c 0,-2.8 -2.27,-5.07 -5.07,-5.07 -2.8,0 -5.07,2.27 -5.07,5.07 0,2.8 2.27,5.07 5.07,5.07 2.8,0 5.07,-2.27 5.07,-5.07 m -40.55,-81.1 c 0,-2.8 -2.27,-5.07 -5.07,-5.07 -2.8,0 -5.07,2.27 -5.07,5.07 0,2.8 2.27,5.07 5.07,5.07 2.8,0 5.07,-2.27 5.07,-5.07 m 0,40.55 c 0,-2.8 -2.27,-5.07 -5.07,-5.07 -2.8,0 -5.07,2.27 -5.07,5.07 0,2.8 2.27,5.07 5.07,5.07 2.8,0 5.07,-2.27 5.07,-5.07 z"
         id="path19" />
    </g>
    <g
       id="LWPOLYLINE">
      <rect
         class="cls-2"
         x="197.31"
         y="103.21"
         width="441.45999"
         height="441.45999"
         rx="18.65"
         ry="18.65"
         transform="rotate(-45,418.02898,323.93673)"
         id="rect22" />
    </g>
    <g
       id="LWPOLYLINE-2">
      <rect
         class="cls-2"
         x="184.87"
         y="90.769997"
         width="466.32999"
         height="466.32999"
         rx="31.09"
         ry="31.09"
         transform="rotate(-45,418.02898,323.93673)"
         id="rect25" />
    </g>
    <g
       id="LWPOLYLINE-3">
      <polyline
         class="cls-2"
         points="398.01 356.99 438.06 356.99 438.06 373.68 398.01 373.68 398.01 356.99"
         id="polyline28" />
    </g>
    <g
       id="LWPOLYLINE-4">
      <rect
         class="cls-2"
         x="344.60001"
         y="390.37"
         width="146.87"
         height="6.6799998"
         id="rect31" />
    </g>
    <g
       id="LWPOLYLINE-5">
      <path
         class="cls-2"
         d="m 488.13,360.33 v 6.68 h -30.04 v -13.35 h 23.37 c 3.69,0 6.68,2.99 6.68,6.68 z"
         id="path34" />
    </g>
    <g
       id="LWPOLYLINE-6">
      <path
         class="cls-2"
         d="m 368,309.6 -3.37,34.04 h 106.82 l -3.37,-34.04 c -0.34,-3.42 -3.21,-6.02 -6.64,-6.02 h -86.79 c -3.43,0 -6.31,2.6 -6.64,6.02 z"
         id="path37" />
    </g>
    <g
       id="LWPOLYLINE-7">
      <path
         class="cls-2"
         d="m 468.1,430.42 h 10.01 c 3.69,0 6.68,-2.99 6.68,-6.68 v -20.03 h 6.68 c 3.69,0 6.68,-2.99 6.68,-6.68 v -40.06 c 0,-7.37 -5.98,-13.35 -13.35,-13.35 l -6.97,-36.51 c -1.5,-7.87 -8.38,-13.56 -16.39,-13.56 h -86.79 c -8.01,0 -14.89,5.69 -16.39,13.56 l -6.97,36.51 c -7.37,0 -13.35,5.98 -13.35,13.35 v 40.06 c 0,3.69 2.99,6.68 6.68,6.68 h 6.68 v 20.03 c 0,3.69 2.99,6.68 6.68,6.68 h 10.01 c 3.69,0 6.68,-2.99 6.68,-6.68 v -20.03 h 86.79 v 20.03 c 0,3.69 2.99,6.68 6.68,6.68 z"
         id="path40" />
    </g>
    <g
       id="LWPOLYLINE-8">
      <path
         class="cls-2"
         d="m 347.94,360.33 v 6.68 c 0,0 30.04,0 30.04,0 v -13.35 h -23.37 c -3.69,0 -6.68,2.99 -6.68,6.68 z"
         id="path43" />
    </g>
    <g
       id="LWPOLYLINE-9">
      <rect
         class="cls-2"
         x="271.04001"
         y="430.42001"
         width="293.98999"
         height="10.14"
         id="rect46" />
    </g>
    <g
       id="LWPOLYLINE-10">
      <rect
         class="cls-2"
         x="271.04001"
         y="430.42001"
         width="293.98999"
         height="10.14"
         id="rect49" />
    </g>
    <g
       id="CIRCLE">
      <circle
         class="cls-2"
         cx="377.48001"
         cy="232.74001"
         r="5.0700002"
         id="circle52" />
    </g>
    <g
       id="CIRCLE-2">
      <circle
         class="cls-2"
         cx="377.48001"
         cy="192.19"
         r="5.0700002"
         id="circle55" />
    </g>
    <g
       id="CIRCLE-3">
      <circle
         class="cls-2"
         cx="418.04001"
         cy="273.29001"
         r="5.0700002"
         id="circle58" />
    </g>
    <g
       id="CIRCLE-4">
      <circle
         class="cls-2"
         cx="418.04001"
         cy="232.74001"
         r="5.0700002"
         id="circle61" />
    </g>
    <g
       id="CIRCLE-5">
      <circle
         class="cls-2"
         cx="418.04001"
         cy="192.19"
         r="5.0700002"
         id="circle64" />
    </g>
    <g
       id="CIRCLE-6">
      <circle
         class="cls-2"
         cx="458.59"
         cy="273.29001"
         r="5.0700002"
         id="circle67" />
    </g>
    <g
       id="CIRCLE-7">
      <circle
         class="cls-2"
         cx="458.59"
         cy="232.74001"
         r="5.0700002"
         id="circle70" />
    </g>
    <g
       id="CIRCLE-8">
      <circle
         class="cls-2"
         cx="458.59"
         cy="192.19"
         r="5.0700002"
         id="circle73" />
    </g>
    <g
       id="CIRCLE-9">
      <circle
         class="cls-2"
         cx="499.14001"
         cy="273.29001"
         r="5.0700002"
         id="circle76" />
    </g>
    <g
       id="CIRCLE-10">
      <circle
         class="cls-2"
         cx="499.14001"
         cy="232.74001"
         r="5.0700002"
         id="circle79" />
    </g>
    <g
       id="CIRCLE-11">
      <circle
         class="cls-2"
         cx="499.14001"
         cy="192.19"
         r="5.0700002"
         id="circle82" />
    </g>
    <g
       id="CIRCLE-12">
      <circle
         class="cls-2"
         cx="499.14001"
         cy="313.84"
         r="5.0700002"
         id="circle85" />
    </g>
    <g
       id="CIRCLE-13">
      <circle
         class="cls-2"
         cx="539.69"
         cy="313.84"
         r="5.0700002"
         id="circle88" />
    </g>
    <g
       id="CIRCLE-14">
      <circle
         class="cls-2"
         cx="539.69"
         cy="273.29001"
         r="5.0700002"
         id="circle91" />
    </g>
    <g
       id="CIRCLE-15">
      <circle
         class="cls-2"
         cx="539.69"
         cy="354.39001"
         r="5.0700002"
         id="circle94" />
    </g>
    <g
       id="CIRCLE-16">
      <circle
         class="cls-2"
         cx="580.23999"
         cy="354.39001"
         r="5.0700002"
         id="circle97" />
    </g>
    <g
       id="CIRCLE-17">
      <circle
         class="cls-2"
         cx="580.23999"
         cy="313.84"
         r="5.0700002"
         id="circle100" />
    </g>
    <g
       id="CIRCLE-18">
      <circle
         class="cls-2"
         cx="336.92999"
         cy="192.19"
         r="5.0700002"
         id="circle103" />
    </g>
    <g
       id="CIRCLE-19">
      <circle
         class="cls-2"
         cx="418.04001"
         cy="151.64"
         r="5.0700002"
         id="circle106" />
    </g>
    <g
       id="CIRCLE-20">
      <circle
         class="cls-2"
         cx="418.04001"
         cy="111.09"
         r="5.0700002"
         id="circle109" />
    </g>
    <g
       id="CIRCLE-21">
      <circle
         class="cls-2"
         cx="458.59"
         cy="151.64"
         r="5.0700002"
         id="circle112" />
    </g>
    <g
       id="CIRCLE-22">
      <circle
         class="cls-2"
         cx="377.48001"
         cy="151.64"
         r="5.0700002"
         id="circle115" />
    </g>
    <g
       id="CIRCLE-23">
      <circle
         class="cls-2"
         cx="580.23999"
         cy="394.94"
         r="5.0700002"
         id="circle118" />
    </g>
    <g
       id="CIRCLE-24">
      <circle
         class="cls-2"
         cx="336.92999"
         cy="151.64"
         r="5.0700002"
         id="circle121" />
    </g>
    <g
       id="CIRCLE-25">
      <circle
         class="cls-2"
         cx="377.48001"
         cy="111.09"
         r="5.0700002"
         id="circle124" />
    </g>
    <g
       id="CIRCLE-26">
      <circle
         class="cls-2"
         cx="377.48001"
         cy="273.29001"
         r="5.0700002"
         id="circle127" />
    </g>
    <g
       id="CIRCLE-27">
      <circle
         class="cls-2"
         cx="620.78998"
         cy="394.94"
         r="5.0700002"
         id="circle130" />
    </g>
    <g
       id="CIRCLE-28">
      <circle
         class="cls-2"
         cx="620.78998"
         cy="354.39001"
         r="5.0700002"
         id="circle133" />
    </g>
  </g>
</svg>
