<?xml version="1.0" encoding="UTF-8" standalone="no"?>
<svg
   version="1.1"
   viewBox="0 0 634.78265 634.78265"
   id="svg121"
   sodipodi:docname="SP-42_30x30.svg"
   width="634.78265"
   height="634.78265"
   inkscape:version="1.2.2 (b0a8486541, 2022-12-01)"
   xmlns:inkscape="http://www.inkscape.org/namespaces/inkscape"
   xmlns:sodipodi="http://sodipodi.sourceforge.net/DTD/sodipodi-0.dtd"
   xmlns="http://www.w3.org/2000/svg"
   xmlns:svg="http://www.w3.org/2000/svg">
  <sodipodi:namedview
     id="namedview123"
     pagecolor="#ffffff"
     bordercolor="#000000"
     borderopacity="0.25"
     inkscape:showpageshadow="2"
     inkscape:pageopacity="0.0"
     inkscape:pagecheckerboard="0"
     inkscape:deskcolor="#d1d1d1"
     showgrid="false"
     inkscape:zoom="0.7484375"
     inkscape:cx="317.99582"
     inkscape:cy="534.44676"
     inkscape:window-width="1920"
     inkscape:window-height="1014"
     inkscape:window-x="0"
     inkscape:window-y="29"
     inkscape:window-maximized="1"
     inkscape:current-layer="svg121" />
  <defs
     id="defs4">
    <style
       id="style2">
      .cls-1 {
        fill: #fff;
      }

      .cls-1, .cls-2 {
        stroke: #000;
        stroke-linecap: round;
        stroke-linejoin: round;
      }

      .cls-2 {
        fill: none;
      }

      .cls-3 {
        fill: #ffca06;
      }

      .cls-4 {
        fill-rule: evenodd;
      }
    </style>
  </defs>
  <!-- Generator: Adobe Illustrator 28.6.0, SVG Export Plug-In . SVG Version: 1.2.0 Build 709)  -->
  <g
     id="sp_x5F_Fondo_del_tablero"
     transform="translate(-642.58046,-4.9008088)">
    <g
       id="HATCH">
      <rect
         class="cls-3"
         x="739.23999"
         y="101.57"
         width="441.45999"
         height="441.45999"
         rx="18.65"
         ry="18.65"
         transform="rotate(-45,959.96996,322.29742)"
         id="rect12" />
    </g>
  </g>
  <g
     id="sp_x5F_Pictograma_y_filete"
     transform="translate(-642.58046,-4.9008088)">
    <g
       id="HATCH-2"
       data-name="HATCH">
      <path
         class="cls-4"
         d="m 981.95,630.05 285.78,-285.78 c 12.14,-12.14 12.14,-31.82 0,-43.97 L 981.95,14.53 C 969.81,2.39 950.13,2.39 937.98,14.53 L 652.2,300.31 c -12.14,12.14 -12.14,31.82 0,43.97 l 285.78,285.78 c 12.14,12.14 31.82,12.14 43.97,0 m -8.79,-8.8 285.78,-285.78 c 7.28,-7.28 7.28,-19.09 0,-26.38 L 973.16,23.33 c -7.28,-7.28 -19.09,-7.28 -26.38,0 L 661,309.11 c -7.28,7.28 -7.28,19.09 0,26.38 l 285.78,285.78 c 7.28,7.28 19.09,7.28 26.38,0 z"
         id="path16" />
    </g>
    <g
       id="HATCH-3"
       data-name="HATCH">
      <path
         class="cls-4"
         d="m 1072.74,408.46 c 7.7,-10.08 14.01,-21.14 18.77,-32.9 l 33.36,12.14 c -2.83,7.12 -6.11,14.06 -9.83,20.75 h -42.3 M 848.06,235.01 c -8.09,10.37 -14.7,21.82 -19.64,34.01 l -33.36,-12.14 c 6.38,-16.07 15.07,-31.13 25.8,-44.69 l 27.19,22.82 m 243.47,34.01 c -4.94,-12.19 -11.55,-23.64 -19.64,-34.01 l 27.19,-22.82 c 10.73,13.56 19.43,28.62 25.8,44.69 l -33.36,12.14 m -165.66,79.11 h -19.9 c -3.14,0 -5.69,2.55 -5.69,5.69 v 5.69 h 25.59 v -11.37 m 96.68,31.27 H 897.42 v 5.69 c 0,0 125.11,0 125.11,0 v -5.69 m -45.5,-28.43 v 14.22 h -34.12 v -14.22 h 34.12 m -54.02,-45.5 c -2.92,0 -5.37,2.22 -5.66,5.13 l -2.87,28.99 h 90.99 l -2.87,-28.99 c -0.29,-2.91 -2.74,-5.13 -5.66,-5.13 h -73.93 m -25.6,85.3 h 5.69 v 17.06 c 0,3.14 2.55,5.69 5.69,5.69 h 8.53 c 3.14,0 5.69,-2.55 5.69,-5.69 v -17.06 h 73.93 c 0,0 0,17.06 0,17.06 0,3.14 2.55,5.69 5.69,5.69 h 8.53 c 3.14,0 5.69,-2.55 5.69,-5.69 v -17.06 h 5.69 c 3.14,0 5.69,-2.55 5.69,-5.69 v -34.12 c 0,-6.28 -5.09,-11.37 -11.37,-11.37 l -5.94,-31.1 c -1.28,-6.7 -7.14,-11.55 -13.96,-11.55 h -73.93 c -6.82,0 -12.68,4.85 -13.96,11.55 l -5.94,31.1 c -6.28,0 -11.37,5.09 -11.37,11.37 v 34.12 c 0,3.14 2.55,5.69 5.69,5.69 m 96.64,-42.65 h 19.9 c 3.14,0 5.69,2.55 5.69,5.69 v 5.69 H 994.09 V 348.14 M 801.94,413.53 H 1118 c 50.39,-87.28 20.49,-198.88 -66.79,-249.27 -87.28,-50.39 -198.88,-20.49 -249.27,66.79 -32.6,56.46 -32.6,126.02 0,182.48 m 293.05,-47.49 c 4.05,-12.51 6.35,-25.53 6.82,-38.68 h 35.5 c -0.49,17.29 -3.51,34.41 -8.96,50.82 l -33.36,-12.14 M 804.9,408.46 c -3.72,-6.7 -7.01,-13.63 -9.83,-20.75 l 33.36,-12.14 c 4.76,11.75 11.07,22.82 18.77,32.9 H 804.9 M 979.61,181.73 c -13.03,-1.82 -26.25,-1.82 -39.28,0 l -6.16,-34.96 c 17.11,-2.52 34.49,-2.52 51.6,0 l -6.16,34.96 M 818.14,327.36 c 0.47,13.15 2.77,26.16 6.82,38.68 l -33.36,12.14 c -5.45,-16.41 -8.47,-33.53 -8.96,-50.82 h 35.5 M 930.35,183.49 c -12.87,2.75 -25.29,7.27 -36.91,13.43 l -17.75,-30.74 c 15.22,-8.22 31.55,-14.16 48.49,-17.65 l 6.16,34.96 m -105.38,95.06 c -4.05,12.51 -6.35,25.53 -6.82,38.68 h -35.5 c 0.49,-17.29 3.51,-34.41 8.96,-50.82 l 33.36,12.14 m 240.4,-51.31 c -8.81,-9.77 -18.94,-18.27 -30.09,-25.25 l 17.75,-30.74 c 14.72,9.07 28.04,20.25 39.53,33.17 l -27.19,22.82 M 884.66,202 c -11.15,6.98 -21.28,15.48 -30.09,25.25 l -27.19,-22.82 c 11.49,-12.92 24.81,-24.1 39.53,-33.17 L 884.66,202 m 141.84,-5.07 c -11.62,-6.17 -24.04,-10.69 -36.91,-13.43 l 6.16,-34.96 c 16.94,3.49 33.27,9.43 48.49,17.65 l -17.75,30.74 m 75.32,120.3 c -0.47,-13.15 -2.77,-26.16 -6.82,-38.68 l 33.36,-12.14 c 5.45,16.41 8.47,33.53 8.96,50.82 z"
         id="path19" />
    </g>
    <g
       id="LWPOLYLINE">
      <rect
         class="cls-2"
         x="726.81"
         y="89.129997"
         width="466.32999"
         height="466.32999"
         rx="31.09"
         ry="31.09"
         transform="rotate(-45,959.96996,322.29742)"
         id="rect22" />
    </g>
    <g
       id="LWPOLYLINE-2"
       data-name="LWPOLYLINE">
      <rect
         class="cls-2"
         x="739.23999"
         y="101.57"
         width="441.45999"
         height="441.45999"
         rx="18.65"
         ry="18.65"
         transform="rotate(-45,959.96996,322.29742)"
         id="rect25" />
    </g>
    <g
       id="LWPOLYLINE-3"
       data-name="LWPOLYLINE">
      <path
         class="cls-2"
         d="m 1101.81,317.23 c -0.47,-13.15 -2.77,-26.16 -6.82,-38.68 l 33.36,-12.14 c 5.45,16.41 8.47,33.53 8.96,50.82 z"
         id="path28" />
    </g>
    <g
       id="LWPOLYLINE-4"
       data-name="LWPOLYLINE">
      <path
         class="cls-2"
         d="m 1026.5,196.93 c -11.62,-6.17 -24.04,-10.69 -36.91,-13.43 l 6.16,-34.96 c 16.94,3.49 33.27,9.43 48.49,17.65 l -17.75,30.74 z"
         id="path31" />
    </g>
    <g
       id="LWPOLYLINE-5"
       data-name="LWPOLYLINE">
      <path
         class="cls-2"
         d="m 884.66,202 c -11.15,6.98 -21.28,15.48 -30.09,25.25 l -27.19,-22.82 c 11.49,-12.92 24.81,-24.1 39.53,-33.17 z"
         id="path34" />
    </g>
    <g
       id="LWPOLYLINE-6"
       data-name="LWPOLYLINE">
      <path
         class="cls-2"
         d="m 1065.36,227.24 c -8.81,-9.77 -18.94,-18.27 -30.09,-25.25 l 17.75,-30.74 c 14.72,9.07 28.04,20.25 39.53,33.17 z"
         id="path37" />
    </g>
    <g
       id="LWPOLYLINE-7"
       data-name="LWPOLYLINE">
      <path
         class="cls-2"
         d="m 824.96,278.55 c -4.05,12.51 -6.35,25.53 -6.82,38.68 h -35.5 c 0.49,-17.29 3.51,-34.41 8.96,-50.82 0,0 33.36,12.14 33.36,12.14 z"
         id="path40" />
    </g>
    <g
       id="LWPOLYLINE-8"
       data-name="LWPOLYLINE">
      <path
         class="cls-2"
         d="m 930.35,183.49 c -12.87,2.75 -25.29,7.27 -36.91,13.43 l -17.75,-30.74 c 15.22,-8.22 31.55,-14.16 48.49,-17.65 l 6.16,34.96 z"
         id="path43" />
    </g>
    <g
       id="LWPOLYLINE-9"
       data-name="LWPOLYLINE">
      <path
         class="cls-2"
         d="m 818.14,327.36 c 0.47,13.15 2.77,26.16 6.82,38.68 l -33.36,12.14 c -5.45,-16.41 -8.47,-33.53 -8.96,-50.82 z"
         id="path46" />
    </g>
    <g
       id="LWPOLYLINE-10"
       data-name="LWPOLYLINE">
      <path
         class="cls-2"
         d="m 979.61,181.73 c -13.03,-1.82 -26.25,-1.82 -39.28,0 l -6.16,-34.96 c 17.11,-2.52 34.49,-2.52 51.6,0 z"
         id="path49" />
    </g>
    <g
       id="LWPOLYLINE-11"
       data-name="LWPOLYLINE">
      <path
         class="cls-2"
         d="m 804.9,408.46 c -3.72,-6.7 -7.01,-13.63 -9.83,-20.75 l 33.36,-12.14 c 4.76,11.75 11.07,22.82 18.77,32.9 h -42.3 z"
         id="path52" />
    </g>
    <g
       id="LWPOLYLINE-12"
       data-name="LWPOLYLINE">
      <path
         class="cls-2"
         d="m 1094.99,366.04 c 4.05,-12.51 6.35,-25.53 6.82,-38.68 h 35.5 c -0.49,17.29 -3.51,34.41 -8.96,50.82 z"
         id="path55" />
    </g>
    <g
       id="LWPOLYLINE-13"
       data-name="LWPOLYLINE">
      <path
         class="cls-2"
         d="M 801.94,413.53 H 1118 c 50.39,-87.28 20.49,-198.88 -66.79,-249.27 -87.28,-50.39 -198.88,-20.49 -249.27,66.79 -32.6,56.46 -32.6,126.02 0,182.48 z"
         id="path58" />
    </g>
    <g
       id="LWPOLYLINE-14"
       data-name="LWPOLYLINE">
      <path
         class="cls-2"
         d="m 994.09,348.13 h 19.9 c 3.14,0 5.69,2.55 5.69,5.69 v 5.69 h -25.59 v -11.37 z"
         id="path61" />
    </g>
    <g
       id="LWPOLYLINE-15"
       data-name="LWPOLYLINE">
      <path
         class="cls-2"
         d="m 897.41,390.78 h 5.69 v 17.06 c 0,3.14 2.55,5.69 5.69,5.69 h 8.53 c 3.14,0 5.69,-2.55 5.69,-5.69 v -17.06 h 73.93 c 0,0 0,17.06 0,17.06 0,3.14 2.55,5.69 5.69,5.69 h 8.53 c 3.14,0 5.69,-2.55 5.69,-5.69 v -17.06 h 5.69 c 3.14,0 5.69,-2.55 5.69,-5.69 v -34.12 c 0,-6.28 -5.09,-11.37 -11.37,-11.37 l -5.94,-31.1 c -1.28,-6.7 -7.14,-11.55 -13.96,-11.55 h -73.93 c -6.82,0 -12.68,4.85 -13.96,11.55 l -5.94,31.1 c -6.28,0 -11.37,5.09 -11.37,11.37 v 34.12 c 0,3.14 2.55,5.69 5.69,5.69"
         id="path64" />
    </g>
    <g
       id="LWPOLYLINE-16"
       data-name="LWPOLYLINE">
      <path
         class="cls-2"
         d="m 923.01,305.48 c -2.92,0 -5.37,2.22 -5.66,5.13 l -2.87,28.99 h 90.99 l -2.87,-28.99 c -0.29,-2.91 -2.74,-5.13 -5.66,-5.13 h -73.93"
         id="path67" />
    </g>
    <g
       id="LWPOLYLINE-17"
       data-name="LWPOLYLINE">
      <rect
         class="cls-2"
         x="942.90997"
         y="350.98001"
         width="34.119999"
         height="14.22"
         id="rect70" />
    </g>
    <g
       id="LWPOLYLINE-18"
       data-name="LWPOLYLINE">
      <rect
         class="cls-2"
         x="897.40997"
         y="379.41"
         width="125.11"
         height="5.6900001"
         id="rect73" />
    </g>
    <g
       id="LWPOLYLINE-19"
       data-name="LWPOLYLINE">
      <path
         class="cls-2"
         d="m 925.85,348.13 h -19.9 c -3.14,0 -5.69,2.55 -5.69,5.69 v 5.69 h 25.59 v -11.37 z"
         id="path76" />
    </g>
    <g
       id="LWPOLYLINE-20"
       data-name="LWPOLYLINE">
      <path
         class="cls-2"
         d="m 1091.52,269.02 c -4.94,-12.19 -11.55,-23.64 -19.64,-34.01 l 27.19,-22.82 c 10.73,13.56 19.43,28.62 25.8,44.69 l -33.36,12.14 z"
         id="path79" />
    </g>
    <g
       id="LWPOLYLINE-21"
       data-name="LWPOLYLINE">
      <path
         class="cls-2"
         d="m 848.06,235.01 c -8.09,10.37 -14.7,21.82 -19.64,34.01 l -33.36,-12.14 c 6.38,-16.07 15.07,-31.13 25.8,-44.69 l 27.19,22.82 z"
         id="path82" />
    </g>
    <g
       id="LWPOLYLINE-22"
       data-name="LWPOLYLINE">
      <path
         class="cls-2"
         d="m 1072.74,408.46 c 7.7,-10.08 14.01,-21.14 18.77,-32.9 l 33.36,12.14 c -2.83,7.12 -6.11,14.06 -9.83,20.75 0,0 -42.3,0 -42.3,0 z"
         id="path85" />
    </g>
  </g>
</svg>
