<?xml version="1.0" encoding="UTF-8" standalone="no"?>
<svg
   viewBox="0 0 634.78271 634.78269"
   version="1.1"
   id="svg22"
   sodipodi:docname="SP-45_30x30.svg"
   width="634.78271"
   height="634.78271"
   inkscape:version="1.5-dev (9bf5e73, 2025-04-11, custom)"
   xmlns:inkscape="http://www.inkscape.org/namespaces/inkscape"
   xmlns:sodipodi="http://sodipodi.sourceforge.net/DTD/sodipodi-0.dtd"
   xmlns="http://www.w3.org/2000/svg"
   xmlns:svg="http://www.w3.org/2000/svg">
  <sodipodi:namedview
     id="namedview22"
     pagecolor="#ffffff"
     bordercolor="#000000"
     borderopacity="0.25"
     inkscape:showpageshadow="2"
     inkscape:pageopacity="0.0"
     inkscape:pagecheckerboard="0"
     inkscape:deskcolor="#d1d1d1"
     showgrid="false"
     inkscape:zoom="0.72665625"
     inkscape:cx="317.20638"
     inkscape:cy="538.76919"
     inkscape:window-width="1920"
     inkscape:window-height="1032"
     inkscape:window-maximized="1"
     inkscape:current-layer="svg22" />
  <defs
     id="defs1">
    <style
       id="style1">
      .cls-1 {
        fill: #fff;
      }

      .cls-1, .cls-2 {
        stroke: #000;
        stroke-linecap: round;
        stroke-linejoin: round;
      }

      .cls-2 {
        fill: none;
      }

      .cls-3 {
        fill: #ffca06;
      }

      .cls-4 {
        fill-rule: evenodd;
      }
    </style>
  </defs>
  <g
     id="sp_Fondo_del_tablero"
     data-name="sp_Fondo del tablero"
     transform="translate(-100.64066,-6.5399077)">
    <g
       id="HATCH">
      <rect
         class="cls-3"
         x="197.31"
         y="103.21"
         width="441.45999"
         height="441.45999"
         rx="18.65"
         ry="18.65"
         transform="rotate(-45,418.02898,323.93673)"
         id="rect3" />
    </g>
  </g>
  <g
     id="sp_Pictograma_y_filete"
     data-name="sp_Pictograma y filete"
     transform="translate(-100.64066,-6.5399077)">
    <g
       id="HATCH-2"
       data-name="HATCH">
      <path
         class="cls-4"
         d="M 431.22,622.9 717,337.12 c 7.28,-7.28 7.28,-19.09 0,-26.38 L 431.22,24.97 c -7.28,-7.28 -19.09,-7.28 -26.38,0 L 119.07,310.75 c -7.28,7.28 -7.28,19.09 0,26.38 l 285.78,285.78 c 7.28,7.28 19.09,7.28 26.38,0 m 8.79,8.79 285.78,-285.78 c 12.14,-12.14 12.14,-31.82 0,-43.97 L 440.02,16.18 C 427.88,4.04 408.2,4.04 396.05,16.18 L 110.27,301.95 c -12.14,12.14 -12.14,31.82 0,43.97 L 396.05,631.7 c 12.14,12.14 31.82,12.14 43.97,0 z"
         id="path3" />
    </g>
    <g
       id="HATCH-3"
       data-name="HATCH">
      <path
         class="cls-4"
         d="M 368.91,307.56 V 236.6 c 0,-3.01 -2.44,-5.46 -5.46,-5.46 H 330.7 c -2.26,0 -4.28,1.39 -5.09,3.49 l -11.28,29.26 -32.75,5.46 c -2.97,0 -5.39,2.37 -5.46,5.33 v 21.96 c 0,3.01 2.44,5.46 5.46,5.46 0.19,0 0.37,0 0.56,-0.03 2.61,-12.69 13.78,-21.81 26.74,-21.81 15.07,0 27.29,12.22 27.29,27.3 h 32.75 m -36.86,-38.38 c -0.45,0.12 -0.9,0.17 -1.36,0.17 -3.01,0 -5.46,-2.44 -5.46,-5.46 l 5.71,-18.03 c 0.72,-2.27 2.82,-3.81 5.2,-3.81 h 16.38 c 3.01,0 5.46,2.44 5.46,5.46 v 10.92 c 0,2.5 -1.7,4.69 -4.13,5.3 l -21.79,5.45 M 559.96,198.39 H 379.82 c -3.01,0 -5.46,2.44 -5.46,5.46 v 103.71 h 109.17 c 0,-15.07 12.22,-27.29 27.29,-27.29 15.07,0 27.29,12.22 27.3,27.29 h 10.92 c 0,0 0,-16.37 0,-16.37 h 10.92 v -92.8 m -32.75,109.17 c 0,-9.04 -7.33,-16.38 -16.38,-16.38 -9.05,0 -16.38,7.33 -16.38,16.38 0,9.05 7.33,16.38 16.38,16.38 9.05,0 16.38,-7.33 16.38,-16.38 m -201.97,0 c 0,-9.04 -7.33,-16.38 -16.38,-16.38 -9.05,0 -16.38,7.33 -16.38,16.38 0,9.05 7.33,16.38 16.38,16.38 9.05,0 16.38,-7.33 16.38,-16.38 m -44.06,56.93 30.41,30.41 -30.41,30.41 v -60.83 m 273.71,0.01 -30.41,30.41 30.41,30.41 v -60.83 z"
         id="path4" />
    </g>
    <g
       id="LWPOLYLINE">
      <rect
         class="cls-2"
         x="197.31"
         y="103.21"
         width="441.45999"
         height="441.45999"
         rx="18.65"
         ry="18.65"
         transform="rotate(-45,418.02898,323.93673)"
         id="rect4" />
    </g>
    <g
       id="LWPOLYLINE-2"
       data-name="LWPOLYLINE">
      <rect
         class="cls-2"
         x="184.87"
         y="90.769997"
         width="466.32999"
         height="466.32999"
         rx="31.09"
         ry="31.09"
         transform="rotate(-45,418.02898,323.93673)"
         id="rect5" />
    </g>
    <g
       id="LWPOLYLINE-3"
       data-name="LWPOLYLINE">
      <polygon
         class="cls-2"
         points="281.18,425.31 281.18,364.49 311.59,394.9 "
         id="polygon5" />
    </g>
    <g
       id="LWPOLYLINE-4"
       data-name="LWPOLYLINE">
      <path
         class="cls-2"
         d="M 559.96,198.39 H 379.82 c -3.01,0 -5.46,2.44 -5.46,5.46 v 103.71 h 109.17 c 0,-15.07 12.22,-27.29 27.29,-27.29 15.07,0 27.29,12.22 27.3,27.29 h 10.92 c 0,0 0,-16.37 0,-16.37 h 10.92 z"
         id="path5" />
    </g>
    <g
       id="LWPOLYLINE-5"
       data-name="LWPOLYLINE">
      <circle
         class="cls-2"
         cx="308.85999"
         cy="307.56"
         r="16.379999"
         id="circle5" />
    </g>
    <g
       id="LWPOLYLINE-6"
       data-name="LWPOLYLINE">
      <path
         class="cls-2"
         d="M 368.91,307.56 V 236.6 c 0,-3.01 -2.44,-5.46 -5.46,-5.46 H 330.7 c -2.26,0 -4.28,1.39 -5.09,3.49 l -11.28,29.26 -32.75,5.46 c -2.97,0 -5.39,2.37 -5.46,5.33 v 21.96 c 0,3.01 2.44,5.46 5.46,5.46 0.19,0 0.37,0 0.56,-0.03 2.61,-12.69 13.78,-21.81 26.74,-21.81 15.07,0 27.29,12.22 27.29,27.3 h 32.75"
         id="path6" />
    </g>
    <g
       id="LWPOLYLINE-7"
       data-name="LWPOLYLINE">
      <circle
         class="cls-2"
         cx="510.82999"
         cy="307.56"
         r="16.379999"
         id="circle6" />
    </g>
    <g
       id="LWPOLYLINE-8"
       data-name="LWPOLYLINE">
      <polygon
         class="cls-2"
         points="554.89,425.31 554.89,364.49 524.48,394.9 "
         id="polygon6" />
    </g>
    <g
       id="LWPOLYLINE-9"
       data-name="LWPOLYLINE">
      <path
         class="cls-2"
         d="m 332.06,269.18 c -0.45,0.12 -0.9,0.17 -1.36,0.17 -3.01,0 -5.46,-2.44 -5.46,-5.46 l 5.71,-18.03 c 0.72,-2.27 2.82,-3.81 5.2,-3.81 h 16.38 c 3.01,0 5.46,2.44 5.46,5.46 v 10.92 c 0,2.5 -1.7,4.69 -4.13,5.3 l -21.79,5.45 z"
         id="path7" />
    </g>
    <g
       id="MTEXT">
      <g
         id="g9">
        <path
           d="m 428.53,394.01 c 1.41,1.11 2.93,1.86 4.57,2.24 1.64,0.38 3.6,0.57 5.88,0.57 2.87,0 5.14,-1.1 6.81,-3.29 1.67,-2.2 2.5,-4.99 2.5,-8.39 0,-2.93 -0.78,-5.31 -2.33,-7.16 -1.55,-1.84 -3.76,-2.77 -6.63,-2.77 -1.46,0 -2.87,0.1 -4.21,0.31 -1.35,0.21 -2.84,0.78 -4.48,1.71 l -8.17,-4.22 4.3,-29.33 h 31.09 v 10.36 h -21.34 l -2.81,13.44 c 2.05,-1.41 5.21,-2.11 9.48,-2.11 2.93,0 5.74,0.62 8.43,1.84 2.69,1.23 4.92,3.25 6.67,6.06 1.76,2.81 2.63,6.47 2.63,10.98 0,3.4 -0.67,6.79 -2.02,10.19 -1.35,3.4 -3.7,6.28 -7.07,8.65 -3.37,2.37 -7.89,3.56 -13.57,3.56 -3.1,0 -5.99,-0.4 -8.65,-1.19 -2.67,-0.79 -4.87,-2 -6.63,-3.64 l 5.53,-7.82 z"
           id="path8" />
        <path
           d="m 473.14,350.01 c 3.39,-5.39 8.66,-8.08 15.81,-8.08 7.15,0 12.41,2.68 15.81,8.04 3.39,5.36 5.09,13.57 5.09,24.63 0,11.06 -1.67,19.1 -5.01,24.28 -3.34,5.18 -8.64,7.77 -15.9,7.77 -7.26,0 -12.56,-2.59 -15.9,-7.77 -3.34,-5.18 -5.01,-13.27 -5.01,-24.28 0,-11.01 1.7,-19.2 5.09,-24.59 z m 9.62,41.58 c 1.38,3.48 3.47,5.23 6.28,5.23 2.81,0 4.9,-1.74 6.28,-5.23 1.37,-3.48 2.06,-9.15 2.06,-16.99 0,-7.84 -0.66,-13.83 -1.98,-17.43 -1.32,-3.6 -3.44,-5.4 -6.37,-5.4 -2.93,0 -5.05,1.8 -6.37,5.4 -1.32,3.6 -1.98,9.41 -1.98,17.43 0,8.02 0.69,13.51 2.06,16.99 z"
           id="path9" />
      </g>
    </g>
    <g
       id="MTEXT-2"
       data-name="MTEXT">
      <path
         d="m 338.13,355.47 c 3.45,-5.09 8.05,-8.96 13.79,-11.59 5.74,-2.63 11.94,-3.95 18.62,-3.95 7.03,0 13.41,1.35 19.15,4.04 5.74,2.69 10.27,6.62 13.61,11.77 3.34,5.15 5.01,11.3 5.01,18.44 0,6.56 -1.11,12.27 -3.34,17.12 -2.23,4.86 -5.33,8.64 -9.31,11.33 10.54,6.09 15.81,16.51 15.81,31.26 0,8.9 -2.11,16.04 -6.32,21.43 -4.22,5.39 -9.4,9.16 -15.54,11.33 -6.15,2.17 -12.56,3.25 -19.23,3.25 -6.67,0 -13.12,-1.08 -19.32,-3.25 -6.21,-2.17 -11.45,-6 -15.72,-11.5 -4.28,-5.5 -6.41,-12.82 -6.41,-21.96 0,-14.99 5.38,-25.41 16.16,-31.26 -3.86,-2.81 -6.85,-6.59 -8.96,-11.33 -2.11,-4.74 -3.16,-10.33 -3.16,-16.77 0,-7.14 1.73,-13.26 5.18,-18.35 z m 45.93,61.47 c -3.16,-3.34 -7.9,-5.01 -14.23,-5.01 -5.86,0 -10.22,1.7 -13.09,5.09 -2.87,3.4 -4.3,8.84 -4.3,16.33 0,4.92 1.55,9.13 4.65,12.65 3.1,3.51 7.52,5.27 13.26,5.27 5.74,0 10.39,-1.76 13.61,-5.27 3.22,-3.51 4.83,-7.79 4.83,-12.82 0,-7.49 -1.58,-12.91 -4.74,-16.25 z m -13.52,-22.22 c 5.5,0 9.63,-1.67 12.38,-5.01 2.75,-3.34 4.13,-8.58 4.13,-15.72 0,-4.57 -1.44,-8.52 -4.3,-11.86 -2.87,-3.34 -6.94,-5.01 -12.21,-5.01 -5.27,0 -9.37,1.73 -12.29,5.18 -2.93,3.46 -4.39,7.52 -4.39,12.21 0,13.47 5.56,20.2 16.69,20.2 z"
         id="path10" />
    </g>
  </g>
</svg>
