<?xml version="1.0" encoding="UTF-8" standalone="no"?>
<!-- Created with Inkscape (http://www.inkscape.org/) -->

<svg
   width="709.73755mm"
   height="709.73761mm"
   viewBox="0 0 709.73755 709.73761"
   version="1.1"
   id="svg1"
   inkscape:version="1.3.2 (091e20e, 2023-11-25, custom)"
   sodipodi:docname="mexico draw.svg"
   xml:space="preserve"
   xmlns:inkscape="http://www.inkscape.org/namespaces/inkscape"
   xmlns:sodipodi="http://sodipodi.sourceforge.net/DTD/sodipodi-0.dtd"
   xmlns="http://www.w3.org/2000/svg"
   xmlns:svg="http://www.w3.org/2000/svg"><sodipodi:namedview
     id="namedview1"
     pagecolor="#ffffff"
     bordercolor="#000000"
     borderopacity="0.25"
     inkscape:showpageshadow="2"
     inkscape:pageopacity="0.0"
     inkscape:pagecheckerboard="0"
     inkscape:deskcolor="#d1d1d1"
     inkscape:document-units="mm"
     inkscape:zoom="0.04"
     inkscape:cx="3175"
     inkscape:cy="20037.5"
     inkscape:window-width="1920"
     inkscape:window-height="1017"
     inkscape:window-x="-8"
     inkscape:window-y="-8"
     inkscape:window-maximized="1"
     inkscape:current-layer="layer1" /><defs
     id="defs1"><style
       id="style1">
      .cls-1, .cls-2 {
        fill: #fff;
      }

      .cls-2, .cls-3 {
        stroke: #000;
      }

      .cls-2, .cls-3, .cls-4 {
        stroke-linecap: round;
        stroke-linejoin: round;
      }

      .cls-5 {
        fill: #bd2025;
      }

      .cls-5, .cls-6 {
        fill-rule: evenodd;
      }

      .cls-3, .cls-4 {
        fill: none;
      }

      .cls-4 {
        stroke: #bd2025;
      }
    </style><style
       id="style1-3">
      .cls-1, .cls-2 {
        fill: #fff;
      }

      .cls-2, .cls-3 {
        stroke: #000;
      }

      .cls-2, .cls-3, .cls-4 {
        stroke-linecap: round;
        stroke-linejoin: round;
      }

      .cls-5 {
        fill: #bd2025;
      }

      .cls-5, .cls-6 {
        fill-rule: evenodd;
      }

      .cls-3, .cls-4 {
        fill: none;
      }

      .cls-4 {
        stroke: #bd2025;
      }
    </style><style
       id="style2">
      .cls-1, .cls-2 {
        fill: #fff;
      }

      .cls-2, .cls-3 {
        stroke: #000;
      }

      .cls-2, .cls-3, .cls-4 {
        stroke-linecap: round;
        stroke-linejoin: round;
      }

      .cls-5 {
        fill: #bd2025;
      }

      .cls-5, .cls-6 {
        fill-rule: evenodd;
      }

      .cls-3, .cls-4 {
        fill: none;
      }

      .cls-4 {
        stroke: #bd2025;
      }

      .cls-7 {
        font-family: ArialMT, Arial;
        font-size: 155.09px;
      }
    </style><style
       id="style1-8">
      .cls-1, .cls-2 {
        fill: #fff;
      }

      .cls-2, .cls-3 {
        stroke: #000;
      }

      .cls-2, .cls-3, .cls-4 {
        stroke-linecap: round;
        stroke-linejoin: round;
      }

      .cls-5 {
        fill: #bd2025;
      }

      .cls-5, .cls-6 {
        fill-rule: evenodd;
      }

      .cls-3, .cls-4 {
        fill: none;
      }

      .cls-4 {
        stroke: #bd2025;
      }
    </style><style
       id="style1-9">
      .cls-1, .cls-2 {
        fill: #fff;
      }

      .cls-2, .cls-3 {
        stroke: #000;
      }

      .cls-2, .cls-3, .cls-4 {
        stroke-linecap: round;
        stroke-linejoin: round;
      }

      .cls-5 {
        fill: #bd2025;
      }

      .cls-5, .cls-6 {
        fill-rule: evenodd;
      }

      .cls-3, .cls-4 {
        fill: none;
      }

      .cls-4 {
        stroke: #bd2025;
      }
    </style><style
       id="style1-2">
      .cls-1, .cls-2 {
        fill: #fff;
      }

      .cls-2, .cls-3 {
        stroke: #000;
      }

      .cls-2, .cls-3, .cls-4 {
        stroke-linecap: round;
        stroke-linejoin: round;
      }

      .cls-5 {
        fill: #bd2025;
      }

      .cls-5, .cls-6 {
        fill-rule: evenodd;
      }

      .cls-3, .cls-4 {
        fill: none;
      }

      .cls-4 {
        stroke: #bd2025;
      }
    </style></defs><g
     inkscape:label="Layer 1"
     inkscape:groupmode="layer"
     id="layer1"
     transform="translate(-2374.7361,-5330.7201)"><g
       id="g4"
       transform="translate(161.13484,1730.8769)"><g
         id="g3"><g
           id="g73-0"
           transform="matrix(1.1198292,0,0,1.1198292,1493.4656,3593.7999)"
           style="fill:#000000;fill-opacity:1;stroke:none;stroke-width:0.236271"><g
             id="g50-1"
             data-name="HATCH"
             style="fill:#000000;fill-opacity:1;stroke:none;stroke-width:0.236271"><path
               class="cls-4"
               d="m 973.16,621.26 285.78,-285.78 c 7.28,-7.28 7.28,-19.09 0,-26.38 L 973.16,23.33 c -7.28,-7.28 -19.09,-7.28 -26.38,0 L 661,309.11 c -7.28,7.28 -7.28,19.09 0,26.38 l 285.78,285.78 c 7.28,7.28 19.09,7.28 26.38,0 m 8.79,8.78 285.78,-285.78 c 12.14,-12.14 12.14,-31.82 0,-43.97 L 981.95,14.53 C 969.81,2.39 950.13,2.39 937.98,14.53 L 652.2,300.31 c -12.14,12.14 -12.14,31.82 0,43.97 l 285.78,285.78 c 12.14,12.14 31.82,12.14 43.97,0 z"
               id="path49-4"
               style="fill:#000000;fill-opacity:1;fill-rule:evenodd;stroke:none;stroke-width:0.236271;stroke-linecap:round;stroke-linejoin:round" /></g><g
             id="g51-1"
             data-name="HATCH"
             style="fill:#000000;fill-opacity:1;stroke:none;stroke-width:0.236271" /><g
             id="g52-4"
             style="fill:#000000;fill-opacity:1;stroke:none;stroke-width:0.236271"><rect
               class="cls-2"
               x="726.81"
               y="89.129997"
               width="466.32999"
               height="466.32999"
               rx="31.09"
               ry="31.09"
               transform="rotate(-45,959.96996,322.29742)"
               id="rect51-1"
               style="fill:#000000;fill-opacity:1;stroke:none;stroke-width:0.236271;stroke-linecap:round;stroke-linejoin:round" /></g><g
             id="g53-6"
             data-name="LWPOLYLINE"
             style="fill:#000000;fill-opacity:1;stroke:none;stroke-width:0.236271"><rect
               class="cls-2"
               x="739.23999"
               y="101.57"
               width="441.45999"
               height="441.45999"
               rx="18.65"
               ry="18.65"
               transform="rotate(-45,959.96996,322.29742)"
               id="rect52-9"
               style="fill:#000000;fill-opacity:1;stroke:none;stroke-width:0.236271;stroke-linecap:round;stroke-linejoin:round" /></g><g
             id="g54-0"
             data-name="LWPOLYLINE"
             style="fill:#000000;fill-opacity:1;stroke:none;stroke-width:0.236271" /><g
             id="g55-9"
             data-name="LWPOLYLINE"
             style="fill:#000000;fill-opacity:1;stroke:none;stroke-width:0.236271" /><g
             id="g56-8"
             data-name="LWPOLYLINE"
             style="fill:#000000;fill-opacity:1;stroke:none;stroke-width:0.236271" /><g
             id="g57-2"
             style="fill:#000000;fill-opacity:1;stroke:none;stroke-width:0.236271" /><g
             id="g72-2"
             data-name="CIRCLE"
             style="fill:#000000;fill-opacity:1;stroke:none;stroke-width:0.236271" /></g><g
           id="g49-3"
           transform="matrix(1.1198292,0,0,1.1198292,1493.4656,3593.7999)"
           style="stroke:none;stroke-width:0.236271"><g
             id="g48-6"
             style="stroke:none;stroke-width:0.236271"><rect
               class="cls-3"
               x="739.23999"
               y="101.57"
               width="441.45999"
               height="441.45999"
               rx="18.65"
               ry="18.65"
               transform="rotate(-45,959.96996,322.29742)"
               id="rect48-4"
               style="fill:#ffca06;fill-opacity:1;stroke:none;stroke-width:0.236271;stroke-linecap:round;stroke-linejoin:round" /></g></g></g><g
         id="g2"
         transform="matrix(5.7328294,0,0,5.7328294,-6615.7238,-17158.554)"><g
           id="CIRCLE-7"
           transform="matrix(0.26458333,0,0,0.26458333,1350.4291,3604.0615)"><circle
             class="cls-3"
             cx="1061.26"
             cy="335.13"
             r="17.9"
             id="circle3-7"
             style="fill:none;stroke:#000000;stroke-linecap:round;stroke-linejoin:round" /></g><g
           id="CIRCLE-2-2"
           data-name="CIRCLE"
           transform="matrix(0.26458333,0,0,0.26458333,1350.4291,3604.0615)"><circle
             class="cls-3"
             cx="1061.26"
             cy="335.13"
             r="29.84"
             id="circle4-2"
             style="fill:none;stroke:#000000;stroke-linecap:round;stroke-linejoin:round" /></g><g
           id="HATCH-2-2"
           data-name="HATCH"
           transform="matrix(0.26458333,0,0,0.26458333,1350.4291,3604.0615)"><path
             class="cls-6"
             d="m 840.9,245.8 c -0.3,-0.13 -0.6,-0.24 -0.9,-0.34 l -14.77,-4.92 c -1.76,-0.59 -3.36,-1.57 -4.67,-2.88 l -2.61,-2.61 c -0.91,-0.91 -1.95,-1.66 -3.1,-2.24 l -10.2,-5.1 5.62,10.53 c 0.38,0.71 0.45,1.54 0.21,2.3 l -8.55,27.18 c -0.97,3.15 0.79,6.49 3.94,7.46 0.57,0.18 1.17,0.27 1.76,0.27 2.2,0 4.33,-0.81 5.97,-2.28 l 9.95,-8.9 c 0.25,-0.22 0.53,-0.4 0.84,-0.53 1.52,-0.63 3.27,0.09 3.9,1.61 l 17.21,41.31 c 0.52,1.24 0.82,2.56 0.9,3.89 l 3,51.42 c 0,1.65 1.34,2.98 2.98,2.98 1.64,0 2.98,-1.34 2.98,-2.98 l 3,-45.15 c 0.21,-3.14 2.81,-5.57 5.95,-5.57 h 11.94 c 0.26,0 0.51,-0.03 0.76,-0.1 l 21.62,-5.68 c 1.46,-0.38 3,-0.19 4.33,0.53 l 17.74,9.57 c 2.02,1.01 3.3,3.08 3.3,5.34 v 41.07 c 0,1.65 1.34,2.98 2.98,2.98 1.47,0 2.72,-1.07 2.95,-2.53 l 5.93,-38.33 c 0.13,-0.82 0.08,-1.65 -0.13,-2.46 l -4.86,-13.8 c -0.59,-1.68 -1.56,-3.21 -2.82,-4.47 l -1.07,-1.07 c -0.58,-0.58 -0.58,-1.53 0,-2.11 l 2.11,-2.11 c 0.58,-0.58 1.53,-0.58 2.11,0 l 2.03,2.03 c 1.26,1.26 2.22,2.79 2.82,4.47 l 5.86,16.62 v -14.9 l 32.37,4.55 -3.32,23.64 53.19,7.47 1.66,-11.82 c 2.75,-19.58 20.86,-33.23 40.44,-30.47 19.58,2.76 33.23,20.86 30.47,40.44 l -1.66,11.82 11.82,1.66 6.64,-47.28 c 0.92,-6.53 -3.63,-12.56 -10.16,-13.48 l -106.37,-14.95 4.98,-35.46 c 0.69,-4.9 -2.72,-9.42 -7.62,-10.11 -4.13,-0.58 -8.11,1.76 -9.6,5.65 l -18.89,11.81 c -0.41,0.26 -0.76,0.62 -1,1.04 l -103.51,3.68 -20.44,-8.7 m 101,54.49 v -12.89 c 0,-8.79 -6.39,-16.29 -15.07,-17.68 l -38.13,-6.11 c -0.34,-0.05 -0.67,-0.12 -1.01,-0.21 l -23.37,-5.84 100.53,-3.75 c 0.82,1.43 2.65,1.92 4.08,1.09 0.03,-0.02 0.06,-0.04 0.09,-0.05 l 14.39,-8.99 -2.49,17.73 -11.82,-1.66 c -3.26,-0.46 -6.28,1.82 -6.74,5.08 l -4.15,29.55 c -0.46,3.26 1.82,6.28 5.08,6.74 3.26,0.46 6.28,-1.82 6.74,-5.08 l 3.32,-23.64 5.91,0.83 -4.15,29.55 -33.2,-4.67 m 63.37,-84.06 12.22,2.38 -0.57,2.93 -11.72,-2.28 v 0 c -0.94,4.85 -5.64,8.02 -10.5,7.08 -4.85,-0.94 -8.02,-5.64 -7.08,-10.5 l -11.72,-2.28 0.57,-2.93 12.22,2.38 c 1.37,-2.33 3.72,-3.92 6.4,-4.31 4.89,-0.73 9.44,2.65 10.17,7.53 m 85.82,118.91 c 0,-16.48 -13.36,-29.84 -29.84,-29.84 -16.48,0 -29.84,13.36 -29.84,29.84 0,16.48 13.36,29.84 29.84,29.84 16.48,0 29.84,-13.36 29.84,-29.84 m -11.93,0 c 0,-9.89 -8.02,-17.9 -17.9,-17.9 -9.88,0 -17.9,8.02 -17.9,17.9 0,9.88 8.02,17.9 17.9,17.9 9.88,0 17.9,-8.02 17.9,-17.9 z"
             id="path4-8"
             style="fill-rule:evenodd" /></g><g
           id="LWPOLYLINE-8"
           transform="matrix(0.26458333,0,0,0.26458333,1350.4291,3604.0615)"><path
             class="cls-3"
             d="m 1005.29,216.22 12.22,2.38 -0.57,2.93 -11.72,-2.28 v 0 c -0.94,4.85 -5.64,8.02 -10.5,7.08 -4.86,-0.94 -8.02,-5.64 -7.08,-10.5 l -11.72,-2.28 0.57,-2.93 12.22,2.38 c 1.37,-2.33 3.72,-3.92 6.4,-4.31 4.89,-0.73 9.44,2.65 10.17,7.53 z"
             id="path5-6"
             style="fill:none;stroke:#000000;stroke-linecap:round;stroke-linejoin:round" /></g><g
           id="LWPOLYLINE-3-6"
           data-name="LWPOLYLINE"
           transform="matrix(0.26458333,0,0,0.26458333,1350.4291,3604.0615)"><path
             class="cls-3"
             d="m 840.9,245.8 c -0.3,-0.13 -0.6,-0.24 -0.9,-0.34 l -14.77,-4.92 c -1.76,-0.59 -3.36,-1.57 -4.67,-2.88 l -2.61,-2.61 c -0.91,-0.91 -1.95,-1.66 -3.1,-2.24 l -10.2,-5.1 5.62,10.53 c 0.38,0.71 0.45,1.54 0.21,2.3 l -8.55,27.18 c -0.97,3.15 0.79,6.49 3.94,7.46 0.57,0.18 1.17,0.27 1.76,0.27 2.2,0 4.33,-0.81 5.97,-2.28 l 9.95,-8.9 c 0.25,-0.22 0.53,-0.4 0.84,-0.53 1.52,-0.63 3.27,0.09 3.9,1.61 l 17.21,41.31 c 0.52,1.24 0.82,2.56 0.9,3.89 l 3,51.42 c 0,1.65 1.34,2.98 2.98,2.98 1.64,0 2.98,-1.34 2.98,-2.98 l 3,-45.15 c 0.21,-3.14 2.81,-5.57 5.95,-5.57 h 11.94 c 0.26,0 0.51,-0.03 0.76,-0.1 l 21.62,-5.68 c 1.46,-0.38 3,-0.19 4.33,0.53 l 17.74,9.57 c 2.02,1.01 3.3,3.08 3.3,5.34 v 41.07 c 0,1.65 1.34,2.98 2.98,2.98 1.47,0 2.72,-1.07 2.95,-2.53 l 5.93,-38.33 c 0.13,-0.82 0.08,-1.65 -0.13,-2.46 l -4.86,-13.8 c -0.59,-1.68 -1.56,-3.21 -2.82,-4.47 l -1.07,-1.07 c -0.58,-0.58 -0.58,-1.53 0,-2.11 l 2.11,-2.11 c 0.58,-0.58 1.53,-0.58 2.11,0 l 2.03,2.03 c 1.26,1.26 2.22,2.79 2.82,4.47 l 5.86,16.62 v -14.9 l 32.37,4.55 -3.32,23.64 53.19,7.47 1.66,-11.82 c 2.75,-19.58 20.86,-33.23 40.44,-30.47 19.58,2.76 33.23,20.86 30.47,40.44 l -1.66,11.82 11.82,1.66 6.64,-47.28 c 0.92,-6.53 -3.63,-12.56 -10.16,-13.48 l -106.37,-14.95 4.98,-35.46 c 0.69,-4.9 -2.72,-9.42 -7.62,-10.11 -4.13,-0.58 -8.11,1.76 -9.6,5.65 l -18.89,11.81 c -0.41,0.26 -0.76,0.62 -1,1.04 l -103.51,3.68 -20.44,-8.7 z"
             id="path7-2"
             style="fill:none;stroke:#000000;stroke-linecap:round;stroke-linejoin:round" /></g></g></g></g></svg>
