<?xml version="1.0" encoding="UTF-8" standalone="no"?>
<!-- Created with Inkscape (http://www.inkscape.org/) -->

<svg
   width="709.73767mm"
   height="709.73761mm"
   viewBox="0 0 709.73767 709.73761"
   version="1.1"
   id="svg1"
   inkscape:version="1.3.2 (091e20e, 2023-11-25, custom)"
   sodipodi:docname="mexico draw.svg"
   xml:space="preserve"
   xmlns:inkscape="http://www.inkscape.org/namespaces/inkscape"
   xmlns:sodipodi="http://sodipodi.sourceforge.net/DTD/sodipodi-0.dtd"
   xmlns="http://www.w3.org/2000/svg"
   xmlns:svg="http://www.w3.org/2000/svg"><sodipodi:namedview
     id="namedview1"
     pagecolor="#ffffff"
     bordercolor="#000000"
     borderopacity="0.25"
     inkscape:showpageshadow="2"
     inkscape:pageopacity="0.0"
     inkscape:pagecheckerboard="0"
     inkscape:deskcolor="#d1d1d1"
     inkscape:document-units="mm"
     inkscape:zoom="0.04"
     inkscape:cx="3175"
     inkscape:cy="20037.5"
     inkscape:window-width="1920"
     inkscape:window-height="1017"
     inkscape:window-x="-8"
     inkscape:window-y="-8"
     inkscape:window-maximized="1"
     inkscape:current-layer="layer1" /><defs
     id="defs1"><style
       id="style1">
      .cls-1, .cls-2 {
        fill: #fff;
      }

      .cls-2, .cls-3 {
        stroke: #000;
      }

      .cls-2, .cls-3, .cls-4 {
        stroke-linecap: round;
        stroke-linejoin: round;
      }

      .cls-5 {
        fill: #bd2025;
      }

      .cls-5, .cls-6 {
        fill-rule: evenodd;
      }

      .cls-3, .cls-4 {
        fill: none;
      }

      .cls-4 {
        stroke: #bd2025;
      }
    </style><style
       id="style1-3">
      .cls-1, .cls-2 {
        fill: #fff;
      }

      .cls-2, .cls-3 {
        stroke: #000;
      }

      .cls-2, .cls-3, .cls-4 {
        stroke-linecap: round;
        stroke-linejoin: round;
      }

      .cls-5 {
        fill: #bd2025;
      }

      .cls-5, .cls-6 {
        fill-rule: evenodd;
      }

      .cls-3, .cls-4 {
        fill: none;
      }

      .cls-4 {
        stroke: #bd2025;
      }
    </style><style
       id="style2">
      .cls-1, .cls-2 {
        fill: #fff;
      }

      .cls-2, .cls-3 {
        stroke: #000;
      }

      .cls-2, .cls-3, .cls-4 {
        stroke-linecap: round;
        stroke-linejoin: round;
      }

      .cls-5 {
        fill: #bd2025;
      }

      .cls-5, .cls-6 {
        fill-rule: evenodd;
      }

      .cls-3, .cls-4 {
        fill: none;
      }

      .cls-4 {
        stroke: #bd2025;
      }

      .cls-7 {
        font-family: ArialMT, Arial;
        font-size: 155.09px;
      }
    </style><style
       id="style1-8">
      .cls-1, .cls-2 {
        fill: #fff;
      }

      .cls-2, .cls-3 {
        stroke: #000;
      }

      .cls-2, .cls-3, .cls-4 {
        stroke-linecap: round;
        stroke-linejoin: round;
      }

      .cls-5 {
        fill: #bd2025;
      }

      .cls-5, .cls-6 {
        fill-rule: evenodd;
      }

      .cls-3, .cls-4 {
        fill: none;
      }

      .cls-4 {
        stroke: #bd2025;
      }
    </style><style
       id="style1-9">
      .cls-1, .cls-2 {
        fill: #fff;
      }

      .cls-2, .cls-3 {
        stroke: #000;
      }

      .cls-2, .cls-3, .cls-4 {
        stroke-linecap: round;
        stroke-linejoin: round;
      }

      .cls-5 {
        fill: #bd2025;
      }

      .cls-5, .cls-6 {
        fill-rule: evenodd;
      }

      .cls-3, .cls-4 {
        fill: none;
      }

      .cls-4 {
        stroke: #bd2025;
      }
    </style><style
       id="style1-2">
      .cls-1, .cls-2 {
        fill: #fff;
      }

      .cls-2, .cls-3 {
        stroke: #000;
      }

      .cls-2, .cls-3, .cls-4 {
        stroke-linecap: round;
        stroke-linejoin: round;
      }

      .cls-5 {
        fill: #bd2025;
      }

      .cls-5, .cls-6 {
        fill-rule: evenodd;
      }

      .cls-3, .cls-4 {
        fill: none;
      }

      .cls-4 {
        stroke: #bd2025;
      }
    </style></defs><g
     inkscape:label="Layer 1"
     inkscape:groupmode="layer"
     id="layer1"
     transform="translate(-1120.2458,-5542.161)"><g
       id="g23"
       transform="translate(-1093.3555,1942.3176)"><g
         id="g20"
         transform="matrix(1.1198292,0,0,1.1198292,1493.4656,3593.7999)"
         style="fill:#000000;fill-opacity:1;stroke:none;stroke-width:0.236271"><g
           id="g11"
           data-name="HATCH"
           style="fill:#000000;fill-opacity:1;stroke:none;stroke-width:0.236271"><path
             class="cls-4"
             d="m 973.16,621.26 285.78,-285.78 c 7.28,-7.28 7.28,-19.09 0,-26.38 L 973.16,23.33 c -7.28,-7.28 -19.09,-7.28 -26.38,0 L 661,309.11 c -7.28,7.28 -7.28,19.09 0,26.38 l 285.78,285.78 c 7.28,7.28 19.09,7.28 26.38,0 m 8.79,8.78 285.78,-285.78 c 12.14,-12.14 12.14,-31.82 0,-43.97 L 981.95,14.53 C 969.81,2.39 950.13,2.39 937.98,14.53 L 652.2,300.31 c -12.14,12.14 -12.14,31.82 0,43.97 l 285.78,285.78 c 12.14,12.14 31.82,12.14 43.97,0 z"
             id="path11"
             style="fill:#000000;fill-opacity:1;fill-rule:evenodd;stroke:none;stroke-width:0.236271;stroke-linecap:round;stroke-linejoin:round" /></g><g
           id="g12"
           data-name="HATCH"
           style="fill:#000000;fill-opacity:1;stroke:none;stroke-width:0.236271" /><g
           id="g13"
           style="fill:#000000;fill-opacity:1;stroke:none;stroke-width:0.236271"><rect
             class="cls-2"
             x="726.81"
             y="89.129997"
             width="466.32999"
             height="466.32999"
             rx="31.09"
             ry="31.09"
             transform="rotate(-45,959.96996,322.29742)"
             id="rect12"
             style="fill:#000000;fill-opacity:1;stroke:none;stroke-width:0.236271;stroke-linecap:round;stroke-linejoin:round" /></g><g
           id="g14"
           data-name="LWPOLYLINE"
           style="fill:#000000;fill-opacity:1;stroke:none;stroke-width:0.236271"><rect
             class="cls-2"
             x="739.23999"
             y="101.57"
             width="441.45999"
             height="441.45999"
             rx="18.65"
             ry="18.65"
             transform="rotate(-45,959.96996,322.29742)"
             id="rect13"
             style="fill:#000000;fill-opacity:1;stroke:none;stroke-width:0.236271;stroke-linecap:round;stroke-linejoin:round" /></g><g
           id="g15"
           data-name="LWPOLYLINE"
           style="fill:#000000;fill-opacity:1;stroke:none;stroke-width:0.236271" /><g
           id="g16"
           data-name="LWPOLYLINE"
           style="fill:#000000;fill-opacity:1;stroke:none;stroke-width:0.236271" /><g
           id="g17"
           data-name="LWPOLYLINE"
           style="fill:#000000;fill-opacity:1;stroke:none;stroke-width:0.236271" /><g
           id="g18"
           style="fill:#000000;fill-opacity:1;stroke:none;stroke-width:0.236271" /><g
           id="g19"
           data-name="CIRCLE"
           style="fill:#000000;fill-opacity:1;stroke:none;stroke-width:0.236271" /></g><g
         id="g22"
         transform="matrix(1.1198292,0,0,1.1198292,1493.4656,3593.7999)"
         style="stroke:none;stroke-width:0.236271"><g
           id="g21"
           style="stroke:none;stroke-width:0.236271"><rect
             class="cls-3"
             x="739.23999"
             y="101.57"
             width="441.45999"
             height="441.45999"
             rx="18.65"
             ry="18.65"
             transform="rotate(-45,959.96996,322.29742)"
             id="rect20"
             style="fill:#ffca06;fill-opacity:1;stroke:none;stroke-width:0.236271;stroke-linecap:round;stroke-linejoin:round" /></g></g></g><path
       id="path3-7"
       style="fill-rule:evenodd;stroke-width:0.852978"
       class="cls-6"
       d="m 1598.2783,5768.8482 c -10.4832,0 -18.9877,8.504 -18.9877,18.9873 0,10.483 8.5045,18.9872 18.9877,18.9872 10.483,0 18.9873,-8.5042 18.9873,-18.9872 0,-10.4917 -8.5043,-18.9873 -18.9873,-18.9873 z m -318.4009,32.6616 v 16.2006 h 71.7174 c 5.545,0 10.1893,4.2085 10.7285,9.7174 l 5.4367,54.96 h -87.8826 v 21.5466 h 33.9879 v 26.9473 h -33.9879 v 26.9474 h 120.2114 v 10.7827 h -120.2114 v 10.7645 h 71.7533 v 32.3293 c 0,5.9605 4.8227,10.7822 10.7827,10.7822 h 16.1287 c 5.9601,0 10.7827,-4.8217 10.7827,-10.7822 v -32.3293 h 10.7822 c 5.9606,0 10.7826,-4.8232 10.7826,-10.7832 v -64.6764 c 0,-11.9022 -9.6448,-21.5648 -21.5648,-21.5648 L 1378.0722,5823.4 c -2.4199,-12.6974 -13.5275,-21.8902 -26.4592,-21.8902 z m 294.6615,10.0727 c -3.3947,0.1449 -6.4825,2.0214 -8.1799,4.9645 l -19.0387,33.0189 c -1.6976,2.9341 -1.6976,6.5591 0,9.4934 l 10.7479,26.613 c 0.058,0.1373 0.119,0.2825 0.1865,0.4179 -1.0577,1.1858 -1.97,2.4907 -2.7122,3.8896 0.01,1.2882 1.0749,2.3439 2.3628,2.3118 0.4353,-0.01 0.8619,-0.1383 1.2283,-0.3671 0.9898,-0.5887 1.817,-1.433 2.3799,-2.4394 3.1816,1.6888 7.1225,0.8701 9.3744,-1.9447 0.9639,-0.034 1.8848,0.409 2.4565,1.1854 l -3.5568,3.5567 c -1.7745,2.8318 -2.6105,6.1588 -2.372,9.4938 v 71.2154 c 0.4095,4.2478 3.1564,7.9073 7.1227,9.4938 -1.305,0 -2.3714,1.0663 -2.3714,2.3713 0,1.3051 1.058,2.3713 2.3714,2.3713 h 18.9871 v 33.2318 c 0,2.6275 2.1239,4.7512 4.7513,4.7512 2.6272,0 4.7512,-2.1324 4.7512,-4.7512 v -18.9872 h 18.9872 c 1.3051,0 2.3713,-1.0663 2.3713,-2.3713 0,-1.3051 -1.0575,-2.3713 -2.3713,-2.3713 4.4696,-0.8528 7.5574,-4.9639 7.1225,-9.4934 v -75.9665 c 0.034,-3.318 -0.7845,-6.5853 -2.3713,-9.4939 l -4.7512,-9.4938 v -2.3708 c 0.6905,-1.3904 2.0895,-2.3039 3.6424,-2.3713 l 0.01,0.01 c 2.2519,2.8148 6.1845,3.6338 9.3745,1.9447 0.5627,1.0065 1.3818,1.8511 2.3798,2.4394 1.0833,0.6908 2.5331,0.3669 3.224,-0.7251 0.2379,-0.3666 0.3671,-0.793 0.3671,-1.2282 -0.7421,-1.3989 -1.655,-2.7038 -2.7127,-3.8896 0.068,-0.1374 0.1258,-0.2728 0.187,-0.4179 l 10.7479,-26.613 c 1.6973,-2.9343 1.6973,-6.5593 0,-9.4934 l -19.0387,-33.0189 c -1.6974,-2.9515 -4.7853,-4.8196 -8.1804,-4.9645 z m -111.2443,10.0523 -0.8183,0.4372 c 0,0 -1.7996,1.0445 -4.0182,3.3236 -2.2187,2.2793 -5.2339,5.9927 -8.8207,11.9665 -7.1737,11.9478 -16.6462,32.9388 -26.5149,69.7695 l -0.1254,0.472 v 65.9394 h 106.8628 v -151.9082 z m 2.1854,7.4311 h 56.9487 v 57.3764 h -85.4861 c 7.2429,-22.5704 13.9269,-36.6996 19.0642,-45.2561 3.3398,-5.5623 6.0253,-8.8112 7.776,-10.6096 1.3571,-1.3942 1.5101,-1.3996 1.6972,-1.5107 z m 107.874,10.9891 c 0.657,0 1.1859,0.5286 1.1859,1.1854 v 43.92 c -0.6055,-0.5287 -1.3225,-0.9038 -2.09,-1.1172 0.2063,-1.288 0.078,-2.6105 -0.3837,-3.83 l -8.9906,-23.9946 c -0.2644,-0.6054 -0.401,-1.2536 -0.401,-1.9191 0,-0.6653 0.1356,-1.3132 0.401,-1.919 l 9.3486,-11.8738 c 0.2224,-0.2901 0.5715,-0.4517 0.9298,-0.4517 z m 49.9832,0.01 c 0.3007,0.036 0.5889,0.1877 0.7937,0.4437 l 9.348,11.8737 c 0.266,0.6057 0.4014,1.2537 0.4014,1.919 0,0.6654 -0.1371,1.3136 -0.4014,1.9191 l -8.9907,23.9946 c -0.4618,1.2195 -0.5869,2.5415 -0.3837,3.8295 -0.7676,0.2134 -1.4841,0.5885 -2.0899,1.1172 v -43.92 c 0,-0.3583 0.1626,-0.7075 0.4527,-0.9298 0.256,-0.2045 0.5691,-0.2833 0.8699,-0.247 z m -277.1243,58.4706 h 37.7294 c 5.96,0 10.7828,4.8226 10.7828,10.7827 h -0.019 v 10.7826 h -48.4934 z m 254.4454,7.9848 v 0.016 c 3.441,2.201 5.9629,5.5667 7.1134,9.4869 v 71.2409 c 0,4.3928 2.9006,8.248 7.1225,9.4677 h -11.8647 v -71.2154 c 0.1289,-1.8936 -0.7852,-3.7104 -2.3713,-4.7511 v -14.229 c 0,0 -0.01,0 -0.01,-0.01 z m -9.4939,0.017 h 4.7512 v 14.2447 l -0.01,-0.01 c -1.5948,1.0407 -2.4991,2.8492 -2.3712,4.7511 v 56.9702 h -11.8653 c 3.7875,-1.8082 6.4488,-5.3561 7.1226,-9.4933 v -63.8965 c 0,-1.3479 1.0321,-2.4654 2.3713,-2.5676 z" /></g></svg>
