<?xml version="1.0" encoding="UTF-8" standalone="no"?>
<!-- Created with Inkscape (http://www.inkscape.org/) -->

<svg
   width="709.73755mm"
   height="709.73761mm"
   viewBox="0 0 709.73755 709.73761"
   version="1.1"
   id="svg1"
   inkscape:version="1.3.2 (091e20e, 2023-11-25, custom)"
   sodipodi:docname="mexico draw.svg"
   xml:space="preserve"
   xmlns:inkscape="http://www.inkscape.org/namespaces/inkscape"
   xmlns:sodipodi="http://sodipodi.sourceforge.net/DTD/sodipodi-0.dtd"
   xmlns="http://www.w3.org/2000/svg"
   xmlns:svg="http://www.w3.org/2000/svg"><sodipodi:namedview
     id="namedview1"
     pagecolor="#ffffff"
     bordercolor="#000000"
     borderopacity="0.25"
     inkscape:showpageshadow="2"
     inkscape:pageopacity="0.0"
     inkscape:pagecheckerboard="0"
     inkscape:deskcolor="#d1d1d1"
     inkscape:document-units="mm"
     inkscape:zoom="0.04"
     inkscape:cx="3175"
     inkscape:cy="20037.5"
     inkscape:window-width="1920"
     inkscape:window-height="1017"
     inkscape:window-x="-8"
     inkscape:window-y="-8"
     inkscape:window-maximized="1"
     inkscape:current-layer="layer1" /><defs
     id="defs1"><style
       id="style1">
      .cls-1, .cls-2 {
        fill: #fff;
      }

      .cls-2, .cls-3 {
        stroke: #000;
      }

      .cls-2, .cls-3, .cls-4 {
        stroke-linecap: round;
        stroke-linejoin: round;
      }

      .cls-5 {
        fill: #bd2025;
      }

      .cls-5, .cls-6 {
        fill-rule: evenodd;
      }

      .cls-3, .cls-4 {
        fill: none;
      }

      .cls-4 {
        stroke: #bd2025;
      }
    </style><style
       id="style1-3">
      .cls-1, .cls-2 {
        fill: #fff;
      }

      .cls-2, .cls-3 {
        stroke: #000;
      }

      .cls-2, .cls-3, .cls-4 {
        stroke-linecap: round;
        stroke-linejoin: round;
      }

      .cls-5 {
        fill: #bd2025;
      }

      .cls-5, .cls-6 {
        fill-rule: evenodd;
      }

      .cls-3, .cls-4 {
        fill: none;
      }

      .cls-4 {
        stroke: #bd2025;
      }
    </style><style
       id="style2">
      .cls-1, .cls-2 {
        fill: #fff;
      }

      .cls-2, .cls-3 {
        stroke: #000;
      }

      .cls-2, .cls-3, .cls-4 {
        stroke-linecap: round;
        stroke-linejoin: round;
      }

      .cls-5 {
        fill: #bd2025;
      }

      .cls-5, .cls-6 {
        fill-rule: evenodd;
      }

      .cls-3, .cls-4 {
        fill: none;
      }

      .cls-4 {
        stroke: #bd2025;
      }

      .cls-7 {
        font-family: ArialMT, Arial;
        font-size: 155.09px;
      }
    </style><style
       id="style1-8">
      .cls-1, .cls-2 {
        fill: #fff;
      }

      .cls-2, .cls-3 {
        stroke: #000;
      }

      .cls-2, .cls-3, .cls-4 {
        stroke-linecap: round;
        stroke-linejoin: round;
      }

      .cls-5 {
        fill: #bd2025;
      }

      .cls-5, .cls-6 {
        fill-rule: evenodd;
      }

      .cls-3, .cls-4 {
        fill: none;
      }

      .cls-4 {
        stroke: #bd2025;
      }
    </style><style
       id="style1-9">
      .cls-1, .cls-2 {
        fill: #fff;
      }

      .cls-2, .cls-3 {
        stroke: #000;
      }

      .cls-2, .cls-3, .cls-4 {
        stroke-linecap: round;
        stroke-linejoin: round;
      }

      .cls-5 {
        fill: #bd2025;
      }

      .cls-5, .cls-6 {
        fill-rule: evenodd;
      }

      .cls-3, .cls-4 {
        fill: none;
      }

      .cls-4 {
        stroke: #bd2025;
      }
    </style><style
       id="style1-2">
      .cls-1, .cls-2 {
        fill: #fff;
      }

      .cls-2, .cls-3 {
        stroke: #000;
      }

      .cls-2, .cls-3, .cls-4 {
        stroke-linecap: round;
        stroke-linejoin: round;
      }

      .cls-5 {
        fill: #bd2025;
      }

      .cls-5, .cls-6 {
        fill-rule: evenodd;
      }

      .cls-3, .cls-4 {
        fill: none;
      }

      .cls-4 {
        stroke: #bd2025;
      }
    </style></defs><g
     inkscape:label="Layer 1"
     inkscape:groupmode="layer"
     id="layer1"
     transform="translate(-1157.6635,-4520.1893)"><g
       id="g249"><g
         id="g75"
         transform="translate(-1055.9378,920.34574)"><g
           id="g69"
           transform="matrix(1.1198292,0,0,1.1198292,1493.4656,3593.7999)"
           style="fill:#000000;fill-opacity:1;stroke:none;stroke-width:0.236271"><g
             id="g60"
             data-name="HATCH"
             style="fill:#000000;fill-opacity:1;stroke:none;stroke-width:0.236271"><path
               class="cls-4"
               d="m 973.16,621.26 285.78,-285.78 c 7.28,-7.28 7.28,-19.09 0,-26.38 L 973.16,23.33 c -7.28,-7.28 -19.09,-7.28 -26.38,0 L 661,309.11 c -7.28,7.28 -7.28,19.09 0,26.38 l 285.78,285.78 c 7.28,7.28 19.09,7.28 26.38,0 m 8.79,8.78 285.78,-285.78 c 12.14,-12.14 12.14,-31.82 0,-43.97 L 981.95,14.53 C 969.81,2.39 950.13,2.39 937.98,14.53 L 652.2,300.31 c -12.14,12.14 -12.14,31.82 0,43.97 l 285.78,285.78 c 12.14,12.14 31.82,12.14 43.97,0 z"
               id="path60"
               style="fill:#000000;fill-opacity:1;fill-rule:evenodd;stroke:none;stroke-width:0.236271;stroke-linecap:round;stroke-linejoin:round" /></g><g
             id="g61"
             data-name="HATCH"
             style="fill:#000000;fill-opacity:1;stroke:none;stroke-width:0.236271" /><g
             id="g62"
             style="fill:#000000;fill-opacity:1;stroke:none;stroke-width:0.236271"><rect
               class="cls-2"
               x="726.81"
               y="89.129997"
               width="466.32999"
               height="466.32999"
               rx="31.09"
               ry="31.09"
               transform="rotate(-45,959.96996,322.29742)"
               id="rect61"
               style="fill:#000000;fill-opacity:1;stroke:none;stroke-width:0.236271;stroke-linecap:round;stroke-linejoin:round" /></g><g
             id="g63"
             data-name="LWPOLYLINE"
             style="fill:#000000;fill-opacity:1;stroke:none;stroke-width:0.236271"><rect
               class="cls-2"
               x="739.23999"
               y="101.57"
               width="441.45999"
               height="441.45999"
               rx="18.65"
               ry="18.65"
               transform="rotate(-45,959.96996,322.29742)"
               id="rect62"
               style="fill:#000000;fill-opacity:1;stroke:none;stroke-width:0.236271;stroke-linecap:round;stroke-linejoin:round" /></g><g
             id="g64"
             data-name="LWPOLYLINE"
             style="fill:#000000;fill-opacity:1;stroke:none;stroke-width:0.236271" /><g
             id="g65"
             data-name="LWPOLYLINE"
             style="fill:#000000;fill-opacity:1;stroke:none;stroke-width:0.236271" /><g
             id="g66"
             data-name="LWPOLYLINE"
             style="fill:#000000;fill-opacity:1;stroke:none;stroke-width:0.236271" /><g
             id="g67"
             style="fill:#000000;fill-opacity:1;stroke:none;stroke-width:0.236271" /><g
             id="g68"
             data-name="CIRCLE"
             style="fill:#000000;fill-opacity:1;stroke:none;stroke-width:0.236271" /></g><g
           id="g74"
           transform="matrix(1.1198292,0,0,1.1198292,1493.4656,3593.7999)"
           style="stroke:none;stroke-width:0.236271"><g
             id="g70"
             style="stroke:none;stroke-width:0.236271"><rect
               class="cls-3"
               x="739.23999"
               y="101.57"
               width="441.45999"
               height="441.45999"
               rx="18.65"
               ry="18.65"
               transform="rotate(-45,959.96996,322.29742)"
               id="rect69"
               style="fill:#ffca06;fill-opacity:1;stroke:none;stroke-width:0.236271;stroke-linecap:round;stroke-linejoin:round" /></g></g></g><path
         id="rect58"
         style="fill:#000000;fill-opacity:1;stroke:none;stroke-width:11.065;stroke-linecap:round;stroke-linejoin:round;stroke-dasharray:none;stroke-opacity:1"
         d="m 1538.8637,4771.8602 c -1.3876,-0.01 -2.7998,0.251 -4.1625,0.8154 l -67.2306,27.8459 -54.1191,-7.0466 c -1.3545,-0.1765 -2.7305,-0.092 -4.053,0.2496 l -95.5895,24.7034 c -5.7472,1.4865 -9.1804,7.373 -7.6445,13.1072 l 5.9856,22.3438 6.0219,29.0411 -28.7771,38.4959 a 9.0325003,9.0325003 0 0 0 1.8258,12.6426 9.0325003,9.0325003 0 0 0 12.6426,-1.8262 l 31.2131,-41.7535 a 9.0334035,9.0334035 0 0 0 1.6092,-7.2425 l -4.81,-23.2032 5.3107,-1.5183 8.847,17.9793 -9.2325,41.5509 a 9.0325003,9.0325003 0 0 0 6.8575,10.7751 9.0325003,9.0325003 0 0 0 10.7776,-6.8575 l 9.9219,-44.6484 a 9.0334035,9.0334035 0 0 0 -0.7131,-5.9469 l -8.8078,-17.8992 53.6733,-15.3453 18.4996,33.508 c 0.5664,1.0252 1.2976,1.9503 2.1642,2.7383 l 50.4357,45.8887 c 4.3639,3.9698 11.1193,3.6503 15.0895,-0.7131 3.9711,-4.3642 3.6522,-11.1212 -0.7126,-15.0916 l -49.1272,-44.697 -21.7574,-39.4064 44.541,1.7265 c 1.8543,0.241 3.7393,-0.01 5.4668,-0.7245 l 69.8671,-28.9378 c 5.4504,-2.2578 8.0385,-8.5061 5.781,-13.9567 -1.6933,-4.0878 -5.6315,-6.5659 -9.7942,-6.597 z m 64.5718,9.3053 a 5.5324998,5.5324998 0 0 0 -2.7833,0.678 l -34.201,18.7095 a 5.5324998,5.5324998 0 0 0 -2.1994,7.5075 5.5324998,5.5324998 0 0 0 7.5096,2.1994 l 14.6131,-7.9939 1.7477,10.3498 -79.1053,44.0655 -1.9523,-10.5192 c -0.01,-0.047 -0.3714,-1.7896 1.3668,-5.7697 1.7616,-4.0338 5.765,-9.7913 15.7913,-15.5799 a 5.5324998,5.5324998 0 0 0 2.0252,-7.5567 5.5324998,5.5324998 0 0 0 -3.3595,-2.5781 5.5324998,5.5324998 0 0 0 -4.1971,0.5529 c -11.7243,6.7691 -17.6604,14.4605 -20.4003,20.7342 -2.7398,6.2737 -2.1994,11.668 -2.1994,11.668 a 5.533053,5.533053 0 0 0 0.047,0.293 l 19.3311,104.1621 -4.5713,1.2247 a 5.5324998,5.5324998 0 0 0 -3.9124,6.7774 5.5324998,5.5324998 0 0 0 6.7752,3.9119 l 3.7337,-1.0004 8.7529,47.1645 a 5.5324998,5.5324998 0 0 0 6.4492,4.4318 5.5324998,5.5324998 0 0 0 4.4297,-6.4492 l -8.9116,-48.0198 4.3512,-1.1659 a 5.5324998,5.5324998 0 0 0 3.9119,-6.7753 5.5324998,5.5324998 0 0 0 -6.7753,-3.9124 l -3.513,0.9411 -11.1631,-60.1519 94.4573,25.17 a 5.533053,5.533053 0 0 0 4.4473,-0.7131 l 20.0308,-13.0736 c 10.0877,12.1588 25.3026,19.9212 42.2858,19.9212 30.2741,0 54.9351,-24.6609 54.9351,-54.9351 0,-30.2741 -24.661,-54.9357 -54.9351,-54.9357 -17.5642,0 -33.2272,8.3106 -43.293,21.1925 l -33.3768,-17.6831 -2.9316,-17.3602 9.3163,-5.0964 a 5.5324998,5.5324998 0 0 0 2.1988,-7.508 5.5324998,5.5324998 0 0 0 -3.2985,-2.6562 5.5324998,5.5324998 0 0 0 -1.4278,-0.2212 z m 72.8126,40.397 c 24.2941,0 43.8691,19.5771 43.8691,43.8713 0,24.2943 -19.575,43.8691 -43.8691,43.8691 -13.1802,0 -24.9635,-5.7693 -32.9939,-14.92 l 40.5443,-26.463 a 5.533053,5.533053 0 0 0 -0.4336,-9.5214 l -40.505,-21.4596 c 8.0361,-9.415 19.9907,-15.3764 33.3882,-15.3764 z m -86.171,2.6309 12.9822,76.879 -90.2679,-24.0538 -1.6444,-8.8594 z m 11.8236,3.5672 25.1323,13.3155 c -3.6541,7.3473 -5.7206,15.6157 -5.7206,24.3577 0,9.3307 2.3491,18.1238 6.4766,25.8304 l -13.6586,8.9153 z m -319.6343,7.2869 a 21.290691,21.290691 0 0 0 -21.2907,21.2907 21.290691,21.290691 0 0 0 21.2907,21.2907 21.290691,21.290691 0 0 0 21.2907,-21.2907 21.290691,21.290691 0 0 0 -21.2907,-21.2907 z m 354.5024,11.1869 33.1236,17.5493 -32.828,21.4266 c -2.993,-5.9385 -4.6876,-12.6512 -4.6876,-19.7765 0,-6.8933 1.5792,-13.4052 4.392,-19.1994 z m -187.5549,165.5527 v 27.0785 h 131.8782 v -27.0785 h -42.478 v 10.3353 c 0,5.4967 -4.4252,9.9219 -9.9219,9.9219 -5.4967,0 -9.9219,-4.4252 -9.9219,-9.9219 v -10.3353 h -7.2347 v 10.3353 c 0,5.4967 -4.4251,9.9219 -9.9218,9.9219 -5.4967,0 -9.9219,-4.4252 -9.9219,-9.9219 v -10.3353 z" /></g></g></svg>
