<?xml version="1.0" encoding="UTF-8" standalone="no"?>
<!-- Created with Inkscape (http://www.inkscape.org/) -->

<svg
   width="709.99982mm"
   height="709.99994mm"
   viewBox="0 0 709.99982 709.99994"
   version="1.1"
   id="svg1"
   inkscape:version="1.3.2 (091e20e, 2023-11-25, custom)"
   sodipodi:docname="MX road draw.svg"
   xml:space="preserve"
   xmlns:inkscape="http://www.inkscape.org/namespaces/inkscape"
   xmlns:sodipodi="http://sodipodi.sourceforge.net/DTD/sodipodi-0.dtd"
   xmlns="http://www.w3.org/2000/svg"
   xmlns:svg="http://www.w3.org/2000/svg"><sodipodi:namedview
     id="namedview1"
     pagecolor="#ffffff"
     bordercolor="#000000"
     borderopacity="0.25"
     inkscape:showpageshadow="2"
     inkscape:pageopacity="0.0"
     inkscape:pagecheckerboard="0"
     inkscape:deskcolor="#d1d1d1"
     inkscape:document-units="mm"
     inkscape:zoom="0.04"
     inkscape:cx="17475"
     inkscape:cy="-8137.5"
     inkscape:window-width="1920"
     inkscape:window-height="1017"
     inkscape:window-x="-8"
     inkscape:window-y="-8"
     inkscape:window-maximized="1"
     inkscape:current-layer="layer1" /><defs
     id="defs1"><style
       id="style2">
      .cls-1 {
        fill: #fff;
      }

      .cls-1, .cls-2 {
        stroke: #000;
        stroke-linecap: round;
        stroke-linejoin: round;
      }

      .cls-2 {
        fill: none;
      }

      .cls-3 {
        fill: #ffca06;
      }

      .cls-4 {
        fill-rule: evenodd;
      }
    </style><style
       id="style2-5">
      .cls-1 {
        fill: #fff;
      }

      .cls-1, .cls-2 {
        stroke: #000;
        stroke-linecap: round;
        stroke-linejoin: round;
      }

      .cls-2 {
        fill: none;
      }

      .cls-3 {
        fill: #ffca06;
      }

      .cls-4 {
        fill-rule: evenodd;
      }
    </style></defs><g
     inkscape:label="Layer 1"
     inkscape:groupmode="layer"
     id="layer1"
     transform="translate(-3022.4905,2357.7638)"><g
       id="g70"
       transform="matrix(1.1198292,0,0,1.1198292,3022.0663,-2358.188)"
       style="stroke-width:0.236271"><g
         id="g59"
         transform="translate(-642.58046,-4.9008088)"
         style="stroke-width:0.236271"><g
           id="g58"
           style="stroke-width:0.236271"><rect
             class="cls-3"
             x="739.23999"
             y="101.57"
             width="441.45999"
             height="441.45999"
             rx="18.65"
             ry="18.65"
             transform="rotate(-45,959.96996,322.29742)"
             id="rect58"
             style="stroke-width:0.236271" /></g></g><g
         id="g69"
         transform="translate(-642.58046,-4.9008088)"
         style="stroke-width:0.236271"><g
           id="g60"
           data-name="HATCH"
           style="stroke-width:0.236271"><path
             class="cls-4"
             d="m 973.16,621.26 285.78,-285.78 c 7.28,-7.28 7.28,-19.09 0,-26.38 L 973.16,23.33 c -7.28,-7.28 -19.09,-7.28 -26.38,0 L 661,309.11 c -7.28,7.28 -7.28,19.09 0,26.38 l 285.78,285.78 c 7.28,7.28 19.09,7.28 26.38,0 m 8.79,8.78 285.78,-285.78 c 12.14,-12.14 12.14,-31.82 0,-43.97 L 981.95,14.53 C 969.81,2.39 950.13,2.39 937.98,14.53 L 652.2,300.31 c -12.14,12.14 -12.14,31.82 0,43.97 l 285.78,285.78 c 12.14,12.14 31.82,12.14 43.97,0 z"
             id="path59"
             style="stroke-width:0.236271" /></g><g
           id="g61"
           data-name="HATCH"
           style="stroke-width:0.236271" /><g
           id="g62"
           style="stroke-width:0.236271"><rect
             class="cls-2"
             x="726.81"
             y="89.129997"
             width="466.32999"
             height="466.32999"
             rx="31.09"
             ry="31.09"
             transform="rotate(-45,959.96996,322.29742)"
             id="rect61"
             style="stroke-width:0.236271" /></g><g
           id="g63"
           data-name="LWPOLYLINE"
           style="stroke-width:0.236271"><rect
             class="cls-2"
             x="739.23999"
             y="101.57"
             width="441.45999"
             height="441.45999"
             rx="18.65"
             ry="18.65"
             transform="rotate(-45,959.96996,322.29742)"
             id="rect62"
             style="stroke-width:0.236271" /></g><g
           id="g64"
           data-name="LWPOLYLINE"
           style="stroke-width:0.236271" /><g
           id="g65"
           data-name="LWPOLYLINE"
           style="stroke-width:0.236271" /><g
           id="g66"
           data-name="LWPOLYLINE"
           style="stroke-width:0.236271" /><g
           id="g67"
           style="stroke-width:0.236271" /><g
           id="g68"
           data-name="CIRCLE"
           style="stroke-width:0.236271" /></g></g><path
       id="path47"
       style="color:#000000;fill:#000000;stroke-width:0.999996;stroke-linejoin:round;stroke-miterlimit:6.6;stroke-dashoffset:30.5643;-inkscape-stroke:none"
       d="m 3208.5517,-2122.5947 -25.4208,20.4562 -1.864,19.3368 271.3752,38.8232 v 4.1876 h -95.4929 c -4.5288,0 -8.1748,3.6463 -8.1748,8.1748 v 86.5402 h 138.0584 12.1015 74.5796 v -84.9898 l -10.0071,-10.0071 h -8.4686 v -33.2434 a 3.7506195,3.7506195 0 0 0 -3.7507,-3.7497 h -18.3354 a 3.7506195,3.7506195 0 0 0 -2.2396,0.7399 l -9.8494,7.3271 -4.043,-6.8641 -303.6503,-46.0205 -0.02,0.015 z m 6.5983,5.8274 31.9564,4.8415 -18.208,11.5055 z m 45.2081,6.8485 32.7197,4.9571 -18.7662,10.3898 z m -55.9108,0.9767 15.1945,18.0636 -32.3552,-4.6288 0.015,-0.1605 z m 101.6742,5.9563 33.2912,5.0432 -18.5745,10.7893 z m -54.0771,3.5879 13.7492,15.122 -30.7253,-4.3955 z m 99.8926,3.353 33.3046,5.0452 -19.1185,9.7886 z m -54.1067,3.5695 13.7042,14.7436 -32.0459,-4.585 z m 97.6756,3.0311 36.2975,5.4989 -19.7399,9.766 z m -51.5696,4.1712 13.4906,14.1065 -30.3102,-4.3362 z m 100.4846,3.2388 32.4003,4.9085 -17.9006,10.2016 z m -55.8466,4.1897 14.2932,13.179 -31.2912,-4.4764 z m 102.6219,2.8964 16.4766,2.4961 -9.2841,6.9275 z m -54.9079,3.544 12.8119,13.3523 -30.876,-4.4171 z m -180.7252,5.9761 c -5.2135,0 -9.4404,4.2275 -9.4404,9.4412 v 11.5357 h 18.8816 v -11.5357 c 0,-5.2137 -4.2272,-9.4412 -9.4412,-9.4412 z m 226.6204,0.4722 5.604,7.3409 -5.733,4.2779 -16.1952,-2.3171 z m 47.0453,11.611 h 3.2947 a 3.7506195,3.7506195 0 0 1 3.7505,3.7505 v 11.9056 a 3.7506195,3.7506195 0 0 1 -3.6491,3.7478 l -12.9951,0.3517 a 3.7506195,3.7506195 0 0 1 -2.986,-1.3503 l -2.4905,-2.9993 a 3.7506195,3.7506195 0 0 1 0.6153,-5.3827 l 12.1938,-9.2615 a 3.7506195,3.7506195 0 0 1 2.2664,-0.7618 z m -301.8173,13.6534 c -2.3751,0 -4.4914,1.5005 -5.2771,3.742 l -21.1402,60.3237 c -0.2084,0.5951 -0.3146,1.2209 -0.3143,1.8515 v 59.4764 c -8e-4,3.0887 2.5026,5.5933 5.5914,5.5935 h 40.8752 c 0,-14.5717 6.708,-27.1468 12.6718,-31.3687 5.7964,-4.1031 11.2549,-4.9493 11.5681,-4.9965 h 69.0172 v -89.0313 c -8e-4,-3.0874 -2.5033,-5.5899 -5.5906,-5.5906 z m 5.1565,13.8211 53.2193,6e-4 c 2.0328,6e-4 3.6807,1.648 3.6815,3.6808 v 26.0142 c -6e-4,2.033 -1.6485,3.6809 -3.6815,3.6815 h -11.3199 l -44.9629,18.85 c -0.035,0.014 -0.071,0.028 -0.1063,0.043 0,0 -2.0625,0.8836 -4.6771,0.9027 -1.3074,0.013 -2.964,-0.166 -4.552,-1.3453 -1.5878,-1.1794 -2.5461,-3.4002 -2.5461,-5.4891 v -13.1559 c 2e-4,-0.4488 0.082,-0.8936 0.2424,-1.3129 l 11.2616,-29.5012 c 0.545,-1.4264 1.914,-2.3683 3.4411,-2.3677 z m 68.0234,0.059 h 22.0488 c 2.033,7e-4 3.681,1.6487 3.6816,3.6814 v 25.8551 c 2e-4,2.0335 -1.648,3.6822 -3.6816,3.6828 h -22.0488 c -2.0343,6e-4 -3.6837,-1.6484 -3.6835,-3.6828 v -25.8551 c 6e-4,-2.0335 1.6497,-3.682 3.6835,-3.6814 z m 72.2894,4.5646 h 36.3355 c 3.2634,0 5.9824,2.7191 5.9824,5.9824 v 49.2911 c 0,3.2633 -2.719,5.9824 -5.9824,5.9824 h -36.3355 c -3.2632,0 -5.9825,-2.7191 -5.9825,-5.9824 v -49.2911 c 0,-3.2633 2.7193,-5.9824 5.9825,-5.9824 z m 0,5.8653 c -0.1159,0 -0.1173,0 -0.1173,0.1174 v 49.2911 c 0,0.12 0,0.12 0.1173,0.12 h 36.3355 c 0.1159,0 0.1172,0 0.1172,-0.12 v -49.2911 c 0,-0.116 0,-0.1174 -0.1172,-0.1174 z m -89.0829,78.3682 c -15.4306,0 -27.9395,12.509 -27.9395,27.9396 0,15.4307 12.5089,27.9401 27.9395,27.9401 15.4306,0 27.9396,-12.5094 27.9396,-27.9401 0,-15.4306 -12.509,-27.9396 -27.9396,-27.9396 z m 205.4978,0 c -15.4308,0 -27.9395,12.509 -27.9395,27.9396 0,15.4307 12.5087,27.9401 27.9395,27.9401 15.4307,0 27.94,-12.5094 27.94,-27.9401 0,-15.4306 -12.5093,-27.9396 -27.94,-27.9396 z m -179.3595,0.8352 c 7.102,6.8502 11.5264,16.4579 11.5264,27.1044 0,0.135 -0.013,0.2678 -0.013,0.4025 h 130.188 c 0,-0.1351 -0.013,-0.2675 -0.013,-0.4025 0,-10.6465 4.4246,-20.2542 11.5265,-27.1044 z m 205.4977,0 c 7.1019,6.8502 11.5264,16.4579 11.5264,27.1044 0,0.135 -0.013,0.2678 -0.013,0.4025 h 45.4682 v -27.5069 z m -231.636,11.5101 c 8.6125,0 15.5942,6.982 15.5942,15.5943 0,8.6125 -6.9817,15.5941 -15.5942,15.5941 -8.6124,0 -15.594,-6.9816 -15.594,-15.5941 0,-8.6123 6.9816,-15.5943 15.594,-15.5943 z m 205.4978,0 c 8.6124,0 15.5941,6.982 15.5941,15.5943 0,8.6125 -6.9817,15.5941 -15.5941,15.5941 -8.6126,0 -15.5943,-6.9816 -15.5943,-15.5941 0,-8.6123 6.9817,-15.5943 15.5943,-15.5943 z" /></g></svg>
