<?xml version="1.0" encoding="UTF-8" standalone="no"?>
<!-- Created with Inkscape (http://www.inkscape.org/) -->

<svg
   width="709.99982mm"
   height="709.99982mm"
   viewBox="0 0 709.99982 709.99982"
   version="1.1"
   id="svg1"
   inkscape:version="1.3.2 (091e20e, 2023-11-25, custom)"
   sodipodi:docname="MX road draw.svg"
   xml:space="preserve"
   xmlns:inkscape="http://www.inkscape.org/namespaces/inkscape"
   xmlns:sodipodi="http://sodipodi.sourceforge.net/DTD/sodipodi-0.dtd"
   xmlns="http://www.w3.org/2000/svg"
   xmlns:svg="http://www.w3.org/2000/svg"><sodipodi:namedview
     id="namedview1"
     pagecolor="#ffffff"
     bordercolor="#000000"
     borderopacity="0.25"
     inkscape:showpageshadow="2"
     inkscape:pageopacity="0.0"
     inkscape:pagecheckerboard="0"
     inkscape:deskcolor="#d1d1d1"
     inkscape:document-units="mm"
     inkscape:zoom="0.04"
     inkscape:cx="17475"
     inkscape:cy="-8137.5"
     inkscape:window-width="1920"
     inkscape:window-height="1017"
     inkscape:window-x="-8"
     inkscape:window-y="-8"
     inkscape:window-maximized="1"
     inkscape:current-layer="layer1" /><defs
     id="defs1"><style
       id="style2">
      .cls-1 {
        fill: #fff;
      }

      .cls-1, .cls-2 {
        stroke: #000;
        stroke-linecap: round;
        stroke-linejoin: round;
      }

      .cls-2 {
        fill: none;
      }

      .cls-3 {
        fill: #ffca06;
      }

      .cls-4 {
        fill-rule: evenodd;
      }
    </style><style
       id="style2-5">
      .cls-1 {
        fill: #fff;
      }

      .cls-1, .cls-2 {
        stroke: #000;
        stroke-linecap: round;
        stroke-linejoin: round;
      }

      .cls-2 {
        fill: none;
      }

      .cls-3 {
        fill: #ffca06;
      }

      .cls-4 {
        fill-rule: evenodd;
      }
    </style></defs><g
     inkscape:label="Layer 1"
     inkscape:groupmode="layer"
     id="layer1"
     transform="translate(-1591.262,3199.6628)"><g
       id="g36"
       transform="matrix(1.1198292,0,0,1.1198292,1590.8379,-3200.087)"
       style="stroke-width:0.236271"><g
         id="g25"
         transform="translate(-642.58046,-4.9008088)"
         style="stroke-width:0.236271"><g
           id="g24"
           style="stroke-width:0.236271"><rect
             class="cls-3"
             x="739.23999"
             y="101.57"
             width="441.45999"
             height="441.45999"
             rx="18.65"
             ry="18.65"
             transform="rotate(-45,959.96996,322.29742)"
             id="rect24"
             style="stroke-width:0.236271" /></g></g><g
         id="g35"
         transform="translate(-642.58046,-4.9008088)"
         style="stroke-width:0.236271"><g
           id="g26"
           data-name="HATCH"
           style="stroke-width:0.236271"><path
             class="cls-4"
             d="m 973.16,621.26 285.78,-285.78 c 7.28,-7.28 7.28,-19.09 0,-26.38 L 973.16,23.33 c -7.28,-7.28 -19.09,-7.28 -26.38,0 L 661,309.11 c -7.28,7.28 -7.28,19.09 0,26.38 l 285.78,285.78 c 7.28,7.28 19.09,7.28 26.38,0 m 8.79,8.78 285.78,-285.78 c 12.14,-12.14 12.14,-31.82 0,-43.97 L 981.95,14.53 C 969.81,2.39 950.13,2.39 937.98,14.53 L 652.2,300.31 c -12.14,12.14 -12.14,31.82 0,43.97 l 285.78,285.78 c 12.14,12.14 31.82,12.14 43.97,0 z"
             id="path25"
             style="stroke-width:0.236271" /></g><g
           id="g27"
           data-name="HATCH"
           style="stroke-width:0.236271" /><g
           id="g28"
           style="stroke-width:0.236271"><rect
             class="cls-2"
             x="726.81"
             y="89.129997"
             width="466.32999"
             height="466.32999"
             rx="31.09"
             ry="31.09"
             transform="rotate(-45,959.96996,322.29742)"
             id="rect27"
             style="stroke-width:0.236271" /></g><g
           id="g29"
           data-name="LWPOLYLINE"
           style="stroke-width:0.236271"><rect
             class="cls-2"
             x="739.23999"
             y="101.57"
             width="441.45999"
             height="441.45999"
             rx="18.65"
             ry="18.65"
             transform="rotate(-45,959.96996,322.29742)"
             id="rect28"
             style="stroke-width:0.236271" /></g><g
           id="g30"
           data-name="LWPOLYLINE"
           style="stroke-width:0.236271" /><g
           id="g31"
           data-name="LWPOLYLINE"
           style="stroke-width:0.236271" /><g
           id="g32"
           data-name="LWPOLYLINE"
           style="stroke-width:0.236271" /><g
           id="g33"
           style="stroke-width:0.236271" /><g
           id="g34"
           data-name="CIRCLE"
           style="stroke-width:0.236271" /></g></g><path
       id="path21"
       style="color:#000000;fill:#000000;stroke-linejoin:round;stroke-miterlimit:6.6;stroke-dashoffset:30.5643;-inkscape-stroke:none"
       d="m 1921.37,-3000.592 c -10.5646,0 -19.1291,8.5648 -19.1291,19.1296 v 12.0659 h 38.2587 v -12.0659 c 0,-10.5648 -8.5645,-19.1296 -19.1296,-19.1296 z m -67.4827,42.4383 c -2.1532,2e-4 -4.2155,0.8683 -5.7206,2.4081 l -101.1447,103.4826 c -1.4611,1.4947 -2.2793,3.5017 -2.2795,5.5919 v 81.8513 c 4e-4,4.4181 3.5819,7.9996 8,8 h 19.6541 c 0.051,-27.7675 22.574,-50.2636 50.3541,-50.2636 27.78,0 50.3035,22.4961 50.354,50.2636 h 144.0315 c 0.051,-27.7676 22.574,-50.2636 50.3541,-50.2636 27.7795,0 50.3035,22.496 50.354,50.2636 h 21.9372 c 4.4181,-4e-4 7.9996,-3.5819 8,-8 v -185.3339 c -4e-4,-4.4181 -3.5819,-7.9996 -8,-8 z m 4.0623,12.6483 h 18.512 c 2.7613,4e-4 4.9995,2.2389 4.9997,5.0002 v 77.6035 c -2e-4,2.7613 -2.2384,4.9998 -4.9997,5.0002 h -94.3596 c -4.4278,2e-4 -6.6713,-5.3299 -3.576,-8.4961 l 75.8476,-77.602 c 0.9407,-0.9628 2.2299,-1.5056 3.576,-1.5058 z m 169.8723,10.8448 c 27.6074,1e-4 49.9876,22.3803 49.9876,49.9877 -10e-5,27.6074 -22.3802,49.9875 -49.9876,49.9876 -27.6074,0 -49.9876,-22.3802 -49.9877,-49.9876 0,-27.6074 22.3803,-49.9877 49.9877,-49.9877 z m -8.5054,16.9545 v 24.5277 h -24.5277 v 17.0109 h 24.5277 v 24.5272 h 17.0108 v -24.5272 h 24.5272 v -17.0109 h -24.5272 v -24.5277 z m -196.5658,129.2257 c -17.5368,0 -31.7531,14.2164 -31.7531,31.7531 0,17.5368 14.2163,31.7536 31.7531,31.7536 17.5368,0 31.7531,-14.2168 31.7531,-31.7536 0,-17.5367 -14.2163,-31.7531 -31.7531,-31.7531 z m 244.7396,0 c -17.5368,0 -31.7531,14.2164 -31.7531,31.7531 0,17.5368 14.2163,31.7536 31.7531,31.7536 17.5365,0 31.7531,-14.2168 31.7531,-31.7536 0,-17.5367 -14.2166,-31.7531 -31.7531,-31.7531 z m -244.7396,14.0307 c 9.788,0 17.7224,7.9345 17.7224,17.7224 0,9.788 -7.9344,17.723 -17.7224,17.723 -9.788,0 -17.723,-7.935 -17.723,-17.723 0,-9.7879 7.935,-17.7224 17.723,-17.7224 z m 244.7396,0 c 9.788,0 17.7224,7.9345 17.7224,17.7224 0,9.788 -7.9344,17.723 -17.7224,17.723 -9.788,0 -17.723,-7.935 -17.723,-17.723 0,-9.7879 7.935,-17.7224 17.723,-17.7224 z"
       sodipodi:nodetypes="ssccsscccccccsccscccccccccccccccssssscccccccccccccssssssssssssssssssss" /></g></svg>
