<?xml version="1.0" encoding="UTF-8" standalone="no"?>
<!-- Created with Inkscape (http://www.inkscape.org/) -->

<svg
   width="709.73761mm"
   height="709.73761mm"
   viewBox="0 0 709.73761 709.73761"
   version="1.1"
   id="svg1"
   inkscape:version="1.3.2 (091e20e, 2023-11-25, custom)"
   sodipodi:docname="mexico draw.svg"
   xml:space="preserve"
   xmlns:inkscape="http://www.inkscape.org/namespaces/inkscape"
   xmlns:sodipodi="http://sodipodi.sourceforge.net/DTD/sodipodi-0.dtd"
   xmlns="http://www.w3.org/2000/svg"
   xmlns:svg="http://www.w3.org/2000/svg"><sodipodi:namedview
     id="namedview1"
     pagecolor="#ffffff"
     bordercolor="#000000"
     borderopacity="0.25"
     inkscape:showpageshadow="2"
     inkscape:pageopacity="0.0"
     inkscape:pagecheckerboard="0"
     inkscape:deskcolor="#d1d1d1"
     inkscape:document-units="mm"
     inkscape:zoom="0.04"
     inkscape:cx="3175"
     inkscape:cy="20037.5"
     inkscape:window-width="1920"
     inkscape:window-height="1017"
     inkscape:window-x="-8"
     inkscape:window-y="-8"
     inkscape:window-maximized="1"
     inkscape:current-layer="layer1" /><defs
     id="defs1"><style
       id="style1">
      .cls-1, .cls-2 {
        fill: #fff;
      }

      .cls-2, .cls-3 {
        stroke: #000;
      }

      .cls-2, .cls-3, .cls-4 {
        stroke-linecap: round;
        stroke-linejoin: round;
      }

      .cls-5 {
        fill: #bd2025;
      }

      .cls-5, .cls-6 {
        fill-rule: evenodd;
      }

      .cls-3, .cls-4 {
        fill: none;
      }

      .cls-4 {
        stroke: #bd2025;
      }
    </style><style
       id="style1-3">
      .cls-1, .cls-2 {
        fill: #fff;
      }

      .cls-2, .cls-3 {
        stroke: #000;
      }

      .cls-2, .cls-3, .cls-4 {
        stroke-linecap: round;
        stroke-linejoin: round;
      }

      .cls-5 {
        fill: #bd2025;
      }

      .cls-5, .cls-6 {
        fill-rule: evenodd;
      }

      .cls-3, .cls-4 {
        fill: none;
      }

      .cls-4 {
        stroke: #bd2025;
      }
    </style><style
       id="style2">
      .cls-1, .cls-2 {
        fill: #fff;
      }

      .cls-2, .cls-3 {
        stroke: #000;
      }

      .cls-2, .cls-3, .cls-4 {
        stroke-linecap: round;
        stroke-linejoin: round;
      }

      .cls-5 {
        fill: #bd2025;
      }

      .cls-5, .cls-6 {
        fill-rule: evenodd;
      }

      .cls-3, .cls-4 {
        fill: none;
      }

      .cls-4 {
        stroke: #bd2025;
      }

      .cls-7 {
        font-family: ArialMT, Arial;
        font-size: 155.09px;
      }
    </style><style
       id="style1-8">
      .cls-1, .cls-2 {
        fill: #fff;
      }

      .cls-2, .cls-3 {
        stroke: #000;
      }

      .cls-2, .cls-3, .cls-4 {
        stroke-linecap: round;
        stroke-linejoin: round;
      }

      .cls-5 {
        fill: #bd2025;
      }

      .cls-5, .cls-6 {
        fill-rule: evenodd;
      }

      .cls-3, .cls-4 {
        fill: none;
      }

      .cls-4 {
        stroke: #bd2025;
      }
    </style><style
       id="style1-9">
      .cls-1, .cls-2 {
        fill: #fff;
      }

      .cls-2, .cls-3 {
        stroke: #000;
      }

      .cls-2, .cls-3, .cls-4 {
        stroke-linecap: round;
        stroke-linejoin: round;
      }

      .cls-5 {
        fill: #bd2025;
      }

      .cls-5, .cls-6 {
        fill-rule: evenodd;
      }

      .cls-3, .cls-4 {
        fill: none;
      }

      .cls-4 {
        stroke: #bd2025;
      }
    </style><style
       id="style1-2">
      .cls-1, .cls-2 {
        fill: #fff;
      }

      .cls-2, .cls-3 {
        stroke: #000;
      }

      .cls-2, .cls-3, .cls-4 {
        stroke-linecap: round;
        stroke-linejoin: round;
      }

      .cls-5 {
        fill: #bd2025;
      }

      .cls-5, .cls-6 {
        fill-rule: evenodd;
      }

      .cls-3, .cls-4 {
        fill: none;
      }

      .cls-4 {
        stroke: #bd2025;
      }
    </style></defs><g
     inkscape:label="Layer 1"
     inkscape:groupmode="layer"
     id="layer1"
     transform="translate(-252.62205,-5574.9017)"><g
       id="g250"><g
         id="g120"
         transform="translate(-1960.9792,1975.0581)"><g
           id="g117"
           transform="matrix(1.1198292,0,0,1.1198292,1493.4656,3593.7999)"
           style="fill:#000000;fill-opacity:1;stroke:none;stroke-width:0.236271"><g
             id="g108"
             data-name="HATCH"
             style="fill:#000000;fill-opacity:1;stroke:none;stroke-width:0.236271"><path
               class="cls-4"
               d="m 973.16,621.26 285.78,-285.78 c 7.28,-7.28 7.28,-19.09 0,-26.38 L 973.16,23.33 c -7.28,-7.28 -19.09,-7.28 -26.38,0 L 661,309.11 c -7.28,7.28 -7.28,19.09 0,26.38 l 285.78,285.78 c 7.28,7.28 19.09,7.28 26.38,0 m 8.79,8.78 285.78,-285.78 c 12.14,-12.14 12.14,-31.82 0,-43.97 L 981.95,14.53 C 969.81,2.39 950.13,2.39 937.98,14.53 L 652.2,300.31 c -12.14,12.14 -12.14,31.82 0,43.97 l 285.78,285.78 c 12.14,12.14 31.82,12.14 43.97,0 z"
               id="path107"
               style="fill:#000000;fill-opacity:1;fill-rule:evenodd;stroke:none;stroke-width:0.236271;stroke-linecap:round;stroke-linejoin:round" /></g><g
             id="g109"
             data-name="HATCH"
             style="fill:#000000;fill-opacity:1;stroke:none;stroke-width:0.236271" /><g
             id="g110"
             style="fill:#000000;fill-opacity:1;stroke:none;stroke-width:0.236271"><rect
               class="cls-2"
               x="726.81"
               y="89.129997"
               width="466.32999"
               height="466.32999"
               rx="31.09"
               ry="31.09"
               transform="rotate(-45,959.96996,322.29742)"
               id="rect109"
               style="fill:#000000;fill-opacity:1;stroke:none;stroke-width:0.236271;stroke-linecap:round;stroke-linejoin:round" /></g><g
             id="g111"
             data-name="LWPOLYLINE"
             style="fill:#000000;fill-opacity:1;stroke:none;stroke-width:0.236271"><rect
               class="cls-2"
               x="739.23999"
               y="101.57"
               width="441.45999"
               height="441.45999"
               rx="18.65"
               ry="18.65"
               transform="rotate(-45,959.96996,322.29742)"
               id="rect110"
               style="fill:#000000;fill-opacity:1;stroke:none;stroke-width:0.236271;stroke-linecap:round;stroke-linejoin:round" /></g><g
             id="g112"
             data-name="LWPOLYLINE"
             style="fill:#000000;fill-opacity:1;stroke:none;stroke-width:0.236271" /><g
             id="g113"
             data-name="LWPOLYLINE"
             style="fill:#000000;fill-opacity:1;stroke:none;stroke-width:0.236271" /><g
             id="g114"
             data-name="LWPOLYLINE"
             style="fill:#000000;fill-opacity:1;stroke:none;stroke-width:0.236271" /><g
             id="g115"
             style="fill:#000000;fill-opacity:1;stroke:none;stroke-width:0.236271" /><g
             id="g116"
             data-name="CIRCLE"
             style="fill:#000000;fill-opacity:1;stroke:none;stroke-width:0.236271" /></g><g
           id="g119"
           transform="matrix(1.1198292,0,0,1.1198292,1493.4656,3593.7999)"
           style="stroke:none;stroke-width:0.236271"><g
             id="g118"
             style="stroke:none;stroke-width:0.236271"><rect
               class="cls-3"
               x="739.23999"
               y="101.57"
               width="441.45999"
               height="441.45999"
               rx="18.65"
               ry="18.65"
               transform="rotate(-45,959.96996,322.29742)"
               id="rect117"
               style="fill:#ffca06;fill-opacity:1;stroke:none;stroke-width:0.236271;stroke-linecap:round;stroke-linejoin:round" /></g></g></g><g
         id="g107"
         transform="translate(2.0249672)"><path
           id="path26-7-1-0"
           style="fill-rule:evenodd;stroke-width:1.74165"
           class="cls-6"
           d="m 613.19771,5795.8726 c -12.47008,0 -23.18122,8.8646 -25.51472,21.1088 l -10.85102,56.8477 c -11.47748,0 -20.79511,9.2999 -20.79511,20.7951 v 62.3677 c 0,5.7473 4.65011,10.3984 10.3973,10.3984 h 10.39781 v 31.1753 c 0,5.653 4.50436,10.2199 10.12083,10.3699 H 485.75846 V 5864.0602 H 434.9812 l -29.52481,147.0401 v 10.0309 h 396.14843 v -12.1957 h -27.04538 c 5.61583,-0.15 10.12083,-4.717 10.12083,-10.3699 v -31.1753 h 10.3973 c 5.74789,0 10.39781,-4.6511 10.39781,-10.3984 v -62.3677 c 0,-11.4774 -9.30062,-20.7951 -20.79511,-20.7951 l -10.8505,-56.8477 c -2.3335,-12.2442 -13.04464,-21.1088 -25.51472,-21.1088 z m -0.0171,15.6223 h 135.1163 c 5.3471,0 9.82614,4.0583 10.34614,9.3705 l 5.24206,52.9983 h -166.2927 l 5.24206,-52.9983 c 0.5227,-5.3122 4.99905,-9.3705 10.34614,-9.3705 z m -31.19293,77.9389 h 36.38279 v 20.7956 h -46.76303 v -10.3978 h -0.0176 c 0,-5.7473 4.64992,-10.3978 10.39781,-10.3978 z m 161.11988,0 h 36.38228 c 5.74729,0 10.39833,4.6505 10.39833,10.3978 h -0.0181 v 10.3978 h -46.76252 z m -93.56121,5.2074 h 62.36777 v 25.9855 H 649.5464 Z M 566.4,5946.6122 H 795.06051 V 5957.01 H 566.40005 Z m 46.81523,20.7781 H 748.3321 v 31.1753 c 0,5.653 4.505,10.2199 10.12083,10.3699 H 603.09445 c 5.61575,-0.15 10.12083,-4.717 10.12083,-10.3699 z" /><path
           id="path101"
           style="fill:#be0018;fill-opacity:1;stroke:none;stroke-width:11.065;stroke-linecap:round;stroke-linejoin:round;stroke-dasharray:none;stroke-opacity:1"
           d="m 783.50308,5822.4932 -20.3078,2.8536 -16.79433,24.1199 41.9747,-8.7896 z m -35.25211,4.9532 -29.50104,4.1454 -19.28927,27.7043 31.15728,-6.5247 z m -44.44483,6.2456 -31.53761,4.4312 -21.89996,31.4529 33.30908,-6.9753 z m -46.48502,6.5314 -28.11663,3.9511 -24.31738,34.9256 29.69586,-6.2188 z m -43.06146,6.0508 -30.06173,4.224 -26.84384,38.5553 31.74897,-6.6482 z m -45.00552,6.3241 -71.09333,9.9896 v 38.8607 l 43.41027,-9.0904 z" /></g></g></g></svg>
