<?xml version="1.0" encoding="UTF-8" standalone="no"?>
<svg
   viewBox="0 0 634.78271 634.78269"
   version="1.1"
   id="svg6"
   sodipodi:docname="SP-58_30x30.svg"
   width="634.78271"
   height="634.78271"
   inkscape:version="1.4.2 (f4327f4, 2025-05-13)"
   xmlns:inkscape="http://www.inkscape.org/namespaces/inkscape"
   xmlns:sodipodi="http://sodipodi.sourceforge.net/DTD/sodipodi-0.dtd"
   xmlns="http://www.w3.org/2000/svg"
   xmlns:svg="http://www.w3.org/2000/svg">
  <sodipodi:namedview
     id="namedview6"
     pagecolor="#50505000"
     bordercolor="#ffffffff"
     borderopacity="1"
     inkscape:showpageshadow="0"
     inkscape:pageopacity="0"
     inkscape:pagecheckerboard="1"
     inkscape:deskcolor="#505050ff"
     inkscape:zoom="0.45358744"
     inkscape:cx="317.46911"
     inkscape:cy="539.03608"
     inkscape:window-width="1366"
     inkscape:window-height="697"
     inkscape:window-x="-8"
     inkscape:window-y="-8"
     inkscape:window-maximized="1"
     inkscape:current-layer="svg6" />
  <defs
     id="defs1">
    <style
       id="style1">
      .cls-1 {
        fill: #fff;
      }

      .cls-1, .cls-2 {
        stroke: #000;
        stroke-linecap: round;
        stroke-linejoin: round;
      }

      .cls-2 {
        fill: none;
      }

      .cls-3 {
        fill: #ffca06;
      }

      .cls-4 {
        fill-rule: evenodd;
      }

      .cls-5 {
        font-family: ArialMT, Arial;
        font-size: 131.73px;
      }
    </style>
  </defs>
  <g
     id="sp_Fondo_del_tablero"
     data-name="sp_Fondo del tablero"
     transform="translate(-100.64066,-6.5399077)">
    <g
       id="HATCH">
      <rect
         class="cls-3"
         x="197.31"
         y="103.21"
         width="441.45999"
         height="441.45999"
         rx="18.65"
         ry="18.65"
         transform="rotate(-45,418.02898,323.93673)"
         id="rect3" />
    </g>
  </g>
  <g
     id="sp_Pictograma_y_filete"
     data-name="sp_Pictograma y filete"
     transform="translate(-100.64066,-6.5399077)">
    <g
       id="HATCH-2"
       data-name="HATCH">
      <path
         class="cls-4"
         d="M 431.22,622.9 717,337.12 c 7.28,-7.28 7.28,-19.09 0,-26.38 L 431.22,24.97 c -7.28,-7.28 -19.09,-7.28 -26.38,0 L 119.07,310.75 c -7.28,7.28 -7.28,19.09 0,26.38 l 285.78,285.78 c 7.28,7.28 19.09,7.28 26.38,0 m 8.79,8.79 285.78,-285.78 c 12.14,-12.14 12.14,-31.82 0,-43.97 L 440.02,16.18 C 427.88,4.04 408.2,4.04 396.05,16.18 L 110.27,301.95 c -12.14,12.14 -12.14,31.82 0,43.97 L 396.05,631.7 c 12.14,12.14 31.82,12.14 43.97,0 z"
         id="path3" />
    </g>
    <g
       id="HATCH-3"
       data-name="HATCH">
      <path
         class="cls-4"
         d="m 357.22,417.35 v -176.8 c 0,-30.54 24.75,-55.29 55.29,-55.29 30.54,0 55.29,24.75 55.29,55.29 v 255.72 h 41.47 V 240.55 c 0,-53.44 -43.32,-96.76 -96.76,-96.76 -53.44,0 -96.76,43.32 -96.76,96.76 v 176.8 l -37.96,-43.97 -32.1,32.1 90.79,90.79 90.79,-90.79 -32.1,-32.1 -37.96,43.97 z"
         id="path4" />
    </g>
    <g
       id="LWPOLYLINE">
      <rect
         class="cls-2"
         x="184.87"
         y="90.769997"
         width="466.32999"
         height="466.32999"
         rx="31.09"
         ry="31.09"
         transform="rotate(-45,418.02898,323.93673)"
         id="rect4" />
    </g>
    <g
       id="LWPOLYLINE-2"
       data-name="LWPOLYLINE">
      <rect
         class="cls-2"
         x="197.31"
         y="103.21"
         width="441.45999"
         height="441.45999"
         rx="18.65"
         ry="18.65"
         transform="rotate(-45,418.02898,323.93673)"
         id="rect5" />
    </g>
    <g
       id="LWPOLYLINE-3"
       data-name="LWPOLYLINE">
      <path
         class="cls-2"
         d="m 357.22,417.35 v -176.8 c 0,-30.54 24.75,-55.29 55.29,-55.29 30.54,0 55.29,24.75 55.29,55.29 v 255.72 h 41.47 V 240.55 c 0,-53.44 -43.32,-96.76 -96.76,-96.76 -53.44,0 -96.76,43.32 -96.76,96.76 v 176.8 l -37.96,-43.97 -32.1,32.1 90.79,90.79 90.79,-90.79 -32.1,-32.1 -37.96,43.97 z"
         id="path5" />
    </g>
  </g>
</svg>
