<?xml version="1.0" encoding="UTF-8" standalone="no"?>
<svg
   viewBox="0 0 634.78271 634.78269"
   version="1.1"
   id="svg19"
   sodipodi:docname="SP-56_30x30.svg"
   width="634.78271"
   height="634.78271"
   inkscape:version="1.5-dev (9bf5e73, 2025-04-11, custom)"
   xmlns:inkscape="http://www.inkscape.org/namespaces/inkscape"
   xmlns:sodipodi="http://sodipodi.sourceforge.net/DTD/sodipodi-0.dtd"
   xmlns="http://www.w3.org/2000/svg"
   xmlns:svg="http://www.w3.org/2000/svg">
  <sodipodi:namedview
     id="namedview19"
     pagecolor="#ffffff"
     bordercolor="#000000"
     borderopacity="0.25"
     inkscape:showpageshadow="2"
     inkscape:pageopacity="0.0"
     inkscape:pagecheckerboard="0"
     inkscape:deskcolor="#d1d1d1"
     showgrid="false"
     inkscape:zoom="0.70374779"
     inkscape:cx="317.58537"
     inkscape:cy="538.54521"
     inkscape:window-width="1920"
     inkscape:window-height="1032"
     inkscape:window-maximized="1"
     inkscape:current-layer="svg19" />
  <defs
     id="defs1">
    <style
       id="style1">
      .cls-1 {
        fill: #fff;
      }

      .cls-1, .cls-2 {
        stroke: #000;
        stroke-linecap: round;
        stroke-linejoin: round;
      }

      .cls-2 {
        fill: none;
      }

      .cls-3 {
        fill: #ffca06;
      }

      .cls-4 {
        fill-rule: evenodd;
      }
    </style>
  </defs>
  <g
     id="sp_Fondo_del_tablero"
     data-name="sp_Fondo del tablero"
     transform="translate(-100.64066,-6.5399077)">
    <g
       id="HATCH">
      <rect
         class="cls-3"
         x="197.31"
         y="103.21"
         width="441.45999"
         height="441.45999"
         rx="18.65"
         ry="18.65"
         transform="rotate(-45,418.02898,323.93673)"
         id="rect3" />
    </g>
  </g>
  <g
     id="sp_Pictograma_y_filete"
     data-name="sp_Pictograma y filete"
     transform="translate(-100.64066,-6.5399077)">
    <g
       id="HATCH-2"
       data-name="HATCH">
      <path
         class="cls-4"
         d="M 431.22,622.9 717,337.12 c 7.28,-7.28 7.28,-19.09 0,-26.38 L 431.22,24.97 c -7.28,-7.28 -19.09,-7.28 -26.38,0 L 119.07,310.75 c -7.28,7.28 -7.28,19.09 0,26.38 l 285.78,285.78 c 7.28,7.28 19.09,7.28 26.38,0 m 8.79,8.79 285.78,-285.78 c 12.14,-12.14 12.14,-31.82 0,-43.97 L 440.02,16.18 C 427.88,4.04 408.2,4.04 396.05,16.18 L 110.27,301.95 c -12.14,12.14 -12.14,31.82 0,43.97 L 396.05,631.7 c 12.14,12.14 31.82,12.14 43.97,0 z"
         id="path3" />
    </g>
    <g
       id="LWPOLYLINE">
      <rect
         class="cls-2"
         x="197.31"
         y="103.21"
         width="441.45999"
         height="441.45999"
         rx="18.65"
         ry="18.65"
         transform="rotate(-45,418.02898,323.93673)"
         id="rect4" />
    </g>
    <g
       id="LWPOLYLINE-2"
       data-name="LWPOLYLINE">
      <rect
         class="cls-2"
         x="184.87"
         y="90.769997"
         width="466.32999"
         height="466.32999"
         rx="31.09"
         ry="31.09"
         transform="rotate(-45,418.02898,323.93673)"
         id="rect5" />
    </g>
    <g
       id="MTEXT">
      <path
         d="m 457.64,528.24 c -3.07,1.46 -6.4,2.38 -9.99,2.74 -3.59,0.37 -8.01,0.55 -13.28,0.55 -7.17,0 -13.32,-1.61 -18.44,-4.83 -5.12,-3.22 -9.04,-7.43 -11.75,-12.62 -2.71,-5.19 -4.06,-10.79 -4.06,-16.8 v -57.3 h -14.27 v -25.25 h 14.27 v -25.69 l 30.74,-6.15 v 31.83 h 25.91 v 25.25 h -25.91 v 55.11 c 0,8.2 2.93,12.29 8.78,12.29 h 14.05 l 3.95,20.86 z"
         id="path5" />
    </g>
    <g
       id="MTEXT-2"
       data-name="MTEXT">
      <g
         id="g7">
        <path
           d="m 391.78,364.48 h -39.96 v -162.4 h -34.54 l -7.14,-31.97 47.95,-8.28 h 33.68 v 202.65 z"
           id="path6" />
        <path
           d="m 428.59,185.95 c 11.99,-17.41 30.54,-26.12 55.66,-26.12 25.12,0 43.67,8.71 55.66,26.12 11.99,17.41 17.98,44 17.98,79.77 0,35.77 -5.85,62.08 -17.55,78.92 -11.7,16.84 -30.4,25.26 -56.08,25.26 -25.68,0 -44.15,-8.42 -55.94,-25.26 -11.8,-16.84 -17.7,-43.14 -17.7,-78.92 0,-35.78 5.99,-62.36 17.98,-79.77 z m 31.26,135 c 5.42,11.32 13.56,16.98 24.4,16.98 10.84,0 18.98,-5.66 24.4,-16.98 5.42,-11.32 8.13,-29.73 8.13,-55.23 0,-25.5 -2.57,-44.9 -7.71,-56.51 -5.14,-11.6 -13.42,-17.41 -24.83,-17.41 -11.41,0 -19.69,5.81 -24.83,17.41 -5.14,11.61 -7.71,30.45 -7.71,56.51 0,26.06 2.71,43.91 8.13,55.23 z"
           id="path7" />
      </g>
    </g>
  </g>
</svg>
