<?xml version="1.0" encoding="UTF-8" standalone="no"?>
<!-- Created with Inkscape (http://www.inkscape.org/) -->

<svg
   width="710mm"
   height="709.99994mm"
   viewBox="0 0 710 709.99994"
   version="1.1"
   id="svg1"
   inkscape:version="1.3.2 (091e20e, 2023-11-25, custom)"
   sodipodi:docname="MX road draw.svg"
   xml:space="preserve"
   xmlns:inkscape="http://www.inkscape.org/namespaces/inkscape"
   xmlns:sodipodi="http://sodipodi.sourceforge.net/DTD/sodipodi-0.dtd"
   xmlns="http://www.w3.org/2000/svg"
   xmlns:svg="http://www.w3.org/2000/svg"><sodipodi:namedview
     id="namedview1"
     pagecolor="#ffffff"
     bordercolor="#000000"
     borderopacity="0.25"
     inkscape:showpageshadow="2"
     inkscape:pageopacity="0.0"
     inkscape:pagecheckerboard="0"
     inkscape:deskcolor="#d1d1d1"
     inkscape:document-units="mm"
     inkscape:zoom="0.04"
     inkscape:cx="17475"
     inkscape:cy="-8137.5"
     inkscape:window-width="1920"
     inkscape:window-height="1017"
     inkscape:window-x="-8"
     inkscape:window-y="-8"
     inkscape:window-maximized="1"
     inkscape:current-layer="layer1" /><defs
     id="defs1"><style
       id="style2">
      .cls-1 {
        fill: #fff;
      }

      .cls-1, .cls-2 {
        stroke: #000;
        stroke-linecap: round;
        stroke-linejoin: round;
      }

      .cls-2 {
        fill: none;
      }

      .cls-3 {
        fill: #ffca06;
      }

      .cls-4 {
        fill-rule: evenodd;
      }
    </style><style
       id="style2-5">
      .cls-1 {
        fill: #fff;
      }

      .cls-1, .cls-2 {
        stroke: #000;
        stroke-linecap: round;
        stroke-linejoin: round;
      }

      .cls-2 {
        fill: none;
      }

      .cls-3 {
        fill: #ffca06;
      }

      .cls-4 {
        fill-rule: evenodd;
      }
    </style></defs><g
     inkscape:label="Layer 1"
     inkscape:groupmode="layer"
     id="layer1"
     transform="translate(-225.51467,2367.1183)"><g
       id="g9"
       transform="matrix(1.1198292,0,0,1.1198292,225.09058,-2367.5424)"
       style="stroke-width:0.236271"><g
         id="sp_x5F_Fondo_del_tablero"
         transform="translate(-642.58046,-4.9008088)"
         style="stroke-width:0.236271"><g
           id="HATCH"
           style="stroke-width:0.236271"><rect
             class="cls-3"
             x="739.23999"
             y="101.57"
             width="441.45999"
             height="441.45999"
             rx="18.65"
             ry="18.65"
             transform="rotate(-45,959.96996,322.29742)"
             id="rect12"
             style="stroke-width:0.236271" /></g></g><g
         id="sp_x5F_Pictograma_y_filete"
         transform="translate(-642.58046,-4.9008088)"
         style="stroke-width:0.236271"><g
           id="HATCH-2"
           data-name="HATCH"
           style="stroke-width:0.236271"><path
             class="cls-4"
             d="m 973.16,621.26 285.78,-285.78 c 7.28,-7.28 7.28,-19.09 0,-26.38 L 973.16,23.33 c -7.28,-7.28 -19.09,-7.28 -26.38,0 L 661,309.11 c -7.28,7.28 -7.28,19.09 0,26.38 l 285.78,285.78 c 7.28,7.28 19.09,7.28 26.38,0 m 8.79,8.78 285.78,-285.78 c 12.14,-12.14 12.14,-31.82 0,-43.97 L 981.95,14.53 C 969.81,2.39 950.13,2.39 937.98,14.53 L 652.2,300.31 c -12.14,12.14 -12.14,31.82 0,43.97 l 285.78,285.78 c 12.14,12.14 31.82,12.14 43.97,0 z"
             id="path16"
             style="stroke-width:0.236271" /></g><g
           id="HATCH-3"
           data-name="HATCH"
           style="stroke-width:0.236271" /><g
           id="LWPOLYLINE"
           style="stroke-width:0.236271"><rect
             class="cls-2"
             x="726.81"
             y="89.129997"
             width="466.32999"
             height="466.32999"
             rx="31.09"
             ry="31.09"
             transform="rotate(-45,959.96996,322.29742)"
             id="rect22"
             style="stroke-width:0.236271" /></g><g
           id="LWPOLYLINE-2"
           data-name="LWPOLYLINE"
           style="stroke-width:0.236271"><rect
             class="cls-2"
             x="739.23999"
             y="101.57"
             width="441.45999"
             height="441.45999"
             rx="18.65"
             ry="18.65"
             transform="rotate(-45,959.96996,322.29742)"
             id="rect25"
             style="stroke-width:0.236271" /></g><g
           id="LWPOLYLINE-3"
           data-name="LWPOLYLINE"
           style="stroke-width:0.236271" /><g
           id="LWPOLYLINE-4"
           data-name="LWPOLYLINE"
           style="stroke-width:0.236271" /><g
           id="LWPOLYLINE-5"
           data-name="LWPOLYLINE"
           style="stroke-width:0.236271" /><g
           id="CIRCLE"
           style="stroke-width:0.236271" /><g
           id="CIRCLE-2"
           data-name="CIRCLE"
           style="stroke-width:0.236271" /></g></g><path
       id="path1"
       style="fill:#000000;fill-opacity:1;stroke:none;stroke-width:9.496;stroke-miterlimit:6.6;stroke-dashoffset:30.5643;paint-order:stroke fill markers"
       d="m 598.95746,-2111.8091 c -5.56529,0 -10.0769,4.5116 -10.0769,10.0769 v 6.3562 h 20.15381 v -6.3562 c 0,-5.5653 -4.51159,-10.0769 -10.07691,-10.0769 z m 4.65088,27.5244 c -71.9118,0 -117.51519,36.2485 -127.45423,43.849 -9.93901,7.6005 -36.24848,21.0475 -73.08133,29.8173 -36.83283,8.7698 -48.52624,31.5712 -48.52624,31.5712 l -2.92333,32.1557 h 52.62004 c 1.17463,-24.7607 21.56271,-44.2486 46.35118,-44.3048 24.82865,8e-4 45.27844,19.504 46.45504,44.3048 h 178.3917 c 1.17463,-24.7607 21.56271,-44.2486 46.35117,-44.3048 24.82865,8e-4 45.27845,19.504 46.45505,44.3048 h 41.15873 v -43.849 c 0,-23.386 -26.30939,-32.7406 -31.5712,-32.7406 -5.26187,0 -17.53982,0.5847 -35.66398,-12.8623 -18.12409,-13.447 -93.54462,-47.9413 -138.5626,-47.9413 z m -5.01261,14.8234 v 43.3493 h -117.2037 c 1.30369,-0.8818 2.61857,-1.7662 3.72019,-2.6086 10.3528,-7.9169 49.50406,-39.1661 113.48351,-40.7407 z m 20.25716,1.2428 c 17.51311,2.6569 39.19876,9.066 58.81967,16.6249 23.30955,8.98 44.82106,20.0825 53.29028,25.4816 H 618.85289 Z m -90.83321,52.9622 c 0.83977,-0.03 1.7776,0.1802 2.74453,0.7384 2.45607,1.4181 12.95543,2.4945 16.23053,2.4945 3.27512,0 13.77447,-1.0764 16.23054,-2.4945 3.86771,-2.233 7.27017,1.1054 5.79396,3.1053 -2.49131,3.3753 -4.11367,16.9693 -1.46348,20.7553 8.32921,16.0277 -8.56281,27.4521 -11.29491,28.5848 -2.76875,1.148 -8.13913,6.1841 -9.26611,6.1841 -1.12695,0 -6.49735,-5.0361 -9.2661,-6.1841 -2.7321,-1.1327 -19.62416,-12.5571 -11.29491,-28.5848 2.65019,-3.786 1.02783,-17.38 -1.46348,-20.7553 -1.10716,-1.4999 0.53001,-3.7531 3.04943,-3.8437 z m -77.42525,35.0154 c -19.6356,0 -35.5534,15.9178 -35.55339,35.5534 -1e-5,19.6356 15.91779,35.5534 35.55339,35.5534 19.6356,0 35.55339,-15.9178 35.55338,-35.5534 1e-5,-19.6356 -15.91778,-35.5534 -35.55338,-35.5534 z m 271.19791,0 c -19.6356,0 -35.55339,15.9178 -35.55338,35.5534 -10e-6,19.6356 15.91778,35.5534 35.55338,35.5534 19.6356,0 35.5534,-15.9178 35.55339,-35.5534 10e-6,-19.6356 -15.91779,-35.5534 -35.55339,-35.5534 z m -271.19791,15.7097 c 10.95938,0 19.84372,8.8843 19.84375,19.8437 3e-5,10.9594 -8.88433,19.8438 -19.84375,19.8438 -10.95942,0 -19.84378,-8.8844 -19.84375,-19.8438 3e-5,-10.9594 8.88437,-19.8437 19.84375,-19.8437 z m 271.19791,0 c 10.95938,0 19.84372,8.8843 19.84375,19.8437 3e-5,10.9594 -8.88433,19.8438 -19.84375,19.8438 -10.95942,0 -19.84378,-8.8844 -19.84375,-19.8438 3e-5,-10.9594 8.88437,-19.8437 19.84375,-19.8437 z"
       sodipodi:nodetypes="ssccssssscccccccccsssscccsccscccssssscssscssssssssssssssssssssss" /></g></svg>
