<?xml version="1.0" encoding="UTF-8" standalone="no"?>
<svg
   viewBox="0 0 634.89581 634.8958"
   version="1.1"
   id="svg56"
   width="634.89581"
   height="634.89581"
   xmlns="http://www.w3.org/2000/svg"
   xmlns:svg="http://www.w3.org/2000/svg">
  <defs
     id="defs4">
    <style
       id="style2">.cls-1{fill:#fff;}.cls-1,.cls-2{stroke:#000;stroke-linecap:round;stroke-linejoin:round;}.cls-2{fill:none;}.cls-3{fill:#ffca06;}.cls-4{fill-rule:evenodd;}</style>
  </defs>
  <g
     id="sp_x5F_Fondo_del_tablero"
     transform="translate(-100.59289,-6.4521186)">
    <g
       id="HATCH">
      <rect
         class="cls-3"
         x="197.27"
         y="103.13"
         width="441.53"
         height="441.53"
         rx="18.66"
         ry="18.66"
         transform="rotate(-45,418.03191,323.89551)"
         id="rect12" />
    </g>
  </g>
  <g
     id="sp_x5F_Pictograma_y_filete"
     transform="translate(-100.59289,-6.4521186)">
    <g
       id="HATCH-2">
      <path
         class="cls-4"
         d="M 431.23,622.92 717.06,337.09 c 7.29,-7.29 7.29,-19.1 0,-26.38 L 431.23,24.88 c -7.29,-7.29 -19.1,-7.29 -26.38,0 L 119.02,310.71 c -7.29,7.29 -7.29,19.1 0,26.38 l 285.83,285.83 c 7.29,7.29 19.1,7.29 26.38,0 m 8.79,8.79 285.83,-285.83 c 12.14,-12.14 12.14,-31.83 0,-43.97 L 440.02,16.09 C 427.88,3.95 408.19,3.95 396.05,16.09 L 110.22,301.91 c -12.14,12.14 -12.14,31.83 0,43.97 l 285.83,285.83 c 12.14,12.14 31.83,12.14 43.97,0 z"
         id="path16" />
    </g>
    <g
       id="HATCH-3">
      <path
         class="cls-4"
         d="m 430.26,210.01 -62.92,36.33 c -40.44,23.35 -65.51,66.35 -65.9,113.04 v 111.53 h 60.84 V 359.38 c 0.4,-24.96 13.87,-47.88 35.49,-60.36 l 62.92,-36.33 -24.27,69.71 58.76,15.75 44.53,-166.21 -166.21,-44.53 -15.75,58.76 c 0,0 72.51,13.84 72.51,13.84 z"
         id="path19" />
    </g>
    <g
       id="LWPOLYLINE">
      <rect
         class="cls-2"
         x="184.83"
         y="90.699997"
         width="466.41"
         height="466.41"
         rx="31.09"
         ry="31.09"
         transform="rotate(-45,418.03191,323.89551)"
         id="rect22" />
    </g>
    <g
       id="LWPOLYLINE-2">
      <rect
         class="cls-2"
         x="197.27"
         y="103.13"
         width="441.53"
         height="441.53"
         rx="18.66"
         ry="18.66"
         transform="rotate(-45,418.03191,323.89551)"
         id="rect25" />
    </g>
    <g
       id="LWPOLYLINE-3">
      <path
         class="cls-2"
         d="m 430.26,210.01 -62.92,36.33 c -40.44,23.35 -65.51,66.35 -65.9,113.04 v 111.53 h 60.84 V 359.38 c 0.4,-24.96 13.87,-47.88 35.49,-60.36 l 62.92,-36.33 -24.27,69.71 58.76,15.75 44.53,-166.21 -166.21,-44.53 -15.75,58.76 72.51,13.84 -62.92,36.33"
         id="path28" />
    </g>
  </g>
</svg>
