<?xml version="1.0" encoding="UTF-8" standalone="no"?>
<svg
   viewBox="0 0 634.89581 634.8958"
   version="1.1"
   id="svg375"
   width="634.89581"
   height="634.89581"
   xmlns="http://www.w3.org/2000/svg"
   xmlns:svg="http://www.w3.org/2000/svg">
  <defs
     id="defs323">
    <style
       id="style321">.cls-1{fill:#fff;}.cls-1,.cls-2{stroke:#000;stroke-linecap:round;stroke-linejoin:round;}.cls-2{fill:none;}.cls-3{fill:#ffca06;}.cls-4{fill-rule:evenodd;}</style>
  </defs>
  <g
     id="sp_x5F_Fondo_del_tablero"
     transform="translate(-100.59289,-6.4521186)">
    <g
       id="HATCH">
      <rect
         class="cls-3"
         x="197.27"
         y="103.13"
         width="441.53"
         height="441.53"
         rx="18.66"
         ry="18.66"
         transform="rotate(-45,418.03191,323.89551)"
         id="rect331" />
    </g>
  </g>
  <g
     id="sp_x5F_Pictograma_y_filete"
     transform="translate(-100.59289,-6.4521186)">
    <g
       id="HATCH-2">
      <path
         class="cls-4"
         d="M 431.23,622.92 717.06,337.09 c 7.29,-7.29 7.29,-19.1 0,-26.38 L 431.23,24.88 c -7.29,-7.29 -19.1,-7.29 -26.38,0 L 119.02,310.71 c -7.29,7.29 -7.29,19.1 0,26.38 l 285.83,285.83 c 7.29,7.29 19.1,7.29 26.38,0 m 8.79,8.79 285.83,-285.83 c 12.14,-12.14 12.14,-31.83 0,-43.97 L 440.02,16.09 C 427.88,3.95 408.19,3.95 396.05,16.09 L 110.22,301.91 c -12.14,12.14 -12.14,31.83 0,43.97 l 285.83,285.83 c 12.14,12.14 31.83,12.14 43.97,0 z"
         id="path335" />
    </g>
    <g
       id="HATCH-3">
      <path
         class="cls-4"
         d="m 512.01,293.48 -55.88,48.24 43.02,43.02 121.67,-121.67 -121.67,-121.67 -43.02,43.02 55.88,48.24 H 336.92 c -11.2,0 -20.28,9.08 -20.28,20.28 v 233.2 h 60.84 V 313.77 c 0,-11.2 9.08,-20.28 20.28,-20.28 h 114.25 z"
         id="path338" />
    </g>
    <g
       id="LWPOLYLINE">
      <rect
         class="cls-2"
         x="184.83"
         y="90.699997"
         width="466.41"
         height="466.41"
         rx="31.09"
         ry="31.09"
         transform="rotate(-45,418.03191,323.89551)"
         id="rect341" />
    </g>
    <g
       id="LWPOLYLINE-2">
      <rect
         class="cls-2"
         x="197.27"
         y="103.13"
         width="441.53"
         height="441.53"
         rx="18.66"
         ry="18.66"
         transform="rotate(-45,418.03191,323.89551)"
         id="rect344" />
    </g>
    <g
       id="LWPOLYLINE-3">
      <path
         class="cls-2"
         d="m 512.01,293.48 -55.88,48.24 43.02,43.02 121.67,-121.67 -121.67,-121.67 -43.02,43.02 55.88,48.24 H 336.92 c -11.2,0 -20.28,9.08 -20.28,20.28 v 233.2 h 60.84 V 313.77 c 0,-11.2 9.08,-20.28 20.28,-20.28 h 114.25 z"
         id="path347" />
    </g>
  </g>
</svg>
