<?xml version="1.0" encoding="iso-8859-1"?>
<!-- Generator: Adobe Illustrator 15.0.2, SVG Export Plug-In . SVG Version: 6.00 Build 0)  -->
<!DOCTYPE svg PUBLIC "-//W3C//DTD SVG 1.1//EN" "http://www.w3.org/Graphics/SVG/1.1/DTD/svg11.dtd">
<svg version="1.1" id="_x30_" xmlns="http://www.w3.org/2000/svg" xmlns:xlink="http://www.w3.org/1999/xlink" x="0px" y="0px"
	   viewBox="0 0 48.633 48.634" style="enable-background:new 0 0 48.633 48.634;"
	 xml:space="preserve">
<g id="HATCH">
	<path style="fill-rule:evenodd;clip-rule:evenodd;fill:#FFFF00;" d="M47.945,22.655L25.948,0.688c-0.916-0.917-2.404-0.917-3.322,0
		L0.686,22.655c-0.914,0.917-0.914,2.406,0,3.322l21.94,21.97c0.918,0.915,2.406,0.915,3.322,0l21.997-21.97
		C48.862,25.062,48.862,23.572,47.945,22.655L47.945,22.655z"/>
</g>
<g id="HATCH_1_">
	<path style="fill-rule:evenodd;clip-rule:evenodd;" d="M25.548,1.088h-2.463L1.089,23.084v2.464l21.996,21.996h2.463l21.997-21.996
		v-2.464L25.548,1.088z M47.144,23.486v1.661L25.146,47.114h-1.661L1.49,25.147v-1.661L23.485,1.518h1.661L47.144,23.486z"/>
</g>
<g id="LWPOLYLINE_1_">
	<path style="fill:none;stroke:#000000;stroke-width:1.17;stroke-linecap:round;stroke-linejoin:round;stroke-miterlimit:10;" d="
		M47.121,23.487L25.139,1.503c-0.458-0.458-1.201-0.458-1.659,0L1.496,23.487c-0.459,0.458-0.459,1.201,0,1.659L23.479,47.13
		c0.458,0.457,1.201,0.457,1.659,0l21.982-21.983C47.58,24.688,47.58,23.945,47.121,23.487z"/>
</g>
<g id="HATCH_3_">
	<path style="fill-rule:evenodd;clip-rule:evenodd;" d="M21.025,37.09h-5.739v-3.454c0-0.085,0-0.251,0.056-0.336
		c0.278-4.4,4.124-7.716,8.525-7.409c1.449-0.195,2.619-1.562,2.508-3.038v-2.982l-3.009,3.149l-4.067-3.983l9.696-10.032
		l10.142,10.032l-4.012,3.983l-3.121-3.149l-0.056,2.982c0.111,4.763-3.512,8.552-8.08,8.666c-1.337-0.14-2.619,0.808-2.842,2.117
		V37.09h-5.739H21.025L21.025,37.09z"/>
</g>
</svg>
