<?xml version="1.0" encoding="UTF-8" standalone="no"?>
<!-- Created with Inkscape (http://www.inkscape.org/) -->

<svg
   width="710mm"
   height="710mm"
   viewBox="0 0 710 710"
   version="1.1"
   id="svg30985"
   inkscape:version="1.2.1 (9c6d41e410, 2022-07-14)"
   sodipodi:docname="Mexico road sign SR-16 (2023).svg"
   xmlns:inkscape="http://www.inkscape.org/namespaces/inkscape"
   xmlns:sodipodi="http://sodipodi.sourceforge.net/DTD/sodipodi-0.dtd"
   xmlns="http://www.w3.org/2000/svg"
   xmlns:svg="http://www.w3.org/2000/svg">
  <sodipodi:namedview
     id="namedview30987"
     pagecolor="#ffffff"
     bordercolor="#000000"
     borderopacity="0.25"
     inkscape:showpageshadow="2"
     inkscape:pageopacity="0.0"
     inkscape:pagecheckerboard="0"
     inkscape:deskcolor="#d1d1d1"
     inkscape:document-units="mm"
     showgrid="false"
     inkscape:zoom="0.76257015"
     inkscape:cx="1388.7247"
     inkscape:cy="1145.4684"
     inkscape:window-width="1920"
     inkscape:window-height="991"
     inkscape:window-x="-9"
     inkscape:window-y="-9"
     inkscape:window-maximized="1"
     inkscape:current-layer="layer1" />
  <defs
     id="defs30982" />
  <g
     inkscape:label="Livello 1"
     inkscape:groupmode="layer"
     id="layer1"
     transform="translate(262.36093,258.54443)">
    <g
       id="g22346"
       transform="translate(-6197.254,-2777.4458)">
      <rect
         style="fill:#000000;stroke-width:3.68415;stroke-opacity:0.578462;paint-order:fill markers stroke"
         id="rect20798-3-4-9"
         width="710"
         height="710"
         x="5934.8931"
         y="2518.9014"
         ry="40"
         rx="40" />
      <rect
         style="fill:#ffffff;stroke-width:3.58037;stroke-opacity:0.578462;paint-order:fill markers stroke"
         id="rect20798-4-77-2-6"
         width="690"
         height="690"
         x="5944.8936"
         y="2528.9014"
         ry="30"
         rx="30" />
      <g
         id="g25102-4-81-1-2"
         transform="rotate(90,3393.2321,5912.1334)">
        <circle
           style="fill:#bd2025;stroke-width:6.548;stroke-opacity:0.578462;paint-order:fill markers stroke"
           id="path23624-04-2-94"
           cx="3015.4722"
           cy="-355"
           r="310"
           transform="rotate(90)" />
        <circle
           style="fill:#ffffff;stroke-width:5.28036;stroke-opacity:0.578462;paint-order:fill markers stroke"
           id="path23624-1-93-6-2"
           cx="355.00046"
           cy="3015.4727"
           r="250" />
      </g>
      <path
         d="m 6187.2422,2933.242 q 10.2369,10.2369 37.9841,10.2369 13.2002,0 20.7431,-9.9675 7.8124,-10.2369 7.8124,-25.8615 0,-13.739 -7.0042,-22.0901 -6.7348,-8.3511 -21.0125,-8.3511 -7.5429,0 -15.0859,1.3469 -7.2735,1.347 -17.5104,7.543 l -25.0534,-12.9308 11.8532,-92.6705 h 105.0625 v 31.7882 h -75.1601 l -8.0817,42.8331 q 5.9266,-4.0408 12.9308,-5.9266 7.0041,-2.1551 19.9349,-2.1551 14.2777,0 27.4779,5.6572 13.2001,5.6572 21.8207,18.8574 8.6205,12.9307 8.6205,33.4045 0,15.6246 -6.196,31.2493 -6.196,15.6247 -21.8207,26.6697 -15.3553,10.7757 -41.4862,10.7757 -38.5229,0 -53.07,-15.8941 z"
         id="path22320"
         style="-inkscape-font-specification:'MEXICO Serie1 Bold';fill:#000000;stroke-width:26.4722;stroke-opacity:0.904615;paint-order:fill markers stroke" />
      <path
         d="m 6327.913,2850.3082 q 4.4221,4.4222 16.4084,4.4222 5.7023,0 8.9607,-4.3058 3.3748,-4.4221 3.3748,-11.1717 0,-5.935 -3.0257,-9.5425 -2.9093,-3.6075 -9.077,-3.6075 -3.2584,0 -6.5169,0.5818 -3.142,0.5819 -7.5641,3.2584 l -10.8226,-5.5858 5.1203,-40.032 h 45.3851 v 13.7319 h -32.4678 l -3.4911,18.5032 q 2.5601,-1.7456 5.5858,-2.5602 3.0257,-0.931 8.6115,-0.931 6.1678,0 11.87,2.4438 5.7022,2.4438 9.4261,8.1461 3.7239,5.5858 3.7239,14.4301 0,6.7496 -2.6765,13.4991 -2.6766,6.7496 -9.4262,11.5209 -6.6332,4.6548 -17.9213,4.6548 -16.6411,0 -22.9252,-6.8659 z"
         id="path22323"
         style="-inkscape-font-specification:'MEXICO Serie1 Bold';fill:#000000;stroke-width:11.4356;stroke-opacity:0.904615;paint-order:fill markers stroke" />
      <path
         d="m 6382.8405,2825.2883 q 0,-21.878 7.3315,-32.4678 7.3314,-10.7062 22.6925,-10.7062 15.3611,0 22.6926,10.7062 7.3314,10.5898 7.3314,32.4678 0,21.8779 -7.2151,32.235 -7.0987,10.2407 -22.8089,10.2407 -15.5938,0 -22.8089,-10.2407 -7.2151,-10.3571 -7.2151,-32.235 z m 16.7576,0 q 0,15.5938 3.2584,22.5761 3.3748,6.866 10.008,6.866 6.6332,0 9.8916,-6.866 3.3748,-6.9823 3.3748,-22.5761 0,-15.943 -3.142,-23.0417 -3.1421,-7.0987 -10.1244,-7.0987 -6.9823,0 -10.1244,7.0987 -3.142,7.0987 -3.142,23.0417 z"
         id="path22325"
         style="-inkscape-font-specification:'MEXICO Serie1 Bold';fill:#000000;stroke-width:11.4356;stroke-opacity:0.904615;paint-order:fill markers stroke" />
      <g
         id="g22333"
         transform="translate(0,-3.755835)">
        <path
           style="fill:#000000;stroke-width:21.8333;stroke-opacity:0.904615;paint-order:fill markers stroke"
           d="m 6087.1508,2829.2679 v 96.7719 l 62.4315,-48.386 z"
           id="path21285-3"
           sodipodi:nodetypes="cccc" />
        <path
           style="fill:#000000;stroke-width:21.8333;stroke-opacity:0.904615;paint-order:fill markers stroke"
           d="m 6495.8452,2829.2679 v 96.7719 l -62.4315,-48.386 z"
           id="path21285-7-6"
           sodipodi:nodetypes="cccc" />
      </g>
    </g>
  </g>
</svg>
