<?xml version="1.0" encoding="UTF-8" standalone="no"?>
<svg
   version="1.1"
   viewBox="0 0 550.03003 550.03003"
   id="svg89"
   sodipodi:docname="SR-15_30x30.svg"
   width="550.03003"
   height="550.03003"
   inkscape:version="1.2.2 (b0a8486541, 2022-12-01)"
   xmlns:inkscape="http://www.inkscape.org/namespaces/inkscape"
   xmlns:sodipodi="http://sodipodi.sourceforge.net/DTD/sodipodi-0.dtd"
   xmlns="http://www.w3.org/2000/svg"
   xmlns:svg="http://www.w3.org/2000/svg">
  <sodipodi:namedview
     id="namedview91"
     pagecolor="#ffffff"
     bordercolor="#000000"
     borderopacity="0.25"
     inkscape:showpageshadow="2"
     inkscape:pageopacity="0.0"
     inkscape:pagecheckerboard="0"
     inkscape:deskcolor="#d1d1d1"
     showgrid="false"
     inkscape:zoom="0.7484375"
     inkscape:cx="275.24008"
     inkscape:cy="527.76618"
     inkscape:window-width="1920"
     inkscape:window-height="1014"
     inkscape:window-x="0"
     inkscape:window-y="29"
     inkscape:window-maximized="1"
     inkscape:current-layer="svg89" />
  <defs
     id="defs4">
    <style
       id="style2">
      .cls-1, .cls-2 {
        fill: #fff;
      }

      .cls-2, .cls-3 {
        stroke: #000;
      }

      .cls-2, .cls-3, .cls-4 {
        stroke-linecap: round;
        stroke-linejoin: round;
      }

      .cls-5 {
        fill: #bd2025;
      }

      .cls-5, .cls-6 {
        fill-rule: evenodd;
      }

      .cls-3, .cls-4 {
        fill: none;
      }

      .cls-4 {
        stroke: #bd2025;
      }
    </style>
  </defs>
  <!-- Generator: Adobe Illustrator 28.6.0, SVG Export Plug-In . SVG Version: 1.2.0 Build 709)  -->
  <g
     id="sr_x5F_Fondo_del_tablero"
     transform="translate(-685.19,-12.37)">
    <g
       id="HATCH">
      <rect
         class="cls-1"
         x="693.01001"
         y="20.190001"
         width="534.39001"
         height="534.39001"
         rx="29.280001"
         ry="29.280001"
         id="rect12" />
    </g>
  </g>
  <g
     id="sr_x5F_Pictograma_y_filete"
     transform="translate(-685.19,-12.37)">
    <g
       id="g26">
      <g
         id="MTEXT">
        <g
           id="g20">
          <path
             d="m 989.81,232.39 c 4.34,0 12.3,-0.41 12.3,-9.93 0,-2.69 -1.96,-10.13 -9.93,-10.13 -6.2,0 -11.06,1.34 -13.86,2.48 l -6,-9.1 c 5.89,-3.93 14.27,-4.96 20.78,-4.96 9.82,0 23.47,5.69 23.47,21.2 0,7.44 -4.65,12.1 -8.79,13.96 v 0.21 c 2.58,0.72 11.06,4.55 11.06,17.06 0,13.86 -10.24,23.68 -25.02,23.68 -8.58,0 -16.44,-1.34 -23.06,-5.27 l 5.89,-10.13 c 4.03,1.96 11.27,3.83 16.44,3.83 5.79,0 10.86,-3.93 10.86,-12.1 0,-10.03 -8.68,-10.44 -18.92,-10.44 v -10.34 h 4.76 z"
             id="path16" />
          <path
             d="m 1053.39,200.75 c 18.3,0 26.68,12.61 26.68,38.36 0,25.75 -7.96,37.74 -26.68,37.74 -18.72,0 -26.68,-11.99 -26.68,-37.74 0,-25.75 8.38,-38.36 26.68,-38.36 z m 0,64.52 c 7.65,0 11.79,-7.24 11.79,-26.16 0,-18.92 -3.52,-26.78 -11.79,-26.78 -8.27,0 -11.79,7.86 -11.79,26.78 0,18.92 4.14,26.16 11.79,26.16 z"
             id="path18" />
        </g>
      </g>
      <g
         id="MTEXT-2"
         data-name="MTEXT">
        <path
           d="m 914.66,328.56 h -70.02 l -5.35,-28.38 70.95,-100.27 h 36.99 l 0.93,103.06 h 19.08 l -0.93,25.59 h -19.08 v 36.52 h -32.57 z m 0.93,-93.28 -46.53,67.7 h 46.53 z"
           id="path23" />
      </g>
    </g>
    <g
       id="HATCH-2"
       data-name="HATCH">
      <path
         class="cls-6"
         d="m 960.21,394.81 -35.81,47.74 c 23.87,0 47.74,0 71.61,0 L 960.2,394.81 m 0.01,-214.84 -35.81,-47.74 c 23.87,0 47.74,0 71.61,0 l -35.81,47.74 z"
         id="path28" />
    </g>
    <g
       id="LWPOLYLINE">
      <path
         class="cls-3"
         d="M 960.21,179.97 924.4,132.23 c 23.87,0 47.74,0 71.61,0 l -35.81,47.74 z"
         id="path31" />
    </g>
    <g
       id="LWPOLYLINE-2"
       data-name="LWPOLYLINE">
      <path
         class="cls-3"
         d="m 960.21,394.81 -35.81,47.74 c 23.87,0 47.74,0 71.61,0 L 960.2,394.81 Z"
         id="path34" />
    </g>
    <g
       id="HATCH-3"
       data-name="HATCH">
      <path
         class="cls-6"
         d="m 722.29,554.58 h 475.82 c 16.17,0 29.28,-13.11 29.28,-29.28 V 49.48 c 0,-16.17 -13.11,-29.28 -29.28,-29.28 H 722.29 c -16.17,0 -29.28,13.11 -29.28,29.28 V 525.3 c 0,16.17 13.11,29.28 29.28,29.28 m 0,7.32 h 475.82 c 20.21,0 36.6,-16.39 36.6,-36.6 V 49.48 c 0,-20.21 -16.39,-36.6 -36.6,-36.6 H 722.29 c -20.21,0 -36.6,16.39 -36.6,36.6 V 525.3 c 0,20.21 16.39,36.6 36.6,36.6 z"
         id="path37" />
    </g>
    <g
       id="LWPOLYLINE-3"
       data-name="LWPOLYLINE">
      <rect
         class="cls-3"
         x="685.69"
         y="12.87"
         width="549.03003"
         height="549.03003"
         rx="36.599998"
         ry="36.599998"
         id="rect40" />
    </g>
    <g
       id="LWPOLYLINE-4"
       data-name="LWPOLYLINE">
      <rect
         class="cls-3"
         x="693.01001"
         y="20.190001"
         width="534.39001"
         height="534.39001"
         rx="29.280001"
         ry="29.280001"
         id="rect43" />
    </g>
  </g>
  <g
     id="sr_x5F_Circunferencia_roja"
     transform="translate(-685.19,-12.37)">
    <g
       id="CIRCLE">
      <circle
         class="cls-4"
         cx="960.21002"
         cy="287.39001"
         r="237.91"
         id="circle77" />
    </g>
    <g
       id="CIRCLE-2"
       data-name="CIRCLE">
      <circle
         class="cls-4"
         cx="960.21002"
         cy="287.39001"
         r="192.16"
         id="circle80" />
    </g>
    <g
       id="HATCH-4"
       data-name="HATCH">
      <path
         class="cls-5"
         d="m 1152.37,287.39 c 0,-106.13 -86.03,-192.16 -192.16,-192.16 -106.13,0 -192.16,86.03 -192.16,192.16 0,106.13 86.03,192.16 192.16,192.16 106.13,0 192.16,-86.03 192.16,-192.16 m 45.75,0 C 1198.12,155.99 1091.6,49.48 960.21,49.48 828.82,49.48 722.3,156 722.3,287.39 c 0,131.39 106.52,237.91 237.91,237.91 131.39,0 237.91,-106.52 237.91,-237.91 z"
         id="path83" />
    </g>
  </g>
</svg>
