<?xml version="1.0" encoding="UTF-8" standalone="no"?>
<svg
   viewBox="0 0 550.03003 550.03006"
   version="1.1"
   id="svg11"
   sodipodi:docname="SR-11C_30x30.svg"
   width="550.03003"
   height="550.03003"
   inkscape:version="1.4.2 (f4327f4, 2025-05-13)"
   xmlns:inkscape="http://www.inkscape.org/namespaces/inkscape"
   xmlns:sodipodi="http://sodipodi.sourceforge.net/DTD/sodipodi-0.dtd"
   xmlns="http://www.w3.org/2000/svg"
   xmlns:svg="http://www.w3.org/2000/svg">
  <sodipodi:namedview
     id="namedview11"
     pagecolor="#50505000"
     bordercolor="#ffffffff"
     borderopacity="1"
     inkscape:showpageshadow="0"
     inkscape:pageopacity="0"
     inkscape:pagecheckerboard="1"
     inkscape:deskcolor="#505050ff"
     inkscape:zoom="0.45249285"
     inkscape:cx="274.03748"
     inkscape:cy="533.71009"
     inkscape:window-width="1366"
     inkscape:window-height="697"
     inkscape:window-x="-8"
     inkscape:window-y="-8"
     inkscape:window-maximized="1"
     inkscape:current-layer="svg11" />
  <defs
     id="defs1">
    <style
       id="style1">
      .cls-1 {
        letter-spacing: 0em;
      }

      .cls-2, .cls-3 {
        fill: #fff;
      }

      .cls-3, .cls-4 {
        stroke: #000;
      }

      .cls-3, .cls-4, .cls-5 {
        stroke-linecap: round;
        stroke-linejoin: round;
      }

      .cls-6 {
        fill: #bd2025;
      }

      .cls-6, .cls-7 {
        fill-rule: evenodd;
      }

      .cls-4, .cls-5 {
        fill: none;
      }

      .cls-5 {
        stroke: #bd2025;
      }

      .cls-8 {
        font-family: ArialMT, Arial;
        font-size: 155.09px;
      }

      .cls-9 {
        letter-spacing: -.07em;
      }
    </style>
  </defs>
  <g
     id="sr_Fondo_del_tablero"
     data-name="sr_Fondo del tablero"
     transform="translate(-143.25999,-14.02)">
    <g
       id="HATCH">
      <rect
         class="cls-2"
         x="151.08"
         y="21.84"
         width="534.39001"
         height="534.39001"
         rx="29.280001"
         ry="29.280001"
         id="rect3" />
    </g>
  </g>
  <g
     id="sr_Pictograma_y_filete"
     data-name="sr_Pictograma y filete"
     transform="translate(-143.25999,-14.02)">
    <g
       id="HATCH-2"
       data-name="HATCH">
      <path
         class="cls-7"
         d="m 507.79,275 v 41.36 c -0.07,18.27 -6.73,35.9 -18.77,49.63 l -15.8,15.05 c -18.65,17.87 -27.93,43.4 -25.1,69.08 h -35.81 c -2.87,-35.51 10.44,-70.41 36.21,-95.01 l 14.45,-13.76 c 5.79,-7.08 8.97,-15.93 9.02,-25.07 V 275 l -34.24,39.67 -28.52,-28.52 80.67,-80.67 80.67,80.67 -28.52,28.52 L 507.81,275 M 310.85,235.32 c -0.24,25.22 10.38,49.33 29.14,66.19 7.26,6.23 17.98,6.24 25.25,0.01 18.77,-16.86 29.39,-40.97 29.16,-66.2 v -59.68 c 0,-3.3 -2.67,-5.97 -5.97,-5.97 h -71.61 c -3.3,0 -5.97,2.67 -5.97,5.97 z"
         id="path6" />
    </g>
    <g
       id="LWPOLYLINE">
      <path
         class="cls-4"
         d="m 310.85,235.32 c -0.24,25.22 10.38,49.33 29.14,66.19 7.26,6.23 17.98,6.24 25.25,0.01 18.77,-16.86 29.39,-40.97 29.16,-66.2 v -59.68 c 0,-3.3 -2.67,-5.97 -5.97,-5.97 h -71.61 c -3.3,0 -5.97,2.67 -5.97,5.97 z"
         id="path7" />
    </g>
    <g
       id="LWPOLYLINE-2"
       data-name="LWPOLYLINE">
      <path
         class="cls-4"
         d="m 507.79,275 v 41.36 c -0.07,18.27 -6.73,35.9 -18.77,49.63 l -15.8,15.05 c -18.65,17.87 -27.93,43.4 -25.1,69.08 h -35.81 c -2.87,-35.51 10.44,-70.41 36.21,-95.01 l 14.45,-13.76 c 5.79,-7.08 8.97,-15.93 9.02,-25.07 V 275 l -34.24,39.67 -28.52,-28.52 80.67,-80.67 80.67,80.67 -28.52,28.52 L 507.81,275 Z"
         id="path8" />
    </g>
    <g
       id="HATCH-3"
       data-name="HATCH">
      <path
         class="cls-7"
         d="m 180.36,556.22 h 475.82 c 16.17,0 29.28,-13.11 29.28,-29.28 V 51.12 c 0,-16.17 -13.11,-29.28 -29.28,-29.28 H 180.36 c -16.17,0 -29.28,13.11 -29.28,29.28 v 475.82 c 0,16.17 13.11,29.28 29.28,29.28 m 0,7.32 h 475.82 c 20.21,0 36.6,-16.39 36.6,-36.6 V 51.12 c 0,-20.21 -16.39,-36.6 -36.6,-36.6 H 180.36 c -20.21,0 -36.6,16.39 -36.6,36.6 v 475.82 c 0,20.21 16.39,36.6 36.6,36.6 z"
         id="path9" />
    </g>
    <g
       id="LWPOLYLINE-3"
       data-name="LWPOLYLINE">
      <rect
         class="cls-4"
         x="143.75999"
         y="14.52"
         width="549.03003"
         height="549.03003"
         rx="36.599998"
         ry="36.599998"
         id="rect9" />
    </g>
    <g
       id="LWPOLYLINE-4"
       data-name="LWPOLYLINE">
      <rect
         class="cls-4"
         x="151.08"
         y="21.84"
         width="534.39001"
         height="534.39001"
         rx="29.280001"
         ry="29.280001"
         id="rect10" />
    </g>
  </g>
  <g
     id="sr_Circunferencia_roja"
     data-name="sr_Circunferencia roja"
     transform="translate(-143.25999,-14.02)">
    <g
       id="CIRCLE">
      <circle
         class="cls-5"
         cx="418.26999"
         cy="289.03"
         r="237.91"
         id="circle10" />
    </g>
    <g
       id="CIRCLE-2"
       data-name="CIRCLE">
      <circle
         class="cls-5"
         cx="418.26999"
         cy="289.03"
         r="192.16"
         id="circle11" />
    </g>
    <g
       id="HATCH-4"
       data-name="HATCH">
      <path
         class="cls-6"
         d="M 610.43,289.03 C 610.43,182.9 524.4,96.87 418.27,96.87 c -106.13,0 -192.16,86.03 -192.16,192.16 0,106.13 86.03,192.16 192.16,192.16 106.13,0 192.16,-86.03 192.16,-192.16 m 45.75,0 c 0,-131.4 -106.52,-237.91 -237.91,-237.91 -131.39,0 -237.91,106.52 -237.91,237.91 0,131.39 106.52,237.91 237.91,237.91 131.4,0 237.91,-106.52 237.91,-237.91 z"
         id="path11" />
    </g>
  </g>
</svg>
