<?xml version="1.0" encoding="UTF-8" standalone="no"?>
<svg
   version="1.1"
   viewBox="0 0 550.03003 550.03003"
   id="svg88"
   sodipodi:docname="SR-24B_30x30.svg"
   width="550.03003"
   height="550.03003"
   inkscape:version="1.2.2 (b0a8486541, 2022-12-01)"
   xmlns:inkscape="http://www.inkscape.org/namespaces/inkscape"
   xmlns:sodipodi="http://sodipodi.sourceforge.net/DTD/sodipodi-0.dtd"
   xmlns="http://www.w3.org/2000/svg"
   xmlns:svg="http://www.w3.org/2000/svg">
  <sodipodi:namedview
     id="namedview90"
     pagecolor="#ffffff"
     bordercolor="#000000"
     borderopacity="0.25"
     inkscape:showpageshadow="2"
     inkscape:pageopacity="0.0"
     inkscape:pagecheckerboard="0"
     inkscape:deskcolor="#d1d1d1"
     showgrid="false"
     inkscape:zoom="0.7484375"
     inkscape:cx="275.24008"
     inkscape:cy="527.76618"
     inkscape:window-width="1920"
     inkscape:window-height="1014"
     inkscape:window-x="0"
     inkscape:window-y="29"
     inkscape:window-maximized="1"
     inkscape:current-layer="svg88" />
  <defs
     id="defs4">
    <style
       id="style2">
      .cls-1, .cls-2 {
        fill: #fff;
      }

      .cls-2, .cls-3 {
        stroke: #000;
      }

      .cls-2, .cls-3, .cls-4 {
        stroke-linecap: round;
        stroke-linejoin: round;
      }

      .cls-5 {
        fill: #bd2025;
      }

      .cls-5, .cls-6 {
        fill-rule: evenodd;
      }

      .cls-3, .cls-4 {
        fill: none;
      }

      .cls-4 {
        stroke: #bd2025;
      }
    </style>
  </defs>
  <!-- Generator: Adobe Illustrator 28.6.0, SVG Export Plug-In . SVG Version: 1.2.0 Build 709)  -->
  <g
     id="sr_x5F_Fondo_del_tablero"
     transform="translate(-684.79999,-12.37)">
    <g
       id="HATCH">
      <rect
         class="cls-1"
         x="692.62"
         y="20.190001"
         width="534.39001"
         height="534.39001"
         rx="29.280001"
         ry="29.280001"
         id="rect12" />
    </g>
  </g>
  <g
     id="sr_x5F_Pictograma_y_filete"
     transform="translate(-684.79999,-12.37)">
    <g
       id="HATCH-2"
       data-name="HATCH">
      <path
         class="cls-6"
         d="m 953.85,138.33 v -6.1 c 0,0 -47.74,0 -47.74,0 v 17.46 c 15.06,-6.75 31.26,-10.6 47.74,-11.35 m -77.58,244.53 v 16.43 l -13.14,-15.22 -13.71,13.71 38.79,38.79 38.79,-38.79 -13.71,-13.71 -13.14,15.22 v -16.43 c 0,-15.49 -5.03,-30.57 -14.32,-42.97 l -7.16,-9.55 c -24.3,-32.4 -27,-76.15 -6.88,-111.29 27.85,-48.62 89.83,-65.46 138.45,-37.62 48.62,27.85 65.46,89.83 37.62,138.45 l -22.39,39.1 v 59.68 l 45.45,-91.19 c 32.03,-61.35 8.26,-137.06 -53.09,-169.09 -61.35,-32.03 -137.06,-8.26 -169.09,53.09 -22.33,42.78 -18.12,94.58 10.84,133.19 l 7.16,9.55 c 6.2,8.26 9.55,18.32 9.55,28.64 m 31.26,59.69 44.76,-44.76 -46.21,-46.21 V 190.54 c 14.16,-9.63 30.65,-15.28 47.74,-16.35 V 442.55 H 907.55 M 1013.52,190.54 V 442.55 H 965.78 V 174.19 c 17.09,1.07 33.58,6.72 47.74,16.35 m -47.74,-52.21 v -6.1 h 47.74 v 17.46 c -15.06,-6.75 -31.26,-10.6 -47.74,-11.35 z"
         id="path48" />
    </g>
    <g
       id="LWPOLYLINE">
      <path
         class="cls-3"
         d="m 965.78,138.33 v -6.1 h 47.74 v 17.46 c -15.06,-6.75 -31.26,-10.6 -47.74,-11.35 z"
         id="path51" />
    </g>
    <g
       id="LWPOLYLINE-2"
       data-name="LWPOLYLINE">
      <path
         class="cls-3"
         d="M 1013.52,190.54 V 442.55 H 965.78 V 174.19 c 17.09,1.07 33.58,6.72 47.74,16.35 z"
         id="path54" />
    </g>
    <g
       id="LWPOLYLINE-3"
       data-name="LWPOLYLINE">
      <path
         class="cls-3"
         d="M 907.55,442.55 952.31,397.79 906.1,351.58 V 190.54 c 14.16,-9.63 30.65,-15.28 47.74,-16.35 v 268.36 h -46.29"
         id="path57" />
    </g>
    <g
       id="LWPOLYLINE-4"
       data-name="LWPOLYLINE">
      <path
         class="cls-3"
         d="m 876.27,382.87 v 16.43 l -13.14,-15.22 -13.71,13.71 38.79,38.79 38.79,-38.79 -13.71,-13.71 -13.14,15.22 v -16.43 c 0,-15.49 -5.03,-30.57 -14.32,-42.97 l -7.16,-9.55 c -24.3,-32.4 -27,-76.15 -6.88,-111.29 27.85,-48.62 89.83,-65.46 138.45,-37.62 48.62,27.85 65.46,89.83 37.62,138.45 l -22.39,39.1 v 59.68 l 45.45,-91.19 c 32.03,-61.35 8.26,-137.06 -53.09,-169.09 -61.35,-32.03 -137.06,-8.26 -169.09,53.09 -22.33,42.78 -18.12,94.58 10.84,133.19 l 7.16,9.55 c 6.2,8.26 9.55,18.32 9.55,28.64 z"
         id="path60" />
    </g>
    <g
       id="LWPOLYLINE-5"
       data-name="LWPOLYLINE">
      <path
         class="cls-3"
         d="m 953.85,138.33 v -6.1 c 0,0 -47.74,0 -47.74,0 v 17.46 c 15.06,-6.75 31.26,-10.6 47.74,-11.35 z"
         id="path63" />
    </g>
    <g
       id="HATCH-3"
       data-name="HATCH">
      <path
         class="cls-6"
         d="m 721.9,554.58 h 475.82 c 16.17,0 29.28,-13.11 29.28,-29.28 V 49.48 C 1227,33.31 1213.89,20.2 1197.72,20.2 H 721.9 c -16.17,0 -29.28,13.11 -29.28,29.28 V 525.3 c 0,16.17 13.11,29.28 29.28,29.28 m 0,7.32 h 475.82 c 20.21,0 36.6,-16.39 36.6,-36.6 V 49.48 c 0,-20.21 -16.39,-36.6 -36.6,-36.6 H 721.9 c -20.21,0 -36.6,16.39 -36.6,36.6 V 525.3 c 0,20.21 16.39,36.6 36.6,36.6 z"
         id="path66" />
    </g>
    <g
       id="LWPOLYLINE-6"
       data-name="LWPOLYLINE">
      <rect
         class="cls-3"
         x="685.29999"
         y="12.87"
         width="549.03003"
         height="549.03003"
         rx="36.599998"
         ry="36.599998"
         id="rect69" />
    </g>
    <g
       id="LWPOLYLINE-7"
       data-name="LWPOLYLINE">
      <rect
         class="cls-3"
         x="692.62"
         y="20.190001"
         width="534.39001"
         height="534.39001"
         rx="29.280001"
         ry="29.280001"
         id="rect72" />
    </g>
  </g>
  <g
     id="sr_x5F_Circunferencia_roja"
     transform="translate(-684.79999,-12.37)">
    <g
       id="CIRCLE">
      <circle
         class="cls-4"
         cx="959.81"
         cy="287.39001"
         r="237.91"
         id="circle76" />
    </g>
    <g
       id="CIRCLE-2"
       data-name="CIRCLE">
      <circle
         class="cls-4"
         cx="959.81"
         cy="287.39001"
         r="192.16"
         id="circle79" />
    </g>
    <g
       id="HATCH-4"
       data-name="HATCH">
      <path
         class="cls-5"
         d="m 1151.97,287.39 c 0,-106.13 -86.03,-192.16 -192.16,-192.16 -106.13,0 -192.16,86.03 -192.16,192.16 0,106.13 86.03,192.16 192.16,192.16 106.13,0 192.16,-86.03 192.16,-192.16 m 45.76,0 c 0,-131.4 -106.52,-237.91 -237.91,-237.91 -131.39,0 -237.91,106.52 -237.91,237.91 0,131.39 106.52,237.91 237.91,237.91 131.39,0 237.91,-106.52 237.91,-237.91 z"
         id="path82" />
    </g>
  </g>
</svg>
