<?xml version="1.0" encoding="UTF-8" standalone="no"?>
<svg
   version="1.1"
   viewBox="0 0 550.03003 550.03003"
   id="svg92"
   sodipodi:docname="SR-29_30x30.svg"
   width="550.03003"
   height="550.03003"
   inkscape:version="1.2.2 (b0a8486541, 2022-12-01)"
   xmlns:inkscape="http://www.inkscape.org/namespaces/inkscape"
   xmlns:sodipodi="http://sodipodi.sourceforge.net/DTD/sodipodi-0.dtd"
   xmlns="http://www.w3.org/2000/svg"
   xmlns:svg="http://www.w3.org/2000/svg">
  <sodipodi:namedview
     id="namedview94"
     pagecolor="#ffffff"
     bordercolor="#000000"
     borderopacity="0.25"
     inkscape:showpageshadow="2"
     inkscape:pageopacity="0.0"
     inkscape:pagecheckerboard="0"
     inkscape:deskcolor="#d1d1d1"
     showgrid="false"
     inkscape:zoom="0.7484375"
     inkscape:cx="275.24008"
     inkscape:cy="527.76618"
     inkscape:window-width="1920"
     inkscape:window-height="1014"
     inkscape:window-x="0"
     inkscape:window-y="29"
     inkscape:window-maximized="1"
     inkscape:current-layer="svg92" />
  <defs
     id="defs4">
    <style
       id="style2">
      .cls-1, .cls-2 {
        fill: #fff;
      }

      .cls-2, .cls-3 {
        stroke: #000;
      }

      .cls-2, .cls-3, .cls-4 {
        stroke-linecap: round;
        stroke-linejoin: round;
      }

      .cls-5 {
        fill: #bd2025;
      }

      .cls-5, .cls-6 {
        fill-rule: evenodd;
      }

      .cls-3, .cls-4 {
        fill: none;
      }

      .cls-4 {
        stroke: #bd2025;
      }
    </style>
  </defs>
  <!-- Generator: Adobe Illustrator 28.6.0, SVG Export Plug-In . SVG Version: 1.2.0 Build 709)  -->
  <g
     id="sr_x5F_Fondo_del_tablero"
     transform="translate(-684.79999,-12.37)">
    <g
       id="HATCH">
      <rect
         class="cls-1"
         x="692.62"
         y="20.190001"
         width="534.39001"
         height="534.39001"
         rx="29.280001"
         ry="29.280001"
         id="rect12" />
    </g>
  </g>
  <g
     id="sr_x5F_Pictograma_y_filete"
     transform="translate(-684.79999,-12.37)">
    <g
       id="CIRCLE">
      <circle
         class="cls-3"
         cx="1049.33"
         cy="317.23001"
         r="35.810001"
         id="circle16" />
    </g>
    <g
       id="CIRCLE-2"
       data-name="CIRCLE">
      <circle
         class="cls-3"
         cx="852.40002"
         cy="341.10001"
         r="41.77"
         id="circle19" />
    </g>
    <g
       id="CIRCLE-3"
       data-name="CIRCLE">
      <circle
         class="cls-3"
         cx="852.40002"
         cy="341.10001"
         r="23.870001"
         id="circle22" />
    </g>
    <g
       id="CIRCLE-4"
       data-name="CIRCLE">
      <circle
         class="cls-3"
         cx="1049.33"
         cy="317.23001"
         r="65.639999"
         id="circle25" />
    </g>
    <g
       id="HATCH-2"
       data-name="HATCH">
      <path
         class="cls-6"
         d="m 924.01,347.06 h -11.94 c -3.3,0 -5.97,-2.67 -5.97,-5.97 0,-29.66 -24.05,-53.71 -53.71,-53.71 h -17.9 l -16.18,-34.1 c -0.95,-2 -1.52,-4.15 -1.68,-6.35 -0.73,-9.86 6.67,-18.45 16.53,-19.18 l 114.71,-8.49 19.65,-19.65 -10.55,-10.55 4.22,-4.22 8.44,8.44 32.36,-22.57 c 2.5,-1.75 5.48,-2.68 8.53,-2.68 8.24,0 14.92,6.68 14.92,14.92 v 50.73 h 5.97 c 0,-6.59 5.34,-11.94 11.94,-11.94 h 35.81 c 6.59,0 11.94,5.34 11.94,11.94 h 17.9 v 23.87 h -10.11 c -30.36,-25.22 -74.8,-23.63 -103.28,3.7 v -21.6 h -11.94 v 26.85 c 0,4.94 -4.01,8.95 -8.95,8.95 -4.94,0 -8.95,-4.01 -8.95,-8.95 v -38.79 c 0,-3.3 2.67,-5.97 5.97,-5.97 h 23.87 v -32.02 l -17.41,12.14 8.31,8.31 -4.22,4.22 -10.55,-10.55 -23.87,23.87 v 53.71 h 32.63 c -5.75,11.06 -8.76,23.34 -8.76,35.81 h -35.81 v 17.9 c 0,6.59 -5.34,11.94 -11.94,11.94 m 113.47,-197.68 -14.99,-2.64 c -0.22,-8.24 -7.08,-14.73 -15.31,-14.51 -5.98,0.16 -11.28,3.87 -13.48,9.44 l -14.99,-2.64 -1.04,5.88 14.99,2.64 c 0.22,8.24 7.08,14.73 15.31,14.51 5.98,-0.16 11.28,-3.87 13.48,-9.44 l 14.99,2.64 1.04,-5.88 m 77.51,167.84 c 0,-36.25 -29.39,-65.64 -65.64,-65.64 -36.25,0 -65.64,29.39 -65.64,65.64 0,36.25 29.39,65.64 65.64,65.64 36.25,0 65.64,-29.39 65.64,-65.64 m -238.7,23.87 c 0,-13.18 -10.69,-23.87 -23.87,-23.87 -13.18,0 -23.87,10.69 -23.87,23.87 0,13.18 10.69,23.87 23.87,23.87 13.18,0 23.87,-10.69 23.87,-23.87 m 17.9,0 c 0,-23.07 -18.7,-41.77 -41.77,-41.77 -23.07,0 -41.77,18.7 -41.77,41.77 0,23.07 18.7,41.77 41.77,41.77 23.07,0 41.77,-18.7 41.77,-41.77 m 190.97,-23.87 c 0,-19.78 -16.03,-35.81 -35.81,-35.81 -19.78,0 -35.81,16.03 -35.81,35.81 0,19.78 16.03,35.81 35.81,35.81 19.78,0 35.81,-16.03 35.81,-35.81 z"
         id="path28" />
    </g>
    <g
       id="LWPOLYLINE">
      <path
         class="cls-3"
         d="m 1037.46,149.39 -14.99,-2.64 c -0.22,-8.24 -7.08,-14.73 -15.31,-14.51 -5.98,0.16 -11.28,3.87 -13.48,9.44 l -14.99,-2.64 -1.04,5.88 14.99,2.64 c 0.22,8.24 7.08,14.73 15.31,14.51 5.98,-0.16 11.28,-3.87 13.48,-9.44 l 14.99,2.64 z"
         id="path31" />
    </g>
    <g
       id="LWPOLYLINE-2"
       data-name="LWPOLYLINE">
      <path
         class="cls-3"
         d="m 924.01,347.06 h -11.94 c -3.3,0 -5.97,-2.67 -5.97,-5.97 0,-29.66 -24.05,-53.71 -53.71,-53.71 h -17.9 l -16.18,-34.1 c -0.95,-2 -1.52,-4.15 -1.68,-6.35 -0.73,-9.86 6.67,-18.45 16.53,-19.18 l 114.71,-8.49 19.65,-19.65 -10.55,-10.55 4.22,-4.22 8.44,8.44 32.36,-22.57 c 2.5,-1.75 5.48,-2.68 8.53,-2.68 8.24,0 14.92,6.68 14.92,14.92 v 50.73 h 5.97 c 0,-6.59 5.34,-11.94 11.94,-11.94 h 35.81 c 6.59,0 11.94,5.34 11.94,11.94 h 17.9 v 23.87 h -10.11 c -30.36,-25.22 -74.8,-23.63 -103.28,3.7 v -21.6 h -11.94 v 26.85 c 0,4.94 -4.01,8.95 -8.95,8.95 -4.94,0 -8.95,-4.01 -8.95,-8.95 v -38.79 c 0,-3.3 2.67,-5.97 5.97,-5.97 h 23.87 c 0,0 0,-32.02 0,-32.02 l -17.41,12.14 8.31,8.31 -4.22,4.22 -10.55,-10.55 -23.87,23.87 v 53.71 h 32.63 c -5.75,11.06 -8.76,23.34 -8.76,35.81 h -35.81 v 17.9 c 0,6.59 -5.34,11.94 -11.94,11.94 z"
         id="path34" />
    </g>
    <g
       id="HATCH-3"
       data-name="HATCH">
      <path
         class="cls-6"
         d="m 721.9,554.58 h 475.82 c 16.17,0 29.28,-13.11 29.28,-29.28 V 49.48 C 1227,33.31 1213.89,20.2 1197.72,20.2 H 721.9 c -16.17,0 -29.28,13.11 -29.28,29.28 V 525.3 c 0,16.17 13.11,29.28 29.28,29.28 m 0,7.32 h 475.82 c 20.21,0 36.6,-16.39 36.6,-36.6 V 49.48 c 0,-20.21 -16.39,-36.6 -36.6,-36.6 H 721.9 c -20.21,0 -36.6,16.39 -36.6,36.6 V 525.3 c 0,20.21 16.39,36.6 36.6,36.6 z"
         id="path37" />
    </g>
    <g
       id="LWPOLYLINE-3"
       data-name="LWPOLYLINE">
      <rect
         class="cls-3"
         x="685.29999"
         y="12.87"
         width="549.03003"
         height="549.03003"
         rx="36.599998"
         ry="36.599998"
         id="rect40" />
    </g>
    <g
       id="LWPOLYLINE-4"
       data-name="LWPOLYLINE">
      <rect
         class="cls-3"
         x="692.62"
         y="20.190001"
         width="534.39001"
         height="534.39001"
         rx="29.280001"
         ry="29.280001"
         id="rect43" />
    </g>
  </g>
  <g
     id="sr_x5F_Circunferencia_roja"
     transform="translate(-684.79999,-12.37)">
    <g
       id="LWPOLYLINE-5"
       data-name="LWPOLYLINE">
      <path
         class="cls-4"
         d="M 1110.9,406.12 841.08,136.3 c 69.68,-54.76 167.79,-54.76 237.47,0 83.44,65.58 97.93,186.38 32.35,269.82 z"
         id="path77" />
    </g>
    <g
       id="LWPOLYLINE-6"
       data-name="LWPOLYLINE">
      <path
         class="cls-4"
         d="M 1078.55,438.47 808.73,168.65 c -65.58,83.44 -51.09,204.25 32.35,269.82 69.68,54.76 167.79,54.76 237.47,0 z"
         id="path80" />
    </g>
    <g
       id="CIRCLE-5"
       data-name="CIRCLE">
      <circle
         class="cls-4"
         cx="959.81"
         cy="287.39001"
         r="237.91"
         id="circle83" />
    </g>
    <g
       id="HATCH-4"
       data-name="HATCH">
      <path
         class="cls-5"
         d="m 1197.73,287.39 c 0,-131.4 -106.52,-237.91 -237.91,-237.91 -131.4,0 -237.91,106.52 -237.91,237.91 0,131.4 106.52,237.91 237.91,237.91 131.39,0 237.91,-106.52 237.91,-237.91 M 1078.55,438.47 808.73,168.65 c -65.58,83.44 -51.09,204.25 32.35,269.82 69.68,54.76 167.79,54.76 237.47,0 M 1110.9,406.12 841.08,136.3 c 69.68,-54.76 167.79,-54.76 237.47,0 83.44,65.58 97.93,186.38 32.35,269.82 z"
         id="path86" />
    </g>
  </g>
</svg>
