<?xml version="1.0" encoding="UTF-8" standalone="no"?>
<svg
   version="1.1"
   viewBox="0 0 546.44 546.44"
   id="svg74"
   sodipodi:docname="SR-24_30x30.svg"
   width="546.44"
   height="546.44"
   inkscape:version="1.2.2 (b0a8486541, 2022-12-01)"
   xmlns:inkscape="http://www.inkscape.org/namespaces/inkscape"
   xmlns:sodipodi="http://sodipodi.sourceforge.net/DTD/sodipodi-0.dtd"
   xmlns="http://www.w3.org/2000/svg"
   xmlns:svg="http://www.w3.org/2000/svg">
  <sodipodi:namedview
     id="namedview76"
     pagecolor="#ffffff"
     bordercolor="#000000"
     borderopacity="0.25"
     inkscape:showpageshadow="2"
     inkscape:pageopacity="0.0"
     inkscape:pagecheckerboard="0"
     inkscape:deskcolor="#d1d1d1"
     showgrid="false"
     inkscape:zoom="0.7484375"
     inkscape:cx="273.23591"
     inkscape:cy="528.43424"
     inkscape:window-width="1577"
     inkscape:window-height="751"
     inkscape:window-x="50"
     inkscape:window-y="116"
     inkscape:window-maximized="0"
     inkscape:current-layer="svg74" />
  <defs
     id="defs4">
    <style
       id="style2">
      .cls-1, .cls-2 {
        fill: #fff;
      }

      .cls-2, .cls-3 {
        stroke: #000;
      }

      .cls-2, .cls-3, .cls-4 {
        stroke-linecap: round;
        stroke-linejoin: round;
      }

      .cls-5 {
        fill: #bd2025;
      }

      .cls-5, .cls-6 {
        fill-rule: evenodd;
      }

      .cls-3, .cls-4 {
        fill: none;
      }

      .cls-4 {
        stroke: #bd2025;
      }
    </style>
  </defs>
  <!-- Generator: Adobe Illustrator 28.6.0, SVG Export Plug-In . SVG Version: 1.2.0 Build 709)  -->
  <g
     id="sr_x5F_Fondo_del_tablero"
     transform="translate(-686.98999,-12.14)">
    <g
       id="HATCH">
      <rect
         class="cls-1"
         x="694.76001"
         y="19.91"
         width="530.89001"
         height="530.89001"
         rx="29.09"
         ry="29.09"
         id="rect12" />
    </g>
  </g>
  <g
     id="sr_x5F_Pictograma_y_filete"
     transform="translate(-686.98999,-12.14)">
    <g
       id="HATCH-2"
       data-name="HATCH">
      <path
         class="cls-6"
         d="M 912.78,359.94 V 208.28 c 0,-26.19 21.23,-47.43 47.43,-47.43 26.2,0 47.43,21.23 47.43,47.43 v 219.36 h 35.57 V 208.28 c 0,-45.84 -37.16,-83 -83,-83 -45.84,0 -83,37.16 -83,83 v 151.66 l -32.56,-37.72 -27.54,27.54 77.88,77.88 77.88,-77.88 -27.54,-27.54 -32.56,37.72 z"
         id="path46" />
    </g>
    <g
       id="LWPOLYLINE">
      <path
         class="cls-3"
         d="M 912.78,359.94 V 208.28 c 0,-26.19 21.23,-47.43 47.43,-47.43 26.19,0 47.43,21.23 47.43,47.43 v 219.36 h 35.57 V 208.28 c 0,-45.84 -37.16,-83 -83,-83 -45.84,0 -83,37.16 -83,83 v 151.66 l -32.56,-37.72 -27.54,27.54 77.88,77.88 77.88,-77.88 -27.54,-27.54 -32.56,37.72 z"
         id="path49" />
    </g>
    <g
       id="HATCH-3"
       data-name="HATCH">
      <path
         class="cls-6"
         d="m 723.85,550.8 h 472.71 c 16.07,0 29.09,-13.02 29.09,-29.09 V 49 c 0,-16.07 -13.02,-29.09 -29.09,-29.09 H 723.85 c -16.07,0 -29.09,13.02 -29.09,29.09 v 472.71 c 0,16.07 13.02,29.09 29.09,29.09 m 0,7.27 h 472.71 c 20.08,0 36.36,-16.28 36.36,-36.36 V 49 c 0,-20.08 -16.28,-36.36 -36.36,-36.36 H 723.85 c -20.08,0 -36.36,16.28 -36.36,36.36 v 472.71 c 0,20.08 16.28,36.36 36.36,36.36 z"
         id="path52" />
    </g>
    <g
       id="LWPOLYLINE-2"
       data-name="LWPOLYLINE">
      <rect
         class="cls-3"
         x="687.48999"
         y="12.64"
         width="545.44"
         height="545.44"
         rx="36.360001"
         ry="36.360001"
         id="rect55" />
    </g>
    <g
       id="LWPOLYLINE-3"
       data-name="LWPOLYLINE">
      <rect
         class="cls-3"
         x="694.76001"
         y="19.91"
         width="530.89001"
         height="530.89001"
         rx="29.09"
         ry="29.09"
         id="rect58" />
    </g>
  </g>
  <g
     id="sr_x5F_Circunferencia_roja"
     transform="translate(-686.98999,-12.14)">
    <g
       id="CIRCLE">
      <circle
         class="cls-4"
         cx="960.21002"
         cy="285.35001"
         r="236.36"
         id="circle62" />
    </g>
    <g
       id="CIRCLE-2"
       data-name="CIRCLE">
      <circle
         class="cls-4"
         cx="960.21002"
         cy="285.35001"
         r="190.89999"
         id="circle65" />
    </g>
    <g
       id="HATCH-4"
       data-name="HATCH">
      <path
         class="cls-5"
         d="m 1151.11,285.35 c 0,-105.43 -85.47,-190.9 -190.9,-190.9 -105.43,0 -190.9,85.47 -190.9,190.9 0,105.43 85.47,190.9 190.9,190.9 105.43,0 190.9,-85.47 190.9,-190.9 m 45.45,0 c 0,-130.54 -105.82,-236.36 -236.36,-236.36 -130.54,0 -236.36,105.82 -236.36,236.36 0,130.54 105.82,236.36 236.36,236.36 130.54,0 236.36,-105.82 236.36,-236.36 z"
         id="path68" />
    </g>
  </g>
</svg>
