<?xml version="1.0" encoding="UTF-8" standalone="no"?>
<!-- Created with Inkscape (http://www.inkscape.org/) -->

<svg
   width="710mm"
   height="710mm"
   viewBox="0 0 710 710"
   version="1.1"
   id="svg18534"
   inkscape:version="1.2.1 (9c6d41e410, 2022-07-14)"
   sodipodi:docname="Mexico road sign SR-27.svg"
   xmlns:inkscape="http://www.inkscape.org/namespaces/inkscape"
   xmlns:sodipodi="http://sodipodi.sourceforge.net/DTD/sodipodi-0.dtd"
   xmlns="http://www.w3.org/2000/svg"
   xmlns:svg="http://www.w3.org/2000/svg">
  <sodipodi:namedview
     id="namedview18536"
     pagecolor="#ffffff"
     bordercolor="#000000"
     borderopacity="0.25"
     inkscape:showpageshadow="2"
     inkscape:pageopacity="0.0"
     inkscape:pagecheckerboard="0"
     inkscape:deskcolor="#d1d1d1"
     inkscape:document-units="mm"
     showgrid="false"
     inkscape:zoom="0.19064254"
     inkscape:cx="1487.0763"
     inkscape:cy="1177.5966"
     inkscape:window-width="1920"
     inkscape:window-height="991"
     inkscape:window-x="-9"
     inkscape:window-y="-9"
     inkscape:window-maximized="1"
     inkscape:current-layer="layer1" />
  <defs
     id="defs18531" />
  <g
     inkscape:label="Livello 1"
     inkscape:groupmode="layer"
     id="layer1"
     transform="translate(285.95444,251.9525)">
    <g
       id="g28376"
       transform="translate(727.44827,-22307.765)">
      <rect
         style="fill:#000000;stroke-width:3.68415;stroke-opacity:0.578462;paint-order:fill markers stroke"
         id="rect20798-0-9-0-4"
         width="710"
         height="710"
         x="-1013.4027"
         y="22055.812"
         ry="40"
         rx="40" />
      <rect
         style="fill:#ffffff;stroke-width:3.58037;stroke-opacity:0.578462;paint-order:fill markers stroke"
         id="rect20798-4-8-3-4"
         width="690"
         height="690"
         x="-1003.4022"
         y="22065.812"
         ry="30"
         rx="30" />
      <g
         id="g25102-4-2-3-4"
         transform="rotate(90,-9849.3711,12206.441)">
        <circle
           style="fill:#be0018;stroke-width:6.548;stroke-opacity:0.578462;paint-order:fill markers stroke"
           id="path23624-0-6-2-5"
           cx="3015.4722"
           cy="-355"
           r="310"
           transform="rotate(90)" />
        <circle
           style="fill:#ffffff;stroke-width:5.28036;stroke-opacity:0.578462;paint-order:fill markers stroke"
           id="path23624-1-4-2-7"
           cx="355.00046"
           cy="3015.4727"
           r="250" />
      </g>
      <g
         id="g25723-1-3"
         transform="matrix(14.276263,0,0,14.276263,-43134.433,-121776.93)">
        <ellipse
           style="fill:#000000;stroke-width:0.566424;stroke-linejoin:bevel;stroke-opacity:0.738462;paint-order:fill markers stroke"
           id="path22193-8-5-1"
           cx="2966.2378"
           cy="10103.941"
           rx="1.5145167"
           ry="1.5145" />
        <circle
           style="fill:#000000;stroke-width:0.566421;stroke-linejoin:bevel;stroke-opacity:0.738462;paint-order:fill markers stroke"
           id="path22193-8-7-1-5"
           cx="2983.0059"
           cy="10103.941"
           r="1.5145" />
        <path
           id="rect23817-7-8"
           style="fill:#000000;stroke-width:1.47832;stroke-linejoin:bevel;stroke-opacity:0.738462;paint-order:fill markers stroke"
           d="m 2971.5773,10094.847 v 9.153 h 9.2035 a 2.2281013,2.2281013 0 0 1 0,-0.07 2.2281013,2.2281013 0 0 1 2.2283,-2.229 2.2281013,2.2281013 0 0 1 2.2278,2.229 2.2281013,2.2281013 0 0 1 0,0.07 h 1.1689 v -1.32 h 0.8305 v -7.833 z" />
        <path
           id="rect23817-4-9-8"
           style="fill:#000000;stroke-width:0.878148;stroke-linejoin:bevel;stroke-opacity:0.738462;paint-order:fill markers stroke"
           d="m 2967.6488,10097.57 -1.0475,2.699 -2.7548,0.419 c -0.427,0.1 -0.3783,0.22 -0.3783,0.438 v 2.187 c 0,0.256 0.2136,0.416 0.5281,0.406 h 0.026 a 2.2281013,2.2281013 0 0 1 2.2158,-2.007 2.2281013,2.2281013 0 0 1 2.2278,2.229 2.2281013,2.2281013 0 0 1 0,0.06 h 2.8665 v -6.431 z" />
        <path
           style="fill:#ffffff;stroke-width:1.496;stroke-linejoin:bevel;stroke-opacity:0.738462;paint-order:fill markers stroke"
           d="m 2968.4086,10098.577 -0.6813,1.545 c -0.1773,0.331 0.091,0.755 0.4383,0.633 l 2.062,-0.594 v -1.114 c 0,-0.282 -0.1352,-0.47 -0.399,-0.47 z"
           id="path23906-1-1"
           sodipodi:nodetypes="ccccccc" />
      </g>
      <path
         id="path7791-1-1-1-6-1-1-5-5-2-2"
         style="color:#000000;fill:#000000;stroke-width:6.67571;stroke-linecap:round;stroke-linejoin:bevel;paint-order:fill markers stroke"
         d="m -669.84694,22217.281 h -7.4184 c -3.6915,0 -6.9186,1.01 -9.3617,2.726 -2.4447,1.834 -3.9152,4.375 -5.0055,6.932 l -0.1683,0.168 -6.4138,18.206 c -0.3197,0.336 -0.5216,1.009 -0.5889,1.699 l -3.8968,11.037 c -2.5019,-0.673 -5.0628,-1.009 -7.632,-1.009 -18.5467,0 -33.5853,15.042 -33.587,33.567 0,18.558 15.0369,33.6 33.587,33.6 18.5483,0 33.5836,-15.042 33.5836,-33.6 0,-12.67 -7.1408,-24.246 -18.4458,-29.95 l 2.0426,-5.788 34.7362,36.276 c 2.3724,2.591 3.7049,3.702 5.9747,4.291 2.2697,0.673 4.844,0.841 5.6634,0.841 h 9.0033 c 2.6904,16.203 16.6993,28.065 33.1209,28.081 18.5484,0 33.5836,-15.042 33.5836,-33.583 0,-18.542 -15.0352,-33.601 -33.5836,-33.601 -3.5788,0 -7.1357,0.505 -10.5327,1.515 l -9.5098,-15.48 v 0 c -0.6393,-1.009 -1.1441,-1.834 -1.632,-2.557 l 3.36,-8.867 h 7.7515 c 2.2024,0 3.9876,-1.817 3.9876,-3.988 0,-2.204 -1.7801,-4.004 -3.9876,-4.021 h -26.9392 c -2.2058,0 -3.9927,1.834 -3.9877,4.021 0,2.204 1.7852,3.988 3.9877,3.988 h 10.6421 l -1.866,4.93 h -0.8749 -52.5156 l 2.4347,-6.899 c 0.7908,-1.817 1.5647,-2.944 2.4346,-3.6 0.8749,-0.842 2.0561,-1.178 4.5496,-1.178 h 7.42 c 2.2075,0 4.0011,-1.8 4.0028,-3.971 0,-2.204 -1.7953,-4.004 -4.0028,-4.004 z m -19.6538,27.594 h 53.1633 l -15.6931,41.424 c -0.1682,0 -0.2692,-0.168 -0.4038,-0.336 h -0.1682 l -37.5881,-39.271 z m 59.6899,5.334 7.4486,12.08 c -9.0739,5.671 -14.904,15.328 -15.7032,25.962 h -6.1783 z m -80.4374,14.958 c 1.6657,0 3.318,0.168 4.9467,0.504 l -8.4329,23.926 c -0.7235,2.086 0.3533,4.375 2.438,5.081 2.0813,0.842 4.3662,-0.336 5.0981,-2.423 l 8.4009,-23.841 c 8.1116,4.526 13.1441,13.073 13.1508,22.361 0,14.15 -11.4615,25.608 -25.6016,25.608 -14.1384,0 -25.5999,-11.458 -25.5999,-25.608 0,-14.134 11.4615,-25.592 25.5999,-25.592 z m 105.6789,0 c 14.1384,0 25.6016,11.458 25.6016,25.591 0,14.15 -11.4632,25.575 -25.6016,25.575 -12.0049,0 -22.3896,-8.363 -24.9757,-20.056 h 28.2533 c 1.0095,0 2.1806,0.168 3.9776,-1.178 0.8917,-0.841 1.4974,-2.255 1.5142,-3.281 0,-1.009 -0.2355,-1.716 -0.4374,-2.137 -0.8245,-2.036 -1.7044,-2.81 -2.7897,-4.593 l -11.7374,-19.097 c 2.0291,-0.673 4.1121,-0.841 6.2052,-0.841 z m -13.6084,3.937 11.8283,19.231 h -23.6919 c 0.774,-7.874 5.1519,-14.974 11.8636,-19.198 z"
         inkscape:transform-center-x="-137.93067"
         inkscape:transform-center-y="-314.119"
         sodipodi:nodetypes="ccscccccccccccccccccccccccccccccccccccscccccccccccccccccccccccccccccccccccccccccccc" />
      <path
         style="fill:#beff18;stroke:#be0018;stroke-width:60;paint-order:fill markers stroke"
         d="m -863.40271,22205.811 410,410"
         id="path25886-3-6-44"
         sodipodi:nodetypes="cc" />
      <g
         id="g51197-6-0-9-1-9-6"
         transform="matrix(10.130881,0,0,10.130881,32498.379,-158415.74)">
        <path
           id="path3303-9-1-2-6-6-9-0-4"
           style="fill:#000000;stroke-width:2.24913;stroke-linejoin:bevel;paint-order:fill markers stroke"
           d="m -3273.5222,17858.071 c -0.4291,0 -0.7915,0.08 -1.0521,0.312 -0.2599,0.233 -0.371,0.497 -0.571,0.843 l -1.7064,2.854 c -0.5854,-0.285 -1.229,-0.432 -1.881,-0.429 -0.8658,0 -1.7098,0.273 -2.419,0.769 l 0.3266,0.467 c 0.619,-0.434 1.357,-0.667 2.1131,-0.668 0.5607,0 1.092,0.126 1.5678,0.35 l -0.3012,0.504 a 3.0996319,3.0996319 0 0 0 -1.2553,-0.268 3.0996319,3.0996319 0 0 0 -3.0995,3.099 3.0996319,3.0996319 0 0 0 3.0995,3.1 3.0996319,3.0996319 0 0 0 3.0996,-3.1 3.0996319,3.0996319 0 0 0 -1.0863,-2.353 l 0.3018,-0.504 c 0.8289,0.675 1.3586,1.704 1.3586,2.857 v 0.228 h 0.569 v -0.228 c -10e-5,-1.322 -0.6141,-2.553 -1.6335,-3.35 l 0.5235,-0.875 c 0.288,0.08 0.4703,0.146 0.5917,0.43 l 0.6702,2.32 c 0.4573,1.418 0.8785,2.038 1.9337,2.038 h 1.4857 0.1613 0.7384 a 3.099632,3.099632 0 0 0 3.0474,2.537 3.099632,3.099632 0 0 0 3.0995,-3.1 3.099632,3.099632 0 0 0 -3.0995,-3.099 3.099632,3.099632 0 0 0 -1.6475,0.478 l -0.3782,-0.455 c 0.5853,-0.386 1.2835,-0.609 2.0257,-0.609 0.9509,0 1.8651,0.368 2.5512,1.026 0.2929,-0.04 0.4494,-0.565 0.1525,-0.83 0,0 -1.5576,-1.607 -3.8799,-1.607 -1.4525,0 -2.4196,0.756 -2.8944,0.756 h -0.2516 c -0.3073,-0.634 -0.8886,-1.137 -1.6506,-1.324 -0.4828,-0.06 -0.977,-0.09 -1.4139,0.03 v 0 c -0.1663,0.06 -0.3316,0.131 -0.494,0.229 l -0.033,-0.01 0.4806,-0.804 c 0.2128,-0.368 0.3335,-0.571 0.3943,-0.625 0.061,-0.06 0.1098,-0.08 0.4553,-0.08 h 1.2743 a 0.44771262,0.44771262 0 0 0 0.4476,-0.448 0.44771262,0.44771262 0 0 0 -0.4476,-0.448 z m 3.8747,5.337 0.3783,0.455 a 3.099632,3.099632 0 0 0 -0.7498,1.709 h -0.584 l 0.056,-0.41 c 0.1389,-0.675 0.4579,-1.275 0.8997,-1.754 z m 2.7079,0.177 a 2.3190496,2.3189839 0 0 1 2.3192,2.319 2.3190496,2.3189839 0 0 1 -2.3192,2.319 2.3190496,2.3189839 0 0 1 -2.2469,-1.756 h 1.3766 a 1.0387995,1.0389508 0 0 0 0.8708,0.476 1.0387995,1.0389508 0 0 0 1.0392,-1.04 1.0387995,1.0389508 0 0 0 -1.0392,-1.038 1.0387995,1.0389508 0 0 0 -0.2956,0.04 l -0.848,-1.02 a 2.3190496,2.3189839 0 0 1 1.1431,-0.304 z m -11.7611,0 a 2.3190496,2.318984 0 0 1 0.8506,0.164 l -0.6759,1.13 a 1.0387994,1.0389508 0 0 0 -0.1742,-0.01 1.0387994,1.0389508 0 0 0 -1.0386,1.039 1.0387994,1.0389508 0 0 0 1.0386,1.039 1.0387994,1.0389508 0 0 0 1.0393,-1.039 1.0387994,1.0389508 0 0 0 -0.1313,-0.505 l 0.6971,-1.165 a 2.3190496,2.318984 0 0 1 0.7137,1.67 2.3190496,2.318984 0 0 1 -2.3193,2.32 2.3190496,2.318984 0 0 1 -2.3192,-2.32 2.3190496,2.318984 0 0 1 2.3192,-2.318 z m 9.939,0.887 0.8624,1.037 a 1.0387995,1.0389508 0 0 0 -0.023,0.06 h -1.3095 a 2.3190496,2.3189839 0 0 1 0.4703,-1.099 z" />
        <path
           style="fill:#000000;stroke-width:1.496;stroke-linejoin:bevel;stroke-opacity:0.615385;paint-order:fill markers stroke"
           d="m -3277.6252,17859.418 v 2.144 c 0,0 1.1113,0.04 1.1113,-1.072 0,-1.109 -1.1113,-1.072 -1.1113,-1.072 z"
           id="path51161-1-3-7-2-2-6"
           sodipodi:nodetypes="cczc" />
      </g>
    </g>
  </g>
</svg>
