<?xml version="1.0" encoding="UTF-8" standalone="no"?>
<svg
   version="1.1"
   viewBox="0 0 550.03003 550.03003"
   id="svg23"
   sodipodi:docname="SR-28_30x30.svg"
   width="550.03003"
   height="550.03003"
   inkscape:version="1.5-dev (b025170, 2024-11-19, custom)"
   xmlns:inkscape="http://www.inkscape.org/namespaces/inkscape"
   xmlns:sodipodi="http://sodipodi.sourceforge.net/DTD/sodipodi-0.dtd"
   xmlns="http://www.w3.org/2000/svg"
   xmlns:svg="http://www.w3.org/2000/svg">
  <sodipodi:namedview
     id="namedview23"
     pagecolor="#50505000"
     bordercolor="#ffffffff"
     borderopacity="1"
     inkscape:showpageshadow="0"
     inkscape:pageopacity="0"
     inkscape:pagecheckerboard="1"
     inkscape:deskcolor="#505050ff"
     inkscape:zoom="0.43333333"
     inkscape:cx="274.61538"
     inkscape:cy="528.46154"
     inkscape:window-width="1366"
     inkscape:window-height="728"
     inkscape:window-maximized="1"
     inkscape:current-layer="svg23" />
  <defs
     id="defs1">
    <style
       id="style1">
      .cls-1, .cls-2 {
        fill: #fff;
      }

      .cls-2, .cls-3 {
        stroke: #000;
      }

      .cls-2, .cls-3, .cls-4 {
        stroke-linecap: round;
        stroke-linejoin: round;
      }

      .cls-5 {
        fill: #bd2025;
      }

      .cls-5, .cls-6 {
        fill-rule: evenodd;
      }

      .cls-3, .cls-4 {
        fill: none;
      }

      .cls-4 {
        stroke: #bd2025;
      }
    </style>
  </defs>
  <!-- Generator: Adobe Illustrator 28.6.0, SVG Export Plug-In . SVG Version: 1.2.0 Build 709)  -->
  <g
     id="sr_x5F_Fondo_del_tablero"
     transform="translate(-684.79999,-12.37)">
    <g
       id="HATCH">
      <rect
         class="cls-1"
         x="692.62"
         y="20.190001"
         width="534.39001"
         height="534.39001"
         rx="29.280001"
         ry="29.280001"
         id="rect3" />
    </g>
  </g>
  <g
     id="sr_x5F_Pictograma_y_filete"
     transform="translate(-684.79999,-12.37)">
    <g
       id="CIRCLE">
      <circle
         class="cls-3"
         cx="1061.26"
         cy="335.13"
         r="17.9"
         id="circle3" />
    </g>
    <g
       id="CIRCLE-2"
       data-name="CIRCLE">
      <circle
         class="cls-3"
         cx="1061.26"
         cy="335.13"
         r="29.84"
         id="circle4" />
    </g>
    <g
       id="HATCH-2"
       data-name="HATCH">
      <path
         class="cls-6"
         d="m 840.9,245.8 c -0.3,-0.13 -0.6,-0.24 -0.9,-0.34 l -14.77,-4.92 c -1.76,-0.59 -3.36,-1.57 -4.67,-2.88 l -2.61,-2.61 c -0.91,-0.91 -1.95,-1.66 -3.1,-2.24 l -10.2,-5.1 5.62,10.53 c 0.38,0.71 0.45,1.54 0.21,2.3 l -8.55,27.18 c -0.97,3.15 0.79,6.49 3.94,7.46 0.57,0.18 1.17,0.27 1.76,0.27 2.2,0 4.33,-0.81 5.97,-2.28 l 9.95,-8.9 c 0.25,-0.22 0.53,-0.4 0.84,-0.53 1.52,-0.63 3.27,0.09 3.9,1.61 l 17.21,41.31 c 0.52,1.24 0.82,2.56 0.9,3.89 l 3,51.42 c 0,1.65 1.34,2.98 2.98,2.98 1.64,0 2.98,-1.34 2.98,-2.98 l 3,-45.15 c 0.21,-3.14 2.81,-5.57 5.95,-5.57 h 11.94 c 0.26,0 0.51,-0.03 0.76,-0.1 l 21.62,-5.68 c 1.46,-0.38 3,-0.19 4.33,0.53 l 17.74,9.57 c 2.02,1.01 3.3,3.08 3.3,5.34 v 41.07 c 0,1.65 1.34,2.98 2.98,2.98 1.47,0 2.72,-1.07 2.95,-2.53 l 5.93,-38.33 c 0.13,-0.82 0.08,-1.65 -0.13,-2.46 l -4.86,-13.8 c -0.59,-1.68 -1.56,-3.21 -2.82,-4.47 l -1.07,-1.07 c -0.58,-0.58 -0.58,-1.53 0,-2.11 l 2.11,-2.11 c 0.58,-0.58 1.53,-0.58 2.11,0 l 2.03,2.03 c 1.26,1.26 2.22,2.79 2.82,4.47 l 5.86,16.62 v -14.9 l 32.37,4.55 -3.32,23.64 53.19,7.47 1.66,-11.82 c 2.75,-19.58 20.86,-33.23 40.44,-30.47 19.58,2.76 33.23,20.86 30.47,40.44 l -1.66,11.82 11.82,1.66 6.64,-47.28 c 0.92,-6.53 -3.63,-12.56 -10.16,-13.48 l -106.37,-14.95 4.98,-35.46 c 0.69,-4.9 -2.72,-9.42 -7.62,-10.11 -4.13,-0.58 -8.11,1.76 -9.6,5.65 l -18.89,11.81 c -0.41,0.26 -0.76,0.62 -1,1.04 l -103.51,3.68 -20.44,-8.7 m 101,54.49 v -12.89 c 0,-8.79 -6.39,-16.29 -15.07,-17.68 l -38.13,-6.11 c -0.34,-0.05 -0.67,-0.12 -1.01,-0.21 l -23.37,-5.84 100.53,-3.75 c 0.82,1.43 2.65,1.92 4.08,1.09 0.03,-0.02 0.06,-0.04 0.09,-0.05 l 14.39,-8.99 -2.49,17.73 -11.82,-1.66 c -3.26,-0.46 -6.28,1.82 -6.74,5.08 l -4.15,29.55 c -0.46,3.26 1.82,6.28 5.08,6.74 3.26,0.46 6.28,-1.82 6.74,-5.08 l 3.32,-23.64 5.91,0.83 -4.15,29.55 -33.2,-4.67 m 63.37,-84.06 12.22,2.38 -0.57,2.93 -11.72,-2.28 v 0 c -0.94,4.85 -5.64,8.02 -10.5,7.08 -4.85,-0.94 -8.02,-5.64 -7.08,-10.5 l -11.72,-2.28 0.57,-2.93 12.22,2.38 c 1.37,-2.33 3.72,-3.92 6.4,-4.31 4.89,-0.73 9.44,2.65 10.17,7.53 m 85.82,118.91 c 0,-16.48 -13.36,-29.84 -29.84,-29.84 -16.48,0 -29.84,13.36 -29.84,29.84 0,16.48 13.36,29.84 29.84,29.84 16.48,0 29.84,-13.36 29.84,-29.84 m -11.93,0 c 0,-9.89 -8.02,-17.9 -17.9,-17.9 -9.88,0 -17.9,8.02 -17.9,17.9 0,9.88 8.02,17.9 17.9,17.9 9.88,0 17.9,-8.02 17.9,-17.9 z"
         id="path4" />
    </g>
    <g
       id="LWPOLYLINE">
      <path
         class="cls-3"
         d="m 1005.29,216.22 12.22,2.38 -0.57,2.93 -11.72,-2.28 v 0 c -0.94,4.85 -5.64,8.02 -10.5,7.08 -4.86,-0.94 -8.02,-5.64 -7.08,-10.5 l -11.72,-2.28 0.57,-2.93 12.22,2.38 c 1.37,-2.33 3.72,-3.92 6.4,-4.31 4.89,-0.73 9.44,2.65 10.17,7.53 z"
         id="path5" />
    </g>
    <g
       id="LWPOLYLINE-2"
       data-name="LWPOLYLINE">
      <path
         class="cls-3"
         d="m 941.91,300.28 v -12.89 c 0,-8.79 -6.39,-16.29 -15.07,-17.68 l -38.13,-6.11 c -0.34,-0.05 -0.67,-0.12 -1.01,-0.21 l -23.37,-5.84 100.53,-3.75 c 0.82,1.43 2.65,1.92 4.08,1.09 0.03,-0.02 0.06,-0.04 0.09,-0.05 l 14.39,-8.99 -2.49,17.73 -11.82,-1.66 c -3.26,-0.46 -6.28,1.82 -6.74,5.08 l -4.15,29.55 c -0.46,3.26 1.82,6.28 5.08,6.74 3.26,0.46 6.28,-1.82 6.74,-5.08 l 3.32,-23.64 5.91,0.83 -4.15,29.55 -33.2,-4.67 z"
         id="path6" />
    </g>
    <g
       id="LWPOLYLINE-3"
       data-name="LWPOLYLINE">
      <path
         class="cls-3"
         d="m 840.9,245.8 c -0.3,-0.13 -0.6,-0.24 -0.9,-0.34 l -14.77,-4.92 c -1.76,-0.59 -3.36,-1.57 -4.67,-2.88 l -2.61,-2.61 c -0.91,-0.91 -1.95,-1.66 -3.1,-2.24 l -10.2,-5.1 5.62,10.53 c 0.38,0.71 0.45,1.54 0.21,2.3 l -8.55,27.18 c -0.97,3.15 0.79,6.49 3.94,7.46 0.57,0.18 1.17,0.27 1.76,0.27 2.2,0 4.33,-0.81 5.97,-2.28 l 9.95,-8.9 c 0.25,-0.22 0.53,-0.4 0.84,-0.53 1.52,-0.63 3.27,0.09 3.9,1.61 l 17.21,41.31 c 0.52,1.24 0.82,2.56 0.9,3.89 l 3,51.42 c 0,1.65 1.34,2.98 2.98,2.98 1.64,0 2.98,-1.34 2.98,-2.98 l 3,-45.15 c 0.21,-3.14 2.81,-5.57 5.95,-5.57 h 11.94 c 0.26,0 0.51,-0.03 0.76,-0.1 l 21.62,-5.68 c 1.46,-0.38 3,-0.19 4.33,0.53 l 17.74,9.57 c 2.02,1.01 3.3,3.08 3.3,5.34 v 41.07 c 0,1.65 1.34,2.98 2.98,2.98 1.47,0 2.72,-1.07 2.95,-2.53 l 5.93,-38.33 c 0.13,-0.82 0.08,-1.65 -0.13,-2.46 l -4.86,-13.8 c -0.59,-1.68 -1.56,-3.21 -2.82,-4.47 l -1.07,-1.07 c -0.58,-0.58 -0.58,-1.53 0,-2.11 l 2.11,-2.11 c 0.58,-0.58 1.53,-0.58 2.11,0 l 2.03,2.03 c 1.26,1.26 2.22,2.79 2.82,4.47 l 5.86,16.62 v -14.9 l 32.37,4.55 -3.32,23.64 53.19,7.47 1.66,-11.82 c 2.75,-19.58 20.86,-33.23 40.44,-30.47 19.58,2.76 33.23,20.86 30.47,40.44 l -1.66,11.82 11.82,1.66 6.64,-47.28 c 0.92,-6.53 -3.63,-12.56 -10.16,-13.48 l -106.37,-14.95 4.98,-35.46 c 0.69,-4.9 -2.72,-9.42 -7.62,-10.11 -4.13,-0.58 -8.11,1.76 -9.6,5.65 l -18.89,11.81 c -0.41,0.26 -0.76,0.62 -1,1.04 l -103.51,3.68 -20.44,-8.7 z"
         id="path7" />
    </g>
    <g
       id="HATCH-3"
       data-name="HATCH">
      <path
         class="cls-6"
         d="m 721.9,554.58 h 475.82 c 16.17,0 29.28,-13.11 29.28,-29.28 V 49.48 C 1227,33.31 1213.89,20.2 1197.72,20.2 H 721.9 c -16.17,0 -29.28,13.11 -29.28,29.28 V 525.3 c 0,16.17 13.11,29.28 29.28,29.28 m 0,7.32 h 475.82 c 20.21,0 36.6,-16.39 36.6,-36.6 V 49.48 c 0,-20.21 -16.39,-36.6 -36.6,-36.6 H 721.9 c -20.21,0 -36.6,16.39 -36.6,36.6 V 525.3 c 0,20.21 16.39,36.6 36.6,36.6 z"
         id="path8" />
    </g>
    <g
       id="LWPOLYLINE-4"
       data-name="LWPOLYLINE">
      <rect
         class="cls-3"
         x="685.29999"
         y="12.87"
         width="549.03003"
         height="549.03003"
         rx="36.599998"
         ry="36.599998"
         id="rect8" />
    </g>
    <g
       id="LWPOLYLINE-5"
       data-name="LWPOLYLINE">
      <rect
         class="cls-3"
         x="692.62"
         y="20.190001"
         width="534.39001"
         height="534.39001"
         rx="29.280001"
         ry="29.280001"
         id="rect9" />
    </g>
  </g>
  <g
     id="sr_x5F_Circunferencia_roja"
     transform="translate(-684.79999,-12.37)">
    <g
       id="LWPOLYLINE-6"
       data-name="LWPOLYLINE">
      <path
         class="cls-4"
         d="M 1110.9,406.12 841.08,136.3 c 69.68,-54.76 167.79,-54.76 237.47,0 83.44,65.58 97.93,186.38 32.35,269.82 z"
         id="path21" />
    </g>
    <g
       id="LWPOLYLINE-7"
       data-name="LWPOLYLINE">
      <path
         class="cls-4"
         d="M 1078.55,438.47 808.73,168.65 c -65.58,83.44 -51.09,204.25 32.35,269.82 69.68,54.76 167.79,54.76 237.47,0 z"
         id="path22" />
    </g>
    <g
       id="CIRCLE-3"
       data-name="CIRCLE">
      <circle
         class="cls-4"
         cx="959.81"
         cy="287.39001"
         r="237.91"
         id="circle22" />
    </g>
    <g
       id="HATCH-4"
       data-name="HATCH">
      <path
         class="cls-5"
         d="m 1197.73,287.39 c 0,-131.4 -106.52,-237.91 -237.91,-237.91 -131.39,0 -237.91,106.52 -237.91,237.91 0,131.39 106.52,237.91 237.91,237.91 131.39,0 237.91,-106.52 237.91,-237.91 M 1078.55,438.47 808.73,168.65 c -65.58,83.44 -51.09,204.25 32.35,269.82 69.68,54.76 167.79,54.76 237.47,0 M 1110.9,406.12 841.08,136.3 c 69.68,-54.76 167.79,-54.76 237.47,0 83.44,65.58 97.93,186.38 32.35,269.82 z"
         id="path23" />
    </g>
  </g>
</svg>
