<?xml version="1.0" encoding="UTF-8" standalone="no"?>
<svg
   version="1.1"
   viewBox="0 0 550.03003 550.03003"
   id="svg77"
   sodipodi:docname="SR-25_30x30.svg"
   width="550.03003"
   height="550.03003"
   inkscape:version="1.2.2 (b0a8486541, 2022-12-01)"
   xmlns:inkscape="http://www.inkscape.org/namespaces/inkscape"
   xmlns:sodipodi="http://sodipodi.sourceforge.net/DTD/sodipodi-0.dtd"
   xmlns="http://www.w3.org/2000/svg"
   xmlns:svg="http://www.w3.org/2000/svg">
  <sodipodi:namedview
     id="namedview79"
     pagecolor="#ffffff"
     bordercolor="#000000"
     borderopacity="0.25"
     inkscape:showpageshadow="2"
     inkscape:pageopacity="0.0"
     inkscape:pagecheckerboard="0"
     inkscape:deskcolor="#d1d1d1"
     showgrid="false"
     inkscape:zoom="0.7484375"
     inkscape:cx="275.24008"
     inkscape:cy="527.76618"
     inkscape:window-width="1920"
     inkscape:window-height="1014"
     inkscape:window-x="0"
     inkscape:window-y="29"
     inkscape:window-maximized="1"
     inkscape:current-layer="svg77" />
  <defs
     id="defs4">
    <style
       id="style2">
      .cls-1, .cls-2 {
        fill: #fff;
      }

      .cls-2, .cls-3 {
        stroke: #000;
      }

      .cls-2, .cls-3, .cls-4 {
        stroke-linecap: round;
        stroke-linejoin: round;
      }

      .cls-5 {
        fill: #bd2025;
      }

      .cls-5, .cls-6 {
        fill-rule: evenodd;
      }

      .cls-3, .cls-4 {
        fill: none;
      }

      .cls-4 {
        stroke: #bd2025;
      }
    </style>
  </defs>
  <!-- Generator: Adobe Illustrator 28.6.0, SVG Export Plug-In . SVG Version: 1.2.0 Build 709)  -->
  <g
     id="sr_x5F_Fondo_del_tablero"
     transform="translate(-684.79999,-12.37)">
    <g
       id="HATCH">
      <rect
         class="cls-1"
         x="692.62"
         y="20.190001"
         width="534.39001"
         height="534.39001"
         rx="29.280001"
         ry="29.280001"
         id="rect12" />
    </g>
  </g>
  <g
     id="sr_x5F_Pictograma_y_filete"
     transform="translate(-684.79999,-12.37)">
    <g
       id="HATCH-2"
       data-name="HATCH">
      <path
         class="cls-6"
         d="M 912.07,362.47 V 209.81 c 0,-26.37 21.37,-47.74 47.74,-47.74 26.37,0 47.74,21.37 47.74,47.74 v 220.8 h 35.81 v -220.8 c 0,-46.14 -37.41,-83.55 -83.55,-83.55 -46.14,0 -83.55,37.41 -83.55,83.55 v 152.66 c 0,0 -32.77,-37.97 -32.77,-37.97 l -27.72,27.72 78.39,78.39 78.39,-78.39 -27.72,-27.72 -32.77,37.97 z"
         id="path46" />
    </g>
    <g
       id="LWPOLYLINE">
      <path
         class="cls-3"
         d="M 912.07,362.47 V 209.81 c 0,-26.37 21.37,-47.74 47.74,-47.74 26.37,0 47.74,21.37 47.74,47.74 v 220.8 h 35.81 v -220.8 c 0,-46.14 -37.41,-83.55 -83.55,-83.55 -46.14,0 -83.55,37.41 -83.55,83.55 v 152.66 c 0,0 -32.77,-37.97 -32.77,-37.97 l -27.72,27.72 78.39,78.39 78.39,-78.39 -27.72,-27.72 -32.77,37.97 z"
         id="path49" />
    </g>
    <g
       id="HATCH-3"
       data-name="HATCH">
      <path
         class="cls-6"
         d="m 721.9,554.58 h 475.82 c 16.17,0 29.28,-13.11 29.28,-29.28 V 49.48 C 1227,33.31 1213.89,20.2 1197.72,20.2 H 721.9 c -16.17,0 -29.28,13.11 -29.28,29.28 V 525.3 c 0,16.17 13.11,29.28 29.28,29.28 m 0,7.32 h 475.82 c 20.21,0 36.6,-16.39 36.6,-36.6 V 49.48 c 0,-20.21 -16.39,-36.6 -36.6,-36.6 H 721.9 c -20.21,0 -36.6,16.39 -36.6,36.6 V 525.3 c 0,20.21 16.39,36.6 36.6,36.6 z"
         id="path52" />
    </g>
    <g
       id="LWPOLYLINE-2"
       data-name="LWPOLYLINE">
      <rect
         class="cls-3"
         x="685.29999"
         y="12.87"
         width="549.03003"
         height="549.03003"
         rx="36.599998"
         ry="36.599998"
         id="rect55" />
    </g>
    <g
       id="LWPOLYLINE-3"
       data-name="LWPOLYLINE">
      <rect
         class="cls-3"
         x="692.62"
         y="20.190001"
         width="534.39001"
         height="534.39001"
         rx="29.280001"
         ry="29.280001"
         id="rect58" />
    </g>
  </g>
  <g
     id="sr_x5F_Circunferencia_roja"
     transform="translate(-684.79999,-12.37)">
    <g
       id="LWPOLYLINE-4"
       data-name="LWPOLYLINE">
      <path
         class="cls-4"
         d="M 1110.9,406.12 841.08,136.3 c 69.68,-54.76 167.79,-54.76 237.47,0 83.44,65.58 97.93,186.38 32.35,269.82 z"
         id="path62" />
    </g>
    <g
       id="LWPOLYLINE-5"
       data-name="LWPOLYLINE">
      <path
         class="cls-4"
         d="M 1078.55,438.47 808.73,168.65 c -65.58,83.44 -51.09,204.25 32.35,269.82 69.68,54.76 167.79,54.76 237.47,0 z"
         id="path65" />
    </g>
    <g
       id="CIRCLE">
      <circle
         class="cls-4"
         cx="959.81"
         cy="287.39001"
         r="237.91"
         id="circle68" />
    </g>
    <g
       id="HATCH-4"
       data-name="HATCH">
      <path
         class="cls-5"
         d="m 1197.73,287.39 c 0,-131.4 -106.52,-237.91 -237.91,-237.91 -131.39,0 -237.91,106.52 -237.91,237.91 0,131.4 106.52,237.91 237.91,237.91 131.4,0 237.91,-106.52 237.91,-237.91 M 1078.55,438.47 808.73,168.65 c -65.58,83.44 -51.09,204.25 32.35,269.82 69.68,54.76 167.79,54.76 237.47,0 M 1110.9,406.12 841.08,136.3 c 69.68,-54.76 167.79,-54.76 237.47,0 83.44,65.58 97.93,186.38 32.35,269.82 z"
         id="path71" />
    </g>
  </g>
</svg>
