<?xml version="1.0" encoding="UTF-8" standalone="no"?>
<!-- Created with Inkscape (http://www.inkscape.org/) -->

<svg
   xmlns:dc="http://purl.org/dc/elements/1.1/"
   xmlns:cc="http://creativecommons.org/ns#"
   xmlns:rdf="http://www.w3.org/1999/02/22-rdf-syntax-ns#"
   xmlns:svg="http://www.w3.org/2000/svg"
   xmlns="http://www.w3.org/2000/svg"
   xmlns:sodipodi="http://sodipodi.sourceforge.net/DTD/sodipodi-0.dtd"
   xmlns:inkscape="http://www.inkscape.org/namespaces/inkscape"
   width="615"
   height="615"
   viewBox="0 0 615 615"
   version="1.1"
   id="svg8"
   inkscape:version="0.92.4 (5da689c313, 2019-01-14)"
   sodipodi:docname="Mexico_road_sign_SR-20.svg">
  <defs
     id="defs2" />
  <sodipodi:namedview
     id="base"
     pagecolor="#ffffff"
     bordercolor="#666666"
     borderopacity="1.0"
     inkscape:pageopacity="0.0"
     inkscape:pageshadow="2"
     inkscape:zoom="0.25"
     inkscape:cx="2097.7362"
     inkscape:cy="972.05507"
     inkscape:document-units="mm"
     inkscape:current-layer="layer1"
     showgrid="false"
     inkscape:window-width="1920"
     inkscape:window-height="1057"
     inkscape:window-x="-8"
     inkscape:window-y="-8"
     inkscape:window-maximized="1" />
  <metadata
     id="metadata5">
    <rdf:RDF>
      <cc:Work
         rdf:about="">
        <dc:format>image/svg+xml</dc:format>
        <dc:type
           rdf:resource="http://purl.org/dc/dcmitype/StillImage" />
        <dc:title />
      </cc:Work>
    </rdf:RDF>
  </metadata>
  <g
     inkscape:label="Layer 1"
     inkscape:groupmode="layer"
     id="layer1"
     transform="translate(0,318)">
    <rect
       style="opacity:1;vector-effect:none;fill:#000000;fill-opacity:1;fill-rule:nonzero;stroke:none;stroke-width:5.3175683;stroke-linecap:square;stroke-linejoin:miter;stroke-miterlimit:7;stroke-dasharray:none;stroke-dashoffset:0;stroke-opacity:1"
       id="rect10"
       width="613"
       height="613"
       x="1"
       y="-317"
       rx="41.5"
       ry="41.5" />
    <rect
       ry="40"
       rx="40"
       y="-315.5"
       x="2.5"
       height="610"
       width="610"
       id="rect17"
       style="opacity:1;vector-effect:none;fill:#ffffff;fill-opacity:1;fill-rule:nonzero;stroke:none;stroke-width:5.29154444;stroke-linecap:square;stroke-linejoin:miter;stroke-miterlimit:7;stroke-dasharray:none;stroke-dashoffset:0;stroke-opacity:1" />
    <rect
       style="opacity:1;vector-effect:none;fill:#000000;fill-opacity:1;fill-rule:nonzero;stroke:none;stroke-width:5.11805105;stroke-linecap:square;stroke-linejoin:miter;stroke-miterlimit:7;stroke-dasharray:none;stroke-dashoffset:0;stroke-opacity:1"
       id="rect19"
       width="590"
       height="590"
       x="12.5"
       y="-305.5"
       rx="30"
       ry="30" />
    <rect
       style="opacity:1;vector-effect:none;fill:#ffffff;fill-opacity:1;fill-rule:nonzero;stroke:none;stroke-width:4.94455814;stroke-linecap:square;stroke-linejoin:miter;stroke-miterlimit:7;stroke-dasharray:none;stroke-dashoffset:0;stroke-opacity:1"
       id="rect21"
       width="570"
       height="570"
       x="22.5"
       y="-295.5"
       rx="20"
       ry="20" />
    <circle
       style="opacity:1;vector-effect:none;fill:#ff0000;fill-opacity:1;fill-rule:nonzero;stroke:none;stroke-width:5.84289932;stroke-linecap:square;stroke-linejoin:miter;stroke-miterlimit:7;stroke-dasharray:none;stroke-dashoffset:0;stroke-opacity:1"
       id="path41"
       cx="307.5"
       cy="-10.5"
       r="250" />
    <circle
       cy="-10.5"
       cx="307.5"
       id="circle43"
       style="opacity:1;vector-effect:none;fill:#ffffff;fill-opacity:1;fill-rule:nonzero;stroke:none;stroke-width:4.67431927;stroke-linecap:square;stroke-linejoin:miter;stroke-miterlimit:7;stroke-dasharray:none;stroke-dashoffset:0;stroke-opacity:1"
       r="200" />
    <path
       inkscape:connector-curvature="0"
       d="m 208.74582,42.289989 c 0,-15.10599 -12.25884,-27.37705 -27.38974,-27.37705 -15.10598,0 -27.33992,12.27106 -27.33992,27.37705 0,15.10599 12.22172,27.32771 27.33992,27.32771 15.1309,0 27.38974,-12.23394 27.38974,-27.32771 z"
       id="path7"
       style="fill:#000000;stroke-width:12.43286228;stroke:none" />
    <path
       inkscape:connector-curvature="0"
       d="m 426.35813,41.668309 c 0,-15.11821 -12.27106,-27.32724 -27.37705,-27.32724 -15.09377,0 -27.33992,12.20903 -27.33992,27.32724 0,15.10599 12.24615,27.37752 27.33992,27.37752 15.10599,0 27.37705,-12.27153 27.37705,-27.37752 z"
       id="path10"
       style="fill:#000000;stroke-width:12.43286228;stroke:none" />
    <path
       inkscape:connector-curvature="0"
       style="clip-rule:evenodd;fill:#000000;fill-rule:evenodd;stroke-width:12.43286228;stroke:none"
       d="m 275.03792,-94.645531 v 10.71709 114.12124 l 91.09549,1.04318 h 66.528 25.58719 L 477.68099,9.2299288 V -0.03281117 H 355.88858 c 0,-5.07261003 121.78019,-5.07261003 121.78019,-5.07261003 V -94.646931 Z M 217.7346,41.432419 h 57.30332 v -125.36086 h -45.00735 l -34.81186,56.32076 h -57.30285 v 14.29822 h -10.21993 v 54.72919 h 18.41317 71.6255 z m 8.20593,-69.57438 v -23.54781 l 8.18055,-21.45908 h 26.61909 v 45.00689 z m -5.12242,0.53569 h -14.33535 l 14.33535,-21.50843 z m -66.52846,70.05932 h 54.24471 z m 42.99287,0 h -31.74104 z m 173.97331,-1.01969 h 55.25173 z m 42.9802,0 h -30.72135 z"
       id="path13" />
    <path
       inkscape:connector-curvature="0"
       style="fill:#ffffff;stroke-width:12.43286228;stroke:none"
       d="m 196.8972,42.289989 c 0,-8.57856 -6.94987,-15.55333 -15.54112,-15.55333 -8.57855,0 -15.52842,6.97477 -15.52842,15.55333 0,8.55412 6.94987,15.5289 15.52842,15.5289 8.59125,0 15.54112,-6.97478 15.54112,-15.5289 z"
       id="path16" />
    <path
       inkscape:connector-curvature="0"
       style="fill:#ffffff;stroke-width:12.43286228;stroke:none"
       d="m 414.5222,41.668309 c 0,-8.55365 -6.96256,-15.52843 -15.54112,-15.52843 -8.56634,0 -15.504,6.97478 -15.504,15.52843 0,8.57903 6.93766,15.5289 15.504,15.5289 8.57856,0 15.54112,-6.94987 15.54112,-15.5289 z"
       id="path19" />
    <rect
       transform="rotate(-45)"
       style="opacity:1;vector-effect:none;fill:#ff0000;fill-opacity:1;fill-rule:nonzero;stroke:none;stroke-width:2.84623194;stroke-linecap:square;stroke-linejoin:miter;stroke-miterlimit:7;stroke-dasharray:none;stroke-dashoffset:0;stroke-opacity:1"
       id="rect855"
       width="50"
       height="480"
       x="199.85995"
       y="-29.989283" />
  </g>
</svg>
