<?xml version="1.0" encoding="UTF-8" standalone="no"?>
<!-- Created with Inkscape (http://www.inkscape.org/) -->

<svg
   xmlns:dc="http://purl.org/dc/elements/1.1/"
   xmlns:cc="http://creativecommons.org/ns#"
   xmlns:rdf="http://www.w3.org/1999/02/22-rdf-syntax-ns#"
   xmlns:svg="http://www.w3.org/2000/svg"
   xmlns="http://www.w3.org/2000/svg"
   xmlns:sodipodi="http://sodipodi.sourceforge.net/DTD/sodipodi-0.dtd"
   xmlns:inkscape="http://www.inkscape.org/namespaces/inkscape"
   width="615"
   height="615"
   viewBox="0 0 615 615"
   version="1.1"
   id="svg8"
   inkscape:version="0.92.4 (5da689c313, 2019-01-14)"
   sodipodi:docname="Mexico_road_sign_SR-20.svg">
  <defs
     id="defs2" />
  <sodipodi:namedview
     id="base"
     pagecolor="#ffffff"
     bordercolor="#666666"
     borderopacity="1.0"
     inkscape:pageopacity="0.0"
     inkscape:pageshadow="2"
     inkscape:zoom="0.25"
     inkscape:cx="1953.0463"
     inkscape:cy="1082.088"
     inkscape:document-units="mm"
     inkscape:current-layer="layer1"
     showgrid="false"
     inkscape:window-width="1920"
     inkscape:window-height="1057"
     inkscape:window-x="-8"
     inkscape:window-y="-8"
     inkscape:window-maximized="1" />
  <metadata
     id="metadata5">
    <rdf:RDF>
      <cc:Work
         rdf:about="">
        <dc:format>image/svg+xml</dc:format>
        <dc:type
           rdf:resource="http://purl.org/dc/dcmitype/StillImage" />
        <dc:title />
      </cc:Work>
    </rdf:RDF>
  </metadata>
  <g
     inkscape:label="Layer 1"
     inkscape:groupmode="layer"
     id="layer1"
     transform="translate(0,318)">
    <rect
       style="opacity:1;vector-effect:none;fill:#000000;fill-opacity:1;fill-rule:nonzero;stroke:none;stroke-width:5.3175683;stroke-linecap:square;stroke-linejoin:miter;stroke-miterlimit:7;stroke-dasharray:none;stroke-dashoffset:0;stroke-opacity:1"
       id="rect10"
       width="613"
       height="613"
       x="1"
       y="-317"
       rx="41.5"
       ry="41.5" />
    <rect
       ry="40"
       rx="40"
       y="-315.5"
       x="2.5"
       height="610"
       width="610"
       id="rect17"
       style="opacity:1;vector-effect:none;fill:#ffffff;fill-opacity:1;fill-rule:nonzero;stroke:none;stroke-width:5.29154444;stroke-linecap:square;stroke-linejoin:miter;stroke-miterlimit:7;stroke-dasharray:none;stroke-dashoffset:0;stroke-opacity:1" />
    <rect
       style="opacity:1;vector-effect:none;fill:#000000;fill-opacity:1;fill-rule:nonzero;stroke:none;stroke-width:5.11805105;stroke-linecap:square;stroke-linejoin:miter;stroke-miterlimit:7;stroke-dasharray:none;stroke-dashoffset:0;stroke-opacity:1"
       id="rect19"
       width="590"
       height="590"
       x="12.5"
       y="-305.5"
       rx="30"
       ry="30" />
    <rect
       style="opacity:1;vector-effect:none;fill:#ffffff;fill-opacity:1;fill-rule:nonzero;stroke:none;stroke-width:4.94455814;stroke-linecap:square;stroke-linejoin:miter;stroke-miterlimit:7;stroke-dasharray:none;stroke-dashoffset:0;stroke-opacity:1"
       id="rect21"
       width="570"
       height="570"
       x="22.5"
       y="-295.5"
       rx="20"
       ry="20" />
    <circle
       style="opacity:1;vector-effect:none;fill:#ff0000;fill-opacity:1;fill-rule:nonzero;stroke:none;stroke-width:5.84289932;stroke-linecap:square;stroke-linejoin:miter;stroke-miterlimit:7;stroke-dasharray:none;stroke-dashoffset:0;stroke-opacity:1"
       id="path41"
       cx="307.5"
       cy="-10.5"
       r="250" />
    <circle
       cy="-10.5"
       cx="307.5"
       id="circle43"
       style="opacity:1;vector-effect:none;fill:#ffffff;fill-opacity:1;fill-rule:nonzero;stroke:none;stroke-width:4.67431927;stroke-linecap:square;stroke-linejoin:miter;stroke-miterlimit:7;stroke-dasharray:none;stroke-dashoffset:0;stroke-opacity:1"
       r="200" />
    <path
       inkscape:connector-curvature="0"
       style="stroke:none;stroke-width:0;stroke-linecap:round;stroke-linejoin:round;stroke-miterlimit:10;fill:#000000"
       d="m 291.62337,-143.51948 c 0,-12.69397 -10.28196,-22.97593 -22.97593,-22.97593 -12.69397,0 -22.97593,10.28196 -22.97593,22.97593 0,12.66907 10.28196,22.9515 22.97593,22.9515 12.69397,0 22.97593,-10.28243 22.97593,-22.9515 z"
       id="path7" />
    <path
       inkscape:connector-curvature="0"
       style="stroke:none;stroke-width:0;stroke-linecap:round;stroke-linejoin:round;stroke-miterlimit:10;fill:#000000"
       d="m 453.835,44.938144 c 0,-31.41775 -25.47535,-56.89263 -56.8931,-56.89263 -31.42996,0 -56.90531,25.47488 -56.90531,56.89263 0,31.44265 25.47535,56.917526 56.90531,56.917526 31.41775,0.0127 56.8931,-25.462656 56.8931,-56.917526 z"
       id="path10" />
    <path
       inkscape:connector-curvature="0"
       style="fill:#ffffff;stroke:none;stroke-width:0;stroke-linecap:round;stroke-linejoin:round;stroke-miterlimit:10"
       d="m 443.15503,44.938144 c 0,-25.52469 -20.68844,-46.21313 -46.21313,-46.21313 -25.5369,0 -46.22535,20.68844 -46.22535,46.21313 0,25.52468 20.68845,46.23756 46.22535,46.23756 25.52469,0 46.21313,-20.71288 46.21313,-46.23756 z"
       id="path13" />
    <path
       inkscape:connector-curvature="0"
       style="stroke:none;stroke-width:0;stroke-linecap:round;stroke-linejoin:round;stroke-miterlimit:10;fill:#000000"
       d="m 268.46089,44.676874 c 0,-31.34303 -25.40064,-56.73098 -56.73145,-56.73098 -31.31813,0 -56.71829,25.37526 -56.71829,56.73098 0,31.33081 25.40016,56.706536 56.71829,56.706536 31.33081,-0.0127 56.73145,-25.387936 56.73145,-56.706536 z"
       id="path16" />
    <path
       inkscape:connector-curvature="0"
       style="fill:#ffffff;stroke:none;stroke-width:0;stroke-linecap:round;stroke-linejoin:round;stroke-miterlimit:10"
       d="m 257.81851,44.676874 c 0,-25.44997 -20.61372,-46.11351 -46.08907,-46.11351 -25.42507,0 -46.07592,20.66354 -46.07592,46.11351 0,25.47488 20.63863,46.0886 46.07592,46.0886 25.47535,0 46.08907,-20.61372 46.08907,-46.0886 z"
       id="path19" />
    <path
       inkscape:connector-curvature="0"
       style="stroke:none;stroke-width:0;stroke-linecap:round;stroke-linejoin:round;stroke-miterlimit:10;fill:#000000"
       d="m 204.63061,43.731894 13.763,4.46409 26.14637,-79.24688 h 63.905 l -32.37541,25.08909 43.73908,59.5161 21.95624,-17.99026 -26.97904,-35.99319997 37.38553,-28.55791003 h 11.32608 l 26.15906,77.48145 13.56423,-4.22914 -30.80875,-89.71538 h -7.385 c 1.14186,-4.762 -0.62028,-11.62494 -3.9049,-15.21782 l -58.03684,-74.833554 -64.66295,63.929904 H 213.0837 c -11.00279,3.25644 -17.28164,14.83251 -13.99936,25.8353 1.48019,6.22904 7.77079,12.4703 13.99936,13.99936 l 16.8841,0.32894 z"
       id="path25" />
    <path
       inkscape:connector-curvature="0"
       style="clip-rule:evenodd;fill-rule:evenodd;stroke-width:12.43286228;fill:#000000;stroke:none"
       d="m 238.41056,-71.545296 h -25.71124 v 39.92159 h 17.45597 l -7.36056,20.66354 13.78837,4.58625 8.24305,-24.77848 h 63.38246 l -32.13904,25.23852 44.07459,59.69043 20.2035,-17.45597 c 0.90692,-1.81383 -25.69855,-36.68912997 -25.69855,-36.68912997 l 37.6092,-28.48367003 h 11.0526 l 8.23083,22.95103 12.85562,-4.56277 -11.92333,-34.91148 h -7.3601 l -3.66995,-15.14358 -58.77036,-74.833074 z"
       id="path28" />
    <path
       inkscape:connector-curvature="0"
       style="clip-rule:evenodd;fill-rule:evenodd;stroke-width:12.43286228;fill:#000000;stroke:none"
       d="m 232.91504,3.760494 3.66994,-10.12031 -13.78837,-4.58626 -2.73484,10.10763003 z m 0,0 -12.85515,-4.61444997 -15.61584,44.53462997 13.76301,4.61446 z m 155.1377,-4.12574997 -3.66995,-10.10809003 -12.85562,4.56276 3.66995,10.10809 z m 0,0 -12.85562,4.56275997 14.72019,44.53464 13.76348,-4.58626 z"
       id="path35" />
    <path
       inkscape:connector-curvature="0"
       style="fill:#ffffff;stroke:none;stroke-width:0;stroke-linecap:round;stroke-linejoin:round;stroke-miterlimit:10"
       d="m 209.20559,-45.573256 h 2.47639 l 15.32966,-15.14311 H 215.101 c -5.49553,1.71514 -8.55413,7.54665 -6.82582,13.01726 0.14097,0.61088 0.62027,1.60237 0.93041,2.12397 z"
       id="path38" />
    <polygon
       transform="matrix(12.432863,0,0,12.432863,19.952902,-298.03502)"
       style="clip-rule:evenodd;fill:#ffffff;fill-rule:evenodd;stroke:none"
       points="17.941,20.21 21.189,16.963 23.774,20.21 "
       id="polygon41" />
    <rect
       transform="rotate(-45)"
       style="opacity:1;vector-effect:none;fill:#ff0000;fill-opacity:1;fill-rule:nonzero;stroke:none;stroke-width:2.84623194;stroke-linecap:square;stroke-linejoin:miter;stroke-miterlimit:7;stroke-dasharray:none;stroke-dashoffset:0;stroke-opacity:1"
       id="rect867"
       width="50"
       height="480"
       x="199.85995"
       y="-29.989283" />
  </g>
</svg>
