<?xml version="1.0" encoding="UTF-8" standalone="no"?>
<svg
   version="1.1"
   viewBox="0 0 550.10999 550.10999"
   id="svg85"
   sodipodi:docname="SR-24A_30x30.svg"
   width="550.10999"
   height="550.10999"
   inkscape:version="1.2.2 (b0a8486541, 2022-12-01)"
   xmlns:inkscape="http://www.inkscape.org/namespaces/inkscape"
   xmlns:sodipodi="http://sodipodi.sourceforge.net/DTD/sodipodi-0.dtd"
   xmlns="http://www.w3.org/2000/svg"
   xmlns:svg="http://www.w3.org/2000/svg">
  <sodipodi:namedview
     id="namedview87"
     pagecolor="#ffffff"
     bordercolor="#000000"
     borderopacity="0.25"
     inkscape:showpageshadow="2"
     inkscape:pageopacity="0.0"
     inkscape:pagecheckerboard="0"
     inkscape:deskcolor="#d1d1d1"
     showgrid="false"
     inkscape:zoom="0.7484375"
     inkscape:cx="275.24008"
     inkscape:cy="527.76618"
     inkscape:window-width="1920"
     inkscape:window-height="1014"
     inkscape:window-x="0"
     inkscape:window-y="29"
     inkscape:window-maximized="1"
     inkscape:current-layer="svg85" />
  <defs
     id="defs4">
    <style
       id="style2">
      .cls-1, .cls-2 {
        fill: #fff;
      }

      .cls-2, .cls-3 {
        stroke: #000;
      }

      .cls-2, .cls-3, .cls-4 {
        stroke-linecap: round;
        stroke-linejoin: round;
      }

      .cls-5 {
        fill: #bd2025;
      }

      .cls-5, .cls-6 {
        fill-rule: evenodd;
      }

      .cls-3, .cls-4 {
        fill: none;
      }

      .cls-4 {
        stroke: #bd2025;
      }
    </style>
  </defs>
  <!-- Generator: Adobe Illustrator 28.6.0, SVG Export Plug-In . SVG Version: 1.2.0 Build 709)  -->
  <g
     id="sr_x5F_Fondo_del_tablero"
     transform="translate(-685.15002,-12.24)">
    <g
       id="HATCH">
      <rect
         class="cls-1"
         x="692.96997"
         y="20.059999"
         width="534.46997"
         height="534.46997"
         rx="29.290001"
         ry="29.290001"
         id="rect12" />
    </g>
  </g>
  <g
     id="sr_x5F_Pictograma_y_filete"
     transform="translate(-685.15002,-12.24)">
    <g
       id="HATCH-2"
       data-name="HATCH">
      <path
         class="cls-6"
         d="m 1031.83,169.7 c 48.94,32.23 67.25,95.21 43.22,148.65 l -43.22,96.12 v -58.22 c 0,0 21.44,-47.69 21.44,-47.69 16.66,-37.05 8.06,-80.58 -21.44,-108.51 V 169.7 M 907.94,442.48 952.7,397.72 906.49,351.51 V 132.12 h 47.75 v 310.37 h -46.3 M 888.58,169.7 c -55.06,36.26 -70.3,110.29 -34.04,165.35 1.34,2.03 2.74,4.02 4.2,5.97 l 7.16,9.55 c 6.97,9.3 10.74,20.61 10.74,32.23 v 16.43 l -13.14,-15.22 -13.72,13.72 38.8,38.8 38.8,-38.8 -13.72,-13.72 -13.14,15.22 V 382.8 c 0,-16.79 -5.45,-33.12 -15.52,-46.56 l -7.16,-9.55 C 848.73,287.87 853.35,233.4 888.58,200.04 v -30.35 m 125.34,-37.57 V 442.49 H 966.17 V 132.12 Z"
         id="path48" />
    </g>
    <g
       id="LWPOLYLINE">
      <rect
         class="cls-3"
         x="966.17999"
         y="132.12"
         width="47.75"
         height="310.37"
         id="rect51" />
    </g>
    <g
       id="LWPOLYLINE-2"
       data-name="LWPOLYLINE">
      <path
         class="cls-3"
         d="m 888.58,169.7 c -55.06,36.26 -70.3,110.29 -34.04,165.35 1.34,2.03 2.74,4.02 4.2,5.97 l 7.16,9.55 c 6.97,9.3 10.74,20.61 10.74,32.23 v 16.43 l -13.14,-15.22 -13.72,13.72 38.8,38.8 38.8,-38.8 -13.72,-13.72 -13.14,15.22 V 382.8 c 0,-16.79 -5.45,-33.12 -15.52,-46.56 l -7.16,-9.55 C 848.73,287.87 853.35,233.4 888.58,200.04 v -30.35 z"
         id="path54" />
    </g>
    <g
       id="LWPOLYLINE-3"
       data-name="LWPOLYLINE">
      <polyline
         class="cls-3"
         points="907.94 442.48 952.7 397.72 906.49 351.51 906.49 132.12 954.24 132.12 954.24 442.48 907.94 442.48"
         id="polyline57" />
    </g>
    <g
       id="LWPOLYLINE-4"
       data-name="LWPOLYLINE">
      <path
         class="cls-3"
         d="m 1031.83,169.7 c 48.94,32.23 67.25,95.21 43.22,148.65 l -43.22,96.12 v -58.22 c 0,0 21.44,-47.69 21.44,-47.69 16.66,-37.05 8.06,-80.58 -21.44,-108.51 z"
         id="path60" />
    </g>
    <g
       id="HATCH-3"
       data-name="HATCH">
      <path
         class="cls-6"
         d="m 722.26,554.54 h 475.9 c 16.17,0 29.29,-13.11 29.29,-29.29 V 49.35 c 0,-16.17 -13.11,-29.29 -29.29,-29.29 h -475.9 c -16.17,0 -29.29,13.11 -29.29,29.29 v 475.9 c 0,16.17 13.11,29.29 29.29,29.29 m 0,7.32 h 475.9 c 20.22,0 36.61,-16.39 36.61,-36.61 V 49.35 c 0,-20.22 -16.39,-36.61 -36.61,-36.61 h -475.9 c -20.22,0 -36.61,16.39 -36.61,36.61 v 475.9 c 0,20.22 16.39,36.61 36.61,36.61 z"
         id="path63" />
    </g>
    <g
       id="LWPOLYLINE-5"
       data-name="LWPOLYLINE">
      <rect
         class="cls-3"
         x="685.65002"
         y="12.74"
         width="549.10999"
         height="549.10999"
         rx="36.610001"
         ry="36.610001"
         id="rect66" />
    </g>
    <g
       id="LWPOLYLINE-6"
       data-name="LWPOLYLINE">
      <rect
         class="cls-3"
         x="692.96997"
         y="20.059999"
         width="534.46997"
         height="534.46997"
         rx="29.290001"
         ry="29.290001"
         id="rect69" />
    </g>
  </g>
  <g
     id="sr_x5F_Circunferencia_roja"
     transform="translate(-685.15002,-12.24)">
    <g
       id="CIRCLE">
      <circle
         class="cls-4"
         cx="960.21002"
         cy="287.29999"
         r="237.95"
         id="circle73" />
    </g>
    <g
       id="CIRCLE-2"
       data-name="CIRCLE">
      <circle
         class="cls-4"
         cx="960.21002"
         cy="287.29999"
         r="192.19"
         id="circle76" />
    </g>
    <g
       id="HATCH-4"
       data-name="HATCH">
      <path
         class="cls-5"
         d="m 1152.4,287.3 c 0,-106.14 -86.05,-192.19 -192.19,-192.19 -106.14,0 -192.19,86.05 -192.19,192.19 0,106.14 86.05,192.19 192.19,192.19 106.14,0 192.19,-86.05 192.19,-192.19 m 45.76,0 c 0,-131.42 -106.53,-237.95 -237.95,-237.95 -131.42,0 -237.95,106.53 -237.95,237.95 0,131.42 106.53,237.95 237.95,237.95 131.42,0 237.95,-106.53 237.95,-237.95 z"
         id="path79" />
    </g>
  </g>
</svg>
