<?xml version="1.0" encoding="UTF-8" standalone="no"?>
<!-- Created with Inkscape (http://www.inkscape.org/) -->

<svg
   width="710mm"
   height="710mm"
   viewBox="0 0 710 710"
   version="1.1"
   id="svg104232"
   inkscape:version="1.2.1 (9c6d41e410, 2022-07-14)"
   sodipodi:docname="Mexico road sign SR-30A (2023).svg"
   xmlns:inkscape="http://www.inkscape.org/namespaces/inkscape"
   xmlns:sodipodi="http://sodipodi.sourceforge.net/DTD/sodipodi-0.dtd"
   xmlns="http://www.w3.org/2000/svg"
   xmlns:svg="http://www.w3.org/2000/svg">
  <sodipodi:namedview
     id="namedview104234"
     pagecolor="#ffffff"
     bordercolor="#000000"
     borderopacity="0.25"
     inkscape:showpageshadow="2"
     inkscape:pageopacity="0.0"
     inkscape:pagecheckerboard="0"
     inkscape:deskcolor="#d1d1d1"
     inkscape:document-units="mm"
     showgrid="false"
     inkscape:zoom="0.76257015"
     inkscape:cx="1183.4977"
     inkscape:cy="1218.9043"
     inkscape:window-width="1920"
     inkscape:window-height="991"
     inkscape:window-x="-9"
     inkscape:window-y="-9"
     inkscape:window-maximized="1"
     inkscape:current-layer="layer1" />
  <defs
     id="defs104229" />
  <g
     inkscape:label="Livello 1"
     inkscape:groupmode="layer"
     id="layer1"
     transform="translate(207.88782,239.11444)">
    <g
       id="g6966"
       transform="translate(2220.599,-17030.216)">
      <rect
         style="fill:#000000;stroke-width:3.68415;stroke-opacity:0.578462;paint-order:fill markers stroke"
         id="rect20798-3-9"
         width="710"
         height="710"
         x="-2428.4868"
         y="16791.102"
         ry="40"
         rx="40" />
      <rect
         style="fill:#ffffff;stroke-width:3.58037;stroke-opacity:0.578462;paint-order:fill markers stroke"
         id="rect20798-4-77-8"
         width="690"
         height="690"
         x="-2418.4866"
         y="16801.102"
         ry="30"
         rx="30" />
      <g
         id="g25102-4-6"
         transform="rotate(90,-7924.5585,8866.5438)">
        <circle
           style="fill:#be0018;stroke-width:6.548;stroke-opacity:0.578462;paint-order:fill markers stroke"
           id="path23624-04-6"
           cx="3015.4722"
           cy="-355"
           r="310"
           transform="rotate(90)" />
        <circle
           style="fill:#ffffff;stroke-width:5.28036;stroke-opacity:0.578462;paint-order:fill markers stroke"
           id="path23624-1-93-1"
           cx="355.00046"
           cy="3015.4727"
           r="250" />
      </g>
      <path
         id="path7791-1-1-1-3-9"
         style="color:#000000;fill:#000000;stroke-width:15.1853;stroke-linecap:round;stroke-linejoin:bevel;paint-order:fill markers stroke"
         d="m -2100.7298,16999.846 h -16.8724 c -8.399,0 -15.7379,2.053 -21.2975,6.242 -5.5592,4.207 -8.9031,9.91 -11.3856,15.715 l -0.2137,0.505 -14.5872,41.34 c -0.7151,1.177 -1.166,2.456 -1.3208,3.785 l -8.8666,25.137 c -5.6903,-1.346 -11.5145,-2.019 -17.3584,-2.019 -42.1923,0 -76.3977,34.206 -76.4001,76.387 0,42.198 34.2046,76.403 76.4001,76.403 42.1926,0 76.3945,-34.205 76.3924,-76.403 -0.017,-28.788 -16.2419,-55.137 -41.9583,-68.126 l 4.6451,-13.191 79.0135,82.512 c 5.3998,5.905 8.4318,8.378 13.5932,9.842 5.163,1.346 11.019,1.515 12.8839,1.346 h 20.4802 c 6.1184,36.848 37.987,63.869 75.3418,63.869 42.1926,0 76.3945,-34.189 76.3925,-76.37 0,-42.214 -34.2031,-76.403 -76.3925,-76.403 -8.1424,0 -16.2303,1.177 -23.9579,3.903 l -21.6342,-35.198 v -0.169 c -1.442,-2.271 -2.5938,-4.189 -3.7129,-5.821 l 7.6443,-20.174 h 17.6315 c 5.0111,0 9.0708,-4.055 9.0717,-9.085 0.01,-5.031 -4.0512,-9.103 -9.0717,-9.103 h -61.2785 c -5.0202,0 -9.0828,4.072 -9.0702,9.103 0,5.03 4.0596,9.085 9.0702,9.085 h 24.2082 l -4.2442,11.223 h -1.9862 -119.4579 l 5.5335,-15.681 c 1.8132,-4.207 3.5777,-6.714 5.5395,-8.211 1.997,-1.514 4.6771,-2.608 10.3504,-2.608 h 16.8798 c 5.02,0 9.0973,-4.055 9.1021,-9.086 0,-5.014 -4.0794,-9.069 -9.1021,-9.052 z m -44.7056,62.775 h 120.9325 l -35.6977,94.239 c -0.3029,-0.337 -0.6074,-0.505 -0.9271,-1.01 h -0.1514 l -85.502,-89.241 z m 135.7791,12.081 16.942,27.543 c -20.6378,12.871 -33.9032,34.828 -35.7202,59.09 h -14.0538 z m -182.9735,34.054 c 3.7796,0 7.5485,0.337 11.2539,1.01 l -19.1864,54.396 c -1.6791,4.744 0.8093,9.927 5.547,11.609 4.7354,1.75 9.9328,-0.841 11.5986,-5.569 l 19.1075,-54.161 c 18.4518,10.264 29.898,29.714 29.9137,50.846 0,32.17 -26.0727,58.233 -58.2343,58.233 -32.1612,0 -58.2332,-26.063 -58.2338,-58.233 0,-32.169 26.0727,-58.232 58.2338,-58.232 z m 240.3922,0 c 32.1613,0 58.2333,26.062 58.2339,58.232 0,32.17 -26.0728,58.233 -58.2339,58.233 -27.3097,0 -50.9329,-19.013 -56.8143,-45.698 h 64.2685 c 2.3051,0 4.9596,0.673 9.0475,-2.877 2.0456,-1.783 3.4014,-5.165 3.4379,-7.47 0,-2.339 -0.5468,-3.786 -1.0011,-4.88 -1.8646,-4.408 -3.8813,-6.393 -6.3473,-10.448 l -26.6971,-43.443 c 4.6135,-1.178 9.352,-1.75 14.1099,-1.767 z m -30.9567,8.968 26.9066,43.746 h -53.8941 c 1.7532,-17.936 11.719,-34.055 26.9875,-43.645 z"
         inkscape:transform-center-x="-313.77957"
         inkscape:transform-center-y="-714.47563"
         sodipodi:nodetypes="ccscccccccccccccccccccccccccccccccccccscccccccccccccccccccccccccccccccccccccccccccc" />
      <path
         style="fill:#beff18;stroke:#be0018;stroke-width:60;paint-order:fill markers stroke"
         d="m -2278.4868,16941.102 410,410"
         id="path25886-6-8"
         sodipodi:nodetypes="cc" />
    </g>
  </g>
</svg>
