<?xml version="1.0" encoding="UTF-8" standalone="no"?>
<svg
   viewBox="0 0 550.03003 550.03006"
   version="1.1"
   id="svg25"
   sodipodi:docname="SR-38_30x30.svg"
   width="550.03003"
   height="550.03003"
   inkscape:version="1.5-dev (9bf5e73, 2025-04-11, custom)"
   xmlns:inkscape="http://www.inkscape.org/namespaces/inkscape"
   xmlns:sodipodi="http://sodipodi.sourceforge.net/DTD/sodipodi-0.dtd"
   xmlns="http://www.w3.org/2000/svg"
   xmlns:svg="http://www.w3.org/2000/svg">
  <sodipodi:namedview
     id="namedview25"
     pagecolor="#ffffff"
     bordercolor="#000000"
     borderopacity="0.25"
     inkscape:showpageshadow="2"
     inkscape:pageopacity="0.0"
     inkscape:pagecheckerboard="0"
     inkscape:deskcolor="#d1d1d1"
     showgrid="false"
     inkscape:zoom="0.70204951"
     inkscape:cx="275.62159"
     inkscape:cy="532.72596"
     inkscape:window-width="1920"
     inkscape:window-height="1032"
     inkscape:window-maximized="1"
     inkscape:current-layer="svg25" />
  <defs
     id="defs1">
    <style
       id="style1">
      .cls-1, .cls-2 {
        fill: #fff;
      }

      .cls-2, .cls-3 {
        stroke: #000;
      }

      .cls-2, .cls-3, .cls-4 {
        stroke-linecap: round;
        stroke-linejoin: round;
      }

      .cls-5 {
        fill: #bd2025;
      }

      .cls-5, .cls-6 {
        fill-rule: evenodd;
      }

      .cls-3, .cls-4 {
        fill: none;
      }

      .cls-4 {
        stroke: #bd2025;
      }
    </style>
  </defs>
  <g
     id="sr_Fondo_del_tablero"
     data-name="sr_Fondo del tablero"
     transform="translate(-142.86,-14.02)">
    <g
       id="HATCH">
      <rect
         class="cls-1"
         x="150.69"
         y="21.84"
         width="534.39001"
         height="534.39001"
         rx="29.280001"
         ry="29.280001"
         id="rect3" />
    </g>
  </g>
  <g
     id="sr_Pictograma_y_filete"
     data-name="sr_Pictograma y filete"
     transform="translate(-142.86,-14.02)">
    <g
       id="g5">
      <g
         id="MTEXT">
        <g
           id="g4">
          <path
             d="m 429.99,356.59 c 1.24,0.98 2.58,1.64 4.03,1.98 1.45,0.34 3.18,0.5 5.2,0.5 2.53,0 4.54,-0.97 6.01,-2.91 1.47,-1.94 2.21,-4.41 2.21,-7.41 0,-2.58 -0.69,-4.69 -2.05,-6.32 -1.37,-1.63 -3.32,-2.44 -5.85,-2.44 -1.29,0 -2.53,0.09 -3.72,0.27 -1.19,0.18 -2.51,0.69 -3.96,1.51 l -7.21,-3.72 3.8,-25.9 h 27.45 v 9.15 h -18.84 l -2.48,11.86 c 1.81,-1.24 4.6,-1.86 8.38,-1.86 2.58,0 5.07,0.54 7.44,1.63 2.38,1.09 4.34,2.87 5.89,5.35 1.55,2.48 2.33,5.71 2.33,9.69 0,3 -0.59,6 -1.78,9 -1.19,3 -3.27,5.54 -6.24,7.64 -2.97,2.1 -6.97,3.14 -11.98,3.14 -2.74,0 -5.29,-0.35 -7.64,-1.05 -2.35,-0.7 -4.3,-1.77 -5.85,-3.22 l 4.89,-6.9 z"
             id="path3" />
          <path
             d="m 469.38,317.74 c 3,-4.76 7.65,-7.13 13.96,-7.13 6.31,0 10.96,2.36 13.96,7.09 3,4.73 4.5,11.98 4.5,21.75 0,9.77 -1.47,16.87 -4.42,21.44 -2.95,4.58 -7.63,6.86 -14.04,6.86 -6.41,0 -11.09,-2.29 -14.04,-6.86 -2.95,-4.58 -4.42,-11.72 -4.42,-21.44 0,-9.72 1.5,-16.96 4.5,-21.71 z m 8.5,36.72 c 1.21,3.08 3.06,4.61 5.54,4.61 2.48,0 4.33,-1.54 5.54,-4.61 1.21,-3.08 1.82,-8.08 1.82,-15 0,-6.92 -0.58,-12.21 -1.75,-15.39 -1.16,-3.18 -3.04,-4.77 -5.62,-4.77 -2.58,0 -4.46,1.59 -5.62,4.77 -1.16,3.18 -1.74,8.31 -1.74,15.39 0,7.08 0.61,11.93 1.82,15 z"
             id="path4" />
        </g>
      </g>
      <g
         id="MTEXT-2"
         data-name="MTEXT">
        <path
           d="m 344.95,323.3 c 3.15,-4.6 7.34,-8.12 12.56,-10.55 5.22,-2.43 10.88,-3.64 16.98,-3.64 6.1,0 12.07,1.24 17.29,3.72 5.22,2.48 9.36,6.02 12.41,10.62 3.05,4.6 4.58,10.06 4.58,16.36 0,5.69 -1.01,10.62 -3.02,14.81 -2.01,4.19 -4.83,7.47 -8.45,9.85 9.51,5.48 14.27,14.68 14.27,27.61 0,7.86 -1.91,14.17 -5.74,18.92 -3.83,4.76 -8.53,8.09 -14.11,10 -5.58,1.91 -11.38,2.87 -17.37,2.87 -9.93,0 -18.69,-2.48 -26.29,-7.44 -7.6,-4.96 -11.4,-13.29 -11.4,-24.97 0,-13.23 4.91,-22.43 14.73,-27.61 -3.52,-2.38 -6.26,-5.61 -8.22,-9.69 -1.96,-4.08 -2.95,-8.87 -2.95,-14.35 0,-6.41 1.57,-11.92 4.73,-16.52 z m 42.19,53.74 c -2.84,-2.89 -7.27,-4.34 -13.26,-4.34 -5.99,0 -9.85,1.5 -12.48,4.5 -2.64,3 -3.96,7.81 -3.96,14.42 0,4.34 1.45,8.07 4.34,11.17 2.89,3.1 7.08,4.65 12.56,4.65 5.48,0 9.82,-1.55 12.72,-4.65 2.89,-3.1 4.34,-6.88 4.34,-11.32 0,-6.72 -1.42,-11.53 -4.27,-14.42 z m -24.35,-23.65 c 2.64,2.74 6.69,4.11 12.17,4.11 5.06,0 8.79,-1.4 11.17,-4.19 2.38,-2.79 3.57,-7.34 3.57,-13.65 0,-4.13 -1.32,-7.73 -3.95,-10.78 -2.64,-3.05 -6.39,-4.58 -11.24,-4.58 -4.85,0 -8.94,1.58 -11.63,4.73 -2.69,3.15 -4.03,6.85 -4.03,11.09 0,6.1 1.32,10.52 3.96,13.26 z"
           id="path5" />
      </g>
    </g>
    <g
       id="HATCH-2"
       data-name="HATCH">
      <path
         class="cls-6"
         d="m 350.51,206.4 c 0,-2.85 -2.31,-5.16 -5.16,-5.16 h -30.99 c -2.14,0 -4.05,1.31 -4.82,3.31 l -10.67,27.68 -30.99,5.16 c -2.81,0 -5.1,2.24 -5.16,5.04 v 20.78 c 0,2.85 2.31,5.16 5.16,5.16 0.18,0 0.35,0 0.53,-0.03 2.46,-12.01 13.04,-20.63 25.3,-20.63 14.26,0 25.82,11.56 25.82,25.82 h 30.99 v -67.14 m -34.87,30.83 c -0.42,0.11 -0.86,0.16 -1.29,0.16 -2.85,0 -5.16,-2.31 -5.16,-5.16 l 5.41,-17.05 c 0.68,-2.15 2.67,-3.6 4.92,-3.6 h 15.49 c 2.85,0 5.16,2.31 5.16,5.16 v 10.33 c 0,2.37 -1.61,4.44 -3.91,5.01 l -20.62,5.15 m -6.45,36.32 c 0,-8.56 -6.94,-15.49 -15.49,-15.49 -8.55,0 -15.49,6.94 -15.49,15.49 0,8.55 6.94,15.49 15.49,15.49 8.55,0 15.49,-6.94 15.49,-15.49 m 191.08,0 c 0,-8.56 -6.94,-15.49 -15.49,-15.49 -8.55,0 -15.49,6.94 -15.49,15.49 0,8.55 6.94,15.49 15.49,15.49 8.55,0 15.49,-6.94 15.49,-15.49 M 531.26,170.25 H 360.84 c -2.85,0 -5.16,2.31 -5.16,5.16 v 98.12 c 0,0 103.29,0 103.29,0 0,-14.26 11.56,-25.82 25.82,-25.82 14.26,0 25.82,11.56 25.82,25.82 h 10.33 c 0,0 0,-15.49 0,-15.49 h 10.33 v -87.79 m -11.94,190.39 23.87,17.9 c 0,-11.94 0,-23.87 0,-35.81 l -23.87,17.9 m -202.9,0.01 -23.87,17.9 c 0,-11.94 0,-23.87 0,-35.81 l 23.87,17.9 z"
         id="path6" />
    </g>
    <g
       id="LWPOLYLINE">
      <path
         class="cls-3"
         d="M 531.26,170.25 H 360.84 c -2.85,0 -5.16,2.31 -5.16,5.16 v 98.12 c 0,0 103.29,0 103.29,0 0,-14.26 11.56,-25.82 25.82,-25.82 14.26,0 25.82,11.56 25.82,25.82 h 10.33 c 0,0 0,-15.49 0,-15.49 h 10.33 v -87.79 z"
         id="path7" />
    </g>
    <g
       id="LWPOLYLINE-2"
       data-name="LWPOLYLINE">
      <circle
         class="cls-3"
         cx="484.79001"
         cy="273.54001"
         r="15.49"
         id="circle7" />
    </g>
    <g
       id="LWPOLYLINE-3"
       data-name="LWPOLYLINE">
      <circle
         class="cls-3"
         cx="293.70001"
         cy="273.54001"
         r="15.49"
         id="circle8" />
    </g>
    <g
       id="LWPOLYLINE-4"
       data-name="LWPOLYLINE">
      <path
         class="cls-3"
         d="m 315.65,237.22 c -0.42,0.11 -0.86,0.16 -1.29,0.16 -2.85,0 -5.16,-2.31 -5.16,-5.16 l 5.41,-17.05 c 0.68,-2.15 2.67,-3.6 4.92,-3.6 h 15.49 c 2.85,0 5.16,2.31 5.16,5.16 v 10.33 c 0,2.37 -1.61,4.44 -3.91,5.01 z"
         id="path8" />
    </g>
    <g
       id="LWPOLYLINE-5"
       data-name="LWPOLYLINE">
      <path
         class="cls-3"
         d="m 350.51,206.4 c 0,-2.85 -2.31,-5.16 -5.16,-5.16 h -30.99 c -2.14,0 -4.05,1.31 -4.82,3.31 l -10.67,27.68 -30.99,5.16 c -2.81,0 -5.1,2.24 -5.16,5.04 v 20.78 c 0,2.85 2.31,5.16 5.16,5.16 0.18,0 0.35,0 0.53,-0.03 2.46,-12.01 13.04,-20.63 25.3,-20.63 14.26,0 25.82,11.56 25.82,25.82 h 30.99 v -67.14 z"
         id="path9" />
    </g>
    <g
       id="LWPOLYLINE-6"
       data-name="LWPOLYLINE">
      <path
         class="cls-3"
         d="m 316.43,360.64 -23.87,17.9 c 0,-11.94 0,-23.87 0,-35.81 l 23.87,17.9 z"
         id="path10" />
    </g>
    <g
       id="LWPOLYLINE-7"
       data-name="LWPOLYLINE">
      <path
         class="cls-3"
         d="m 519.33,360.64 23.87,17.9 c 0,-11.94 0,-23.87 0,-35.81 l -23.87,17.9 z"
         id="path11" />
    </g>
    <g
       id="HATCH-3"
       data-name="HATCH">
      <path
         class="cls-6"
         d="m 179.97,556.22 h 475.82 c 16.17,0 29.28,-13.11 29.28,-29.28 V 51.12 c 0,-16.17 -13.11,-29.28 -29.28,-29.28 H 179.97 c -16.17,0 -29.28,13.11 -29.28,29.28 v 475.82 c 0,16.17 13.11,29.28 29.28,29.28 m 0,7.32 h 475.82 c 20.21,0 36.6,-16.39 36.6,-36.6 V 51.12 c 0,-20.21 -16.39,-36.6 -36.6,-36.6 H 179.97 c -20.21,0 -36.6,16.39 -36.6,36.6 v 475.82 c 0,20.21 16.39,36.6 36.6,36.6 z"
         id="path12" />
    </g>
    <g
       id="LWPOLYLINE-8"
       data-name="LWPOLYLINE">
      <rect
         class="cls-3"
         x="143.36"
         y="14.52"
         width="549.03003"
         height="549.03003"
         rx="36.599998"
         ry="36.599998"
         id="rect12" />
    </g>
    <g
       id="LWPOLYLINE-9"
       data-name="LWPOLYLINE">
      <rect
         class="cls-3"
         x="150.69"
         y="21.84"
         width="534.39001"
         height="534.39001"
         rx="29.280001"
         ry="29.280001"
         id="rect13" />
    </g>
  </g>
  <g
     id="sr_Circunferencia_roja"
     data-name="sr_Circunferencia roja"
     transform="translate(-142.86,-14.02)">
    <g
       id="CIRCLE">
      <circle
         class="cls-4"
         cx="417.88"
         cy="289.03"
         r="237.91"
         id="circle24" />
    </g>
    <g
       id="CIRCLE-2"
       data-name="CIRCLE">
      <circle
         class="cls-4"
         cx="417.88"
         cy="289.03"
         r="192.16"
         id="circle25" />
    </g>
    <g
       id="HATCH-4"
       data-name="HATCH">
      <path
         class="cls-5"
         d="m 610.04,289.03 c 0,-106.13 -86.03,-192.16 -192.16,-192.16 -106.13,0 -192.16,86.03 -192.16,192.16 0,106.13 86.03,192.16 192.16,192.16 106.13,0 192.16,-86.03 192.16,-192.16 m 45.75,0 c 0,-131.4 -106.52,-237.91 -237.91,-237.91 -131.39,0 -237.91,106.52 -237.91,237.91 0,131.4 106.52,237.91 237.91,237.91 131.39,0 237.91,-106.52 237.91,-237.91 z"
         id="path25" />
    </g>
  </g>
</svg>
