<?xml version="1.0" encoding="UTF-8" standalone="no"?>
<!-- Created with Inkscape (http://www.inkscape.org/) -->

<svg
   width="710mm"
   height="710mm"
   viewBox="0 0 710 710"
   version="1.1"
   id="svg35970"
   inkscape:version="1.2.1 (9c6d41e410, 2022-07-14)"
   sodipodi:docname="Mexico road sign SR-35B (2023).svg"
   xmlns:inkscape="http://www.inkscape.org/namespaces/inkscape"
   xmlns:sodipodi="http://sodipodi.sourceforge.net/DTD/sodipodi-0.dtd"
   xmlns="http://www.w3.org/2000/svg"
   xmlns:svg="http://www.w3.org/2000/svg">
  <sodipodi:namedview
     id="namedview35972"
     pagecolor="#ffffff"
     bordercolor="#000000"
     borderopacity="0.25"
     inkscape:showpageshadow="2"
     inkscape:pageopacity="0.0"
     inkscape:pagecheckerboard="0"
     inkscape:deskcolor="#d1d1d1"
     inkscape:document-units="mm"
     showgrid="false"
     inkscape:zoom="0.76257015"
     inkscape:cx="1208.4134"
     inkscape:cy="1217.5929"
     inkscape:window-width="1920"
     inkscape:window-height="991"
     inkscape:window-x="-9"
     inkscape:window-y="-9"
     inkscape:window-maximized="1"
     inkscape:current-layer="layer1" />
  <defs
     id="defs35967" />
  <g
     inkscape:label="Livello 1"
     inkscape:groupmode="layer"
     id="layer1"
     transform="translate(214.48019,239.46145)">
    <g
       id="g21772"
       transform="translate(-2085.4725,-26502.647)">
      <rect
         style="fill:#000000;stroke-width:3.68415;stroke-opacity:0.578462;paint-order:fill markers stroke"
         id="rect20798-0-9-0-53"
         width="710"
         height="710"
         x="1870.9923"
         y="26263.186"
         ry="40"
         rx="40" />
      <rect
         style="fill:#ffffff;stroke-width:3.58037;stroke-opacity:0.578462;paint-order:fill markers stroke"
         id="rect20798-4-8-3-466"
         width="690"
         height="690"
         x="1880.9928"
         y="26273.186"
         ry="30"
         rx="30" />
      <g
         id="g25102-4-2-3-32"
         transform="rotate(90,-10510.861,15752.325)">
        <circle
           style="fill:#be0018;stroke-width:6.548;stroke-opacity:0.578462;paint-order:fill markers stroke"
           id="path23624-0-6-2-2"
           cx="3015.4722"
           cy="-355"
           r="310"
           transform="rotate(90)" />
        <circle
           style="fill:#ffffff;stroke-width:5.28036;stroke-opacity:0.578462;paint-order:fill markers stroke"
           id="path23624-1-4-2-8"
           cx="355.00046"
           cy="3015.4727"
           r="250" />
      </g>
      <path
         id="path11397-7-6-3-8-2-1-5-59-2-0-7-8-2-1-2-9-8-52-6-7-4-5-3-2-4"
         style="fill:#000200;stroke-width:11.6198;stroke-linejoin:bevel;paint-order:fill markers stroke"
         d="m 2126.4511,26424.194 -62.7404,62.726 22.2769,22.26 24.6914,-28.486 v 125.72 c 0,22.075 5.9747,44.217 19.4233,61.716 5.4278,7.049 12.2085,13.224 20.103,18.07 l 29.9594,-21.082 c -11.0947,-2.289 -18.9034,-8.026 -25.1524,-16.153 -8.2226,-10.684 -12.9202,-26.298 -12.9202,-42.551 l 0.01,-125.905 24.9706,28.671 22.1372,-22.26 z m 162.8064,280.615 -28.7884,11.525 c 18.3482,12.333 30.0469,32.406 30.0469,57.813 v 24.615 h 31.4148 v -24.615 c 0,-28.52 -13.3914,-51.806 -32.6733,-69.338 z"
         sodipodi:nodetypes="ccccssccssccccccsccsc" />
      <path
         id="path11397-7-6-3-8-2-1-5-59-2-0-7-8-2-1-2-9-8-52-6-7-4-5-3-2-1-1"
         style="fill:#000200;stroke-width:11.6201;stroke-linejoin:bevel;paint-order:fill markers stroke"
         d="m 2323.1372,26424.16 62.742,62.743 -22.2768,22.26 -24.6931,-28.486 v 125.737 c 0,22.075 -5.9747,44.217 -19.4232,61.716 -13.4503,17.481 -52.593,37.773 -89.4424,37.773 -34.8825,0 -70.9815,22.411 -70.9815,68.244 v 24.615 h -31.4148 v -24.615 c 0,-86.096 61.3843,-99.657 104.5685,-99.22 17.559,0.168 54.1358,-15.261 62.3601,-25.962 8.2226,-10.684 12.9202,-26.298 12.9202,-42.551 l -0.01,-125.922 -24.9723,28.671 -22.1372,-22.26 z"
         sodipodi:nodetypes="cccccsssccsssccccc" />
      <path
         style="fill:#beff18;stroke:#be0018;stroke-width:60;paint-order:fill markers stroke"
         d="m 2020.9923,26413.186 410,410"
         id="path25886-3-6-42"
         sodipodi:nodetypes="cc" />
      <path
         id="rect12136-65-5"
         style="fill:#000200;stroke-width:48.1076;stroke-linejoin:round;stroke-opacity:0.630769;paint-order:fill markers stroke"
         d="m 2208.7124,26425.355 v 96.679 c 0,0 2.6332,18.508 16.0851,18.508 13.452,0 16.0851,-18.508 16.0851,-18.508 v -96.679 z" />
      <path
         id="rect12136-6-1-2"
         style="fill:#000200;stroke-width:48.1076;stroke-linejoin:round;stroke-opacity:0.630769;paint-order:fill markers stroke"
         d="m 2224.7975,26717.899 c -13.4519,0 -16.0851,18.508 -16.0851,18.508 v 62.355 h 32.1702 v -62.355 c 0,0 -2.6331,-18.508 -16.0851,-18.508 z"
         sodipodi:nodetypes="sccccs" />
    </g>
  </g>
</svg>
