<?xml version="1.0" encoding="UTF-8" standalone="no"?>
<svg
   viewBox="0 0 550.03003 550.03006"
   version="1.1"
   id="svg34"
   sodipodi:docname="SR-36_30x30.svg"
   width="550.03003"
   height="550.03003"
   inkscape:version="1.4.2 (f4327f4, 2025-05-13)"
   xmlns:inkscape="http://www.inkscape.org/namespaces/inkscape"
   xmlns:sodipodi="http://sodipodi.sourceforge.net/DTD/sodipodi-0.dtd"
   xmlns="http://www.w3.org/2000/svg"
   xmlns:svg="http://www.w3.org/2000/svg">
  <sodipodi:namedview
     id="namedview34"
     pagecolor="#50505000"
     bordercolor="#ffffffff"
     borderopacity="1"
     inkscape:showpageshadow="0"
     inkscape:pageopacity="0"
     inkscape:pagecheckerboard="1"
     inkscape:deskcolor="#505050ff"
     inkscape:zoom="0.45249285"
     inkscape:cx="274.03748"
     inkscape:cy="533.71009"
     inkscape:window-width="1366"
     inkscape:window-height="697"
     inkscape:window-x="-8"
     inkscape:window-y="-8"
     inkscape:window-maximized="1"
     inkscape:current-layer="svg34" />
  <defs
     id="defs1">
    <style
       id="style1">
      .cls-1, .cls-2 {
        fill: #fff;
      }

      .cls-2, .cls-3 {
        stroke: #000;
      }

      .cls-2, .cls-3, .cls-4 {
        stroke-linecap: round;
        stroke-linejoin: round;
      }

      .cls-5 {
        fill: #bd2025;
      }

      .cls-5, .cls-6 {
        fill-rule: evenodd;
      }

      .cls-3, .cls-4 {
        fill: none;
      }

      .cls-4 {
        stroke: #bd2025;
      }
    </style>
  </defs>
  <g
     id="sr_Fondo_del_tablero"
     data-name="sr_Fondo del tablero"
     transform="translate(-142.86,-14.02)">
    <g
       id="HATCH">
      <rect
         class="cls-1"
         x="150.69"
         y="21.84"
         width="534.39001"
         height="534.39001"
         rx="29.280001"
         ry="29.280001"
         id="rect3" />
    </g>
  </g>
  <g
     id="sr_Pictograma_y_filete"
     data-name="sr_Pictograma y filete"
     transform="translate(-142.86,-14.02)">
    <g
       id="MTEXT">
      <g
         id="g5">
        <path
           d="m 376.34,346.88 c -0.1,24.81 -14.06,31.02 -30.19,31.02 -16.13,0 -30.09,-6 -30.09,-31.02 v -43.84 l 16.13,-0.1 0.1,43.01 c 0,12.2 4.45,17.89 14.06,17.89 10.13,0 13.96,-5.58 14.06,-18.09 l 0.21,-42.7 h 15.82 l -0.1,43.84 z"
           id="path3" />
        <path
           d="m 434.14,356.81 c 0,-4.96 -7.34,-7.24 -13.44,-9.2 l -5.69,-1.86 c -11.79,-3.83 -23.57,-7.13 -23.57,-21.82 0,-15.82 14.89,-22.23 29.67,-22.23 10.96,0 18.4,2.38 24.71,6.2 l -5.38,10.75 c -5.07,-2.58 -11.06,-4.03 -20.47,-4.03 -5.89,0 -14.06,1.45 -14.06,8.17 0,4.76 4.65,6.82 7.86,7.75 l 12.51,3.72 c 8.79,2.58 22.75,7.34 22.75,20.68 0,16.34 -13.86,23.16 -29.16,23.16 -10.96,0 -23.99,-3.52 -30.29,-8.38 l 5.38,-11.06 c 5.07,2.58 14.27,6.62 23.68,6.62 7.34,0 15.51,-0.62 15.51,-8.48 z"
           id="path4" />
        <path
           d="m 502.8,357.22 h -24.09 l -6.82,20.06 h -16.34 l 26.47,-74.24 h 17.89 l 26.16,74.24 h -16.85 l -6.41,-20.06 z m -12.31,-37.43 -8.27,26.05 h 16.96 l -6.41,-26.05 z"
           id="path5" />
      </g>
    </g>
    <g
       id="HATCH-2"
       data-name="HATCH">
      <path
         class="cls-6"
         d="m 484.47,213.92 h 27.95 v 11.64 h -27.95 v -11.64 m 62.88,2.33 v 4.66 h -20.96 v -9.32 h 16.3 c 2.57,0 4.66,2.09 4.66,4.66 m -97.81,0 v 4.66 c 0,0 20.96,0 20.96,0 v -9.32 h -16.3 c -2.57,0 -4.66,2.09 -4.66,4.66 m 100.14,25.62 v -4.66 H 447.21 v 4.66 h 102.47 m -86.15,-61.01 -2.35,23.75 h 74.52 l -2.35,-23.75 c -0.24,-2.38 -2.24,-4.2 -4.64,-4.2 h -60.55 c -2.39,0 -4.4,1.82 -4.64,4.2 m 69.85,84.3 h 6.99 c 2.57,0 4.66,-2.09 4.66,-4.66 v -13.97 h 4.66 c 2.57,0 4.66,-2.09 4.66,-4.66 v -27.95 c 0,-5.14 -4.17,-9.32 -9.32,-9.32 l -4.86,-25.47 c -1.05,-5.49 -5.85,-9.46 -11.44,-9.46 h -60.55 c -5.59,0 -10.39,3.97 -11.44,9.46 l -4.86,25.47 c -5.14,0 -9.32,4.17 -9.32,9.32 v 27.95 c 0,2.57 2.09,4.66 4.66,4.66 h 4.66 v 13.97 c 0,2.57 2.09,4.66 4.66,4.66 h 6.99 c 2.57,0 4.66,-2.09 4.66,-4.66 v -13.97 h 60.55 v 13.97 c 0,2.57 2.09,4.66 4.66,4.66 m -219.37,-43.32 -5.91,9.81 c -4.51,-1.19 -9.13,1.51 -10.31,6.02 -1.19,4.51 1.51,9.13 6.02,10.31 4.51,1.18 9.13,-1.51 10.31,-6.02 0.65,-2.46 0.15,-5.09 -1.36,-7.14 l 6.01,-9.97 c 6.64,5.68 8.74,15.05 5.17,23.03 -4.45,9.93 -16.11,14.37 -26.04,9.92 -9.93,-4.45 -14.37,-16.11 -9.92,-26.04 4.45,-9.93 16.11,-14.37 26.04,-9.92 m 0.99,-32.82 2.2,-2.68 c 3.65,0.72 6.4,3.74 6.77,7.44 0.46,4.64 -2.92,8.78 -7.56,9.24 l -1.4,-14 m -25.96,24.85 c 9.23,-6 20.95,-6.66 30.79,-1.72 l -2.92,4.84 c -12.61,-6.06 -27.75,-0.76 -33.81,11.85 -6.06,12.61 -0.76,27.75 11.85,33.81 12.61,6.06 27.75,0.76 33.81,-11.85 5.13,-10.67 2.19,-23.46 -7.08,-30.82 l 2.92,-4.86 c 7.74,5.85 12.29,14.99 12.29,24.7 0,0.78 0.63,1.41 1.41,1.41 0.78,0 1.41,-0.63 1.41,-1.41 0,-10.69 -5.06,-20.75 -13.64,-27.12 l 5.59,-9.28 5.24,2.62 9.19,27.05 c 1.94,5.71 7.3,9.55 13.33,9.55 h 19.86 c 1.55,13.91 14.09,23.92 27.99,22.36 13.91,-1.55 23.92,-14.09 22.36,-27.99 -1.56,-13.9 -14.09,-23.92 -27.99,-22.36 -3.99,0.45 -7.81,1.83 -11.16,4.05 l -3.56,-4.39 c 11.25,-7.73 26.23,-7.19 36.89,1.34 1.11,0.86 2.71,0.66 3.57,-0.45 0.86,-1.11 0.67,-2.65 -0.4,-3.53 -10.49,-10.16 -24.86,-15.29 -39.41,-14.07 l -16.89,5.63 h -3.02 c -6.22,-10.77 -19.99,-14.46 -30.76,-8.24 -0.08,0.05 -0.16,0.09 -0.24,0.14 l 6.99,-11.6 c 1,-1.58 2.66,-2.61 4.51,-2.81 h 11.26 c 1.55,0 2.81,-1.26 2.81,-2.81 0,-1.55 -1.26,-2.81 -2.81,-2.81 h -14.07 c -1.97,0 -3.8,1.03 -4.82,2.72 l -19.23,31.93 c -10.86,-5.54 -23.86,-4.8 -34.02,1.94 -0.51,0.62 -0.42,1.53 0.2,2.03 0.45,0.37 1.07,0.43 1.58,0.16 m 97.09,8.42 c -3.84,4.01 -6.26,9.18 -6.88,14.71 h -5.66 c 0.66,-7.22 3.83,-13.98 8.97,-19.1 l 3.57,4.4 m 10.34,20.33 c 1.55,4.4 6.38,6.7 10.78,5.15 4.4,-1.55 6.7,-6.38 5.15,-10.78 -1.55,-4.4 -6.38,-6.7 -10.78,-5.15 -0.12,0.04 -0.24,0.09 -0.35,0.13 l -7.24,-8.91 c 2.31,-1.44 4.9,-2.38 7.59,-2.77 10.77,-1.55 20.76,5.92 22.32,16.69 1.55,10.77 -5.92,20.76 -16.69,22.32 -10.77,1.55 -20.76,-5.92 -22.32,-16.69 h 11.54 m 0.57,-6.9 -7.33,-9.02 c -2.57,2.89 -4.24,6.47 -4.79,10.29 h 11.54 c 0.16,-0.44 0.35,-0.87 0.58,-1.28 m -80.66,47.34 h 202.9 c 9.89,0 17.9,8.02 17.9,17.9 v 95.48 c 0,9.89 -8.02,17.9 -17.9,17.9 h -202.9 c -9.89,0 -17.9,-8.02 -17.9,-17.9 v -95.48 c 0,-9.89 8.02,-17.9 17.9,-17.9 m 0,2.99 h 202.9 c 8.24,0 14.92,6.68 14.92,14.92 v 95.48 c 0,8.24 -6.68,14.92 -14.92,14.92 h -202.9 c -8.24,0 -14.92,-6.68 -14.92,-14.92 v -95.48 c 0,-8.24 6.68,-14.92 14.92,-14.92 z"
         id="path6" />
    </g>
    <g
       id="LWPOLYLINE">
      <rect
         class="cls-3"
         x="301.51001"
         y="286.04999"
         width="232.74001"
         height="125.32"
         rx="14.92"
         ry="14.92"
         id="rect6" />
    </g>
    <g
       id="LWPOLYLINE-2"
       data-name="LWPOLYLINE">
      <rect
         class="cls-3"
         x="298.51999"
         y="283.06"
         width="238.71001"
         height="131.28999"
         rx="17.9"
         ry="17.9"
         id="rect7" />
    </g>
    <g
       id="HATCH-3"
       data-name="HATCH">
      <rect
         x="316.42999"
         y="396.45001"
         width="23.870001"
         height="5.9699998"
         id="rect8" />
    </g>
    <g
       id="LWPOLYLINE-3"
       data-name="LWPOLYLINE">
      <rect
         class="cls-3"
         x="316.42999"
         y="396.45001"
         width="23.870001"
         height="5.9699998"
         id="rect9" />
    </g>
    <g
       id="LWPOLYLINE-4"
       data-name="LWPOLYLINE">
      <path
         class="cls-3"
         d="m 397.09,235.73 -7.33,-9.02 c -2.57,2.89 -4.24,6.47 -4.79,10.29 h 11.54 c 0.16,-0.44 0.35,-0.87 0.58,-1.28 z"
         id="path9" />
    </g>
    <g
       id="LWPOLYLINE-5"
       data-name="LWPOLYLINE">
      <path
         class="cls-3"
         d="m 396.52,242.64 c 1.55,4.4 6.38,6.7 10.78,5.15 4.4,-1.55 6.7,-6.38 5.15,-10.78 -1.55,-4.4 -6.38,-6.7 -10.78,-5.15 -0.12,0.04 -0.24,0.09 -0.35,0.13 l -7.24,-8.91 c 2.31,-1.44 4.9,-2.38 7.59,-2.77 10.77,-1.55 20.76,5.92 22.32,16.69 1.56,10.77 -5.92,20.76 -16.69,22.32 -10.77,1.55 -20.76,-5.92 -22.32,-16.69 h 11.54 z"
         id="path10" />
    </g>
    <g
       id="LWPOLYLINE-6"
       data-name="LWPOLYLINE">
      <path
         class="cls-3"
         d="m 386.18,222.3 c -3.84,4.01 -6.26,9.18 -6.88,14.71 h -5.66 c 0.66,-7.22 3.83,-13.98 8.97,-19.1 l 3.57,4.4 z"
         id="path11" />
    </g>
    <g
       id="LWPOLYLINE-7"
       data-name="LWPOLYLINE">
      <path
         class="cls-3"
         d="m 289.07,213.87 c 9.23,-6 20.95,-6.66 30.79,-1.72 l -2.92,4.84 c -12.61,-6.06 -27.75,-0.76 -33.81,11.85 -6.06,12.61 -0.76,27.75 11.85,33.81 12.61,6.06 27.75,0.76 33.81,-11.85 5.13,-10.67 2.19,-23.46 -7.08,-30.82 l 2.92,-4.86 c 7.74,5.85 12.29,14.99 12.29,24.7 0,0.78 0.63,1.41 1.41,1.41 0.78,0 1.41,-0.63 1.41,-1.41 0,-10.69 -5.06,-20.75 -13.64,-27.12 l 5.59,-9.28 5.24,2.62 9.19,27.05 c 1.94,5.71 7.3,9.55 13.33,9.55 h 19.86 c 1.55,13.91 14.09,23.92 27.99,22.36 13.91,-1.55 23.92,-14.09 22.36,-27.99 -1.56,-13.9 -14.09,-23.92 -27.99,-22.36 -3.99,0.45 -7.81,1.83 -11.16,4.05 l -3.56,-4.39 c 11.25,-7.73 26.23,-7.19 36.89,1.34 1.11,0.86 2.71,0.66 3.57,-0.45 0.86,-1.11 0.67,-2.65 -0.4,-3.53 -10.49,-10.16 -24.86,-15.29 -39.41,-14.07 l -16.89,5.63 h -3.02 c -6.22,-10.77 -19.99,-14.46 -30.76,-8.24 -0.08,0.05 -0.16,0.09 -0.24,0.14 l 6.99,-11.6 c 1,-1.58 2.66,-2.61 4.51,-2.81 h 11.26 c 1.55,0 2.81,-1.26 2.81,-2.81 0,-1.55 -1.26,-2.81 -2.81,-2.81 h -14.07 c -1.97,0 -3.8,1.03 -4.82,2.72 l -19.23,31.93 c -10.86,-5.54 -23.86,-4.8 -34.02,1.94 -0.51,0.62 -0.42,1.53 0.2,2.03 0.45,0.37 1.07,0.43 1.58,0.16 z"
         id="path12" />
    </g>
    <g
       id="LWPOLYLINE-8"
       data-name="LWPOLYLINE">
      <path
         class="cls-3"
         d="m 315.02,189.02 2.2,-2.68 c 3.65,0.72 6.4,3.74 6.77,7.44 0.46,4.64 -2.92,8.78 -7.56,9.24 l -1.4,-14 z"
         id="path13" />
    </g>
    <g
       id="LWPOLYLINE-9"
       data-name="LWPOLYLINE">
      <path
         class="cls-3"
         d="m 314.02,221.84 -5.91,9.81 c -4.51,-1.19 -9.13,1.51 -10.31,6.02 -1.18,4.51 1.51,9.13 6.02,10.31 4.51,1.18 9.13,-1.51 10.31,-6.02 0.65,-2.46 0.15,-5.09 -1.36,-7.14 l 6.01,-9.97 c 6.64,5.68 8.74,15.05 5.17,23.03 -4.45,9.93 -16.11,14.37 -26.04,9.92 -9.93,-4.45 -14.37,-16.11 -9.92,-26.04 4.45,-9.93 16.11,-14.37 26.04,-9.92 z"
         id="path14" />
    </g>
    <g
       id="LWPOLYLINE-10"
       data-name="LWPOLYLINE">
      <path
         class="cls-3"
         d="m 533.37,265.16 h 6.99 c 2.57,0 4.66,-2.09 4.66,-4.66 v -13.97 h 4.66 c 2.57,0 4.66,-2.09 4.66,-4.66 v -27.95 c 0,-5.14 -4.17,-9.32 -9.32,-9.32 l -4.86,-25.47 c -1.05,-5.49 -5.85,-9.46 -11.44,-9.46 h -60.55 c -5.59,0 -10.39,3.97 -11.44,9.46 l -4.86,25.47 c -5.14,0 -9.32,4.17 -9.32,9.32 v 27.95 c 0,2.57 2.09,4.66 4.66,4.66 h 4.66 v 13.97 c 0,2.57 2.09,4.66 4.66,4.66 h 6.99 c 2.57,0 4.66,-2.09 4.66,-4.66 v -13.97 h 60.55 v 13.97 c 0,2.57 2.09,4.66 4.66,4.66 z"
         id="path15" />
    </g>
    <g
       id="LWPOLYLINE-11"
       data-name="LWPOLYLINE">
      <path
         class="cls-3"
         d="m 463.53,180.86 -2.35,23.75 h 74.52 l -2.35,-23.75 c -0.24,-2.38 -2.24,-4.2 -4.64,-4.2 h -60.55 c -2.39,0 -4.4,1.82 -4.64,4.2 z"
         id="path16" />
    </g>
    <g
       id="LWPOLYLINE-12"
       data-name="LWPOLYLINE">
      <rect
         class="cls-3"
         x="447.20999"
         y="237.21001"
         width="102.47"
         height="4.6599998"
         id="rect16" />
    </g>
    <g
       id="LWPOLYLINE-13"
       data-name="LWPOLYLINE">
      <path
         class="cls-3"
         d="m 449.54,216.25 v 4.66 c 0,0 20.96,0 20.96,0 v -9.32 h -16.3 c -2.57,0 -4.66,2.09 -4.66,4.66 z"
         id="path17" />
    </g>
    <g
       id="LWPOLYLINE-14"
       data-name="LWPOLYLINE">
      <path
         class="cls-3"
         d="m 547.35,216.25 v 4.66 h -20.96 v -9.32 h 16.3 c 2.57,0 4.66,2.09 4.66,4.66 z"
         id="path18" />
    </g>
    <g
       id="LWPOLYLINE-15"
       data-name="LWPOLYLINE">
      <polyline
         class="cls-3"
         points="484.47 213.92 512.42 213.92 512.42 225.57 484.47 225.57 484.47 213.92"
         id="polyline18" />
    </g>
    <g
       id="HATCH-4"
       data-name="HATCH">
      <path
         class="cls-6"
         d="m 179.97,556.22 h 475.82 c 16.17,0 29.28,-13.11 29.28,-29.28 V 51.12 c 0,-16.17 -13.11,-29.28 -29.28,-29.28 H 179.97 c -16.17,0 -29.28,13.11 -29.28,29.28 v 475.82 c 0,16.17 13.11,29.28 29.28,29.28 m 0,7.32 h 475.82 c 20.21,0 36.6,-16.39 36.6,-36.6 V 51.12 c 0,-20.21 -16.39,-36.6 -36.6,-36.6 H 179.97 c -20.21,0 -36.6,16.39 -36.6,36.6 v 475.82 c 0,20.21 16.39,36.6 36.6,36.6 z"
         id="path19" />
    </g>
    <g
       id="LWPOLYLINE-16"
       data-name="LWPOLYLINE">
      <rect
         class="cls-3"
         x="143.36"
         y="14.52"
         width="549.03003"
         height="549.03003"
         rx="36.599998"
         ry="36.599998"
         id="rect19" />
    </g>
    <g
       id="LWPOLYLINE-17"
       data-name="LWPOLYLINE">
      <rect
         class="cls-3"
         x="150.69"
         y="21.84"
         width="534.39001"
         height="534.39001"
         rx="29.280001"
         ry="29.280001"
         id="rect20" />
    </g>
  </g>
  <g
     id="sr_Circunferencia_roja"
     data-name="sr_Circunferencia roja"
     transform="translate(-142.86,-14.02)">
    <g
       id="LWPOLYLINE-18"
       data-name="LWPOLYLINE">
      <path
         class="cls-4"
         d="M 568.97,407.76 299.14,137.94 c 69.68,-54.76 167.79,-54.76 237.47,0 83.44,65.58 97.93,186.38 32.35,269.82 z"
         id="path32" />
    </g>
    <g
       id="LWPOLYLINE-19"
       data-name="LWPOLYLINE">
      <path
         class="cls-4"
         d="M 536.61,440.12 266.79,170.29 c -65.58,83.44 -51.09,204.25 32.35,269.82 69.68,54.76 167.79,54.76 237.47,0 z"
         id="path33" />
    </g>
    <g
       id="CIRCLE">
      <circle
         class="cls-4"
         cx="417.88"
         cy="289.03"
         r="237.91"
         id="circle33" />
    </g>
    <g
       id="HATCH-5"
       data-name="HATCH">
      <path
         class="cls-5"
         d="m 655.79,289.03 c 0,-131.4 -106.52,-237.91 -237.91,-237.91 -131.4,0 -237.91,106.52 -237.91,237.91 0,131.39 106.52,237.91 237.91,237.91 131.39,0 237.91,-106.52 237.91,-237.91 M 536.61,440.12 266.79,170.29 c -65.58,83.44 -51.09,204.25 32.35,269.82 69.68,54.76 167.79,54.76 237.47,0 M 568.97,407.76 299.14,137.94 c 69.68,-54.76 167.79,-54.76 237.47,0 83.44,65.58 97.93,186.38 32.35,269.82 z"
         id="path34" />
    </g>
  </g>
</svg>
