<?xml version="1.0" encoding="UTF-8" standalone="no"?>
<svg
   viewBox="0 0 550.03003 550.03006"
   version="1.1"
   id="svg23"
   sodipodi:docname="SR-39_30x30.svg"
   width="550.03003"
   height="550.03003"
   inkscape:version="1.5-dev (9bf5e73, 2025-04-11, custom)"
   xmlns:inkscape="http://www.inkscape.org/namespaces/inkscape"
   xmlns:sodipodi="http://sodipodi.sourceforge.net/DTD/sodipodi-0.dtd"
   xmlns="http://www.w3.org/2000/svg"
   xmlns:svg="http://www.w3.org/2000/svg">
  <sodipodi:namedview
     id="namedview23"
     pagecolor="#ffffff"
     bordercolor="#000000"
     borderopacity="0.25"
     inkscape:showpageshadow="2"
     inkscape:pageopacity="0.0"
     inkscape:pagecheckerboard="0"
     inkscape:deskcolor="#d1d1d1"
     showgrid="false"
     inkscape:zoom="0.72490268"
     inkscape:cx="275.20935"
     inkscape:cy="533.17502"
     inkscape:window-width="1920"
     inkscape:window-height="1032"
     inkscape:window-maximized="1"
     inkscape:current-layer="svg23" />
  <defs
     id="defs1">
    <style
       id="style1">
      .cls-1, .cls-2 {
        fill: #fff;
      }

      .cls-2, .cls-3 {
        stroke: #000;
      }

      .cls-2, .cls-3, .cls-4 {
        stroke-linecap: round;
        stroke-linejoin: round;
      }

      .cls-5 {
        fill: #bd2025;
      }

      .cls-5, .cls-6 {
        fill-rule: evenodd;
      }

      .cls-3, .cls-4 {
        fill: none;
      }

      .cls-4 {
        stroke: #bd2025;
      }
    </style>
  </defs>
  <g
     id="sr_Fondo_del_tablero"
     data-name="sr_Fondo del tablero"
     transform="translate(-142.86,-14.02)">
    <g
       id="HATCH">
      <rect
         class="cls-1"
         x="150.69"
         y="21.84"
         width="534.39001"
         height="534.39001"
         rx="29.280001"
         ry="29.280001"
         id="rect3" />
    </g>
  </g>
  <g
     id="sr_Pictograma_y_filete"
     data-name="sr_Pictograma y filete"
     transform="translate(-142.86,-14.02)">
    <g
       id="CIRCLE">
      <circle
         class="cls-3"
         cx="459.64999"
         cy="390.48001"
         r="5.9699998"
         id="circle3" />
    </g>
    <g
       id="CIRCLE-2"
       data-name="CIRCLE">
      <circle
         class="cls-3"
         cx="520.28998"
         cy="269.44"
         r="10.25"
         id="circle4" />
    </g>
    <g
       id="HATCH-2"
       data-name="HATCH">
      <path
         class="cls-6"
         d="m 496.46,332.34 -21.23,51.64 -44.16,-18.15 2.27,-5.52 38.64,15.88 34.03,-82.79 5.52,2.27 -11.28,27.45 14.75,-15.11 c 0.49,-0.51 0.76,-1.19 0.73,-1.9 l -0.55,-13.17 c -0.23,-5.52 3.96,-10.23 9.46,-10.65 5.64,-0.43 10.57,3.8 11,9.44 l 2.59,34.09 7.69,64.06 c 0.71,2.83 -1.01,5.7 -3.84,6.41 -2.83,0.71 -5.7,-1.01 -6.41,-3.84 l -8.97,-53.81 c -0.18,-0.71 -0.91,-1.13 -1.61,-0.95 -0.47,0.12 -0.83,0.48 -0.95,0.95 l -11.78,20.99 c -0.4,0.62 -0.61,1.34 -0.61,2.07 v 29.41 c 0,2.95 -2.39,5.34 -5.34,5.34 -2.95,0 -5.34,-2.39 -5.34,-5.34 v -34.54 c 0,-0.72 0.2,-1.43 0.59,-2.04 l 16.07,-28.71 -1.23,-7.76 c -0.01,-0.09 -0.1,-0.15 -0.19,-0.14 -0.04,0 -0.07,0.02 -0.09,0.05 l -13.86,14.59 c -0.06,0.06 -0.12,0.11 -0.18,0.17 -1.69,1.47 -4.25,1.3 -5.72,-0.39 m 34.08,-62.9 c 0,-5.66 -4.59,-10.25 -10.25,-10.25 -5.66,0 -10.25,4.59 -10.25,10.25 0,5.66 4.59,10.25 10.25,10.25 5.66,0 10.25,-4.59 10.25,-10.25 m -64.92,121.04 c 0,-3.3 -2.67,-5.97 -5.97,-5.97 -3.3,0 -5.97,2.67 -5.97,5.97 0,3.3 2.67,5.97 5.97,5.97 3.3,0 5.97,-2.67 5.97,-5.97 m 30.34,-88.31 -27.6,-11.34 4.54,-11.04 27.6,11.34 -4.54,11.04 m -24.35,-3.56 22.08,9.08 -9.08,22.08 -22.08,-9.08 9.08,-22.08 m -2.88,69.79 6.81,-16.56 -33.12,-13.61 -6.81,16.56 33.12,13.61 m -13.99,-44.46 27.6,11.34 -4.54,11.04 -27.6,-11.34 4.54,-11.04 m -63.72,54.6 v 17.9 h 22.38 v -40.28 h -22.38 v 13.43 h -25.55 c -2.47,-5.66 -9.07,-8.25 -14.73,-5.78 -2.59,1.13 -4.65,3.19 -5.78,5.78 h -25.55 v -13.43 h -22.38 v 40.28 h 22.38 v -17.9 h 25.55 c 2.47,5.66 9.07,8.25 14.73,5.78 2.59,-1.13 4.65,-3.19 5.78,-5.78 h 25.55 m 26.86,-196.93 v 165.6 H 292.56 v -165.6 h 125.32 m -62.66,8.95 h 53.71 v 147.7 h -53.71 z"
         id="path4" />
    </g>
    <g
       id="LWPOLYLINE">
      <rect
         class="cls-3"
         x="355.22"
         y="190.56"
         width="53.709999"
         height="147.7"
         id="rect4" />
    </g>
    <g
       id="LWPOLYLINE-2"
       data-name="LWPOLYLINE">
      <polyline
         class="cls-3"
         points="417.88 181.61 417.88 347.21 292.56 347.21 292.56 181.61 417.88 181.61"
         id="polyline4" />
    </g>
    <g
       id="LWPOLYLINE-3"
       data-name="LWPOLYLINE">
      <path
         class="cls-3"
         d="m 391.02,378.54 v 17.9 h 22.38 v -40.28 h -22.38 v 13.43 h -25.55 c -2.47,-5.66 -9.07,-8.25 -14.73,-5.78 -2.59,1.13 -4.65,3.19 -5.78,5.78 h -25.55 v -13.43 h -22.38 v 40.28 h 22.38 v -17.9 h 25.55 c 2.47,5.66 9.07,8.25 14.73,5.78 2.59,-1.13 4.65,-3.19 5.78,-5.78 z"
         id="path5" />
    </g>
    <g
       id="LWPOLYLINE-4"
       data-name="LWPOLYLINE">
      <rect
         class="cls-3"
         x="460.31"
         y="320.20999"
         width="11.94"
         height="29.84"
         transform="rotate(-67.65,466.30583,335.13253)"
         id="rect5" />
    </g>
    <g
       id="LWPOLYLINE-5"
       data-name="LWPOLYLINE">
      <rect
         class="cls-3"
         x="446.62"
         y="335.41"
         width="17.9"
         height="35.810001"
         transform="rotate(-67.65,455.6031,353.31561)"
         id="rect6" />
    </g>
    <g
       id="LWPOLYLINE-6"
       data-name="LWPOLYLINE">
      <rect
         class="cls-3"
         x="466.17001"
         y="302.25"
         width="23.870001"
         height="23.870001"
         transform="rotate(-67.65,478.13361,314.18935)"
         id="rect7" />
    </g>
    <g
       id="LWPOLYLINE-7"
       data-name="LWPOLYLINE">
      <polyline
         class="cls-3"
         points="495.96 302.17 468.36 290.82 472.9 279.78 500.49 291.13 495.96 302.17"
         id="polyline7" />
    </g>
    <g
       id="LWPOLYLINE-8"
       data-name="LWPOLYLINE">
      <path
         class="cls-3"
         d="m 496.46,332.34 -21.23,51.64 -44.16,-18.15 2.27,-5.52 38.64,15.88 34.03,-82.79 5.52,2.27 -11.28,27.45 14.75,-15.11 c 0.49,-0.51 0.76,-1.19 0.73,-1.9 l -0.55,-13.17 c -0.23,-5.52 3.96,-10.23 9.46,-10.65 5.5,-0.42 10.57,3.8 11,9.44 l 2.59,34.09 7.69,64.06 c 0.71,2.83 -1.01,5.7 -3.84,6.41 -2.83,0.71 -5.7,-1.01 -6.41,-3.84 l -8.97,-53.81 c -0.18,-0.71 -0.91,-1.13 -1.61,-0.95 -0.47,0.12 -0.83,0.48 -0.95,0.95 l -11.78,20.99 c -0.4,0.62 -0.61,1.34 -0.61,2.07 v 29.41 c 0,2.95 -2.39,5.34 -5.34,5.34 -2.95,0 -5.34,-2.39 -5.34,-5.34 v -34.54 c 0,-0.72 0.2,-1.43 0.59,-2.04 l 16.07,-28.71 -1.23,-7.76 c -0.01,-0.09 -0.1,-0.15 -0.19,-0.14 -0.04,0 -0.07,0.02 -0.09,0.05 l -13.86,14.59 c -0.06,0.06 -0.12,0.11 -0.18,0.17 -1.69,1.47 -4.25,1.3 -5.72,-0.39 z"
         id="path7" />
    </g>
    <g
       id="HATCH-3"
       data-name="HATCH">
      <path
         class="cls-6"
         d="m 179.97,556.22 h 475.82 c 16.17,0 29.28,-13.11 29.28,-29.28 V 51.12 c 0,-16.17 -13.11,-29.28 -29.28,-29.28 H 179.97 c -16.17,0 -29.28,13.11 -29.28,29.28 v 475.82 c 0,16.17 13.11,29.28 29.28,29.28 m 0,7.32 h 475.82 c 20.21,0 36.6,-16.39 36.6,-36.6 V 51.12 c 0,-20.21 -16.39,-36.6 -36.6,-36.6 H 179.97 c -20.21,0 -36.6,16.39 -36.6,36.6 v 475.82 c 0,20.21 16.39,36.6 36.6,36.6 z"
         id="path8" />
    </g>
    <g
       id="LWPOLYLINE-9"
       data-name="LWPOLYLINE">
      <rect
         class="cls-3"
         x="143.36"
         y="14.52"
         width="549.03003"
         height="549.03003"
         rx="36.599998"
         ry="36.599998"
         id="rect8" />
    </g>
    <g
       id="LWPOLYLINE-10"
       data-name="LWPOLYLINE">
      <rect
         class="cls-3"
         x="150.69"
         y="21.84"
         width="534.39001"
         height="534.39001"
         rx="29.280001"
         ry="29.280001"
         id="rect9" />
    </g>
  </g>
  <g
     id="sr_Circunferencia_roja"
     data-name="sr_Circunferencia roja"
     transform="translate(-142.86,-14.02)">
    <g
       id="LWPOLYLINE-11"
       data-name="LWPOLYLINE">
      <path
         class="cls-4"
         d="M 568.97,407.76 299.14,137.94 c 69.68,-54.76 167.79,-54.76 237.47,0 83.44,65.58 97.93,186.38 32.35,269.82 z"
         id="path21" />
    </g>
    <g
       id="LWPOLYLINE-12"
       data-name="LWPOLYLINE">
      <path
         class="cls-4"
         d="M 536.61,440.12 266.79,170.29 c -65.58,83.44 -51.09,204.25 32.35,269.82 69.68,54.76 167.79,54.76 237.47,0 z"
         id="path22" />
    </g>
    <g
       id="CIRCLE-3"
       data-name="CIRCLE">
      <circle
         class="cls-4"
         cx="417.88"
         cy="289.03"
         r="237.91"
         id="circle22" />
    </g>
    <g
       id="HATCH-4"
       data-name="HATCH">
      <path
         class="cls-5"
         d="m 655.79,289.03 c 0,-131.4 -106.52,-237.91 -237.91,-237.91 -131.39,0 -237.91,106.52 -237.91,237.91 0,131.39 106.52,237.91 237.91,237.91 131.39,0 237.91,-106.52 237.91,-237.91 M 536.61,440.12 266.79,170.29 c -65.58,83.44 -51.09,204.25 32.35,269.82 69.68,54.76 167.79,54.76 237.47,0 M 568.97,407.76 299.14,137.94 c 69.68,-54.76 167.79,-54.76 237.47,0 83.44,65.58 97.93,186.38 32.35,269.82 z"
         id="path23" />
    </g>
  </g>
</svg>
