<?xml version="1.0" encoding="UTF-8" standalone="no"?>
<!-- Created with Inkscape (http://www.inkscape.org/) -->

<svg
   width="710mm"
   height="710mm"
   viewBox="0 0 710 710"
   version="1.1"
   id="svg31175"
   inkscape:version="1.2.1 (9c6d41e410, 2022-07-14)"
   sodipodi:docname="Mexico road sign SR-35A.svg"
   xmlns:inkscape="http://www.inkscape.org/namespaces/inkscape"
   xmlns:sodipodi="http://sodipodi.sourceforge.net/DTD/sodipodi-0.dtd"
   xmlns="http://www.w3.org/2000/svg"
   xmlns:svg="http://www.w3.org/2000/svg">
  <sodipodi:namedview
     id="namedview31177"
     pagecolor="#ffffff"
     bordercolor="#000000"
     borderopacity="0.25"
     inkscape:showpageshadow="2"
     inkscape:pageopacity="0.0"
     inkscape:pagecheckerboard="0"
     inkscape:deskcolor="#d1d1d1"
     inkscape:document-units="mm"
     showgrid="false"
     inkscape:zoom="0.76257015"
     inkscape:cx="1153.3365"
     inkscape:cy="1175.6296"
     inkscape:window-width="1920"
     inkscape:window-height="991"
     inkscape:window-x="-9"
     inkscape:window-y="-9"
     inkscape:window-maximized="1"
     inkscape:current-layer="layer1" />
  <defs
     id="defs31172" />
  <g
     inkscape:label="Livello 1"
     inkscape:groupmode="layer"
     id="layer1"
     transform="translate(199.90766,250.56445)">
    <g
       id="g21794"
       transform="translate(-3631.9416,-26990)">
      <rect
         style="fill:#000000;stroke-width:3.68415;stroke-opacity:0.578462;paint-order:fill markers stroke"
         id="rect20798-0-9-0-07"
         width="710"
         height="710"
         x="3432.0339"
         y="26739.436"
         ry="40"
         rx="40" />
      <rect
         style="fill:#ffffff;stroke-width:3.58037;stroke-opacity:0.578462;paint-order:fill markers stroke"
         id="rect20798-4-8-3-7"
         width="690"
         height="690"
         x="3442.0344"
         y="26749.436"
         ry="30"
         rx="30" />
      <g
         id="g25102-4-2-3-2"
         transform="rotate(90,-9968.465,16770.971)">
        <circle
           style="fill:#be0018;stroke-width:6.548;stroke-opacity:0.578462;paint-order:fill markers stroke"
           id="path23624-0-6-2-29"
           cx="3015.4722"
           cy="-355"
           r="310"
           transform="rotate(90)" />
        <circle
           style="fill:#ffffff;stroke-width:5.28036;stroke-opacity:0.578462;paint-order:fill markers stroke"
           id="path23624-1-4-2-0"
           cx="355.00046"
           cy="3015.4727"
           r="250" />
      </g>
      <path
         id="path11397-7-6-3-8-2-1-5-59-2-0-7-8-2-1-2-9-8-52-6-7-4-5-3-3"
         style="fill:#000200;stroke-width:11.6201;stroke-linejoin:bevel;paint-order:fill markers stroke"
         d="m 3716.6134,26892.776 -62.7421,62.742 22.2769,22.26 24.693,-28.486 -0.017,157.688 c 0,22.075 5.9747,44.218 19.4233,61.716 13.4485,17.482 35.2022,29.512 61.6198,29.512 34.8808,0 61.7763,24.716 61.7763,59.68 v 24.615 h 31.4147 v -24.615 c 0,-51.755 -42.6154,-91.093 -93.191,-91.093 -17.5591,0 -28.4872,-6.562 -36.7098,-17.263 -8.2226,-10.684 -12.9202,-26.298 -12.9202,-42.552 l 0.01,-157.873 24.9723,28.671 22.1372,-22.26 z"
         sodipodi:nodetypes="cccccsssccsssccccc" />
      <path
         id="rect12136-4"
         style="fill:#000200;stroke-width:48.1076;stroke-linejoin:round;stroke-opacity:0.630769;paint-order:fill markers stroke"
         d="m 3791.5606,26892.978 h 32.1703 v 144.53 c 0,0 -2.6332,18.508 -16.0852,18.508 -13.4519,0 -16.0851,-18.508 -16.0851,-18.508 z"
         sodipodi:nodetypes="ccczcc" />
      <path
         style="fill:#beff18;stroke:#be0018;stroke-width:60;paint-order:fill markers stroke"
         d="m 3582.034,26889.436 410,410"
         id="path25886-3-6-01"
         sodipodi:nodetypes="cc" />
      <path
         id="rect12136-6-5"
         style="fill:#000200;stroke-width:48.1076;stroke-linejoin:round;stroke-opacity:0.630769;paint-order:fill markers stroke"
         d="m 3807.6474,27218.281 c -13.4519,0 -16.0868,18.508 -16.0868,18.508 v 45.714 h 32.1703 v -45.714 c 0,0 -2.6332,-18.508 -16.0835,-18.508 z" />
    </g>
  </g>
</svg>
