<?xml version="1.0" encoding="UTF-8" standalone="no"?>
<!-- Created with Inkscape (http://www.inkscape.org/) -->

<svg
   width="710mm"
   height="710mm"
   viewBox="0 0 710 710"
   version="1.1"
   id="svg102200"
   inkscape:version="1.2.1 (9c6d41e410, 2022-07-14)"
   sodipodi:docname="Mexico road sign SR-30 (2023).svg"
   xmlns:inkscape="http://www.inkscape.org/namespaces/inkscape"
   xmlns:sodipodi="http://sodipodi.sourceforge.net/DTD/sodipodi-0.dtd"
   xmlns="http://www.w3.org/2000/svg"
   xmlns:svg="http://www.w3.org/2000/svg">
  <sodipodi:namedview
     id="namedview102202"
     pagecolor="#ffffff"
     bordercolor="#000000"
     borderopacity="0.25"
     inkscape:showpageshadow="2"
     inkscape:pageopacity="0.0"
     inkscape:pagecheckerboard="0"
     inkscape:deskcolor="#d1d1d1"
     inkscape:document-units="mm"
     showgrid="false"
     inkscape:zoom="0.76257015"
     inkscape:cx="1285.7834"
     inkscape:cy="1234.6405"
     inkscape:window-width="1920"
     inkscape:window-height="991"
     inkscape:window-x="-9"
     inkscape:window-y="-9"
     inkscape:window-maximized="1"
     inkscape:current-layer="layer1" />
  <defs
     id="defs102197" />
  <g
     inkscape:label="Livello 1"
     inkscape:groupmode="layer"
     id="layer1"
     transform="translate(234.95091,234.95146)">
    <g
       id="g6988"
       transform="translate(2345.6714,-16073.554)">
      <rect
         style="fill:#000000;stroke-width:3.68415;stroke-opacity:0.578462;paint-order:fill markers stroke"
         id="rect20798-3-2"
         width="710"
         height="710"
         x="-2580.6223"
         y="15838.603"
         ry="40"
         rx="40" />
      <rect
         style="fill:#ffffff;stroke-width:3.58037;stroke-opacity:0.578462;paint-order:fill markers stroke"
         id="rect20798-4-77-5"
         width="690"
         height="690"
         x="-2570.6221"
         y="15848.602"
         ry="30"
         rx="30" />
      <g
         id="g25102-4-0"
         transform="rotate(90,-7524.3762,8314.2261)">
        <circle
           style="fill:#be0018;stroke-width:6.548;stroke-opacity:0.578462;paint-order:fill markers stroke"
           id="path23624-04-1"
           cx="3015.4722"
           cy="-355"
           r="310"
           transform="rotate(90)" />
        <circle
           style="fill:#ffffff;stroke-width:5.28036;stroke-opacity:0.578462;paint-order:fill markers stroke"
           id="path23624-1-93-4"
           cx="355.00046"
           cy="3015.4727"
           r="250" />
      </g>
      <path
         id="path7791-1-1-1-3-4"
         style="color:#000000;fill:#000000;stroke-width:13.194;stroke-linecap:round;stroke-linejoin:bevel;paint-order:fill markers stroke"
         d="m -2248.9299,16144.193 h -14.6599 c -7.2976,0 -13.6741,1.784 -18.5046,5.418 -4.8302,3.651 -7.7356,8.615 -9.8926,13.662 l -0.1851,0.505 -12.6745,35.922 c -0.6208,1.01 -1.0128,2.12 -1.1474,3.281 l -7.704,21.839 c -4.9441,-1.178 -10.0045,-1.75 -15.0822,-1.75 -36.6594,0 -66.3794,29.714 -66.3814,66.359 0,36.679 29.7193,66.393 66.3814,66.393 36.6598,0 66.3767,-29.714 66.3749,-66.393 -0.015,-25.002 -14.112,-47.901 -36.4562,-59.191 l 4.0361,-11.458 68.6522,71.692 c 4.6915,5.132 7.326,7.286 11.8106,8.548 4.486,1.177 9.5741,1.346 11.1944,1.177 h 17.7946 c 5.3161,32.019 33.0056,55.49 65.4619,55.49 36.6598,0 66.3767,-29.696 66.3749,-66.359 0,-36.679 -29.7178,-66.375 -66.3749,-66.375 -7.0747,0 -14.1019,1.009 -20.8161,3.381 l -18.7973,-30.571 v 0 c -1.2535,-1.969 -2.2538,-3.634 -3.2259,-5.064 l 6.6417,-17.516 h 15.3195 c 4.354,0 7.8814,-3.533 7.8821,-7.891 0.01,-4.374 -3.52,-7.924 -7.8821,-7.924 h -53.243 c -4.3617,0 -7.8917,3.55 -7.8806,7.924 0,4.358 3.5273,7.891 7.8806,7.891 h 21.0338 l -3.6876,9.742 h -1.7257 -103.7932 l 4.808,-13.628 c 1.5749,-3.651 3.1085,-5.822 4.8131,-7.134 1.7352,-1.346 4.0638,-2.255 8.9931,-2.255 h 14.6662 c 4.3618,0 7.9044,-3.533 7.9086,-7.891 0,-4.358 -3.5444,-7.891 -7.9086,-7.874 z m -38.8432,54.548 h 105.0742 l -31.0164,81.872 c -0.2625,-0.337 -0.5283,-0.505 -0.8059,-0.841 h -0.1346 l -74.2899,-77.548 z m 117.974,10.482 14.7204,23.943 c -17.9316,11.172 -29.4574,30.251 -31.0361,51.333 h -12.2109 z m -158.9796,29.596 c 3.284,0 6.5585,0.336 9.778,0.841 l -16.6703,47.262 c -1.4587,4.123 0.7033,8.632 4.8196,10.095 4.1145,1.515 8.6302,-0.673 10.0777,-4.845 l 16.6018,-47.06 c 16.0322,8.917 25.9774,25.826 25.991,44.183 0,27.946 -22.6537,50.593 -50.5978,50.593 -27.9439,0 -50.5969,-22.647 -50.5974,-50.593 0,-27.947 22.6537,-50.594 50.5974,-50.594 z m 208.8687,0 c 27.9439,0 50.597,22.647 50.5976,50.593 0,27.947 -22.6539,50.594 -50.5976,50.594 -23.7284,0 -44.2539,-16.522 -49.364,-39.708 h 55.8409 c 2.0027,0 4.3091,0.505 7.8609,-2.49 1.7774,-1.514 2.9554,-4.492 2.9872,-6.494 0,-2.036 -0.4745,-3.281 -0.8699,-4.24 -1.6203,-3.836 -3.3723,-5.553 -5.515,-9.086 l -23.1962,-37.739 c 4.0085,-1.01 8.1256,-1.514 12.2596,-1.514 z m -26.8972,7.79 23.3783,38.008 h -46.8267 c 1.5227,-15.58 10.1821,-29.579 23.4484,-37.924 z"
         inkscape:transform-center-x="-272.63315"
         inkscape:transform-center-y="-620.64182"
         sodipodi:nodetypes="ccscccccccccccccccccccccccccccccccccccscccccccccccccccccccccccccccccccccccccccccccc" />
      <circle
         style="fill:#000000;stroke-width:26.6512;stroke-linejoin:bevel;stroke-opacity:0.738462;paint-order:fill markers stroke"
         id="path6187"
         cx="-2207.4849"
         cy="16025.734"
         r="24.899738" />
      <path
         style="fill:#000000;stroke-width:25.1706;stroke-linejoin:bevel;stroke-opacity:0.738462;paint-order:fill markers stroke"
         d="m -2183.6608,16051.856 c 13.2361,0.842 19.981,14.453 19.981,14.453 l 20.135,65.955 c 3.2007,11.273 5.2045,18.02 -1.8437,24.262 l -73.6232,85.17 19.0588,47.632 c 0,0 3.9497,14.908 -7.5312,19.063 -11.4809,4.156 -17.9833,-8.9 -17.9833,-8.9 l -23.2092,-58.889 c -3.8573,-9.859 -4.2117,-15.058 3.3816,-24.279 l 54.718,-67.166 -14.7553,-53.033 -4.1501,1.009 -46.5715,55.625 -26.7443,-2.39 78.0809,-90.385 c 0,0 7.8207,-8.901 21.0568,-8.127 z"
         id="path6243"
         sodipodi:nodetypes="zccccczccccccccczz" />
      <path
         style="fill:#beff18;stroke:#be0018;stroke-width:60;paint-order:fill markers stroke"
         d="m -2430.6222,15988.602 410,410"
         id="path25886-6-4"
         sodipodi:nodetypes="cc" />
    </g>
  </g>
</svg>
