<?xml version="1.0" encoding="UTF-8" standalone="no"?>
<!-- Created with Inkscape (http://www.inkscape.org/) -->

<svg
   width="710mm"
   height="710mm"
   viewBox="0 0 710 710"
   version="1.1"
   id="svg33935"
   inkscape:version="1.2.1 (9c6d41e410, 2022-07-14)"
   sodipodi:docname="Mexico road sign SR-35A (2023).svg"
   xmlns:inkscape="http://www.inkscape.org/namespaces/inkscape"
   xmlns:sodipodi="http://sodipodi.sourceforge.net/DTD/sodipodi-0.dtd"
   xmlns="http://www.w3.org/2000/svg"
   xmlns:svg="http://www.w3.org/2000/svg">
  <sodipodi:namedview
     id="namedview33937"
     pagecolor="#ffffff"
     bordercolor="#000000"
     borderopacity="0.25"
     inkscape:showpageshadow="2"
     inkscape:pageopacity="0.0"
     inkscape:pagecheckerboard="0"
     inkscape:deskcolor="#d1d1d1"
     inkscape:document-units="mm"
     showgrid="false"
     inkscape:zoom="0.76257015"
     inkscape:cx="1423.4756"
     inkscape:cy="1128.4208"
     inkscape:window-width="1920"
     inkscape:window-height="991"
     inkscape:window-x="-9"
     inkscape:window-y="-9"
     inkscape:window-maximized="1"
     inkscape:current-layer="layer1" />
  <defs
     id="defs33932" />
  <g
     inkscape:label="Livello 1"
     inkscape:groupmode="layer"
     id="layer1"
     transform="translate(271.38201,263.05498)">
    <g
       id="g21783"
       transform="translate(-3610.8117,-25666.346)">
      <rect
         style="fill:#000000;stroke-width:3.68415;stroke-opacity:0.578462;paint-order:fill markers stroke"
         id="rect20798-0-9-0-06"
         width="710"
         height="710"
         x="3339.4297"
         y="25403.291"
         ry="40"
         rx="40" />
      <rect
         style="fill:#ffffff;stroke-width:3.58037;stroke-opacity:0.578462;paint-order:fill markers stroke"
         id="rect20798-4-8-3-81"
         width="690"
         height="690"
         x="3349.4302"
         y="25413.291"
         ry="30"
         rx="30" />
      <g
         id="g25102-4-2-3-8"
         transform="rotate(90,-9346.6941,16056.596)">
        <circle
           style="fill:#be0018;stroke-width:6.548;stroke-opacity:0.578462;paint-order:fill markers stroke"
           id="path23624-0-6-2-7"
           cx="3015.4722"
           cy="-355"
           r="310"
           transform="rotate(90)" />
        <circle
           style="fill:#ffffff;stroke-width:5.28036;stroke-opacity:0.578462;paint-order:fill markers stroke"
           id="path23624-1-4-2-9"
           cx="355.00046"
           cy="3015.4727"
           r="250" />
      </g>
      <path
         id="path11397-7-6-3-8-2-1-5-59-2-0-7-8-2-1-2-9-8-52-6-7-4-5-3-4-3"
         style="fill:#000200;stroke-width:11.6201;stroke-linejoin:bevel;paint-order:fill markers stroke"
         d="m 3764.5989,25563.491 62.7421,62.742 -22.2769,22.26 -24.693,-28.485 v 157.688 c 0,22.075 -5.9747,44.217 -19.4233,61.716 -13.4502,17.481 -35.2039,29.511 -61.6198,29.511 -34.8825,0 -61.7763,24.717 -61.7763,59.68 v 24.616 h -31.4148 v -24.616 c 0,-51.755 42.6155,-91.093 93.1911,-91.093 17.559,0 28.4855,-6.562 36.7097,-17.263 8.2226,-10.684 12.9203,-26.298 12.9203,-42.551 l -0.01,-157.873 -24.9723,28.67 -22.1373,-22.26 z"
         sodipodi:nodetypes="cccccsssccsssccccc" />
      <path
         id="rect12136-7-9"
         style="fill:#000200;stroke-width:48.1076;stroke-linejoin:round;stroke-opacity:0.630769;paint-order:fill markers stroke"
         d="m 3689.65,25563.693 h -32.1702 v 242.118 c 0,0 2.6331,18.508 16.0851,18.508 13.4519,0 16.0851,-18.508 16.0851,-18.508 z"
         sodipodi:nodetypes="ccczcc" />
      <path
         style="fill:#beff18;stroke:#be0018;stroke-width:60;paint-order:fill markers stroke"
         d="m 3489.4298,25553.29 410,410"
         id="path25886-3-6-5"
         sodipodi:nodetypes="cc" />
      <path
         id="rect12136-6-4-6"
         style="fill:#000200;stroke-width:48.1076;stroke-linejoin:round;stroke-opacity:0.630769;paint-order:fill markers stroke"
         d="m 3673.5649,25888.996 c 13.4519,0 16.0851,18.508 16.0851,18.508 v 45.715 h -32.1702 v -45.715 c 0,0 2.6331,-18.508 16.0851,-18.508 z" />
    </g>
  </g>
</svg>
