<?xml version="1.0" encoding="UTF-8" standalone="no"?>
<svg
   viewBox="0 0 550.03003 550.03006"
   version="1.1"
   id="svg31"
   sodipodi:docname="SR-49_30x30.svg"
   width="550.03003"
   height="550.03003"
   inkscape:version="1.5-dev (9bf5e73, 2025-04-11, custom)"
   xmlns:inkscape="http://www.inkscape.org/namespaces/inkscape"
   xmlns:sodipodi="http://sodipodi.sourceforge.net/DTD/sodipodi-0.dtd"
   xmlns="http://www.w3.org/2000/svg"
   xmlns:svg="http://www.w3.org/2000/svg">
  <sodipodi:namedview
     id="namedview31"
     pagecolor="#ffffff"
     bordercolor="#000000"
     borderopacity="0.25"
     inkscape:showpageshadow="2"
     inkscape:pageopacity="0.0"
     inkscape:pagecheckerboard="0"
     inkscape:deskcolor="#d1d1d1"
     showgrid="false"
     inkscape:zoom="0.70204951"
     inkscape:cx="275.62159"
     inkscape:cy="532.72596"
     inkscape:window-width="1920"
     inkscape:window-height="1032"
     inkscape:window-maximized="1"
     inkscape:current-layer="svg31" />
  <defs
     id="defs1">
    <style
       id="style1">
      .cls-1, .cls-2 {
        fill: #fff;
      }

      .cls-2, .cls-3 {
        stroke: #000;
      }

      .cls-2, .cls-3, .cls-4 {
        stroke-linecap: round;
        stroke-linejoin: round;
      }

      .cls-5 {
        fill: #bd2025;
      }

      .cls-5, .cls-6 {
        fill-rule: evenodd;
      }

      .cls-3, .cls-4 {
        fill: none;
      }

      .cls-4 {
        stroke: #bd2025;
      }
    </style>
  </defs>
  <g
     id="sr_Fondo_del_tablero"
     data-name="sr_Fondo del tablero"
     transform="translate(-142.86,-14.02)">
    <g
       id="HATCH">
      <rect
         class="cls-1"
         x="150.69"
         y="21.84"
         width="534.39001"
         height="534.39001"
         rx="29.280001"
         ry="29.280001"
         id="rect3" />
    </g>
  </g>
  <g
     id="sr_Pictograma_y_filete"
     data-name="sr_Pictograma y filete"
     transform="translate(-142.86,-14.02)">
    <g
       id="CIRCLE">
      <circle
         class="cls-3"
         cx="562.79999"
         cy="237.82001"
         r="8.4700003"
         id="circle3" />
    </g>
    <g
       id="HATCH-2"
       data-name="HATCH">
      <path
         class="cls-6"
         d="m 456.96,253.14 c 5.24,0 9.75,3.73 10.73,8.88 l 4.56,23.9 c 4.83,0 8.74,3.91 8.74,8.74 v 26.22 c 0,2.41 -1.96,4.37 -4.37,4.37 h -4.37 v 13.11 c 0,2.41 -1.96,4.37 -4.37,4.37 h -6.56 c -2.41,0 -4.37,-1.96 -4.37,-4.37 v -13.11 h -56.82 v 13.11 c 0,2.41 -1.96,4.37 -4.37,4.37 h -6.56 c -2.41,0 -4.37,-1.96 -4.37,-4.37 v -13.11 h -4.37 c -2.41,0 -4.37,-1.96 -4.37,-4.37 v -26.22 c 0,-4.83 3.91,-8.74 8.74,-8.74 l 4.56,-23.9 c 0.98,-5.15 5.49,-8.88 10.73,-8.88 h 56.82 m -15.27,41.52 h -26.22 v 10.93 h 26.22 v -10.93 m -59.01,2.19 v 4.37 h 19.67 v -8.74 h -15.3 c -2.41,0 -4.37,1.96 -4.37,4.37 m 91.79,0 v 4.37 c 0,0 -19.67,0 -19.67,0 v -8.74 h 15.3 c 2.41,0 4.37,1.96 4.37,4.37 m -93.97,24.03 v -4.37 h 96.16 v 4.37 h -96.16 m 80.83,-57.25 2.21,22.28 h -69.93 l 2.21,-22.28 c 0.22,-2.24 2.1,-3.94 4.35,-3.94 h 56.82 c 2.25,0 4.13,1.7 4.35,3.94 m 35.15,22.29 h 29.33 c 0.6,0 1.09,-0.49 1.09,-1.09 v -19.67 c 0,-0.6 -0.49,-1.09 -1.09,-1.09 h -21.26 c -1.82,0 -3.45,1.13 -4.09,2.84 l -6.02,16.06 c -0.42,1.13 0.15,2.39 1.28,2.81 0.25,0.09 0.51,0.14 0.77,0.14 m 32.6,-26.23 h -24.54 c -3.64,0 -6.91,2.26 -8.18,5.67 l -10.99,29.29 v 26.22 c 0,1.21 0.98,2.19 2.19,2.19 h 41.52 c 1.21,0 2.19,-0.98 2.19,-2.19 v -59 c 0,-1.21 -0.98,-2.19 -2.19,-2.19 m -91.79,-13.9 c 0,-1.21 -0.98,-2.19 -2.19,-2.19 h -13.11 c -1.21,0 -2.19,0.98 -2.19,2.19 v 4.37 h 17.48 v -4.37 M 283.61,204.22 v 4.33 c 0,4.52 2.55,8.65 6.6,10.68 l 49.47,24.73 c 4.04,2.02 6.6,6.15 6.6,10.68 v 16.49 h -5.97 v -13.51 c 0,-4.52 -2.55,-8.65 -6.6,-10.68 l -49.47,-24.73 c -4.04,-2.02 -6.6,-6.15 -6.6,-10.68 v -7.31 c 0,0 -4.73,5.48 -4.73,5.48 l -4.22,-4.22 11.94,-11.94 11.94,11.94 -4.22,4.22 -4.73,-5.48 m 65.63,119.35 v 4.33 c 0,4.52 -2.55,8.65 -6.6,10.68 l -49.47,24.73 c -4.04,2.02 -6.6,6.15 -6.6,10.68 v 16.49 h 5.97 v -13.51 c 0,-4.52 2.55,-8.65 6.6,-10.68 l 49.47,-24.73 c 4.04,-2.02 6.6,-6.15 6.6,-10.68 v -7.31 l 4.73,5.48 4.22,-4.22 -11.94,-11.94 -11.94,11.94 4.22,4.22 4.73,-5.48 M 310.46,216.01 v -46.33 h -5.97 v 43.35 l 5.97,2.98 m 0.01,125.31 v -92.66 c 0,0 -5.98,-2.98 -5.98,-2.98 v 98.63 l 5.98,-2.99 m -5.98,35.65 v 31.41 h 5.97 v -34.4 l -5.97,2.98 M 322.4,157.74 v 64.24 c 0,0 5.97,2.98 5.97,2.98 v -67.22 h -5.97 m 5.96,174.64 v -74.76 l -5.97,-2.98 v 80.73 l 5.97,-2.98 m -5.96,35.63 v 52.3 h 5.97 v -55.28 c 0,0 -5.97,2.98 -5.97,2.98 m 220.5,-104.38 8.89,-11.85 c 1.67,-2.23 4.34,-3.49 7.12,-3.38 4.67,0.19 8.3,4.14 8.11,8.81 l -0.45,10.88 c -0.02,0.58 0.19,1.15 0.6,1.57 l 15.14,15.52 c 1.32,1.3 1.33,3.42 0.03,4.73 -1.3,1.32 -3.42,1.33 -4.73,0.03 L 566.16,277.9 c -0.05,-0.05 -0.14,-0.06 -0.19,0 -0.02,0.02 -0.04,0.05 -0.04,0.08 l -1.02,6.41 13.27,23.71 c 0.32,0.5 0.48,1.09 0.48,1.68 v 28.52 c 0,2.43 -1.97,4.41 -4.41,4.41 -2.44,0 -4.41,-1.97 -4.41,-4.41 v -24.29 c 0,-0.61 -0.17,-1.2 -0.5,-1.71 l -9.73,-17.33 c -0.15,-0.58 -0.75,-0.94 -1.33,-0.78 -0.38,0.1 -0.68,0.4 -0.78,0.78 l -7.41,44.44 c -0.58,2.34 -2.95,3.76 -5.29,3.17 -2.34,-0.59 -3.76,-2.95 -3.17,-5.29 l 6.35,-52.91 2.07,-17.08 c 0.03,-0.31 -0.2,-0.58 -0.51,-0.61 -0.2,-0.02 -0.39,0.07 -0.51,0.23 l -1.67,2.13 c -0.09,0.11 -0.15,0.24 -0.18,0.38 l -3.44,19.18 c -0.59,1.74 -2.47,2.69 -4.22,2.11 -1.76,-0.58 -2.71,-2.47 -2.13,-4.23 l 4.37,-20.38 c 0.19,-0.9 0.58,-1.74 1.13,-2.48 m 28.37,-25.81 c 0,-4.68 -3.79,-8.47 -8.47,-8.47 -4.68,0 -8.47,3.79 -8.47,8.47 0,4.68 3.79,8.47 8.47,8.47 4.68,0 8.47,-3.79 8.47,-8.47 z"
         id="path3" />
    </g>
    <g
       id="LWPOLYLINE">
      <path
         class="cls-3"
         d="m 542.9,263.64 8.89,-11.85 c 1.67,-2.23 4.34,-3.49 7.12,-3.38 4.67,0.19 8.3,4.14 8.11,8.81 l -0.45,10.88 c -0.02,0.58 0.19,1.15 0.6,1.57 l 15.14,15.52 c 1.32,1.3 1.33,3.42 0.03,4.73 -1.3,1.31 -3.42,1.33 -4.73,0.03 L 566.16,277.9 c -0.05,-0.05 -0.14,-0.06 -0.19,0 -0.02,0.02 -0.04,0.05 -0.04,0.08 l -1.02,6.41 13.27,23.71 c 0.32,0.5 0.48,1.09 0.48,1.68 v 28.52 c 0,2.43 -1.97,4.41 -4.41,4.41 -2.44,0 -4.41,-1.97 -4.41,-4.41 v -24.29 c 0,-0.61 -0.17,-1.2 -0.5,-1.71 l -9.73,-17.33 c -0.15,-0.58 -0.75,-0.94 -1.33,-0.78 -0.38,0.1 -0.68,0.4 -0.78,0.78 l -7.41,44.44 c -0.58,2.34 -2.95,3.76 -5.29,3.17 -2.34,-0.59 -3.76,-2.95 -3.17,-5.29 l 6.35,-52.91 2.07,-17.08 c 0.03,-0.31 -0.2,-0.58 -0.51,-0.61 -0.2,-0.02 -0.39,0.07 -0.51,0.23 l -1.67,2.13 c -0.09,0.11 -0.15,0.24 -0.18,0.38 l -3.44,19.18 c -0.59,1.74 -2.47,2.69 -4.22,2.11 -1.75,-0.58 -2.71,-2.47 -2.13,-4.23 l 4.37,-20.38 c 0.19,-0.9 0.58,-1.74 1.13,-2.48 z"
         id="path4" />
    </g>
    <g
       id="LWPOLYLINE-2"
       data-name="LWPOLYLINE">
      <polygon
         class="cls-3"
         points="328.36,420.32 328.36,365.03 322.4,368.02 322.4,420.32 "
         id="polygon4" />
    </g>
    <g
       id="LWPOLYLINE-3"
       data-name="LWPOLYLINE">
      <polygon
         class="cls-3"
         points="322.4,254.63 322.4,335.36 328.36,332.38 328.36,257.62 "
         id="polygon5" />
    </g>
    <g
       id="LWPOLYLINE-4"
       data-name="LWPOLYLINE">
      <polygon
         class="cls-3"
         points="328.36,224.96 328.36,157.74 322.4,157.74 322.4,221.98 "
         id="polygon6" />
    </g>
    <g
       id="LWPOLYLINE-5"
       data-name="LWPOLYLINE">
      <polygon
         class="cls-3"
         points="310.46,408.38 310.46,373.99 304.49,376.97 304.49,408.38 "
         id="polygon7" />
    </g>
    <g
       id="LWPOLYLINE-6"
       data-name="LWPOLYLINE">
      <polygon
         class="cls-3"
         points="304.49,245.68 304.49,344.31 310.47,341.32 310.46,248.66 "
         id="polygon8" />
    </g>
    <g
       id="LWPOLYLINE-7"
       data-name="LWPOLYLINE">
      <polygon
         class="cls-3"
         points="304.49,169.68 304.49,213.02 310.46,216.01 310.46,169.68 "
         id="polygon9" />
    </g>
    <g
       id="LWPOLYLINE-8"
       data-name="LWPOLYLINE">
      <path
         class="cls-3"
         d="m 349.25,323.57 v 4.33 c 0,4.52 -2.55,8.65 -6.6,10.68 l -49.47,24.73 c -4.04,2.02 -6.6,6.15 -6.6,10.68 v 16.49 h 5.97 v -13.51 c 0,-4.52 2.55,-8.65 6.6,-10.68 l 49.47,-24.73 c 4.04,-2.02 6.6,-6.15 6.6,-10.68 v -7.31 l 4.73,5.48 4.22,-4.22 -11.94,-11.94 -11.94,11.94 4.22,4.22 4.73,-5.48 z"
         id="path9" />
    </g>
    <g
       id="LWPOLYLINE-9"
       data-name="LWPOLYLINE">
      <path
         class="cls-3"
         d="m 283.61,204.22 v 4.33 c 0,4.52 2.55,8.65 6.6,10.68 l 49.47,24.73 c 4.04,2.02 6.6,6.15 6.6,10.68 v 16.49 h -5.97 v -13.51 c 0,-4.52 -2.55,-8.65 -6.6,-10.68 l -49.47,-24.73 c -4.04,-2.02 -6.6,-6.15 -6.6,-10.68 v -7.31 l -4.73,5.48 -4.22,-4.22 11.94,-11.94 11.94,11.94 -4.22,4.22 -4.73,-5.48 z"
         id="path10" />
    </g>
    <g
       id="LWPOLYLINE-10"
       data-name="LWPOLYLINE">
      <path
         class="cls-3"
         d="m 437.29,245.78 c 0,-1.21 -0.98,-2.19 -2.19,-2.19 h -13.11 c -1.21,0 -2.19,0.98 -2.19,2.19 v 4.37 h 17.48 v -4.37 z"
         id="path11" />
    </g>
    <g
       id="LWPOLYLINE-11"
       data-name="LWPOLYLINE">
      <path
         class="cls-3"
         d="m 529.08,259.69 h -24.54 c -3.64,0 -6.91,2.26 -8.18,5.67 l -10.99,29.29 v 26.22 c 0,1.21 0.98,2.19 2.19,2.19 h 41.52 c 1.21,0 2.19,-0.98 2.19,-2.19 v -59 c 0,-1.21 -0.98,-2.19 -2.19,-2.19"
         id="path12" />
    </g>
    <g
       id="LWPOLYLINE-12"
       data-name="LWPOLYLINE">
      <path
         class="cls-3"
         d="m 496.47,285.92 h 29.33 c 0.6,0 1.09,-0.49 1.09,-1.09 v -19.67 c 0,-0.6 -0.49,-1.09 -1.09,-1.09 h -21.26 c -1.82,0 -3.45,1.13 -4.09,2.84 l -6.02,16.06 c -0.42,1.13 0.15,2.39 1.28,2.81 0.25,0.09 0.51,0.14 0.77,0.14 z"
         id="path13" />
    </g>
    <g
       id="LWPOLYLINE-13"
       data-name="LWPOLYLINE">
      <path
         class="cls-3"
         d="m 461.31,263.63 2.21,22.28 h -69.93 l 2.21,-22.28 c 0.22,-2.24 2.1,-3.94 4.35,-3.94 h 56.82 c 2.25,0 4.13,1.7 4.35,3.94 z"
         id="path14" />
    </g>
    <g
       id="LWPOLYLINE-14"
       data-name="LWPOLYLINE">
      <rect
         class="cls-3"
         x="380.48001"
         y="316.51001"
         width="96.160004"
         height="4.3699999"
         id="rect14" />
    </g>
    <g
       id="LWPOLYLINE-15"
       data-name="LWPOLYLINE">
      <path
         class="cls-3"
         d="m 474.45,296.85 v 4.37 c 0,0 -19.67,0 -19.67,0 v -8.74 h 15.3 c 2.41,0 4.37,1.96 4.37,4.37 z"
         id="path15" />
    </g>
    <g
       id="LWPOLYLINE-16"
       data-name="LWPOLYLINE">
      <path
         class="cls-3"
         d="m 382.66,296.85 v 4.37 h 19.67 v -8.74 h -15.3 c -2.41,0 -4.37,1.96 -4.37,4.37 z"
         id="path16" />
    </g>
    <g
       id="LWPOLYLINE-17"
       data-name="LWPOLYLINE">
      <polyline
         class="cls-3"
         points="441.67 294.66 415.44 294.66 415.44 305.59 441.67 305.59 441.67 294.66"
         id="polyline16" />
    </g>
    <g
       id="LWPOLYLINE-18"
       data-name="LWPOLYLINE">
      <path
         class="cls-3"
         d="m 456.96,253.14 c 5.24,0 9.75,3.73 10.73,8.88 l 4.56,23.9 c 4.83,0 8.74,3.91 8.74,8.74 v 26.22 c 0,2.41 -1.96,4.37 -4.37,4.37 h -4.37 v 13.11 c 0,2.41 -1.96,4.37 -4.37,4.37 h -6.56 c -2.41,0 -4.37,-1.96 -4.37,-4.37 v -13.11 h -56.82 v 13.11 c 0,2.41 -1.96,4.37 -4.37,4.37 h -6.56 c -2.41,0 -4.37,-1.96 -4.37,-4.37 v -13.11 h -4.37 c -2.41,0 -4.37,-1.96 -4.37,-4.37 v -26.22 c 0,-4.83 3.91,-8.74 8.74,-8.74 l 4.56,-23.9 c 0.98,-5.15 5.49,-8.88 10.73,-8.88 h 56.82"
         id="path17" />
    </g>
    <g
       id="HATCH-3"
       data-name="HATCH">
      <path
         class="cls-6"
         d="m 179.97,556.22 h 475.82 c 16.17,0 29.28,-13.11 29.28,-29.28 V 51.12 c 0,-16.17 -13.11,-29.28 -29.28,-29.28 H 179.97 c -16.17,0 -29.28,13.11 -29.28,29.28 v 475.82 c 0,16.17 13.11,29.28 29.28,29.28 m 0,7.32 h 475.82 c 20.21,0 36.6,-16.39 36.6,-36.6 V 51.12 c 0,-20.21 -16.39,-36.6 -36.6,-36.6 H 179.97 c -20.21,0 -36.6,16.39 -36.6,36.6 v 475.82 c 0,20.21 16.39,36.6 36.6,36.6 z"
         id="path18" />
    </g>
    <g
       id="LWPOLYLINE-19"
       data-name="LWPOLYLINE">
      <rect
         class="cls-3"
         x="143.36"
         y="14.52"
         width="549.03003"
         height="549.03003"
         rx="36.599998"
         ry="36.599998"
         id="rect18" />
    </g>
    <g
       id="LWPOLYLINE-20"
       data-name="LWPOLYLINE">
      <rect
         class="cls-3"
         x="150.69"
         y="21.84"
         width="534.39001"
         height="534.39001"
         rx="29.280001"
         ry="29.280001"
         id="rect19" />
    </g>
  </g>
  <g
     id="sr_Circunferencia_roja"
     data-name="sr_Circunferencia roja"
     transform="translate(-142.86,-14.02)">
    <g
       id="CIRCLE-2"
       data-name="CIRCLE">
      <circle
         class="cls-4"
         cx="417.88"
         cy="289.03"
         r="237.91"
         id="circle30" />
    </g>
    <g
       id="CIRCLE-3"
       data-name="CIRCLE">
      <circle
         class="cls-4"
         cx="417.88"
         cy="289.03"
         r="192.16"
         id="circle31" />
    </g>
    <g
       id="HATCH-4"
       data-name="HATCH">
      <path
         class="cls-5"
         d="m 610.04,289.03 c 0,-106.13 -86.03,-192.16 -192.16,-192.16 -106.13,0 -192.16,86.03 -192.16,192.16 0,106.13 86.03,192.16 192.16,192.16 106.13,0 192.16,-86.03 192.16,-192.16 m 45.75,0 c 0,-131.4 -106.52,-237.91 -237.91,-237.91 -131.39,0 -237.91,106.52 -237.91,237.91 0,131.39 106.52,237.91 237.91,237.91 131.39,0 237.91,-106.52 237.91,-237.91 z"
         id="path31" />
    </g>
  </g>
</svg>
