<?xml version="1.0" encoding="UTF-8" standalone="no"?>
<!-- Created with Inkscape (http://www.inkscape.org/) -->

<svg
   width="710mm"
   height="710mm"
   viewBox="0 0 710 710"
   version="1.1"
   id="svg29875"
   xml:space="preserve"
   xmlns="http://www.w3.org/2000/svg"
   xmlns:svg="http://www.w3.org/2000/svg"><defs
     id="defs29872" /><g
     id="layer1"
     transform="translate(256.11566,234.60402)"><g
       id="g37344"><rect
         style="fill:#000000;stroke-width:3.68415;stroke-opacity:0.578462;paint-order:fill markers stroke"
         id="rect20798"
         width="710"
         height="710"
         x="-256.11566"
         y="-234.60402"
         ry="40"
         rx="40" /><rect
         style="fill:#ffffff;stroke-width:3.58037;stroke-opacity:0.578462;paint-order:fill markers stroke"
         id="rect20798-4"
         width="690"
         height="690"
         x="-246.11543"
         y="-224.60426"
         ry="30"
         rx="30" /><g
         id="g25102"
         transform="rotate(90,1674.4803,1439.8762)"><circle
           style="fill:#be0018;stroke-width:6.548;stroke-opacity:0.578462;paint-order:fill markers stroke"
           id="path23624"
           cx="3015.4722"
           cy="-355"
           r="310"
           transform="rotate(90)" /><circle
           style="fill:#ffffff;stroke-width:5.28036;stroke-opacity:0.578462;paint-order:fill markers stroke"
           id="path23624-1"
           cx="355.00046"
           cy="3015.4727"
           r="250" /></g><g
         id="g33530"><path
           id="path31296"
           style="fill:#000000;stroke-width:110.908;paint-order:fill markers stroke"
           d="m 99.466813,-17.212685 v 0.0086 H 71.886616 c -6.532682,0 -11.351718,3.062859 -15.378744,7.089816 L -30.08398,79.996295 c -17.746748,17.746731 1.212914,35.793935 18.599784,18.407304 L 51.072352,34.621671 c 4.616308,-4.616223 9.531855,-4.960738 9.531855,1.522707 V 275.5872 c 0,0 1.178192,15.68506 17.29561,15.68506 16.117417,0 17.295609,-15.68506 17.295609,-15.68506 V 155.32335 c 0,-3.50273 1.254413,-4.92787 4.271387,-4.92787 v -0.009 c 3.017227,0 4.262647,1.42447 4.262647,4.92788 v 158.35691 c 0,0 1.17751,15.68506 17.29561,15.68506 16.11818,0 17.29561,-15.68506 17.29561,-15.68506 V 36.135909 c 0,-6.483614 4.92412,-6.139269 9.54059,-1.522707 l 62.55657,63.781928 c 17.3876,17.38663 36.34724,-0.660573 18.59978,-18.407134 l -86.59185,-90.110525 c -4.02719,-4.026958 -8.85456,-7.089817 -15.3875,-7.089817 z" /><g
           id="g33042"
           transform="matrix(16.937782,0,0,16.937782,-549.52966,-14067.112)"><path
             style="fill:#000000;stroke-width:6.54799;paint-order:fill markers stroke"
             d="m 33.888575,839.81515 h -2.730027 c -0.385897,0 -0.480801,-0.3857 -0.480801,-0.83273 0,-0.39583 0.130285,-0.80856 0.130285,-1.14272 v -0.73263 h 1.662377 v 0.53393 c 0,0.46212 0.765775,1.15854 1.183664,1.15854 0.276893,0 0.696674,0.14233 0.696674,0.56659 0,0.42427 -0.170981,0.44902 -0.46217,0.44902 z"
             id="path32896" /><circle
             style="fill:#000000;stroke-width:7.60522;paint-order:fill markers stroke"
             id="path32960"
             cx="31.048616"
             cy="840.40955"
             r="0.42742759" /><circle
             style="fill:#000000;stroke-width:7.60522;paint-order:fill markers stroke"
             id="path32960-0"
             cx="32.025505"
             cy="840.40955"
             r="0.42742759" /><circle
             style="fill:#000000;stroke-width:7.60522;paint-order:fill markers stroke"
             id="path32960-4"
             cx="33.002346"
             cy="840.39233"
             r="0.42742759" /><circle
             style="fill:#000000;stroke-width:7.60522;paint-order:fill markers stroke"
             id="path32960-0-8"
             cx="33.979187"
             cy="840.39233"
             r="0.42742759" /></g><circle
           style="fill:#000000;stroke-width:128.816;paint-order:fill markers stroke"
           id="path32960-1"
           cx="209.8047"
           cy="142.40208"
           r="7.2396755" /><circle
           style="fill:#000000;stroke-width:128.812;paint-order:fill markers stroke"
           id="path32960-0-3"
           cx="221.67609"
           cy="217.72063"
           r="7.2396755" /><g
           id="g33042-8"
           transform="matrix(13.644505,10.035733,-10.035733,13.644505,7907.3601,-11638.201)"><path
             style="fill:#000000;stroke-width:6.54799;paint-order:fill markers stroke"
             d="m 33.888575,839.81515 h -2.730027 c -0.385897,0 -0.480801,-0.3857 -0.480801,-0.83273 0,-0.39583 0.130285,-0.80856 0.130285,-1.14272 v -0.73263 h 1.662377 v 0.53393 c 0,0.46212 0.765775,1.15854 1.183664,1.15854 0.276893,0 0.696674,0.14233 0.696674,0.56659 0,0.42427 -0.170981,0.44902 -0.46217,0.44902 z"
             id="path32896-8" /><circle
             style="fill:#000000;stroke-width:7.60522;paint-order:fill markers stroke"
             id="path32960-45"
             cx="31.048616"
             cy="840.40955"
             r="0.42742759" /><circle
             style="fill:#000000;stroke-width:7.60522;paint-order:fill markers stroke"
             id="path32960-0-1"
             cx="32.025505"
             cy="840.40955"
             r="0.42742759" /><circle
             style="fill:#000000;stroke-width:7.60522;paint-order:fill markers stroke"
             id="path32960-4-6"
             cx="33.002346"
             cy="840.39233"
             r="0.42742759" /><circle
             style="fill:#000000;stroke-width:7.60522;paint-order:fill markers stroke"
             id="path32960-0-8-7"
             cx="33.979187"
             cy="840.39233"
             r="0.42742759" /></g><path
           style="color:#000000;fill:#000000;stroke-width:16.9378;stroke-linecap:round;paint-order:fill markers stroke"
           d="m 232.05635,109.81153 a 6.5048281,6.5048281 0 0 0 -8.23732,4.13519 l -4.69759,14.39051 16.11074,96.13513 10.71845,15.51534 a 6.5048281,6.5048281 0 0 0 9.06435,1.65313 6.5048281,6.5048281 0 0 0 1.65415,-9.06425 l -9.09744,-13.13339 -15.11829,-90.08122 3.73822,-11.34713 a 6.5048281,6.5048281 0 0 0 -4.13527,-8.20331 z"
           id="path33143" /><ellipse
           style="fill:#000000;stroke-width:16.4913;stroke-linecap:round;stroke-opacity:0.44;paint-order:fill markers stroke"
           id="path33305"
           cx="99.469284"
           cy="-54.437603"
           rx="33.057449"
           ry="33.05687" /></g></g></g></svg>
