<?xml version="1.0" encoding="UTF-8" standalone="no"?>
<svg
   viewBox="0 0 550.03003 550.03006"
   version="1.1"
   id="svg24"
   sodipodi:docname="SR-48_30x30.svg"
   width="550.03003"
   height="550.03003"
   inkscape:version="1.5-dev (9bf5e73, 2025-04-11, custom)"
   xmlns:inkscape="http://www.inkscape.org/namespaces/inkscape"
   xmlns:sodipodi="http://sodipodi.sourceforge.net/DTD/sodipodi-0.dtd"
   xmlns="http://www.w3.org/2000/svg"
   xmlns:svg="http://www.w3.org/2000/svg">
  <sodipodi:namedview
     id="namedview24"
     pagecolor="#ffffff"
     bordercolor="#000000"
     borderopacity="0.25"
     inkscape:showpageshadow="2"
     inkscape:pageopacity="0.0"
     inkscape:pagecheckerboard="true"
     inkscape:deskcolor="#d1d1d1"
     showgrid="false"
     inkscape:zoom="0.72490268"
     inkscape:cx="275.20935"
     inkscape:cy="533.17502"
     inkscape:window-width="1920"
     inkscape:window-height="1032"
     inkscape:window-maximized="1"
     inkscape:current-layer="svg24" />
  <defs
     id="defs1">
    <style
       id="style1">
      .cls-1, .cls-2 {
        fill: #fff;
      }

      .cls-2, .cls-3 {
        stroke: #000;
      }

      .cls-2, .cls-3, .cls-4 {
        stroke-linecap: round;
        stroke-linejoin: round;
      }

      .cls-5 {
        fill: #bd2025;
      }

      .cls-5, .cls-6 {
        fill-rule: evenodd;
      }

      .cls-3, .cls-4 {
        fill: none;
      }

      .cls-4 {
        stroke: #bd2025;
      }
    </style>
  </defs>
  <g
     id="sr_Fondo_del_tablero"
     data-name="sr_Fondo del tablero"
     transform="translate(-142.86,-14.02)">
    <g
       id="HATCH">
      <rect
         class="cls-1"
         x="150.69"
         y="21.84"
         width="534.39001"
         height="534.39001"
         rx="29.280001"
         ry="29.280001"
         id="rect3" />
    </g>
  </g>
  <g
     id="sr_Pictograma_y_filete"
     data-name="sr_Pictograma y filete"
     transform="translate(-142.86,-14.02)">
    <g
       id="HATCH-2"
       data-name="HATCH">
      <path
         class="cls-6"
         d="M 399.92,286.04 266.1,280.08 c -4.94,-0.22 -9.12,3.61 -9.34,8.54 -0.22,4.93 3.61,9.12 8.54,9.34 0.27,0.01 0.53,0.01 0.8,0 L 399.92,292 c -0.08,-1.99 -0.08,-3.98 0,-5.97 m 8.37,-32.22 -121.01,-43.25 c -4.66,-1.65 -9.78,0.78 -11.43,5.44 -1.65,4.66 0.78,9.78 5.44,11.43 0.25,0.09 0.5,0.17 0.76,0.23 l 123.72,31.61 c 0.77,-1.85 1.61,-3.68 2.51,-5.47 m -2.51,64.99 -123.72,31.61 c -4.79,1.23 -7.67,6.11 -6.43,10.9 1.23,4.79 6.11,7.67 10.9,6.43 0.26,-0.07 0.51,-0.14 0.76,-0.23 l 121.01,-43.25 c -0.91,-1.79 -1.75,-3.61 -2.51,-5.47 m 18.4,26.76 -98.84,59.53 c -4.22,2.58 -5.55,8.09 -2.97,12.31 2.58,4.22 8.09,5.55 12.31,2.97 0.23,-0.14 0.45,-0.29 0.66,-0.45 l 93.49,-70.3 c -1.6,-1.29 -3.15,-2.65 -4.64,-4.06 m 4.63,-117.08 -93.49,-70.3 c -3.97,-2.94 -9.58,-2.11 -12.52,1.86 -2.94,3.97 -2.11,9.58 1.86,12.52 0.21,0.16 0.43,0.31 0.66,0.45 l 98.84,59.53 c 1.49,-1.41 3.04,-2.77 4.64,-4.06 m 24.87,144.12 v -167.1 l 59.68,11.94 c 29.76,5.45 53.05,28.74 58.5,58.5 7.24,39.55 -18.95,77.48 -58.5,84.72 z"
         id="path15" />
    </g>
    <g
       id="LWPOLYLINE">
      <path
         class="cls-3"
         d="m 453.68,372.58 v -167.1 l 59.68,11.94 c 29.76,5.45 53.05,28.74 58.5,58.5 7.24,39.55 -18.95,77.48 -58.5,84.72 z"
         id="path16" />
    </g>
    <g
       id="LWPOLYLINE-2"
       data-name="LWPOLYLINE">
      <path
         class="cls-3"
         d="m 428.82,228.46 -93.49,-70.3 c -3.97,-2.94 -9.58,-2.11 -12.52,1.86 -2.94,3.97 -2.11,9.58 1.86,12.52 0.21,0.16 0.43,0.31 0.66,0.45 l 98.84,59.53 c 1.49,-1.41 3.04,-2.77 4.64,-4.06 z"
         id="path17" />
    </g>
    <g
       id="LWPOLYLINE-3"
       data-name="LWPOLYLINE">
      <path
         class="cls-3"
         d="m 424.18,345.54 -98.84,59.53 c -4.22,2.58 -5.55,8.09 -2.97,12.31 2.58,4.22 8.09,5.55 12.31,2.97 0.23,-0.14 0.45,-0.29 0.66,-0.45 l 93.49,-70.3 c -1.6,-1.29 -3.15,-2.65 -4.64,-4.06 z"
         id="path18" />
    </g>
    <g
       id="LWPOLYLINE-4"
       data-name="LWPOLYLINE">
      <path
         class="cls-3"
         d="M 405.77,318.79 282.05,350.4 c -4.79,1.23 -7.67,6.11 -6.43,10.9 1.24,4.79 6.11,7.67 10.9,6.43 0.26,-0.07 0.51,-0.14 0.76,-0.23 l 121.01,-43.25 c -0.91,-1.79 -1.75,-3.61 -2.51,-5.47 z"
         id="path19" />
    </g>
    <g
       id="LWPOLYLINE-5"
       data-name="LWPOLYLINE">
      <path
         class="cls-3"
         d="M 408.29,253.81 287.28,210.56 c -4.66,-1.65 -9.78,0.78 -11.43,5.44 -1.65,4.66 0.78,9.78 5.44,11.43 0.25,0.09 0.5,0.17 0.76,0.23 l 123.72,31.61 c 0.77,-1.85 1.61,-3.68 2.51,-5.47 z"
         id="path20" />
    </g>
    <g
       id="LWPOLYLINE-6"
       data-name="LWPOLYLINE">
      <path
         class="cls-3"
         d="M 399.92,286.04 266.1,280.08 c -4.94,-0.22 -9.12,3.61 -9.34,8.54 -0.22,4.93 3.61,9.12 8.54,9.34 0.27,0.01 0.53,0.01 0.8,0 L 399.92,292 c -0.08,-1.99 -0.08,-3.98 0,-5.97 z"
         id="path21" />
    </g>
    <g
       id="HATCH-3"
       data-name="HATCH">
      <path
         class="cls-6"
         d="m 179.97,556.22 h 475.82 c 16.17,0 29.28,-13.11 29.28,-29.28 V 51.12 c 0,-16.17 -13.11,-29.28 -29.28,-29.28 H 179.97 c -16.17,0 -29.28,13.11 -29.28,29.28 v 475.82 c 0,16.17 13.11,29.28 29.28,29.28 m 0,7.32 h 475.82 c 20.21,0 36.6,-16.39 36.6,-36.6 V 51.12 c 0,-20.21 -16.39,-36.6 -36.6,-36.6 H 179.97 c -20.21,0 -36.6,16.39 -36.6,36.6 v 475.82 c 0,20.21 16.39,36.6 36.6,36.6 z"
         id="path22" />
    </g>
    <g
       id="LWPOLYLINE-7"
       data-name="LWPOLYLINE">
      <rect
         class="cls-3"
         x="143.36"
         y="14.52"
         width="549.03003"
         height="549.03003"
         rx="36.599998"
         ry="36.599998"
         id="rect22" />
    </g>
    <g
       id="LWPOLYLINE-8"
       data-name="LWPOLYLINE">
      <rect
         class="cls-3"
         x="150.69"
         y="21.84"
         width="534.39001"
         height="534.39001"
         rx="29.280001"
         ry="29.280001"
         id="rect23" />
    </g>
  </g>
  <g
     id="sr_Circunferencia_roja"
     data-name="sr_Circunferencia roja"
     transform="translate(-142.86,-14.02)">
    <g
       id="CIRCLE">
      <circle
         class="cls-4"
         cx="417.88"
         cy="289.03"
         r="237.91"
         id="circle23" />
    </g>
    <g
       id="CIRCLE-2"
       data-name="CIRCLE">
      <circle
         class="cls-4"
         cx="417.88"
         cy="289.03"
         r="192.16"
         id="circle24" />
    </g>
    <g
       id="HATCH-4"
       data-name="HATCH">
      <path
         class="cls-5"
         d="m 610.04,289.03 c 0,-106.13 -86.03,-192.16 -192.16,-192.16 -106.13,0 -192.16,86.03 -192.16,192.16 0,106.13 86.03,192.16 192.16,192.16 106.13,0 192.16,-86.03 192.16,-192.16 m 45.75,0 c 0,-131.4 -106.52,-237.91 -237.91,-237.91 -131.39,0 -237.91,106.52 -237.91,237.91 0,131.39 106.52,237.91 237.91,237.91 131.39,0 237.91,-106.52 237.91,-237.91 z"
         id="path24" />
    </g>
  </g>
</svg>
