<?xml version="1.0" encoding="UTF-8" standalone="no"?>
<!-- Created with Inkscape (http://www.inkscape.org/) -->

<svg
   width="710.00006mm"
   height="710mm"
   viewBox="0 0 710.00006 710"
   version="1.1"
   id="svg1"
   inkscape:version="1.3.2 (091e20e, 2023-11-25, custom)"
   sodipodi:docname="MX road draw.svg"
   xml:space="preserve"
   xmlns:inkscape="http://www.inkscape.org/namespaces/inkscape"
   xmlns:sodipodi="http://sodipodi.sourceforge.net/DTD/sodipodi-0.dtd"
   xmlns="http://www.w3.org/2000/svg"
   xmlns:svg="http://www.w3.org/2000/svg"><sodipodi:namedview
     id="namedview1"
     pagecolor="#ffffff"
     bordercolor="#000000"
     borderopacity="0.25"
     inkscape:showpageshadow="2"
     inkscape:pageopacity="0.0"
     inkscape:pagecheckerboard="0"
     inkscape:deskcolor="#d1d1d1"
     inkscape:document-units="mm"
     inkscape:zoom="0.04"
     inkscape:cx="17475"
     inkscape:cy="-8137.5"
     inkscape:window-width="1920"
     inkscape:window-height="1017"
     inkscape:window-x="-8"
     inkscape:window-y="-8"
     inkscape:window-maximized="1"
     inkscape:current-layer="layer1" /><defs
     id="defs1"><style
       id="style2">
      .cls-1 {
        fill: #fff;
      }

      .cls-1, .cls-2 {
        stroke: #000;
        stroke-linecap: round;
        stroke-linejoin: round;
      }

      .cls-2 {
        fill: none;
      }

      .cls-3 {
        fill: #ffca06;
      }

      .cls-4 {
        fill-rule: evenodd;
      }
    </style><style
       id="style2-5">
      .cls-1 {
        fill: #fff;
      }

      .cls-1, .cls-2 {
        stroke: #000;
        stroke-linecap: round;
        stroke-linejoin: round;
      }

      .cls-2 {
        fill: none;
      }

      .cls-3 {
        fill: #ffca06;
      }

      .cls-4 {
        fill-rule: evenodd;
      }
    </style></defs><g
     inkscape:label="Layer 1"
     inkscape:groupmode="layer"
     id="layer1"
     transform="translate(-1885.4187,1152.4359)"><g
       id="g19"
       transform="translate(866.51045,-6.6145838)"><rect
         style="fill:#000000;stroke-width:3.68415;stroke-opacity:0.578462;paint-order:fill markers stroke"
         id="rect18"
         width="710"
         height="710"
         x="1018.9083"
         y="-1145.8213"
         ry="40"
         rx="40" /><rect
         style="fill:#ffffff;stroke-width:3.58037;stroke-opacity:0.578462;paint-order:fill markers stroke"
         id="rect19"
         width="690"
         height="690"
         x="1028.9088"
         y="-1135.8215"
         ry="30"
         rx="30" /></g><path
       id="path13"
       style="color:#000000;fill:#000000;stroke-linecap:round;stroke-linejoin:round;stroke-miterlimit:6.6;stroke-dashoffset:30.5643;-inkscape-stroke:none;paint-order:stroke fill markers"
       d="m 2305.9213,-970.32268 a 25.726225,25.726225 0 0 0 -25.7261,25.72659 25.726225,25.726225 0 0 0 25.7261,25.72608 25.726225,25.726225 0 0 0 25.726,-25.72608 25.726225,25.726225 0 0 0 -25.726,-25.72659 z m 14.0461,57.90758 c -5.7614,-0.2681 -11.6472,1.38828 -16.6207,5.11648 -6.7798,5.08916 -10.62,13.18645 -10.2717,21.65707 l 1.3767,33.06672 c 0.076,1.76718 -0.5863,3.49193 -1.8268,4.75785 l -46.0235,47.16146 c -4.0017,3.9422 -4.0437,10.383 -0.093,14.38465 3.9506,4.00167 10.3819,4.04372 14.3836,0.093 l 34.7916,-36.61844 c 0.06,-0.0679 0.1443,-0.11012 0.2378,-0.12712 0.2294,-0.034 0.4419,0.11891 0.4759,0.3483 l 3.0841,19.49028 -40.3397,72.07209 c -0.9601,1.53779 -1.4697,3.30526 -1.4697,5.11493 v 86.69445 c 0,7.4001 5.9981,13.39815 13.3982,13.39815 7.4001,0 13.3986,-5.99805 13.3986,-13.39815 v -73.83167 c 0,-1.84365 0.5266,-3.65316 1.5291,-5.20795 l 29.5667,-52.68412 c 0.3059,-1.16397 1.2147,-2.08182 2.3787,-2.37918 1.7757,-0.4588 3.5857,0.6035 4.053,2.37918 l 22.5143,135.07961 c 1.7757,7.10272 8.9721,11.42677 16.0833,9.65109 7.1112,-1.77568 11.4273,-8.97152 9.6516,-16.08274 l -19.2949,-160.80569 -6.2953,-51.91983 c -0.059,-0.60323 0.2126,-1.18956 0.7054,-1.53789 0.7647,-0.54376 1.8262,-0.36571 2.3699,0.39895 l 5.0808,6.4828 c 0.2804,0.33136 0.4584,0.73069 0.5349,1.15549 l 10.4676,58.30032 c 1.7926,5.31855 7.5615,8.18195 12.8886,6.38927 5.327,-1.79268 8.1648,-7.51087 6.4146,-12.82092 l -13.2964,-61.93627 c -0.5862,-2.72727 -1.7586,-5.29323 -3.4323,-7.52771 v -0.0258 l -27.018,-36.02312 c -4.7934,-6.39439 -11.9955,-9.92082 -19.403,-10.26552 z m -88.9945,122.51138 a 11.85,11.85 0 0 0 -8.6739,2.64842 l -69.8185,57.51948 a 11.85,11.85 0 0 0 -1.6113,16.68167 11.85,11.85 0 0 0 16.6796,1.61127 l 69.8185,-57.51948 a 11.85,11.85 0 0 0 1.6113,-16.68167 11.85,11.85 0 0 0 -8.0057,-4.25969 z m -98.1062,42.67853 c -1.4439,0.3863 -2.448,1.69477 -2.4474,3.18947 v 9.51932 h -37.668 c -2.5271,0 -4.1166,2.72415 -2.8732,4.92424 l 13.3847,23.69313 c 0.5851,1.0365 1.683,1.67764 2.8732,1.67794 h 35.092 c 1.8223,-10e-4 3.2989,-1.4788 3.2985,-3.30109 v -38.5253 z m 65.1211,34.1173 c -4.2803,-3e-4 -7.7504,3.46952 -7.7504,7.74991 v 6.3469 h -60.293 c -3.9702,0 -7.7759,1.9922 -9.988,4.3677 -2.2121,2.37539 -3.269,4.89237 -3.9744,7.09207 -1.4108,4.39939 -1.3907,8.32145 -1.3907,8.32145 -2e-4,0.035 -2e-4,0.0704 0,0.10594 v 0.014 43.99784 c -2e-4,4.28039 3.4696,7.75033 7.75,7.75043 4.2803,-10e-5 7.7502,-3.47004 7.7499,-7.75043 v -29.98009 h 60.1462 v 29.49794 c 0,4.2804 3.4701,7.75022 7.7504,7.74992 4.2801,-1e-4 7.7499,-3.46982 7.7499,-7.74992 v -69.7637 c 0,-4.28009 -3.4698,-7.74981 -7.7499,-7.74991 z" /><path
       id="path20"
       style="fill:#be0018;stroke-width:6.548;stroke-opacity:0.578462;paint-order:fill markers stroke"
       d="m 2240.4188,-1107.4363 a 310,310 0 0 0 -310.0002,309.99971 310,310 0 0 0 310.0002,310.0002 310,310 0 0 0 309.9997,-310.0002 310,310 0 0 0 -309.9997,-309.99971 z m -5e-4,59.9994 a 250,250 0 0 1 249.9997,249.99979 250,250 0 0 1 -249.9997,250.00024 250,250 0 0 1 -250.0003,-250.00024 250,250 0 0 1 250.0003,-249.99979 z" /></g></svg>
