<?xml version="1.0" encoding="UTF-8" standalone="no"?>
<svg
   viewBox="0 0 550.03003 550.03006"
   version="1.1"
   id="svg21"
   sodipodi:docname="SR-43A_30x30.svg"
   width="550.03003"
   height="550.03003"
   inkscape:version="1.5-dev (9bf5e73, 2025-04-11, custom)"
   xmlns:inkscape="http://www.inkscape.org/namespaces/inkscape"
   xmlns:sodipodi="http://sodipodi.sourceforge.net/DTD/sodipodi-0.dtd"
   xmlns="http://www.w3.org/2000/svg"
   xmlns:svg="http://www.w3.org/2000/svg">
  <sodipodi:namedview
     id="namedview21"
     pagecolor="#ffffff"
     bordercolor="#000000"
     borderopacity="0.25"
     inkscape:showpageshadow="2"
     inkscape:pageopacity="0.0"
     inkscape:pagecheckerboard="0"
     inkscape:deskcolor="#d1d1d1"
     showgrid="false"
     inkscape:zoom="0.70204951"
     inkscape:cx="275.62159"
     inkscape:cy="532.72596"
     inkscape:window-width="1920"
     inkscape:window-height="1032"
     inkscape:window-maximized="1"
     inkscape:current-layer="svg21" />
  <defs
     id="defs1">
    <style
       id="style1">
      .cls-1, .cls-2 {
        fill: #fff;
      }

      .cls-2, .cls-3 {
        stroke: #000;
      }

      .cls-2, .cls-3, .cls-4 {
        stroke-linecap: round;
        stroke-linejoin: round;
      }

      .cls-5 {
        fill: #bd2025;
      }

      .cls-5, .cls-6 {
        fill-rule: evenodd;
      }

      .cls-3, .cls-4 {
        fill: none;
      }

      .cls-4 {
        stroke: #bd2025;
      }
    </style>
  </defs>
  <g
     id="sr_Fondo_del_tablero"
     data-name="sr_Fondo del tablero"
     transform="translate(-142.86,-14.02)">
    <g
       id="HATCH">
      <rect
         class="cls-1"
         x="150.69"
         y="21.84"
         width="534.39001"
         height="534.39001"
         rx="29.280001"
         ry="29.280001"
         id="rect3" />
    </g>
  </g>
  <g
     id="sr_Pictograma_y_filete"
     data-name="sr_Pictograma y filete"
     transform="translate(-142.86,-14.02)">
    <g
       id="CIRCLE">
      <circle
         class="cls-3"
         cx="385.06"
         cy="151.77"
         r="23.870001"
         id="circle3" />
    </g>
    <g
       id="HATCH-2"
       data-name="HATCH">
      <path
         class="cls-6"
         d="m 489.94,270.47 c 2.61,-3.78 2.13,-8.89 -1.15,-12.11 l -70.07,-71.39 c -3.37,-3.43 -7.97,-5.36 -12.78,-5.36 h -41.77 c -6.29,0 -12.11,3.3 -15.35,8.69 l -29.41,49.01 c -1.66,2.76 -0.82,6.35 1.89,8.09 l 36.91,23.73 v 135.76 c 0,7.42 6.01,13.43 13.43,13.43 7.42,0 13.43,-6.01 13.43,-13.43 V 312.9 c 0,-1.65 1.34,-2.98 2.98,-2.98 1.64,0 2.98,1.34 2.98,2.98 v 123.83 c 0,7.42 6.01,13.43 13.43,13.43 7.42,0 13.43,-6.01 13.43,-13.43 V 276.7 c 1.12,0.31 2.22,0.65 3.32,1.02 9.52,3.22 19.46,5 29.5,5.3 V 295 h -8.95 c -1.65,0 -2.98,1.34 -2.98,2.98 v 2.98 h 11.94 v 18.7 c -1.85,1.07 -2.98,3.04 -2.98,5.17 v 71.61 h -23.87 c -1.65,0 -2.98,1.34 -2.98,2.98 0,1.64 1.34,2.98 2.98,2.98 h 23.87 v 41.77 c 0,3.3 2.67,5.97 5.97,5.97 3.3,0 5.97,-2.67 5.97,-5.97 V 420.3 h 23.87 c 1.65,0 2.98,-1.34 2.98,-2.98 0,-1.64 -1.34,-2.98 -2.98,-2.98 h -23.87 v -89.52 c 0,-2.13 -1.14,-4.1 -2.98,-5.17 v -18.7 h 11.94 v -2.98 c 0,-1.65 -1.34,-2.98 -2.98,-2.98 h -8.95 v -11.98 c 10.04,-0.3 19.98,-2.08 29.5,-5.3 3.03,-1.02 6.14,-1.82 9.29,-2.37 3.3,0 5.97,2.67 5.97,5.97 0,1.65 1.34,2.98 2.98,2.98 1.64,0 2.98,-1.34 2.98,-2.98 0,-6.59 -5.34,-11.94 -11.94,-11.94 -1.09,0 -2.17,0.15 -3.22,0.44 l -2.29,0.64 m -11.45,3.35 c -18.24,4.92 -37.53,4.31 -55.42,-1.74 -1.72,-0.58 -3.47,-1.1 -5.23,-1.54 v -51.63 c 0,-0.81 0.33,-1.59 0.92,-2.16 1.19,-1.14 3.08,-1.1 4.22,0.1 l 52.56,55 c 0.85,0.84 1.86,1.5 2.96,1.97 M 408.93,151.77 c 0,-13.18 -10.69,-23.87 -23.87,-23.87 -13.18,0 -23.87,10.69 -23.87,23.87 0,13.18 10.69,23.87 23.87,23.87 13.18,0 23.87,-10.69 23.87,-23.87 m -50.73,68.46 c 0,-1.65 -1.34,-2.98 -2.98,-2.98 -1.05,0 -2.02,0.55 -2.56,1.45 l -10.46,17.43 c -0.83,1.38 -0.41,3.17 0.94,4.05 l 10.46,6.72 c 1.39,0.89 3.23,0.49 4.12,-0.9 0.31,-0.48 0.47,-1.04 0.47,-1.61 v -24.15 z"
         id="path3" />
    </g>
    <g
       id="LWPOLYLINE">
      <path
         class="cls-3"
         d="m 358.2,220.23 c 0,-1.65 -1.34,-2.98 -2.98,-2.98 -1.05,0 -2.02,0.55 -2.56,1.45 l -10.46,17.43 c -0.83,1.38 -0.41,3.17 0.94,4.05 l 10.46,6.72 c 1.39,0.89 3.23,0.49 4.12,-0.9 0.31,-0.48 0.47,-1.04 0.47,-1.61 v -24.15 z"
         id="path4" />
    </g>
    <g
       id="LWPOLYLINE-2"
       data-name="LWPOLYLINE">
      <path
         class="cls-3"
         d="m 478.53,273.8 c -18.24,4.92 -37.53,4.31 -55.42,-1.74 -1.72,-0.58 -3.47,-1.1 -5.23,-1.54 v -51.63 c 0,-0.81 0.33,-1.59 0.92,-2.16 1.19,-1.14 3.08,-1.1 4.22,0.1 l 52.56,55 c 0.85,0.84 1.86,1.5 2.96,1.97 z"
         id="path5" />
    </g>
    <g
       id="LWPOLYLINE-3"
       data-name="LWPOLYLINE">
      <path
         class="cls-3"
         d="m 489.94,270.47 c 2.61,-3.78 2.13,-8.89 -1.15,-12.11 l -70.07,-71.39 c -3.37,-3.43 -7.97,-5.36 -12.78,-5.36 h -41.77 c -6.29,0 -12.11,3.3 -15.35,8.69 l -29.41,49.01 c -1.66,2.76 -0.82,6.35 1.89,8.09 l 36.91,23.73 v 135.76 c 0,7.42 6.01,13.43 13.43,13.43 7.42,0 13.43,-6.01 13.43,-13.43 V 312.9 c 0,-1.65 1.34,-2.98 2.98,-2.98 1.64,0 2.98,1.34 2.98,2.98 v 123.83 c 0,7.42 6.01,13.43 13.43,13.43 7.42,0 13.43,-6.01 13.43,-13.43 V 276.7 c 1.12,0.31 2.22,0.65 3.32,1.02 9.52,3.22 19.46,5 29.5,5.3 V 295 h -8.95 c -1.65,0 -2.98,1.34 -2.98,2.98 v 2.98 h 11.94 v 18.7 c -1.85,1.07 -2.98,3.04 -2.98,5.17 v 71.61 h -23.87 c -1.65,0 -2.98,1.34 -2.98,2.98 0,1.65 1.34,2.98 2.98,2.98 h 23.87 c 0,0 0,41.77 0,41.77 0,3.3 2.67,5.97 5.97,5.97 3.3,0 5.97,-2.67 5.97,-5.97 V 420.3 h 23.87 c 1.65,0 2.98,-1.34 2.98,-2.98 0,-1.64 -1.34,-2.98 -2.98,-2.98 h -23.87 c 0,0 0,-89.52 0,-89.52 0,-2.13 -1.14,-4.1 -2.98,-5.17 v -18.7 h 11.94 v -2.98 c 0,-1.65 -1.34,-2.98 -2.98,-2.98 h -8.95 v -11.98 c 10.04,-0.3 19.98,-2.08 29.5,-5.3 3.03,-1.02 6.14,-1.82 9.29,-2.37 3.3,0 5.97,2.67 5.97,5.97 0,1.65 1.34,2.98 2.98,2.98 1.64,0 2.98,-1.34 2.98,-2.98 0,-6.59 -5.34,-11.94 -11.94,-11.94 -1.09,0 -2.17,0.15 -3.22,0.44 l -2.29,0.64 z"
         id="path6" />
    </g>
    <g
       id="HATCH-3"
       data-name="HATCH">
      <path
         class="cls-6"
         d="m 179.97,556.22 h 475.82 c 16.17,0 29.28,-13.11 29.28,-29.28 V 51.12 c 0,-16.17 -13.11,-29.28 -29.28,-29.28 H 179.97 c -16.17,0 -29.28,13.11 -29.28,29.28 v 475.82 c 0,16.17 13.11,29.28 29.28,29.28 m 0,7.32 h 475.82 c 20.21,0 36.6,-16.39 36.6,-36.6 V 51.12 c 0,-20.21 -16.39,-36.6 -36.6,-36.6 H 179.97 c -20.21,0 -36.6,16.39 -36.6,36.6 v 475.82 c 0,20.21 16.39,36.6 36.6,36.6 z"
         id="path7" />
    </g>
    <g
       id="LWPOLYLINE-4"
       data-name="LWPOLYLINE">
      <rect
         class="cls-3"
         x="143.36"
         y="14.52"
         width="549.03003"
         height="549.03003"
         rx="36.599998"
         ry="36.599998"
         id="rect7" />
    </g>
    <g
       id="LWPOLYLINE-5"
       data-name="LWPOLYLINE">
      <rect
         class="cls-3"
         x="150.69"
         y="21.84"
         width="534.39001"
         height="534.39001"
         rx="29.280001"
         ry="29.280001"
         id="rect8" />
    </g>
  </g>
  <g
     id="sr_Circunferencia_roja"
     data-name="sr_Circunferencia roja"
     transform="translate(-142.86,-14.02)">
    <g
       id="CIRCLE-2"
       data-name="CIRCLE">
      <circle
         class="cls-4"
         cx="417.88"
         cy="289.03"
         r="237.91"
         id="circle20" />
    </g>
    <g
       id="CIRCLE-3"
       data-name="CIRCLE">
      <circle
         class="cls-4"
         cx="417.88"
         cy="289.03"
         r="192.16"
         id="circle21" />
    </g>
    <g
       id="HATCH-4"
       data-name="HATCH">
      <path
         class="cls-5"
         d="m 610.04,289.03 c 0,-106.13 -86.03,-192.16 -192.16,-192.16 -106.13,0 -192.16,86.03 -192.16,192.16 0,106.13 86.03,192.16 192.16,192.16 106.13,0 192.16,-86.03 192.16,-192.16 m 45.75,0 c 0,-131.4 -106.52,-237.91 -237.91,-237.91 -131.39,0 -237.91,106.52 -237.91,237.91 0,131.39 106.52,237.91 237.91,237.91 131.4,0 237.91,-106.52 237.91,-237.91 z"
         id="path21" />
    </g>
  </g>
</svg>
