<?xml version="1.0" encoding="UTF-8" standalone="no"?>
<!-- Created with Inkscape (http://www.inkscape.org/) -->

<svg
   width="709.99994mm"
   height="710mm"
   viewBox="0 0 709.99994 710"
   version="1.1"
   id="svg1"
   inkscape:version="1.3.2 (091e20e, 2023-11-25, custom)"
   sodipodi:docname="MX road draw.svg"
   xml:space="preserve"
   xmlns:inkscape="http://www.inkscape.org/namespaces/inkscape"
   xmlns:sodipodi="http://sodipodi.sourceforge.net/DTD/sodipodi-0.dtd"
   xmlns="http://www.w3.org/2000/svg"
   xmlns:svg="http://www.w3.org/2000/svg"><sodipodi:namedview
     id="namedview1"
     pagecolor="#ffffff"
     bordercolor="#000000"
     borderopacity="0.25"
     inkscape:showpageshadow="2"
     inkscape:pageopacity="0.0"
     inkscape:pagecheckerboard="0"
     inkscape:deskcolor="#d1d1d1"
     inkscape:document-units="mm"
     inkscape:zoom="0.04"
     inkscape:cx="17475"
     inkscape:cy="-8137.5"
     inkscape:window-width="1920"
     inkscape:window-height="1017"
     inkscape:window-x="-8"
     inkscape:window-y="-8"
     inkscape:window-maximized="1"
     inkscape:current-layer="layer1" /><defs
     id="defs1"><style
       id="style2">
      .cls-1 {
        fill: #fff;
      }

      .cls-1, .cls-2 {
        stroke: #000;
        stroke-linecap: round;
        stroke-linejoin: round;
      }

      .cls-2 {
        fill: none;
      }

      .cls-3 {
        fill: #ffca06;
      }

      .cls-4 {
        fill-rule: evenodd;
      }
    </style><style
       id="style2-5">
      .cls-1 {
        fill: #fff;
      }

      .cls-1, .cls-2 {
        stroke: #000;
        stroke-linecap: round;
        stroke-linejoin: round;
      }

      .cls-2 {
        fill: none;
      }

      .cls-3 {
        fill: #ffca06;
      }

      .cls-4 {
        fill-rule: evenodd;
      }
    </style></defs><g
     inkscape:label="Layer 1"
     inkscape:groupmode="layer"
     id="layer1"
     transform="translate(-1018.9083,1145.8213)"><g
       id="g13"><rect
         style="fill:#000000;stroke-width:3.68415;stroke-opacity:0.578462;paint-order:fill markers stroke"
         id="rect10"
         width="710"
         height="710"
         x="1018.9083"
         y="-1145.8213"
         ry="40"
         rx="40" /><rect
         style="fill:#ffffff;stroke-width:3.58037;stroke-opacity:0.578462;paint-order:fill markers stroke"
         id="rect11"
         width="690"
         height="690"
         x="1028.9088"
         y="-1135.8215"
         ry="30"
         rx="30" /></g><path
       id="path3"
       style="color:#000000;fill:#000000;stroke-linecap:round;stroke-linejoin:round;stroke-miterlimit:6.6;stroke-dashoffset:30.5643;-inkscape-stroke:none;paint-order:stroke fill markers"
       d="m 1404.2709,-957.32658 a 26.283314,26.283314 0 0 0 -26.2837,26.28315 26.283314,26.283314 0 0 0 26.2837,26.28367 26.283314,26.283314 0 0 0 26.2831,-26.28367 26.283314,26.283314 0 0 0 -26.2831,-26.28315 z m 49.4223,37.99665 a 13.551354,13.551354 0 0 0 -6.6012,1.57975 l -53.4613,28.39465 a 13.551354,13.551354 0 0 0 -7.1582,12.96096 l 4.346,59.0057 -32.7324,26.99422 a 13.549999,13.549999 0 0 0 -1.834,19.07429 13.549999,13.549999 0 0 0 19.0758,1.83193 l 38.1388,-31.4508 a 13.551354,13.551354 0 0 0 4.8927,-11.44943 l -2.4815,-33.69458 21.3367,42.38811 -27.2459,44.90424 a 16.451646,16.451646 0 0 0 -2.3869,8.53333 v 94.64641 a 16.450001,16.450001 0 0 0 16.4496,16.44913 16.450001,16.450001 0 0 0 16.4492,-16.44913 v -90.04514 l 29.5899,-48.76189 a 16.451646,16.451646 0 0 0 1.9906,-4.97075 l 0.017,0.0356 21.6328,144.38861 a 16.450001,16.450001 0 0 0 18.7069,13.82964 16.450001,16.450001 0 0 0 13.8301,-18.7048 l -21.9981,-146.82824 a 16.451646,16.451646 0 0 0 -1.4315,-4.6638 l -33.2522,-69.47483 1.3772,0.79685 24.3907,26.71516 18.6759,33.41967 a 13.549999,13.549999 0 0 0 18.4392,5.2188 13.549999,13.549999 0 0 0 5.2188,-18.4397 l -19.4412,-34.78909 a 13.551354,13.551354 0 0 0 -1.8226,-2.52491 l -26.8573,-29.41836 a 13.551354,13.551354 0 0 0 -3.2225,-2.59157 l -26.092,-15.0921 a 13.551354,13.551354 0 0 0 -6.5391,-1.81798 z m -104.9512,134.78092 a 15.6,15.6 0 0 0 -10.1172,14.59187 v 20.807 a 15.6,15.6 0 0 0 15.6016,15.59957 15.6,15.6 0 0 0 15.5995,-15.59957 v -12.71653 a 18.549999,18.549999 0 0 1 -17.4314,-6.27197 18.549999,18.549999 0 0 1 -3.6525,-16.41037 z m -103.7141,13.90974 a 3.30033,3.30033 0 0 0 -1.1994,0.0946 l -7.5055,2.0097 a 3.30033,3.30033 0 0 0 -2.4474,3.18947 v 9.51931 h -37.668 a 3.30033,3.30033 0 0 0 -2.8732,4.92425 l 13.3847,23.69313 a 3.30033,3.30033 0 0 0 2.8732,1.67793 h 35.0919 a 3.30033,3.30033 0 0 0 3.2985,-3.30109 v -38.5253 a 3.30033,3.30033 0 0 0 -2.9548,-3.28197 z m 56.4162,36.22157 a 7.7500005,7.7500005 0 0 0 -7.7505,7.74991 v 6.34742 h -60.2929 c -3.9702,0 -7.7759,1.99171 -9.988,4.36717 -2.2121,2.37544 -3.2691,4.89237 -3.9745,7.09208 -1.4108,4.3994 -1.3906,8.32197 -1.3906,8.32197 a 7.750775,7.750775 0 0 0 0,0.10542 7.750775,7.750775 0 0 0 0,0.014 v 43.99783 a 7.75,7.75 0 0 0 7.7499,7.75043 7.75,7.75 0 0 0 7.7499,-7.75043 v -29.98008 h 60.1462 v 29.49794 a 7.7500005,7.7500005 0 0 0 7.7505,7.74992 7.7500005,7.7500005 0 0 0 7.7499,-7.74992 v -69.7637 a 7.7500005,7.7500005 0 0 0 -7.7499,-7.74991 z m 53.9367,47.31029 a 4.25001,4.25001 0 0 0 -4.2498,4.24987 4.25001,4.25001 0 0 0 4.2498,4.24987 h 1.8635 a 4.25001,4.25001 0 0 0 4.2499,-4.24987 4.25001,4.25001 0 0 0 -4.2499,-4.24987 z m -12.2287,15.46675 a 4.25,4.25 0 0 0 -4.2498,4.24987 4.25,4.25 0 0 0 4.2498,4.25039 h 26.3224 a 4.25,4.25 0 0 0 4.2499,-4.25039 4.25,4.25 0 0 0 -4.2499,-4.24987 z m -5.5371,15.46469 a 4.25,4.25 0 0 0 -4.2499,4.25039 4.25,4.25 0 0 0 4.2499,4.24987 h 37.3967 a 4.25,4.25 0 0 0 4.2498,-4.24987 4.25,4.25 0 0 0 -4.2498,-4.25039 z" /><path
       id="circle9"
       style="fill:#be0018;stroke-width:6.548;stroke-opacity:0.578462;paint-order:fill markers stroke"
       d="m -1373.9084,-1100.8217 a 310,310 0 0 1 310.0002,309.99969 310,310 0 0 1 -310.0002,310.0002 310,310 0 0 1 -309.9997,-310.0002 310,310 0 0 1 309.9997,-309.99969 z m 5e-4,59.9994 a 250,250 0 0 0 -249.9997,249.99977 250,250 0 0 0 249.9997,250.00024 250,250 0 0 0 250.0003,-250.00024 250,250 0 0 0 -250.0003,-249.99977 z"
       transform="scale(-1,1)" /></g></svg>
