<?xml version="1.0" encoding="UTF-8" standalone="no"?>
<!-- Created with Inkscape (http://www.inkscape.org/) -->

<svg
   width="710mm"
   height="710mm"
   viewBox="0 0 710 710"
   version="1.1"
   id="svg50326"
   inkscape:version="1.2.1 (9c6d41e410, 2022-07-14)"
   sodipodi:docname="Mexico road sign SR-45B (2023).svg"
   xmlns:inkscape="http://www.inkscape.org/namespaces/inkscape"
   xmlns:sodipodi="http://sodipodi.sourceforge.net/DTD/sodipodi-0.dtd"
   xmlns="http://www.w3.org/2000/svg"
   xmlns:svg="http://www.w3.org/2000/svg">
  <sodipodi:namedview
     id="namedview50328"
     pagecolor="#ffffff"
     bordercolor="#000000"
     borderopacity="0.25"
     inkscape:showpageshadow="2"
     inkscape:pageopacity="0.0"
     inkscape:pagecheckerboard="0"
     inkscape:deskcolor="#d1d1d1"
     inkscape:document-units="mm"
     showgrid="false"
     inkscape:zoom="0.13480463"
     inkscape:cx="1554.1009"
     inkscape:cy="1071.9216"
     inkscape:window-width="1920"
     inkscape:window-height="991"
     inkscape:window-x="-9"
     inkscape:window-y="-9"
     inkscape:window-maximized="1"
     inkscape:current-layer="layer1" />
  <defs
     id="defs50323" />
  <g
     inkscape:label="Livello 1"
     inkscape:groupmode="layer"
     id="layer1"
     transform="translate(302.95557,281.79074)">
    <g
       id="g6474"
       transform="translate(-1721.4474,-8666.4992)">
      <g
         id="g8059-8-4-9"
         transform="matrix(1,0,0,-1,-852.6234,11148.592)">
        <rect
           style="fill:#000000;stroke-width:3.68415;stroke-opacity:0.578462;paint-order:fill markers stroke"
           id="rect20798-0-5-8-2"
           width="710"
           height="710"
           x="2271.1152"
           y="2053.8835"
           ry="40"
           rx="40" />
        <rect
           style="fill:#ffffff;stroke-width:3.58037;stroke-opacity:0.578462;paint-order:fill markers stroke"
           id="rect20798-4-7-7-8-0"
           width="690"
           height="690"
           x="2281.1155"
           y="2063.8833"
           ry="30"
           rx="30" />
        <g
           id="g25102-9-5-6-0"
           transform="rotate(90,1793.8519,3847.7355)">
          <circle
             style="fill:#be0018;stroke-width:6.548;stroke-opacity:0.578462;paint-order:fill markers stroke"
             id="path23624-7-9-1-5"
             cx="3015.4722"
             cy="-355"
             r="310"
             transform="rotate(90)" />
          <circle
             style="fill:#ffffff;stroke-width:5.28036;stroke-opacity:0.578462;paint-order:fill markers stroke"
             id="path23624-1-9-9-2-4"
             cx="355.00046"
             cy="3015.4727"
             r="250" />
        </g>
      </g>
      <g
         id="g6457"
         transform="translate(0.92060962)">
        <path
           id="rect4971-8-7"
           style="fill:#000000;stroke-width:14.8217;stroke-linecap:round;stroke-linejoin:bevel;paint-order:fill markers stroke"
           d="m 1754.1495,8539.1022 -15.1125,45.1001 h -30.0045 l -9.6072,21.1275 -44.2135,-0.3028 c -24.3613,0 -21.146,15.1814 -21.146,38.5349 l -6.4592,223.8351 c 0,7.7463 7.6572,13.3996 16.5275,13.3996 h 22.2329 v 44.3077 h 63.6635 v -44.3077 h 42.5343 0.01 v 0.01 h 0.01 42.5343 v 44.3077 h 63.6635 v -44.3077 h 22.2312 c 8.8703,0 16.5207,-5.6533 16.5207,-13.3996 l -6.4524,-223.8351 c 0,-23.3535 3.2153,-38.5349 -21.1444,-38.5349 l -44.2134,0.3028 -9.6073,-21.1292 h -31.4481 l 15.1192,-45.1085 h -26.5267 l -15.1293,45.1085 -12.5635,-0.01 15.1192,-45.1001 z" />
        <path
           id="rect5250-0-7"
           style="fill:#ffffff;stroke-width:19.1771;stroke-linecap:round;stroke-linejoin:bevel;paint-order:fill markers stroke"
           d="m 1729.4449,8602.0455 v 19.5274 l 89.3591,-0.01 v -19.5274 z"
           sodipodi:nodetypes="ccccc" />
        <path
           style="fill:#ffffff;stroke-width:20.123;stroke-linecap:round;stroke-linejoin:bevel;paint-order:fill markers stroke"
           d="m 1760.9839,8639.9344 v 110.9627 h -99.8193 l 6.4155,-91.511 c 0.5216,-11.4682 3.5787,-19.4517 14.8971,-19.4517 z"
           id="path5335-1-9"
           sodipodi:nodetypes="cccccc" />
        <path
           style="fill:#ffffff;stroke-width:20.123;stroke-linecap:round;stroke-linejoin:bevel;paint-order:fill markers stroke"
           d="m 1778.5832,8639.9344 v 110.9627 h 99.8193 l -6.4155,-91.511 c -0.5216,-11.4682 -3.5787,-19.4517 -14.8971,-19.4517 z"
           id="path5335-1-7-7"
           sodipodi:nodetypes="cccccc" />
        <circle
           style="fill:#ffffff;stroke-width:20.123;stroke-linecap:round;stroke-linejoin:bevel;paint-order:fill markers stroke"
           id="path5807-3"
           cx="1682.4827"
           cy="8818.207"
           r="21.499575" />
        <circle
           style="fill:#ffffff;stroke-width:20.123;stroke-linecap:round;stroke-linejoin:bevel;paint-order:fill markers stroke"
           id="path5807-7-01"
           cx="1734.5564"
           cy="8818.207"
           r="21.499575" />
        <circle
           style="fill:#ffffff;stroke-width:20.123;stroke-linecap:round;stroke-linejoin:bevel;paint-order:fill markers stroke"
           id="path5807-8-3"
           cx="1810.6646"
           cy="8818.207"
           r="21.499575" />
        <circle
           style="fill:#ffffff;stroke-width:20.123;stroke-linecap:round;stroke-linejoin:bevel;paint-order:fill markers stroke"
           id="path5807-7-0-8"
           cx="1862.7383"
           cy="8818.207"
           r="21.499575" />
      </g>
    </g>
  </g>
</svg>
