<?xml version="1.0" encoding="UTF-8" standalone="no"?>
<!-- Created with Inkscape (http://www.inkscape.org/) -->

<svg
   width="709.99982mm"
   height="710mm"
   viewBox="0 0 709.99982 710"
   version="1.1"
   id="svg1"
   inkscape:version="1.3.2 (091e20e, 2023-11-25, custom)"
   sodipodi:docname="MX road draw.svg"
   xml:space="preserve"
   xmlns:inkscape="http://www.inkscape.org/namespaces/inkscape"
   xmlns:sodipodi="http://sodipodi.sourceforge.net/DTD/sodipodi-0.dtd"
   xmlns="http://www.w3.org/2000/svg"
   xmlns:svg="http://www.w3.org/2000/svg"><sodipodi:namedview
     id="namedview1"
     pagecolor="#ffffff"
     bordercolor="#000000"
     borderopacity="0.25"
     inkscape:showpageshadow="2"
     inkscape:pageopacity="0.0"
     inkscape:pagecheckerboard="0"
     inkscape:deskcolor="#d1d1d1"
     inkscape:document-units="mm"
     inkscape:zoom="0.04"
     inkscape:cx="17475"
     inkscape:cy="-8137.5"
     inkscape:window-width="1920"
     inkscape:window-height="1017"
     inkscape:window-x="-8"
     inkscape:window-y="-8"
     inkscape:window-maximized="1"
     inkscape:current-layer="layer1" /><defs
     id="defs1"><style
       id="style2">
      .cls-1 {
        fill: #fff;
      }

      .cls-1, .cls-2 {
        stroke: #000;
        stroke-linecap: round;
        stroke-linejoin: round;
      }

      .cls-2 {
        fill: none;
      }

      .cls-3 {
        fill: #ffca06;
      }

      .cls-4 {
        fill-rule: evenodd;
      }
    </style><style
       id="style2-5">
      .cls-1 {
        fill: #fff;
      }

      .cls-1, .cls-2 {
        stroke: #000;
        stroke-linecap: round;
        stroke-linejoin: round;
      }

      .cls-2 {
        fill: none;
      }

      .cls-3 {
        fill: #ffca06;
      }

      .cls-4 {
        fill-rule: evenodd;
      }
    </style></defs><g
     inkscape:label="Layer 1"
     inkscape:groupmode="layer"
     id="layer1"
     transform="translate(-3881.3648,1370.3277)"><g
       id="g71"
       transform="translate(2862.4566,-224.5064)"><rect
         style="fill:#000000;stroke-width:3.68415;stroke-opacity:0.578462;paint-order:fill markers stroke"
         id="rect70"
         width="710"
         height="710"
         x="1018.9083"
         y="-1145.8213"
         ry="40"
         rx="40" /><rect
         style="fill:#ffffff;stroke-width:3.58037;stroke-opacity:0.578462;paint-order:fill markers stroke"
         id="rect71"
         width="690"
         height="690"
         x="1028.9088"
         y="-1135.8215"
         ry="30"
         rx="30" /></g><path
       id="path72"
       style="fill:#be0018;stroke-width:6.548;stroke-opacity:0.578462;paint-order:fill markers stroke"
       d="m 4236.365,-1325.3281 a 310,310 0 0 0 -310.0002,309.9997 310,310 0 0 0 310.0002,310.00019 310,310 0 0 0 309.9997,-310.00019 310,310 0 0 0 -309.9997,-309.9997 z m -5e-4,59.9994 a 250,250 0 0 1 249.9997,249.9998 250,250 0 0 1 -249.9997,250.00021 250,250 0 0 1 -250.0003,-250.00021 250,250 0 0 1 250.0003,-249.9998 z" /><path
       id="path21-0"
       style="color:#000000;fill:#000000;stroke-width:0.999998;stroke-linejoin:round;stroke-miterlimit:6.6;stroke-dashoffset:30.5643;-inkscape-stroke:none"
       d="m 4225.9404,-1233.2715 c -4.4244,0 -8.0109,3.5871 -8.0109,8.0114 v 5.0529 h 16.0222 v -5.0529 c 0,-4.4243 -3.5869,-8.0114 -8.0113,-8.0114 z m -28.2604,17.7725 c -0.9016,10e-5 -1.7653,0.3634 -2.3956,1.0082 l -42.3576,43.3369 c -0.6119,0.626 -0.9545,1.4662 -0.9545,2.3415 v 34.278 c 0,1.8502 1.5,3.35 3.3502,3.3502 h 8.2309 c 0.021,-11.6285 9.4534,-21.0494 21.0871,-21.0494 11.6338,0 21.066,9.4209 21.0872,21.0494 h 60.3176 c 0.021,-11.6286 9.454,-21.0494 21.0876,-21.0494 11.6335,0 21.066,9.4208 21.0872,21.0494 h 9.187 c 1.8503,-2e-4 3.3501,-1.5 3.3502,-3.3502 v -77.6144 c -1e-4,-1.8502 -1.4999,-3.35 -3.3502,-3.3502 z m 1.7013,5.2969 h 7.7524 c 1.1565,2e-4 2.0939,0.9375 2.094,2.0939 v 32.4988 c -1e-4,1.1564 -0.9375,2.0937 -2.094,2.0939 h -39.5158 c -1.8543,10e-5 -2.7939,-2.2319 -1.4977,-3.5579 l 31.7635,-32.4983 c 0.3939,-0.4032 0.9339,-0.6303 1.4976,-0.6304 z m 71.1392,4.5418 c 11.5615,0 20.9337,9.3721 20.9337,20.9336 0,11.5614 -9.3723,20.9341 -20.9337,20.9341 -11.5614,0 -20.934,-9.3727 -20.934,-20.9341 0,-11.5615 9.3726,-20.9336 20.934,-20.9336 z m -3.562,7.0998 v 10.2718 h -10.2717 v 7.1241 h 10.2717 v 10.2712 h 7.1236 v -10.2712 h 10.2718 v -7.1241 h -10.2718 v -10.2718 z m -82.318,54.1171 c -7.344,0 -13.2973,5.954 -13.2973,13.2979 0,7.3441 5.9533,13.2979 13.2973,13.2979 7.3441,0 13.2975,-5.9538 13.2975,-13.2979 0,-7.3439 -5.9534,-13.2979 -13.2975,-13.2979 z m 102.4924,0 c -7.344,0 -13.2978,5.954 -13.2978,13.2979 0,7.3441 5.9538,13.2979 13.2978,13.2979 7.344,0 13.2975,-5.9538 13.2975,-13.2979 0,-7.3439 -5.9535,-13.2979 -13.2975,-13.2979 z m -102.4924,5.8762 c 4.0992,0 7.4218,3.3227 7.4218,7.4217 0,4.099 -3.3226,7.4223 -7.4218,7.4223 -4.0989,0 -7.4222,-3.3233 -7.4222,-7.4223 0,-4.099 3.3233,-7.4217 7.4222,-7.4217 z m 102.4924,0 c 4.099,0 7.4218,3.3227 7.4218,7.4217 0,4.099 -3.3228,7.4223 -7.4218,7.4223 -4.099,0 -7.4222,-3.3233 -7.4222,-7.4223 0,-4.099 3.3232,-7.4217 7.4222,-7.4217 z m -164.0918,41.5447 -17.0521,13.7217 -1.2501,12.9713 182.037,26.0423 v 2.8091 h -64.056 c -3.0379,0 -5.484,2.4458 -5.484,5.4834 v 58.05078 h 92.6093 8.1175 50.0279 v -57.01048 l -6.7127,-6.7128 h -5.6809 v -22.2994 a 2.5158976,2.5158976 0 0 0 -2.516,-2.5156 h -12.299 a 2.5158976,2.5158976 0 0 0 -1.5029,0.4966 l -6.6067,4.9149 -2.7121,-4.6043 -203.6867,-30.8705 -0.014,0.013 z m 4.4267,3.9088 21.436,3.2479 -12.2139,7.7179 z m 30.3247,4.5941 21.9486,3.3253 -12.5884,6.9691 z m -37.5041,0.6552 10.1921,12.1171 -21.7035,-3.1052 0.013,-0.107 z m 68.202,3.9956 22.3321,3.3828 -12.4599,7.2373 z m -36.2743,2.4066 9.2228,10.1436 -20.6101,-2.9482 z m 67.0074,2.249 22.3406,3.3843 -12.8244,6.5665 z m -36.2944,2.3947 9.1926,9.8898 -21.4964,-3.0758 z m 65.5204,2.0334 24.3479,3.6882 -13.2415,6.551 z m -34.5927,2.7978 9.0491,9.4625 -20.3315,-2.9089 z m 67.4042,2.1725 21.7341,3.2928 -12.0075,6.843 z m -37.4613,2.8106 9.5876,8.8403 -20.99,-3.0029 z m 68.8381,1.9426 11.0526,1.6748 -6.228,4.6467 z m -36.8318,2.3776 8.5939,8.9566 -20.7114,-2.9632 z m -121.2298,4.0085 c -3.4972,0 -6.3324,2.8362 -6.3324,6.3335 v 7.738 h 12.6659 v -7.738 c 0,-3.4973 -2.8359,-6.3335 -6.3335,-6.3335 z m 152.0161,0.3168 3.759,4.9243 -3.8453,2.8696 -10.8639,-1.554 z m 31.5577,7.7887 h 2.2103 a 2.5158976,2.5158976 0 0 1 2.5156,2.5156 v 7.9866 a 2.5158976,2.5158976 0 0 1 -2.448,2.514 l -8.7168,0.2357 a 2.5158976,2.5158976 0 0 1 -2.0029,-0.9059 l -1.6707,-2.0118 a 2.5158976,2.5158976 0 0 1 0.4128,-3.6106 l 8.1794,-6.2125 a 2.5158976,2.5158976 0 0 1 1.5203,-0.5111 z m -202.4578,9.1586 c -1.5932,0 -3.0123,1.0067 -3.5395,2.5104 l -14.1809,40.46483 c -0.1398,0.3992 -0.2109,0.8186 -0.2108,1.2417 v 39.89631 c -5e-4,2.0718 1.6786,3.75213 3.7505,3.75223 h 27.419 c 0,-9.77459 4.4999,-18.21023 8.5004,-21.04213 3.8881,-2.75239 7.5495,-3.31951 7.7596,-3.35121 h 46.2965 v -59.72193 c -6e-4,-2.0709 -1.6793,-3.7497 -3.7502,-3.7502 z m 3.4591,9.2713 35.6992,5e-4 c 1.3636,3e-4 2.469,1.1054 2.4695,2.4691 v 17.4501 c -3e-4,1.3637 -1.1058,2.4692 -2.4695,2.4696 h -7.5933 l -30.1611,12.64423 c -0.023,0.013 -0.047,0.019 -0.072,0.029 0,0 -1.3835,0.5928 -3.1374,0.6057 -0.8769,0.013 -1.9883,-0.1114 -3.0536,-0.9028 -1.0651,-0.791 -1.7078,-2.2808 -1.7078,-3.68203 v -8.8247 c 0,-0.3011 0.055,-0.5993 0.1628,-0.8806 l 7.554,-19.7895 c 0.3658,-0.9569 1.2841,-1.5884 2.3084,-1.588 z m 45.6298,0.04 h 14.7904 c 1.3636,3e-4 2.4692,1.106 2.4696,2.4696 v 17.3431 c 0,1.3641 -1.1056,2.4702 -2.4696,2.4707 h -14.7904 c -1.3645,4e-4 -2.4708,-1.106 -2.4707,-2.4707 v -17.3431 c 4e-4,-1.3641 1.1066,-2.4702 2.4707,-2.4696 z m 48.4916,3.0618 h 24.3732 c 2.1891,0 4.0131,1.8242 4.0131,4.0132 v 33.06413 c 0,2.18896 -1.824,4.01321 -4.0131,4.01321 h -24.3732 c -2.1889,0 -4.0131,-1.82425 -4.0131,-4.01321 v -33.06413 c 0,-2.189 1.8242,-4.0132 4.0131,-4.0132 z m 0,3.9346 c -0.078,0 -0.079,-4e-4 -0.079,0.079 v 33.06413 c 0,0.08 2e-4,0.08 0.079,0.08 h 24.3732 c 0.078,0 0.079,-10e-5 0.079,-0.08 v -33.06413 c 0,-0.078 0,-0.079 -0.079,-0.079 z m -59.7565,52.56895 c -10.3507,0 -18.7416,8.3907 -18.7416,18.74149 0,10.35089 8.3909,18.74201 18.7416,18.74201 10.3508,0 18.742,-8.39112 18.742,-18.74201 0,-10.35079 -8.3912,-18.74149 -18.742,-18.74149 z m 137.8468,0 c -10.3508,0 -18.7414,8.3907 -18.7414,18.74149 0,10.35089 8.3906,18.74201 18.7414,18.74201 10.3508,0 18.742,-8.39112 18.742,-18.74201 0,-10.35079 -8.3912,-18.74149 -18.742,-18.74149 z m -120.3135,0.56017 c 4.764,4.5951 7.7317,11.03973 7.7317,18.18132 0,0.091 -0.013,0.17987 -0.013,0.27027 h 87.3296 c 0,-0.091 -0.013,-0.17977 -0.013,-0.27027 0,-7.14159 2.9679,-13.58622 7.7318,-18.18132 z m 137.8468,0 c 4.764,4.5951 7.7319,11.03973 7.7319,18.18132 0,0.091 -0.013,0.17987 -0.013,0.27027 h 30.4999 v -18.45159 z m -155.3801,7.72098 c 5.7771,0 10.4602,4.68325 10.4602,10.46034 0,5.77719 -4.6831,10.46086 -10.4602,10.46086 -5.7773,0 -10.4603,-4.68367 -10.4603,-10.46086 0,-5.77709 4.683,-10.46034 10.4603,-10.46034 z m 137.8468,0 c 5.7773,0 10.4604,4.68325 10.4604,10.46034 0,5.77719 -4.6831,10.46086 -10.4604,10.46086 -5.7773,0 -10.4604,-4.68367 -10.4604,-10.46086 0,-5.77709 4.6831,-10.46034 10.4604,-10.46034 z m -66.2621,50.02795 c -2.6363,0 -4.7734,2.13706 -4.7734,4.77335 v 3.01067 h 9.5468 v -3.01067 c 0,-2.63629 -2.1372,-4.77335 -4.7734,-4.77335 z m 2.2029,13.03796 c -34.0641,0 -55.666,17.17105 -60.3739,20.77135 -4.708,3.60029 -17.1711,9.9699 -34.6186,14.1242 -17.4477,4.15409 -22.9868,14.95516 -22.9868,14.95516 l -1.3849,15.23214 h 24.9261 c 0.5564,-11.72908 10.2141,-20.96075 21.9564,-20.98735 11.7611,3e-4 21.4479,9.23927 22.0053,20.98735 h 84.5033 c 0.5565,-11.72908 10.2143,-20.96075 21.9564,-20.98735 11.7612,3e-4 21.4486,9.23927 22.0058,20.98735 h 19.4965 v -20.77134 c 0,-11.07779 -12.4627,-15.50913 -14.9551,-15.50913 -2.4924,0 -8.3082,0.27714 -16.8935,-6.09265 -8.5854,-6.36969 -44.3121,-22.70973 -65.637,-22.70973 z m -2.3745,7.0218 v 20.53466 h -55.5186 c 0.6177,-0.4177 1.2405,-0.837 1.7622,-1.2361 4.9042,-3.75019 23.4497,-18.55266 53.7564,-19.29856 z m 9.5959,0.58859 c 8.2957,1.2586 18.5685,4.29479 27.8629,7.87549 11.0416,4.2538 21.2311,9.51308 25.2429,12.07058 h -53.1058 z m -43.0273,25.08839 c 0.3978,-0.014 0.8421,0.0855 1.3,0.34934 1.1635,0.6717 6.1371,1.18184 7.6885,1.18184 1.5516,0 6.525,-0.51014 7.6884,-1.18184 1.8322,-1.0578 3.4438,0.52383 2.7445,1.47122 -1.1802,1.5988 -1.9488,8.03805 -0.6934,9.83145 3.9455,7.59219 -4.0559,13.00417 -5.35,13.54077 -1.3116,0.5438 -3.8555,2.92954 -4.3895,2.92954 -0.5338,0 -3.0779,-2.38574 -4.3894,-2.92954 -1.2942,-0.5366 -9.296,-5.94858 -5.3505,-13.54077 1.2555,-1.7934 0.487,-8.23265 -0.6931,-9.83145 -0.5244,-0.7106 0.2509,-1.77766 1.4445,-1.82056 z m -36.6758,16.58659 c -9.3013,0 -16.8414,7.54006 -16.8414,16.84135 0,9.30129 7.5401,16.84135 16.8414,16.84135 9.3013,0 16.8413,-7.54006 16.8413,-16.84135 0,-9.30129 -7.54,-16.84135 -16.8413,-16.84135 z m 128.465,0 c -9.3013,0 -16.8414,7.54006 -16.8414,16.84135 0,9.30129 7.5401,16.84135 16.8414,16.84135 9.3012,0 16.8412,-7.54006 16.8412,-16.84135 0,-9.30129 -7.54,-16.84135 -16.8412,-16.84135 z m -128.465,7.4414 c 5.1914,0 9.3998,4.20855 9.3998,9.39995 0,5.19139 -4.2084,9.39994 -9.3998,9.39994 -5.1915,0 -9.4001,-4.20855 -9.4001,-9.39994 0,-5.1914 4.2086,-9.39995 9.4001,-9.39995 z m 128.465,0 c 5.1915,0 9.3998,4.20855 9.3998,9.39995 0,5.19139 -4.2083,9.39994 -9.3998,9.39994 -5.1915,0 -9.3999,-4.20855 -9.3999,-9.39994 0,-5.1914 4.2084,-9.39995 9.3999,-9.39995 z" /></g></svg>
