<?xml version="1.0" encoding="UTF-8" standalone="no"?>
<svg
   version="1.1"
   viewBox="0 0 550.03003 550.03003"
   id="svg86"
   sodipodi:docname="SR-40_30x30.svg"
   width="550.03003"
   height="550.03003"
   inkscape:version="1.2.2 (b0a8486541, 2022-12-01)"
   xmlns:inkscape="http://www.inkscape.org/namespaces/inkscape"
   xmlns:sodipodi="http://sodipodi.sourceforge.net/DTD/sodipodi-0.dtd"
   xmlns="http://www.w3.org/2000/svg"
   xmlns:svg="http://www.w3.org/2000/svg">
  <sodipodi:namedview
     id="namedview88"
     pagecolor="#ffffff"
     bordercolor="#000000"
     borderopacity="0.25"
     inkscape:showpageshadow="2"
     inkscape:pageopacity="0.0"
     inkscape:pagecheckerboard="0"
     inkscape:deskcolor="#d1d1d1"
     showgrid="false"
     inkscape:zoom="0.7484375"
     inkscape:cx="275.24008"
     inkscape:cy="527.76618"
     inkscape:window-width="1920"
     inkscape:window-height="1014"
     inkscape:window-x="0"
     inkscape:window-y="29"
     inkscape:window-maximized="1"
     inkscape:current-layer="svg86" />
  <defs
     id="defs4">
    <style
       id="style2">
      .cls-1, .cls-2 {
        fill: #fff;
      }

      .cls-2, .cls-3 {
        stroke: #000;
      }

      .cls-2, .cls-3, .cls-4 {
        stroke-linecap: round;
        stroke-linejoin: round;
      }

      .cls-5 {
        fill: #bd2025;
      }

      .cls-5, .cls-6 {
        fill-rule: evenodd;
      }

      .cls-3, .cls-4 {
        fill: none;
      }

      .cls-4 {
        stroke: #bd2025;
      }
    </style>
  </defs>
  <!-- Generator: Adobe Illustrator 28.6.0, SVG Export Plug-In . SVG Version: 1.2.0 Build 709)  -->
  <g
     id="sr_x5F_Fondo_del_tablero"
     transform="translate(-685.19,-12.37)">
    <g
       id="HATCH">
      <rect
         class="cls-1"
         x="693.01001"
         y="20.190001"
         width="534.39001"
         height="534.39001"
         rx="29.280001"
         ry="29.280001"
         id="rect12" />
    </g>
  </g>
  <g
     id="sr_x5F_Pictograma_y_filete"
     transform="translate(-685.19,-12.37)">
    <g
       id="MTEXT">
      <g
         id="g24">
        <path
           d="m 851.17,169.25 v -9.85 h 42.57 v 9.15 l -29.16,36.68 h 29.31 v 9.85 h -43.5 v -9.85 l 28.92,-35.98 h -28.15 z"
           id="path16" />
        <path
           d="m 926.46,215.7 c -11.63,0 -26.44,-4.88 -26.44,-28.46 0,-21.25 11.32,-28.54 26.44,-28.54 13.8,0 25.9,7.29 25.9,28.54 0.16,23.42 -14.27,28.46 -25.9,28.46 z m -0.23,-47.22 c -10.24,-0.08 -14.42,4.73 -14.42,19 0,13.11 5.27,18.61 14.42,18.61 9.15,0 14.5,-5.43 14.5,-18.84 0,-13.41 -3.95,-18.69 -14.5,-18.77 z"
           id="path18" />
        <path
           d="m 974.62,177.7 h -0.16 v 37.38 H 963.6 V 159.4 h 12.25 l 22.1,36.83 h 0.15 V 159.4 h 10.86 v 55.68 H 997.33 L 974.61,177.7 Z"
           id="path20" />
        <path
           d="m 1052.55,200.04 h -18.07 l -5.12,15.04 h -12.25 l 19.85,-55.68 h 13.42 l 19.62,55.68 h -12.64 z m -9.23,-28.08 -6.2,19.54 h 12.72 l -4.81,-19.54 z"
           id="path22" />
      </g>
    </g>
    <g
       id="MTEXT-2"
       data-name="MTEXT">
      <g
         id="g31">
        <path
           d="m 884.13,318.41 c 9.77,0 27.68,-0.93 27.68,-22.33 0,-6.05 -3.95,-22.8 -21.87,-22.8 -12.1,0 -22.1,2.33 -28.38,5.35 l -13.49,-20.71 c 13.26,-8.84 30.01,-10.7 43.97,-10.7 22.1,0 52.34,12.79 52.34,47.69 0,16.75 -10.47,27.22 -19.77,31.41 v 0.46 c 5.82,1.63 24.89,10.24 24.89,38.38 0,31.17 -23.03,53.27 -56.3,53.27 -17.68,0 -34.2,-2.79 -48.39,-11.17 l 13.26,-22.57 c 9.07,4.42 22.8,7.68 33.5,7.68 13.03,0 24.43,-8.84 24.43,-27.22 0,-22.57 -17.68,-23.5 -40.71,-23.5 v -23.26 h 8.84 z"
           id="path27" />
        <path
           d="m 1024.88,247.22 c 39.55,0 57.69,28.15 57.69,86.31 0,58.16 -17.21,84.91 -57.69,84.91 -40.48,0 -57.69,-26.99 -57.69,-84.91 0,-57.92 18.15,-86.31 57.69,-86.31 z m 0.23,145.16 c 15.82,0 24.19,-16.29 24.19,-58.86 0,-42.57 -7.21,-60.25 -24.19,-60.25 -16.98,0 -24.43,17.68 -24.43,60.25 0,42.57 8.61,58.86 24.43,58.86 z"
           id="path29" />
      </g>
    </g>
    <g
       id="HATCH-2"
       data-name="HATCH">
      <path
         class="cls-6"
         d="m 722.29,554.58 h 475.82 c 16.17,0 29.28,-13.11 29.28,-29.28 V 49.48 c 0,-16.17 -13.11,-29.28 -29.28,-29.28 H 722.29 c -16.17,0 -29.28,13.11 -29.28,29.28 V 525.3 c 0,16.17 13.11,29.28 29.28,29.28 m 0,7.32 h 475.82 c 20.21,0 36.6,-16.39 36.6,-36.6 V 49.48 c 0,-20.21 -16.39,-36.6 -36.6,-36.6 H 722.29 c -20.21,0 -36.6,16.39 -36.6,36.6 V 525.3 c 0,20.21 16.39,36.6 36.6,36.6 z"
         id="path34" />
    </g>
    <g
       id="LWPOLYLINE">
      <rect
         class="cls-3"
         x="685.69"
         y="12.87"
         width="549.03003"
         height="549.03003"
         rx="36.599998"
         ry="36.599998"
         id="rect37" />
    </g>
    <g
       id="LWPOLYLINE-2"
       data-name="LWPOLYLINE">
      <rect
         class="cls-3"
         x="693.01001"
         y="20.190001"
         width="534.39001"
         height="534.39001"
         rx="29.280001"
         ry="29.280001"
         id="rect40" />
    </g>
  </g>
  <g
     id="sr_x5F_Circunferencia_roja"
     transform="translate(-685.19,-12.37)">
    <g
       id="CIRCLE">
      <circle
         class="cls-4"
         cx="960.21002"
         cy="287.39001"
         r="237.91"
         id="circle74" />
    </g>
    <g
       id="CIRCLE-2"
       data-name="CIRCLE">
      <circle
         class="cls-4"
         cx="960.21002"
         cy="287.39001"
         r="192.16"
         id="circle77" />
    </g>
    <g
       id="HATCH-3"
       data-name="HATCH">
      <path
         class="cls-5"
         d="m 1152.37,287.39 c 0,-106.13 -86.03,-192.16 -192.16,-192.16 -106.13,0 -192.16,86.03 -192.16,192.16 0,106.13 86.03,192.16 192.16,192.16 106.13,0 192.16,-86.03 192.16,-192.16 m 45.75,0 C 1198.12,155.99 1091.6,49.48 960.21,49.48 828.82,49.48 722.3,156 722.3,287.39 c 0,131.39 106.52,237.91 237.91,237.91 131.4,0 237.91,-106.52 237.91,-237.91 z"
         id="path80" />
    </g>
  </g>
</svg>
