<?xml version="1.0" encoding="UTF-8" standalone="no"?>
<svg
   viewBox="0 0 550.03003 550.03006"
   version="1.1"
   id="svg27"
   sodipodi:docname="SR-52_30x30.svg"
   width="550.03003"
   height="550.03003"
   inkscape:version="1.5-dev (9bf5e73, 2025-04-11, custom)"
   xmlns:inkscape="http://www.inkscape.org/namespaces/inkscape"
   xmlns:sodipodi="http://sodipodi.sourceforge.net/DTD/sodipodi-0.dtd"
   xmlns="http://www.w3.org/2000/svg"
   xmlns:svg="http://www.w3.org/2000/svg">
  <sodipodi:namedview
     id="namedview27"
     pagecolor="#ffffff"
     bordercolor="#000000"
     borderopacity="0.25"
     inkscape:showpageshadow="2"
     inkscape:pageopacity="0.0"
     inkscape:pagecheckerboard="0"
     inkscape:deskcolor="#d1d1d1"
     showgrid="false"
     inkscape:zoom="0.72490268"
     inkscape:cx="276.58885"
     inkscape:cy="533.17502"
     inkscape:window-width="1920"
     inkscape:window-height="1032"
     inkscape:window-maximized="1"
     inkscape:current-layer="svg27" />
  <defs
     id="defs1">
    <style
       id="style1">
      .cls-1, .cls-2 {
        fill: #fff;
      }

      .cls-2, .cls-3 {
        stroke: #000;
      }

      .cls-2, .cls-3, .cls-4 {
        stroke-linecap: round;
        stroke-linejoin: round;
      }

      .cls-5 {
        fill: #bd2025;
      }

      .cls-5, .cls-6 {
        fill-rule: evenodd;
      }

      .cls-3, .cls-4 {
        fill: none;
      }

      .cls-4 {
        stroke: #bd2025;
      }
    </style>
  </defs>
  <g
     id="sr_Fondo_del_tablero"
     data-name="sr_Fondo del tablero"
     transform="translate(-142.77,-14.02)">
    <g
       id="HATCH">
      <rect
         class="cls-1"
         x="150.59"
         y="21.84"
         width="534.39001"
         height="534.39001"
         rx="29.280001"
         ry="29.280001"
         id="rect3" />
    </g>
  </g>
  <g
     id="sr_Pictograma_y_filete"
     data-name="sr_Pictograma y filete"
     transform="translate(-142.77,-14.02)">
    <g
       id="HATCH-2"
       data-name="HATCH">
      <path
         class="cls-6"
         d="m 397.2,182.45 -10.61,-5.47 8.21,-15.91 10.61,5.47 -8.21,15.91 m -34.55,-11.12 53.03,27.37 c 2.93,1.51 4.08,5.11 2.57,8.04 -1.51,2.93 -5.11,4.08 -8.04,2.57 l -53.03,-27.37 c -2.93,-1.51 -4.08,-5.11 -2.57,-8.04 1.51,-2.93 5.11,-4.08 8.04,-2.57 m -36.53,142.33 7.95,4.11 5.47,-10.61 c 5.86,3.02 13.06,0.73 16.08,-5.13 l 46.53,-90.15 5.3,2.74 c 5.86,3.02 13.06,0.73 16.08,-5.13 3.02,-5.86 0.73,-13.06 -5.13,-16.08 l -15.91,-8.21 8.21,-15.91 c 2.93,1.51 6.53,0.36 8.04,-2.57 1.51,-2.93 0.36,-6.53 -2.57,-8.04 l -21.21,-10.95 c -2.93,-1.51 -6.53,-0.36 -8.04,2.57 -1.51,2.93 -0.36,6.53 2.57,8.04 l -8.21,15.91 -15.91,-8.21 c -5.86,-3.02 -13.06,-0.73 -16.08,5.13 -3.02,5.86 -0.73,13.06 5.13,16.08 l 5.3,2.74 -46.53,90.15 c -3.02,5.86 -0.73,13.06 5.13,16.08 l -5.47,10.61 7.95,4.11 -16.42,31.82 10.78,-7.87 10.95,-21.21 m 38.93,-120.97 31.82,16.42 -46.53,90.15 c -1.51,2.93 -5.11,4.08 -8.04,2.57 L 321.08,290.9 c -2.93,-1.51 -4.08,-5.11 -2.57,-8.04 l 46.53,-90.15 m 22.91,150.03 v 59.68 c 0,9.89 -8.02,17.9 -17.9,17.9 -9.89,0 -17.9,-8.02 -17.9,-17.9 v -59.68 c 0,-9.89 8.02,-17.9 17.9,-17.9 9.88,0 17.9,8.02 17.9,17.9 m -5.97,32.82 v 26.85 c 0,6.59 -5.34,11.94 -11.94,11.94 -6.6,0 -11.94,-5.34 -11.94,-11.94 v -26.85 h 23.87 m -23.86,-5.97 v -26.85 c 0,-6.59 5.34,-11.94 11.94,-11.94 6.6,0 11.94,5.34 11.94,11.94 v 26.85 h -23.87 m 95.47,-150.13 v -61.72 h 23.87 v 61.72 c 14.31,5.06 23.87,18.58 23.87,33.76 v 155.16 c 0,6.59 -5.34,11.94 -11.94,11.94 h -47.74 c -6.59,0 -11.94,-5.34 -11.94,-11.94 V 253.22 c 0,-15.17 9.56,-28.7 23.87,-33.76 m -17.89,45.7 h 59.68 v 71.61 h -59.68 v -71.61 m 41.77,-125.32 h -23.87 v 5.97 h 23.87 z"
         id="path15" />
    </g>
    <g
       id="LWPOLYLINE">
      <path
         class="cls-3"
         d="m 365.04,192.71 31.82,16.42 -46.53,90.15 c -1.51,2.93 -5.11,4.08 -8.04,2.57 L 321.08,290.9 c -2.93,-1.51 -4.08,-5.11 -2.57,-8.04 z"
         id="path16" />
    </g>
    <g
       id="LWPOLYLINE-2"
       data-name="LWPOLYLINE">
      <path
         class="cls-3"
         d="m 326.12,313.66 7.95,4.11 5.47,-10.61 c 5.86,3.02 13.06,0.73 16.08,-5.13 l 46.53,-90.15 5.3,2.74 c 5.86,3.02 13.06,0.73 16.08,-5.13 3.02,-5.86 0.73,-13.06 -5.13,-16.08 l -15.91,-8.21 8.21,-15.91 c 2.93,1.51 6.53,0.36 8.04,-2.57 v 0 c 1.51,-2.93 0.36,-6.53 -2.57,-8.04 l -21.21,-10.95 c -2.93,-1.51 -6.53,-0.36 -8.04,2.57 v 0 c -1.51,2.93 -0.36,6.53 2.57,8.04 l -8.21,15.91 -15.91,-8.21 c -5.86,-3.02 -13.06,-0.73 -16.08,5.13 -3.02,5.86 -0.73,13.06 5.13,16.08 l 5.3,2.74 -46.53,90.15 c -3.02,5.86 -0.73,13.06 5.13,16.08 l -5.47,10.61 7.95,4.11 -16.42,31.82 10.78,-7.87 10.95,-21.21 z"
         id="path17" />
    </g>
    <g
       id="LWPOLYLINE-3"
       data-name="LWPOLYLINE">
      <path
         class="cls-3"
         d="m 362.65,171.33 53.03,27.37 c 2.93,1.51 4.08,5.11 2.57,8.04 v 0 c -1.51,2.93 -5.11,4.08 -8.04,2.57 l -53.03,-27.37 c -2.93,-1.51 -4.08,-5.11 -2.57,-8.04 v 0 c 1.51,-2.93 5.11,-4.08 8.04,-2.57 z"
         id="path18" />
    </g>
    <g
       id="LWPOLYLINE-4"
       data-name="LWPOLYLINE">
      <rect
         class="cls-3"
         x="387.04999"
         y="165.78999"
         width="17.9"
         height="11.94"
         transform="rotate(-62.7,396.00635,171.75923)"
         id="rect18" />
    </g>
    <g
       id="LWPOLYLINE-5"
       data-name="LWPOLYLINE">
      <path
         class="cls-3"
         d="m 358.11,369.59 v -26.85 c 0,-6.59 5.34,-11.94 11.94,-11.94 v 0 c 6.59,0 11.94,5.34 11.94,11.94 v 26.85 h -23.87 z"
         id="path19" />
    </g>
    <g
       id="LWPOLYLINE-6"
       data-name="LWPOLYLINE">
      <path
         class="cls-3"
         d="m 381.98,375.56 v 26.85 c 0,6.59 -5.34,11.94 -11.94,11.94 v 0 c -6.59,0 -11.94,-5.34 -11.94,-11.94 v -26.85 h 23.87 z"
         id="path20" />
    </g>
    <g
       id="LWPOLYLINE-7"
       data-name="LWPOLYLINE">
      <path
         class="cls-3"
         d="m 387.95,342.74 v 59.68 c 0,9.89 -8.02,17.9 -17.9,17.9 -9.89,0 -17.9,-8.02 -17.9,-17.9 v -59.68 c 0,-9.89 8.02,-17.9 17.9,-17.9 9.89,0 17.9,8.02 17.9,17.9 z"
         id="path21" />
    </g>
    <g
       id="LWPOLYLINE-8"
       data-name="LWPOLYLINE">
      <rect
         class="cls-3"
         x="435.69"
         y="265.16"
         width="59.68"
         height="71.610001"
         id="rect21" />
    </g>
    <g
       id="LWPOLYLINE-9"
       data-name="LWPOLYLINE">
      <rect
         class="cls-3"
         x="447.62"
         y="145.8"
         width="35.810001"
         height="11.94"
         id="rect22" />
    </g>
    <g
       id="LWPOLYLINE-10"
       data-name="LWPOLYLINE">
      <path
         class="cls-3"
         d="m 453.59,219.46 v -61.72 h 23.87 v 61.72 c 14.31,5.06 23.87,18.58 23.87,33.76 v 155.16 c 0,6.59 -5.34,11.94 -11.94,11.94 h -47.74 c -6.59,0 -11.94,-5.34 -11.94,-11.94 V 253.22 c 0,-15.17 9.56,-28.7 23.87,-33.76 z"
         id="path22" />
    </g>
    <g
       id="LWPOLYLINE-11"
       data-name="LWPOLYLINE">
      <rect
         class="cls-3"
         x="453.59"
         y="139.84"
         width="23.870001"
         height="5.9699998"
         id="rect23" />
    </g>
    <g
       id="HATCH-3"
       data-name="HATCH">
      <path
         class="cls-6"
         d="m 179.87,556.22 h 475.82 c 16.17,0 29.28,-13.11 29.28,-29.28 V 51.12 c 0,-16.17 -13.11,-29.28 -29.28,-29.28 H 179.87 c -16.17,0 -29.28,13.11 -29.28,29.28 v 475.82 c 0,16.17 13.11,29.28 29.28,29.28 m 0,7.32 h 475.82 c 20.21,0 36.6,-16.39 36.6,-36.6 V 51.12 c 0,-20.21 -16.39,-36.6 -36.6,-36.6 H 179.87 c -20.21,0 -36.6,16.39 -36.6,36.6 v 475.82 c 0,20.21 16.39,36.6 36.6,36.6 z"
         id="path23" />
    </g>
    <g
       id="LWPOLYLINE-12"
       data-name="LWPOLYLINE">
      <rect
         class="cls-3"
         x="143.27"
         y="14.52"
         width="549.03003"
         height="549.03003"
         rx="36.599998"
         ry="36.599998"
         id="rect24" />
    </g>
    <g
       id="LWPOLYLINE-13"
       data-name="LWPOLYLINE">
      <rect
         class="cls-3"
         x="150.59"
         y="21.84"
         width="534.39001"
         height="534.39001"
         rx="29.280001"
         ry="29.280001"
         id="rect25" />
    </g>
  </g>
  <g
     id="sr_Circunferencia_roja"
     data-name="sr_Circunferencia roja"
     transform="translate(-142.77,-14.02)">
    <g
       id="LWPOLYLINE-14"
       data-name="LWPOLYLINE">
      <path
         class="cls-4"
         d="M 568.87,407.76 299.05,137.94 c 69.68,-54.76 167.79,-54.76 237.47,0 83.44,65.58 97.93,186.38 32.35,269.82 z"
         id="path25" />
    </g>
    <g
       id="LWPOLYLINE-15"
       data-name="LWPOLYLINE">
      <path
         class="cls-4"
         d="M 536.52,440.12 266.7,170.29 c -65.58,83.44 -51.09,204.25 32.35,269.82 69.68,54.76 167.79,54.76 237.47,0 z"
         id="path26" />
    </g>
    <g
       id="CIRCLE">
      <circle
         class="cls-4"
         cx="417.79001"
         cy="289.03"
         r="237.91"
         id="circle26" />
    </g>
    <g
       id="HATCH-4"
       data-name="HATCH">
      <path
         class="cls-5"
         d="m 655.7,289.03 c 0,-131.4 -106.52,-237.91 -237.91,-237.91 -131.39,0 -237.91,106.52 -237.91,237.91 0,131.4 106.52,237.91 237.91,237.91 131.4,0 237.91,-106.52 237.91,-237.91 M 536.52,440.12 266.7,170.29 c -65.58,83.44 -51.09,204.25 32.35,269.82 69.68,54.76 167.79,54.76 237.47,0 M 568.87,407.76 299.05,137.94 c 69.68,-54.76 167.79,-54.76 237.47,0 83.44,65.58 97.93,186.38 32.35,269.82 z"
         id="path27" />
    </g>
  </g>
</svg>
