<?xml version="1.0" encoding="UTF-8" standalone="no"?>
<!-- Created with Inkscape (http://www.inkscape.org/) -->

<svg
   width="710.00006mm"
   height="710mm"
   viewBox="0 0 710.00006 710"
   version="1.1"
   id="svg1"
   inkscape:version="1.3.2 (091e20e, 2023-11-25, custom)"
   sodipodi:docname="MX road draw.svg"
   xml:space="preserve"
   xmlns:inkscape="http://www.inkscape.org/namespaces/inkscape"
   xmlns:sodipodi="http://sodipodi.sourceforge.net/DTD/sodipodi-0.dtd"
   xmlns="http://www.w3.org/2000/svg"
   xmlns:svg="http://www.w3.org/2000/svg"><sodipodi:namedview
     id="namedview1"
     pagecolor="#ffffff"
     bordercolor="#000000"
     borderopacity="0.25"
     inkscape:showpageshadow="2"
     inkscape:pageopacity="0.0"
     inkscape:pagecheckerboard="0"
     inkscape:deskcolor="#d1d1d1"
     inkscape:document-units="mm"
     inkscape:zoom="0.04"
     inkscape:cx="17475"
     inkscape:cy="-8137.5"
     inkscape:window-width="1920"
     inkscape:window-height="1017"
     inkscape:window-x="-8"
     inkscape:window-y="-8"
     inkscape:window-maximized="1"
     inkscape:current-layer="layer1" /><defs
     id="defs1"><style
       id="style2">
      .cls-1 {
        fill: #fff;
      }

      .cls-1, .cls-2 {
        stroke: #000;
        stroke-linecap: round;
        stroke-linejoin: round;
      }

      .cls-2 {
        fill: none;
      }

      .cls-3 {
        fill: #ffca06;
      }

      .cls-4 {
        fill-rule: evenodd;
      }
    </style><style
       id="style2-5">
      .cls-1 {
        fill: #fff;
      }

      .cls-1, .cls-2 {
        stroke: #000;
        stroke-linecap: round;
        stroke-linejoin: round;
      }

      .cls-2 {
        fill: none;
      }

      .cls-3 {
        fill: #ffca06;
      }

      .cls-4 {
        fill-rule: evenodd;
      }
    </style></defs><g
     inkscape:label="Layer 1"
     inkscape:groupmode="layer"
     id="layer1"
     transform="translate(-2698.8909,1130.1645)"><g
       id="g45"><g
         id="g44"
         transform="translate(2051.1743,-1985.4097)"><rect
           style="fill:#000000;stroke-width:3.68415;stroke-opacity:0.578462;paint-order:fill markers stroke"
           id="rect41"
           width="710"
           height="710"
           x="647.71655"
           y="855.24506"
           ry="40"
           rx="40" /><rect
           style="fill:#ffffff;stroke-width:3.58037;stroke-opacity:0.578462;paint-order:fill markers stroke"
           id="rect42"
           width="690"
           height="690"
           x="657.71704"
           y="865.24481"
           ry="30"
           rx="30" /></g><g
         id="g41"
         transform="matrix(0,-1,-1,0,6069.3632,-420.1652)"><circle
           style="fill:#be0018;stroke-width:6.548;stroke-opacity:0.578462;paint-order:fill markers stroke"
           id="circle40"
           cx="3015.4722"
           cy="-355"
           r="310"
           transform="rotate(90)" /><circle
           style="fill:#ffffff;stroke-width:5.28036;stroke-opacity:0.578462;paint-order:fill markers stroke"
           id="circle41"
           cx="355.00046"
           cy="3015.4727"
           r="250" /></g><path
         id="path32"
         style="color:#000000;fill:#000000;stroke-linecap:round;stroke-linejoin:round;stroke-miterlimit:6.6;stroke-dashoffset:30.5643;-inkscape-stroke:none;paint-order:stroke fill markers"
         d="m 2962.4324,-959.69329 c -17.4891,0 -31.8513,14.36065 -31.8513,31.84973 v 255.49397 c 0,17.48908 14.3622,31.8518 31.8513,31.8518 h 36.9796 c -2.7821,-6.93551 -4.2123,-13.24499 -4.9759,-18.09967 h -32.0037 c -7.7748,0 -13.7522,-5.97733 -13.7522,-13.75213 v -230.57043 h 155.5415 v 96.19723 c 2.9181,1.01524 5.6975,2.3477 8.2356,4.05867 3.1661,-0.94159 6.438,-1.60436 9.8656,-1.62109 v -123.55835 c 0,-17.48908 -14.3622,-31.84973 -31.8513,-31.84973 z m 0,18.09967 h 128.0392 c 7.7748,0 13.7501,5.97527 13.7501,13.75006 v 14.92364 h -155.5415 v -14.92364 c 0,-7.77479 5.9774,-13.75006 13.7522,-13.75006 z m 41.9705,4.98626 a 9.0500002,9.0500002 0 0 0 -9.0485,9.05061 9.0500002,9.0500002 0 0 0 9.0485,9.04906 h 44.0961 a 9.0500002,9.0500002 0 0 0 9.0506,-9.04906 9.0500002,9.0500002 0 0 0 -9.0506,-9.05061 z m 58.0172,72.83948 -0.015,0.002 c -10.9486,0.001 -20.0478,9.10237 -20.0469,20.05098 v 101.98034 c -3.4476,-2.7886 -7.7551,-4.54073 -12.4628,-4.54081 -10.9475,7e-5 -20.0495,9.09885 -20.0509,20.04684 v 0.002 58.29102 c -1e-4,0.0508 -3e-4,0.10166 0,0.15244 v 0.002 c 0,0 -0.013,15.69522 9.6583,31.01361 9.8865,15.66032 30.5927,29.81058 61.6541,29.81058 h 42.9943 c 0.1481,-2e-5 0.2954,-0.003 0.4434,-0.006 0,0 11.2496,-0.077 22.8885,-6.06629 12.4118,-6.38707 24.9806,-21.06339 25.0315,-42.17004 l -0.016,0.56638 c 0,-0.0712 0.01,-0.14371 0.01,-0.21498 0.01,-0.1594 0.012,-0.31894 0.012,-0.47852 v -105.2127 c 1e-4,-0.0215 1e-4,-0.0431 0,-0.0646 0,-0.81264 -0.059,-1.62328 -0.1622,-2.42931 -0.01,-0.0476 -0.013,-0.0951 -0.02,-0.14262 -0.02,-0.1428 -0.045,-0.28556 -0.068,-0.42788 -0.091,-0.59108 -0.208,-1.179 -0.3514,-1.75959 v -0.0176 c -0.058,-0.23182 -0.1195,-0.46388 -0.1855,-0.69349 v -0.002 -0.003 -0.003 -0.002 -0.003 -10e-4 c -0.1677,-0.58087 -0.3624,-1.15335 -0.5819,-1.71669 -0.049,-0.12911 -0.097,-0.25847 -0.1488,-0.38654 -0.025,-0.0628 -0.051,-0.1253 -0.078,-0.18758 -0.6357,-1.49642 -1.4508,-2.90951 -2.4278,-4.20905 -0.042,-0.0564 -0.085,-0.1124 -0.1287,-0.16795 -0.098,-0.12486 -0.1999,-0.24646 -0.3007,-0.36897 -0.3605,-0.44762 -0.7371,-0.88206 -1.1348,-1.29708 -0.01,-0.006 -0.012,-0.0117 -0.018,-0.0176 -0.1759,-0.18276 -0.3563,-0.36148 -0.539,-0.53743 -0.01,-0.006 -0.011,-0.0117 -0.016,-0.0176 -0.4237,-0.40607 -0.8668,-0.79279 -1.3245,-1.16014 -0.1127,-0.0925 -0.2248,-0.18542 -0.3395,-0.27543 -0.057,-0.0449 -0.1158,-0.0891 -0.1742,-0.13281 -1.2892,-0.9693 -2.6903,-1.77832 -4.1739,-2.41174 -0.057,-0.0246 -0.114,-0.0487 -0.1715,-0.0724 -0.17,-0.069 -0.3419,-0.13304 -0.5137,-0.1974 -0.52,-0.20046 -1.0469,-0.38045 -1.5818,-0.53692 -0.012,-0.004 -0.024,-0.008 -0.035,-0.0119 -0.2629,-0.0759 -0.5275,-0.14574 -0.7933,-0.21084 l -0.016,-0.004 c -0.5386,-0.13105 -1.0829,-0.23802 -1.6304,-0.32401 -0.1796,-0.03 -0.3592,-0.0591 -0.5395,-0.0842 -0.045,-0.006 -0.09,-0.012 -0.1343,-0.0176 -0.795,-0.10028 -1.5955,-0.15363 -2.3968,-0.15813 -0.02,-6e-5 -0.039,-6e-5 -0.059,0 -0.2534,0.0117 -0.5062,0.0325 -0.7581,0.0625 -2.2003,0.10213 -4.3758,0.52523 -6.4275,1.33377 -0.132,0.0521 -0.263,0.1069 -0.3928,0.16433 -0.518,0.22888 -1.017,0.49766 -1.5136,0.76946 -1.0177,0.51849 -1.9244,1.21571 -2.838,1.89859 -3.2285,-6.80909 -10.1442,-11.62827 -18.0857,-11.62926 -4.9742,-4.2e-4 -9.5116,1.9413 -13.0432,5.01778 -3.561,-5.70972 -9.8511,-9.59568 -16.9762,-9.5958 -3.6291,2e-5 -7.012,1.07088 -9.971,2.80655 v -53.95278 c 0,-10.95017 -9.1003,-20.05189 -20.0504,-20.05097 z m -0.014,10.5022 v 0 c 5.2749,-4.5e-4 9.5513,4.27588 9.5508,9.55084 v 107.05341 h 10.9197 v -35.85828 c 7e-4,-5.27418 4.2767,-9.54927 9.5509,-9.54877 5.2742,-4.4e-4 9.5501,4.27463 9.5508,9.54877 v 35.85828 h 10.9198 v -31.27974 c 4e-4,-5.27435 4.2764,-9.54973 9.5508,-9.54929 5.2736,6.6e-4 9.5484,4.27572 9.5488,9.54929 v 31.27974 h 10.9218 v -23.87761 c 0.02,-1.14279 0.2441,-2.27279 0.663,-3.33623 0.1425,-0.32265 0.3028,-0.63715 0.4801,-0.94206 0.3558,-0.7103 0.7988,-1.37344 1.3187,-1.97404 0.2609,-0.29533 0.5398,-0.57422 0.8351,-0.83509 0.6012,-0.52068 1.265,-0.96423 1.9761,-1.32034 0.304,-0.17667 0.6174,-0.33642 0.939,-0.47852 1.0611,-0.4182 2.1886,-0.64292 3.329,-0.66353 l 0.01,-10e-4 v 0 h 5e-4 c 0.3817,0.002 0.7628,0.0272 1.1415,0.0749 0.1149,0.016 0.2295,0.0341 0.3437,0.0543 0.2662,0.0413 0.5305,0.0939 0.7922,0.15761 0.1266,0.031 0.2525,0.0646 0.3777,0.10077 0.2604,0.0762 0.5175,0.16342 0.7705,0.26149 0.108,0.0394 0.2154,0.0807 0.3219,0.12402 0.7067,0.3017 1.3744,0.68759 1.9886,1.14928 0.081,0.0631 0.1598,0.12757 0.2382,0.19327 0.2224,0.17792 0.4367,0.36569 0.6423,0.56276 0.087,0.0838 0.1725,0.16926 0.2563,0.25631 0.1952,0.20371 0.3812,0.41596 0.5576,0.63614 0.067,0.0799 0.1326,0.16085 0.1969,0.24288 0.4654,0.61899 0.8537,1.29228 1.1565,2.00505 0.036,0.089 0.07,0.17863 0.1034,0.26871 0.1063,0.27186 0.2001,0.54844 0.2811,0.82889 0.031,0.10936 0.061,0.21928 0.088,0.3297 0.07,0.28268 0.1268,0.5684 0.1705,0.85628 0.017,0.0967 0.032,0.19373 0.046,0.29094 0.049,0.38392 0.075,0.77049 0.078,1.15755 v 105.2127 c 0,0.0339 2e-4,0.0679 -0.01,0.1018 -0.041,16.96645 -10.1029,28.10803 -19.3363,32.85949 -9.2523,4.76118 -18.25,4.9041 -18.25,4.9041 -0.093,0.003 -0.1864,0.004 -0.2796,0.004 h -42.9943 c -27.9866,0 -44.806,-12.29313 -52.7751,-24.91631 -7.9692,-12.62317 -8.0372,-25.46459 -8.0372,-25.46459 -2e-4,-0.0326 -2e-4,-0.0651 0,-0.0977 v -58.29102 c 7e-4,-5.27418 4.2766,-9.54927 9.5508,-9.54877 5.2742,-4.4e-4 9.5502,4.27463 9.5509,9.54877 v 46.56822 h 13.4141 v -164.05665 c -5e-4,-5.27418 4.2746,-9.55018 9.5488,-9.55084 z m 72.5811,83.17012 c -0.086,0.14782 -0.1504,0.30688 -0.2325,0.45682 -0.022,0.0428 -0.059,0.0764 -0.08,0.11937 z m -81.7278,126.6858 c 0.2602,0.17788 0.4751,0.37292 0.7467,0.54622 -0.054,-0.18059 -0.1029,-0.36274 -0.1462,-0.54622 z" /><path
         style="color:#000000;fill:#000000;stroke-linecap:round;stroke-linejoin:round;stroke-miterlimit:6.6;stroke-dashoffset:30.5643;-inkscape-stroke:none;paint-order:stroke fill markers"
         d="m 3053.2593,-643.40976 c 0.2602,0.17788 0.4751,0.37292 0.7467,0.54622 -0.054,-0.18059 -0.1029,-0.36274 -0.1462,-0.54622 z"
         id="path38" /><path
         style="color:#000000;fill:#000000;stroke-linecap:round;stroke-linejoin:round;stroke-miterlimit:6.6;stroke-dashoffset:30.5643;-inkscape-stroke:none;paint-order:stroke fill markers"
         d="m 3134.9871,-770.09556 c -0.086,0.14782 -0.1504,0.30688 -0.2325,0.45682 -0.022,0.0428 -0.059,0.0764 -0.08,0.11937 z"
         id="path37" /><g
         id="g43"
         transform="rotate(90,3599.7641,2469.5992)"><path
           id="circle42"
           style="fill:#be0018;stroke-width:6.548;stroke-opacity:0.578462;paint-order:fill markers stroke"
           d="m 3015.4722,-44.999992 a 310,310 0 0 0 310.0002,-310.000198 310,310 0 0 0 -310.0002,-309.99968 310,310 0 0 0 -310.0002,309.99968 310,310 0 0 0 310.0002,310.000198 z m 5e-4,-60.000468 a 250,250 0 0 1 -250.0002,-250.00025 250,250 0 0 1 250.0002,-249.99973 250,250 0 0 1 249.9998,249.99973 250,250 0 0 1 -249.9998,250.00025 z"
           transform="rotate(90)" /></g><path
         style="fill:#beff18;stroke:#be0018;stroke-width:60;paint-order:fill markers stroke"
         d="m 2848.891,-980.16457 410,409.99997"
         id="path43"
         sodipodi:nodetypes="cc" /></g></g></svg>
