<?xml version="1.0" encoding="UTF-8" standalone="no"?>
<svg
   viewBox="0 0 550.03003 550.03006"
   version="1.1"
   id="svg29"
   sodipodi:docname="SR-50_30x30.svg"
   width="550.03003"
   height="550.03003"
   inkscape:version="1.5-dev (9bf5e73, 2025-04-11, custom)"
   xmlns:inkscape="http://www.inkscape.org/namespaces/inkscape"
   xmlns:sodipodi="http://sodipodi.sourceforge.net/DTD/sodipodi-0.dtd"
   xmlns="http://www.w3.org/2000/svg"
   xmlns:svg="http://www.w3.org/2000/svg">
  <sodipodi:namedview
     id="namedview29"
     pagecolor="#ffffff"
     bordercolor="#000000"
     borderopacity="0.25"
     inkscape:showpageshadow="2"
     inkscape:pageopacity="0.0"
     inkscape:pagecheckerboard="0"
     inkscape:deskcolor="#d1d1d1"
     showgrid="false"
     inkscape:zoom="0.70204951"
     inkscape:cx="275.62159"
     inkscape:cy="532.72596"
     inkscape:window-width="1920"
     inkscape:window-height="1032"
     inkscape:window-maximized="1"
     inkscape:current-layer="svg29" />
  <defs
     id="defs1">
    <style
       id="style1">
      .cls-1, .cls-2 {
        fill: #fff;
      }

      .cls-2, .cls-3 {
        stroke: #000;
      }

      .cls-2, .cls-3, .cls-4 {
        stroke-linecap: round;
        stroke-linejoin: round;
      }

      .cls-5 {
        fill: #bd2025;
      }

      .cls-5, .cls-6 {
        fill-rule: evenodd;
      }

      .cls-3, .cls-4 {
        fill: none;
      }

      .cls-4 {
        stroke: #bd2025;
      }
    </style>
  </defs>
  <g
     id="sr_Fondo_del_tablero"
     data-name="sr_Fondo del tablero"
     transform="translate(-142.86,-14.02)">
    <g
       id="HATCH">
      <rect
         class="cls-1"
         x="150.69"
         y="21.84"
         width="534.39001"
         height="534.39001"
         rx="29.280001"
         ry="29.280001"
         id="rect3" />
    </g>
  </g>
  <g
     id="sr_Pictograma_y_filete"
     data-name="sr_Pictograma y filete"
     transform="translate(-142.86,-14.02)">
    <g
       id="HATCH-2"
       data-name="HATCH">
      <path
         class="cls-6"
         d="m 352.23,247.26 v -5.97 h 131.29 v 5.97 H 352.23 m 65.65,131.28 53.88,-32.33 -53.88,-32.33 -53.88,32.33 53.88,32.33 m 119.35,-57.69 v 50.73 l -42.28,-25.37 42.28,-25.37 m -42.28,-53.19 42.28,-25.37 v 50.73 l -42.28,-25.37 m -128.46,15.42 39.78,23.87 -53.88,32.33 -53.88,-32.33 53.88,-32.33 0.43,0.26 c -0.4,-1.21 -0.6,-2.47 -0.6,-3.74 v -10.54 l -2.94,-1.76 c -2.27,-0.58 -4.31,-1.8 -5.89,-3.53 L 310.1,235.32 h 30.17 v -11.94 h -53.71 v 167.1 h 262.58 v -167.1 h -53.71 v 11.94 h 30.17 l -33.29,19.97 c -1.57,1.73 -3.62,2.96 -5.89,3.53 l -2.94,1.76 v 10.54 c 0,1.27 -0.2,2.53 -0.6,3.74 l 0.43,-0.26 53.88,32.33 -53.88,32.33 -53.88,-32.33 39.78,-23.87 h -6.63 c -3.59,0 -6.98,-1.61 -9.25,-4.39 l -35.51,21.3 -35.51,-21.3 c -2.27,2.78 -5.66,4.39 -9.25,4.39 h -6.63 m -67.91,9.95 v -50.73 l 42.28,25.37 -42.28,25.37 m 42.28,53.2 -42.28,25.37 v -50.73 l 42.28,25.37 m 53.88,32.31 h -84.56 l 42.28,-25.37 42.28,25.37 m 46.4,0 42.28,-25.37 42.28,25.37 h -84.56 m -5.3,-167.09 h -35.81 v 14.92 h 35.81 v -14.92 m -80.56,2.98 v 5.97 h 26.85 v -11.94 h -20.89 c -3.3,0 -5.97,2.67 -5.97,5.97 m 125.33,0 v 5.97 c 0,0 -26.85,0 -26.85,0 v -11.94 h 20.89 c 3.3,0 5.97,2.67 5.97,5.97 m -107.43,62.66 h -8.95 c -3.3,0 -5.97,-2.67 -5.97,-5.97 v -17.9 h -5.97 c -3.3,0 -5.97,-2.67 -5.97,-5.97 v -35.81 c 0,-6.59 5.34,-11.94 11.94,-11.94 l 6.23,-32.64 c 1.34,-7.03 7.49,-12.12 14.65,-12.12 h 77.58 c 7.16,0 13.31,5.09 14.65,12.12 l 6.23,32.64 c 6.59,0 11.94,5.34 11.94,11.94 v 35.81 c 0,3.3 -2.67,5.97 -5.97,5.97 h -5.97 v 17.9 c 0,3.3 -2.67,5.97 -5.97,5.97 h -8.95 c -3.3,0 -5.97,-2.67 -5.97,-5.97 v -17.9 h -77.58 v 17.9 c 0,3.3 -2.67,5.97 -5.97,5.97 m 89.51,-108 3.01,30.43 h -95.48 l 3.01,-30.43 c 0.3,-3.05 2.87,-5.38 5.94,-5.38 h 77.58 c 3.07,0 5.64,2.33 5.94,5.38 z"
         id="path15" />
    </g>
    <g
       id="LWPOLYLINE">
      <path
         class="cls-3"
         d="m 462.61,169.09 3.01,30.43 h -95.48 l 3.01,-30.43 c 0.3,-3.05 2.87,-5.38 5.94,-5.38 h 77.58 c 3.07,0 5.64,2.33 5.94,5.38 z"
         id="path16" />
    </g>
    <g
       id="LWPOLYLINE-2"
       data-name="LWPOLYLINE">
      <path
         class="cls-3"
         d="m 373.12,277.09 h -8.95 c -3.3,0 -5.97,-2.67 -5.97,-5.97 v -17.9 h -5.97 c -3.3,0 -5.97,-2.67 -5.97,-5.97 v -35.81 c 0,-6.59 5.34,-11.94 11.94,-11.94 l 6.23,-32.64 c 1.34,-7.03 7.49,-12.12 14.65,-12.12 h 77.58 c 7.16,0 13.31,5.09 14.65,12.12 l 6.23,32.64 c 6.59,0 11.94,5.34 11.94,11.94 v 35.81 c 0,3.3 -2.67,5.97 -5.97,5.97 h -5.97 v 17.9 c 0,3.3 -2.67,5.97 -5.97,5.97 h -8.95 c -3.3,0 -5.97,-2.67 -5.97,-5.97 v -17.9 h -77.58 v 17.9 c 0,3.3 -2.67,5.97 -5.97,5.97 z"
         id="path17" />
    </g>
    <g
       id="LWPOLYLINE-3"
       data-name="LWPOLYLINE">
      <path
         class="cls-3"
         d="m 480.54,214.43 v 5.97 c 0,0 -26.85,0 -26.85,0 v -11.94 h 20.89 c 3.3,0 5.97,2.67 5.97,5.97 z"
         id="path18" />
    </g>
    <g
       id="LWPOLYLINE-4"
       data-name="LWPOLYLINE">
      <path
         class="cls-3"
         d="m 355.22,214.43 v 5.97 h 26.85 v -11.94 h -20.89 c -3.3,0 -5.97,2.67 -5.97,5.97 z"
         id="path19" />
    </g>
    <g
       id="LWPOLYLINE-5"
       data-name="LWPOLYLINE">
      <polyline
         class="cls-3"
         points="435.78 211.45 399.98 211.45 399.98 226.37 435.78 226.37 435.78 211.45"
         id="polyline19" />
    </g>
    <g
       id="LWPOLYLINE-6"
       data-name="LWPOLYLINE">
      <polygon
         class="cls-3"
         points="525.63,378.54 441.08,378.54 483.35,353.18 "
         id="polygon19" />
    </g>
    <g
       id="LWPOLYLINE-7"
       data-name="LWPOLYLINE">
      <polygon
         class="cls-3"
         points="352.4,353.18 394.68,378.54 310.12,378.54 "
         id="polygon20" />
    </g>
    <g
       id="LWPOLYLINE-8"
       data-name="LWPOLYLINE">
      <polygon
         class="cls-3"
         points="298.52,320.85 340.8,346.22 298.52,371.58 "
         id="polygon21" />
    </g>
    <g
       id="LWPOLYLINE-9"
       data-name="LWPOLYLINE">
      <polygon
         class="cls-3"
         points="340.8,267.65 298.52,293.01 298.52,242.28 "
         id="polygon22" />
    </g>
    <g
       id="LWPOLYLINE-10"
       data-name="LWPOLYLINE">
      <path
         class="cls-3"
         d="m 366.49,283.06 39.78,23.87 -53.88,32.33 -53.88,-32.33 53.88,-32.33 0.43,0.26 c -0.4,-1.21 -0.6,-2.47 -0.6,-3.74 v -10.54 l -2.94,-1.76 c -2.27,-0.58 -4.31,-1.8 -5.89,-3.53 L 310.1,235.32 h 30.17 v -11.94 h -53.71 v 167.1 h 262.58 v -167.1 h -53.71 v 11.94 h 30.17 c 0,0 -33.29,19.97 -33.29,19.97 -1.57,1.73 -3.62,2.96 -5.89,3.53 l -2.94,1.76 v 10.54 c 0,1.27 -0.2,2.53 -0.6,3.74 l 0.43,-0.26 53.88,32.33 -53.88,32.33 -53.88,-32.33 39.78,-23.87 h -6.63 c -3.59,0 -6.98,-1.61 -9.25,-4.39 l -35.51,21.3 -35.51,-21.3 c -2.27,2.78 -5.66,4.39 -9.25,4.39 h -6.63 z"
         id="path22" />
    </g>
    <g
       id="LWPOLYLINE-11"
       data-name="LWPOLYLINE">
      <polygon
         class="cls-3"
         points="537.23,293.01 494.95,267.65 537.23,242.28 "
         id="polygon23" />
    </g>
    <g
       id="LWPOLYLINE-12"
       data-name="LWPOLYLINE">
      <polygon
         class="cls-3"
         points="494.95,346.22 537.23,320.85 537.23,371.58 "
         id="polygon24" />
    </g>
    <g
       id="LWPOLYLINE-13"
       data-name="LWPOLYLINE">
      <polygon
         class="cls-3"
         points="417.88,313.89 364,346.22 417.88,378.54 471.76,346.22 "
         id="polygon25" />
    </g>
    <g
       id="LWPOLYLINE-14"
       data-name="LWPOLYLINE">
      <rect
         class="cls-3"
         x="352.23001"
         y="241.28999"
         width="131.28999"
         height="5.9699998"
         id="rect25" />
    </g>
    <g
       id="HATCH-3"
       data-name="HATCH">
      <path
         class="cls-6"
         d="m 179.97,556.22 h 475.82 c 16.17,0 29.28,-13.11 29.28,-29.28 V 51.12 c 0,-16.17 -13.11,-29.28 -29.28,-29.28 H 179.97 c -16.17,0 -29.28,13.11 -29.28,29.28 v 475.82 c 0,16.17 13.11,29.28 29.28,29.28 m 0,7.32 h 475.82 c 20.21,0 36.6,-16.39 36.6,-36.6 V 51.12 c 0,-20.21 -16.39,-36.6 -36.6,-36.6 H 179.97 c -20.21,0 -36.6,16.39 -36.6,36.6 v 475.82 c 0,20.21 16.39,36.6 36.6,36.6 z"
         id="path25" />
    </g>
    <g
       id="LWPOLYLINE-15"
       data-name="LWPOLYLINE">
      <rect
         class="cls-3"
         x="143.36"
         y="14.52"
         width="549.03003"
         height="549.03003"
         rx="36.599998"
         ry="36.599998"
         id="rect26" />
    </g>
    <g
       id="LWPOLYLINE-16"
       data-name="LWPOLYLINE">
      <rect
         class="cls-3"
         x="150.69"
         y="21.84"
         width="534.39001"
         height="534.39001"
         rx="29.280001"
         ry="29.280001"
         id="rect27" />
    </g>
  </g>
  <g
     id="sr_Circunferencia_roja"
     data-name="sr_Circunferencia roja"
     transform="translate(-142.86,-14.02)">
    <g
       id="LWPOLYLINE-17"
       data-name="LWPOLYLINE">
      <path
         class="cls-4"
         d="M 568.97,407.76 299.14,137.94 c 69.68,-54.76 167.79,-54.76 237.47,0 83.44,65.58 97.93,186.38 32.35,269.82 z"
         id="path27" />
    </g>
    <g
       id="LWPOLYLINE-18"
       data-name="LWPOLYLINE">
      <path
         class="cls-4"
         d="M 536.61,440.12 266.79,170.29 c -65.58,83.44 -51.09,204.25 32.35,269.82 69.68,54.76 167.79,54.76 237.47,0 z"
         id="path28" />
    </g>
    <g
       id="CIRCLE">
      <circle
         class="cls-4"
         cx="417.88"
         cy="289.03"
         r="237.91"
         id="circle28" />
    </g>
    <g
       id="HATCH-4"
       data-name="HATCH">
      <path
         class="cls-5"
         d="m 655.79,289.03 c 0,-131.4 -106.52,-237.91 -237.91,-237.91 -131.39,0 -237.91,106.52 -237.91,237.91 0,131.4 106.52,237.91 237.91,237.91 131.39,0 237.91,-106.52 237.91,-237.91 M 536.61,440.12 266.79,170.29 c -65.58,83.44 -51.09,204.25 32.35,269.82 69.68,54.76 167.79,54.76 237.47,0 M 568.97,407.76 299.14,137.94 c 69.68,-54.76 167.79,-54.76 237.47,0 83.44,65.58 97.93,186.38 32.35,269.82 z"
         id="path29" />
    </g>
  </g>
</svg>
