<?xml version="1.0" encoding="UTF-8" standalone="no"?>
<!-- Created with Inkscape (http://www.inkscape.org/) -->

<svg
   width="728.26398mm"
   height="728.26398mm"
   viewBox="0 0 728.26398 728.26398"
   version="1.1"
   id="svg28390"
   inkscape:version="1.2.1 (9c6d41e410, 2022-07-14)"
   sodipodi:docname="Mexico road sign SR-06 (2023).svg"
   xmlns:inkscape="http://www.inkscape.org/namespaces/inkscape"
   xmlns:sodipodi="http://sodipodi.sourceforge.net/DTD/sodipodi-0.dtd"
   xmlns="http://www.w3.org/2000/svg"
   xmlns:svg="http://www.w3.org/2000/svg">
  <sodipodi:namedview
     id="namedview28392"
     pagecolor="#ffffff"
     bordercolor="#000000"
     borderopacity="0.25"
     inkscape:showpageshadow="2"
     inkscape:pageopacity="0.0"
     inkscape:pagecheckerboard="0"
     inkscape:deskcolor="#d1d1d1"
     inkscape:document-units="mm"
     showgrid="false"
     inkscape:zoom="0.13480463"
     inkscape:cx="1439.1197"
     inkscape:cy="1198.0301"
     inkscape:window-width="1920"
     inkscape:window-height="991"
     inkscape:window-x="-9"
     inkscape:window-y="-9"
     inkscape:window-maximized="1"
     inkscape:current-layer="layer1" />
  <defs
     id="defs28387" />
  <g
     inkscape:label="Livello 1"
     inkscape:groupmode="layer"
     id="layer1"
     transform="translate(274.61565,264.90068)">
    <g
       id="g9527"
       transform="translate(762.8942,-6483.4325)">
      <path
         sodipodi:type="star"
         style="fill:#000000;stroke-width:2.80001;paint-order:fill markers stroke"
         id="path7727-6-9"
         inkscape:flatsided="true"
         sodipodi:sides="8"
         sodipodi:cx="494.97476"
         sodipodi:cy="26990.26"
         sodipodi:r1="490.15701"
         sodipodi:r2="452.84604"
         sodipodi:arg1="-1.0471976"
         sodipodi:arg2="-0.65449847"
         inkscape:rounded="0"
         inkscape:randomized="0"
         d="m 740.05325,26565.771 228.37682,297.627 -48.96687,371.94 -297.62644,228.377 -371.94048,-48.967 -228.37683,-297.626 48.966875,-371.941 297.626445,-228.377 z"
         transform="matrix(0.79721753,-0.10495567,0.10495567,0.79721753,-3900.7612,-14882.494)"
         inkscape:transform-center-x="0.00047434428"
         inkscape:transform-center-y="-0.0013923287" />
      <path
         sodipodi:type="star"
         style="fill:#ffffff;stroke-width:2.80001;paint-order:fill markers stroke"
         id="path7727-6"
         inkscape:flatsided="true"
         sodipodi:sides="8"
         sodipodi:cx="494.97476"
         sodipodi:cy="26990.26"
         sodipodi:r1="490.15701"
         sodipodi:r2="452.84604"
         sodipodi:arg1="-1.0471976"
         sodipodi:arg2="-0.65449847"
         inkscape:rounded="0"
         inkscape:randomized="0"
         d="m 740.05325,26565.771 228.37682,297.627 -48.96687,371.94 -297.62644,228.377 -371.94048,-48.967 -228.37683,-297.626 48.966875,-371.941 297.626445,-228.377 z"
         transform="matrix(0.79283888,-0.10437921,0.10437921,0.79283888,-3883.0353,-14764.598)"
         inkscape:transform-center-x="0.00043403552"
         inkscape:transform-center-y="-0.00091932064" />
      <path
         sodipodi:type="star"
         style="fill:#bd2025;stroke-width:2.80001;paint-order:fill markers stroke"
         id="path7727-6-2"
         inkscape:flatsided="true"
         sodipodi:sides="8"
         sodipodi:cx="494.97476"
         sodipodi:cy="26990.26"
         sodipodi:r1="490.15701"
         sodipodi:r2="452.84604"
         sodipodi:arg1="-1.0471976"
         sodipodi:arg2="-0.65449847"
         inkscape:rounded="0"
         inkscape:randomized="0"
         d="m 740.05325,26565.771 228.37682,297.627 -48.96687,371.94 -297.62644,228.377 -371.94048,-48.967 -228.37683,-297.626 48.966875,-371.941 297.626445,-228.377 z"
         transform="matrix(0.72715788,-0.09573214,0.09573214,0.72715788,-3617.138,-12996.131)"
         inkscape:transform-center-x="0.0004692854"
         inkscape:transform-center-y="-0.0010291595" />
      <path
         d="m -813.11619,6694.9332 h -50.37044 l -3.44158,-37.2305 h -32.22448 l -4.3802,37.2305 h -49.43181 l 41.92315,-224.6343 h 59.4436 z m -57.56635,-71.6462 -10.01143,-119.8252 h -4.38002 l -10.01161,119.8252 z"
         style="-inkscape-font-specification:'MEXICO Serie3 Bold';fill:#ffffff;stroke-width:66.218;paint-order:fill markers stroke"
         id="path9400" />
      <path
         d="m -691.41347,6694.9332 h -97.61242 v -224.6343 h 46.92905 v 183.9617 h 50.68337 z"
         style="-inkscape-font-specification:'MEXICO Serie3 Bold';fill:#ffffff;stroke-width:66.218;paint-order:fill markers stroke"
         id="path9402" />
      <path
         d="m -644.55805,6510.346 -39.73331,-0.3162 v -39.7326 h 125.45705 v 39.7326 l -38.79469,0.3162 v 184.9 h -46.92905 z"
         style="-inkscape-font-specification:'MEXICO Serie3 Bold';fill:#ffffff;stroke-width:66.218;paint-order:fill markers stroke"
         id="path9405" />
      <path
         d="m -391.04699,6585.1181 q 0,63.5111 -20.02304,87.915 -20.02304,24.0894 -54.12477,24.0894 -35.04036,0 -56.00202,-24.4021 -20.64891,-24.7167 -20.64891,-90.1043 0,-60.3817 20.96166,-87.6005 20.96167,-27.2188 55.37634,-27.2188 34.10173,0 54.12477,27.5316 20.33597,27.5315 20.33597,89.7897 z m -48.49336,-2.502 q 0,-28.7826 -2.50295,-45.0513 -2.50277,-16.2687 -8.13435,-23.1529 -5.63141,-7.1952 -15.64302,-7.1952 -10.01143,0 -16.2687,7.1952 -5.94435,7.197 -8.76005,23.7784 -2.8157,16.5815 -2.8157,45.364 0,39.7327 6.57003,57.2542 6.57003,17.5197 21.27442,17.5197 10.01161,0 15.64302,-7.508 5.63158,-7.8224 8.13435,-24.0911 2.50295,-16.5815 2.50295,-44.113 z"
         style="-inkscape-font-specification:'MEXICO Serie3 Bold';fill:#ffffff;stroke-width:66.218;paint-order:fill markers stroke"
         id="path9407" />
    </g>
  </g>
</svg>
