<?xml version="1.0" encoding="UTF-8" standalone="no"?>
<!-- Created with Inkscape (http://www.inkscape.org/) -->

<svg
   width="860mm"
   height="976.12848mm"
   viewBox="0 0 860 976.12848"
   version="1.1"
   id="svg32643"
   inkscape:version="1.2.1 (9c6d41e410, 2022-07-14)"
   sodipodi:docname="Mexico road sign SR-07A + SR-G1 (2023).svg"
   xmlns:inkscape="http://www.inkscape.org/namespaces/inkscape"
   xmlns:sodipodi="http://sodipodi.sourceforge.net/DTD/sodipodi-0.dtd"
   xmlns="http://www.w3.org/2000/svg"
   xmlns:svg="http://www.w3.org/2000/svg">
  <sodipodi:namedview
     id="namedview32645"
     pagecolor="#ffffff"
     bordercolor="#000000"
     borderopacity="0.25"
     inkscape:showpageshadow="2"
     inkscape:pageopacity="0.0"
     inkscape:pagecheckerboard="0"
     inkscape:deskcolor="#d1d1d1"
     inkscape:document-units="mm"
     showgrid="false"
     inkscape:zoom="0.095321268"
     inkscape:cx="1699.5158"
     inkscape:cy="1652.307"
     inkscape:window-width="1920"
     inkscape:window-height="991"
     inkscape:window-x="-9"
     inkscape:window-y="-9"
     inkscape:window-maximized="1"
     inkscape:current-layer="layer1" />
  <defs
     id="defs32640" />
  <g
     inkscape:label="Livello 1"
     inkscape:groupmode="layer"
     id="layer1"
     transform="translate(342.56538,395.7722)">
    <g
       id="g32614"
       transform="translate(6927.7647,-9116.7814)">
      <rect
         style="fill:#ffffff;stroke:#000000;stroke-width:24;paint-order:fill markers stroke"
         id="rect12626"
         width="836"
         height="276"
         x="-7258.3301"
         y="9409.1377"
         rx="38"
         ry="38" />
      <g
         id="g8958-5-6"
         transform="matrix(1,0,0,-1,-7369.1275,10305.829)">
        <path
           id="path4354-5-6"
           style="fill:#be0018;stroke-width:4.23379;stroke-opacity:0.578462;paint-order:fill markers stroke"
           d="m 528.79635,908.69206 c -6.69869,0 -13.23812,1.11678 -19.39106,3.21893 -8.61434,2.94296 -16.4703,7.81739 -22.94382,14.26217 -0.92469,0.92059 -1.82126,1.87306 -2.68769,2.85668 -9e-5,9e-5 8e-5,4.2e-4 0,5.1e-4 -0.86643,0.98363 -1.70333,1.99816 -2.50786,3.04271 -8e-5,1.1e-4 8e-5,4.1e-4 0,5.2e-4 -1.60913,2.08923 -3.09107,4.29783 -4.43074,6.6182 -7e-5,1.3e-4 8e-5,3.9e-4 0,5.2e-4 l -321.07652,556.1211 h -5.2e-4 c -0.60282,1.0441 -1.1605,2.1057 -1.6955,3.1755 -0.15977,0.3195 -0.31034,0.6417 -0.46406,0.9633 -0.38173,0.7985 -0.74438,1.603 -1.08882,2.4138 -0.13614,0.3204 -0.27534,0.6394 -0.40566,0.9617 -0.44488,1.1 -0.86738,2.2067 -1.24437,3.3253 -0.83734,2.4846 -1.50729,5.0115 -2.0097,7.5634 -0.5024,2.5519 -0.83712,5.1287 -1.00459,7.7143 -0.0837,1.2928 -0.12557,2.5875 -0.12557,3.8824 -2e-5,2.5899 0.16734,5.1794 0.5023,7.7525 v 5e-4 c 0.16745,1.2863 0.3767,2.5685 0.62786,3.8442 0.0472,0.2396 0.11474,0.4756 0.16485,0.7147 0.003,0.013 0.007,0.026 0.009,0.04 0.23787,1.131 0.49913,2.2581 0.80306,3.3771 0.30785,1.1518 0.64999,2.2968 1.03249,3.4318 0.41867,1.2423 0.87943,2.4737 1.38183,3.6928 0.15625,0.3792 0.34362,0.7483 0.50798,1.125 0.70785,1.6222 1.49216,3.2188 2.35024,4.7883 0.001,0 0.002,0 0.003,0.01 0.22294,0.4077 0.42268,0.8241 0.65577,1.2278 v 6e-4 c 0.41698,0.7222 0.87215,1.4137 1.3162,2.114 0.26921,0.4247 0.51898,0.8652 0.79788,1.2816 h 5.2e-4 v 5e-4 c 0.73899,1.1034 1.51162,2.1775 2.31614,3.2221 v 5e-4 c 0.80453,1.0445 1.64143,2.0591 2.50785,3.0427 v 5e-4 c 2.59947,2.9511 5.46922,5.6229 8.56021,7.9876 l 5.1e-4,5e-4 c 0.004,0 0.008,0.01 0.0119,0.01 1.17394,0.8977 2.3875,1.7387 3.62252,2.5461 0.38798,0.2537 0.78663,0.4882 1.18029,0.7328 0.87772,0.5453 1.76551,1.0717 2.67012,1.5709 0.45732,0.2524 0.91695,0.4981 1.38079,0.7385 0.91277,0.4731 1.83892,0.9181 2.77554,1.3441 0.42877,0.195 0.85222,0.399 1.28571,0.584 1.36149,0.5809 2.73944,1.1262 4.14393,1.6061 1.10625,0.3779 2.22855,0.7133 3.35846,1.0268 0.33815,0.094 0.67893,0.1781 1.01906,0.2661 0.83857,0.2169 1.68236,0.4156 2.53214,0.5963 0.34457,0.073 0.68775,0.1498 1.03405,0.2171 1.15869,0.2252 2.3238,0.4279 3.50004,0.585 1.30701,0.1744 2.62392,0.3065 3.94911,0.3948 1.32518,0.088 2.65855,0.1328 3.99821,0.1328 h 5.2e-4 v -5e-4 h 642.15356 v 5e-4 h 5.2e-4 c 2.67914,0 5.3331,-0.1788 7.9468,-0.5276 1.7e-4,-1e-4 3.5e-4,0 5.2e-4,0 1.17624,-0.1571 2.34135,-0.3598 3.50004,-0.585 0.3463,-0.067 0.68948,-0.1437 1.03405,-0.2171 0.84978,-0.1807 1.69357,-0.3794 2.53215,-0.5963 0.34031,-0.088 0.68122,-0.1728 1.01957,-0.2666 1.12376,-0.3118 2.24,-0.6451 3.34037,-1.0207 0.006,0 0.0118,0 0.0176,-0.01 1.5e-4,-1e-4 3.6e-4,0 5.1e-4,0 1.4045,-0.4799 2.78193,-1.0252 4.14342,-1.6061 0.43349,-0.185 0.85694,-0.389 1.28571,-0.584 0.93663,-0.426 1.86277,-0.871 2.77554,-1.3441 0.46384,-0.2404 0.92347,-0.4861 1.38079,-0.7385 0.90461,-0.4992 1.7924,-1.0256 2.67013,-1.5709 0.39365,-0.2446 0.7923,-0.4791 1.18029,-0.7328 1.23501,-0.8074 2.44857,-1.6484 3.62251,-2.5461 0.004,0 0.008,-0.01 0.0124,-0.01 1.03037,-0.7882 2.03592,-1.6104 3.01532,-2.466 0.97948,-0.8556 1.93234,-1.7442 2.85719,-2.6649 0.92469,-0.9206 1.82124,-1.8731 2.68769,-2.8567 0.47516,-0.5394 0.91831,-1.1107 1.37511,-1.6686 0.37638,-0.4597 0.7692,-0.9031 1.13274,-1.3751 0.80447,-1.0445 1.5772,-2.1188 2.31614,-3.2221 0.27904,-0.4166 0.52906,-0.8572 0.7984,-1.2821 0.44405,-0.7003 0.89922,-1.3918 1.3162,-2.114 7e-5,-2e-4 -7e-5,-4e-4 0,-6e-4 0.23413,-0.4055 0.43446,-0.8239 0.65836,-1.2335 0.85809,-1.5695 1.6424,-3.1661 2.35024,-4.7883 0.16436,-0.3767 0.35173,-0.7458 0.50798,-1.125 0.50241,-1.2191 0.96316,-2.4505 1.38183,-3.6928 0.38171,-1.1326 0.72359,-2.2752 1.03094,-3.4246 0.30607,-1.1263 0.56909,-2.2608 0.80822,-3.3993 0.31942,-1.5207 0.59841,-3.0479 0.7984,-4.5842 0.16747,-1.2864 0.29303,-2.5768 0.37673,-3.8695 0.16748,-2.5858 0.16749,-5.1797 0,-7.7654 -0.0837,-1.2928 -0.20926,-2.5831 -0.37673,-3.8696 -0.16745,-1.2864 -0.37667,-2.5688 -0.62786,-3.8447 -0.50241,-2.5519 -1.17236,-5.0788 -2.0097,-7.5634 -0.37824,-1.1223 -0.80192,-2.2326 -1.2485,-3.3362 -0.12654,-0.3127 -0.26176,-0.6222 -0.39378,-0.9333 -0.34801,-0.8199 -0.71508,-1.6332 -1.10122,-2.4406 -0.15195,-0.3178 -0.30052,-0.6362 -0.45837,-0.9519 -0.5353,-1.0705 -1.09334,-2.1329 -1.69654,-3.1776 h -5.2e-4 L 580.75804,938.6923 c -8e-5,-1.3e-4 7e-5,-3.9e-4 0,-5.2e-4 -0.6698,-1.16012 -1.37511,-2.29227 -2.11408,-3.39566 -8e-5,-1.1e-4 7e-5,-4e-4 0,-5.1e-4 -1.47806,-2.20691 -3.09106,-4.29791 -4.824,-6.26526 -0.86651,-0.98372 -1.76344,-1.93651 -2.68821,-2.85719 -6.47352,-6.44478 -14.32948,-11.31921 -22.94382,-14.26217 -4.92225,-1.68162 -10.09222,-2.73293 -15.39286,-3.08612 -1.7e-4,-1e-5 -3.4e-4,10e-6 -5.1e-4,0 -1.32521,-0.0883 -2.65846,-0.13281 -3.99821,-0.13281 z"
           sodipodi:nodetypes="sssscscscccssssssssssscccsssccccscccccccsccssssssssscsscsccccsscscsscscssssssccsssssssscsssscsssssssssssccccscsssscs" />
        <path
           sodipodi:type="star"
           style="fill:#ffffff;stroke-width:4.87101;stroke-opacity:0.578462;paint-order:fill markers stroke"
           id="path4567-6-3"
           inkscape:flatsided="true"
           sodipodi:sides="3"
           sodipodi:cx="893.03619"
           sodipodi:cy="1325.4637"
           sodipodi:r1="304.73352"
           sodipodi:r2="152.36676"
           sodipodi:arg1="2.6179939"
           sodipodi:arg2="3.6651914"
           inkscape:rounded="0"
           inkscape:randomized="0"
           d="m 629.12922,1477.8305 263.90698,-457.1003 263.907,457.1003 z"
           inkscape:transform-center-x="-1.0150811e-05"
           inkscape:transform-center-y="-80.186934"
           transform="matrix(1.0525508,0,0,1.0525502,-411.16898,-55.670809)" />
      </g>
      <g
         id="g32597">
        <path
           d="m -7134.0773,9576.6576 q -4.1611,2.7402 -9.7429,4.0596 -5.5818,1.3193 -14.2083,1.3193 -10.6563,0 -17.7604,-5.1759 -7.1042,-5.1759 -10.4533,-13.1934 -3.3491,-8.1191 -3.3491,-16.9485 0,-18.5723 8.0176,-28.8226 8.0175,-10.3518 24.763,-10.3518 7.2057,0 12.686,1.6238 5.5819,1.5224 10.0474,4.9729 l -5.2774,10.8593 q -5.0744,-2.2328 -8.1191,-3.1462 -3.0446,-0.9134 -8.6264,-0.9134 -9.5399,0 -13.9039,6.7997 -4.2625,6.6982 -4.2625,15.7307 0,10.6562 3.8566,17.9633 3.958,7.3072 13.3964,7.3072 6.4952,-0.1015 10.4532,-1.0149 3.9581,-1.0149 7.8146,-3.3491 z"
           style="-inkscape-font-specification:'MEXICO Serie1.5 Bold';stroke-width:23.0146;stroke-opacity:0.683077;paint-order:fill markers stroke"
           id="path32499" />
        <path
           d="m -7085.566,9537.8892 v 12.3816 h -21.6169 v 18.0648 h 33.5925 v 12.889 h -48.5113 v -72.8684 h 48.3083 v 12.889 h -33.3895 v 16.644 z"
           style="-inkscape-font-specification:'MEXICO Serie1.5 Bold';stroke-width:23.0146;stroke-opacity:0.683077;paint-order:fill markers stroke"
           id="path32501" />
        <path
           d="m -7034.9236,9508.3562 q 16.7455,0 25.2705,10.0473 8.6265,10.0473 8.6265,27.7063 0,8.525 -2.9431,16.5425 -2.9432,8.0176 -10.1488,13.3964 -7.1042,5.2774 -18.9783,5.2774 l -25.7779,-0.1015 v -72.8684 z m 1.0149,60.1824 q 10.4533,-0.1015 14.2083,-7.7131 3.8566,-7.6116 3.8566,-17.8619 0,-5.0744 -1.9283,-10.0473 -1.9283,-5.0744 -6.1908,-8.525 -4.161,-3.4506 -10.6562,-3.4506 h -9.3369 v 47.6994 z"
           style="-inkscape-font-specification:'MEXICO Serie1.5 Bold';stroke-width:23.0146;stroke-opacity:0.683077;paint-order:fill markers stroke"
           id="path32503" />
        <path
           d="m -6951.0946,9581.2246 -4.9729,-17.7604 h -20.3991 l -5.3788,17.7604 h -16.0351 l 22.9363,-72.8684 h 17.9633 l 22.3274,72.8684 z m -13.4979,-57.8482 h -2.0297 l -6.9012,28.9241 h 14.4113 z"
           style="-inkscape-font-specification:'MEXICO Serie1.5 Bold';stroke-width:23.0146;stroke-opacity:0.683077;paint-order:fill markers stroke"
           id="path32505" />
        <path
           d="m -6851.2302,9537.8892 v 12.3816 h -21.617 v 18.0648 h 33.5926 v 12.889 h -48.5113 v -72.8684 h 48.3083 v 12.889 h -33.3896 v 16.644 z"
           style="-inkscape-font-specification:'MEXICO Serie1.5 Bold';stroke-width:23.0146;stroke-opacity:0.683077;paint-order:fill markers stroke"
           id="path32507" />
        <path
           d="m -6824.539,9581.2246 v -72.8684 h 15.2232 v 59.675 h 27.4018 v 13.1934 z"
           style="-inkscape-font-specification:'MEXICO Serie1.5 Bold';stroke-width:23.0146;stroke-opacity:0.683077;paint-order:fill markers stroke"
           id="path32509" />
        <path
           d="m -6705.0875,9508.3562 q 13.1934,0 19.3842,7.4087 6.2922,7.3071 6.2922,19.0797 0,7.6116 -3.552,12.9905 -3.5521,5.3788 -9.5399,8.119 -5.8863,2.7402 -12.889,2.6387 l -11.3666,-0.1015 v 22.7333 h -15.2232 v -72.8684 z m -1.7253,37.5506 q 5.8863,0 9.0324,-3.3491 3.1461,-3.4506 3.1461,-8.4235 0,-5.7848 -3.1461,-9.4384 -3.0446,-3.7551 -9.7428,-3.7551 h -9.2354 v 24.9661 z"
           style="-inkscape-font-specification:'MEXICO Serie1.5 Bold';stroke-width:23.0146;stroke-opacity:0.683077;paint-order:fill markers stroke"
           id="path32511" />
        <path
           d="m -6635.8727,9581.2246 -4.9729,-17.7604 h -20.3991 l -5.3789,17.7604 h -16.0351 l 22.9363,-72.8684 h 17.9634 l 22.3273,72.8684 z m -13.4979,-57.8482 h -2.0298 l -6.9012,28.9241 h 14.4113 z"
           style="-inkscape-font-specification:'MEXICO Serie1.5 Bold';stroke-width:23.0146;stroke-opacity:0.683077;paint-order:fill markers stroke"
           id="path32513" />
        <path
           d="m -6589.0867,9569.452 q 6.0893,0 9.9458,-1.6238 3.8566,-1.7253 3.8566,-6.4952 0,-3.2477 -3.4506,-5.3789 -3.3491,-2.2327 -8.322,-3.8565 l -5.2774,-2.0298 q -7.6116,-2.9432 -11.6711,-4.9729 -3.9581,-2.1313 -6.7997,-6.0893 -2.8417,-3.958 -2.8417,-10.2503 0,-7.2056 3.8566,-12.0771 3.8565,-4.8714 10.0473,-7.2056 6.1907,-2.3342 13.3964,-2.3342 7.0026,0 12.3815,1.4208 5.3789,1.4208 10.1488,4.2625 l -5.0744,10.6562 q -3.5521,-1.8267 -7.9161,-2.7401 -4.2624,-0.9134 -10.1488,-0.9134 -4.9729,0 -8.7279,1.8268 -3.6536,1.8267 -3.6536,5.9877 0,3.1462 2.1313,5.0744 2.1312,1.8268 5.0744,2.8417 l 10.3517,3.4506 q 5.6834,2.1312 10.0473,4.567 4.364,2.3342 7.6116,6.3937 3.3492,3.958 3.3492,9.7429 0,7.4086 -3.6536,12.483 -3.6536,5.0744 -9.7429,7.5101 -5.9878,2.4357 -13.3964,2.4357 -7.7131,0 -15.4262,-2.2327 -7.713,-2.2328 -12.077,-5.7849 l 4.9729,-10.8592 q 11.3666,6.1908 21.008,6.1908 z"
           style="-inkscape-font-specification:'MEXICO Serie1.5 Bold';stroke-width:23.0146;stroke-opacity:0.683077;paint-order:fill markers stroke"
           id="path32515" />
        <path
           d="m -6487.3956,9544.7904 q 0.1014,20.8051 -9.0325,29.0256 -9.0324,8.2205 -22.4288,8.2205 -13.4979,0 -22.8348,-8.119 -9.3369,-8.2206 -9.3369,-29.1271 0,-19.6887 8.6265,-28.5181 8.7279,-8.8295 23.5452,-8.8295 13.9038,0 22.6318,8.931 8.8295,8.9309 8.8295,28.4166 z m -15.4262,0 q 0,-9.3369 -1.6238,-14.6143 -1.6238,-5.2773 -5.2774,-7.6116 -3.5521,-2.3342 -9.7428,-2.3342 -5.8864,0 -9.4384,2.4357 -3.4506,2.3343 -5.0744,7.7131 -1.6238,5.3789 -1.6238,14.7158 0,12.5845 4.161,18.4708 4.161,5.8863 12.28,5.8863 8.1191,0 12.1786,-5.8863 4.161,-5.8863 4.161,-18.7753 z"
           style="-inkscape-font-specification:'MEXICO Serie1.5 Bold';stroke-width:23.0146;stroke-opacity:0.683077;paint-order:fill markers stroke"
           id="path32517" />
      </g>
    </g>
  </g>
</svg>
