<?xml version="1.0" encoding="UTF-8" standalone="no"?>
<!-- Created with Inkscape (http://www.inkscape.org/) -->

<svg
   width="710mm"
   height="710mm"
   viewBox="0 0 710 710"
   version="1.1"
   id="svg55419"
   inkscape:version="1.2.1 (9c6d41e410, 2022-07-14)"
   sodipodi:docname="Mexico road sign SR08 (2023).svg"
   xmlns:inkscape="http://www.inkscape.org/namespaces/inkscape"
   xmlns:sodipodi="http://sodipodi.sourceforge.net/DTD/sodipodi-0.dtd"
   xmlns="http://www.w3.org/2000/svg"
   xmlns:svg="http://www.w3.org/2000/svg">
  <sodipodi:namedview
     id="namedview55421"
     pagecolor="#ffffff"
     bordercolor="#000000"
     borderopacity="0.25"
     inkscape:showpageshadow="2"
     inkscape:pageopacity="0.0"
     inkscape:pagecheckerboard="0"
     inkscape:deskcolor="#d1d1d1"
     inkscape:document-units="mm"
     showgrid="false"
     inkscape:zoom="0.76257015"
     inkscape:cx="1574.2814"
     inkscape:cy="1044.4941"
     inkscape:window-width="1920"
     inkscape:window-height="991"
     inkscape:window-x="-9"
     inkscape:window-y="-9"
     inkscape:window-maximized="1"
     inkscape:current-layer="layer1" />
  <defs
     id="defs55416" />
  <g
     inkscape:label="Livello 1"
     inkscape:groupmode="layer"
     id="layer1"
     transform="translate(311.28271,285.26045)">
    <g
       id="g5916"
       transform="translate(26.99582,-12446.154)">
      <rect
         style="fill:#000000;stroke-width:3.68415;stroke-opacity:0.578462;paint-order:fill markers stroke"
         id="rect20798-0-5-8-2-5-5"
         width="710"
         height="710"
         x="-338.27853"
         y="-12870.894"
         ry="40"
         rx="40"
         transform="scale(1,-1)" />
      <rect
         style="fill:#ffffff;stroke-width:3.58037;stroke-opacity:0.578462;paint-order:fill markers stroke"
         id="rect20798-4-7-7-8-0-7-0"
         width="690"
         height="690"
         x="-328.27829"
         y="-12860.894"
         ry="30"
         rx="30"
         transform="scale(1,-1)" />
      <g
         id="g25102-9-5-6-0-7-55"
         transform="matrix(0,-1,-1,0,3032.1936,12870.894)">
        <circle
           style="fill:#be0018;stroke-width:6.548;stroke-opacity:0.578462;paint-order:fill markers stroke"
           id="path23624-7-9-1-5-3-5"
           cx="3015.4722"
           cy="-355"
           r="310"
           transform="rotate(90)" />
        <circle
           style="fill:#ffffff;stroke-width:5.28036;stroke-opacity:0.578462;paint-order:fill markers stroke"
           id="path23624-1-9-9-2-4-6-0"
           cx="355.00046"
           cy="3015.4727"
           r="250" />
      </g>
      <path
         id="path5387"
         style="fill:#000000;stroke-width:25.1706;stroke-linejoin:bevel;stroke-opacity:0.738462;paint-order:fill markers stroke"
         d="m -102.7019,12477.477 v 69.001 H 39.778263 c 5.05078,0 10.76565,-0.169 10.75539,9.068 v 4.627 H -102.7019 v 1.683 c -4.5721,17.061 -24.6213,36.006 -40.4303,42.585 -15.9251,4.812 -6.5859,18.39 1.5389,19.063 h 38.3089 c 23.840898,-4.846 44.401298,-18.02 58.524098,-32.591 H 187.02298 v -52.882 z" />
      <path
         style="fill:#000000;stroke-width:25.1706;stroke-linejoin:bevel;stroke-opacity:0.738462;paint-order:fill markers stroke"
         d="m -85.695102,12393.569 311.704942,106.959 c -5.42396,13.006 -27.24584,27.29 -44.77744,22.596 l -283.0128,-58.687 c 0,0 -36.2665,-11.205 -27.3883,-44.334 8.8782,-33.146 43.473598,-26.534 43.473598,-26.534 z"
         id="path5661"
         sodipodi:nodetypes="cccczc" />
    </g>
  </g>
</svg>
