<?xml version="1.0" encoding="UTF-8" standalone="no"?>
<svg
   viewBox="0 0 550.03003 550.03006"
   version="1.1"
   id="svg25"
   sodipodi:docname="SR-9_100_30x30.svg"
   width="550.03003"
   height="550.03003"
   inkscape:version="1.4.2 (f4327f4, 2025-05-13)"
   xmlns:inkscape="http://www.inkscape.org/namespaces/inkscape"
   xmlns:sodipodi="http://sodipodi.sourceforge.net/DTD/sodipodi-0.dtd"
   xmlns="http://www.w3.org/2000/svg"
   xmlns:svg="http://www.w3.org/2000/svg">
  <sodipodi:namedview
     id="namedview25"
     pagecolor="#50505000"
     bordercolor="#ffffffff"
     borderopacity="1"
     inkscape:showpageshadow="0"
     inkscape:pageopacity="0"
     inkscape:pagecheckerboard="1"
     inkscape:deskcolor="#505050ff"
     inkscape:zoom="0.45249285"
     inkscape:cx="275.14247"
     inkscape:cy="531.50011"
     inkscape:window-width="1366"
     inkscape:window-height="697"
     inkscape:window-x="-8"
     inkscape:window-y="-8"
     inkscape:window-maximized="1"
     inkscape:current-layer="svg25" />
  <defs
     id="defs1">
    <style
       id="style1">
      .cls-1, .cls-2 {
        fill: #fff;
      }

      .cls-2, .cls-3 {
        stroke: #000;
      }

      .cls-2, .cls-3, .cls-4 {
        stroke-linecap: round;
        stroke-linejoin: round;
      }

      .cls-5 {
        fill: #bd2025;
      }

      .cls-5, .cls-6 {
        fill-rule: evenodd;
      }

      .cls-3, .cls-4 {
        fill: none;
      }

      .cls-4 {
        stroke: #bd2025;
      }
    </style>
  </defs>
  <g
     id="sr_Fondo_del_tablero"
     data-name="sr_Fondo del tablero"
     transform="translate(-142.89,-14.02)">
    <g
       id="HATCH">
      <rect
         class="cls-1"
         x="150.71001"
         y="21.84"
         width="534.39001"
         height="534.39001"
         rx="29.280001"
         ry="29.280001"
         id="rect3" />
    </g>
  </g>
  <g
     id="MTEXT-2"
     data-name="MTEXT"
     transform="translate(-142.89,-14.02)">
    <g
       id="g9">
      <path
         d="M 335.19,165.04 V 348.57 H 300.54 V 201.49 l -25,3.1 -5.45,-23.52 35.89,-16.03 z"
         id="path7" />
      <path
         d="m 359.56,186.75 c 8.83,-15.85 22.4,-23.78 40.71,-23.78 18.31,0 32.09,7.84 40.84,23.52 8.74,15.68 13.12,39.9 13.12,72.64 0,32.74 -4.29,56.22 -12.87,71.47 -8.58,15.25 -22.27,22.88 -41.08,22.88 -18.81,0 -32.3,-7.63 -40.96,-22.88 -8.66,-15.25 -12.99,-39.07 -12.99,-71.47 0,-32.4 4.41,-56.52 13.24,-72.38 z m 27.35,122.4 c 3.13,10.25 7.83,15.38 14.11,15.38 6.28,0 10.97,-5.12 14.11,-15.38 3.13,-10.25 4.7,-26.92 4.7,-50.02 0,-23.1 -1.49,-40.71 -4.46,-51.31 -2.97,-10.6 -7.76,-15.9 -14.35,-15.9 -6.59,0 -11.38,5.26 -14.35,15.77 -2.97,10.51 -4.46,27.66 -4.46,51.44 0,23.78 1.57,39.77 4.7,50.02 z"
         id="path8" />
      <path
         d="m 477.37,186.75 c 8.82,-15.85 22.4,-23.78 40.71,-23.78 18.31,0 32.09,7.84 40.84,23.52 8.74,15.68 13.12,39.9 13.12,72.64 0,32.74 -4.29,56.22 -12.87,71.47 -8.58,15.25 -22.28,22.88 -41.08,22.88 -18.8,0 -32.3,-7.63 -40.96,-22.88 -8.66,-15.25 -12.99,-39.07 -12.99,-71.47 0,-32.4 4.41,-56.52 13.24,-72.38 z m 27.35,122.4 c 3.13,10.25 7.83,15.38 14.11,15.38 6.28,0 10.97,-5.12 14.11,-15.38 3.13,-10.25 4.7,-26.92 4.7,-50.02 0,-23.1 -1.49,-40.71 -4.46,-51.31 -2.97,-10.6 -7.76,-15.9 -14.36,-15.9 -6.6,0 -11.38,5.26 -14.36,15.77 -2.97,10.51 -4.45,27.66 -4.45,51.44 0,23.78 1.57,39.77 4.7,50.02 z"
         id="path9" />
    </g>
  </g>
  <g
     id="HATCH-2"
     data-name="HATCH"
     transform="translate(-142.89,-14.02)">
    <path
       class="cls-6"
       d="m 180,556.22 h 475.82 c 16.17,0 29.28,-13.11 29.28,-29.28 V 51.12 c 0,-16.17 -13.11,-29.28 -29.28,-29.28 H 180 c -16.17,0 -29.28,13.11 -29.28,29.28 v 475.82 c 0,16.17 13.11,29.28 29.28,29.28 m 0,7.32 h 475.82 c 20.21,0 36.6,-16.39 36.6,-36.6 V 51.12 c 0,-20.21 -16.39,-36.6 -36.6,-36.6 H 180 c -20.21,0 -36.6,16.39 -36.6,36.6 v 475.82 c 0,20.21 16.39,36.6 36.6,36.6 z"
       id="path10" />
  </g>
  <g
     id="LWPOLYLINE"
     transform="translate(-142.89,-14.02)">
    <rect
       class="cls-3"
       x="143.39"
       y="14.52"
       width="549.03003"
       height="549.03003"
       rx="36.599998"
       ry="36.599998"
       id="rect10" />
  </g>
  <g
     id="LWPOLYLINE-2"
     data-name="LWPOLYLINE"
     transform="translate(-142.89,-14.02)">
    <rect
       class="cls-3"
       x="150.71001"
       y="21.84"
       width="534.39001"
       height="534.39001"
       rx="29.280001"
       ry="29.280001"
       id="rect11" />
  </g>
  <g
     id="sr_Circunferencia_roja"
     data-name="sr_Circunferencia roja"
     transform="translate(-142.89,-14.02)">
    <g
       id="CIRCLE">
      <circle
         class="cls-4"
         cx="417.91"
         cy="289.03"
         r="237.91"
         id="circle24" />
    </g>
    <g
       id="CIRCLE-2"
       data-name="CIRCLE">
      <circle
         class="cls-4"
         cx="417.91"
         cy="289.03"
         r="192.16"
         id="circle25" />
    </g>
    <g
       id="HATCH-3"
       data-name="HATCH">
      <path
         class="cls-5"
         d="m 610.07,289.03 c 0,-106.13 -86.03,-192.16 -192.16,-192.16 -106.13,0 -192.16,86.03 -192.16,192.16 0,106.13 86.03,192.16 192.16,192.16 106.13,0 192.16,-86.03 192.16,-192.16 m 45.75,0 C 655.82,157.63 549.3,51.12 417.91,51.12 286.52,51.12 180,157.64 180,289.03 c 0,131.39 106.52,237.91 237.91,237.91 131.4,0 237.91,-106.52 237.91,-237.91 z"
         id="path25" />
    </g>
  </g>
  <g
     id="g1">
    <path
       d="m 218.83999,395.85 9.83,-9.98 h 6.83 l -12.15,12.05 12.41,15.46 h -6.62 l -10.34,-13.19 0.05,13.19 h -5.43 v -41.11 h 5.43 v 23.58 z"
       id="path16" />
    <path
       d="m 268.81999,394.81 c 0,-4.08 -1.81,-5.43 -3.93,-5.43 -2.59,0 -4.91,1.55 -4.91,1.55 v 22.44 h -5.43 v -17.79 c 0,-2.33 0,-6.21 -4.34,-6.21 -1.97,0 -4.4,1.55 -4.4,1.55 l -0.1,22.44 h -5.27 v -22.55 l -0.36,-4.96 h 4.71 l 0.52,2.38 c 1.91,-1.96 3.83,-3.1 6.62,-3.1 3.98,0 5.38,1.91 6,3.52 1.19,-1.09 4.65,-3.52 8.58,-3.52 5.38,0 7.86,3.15 7.86,9.2 v 19.03 h -5.53 V 394.8 Z"
       id="path18" />
    <path
       d="m 291.15999,414.36 h -5.27 l 11.74,-39.09 h 5.27 z"
       id="path20" />
    <path
       d="m 331.68999,395.12 c 0,-2.02 -0.1,-5.43 -4.71,-5.43 -2.43,0 -7.08,1.91 -7.08,1.91 l 0.05,21.77 h -5.38 l -0.05,-41.06 5.33,-0.05 v 15.62 c 0,0 3.83,-2.74 7.6,-2.74 5.38,0 9.57,3.15 9.57,9.2 v 19.03 h -5.33 z"
       id="path22" />
  </g>
</svg>
