<?xml version="1.0" encoding="UTF-8" standalone="no"?>
<svg
   viewBox="0 0 550.03003 550.03006"
   version="1.1"
   id="svg24"
   sodipodi:docname="SR-9_30_30x30.svg"
   width="550.03003"
   height="550.03003"
   inkscape:version="1.4.2 (f4327f4, 2025-05-13)"
   xmlns:inkscape="http://www.inkscape.org/namespaces/inkscape"
   xmlns:sodipodi="http://sodipodi.sourceforge.net/DTD/sodipodi-0.dtd"
   xmlns="http://www.w3.org/2000/svg"
   xmlns:svg="http://www.w3.org/2000/svg">
  <sodipodi:namedview
     id="namedview24"
     pagecolor="#50505000"
     bordercolor="#ffffffff"
     borderopacity="1"
     inkscape:showpageshadow="0"
     inkscape:pageopacity="0"
     inkscape:pagecheckerboard="1"
     inkscape:deskcolor="#505050ff"
     inkscape:zoom="0.45249285"
     inkscape:cx="275.14247"
     inkscape:cy="529.29013"
     inkscape:window-width="1366"
     inkscape:window-height="697"
     inkscape:window-x="-8"
     inkscape:window-y="-8"
     inkscape:window-maximized="1"
     inkscape:current-layer="svg24" />
  <defs
     id="defs1">
    <style
       id="style1">
      .cls-1, .cls-2 {
        fill: #fff;
      }

      .cls-2, .cls-3 {
        stroke: #000;
      }

      .cls-2, .cls-3, .cls-4 {
        stroke-linecap: round;
        stroke-linejoin: round;
      }

      .cls-5 {
        fill: #bd2025;
      }

      .cls-5, .cls-6 {
        fill-rule: evenodd;
      }

      .cls-3, .cls-4 {
        fill: none;
      }

      .cls-4 {
        stroke: #bd2025;
      }
    </style>
  </defs>
  <g
     id="sr_Fondo_del_tablero"
     data-name="sr_Fondo del tablero"
     transform="translate(-142.89,-14.02)">
    <g
       id="HATCH">
      <rect
         class="cls-1"
         x="150.71001"
         y="21.84"
         width="534.39001"
         height="534.39001"
         rx="29.280001"
         ry="29.280001"
         id="rect3" />
    </g>
  </g>
  <g
     id="HATCH-2"
     data-name="HATCH"
     transform="translate(-142.89,-14.02)">
    <path
       class="cls-6"
       d="m 180,556.22 h 475.82 c 16.17,0 29.28,-13.11 29.28,-29.28 V 51.12 c 0,-16.17 -13.11,-29.28 -29.28,-29.28 H 180 c -16.17,0 -29.28,13.11 -29.28,29.28 v 475.82 c 0,16.17 13.11,29.28 29.28,29.28 m 0,7.32 h 475.82 c 20.21,0 36.6,-16.39 36.6,-36.6 V 51.12 c 0,-20.21 -16.39,-36.6 -36.6,-36.6 H 180 c -20.21,0 -36.6,16.39 -36.6,36.6 v 475.82 c 0,20.21 16.39,36.6 36.6,36.6 z"
       id="path9" />
  </g>
  <g
     id="LWPOLYLINE"
     transform="translate(-142.89,-14.02)">
    <rect
       class="cls-3"
       x="143.39"
       y="14.52"
       width="549.03003"
       height="549.03003"
       rx="36.599998"
       ry="36.599998"
       id="rect9" />
  </g>
  <g
     id="LWPOLYLINE-2"
     data-name="LWPOLYLINE"
     transform="translate(-142.89,-14.02)">
    <rect
       class="cls-3"
       x="150.71001"
       y="21.84"
       width="534.39001"
       height="534.39001"
       rx="29.280001"
       ry="29.280001"
       id="rect10" />
  </g>
  <g
     id="sr_Circunferencia_roja"
     data-name="sr_Circunferencia roja"
     transform="translate(-142.89,-14.02)">
    <g
       id="CIRCLE">
      <circle
         class="cls-4"
         cx="417.91"
         cy="289.03"
         r="237.91"
         id="circle23" />
    </g>
    <g
       id="CIRCLE-2"
       data-name="CIRCLE">
      <circle
         class="cls-4"
         cx="417.91"
         cy="289.03"
         r="192.16"
         id="circle24" />
    </g>
    <g
       id="HATCH-3"
       data-name="HATCH">
      <path
         class="cls-5"
         d="m 610.07,289.03 c 0,-106.13 -86.03,-192.16 -192.16,-192.16 -106.13,0 -192.16,86.03 -192.16,192.16 0,106.13 86.03,192.16 192.16,192.16 106.13,0 192.16,-86.03 192.16,-192.16 m 45.75,0 C 655.82,157.63 549.3,51.12 417.91,51.12 286.52,51.12 180,157.64 180,289.03 c 0,131.39 106.52,237.91 237.91,237.91 131.4,0 237.91,-106.52 237.91,-237.91 z"
         id="path24" />
    </g>
  </g>
  <g
     id="MTEXT-1"
     transform="translate(-138.425,-13.93)">
    <g
       id="g4">
      <path
         d="m 327.71,242.28 c 8.44,0 15.68,-1.55 21.72,-4.65 6.03,-3.1 9.05,-9.82 9.05,-20.17 0,-2.93 -0.73,-6.37 -2.2,-10.34 -1.47,-3.96 -4.01,-7.45 -7.63,-10.47 -3.62,-3.01 -8.45,-4.52 -14.48,-4.52 -12.76,0 -23.27,1.98 -31.54,5.95 l -14.99,-23.01 c 11.89,-7.92 28.18,-11.89 48.86,-11.89 8.96,0 17.92,1.85 26.89,5.56 8.96,3.71 16.42,9.53 22.36,17.45 5.95,7.93 8.92,17.93 8.92,29.99 0,8.62 -2.16,15.9 -6.46,21.85 -4.31,5.95 -9.48,10.3 -15.51,13.06 v 0.52 c 6.03,1.72 12.15,5.91 18.36,12.54 6.2,6.64 9.31,16.67 9.31,30.12 0,11.38 -2.63,21.59 -7.89,30.64 -5.26,9.05 -12.63,16.07 -22.1,21.07 -9.48,5 -20.34,7.5 -32.57,7.5 -21.89,0 -39.81,-4.14 -53.77,-12.41 l 14.74,-25.08 c 5.17,2.42 11.2,4.44 18.1,6.08 6.89,1.64 13.27,2.46 19.13,2.46 7.76,0 14.22,-2.63 19.39,-7.89 5.17,-5.25 7.76,-12.71 7.76,-22.36 0,-7.93 -1.9,-13.79 -5.69,-17.58 -3.79,-3.79 -8.71,-6.16 -14.74,-7.11 -6.03,-0.95 -14.31,-1.42 -24.82,-1.42 v -25.85 h 9.82 z"
         id="path3-7" />
      <path
         d="m 434.35,186.82 c 10.43,-15.77 26.58,-23.66 48.47,-23.66 21.89,0 38.04,7.88 48.47,23.66 10.43,15.77 15.64,39.86 15.64,72.26 0,32.4 -5.09,56.23 -15.25,71.48 -10.17,15.25 -26.46,22.88 -48.86,22.88 -22.4,0 -38.48,-7.63 -48.73,-22.88 -10.26,-15.25 -15.38,-39.08 -15.38,-71.48 0,-32.4 5.21,-56.49 15.64,-72.26 z m 28.31,122.29 c 4.48,10.26 11.29,15.38 20.42,15.38 9.13,0 15.68,-5.13 20.17,-15.38 4.48,-10.25 6.72,-26.93 6.72,-50.03 0,-23.1 -2.11,-40.67 -6.33,-51.19 -4.23,-10.51 -11.08,-15.77 -20.55,-15.77 -9.47,0 -16.59,5.26 -20.81,15.77 -4.22,10.51 -6.33,27.58 -6.33,51.19 0,23.61 2.24,39.77 6.72,50.03 z"
         id="path4-1" />
    </g>
  </g>
  <g
     id="g1">
    <path
       d="m 218.83999,395.85 9.83,-9.98 h 6.83 l -12.15,12.05 12.41,15.46 h -6.62 l -10.34,-13.19 0.05,13.19 h -5.43 v -41.11 h 5.43 v 23.58 z"
       id="path16" />
    <path
       d="m 268.81999,394.81 c 0,-4.08 -1.81,-5.43 -3.93,-5.43 -2.59,0 -4.91,1.55 -4.91,1.55 v 22.44 h -5.43 v -17.79 c 0,-2.33 0,-6.21 -4.34,-6.21 -1.97,0 -4.4,1.55 -4.4,1.55 l -0.1,22.44 h -5.27 v -22.55 l -0.36,-4.96 h 4.71 l 0.52,2.38 c 1.91,-1.96 3.83,-3.1 6.62,-3.1 3.98,0 5.38,1.91 6,3.52 1.19,-1.09 4.65,-3.52 8.58,-3.52 5.38,0 7.86,3.15 7.86,9.2 v 19.03 h -5.53 V 394.8 Z"
       id="path18" />
    <path
       d="m 291.15999,414.36 h -5.27 l 11.74,-39.09 h 5.27 z"
       id="path20" />
    <path
       d="m 331.68999,395.12 c 0,-2.02 -0.1,-5.43 -4.71,-5.43 -2.43,0 -7.08,1.91 -7.08,1.91 l 0.05,21.77 h -5.38 l -0.05,-41.06 5.33,-0.05 v 15.62 c 0,0 3.83,-2.74 7.6,-2.74 5.38,0 9.57,3.15 9.57,9.2 v 19.03 h -5.33 z"
       id="path22" />
  </g>
</svg>
