<?xml version="1.0" encoding="UTF-8" standalone="no"?>
<svg
   viewBox="0 0 550.03003 550.03006"
   version="1.1"
   id="svg24"
   sodipodi:docname="SR-9_90_30x30.svg"
   width="550.03003"
   height="550.03003"
   inkscape:version="1.4.2 (f4327f4, 2025-05-13)"
   xmlns:inkscape="http://www.inkscape.org/namespaces/inkscape"
   xmlns:sodipodi="http://sodipodi.sourceforge.net/DTD/sodipodi-0.dtd"
   xmlns="http://www.w3.org/2000/svg"
   xmlns:svg="http://www.w3.org/2000/svg">
  <sodipodi:namedview
     id="namedview24"
     pagecolor="#50505000"
     bordercolor="#ffffffff"
     borderopacity="1"
     inkscape:showpageshadow="0"
     inkscape:pageopacity="0"
     inkscape:pagecheckerboard="1"
     inkscape:deskcolor="#505050ff"
     inkscape:zoom="0.45249285"
     inkscape:cx="275.14247"
     inkscape:cy="529.29013"
     inkscape:window-width="1366"
     inkscape:window-height="697"
     inkscape:window-x="-8"
     inkscape:window-y="-8"
     inkscape:window-maximized="1"
     inkscape:current-layer="svg24" />
  <defs
     id="defs1">
    <style
       id="style1">
      .cls-1, .cls-2 {
        fill: #fff;
      }

      .cls-2, .cls-3 {
        stroke: #000;
      }

      .cls-2, .cls-3, .cls-4 {
        stroke-linecap: round;
        stroke-linejoin: round;
      }

      .cls-5 {
        fill: #bd2025;
      }

      .cls-5, .cls-6 {
        fill-rule: evenodd;
      }

      .cls-3, .cls-4 {
        fill: none;
      }

      .cls-4 {
        stroke: #bd2025;
      }
    </style>
  </defs>
  <g
     id="sr_Fondo_del_tablero"
     data-name="sr_Fondo del tablero"
     transform="translate(-142.89,-14.02)">
    <g
       id="HATCH">
      <rect
         class="cls-1"
         x="150.71001"
         y="21.84"
         width="534.39001"
         height="534.39001"
         rx="29.280001"
         ry="29.280001"
         id="rect3" />
    </g>
  </g>
  <g
     id="HATCH-2"
     data-name="HATCH"
     transform="translate(-142.89,-14.02)">
    <path
       class="cls-6"
       d="m 180,556.22 h 475.82 c 16.17,0 29.28,-13.11 29.28,-29.28 V 51.12 c 0,-16.17 -13.11,-29.28 -29.28,-29.28 H 180 c -16.17,0 -29.28,13.11 -29.28,29.28 v 475.82 c 0,16.17 13.11,29.28 29.28,29.28 m 0,7.32 h 475.82 c 20.21,0 36.6,-16.39 36.6,-36.6 V 51.12 c 0,-20.21 -16.39,-36.6 -36.6,-36.6 H 180 c -20.21,0 -36.6,16.39 -36.6,36.6 v 475.82 c 0,20.21 16.39,36.6 36.6,36.6 z"
       id="path9" />
  </g>
  <g
     id="LWPOLYLINE"
     transform="translate(-142.89,-14.02)">
    <rect
       class="cls-3"
       x="143.39"
       y="14.52"
       width="549.03003"
       height="549.03003"
       rx="36.599998"
       ry="36.599998"
       id="rect9" />
  </g>
  <g
     id="LWPOLYLINE-2"
     data-name="LWPOLYLINE"
     transform="translate(-142.89,-14.02)">
    <rect
       class="cls-3"
       x="150.71001"
       y="21.84"
       width="534.39001"
       height="534.39001"
       rx="29.280001"
       ry="29.280001"
       id="rect10" />
  </g>
  <g
     id="sr_Circunferencia_roja"
     data-name="sr_Circunferencia roja"
     transform="translate(-142.89,-14.02)">
    <g
       id="CIRCLE">
      <circle
         class="cls-4"
         cx="417.91"
         cy="289.03"
         r="237.91"
         id="circle23" />
    </g>
    <g
       id="CIRCLE-2"
       data-name="CIRCLE">
      <circle
         class="cls-4"
         cx="417.91"
         cy="289.03"
         r="192.16"
         id="circle24" />
    </g>
    <g
       id="HATCH-3"
       data-name="HATCH">
      <path
         class="cls-5"
         d="m 610.07,289.03 c 0,-106.13 -86.03,-192.16 -192.16,-192.16 -106.13,0 -192.16,86.03 -192.16,192.16 0,106.13 86.03,192.16 192.16,192.16 106.13,0 192.16,-86.03 192.16,-192.16 m 45.75,0 C 655.82,157.63 549.3,51.12 417.91,51.12 286.52,51.12 180,157.64 180,289.03 c 0,131.39 106.52,237.91 237.91,237.91 131.4,0 237.91,-106.52 237.91,-237.91 z"
         id="path24" />
    </g>
  </g>
  <g
     id="MTEXT-5"
     transform="translate(-142.85,-13.93)">
    <g
       id="g4">
      <path
         d="m 303.15,319.84 c 1.89,1.03 6.89,1.85 15,2.46 8.1,0.61 14.13,0.82 18.1,0.65 6.89,0 12.97,-2.54 18.23,-7.63 5.26,-5.08 9.31,-11.25 12.15,-18.48 2.84,-7.24 4.35,-13.87 4.52,-19.91 -10.51,6.72 -22.32,10.08 -35.42,10.08 -11.55,0 -21.33,-2.71 -29.34,-8.14 -8.01,-5.43 -13.96,-12.49 -17.84,-21.2 -3.88,-8.7 -5.82,-17.88 -5.82,-27.53 0,-13.44 2.46,-25.21 7.37,-35.29 4.91,-10.08 11.8,-17.84 20.68,-23.27 8.88,-5.43 19.09,-8.14 30.64,-8.14 17.41,0 31.06,3.58 40.98,10.73 9.91,7.15 16.89,17.58 20.94,31.28 4.05,13.7 6.08,31.24 6.08,52.61 0,14.48 -2.29,28.79 -6.85,42.92 -4.57,14.13 -12.37,26.16 -23.4,36.06 -11.03,9.91 -25.68,14.95 -43.95,15.12 -4.83,0.17 -11.55,-0.22 -20.17,-1.16 -8.62,-0.95 -16.03,-2.54 -22.23,-4.78 l 10.34,-26.37 z m 22.88,-69.55 c 4.74,5.34 10.38,8.01 16.93,8.01 5,-0.17 9.99,-1.03 14.99,-2.58 5,-1.55 9.57,-3.53 13.7,-5.95 v -7.76 c 0,-12.06 -0.86,-21.67 -2.58,-28.83 -1.73,-7.15 -4.7,-12.41 -8.92,-15.77 -4.23,-3.36 -9.95,-5.04 -17.19,-5.04 -7.24,0 -12.63,2.8 -17.19,8.4 -4.57,5.6 -6.85,14.26 -6.85,25.98 0,10.34 2.37,18.19 7.11,23.53 z"
         id="path3-2" />
      <path
         d="m 444.79,186.82 c 10.43,-15.77 26.58,-23.66 48.47,-23.66 21.89,0 38.04,7.88 48.47,23.66 10.43,15.77 15.64,39.86 15.64,72.26 0,32.4 -5.09,56.23 -15.25,71.48 -10.17,15.25 -26.46,22.88 -48.86,22.88 -22.4,0 -38.48,-7.63 -48.73,-22.88 -10.26,-15.25 -15.38,-39.08 -15.38,-71.48 0,-32.4 5.21,-56.49 15.64,-72.26 z m 28.31,122.29 c 4.48,10.26 11.29,15.38 20.42,15.38 9.13,0 15.68,-5.13 20.17,-15.38 4.48,-10.25 6.72,-26.93 6.72,-50.03 0,-23.1 -2.11,-40.67 -6.33,-51.19 -4.23,-10.51 -11.08,-15.77 -20.55,-15.77 -9.47,0 -16.59,5.26 -20.81,15.77 -4.22,10.51 -6.33,27.58 -6.33,51.19 0,23.61 2.24,39.77 6.72,50.03 z"
         id="path4-7" />
    </g>
  </g>
  <g
     id="g1">
    <path
       d="m 218.83999,395.85 9.83,-9.98 h 6.83 l -12.15,12.05 12.41,15.46 h -6.62 l -10.34,-13.19 0.05,13.19 h -5.43 v -41.11 h 5.43 v 23.58 z"
       id="path16" />
    <path
       d="m 268.81999,394.81 c 0,-4.08 -1.81,-5.43 -3.93,-5.43 -2.59,0 -4.91,1.55 -4.91,1.55 v 22.44 h -5.43 v -17.79 c 0,-2.33 0,-6.21 -4.34,-6.21 -1.97,0 -4.4,1.55 -4.4,1.55 l -0.1,22.44 h -5.27 v -22.55 l -0.36,-4.96 h 4.71 l 0.52,2.38 c 1.91,-1.96 3.83,-3.1 6.62,-3.1 3.98,0 5.38,1.91 6,3.52 1.19,-1.09 4.65,-3.52 8.58,-3.52 5.38,0 7.86,3.15 7.86,9.2 v 19.03 h -5.53 V 394.8 Z"
       id="path18" />
    <path
       d="m 291.15999,414.36 h -5.27 l 11.74,-39.09 h 5.27 z"
       id="path20" />
    <path
       d="m 331.68999,395.12 c 0,-2.02 -0.1,-5.43 -4.71,-5.43 -2.43,0 -7.08,1.91 -7.08,1.91 l 0.05,21.77 h -5.38 l -0.05,-41.06 5.33,-0.05 v 15.62 c 0,0 3.83,-2.74 7.6,-2.74 5.38,0 9.57,3.15 9.57,9.2 v 19.03 h -5.33 z"
       id="path22" />
  </g>
</svg>
