<?xml version="1.0" encoding="UTF-8" standalone="no"?>
<svg
   viewBox="0 0 550.11999 550.11998"
   version="1.1"
   id="svg78"
   width="550.12"
   height="550.12"
   xmlns="http://www.w3.org/2000/svg"
   xmlns:svg="http://www.w3.org/2000/svg">
  <defs
     id="defs4">
    <style
       id="style2">.cls-1,.cls-2{fill:#fff;}.cls-2,.cls-3{stroke:#000;}.cls-2,.cls-3,.cls-4{stroke-linecap:round;stroke-linejoin:round;}.cls-5{fill:#bd2025;}.cls-5,.cls-6{fill-rule:evenodd;}.cls-3,.cls-4{fill:none;}.cls-4{stroke:#bd2025;}</style>
  </defs>
  <g
     id="sr_x5F_Fondo_del_tablero"
     transform="translate(-142.85001,-13.93)">
    <g
       id="HATCH">
      <rect
         class="cls-1"
         x="150.67"
         y="21.75"
         width="534.47998"
         height="534.47998"
         rx="29.290001"
         ry="29.290001"
         id="rect12" />
    </g>
  </g>
  <g
     id="sr_x5F_Pictograma_y_filete"
     transform="translate(-142.85001,-13.93)">
    <path
       d="m 361.69,409.78 9.83,-9.98 h 6.83 l -12.15,12.05 12.41,15.46 h -6.62 l -10.34,-13.19 0.05,13.19 h -5.43 V 386.2 h 5.43 v 23.58 z"
       id="path16" />
    <path
       d="m 411.67,408.74 c 0,-4.08 -1.81,-5.43 -3.93,-5.43 -2.59,0 -4.91,1.55 -4.91,1.55 v 22.44 h -5.43 v -17.79 c 0,-2.33 0,-6.21 -4.34,-6.21 -1.97,0 -4.4,1.55 -4.4,1.55 l -0.1,22.44 h -5.27 v -22.55 l -0.36,-4.96 h 4.71 l 0.52,2.38 c 1.91,-1.96 3.83,-3.1 6.62,-3.1 3.98,0 5.38,1.91 6,3.52 1.19,-1.09 4.65,-3.52 8.58,-3.52 5.38,0 7.86,3.15 7.86,9.2 v 19.03 h -5.53 v -18.56 z"
       id="path18" />
    <path
       d="m 434.01,428.29 h -5.27 l 11.74,-39.09 h 5.27 z"
       id="path20" />
    <path
       d="m 474.54,409.05 c 0,-2.02 -0.1,-5.43 -4.71,-5.43 -2.43,0 -7.08,1.91 -7.08,1.91 l 0.05,21.77 h -5.38 l -0.05,-41.06 5.33,-0.05 v 15.62 c 0,0 3.83,-2.74 7.6,-2.74 5.38,0 9.57,3.15 9.57,9.2 v 19.03 h -5.33 z"
       id="path22" />
    <path
       d="m 309.07,315.44 c 8.53,7.76 22.23,9.05 33.61,9.05 17.32,0 27.4,-14.74 27.4,-34.38 0,-16.29 -8.27,-29.21 -26.63,-29.21 -4.91,0 -15.25,-0.52 -28.44,7.24 l -24.04,-12.41 11.89,-87.64 h 96.43 v 30.51 h -67.73 l -8.01,40.33 c 6.72,-4.65 14.74,-6.98 29.99,-6.98 23.78,0 53.77,13.44 53.77,55.58 0,25.08 -12.67,65.92 -66.7,65.92 -17.06,0 -36.71,-3.36 -47.83,-14.74 z"
       id="path24" />
    <path
       d="m 492.36,163.17 c 43.95,0 64.12,31.28 64.12,95.92 0,64.64 -19.13,94.36 -64.12,94.36 -44.99,0 -64.12,-29.99 -64.12,-94.36 0,-64.37 20.17,-95.92 64.12,-95.92 z m 0.26,161.32 c 17.58,0 26.89,-18.1 26.89,-65.41 0,-47.31 -8.01,-66.96 -26.89,-66.96 -18.88,0 -27.15,19.65 -27.15,66.96 0,47.31 9.57,65.41 27.15,65.41 z"
       id="path26" />
    <g
       id="HATCH-2">
      <path
         class="cls-6"
         d="m 179.96,556.22 h 475.9 c 16.17,0 29.29,-13.11 29.29,-29.29 V 51.03 c 0,-16.17 -13.11,-29.29 -29.29,-29.29 h -475.9 c -16.17,0 -29.29,13.11 -29.29,29.29 v 475.9 c 0,16.17 13.11,29.29 29.29,29.29 m 0,7.33 h 475.9 c 20.22,0 36.61,-16.39 36.61,-36.61 V 51.03 c 0,-20.22 -16.39,-36.61 -36.61,-36.61 h -475.9 c -20.22,0 -36.61,16.39 -36.61,36.61 v 475.9 c 0,20.22 16.39,36.61 36.61,36.61 z"
         id="path28" />
    </g>
    <g
       id="LWPOLYLINE">
      <rect
         class="cls-3"
         x="143.35001"
         y="14.43"
         width="549.12"
         height="549.12"
         rx="36.610001"
         ry="36.610001"
         id="rect31" />
    </g>
    <g
       id="LWPOLYLINE-2">
      <rect
         class="cls-3"
         x="150.67"
         y="21.75"
         width="534.47998"
         height="534.47998"
         rx="29.290001"
         ry="29.290001"
         id="rect34" />
    </g>
  </g>
  <g
     id="sr_x5F_Circunferencia_roja"
     transform="translate(-142.85001,-13.93)">
    <g
       id="CIRCLE">
      <circle
         class="cls-4"
         cx="417.91"
         cy="288.98999"
         r="237.95"
         id="circle68" />
    </g>
    <g
       id="CIRCLE-2">
      <circle
         class="cls-4"
         cx="417.91"
         cy="288.98999"
         r="192.19"
         id="circle71" />
    </g>
    <g
       id="HATCH-3">
      <path
         class="cls-5"
         d="M 610.1,288.99 C 610.1,182.85 524.05,96.8 417.91,96.8 c -106.14,0 -192.19,86.05 -192.19,192.19 0,106.14 86.05,192.19 192.19,192.19 106.14,0 192.19,-86.05 192.19,-192.19 m 45.76,0 c 0,-131.42 -106.53,-237.95 -237.95,-237.95 -131.42,0 -237.95,106.53 -237.95,237.95 0,131.42 106.53,237.95 237.95,237.95 131.42,0 237.95,-106.53 237.95,-237.95 z"
         id="path74" />
    </g>
  </g>
</svg>
